# Blender v2.79 (sub 0) OBJ File: ''
# www.blender.org
mtllib Forearm.mtl
v 0.002068 0.002556 -0.098446
v -0.002856 0.000918 0.108254
v -0.119942 0.007306 0.004102
v -0.262468 -1.668322 -0.016018
v 0.251658 -1.695436 0.006484
v -0.009590 -1.686494 0.452314
v -0.000526 -1.677300 -0.461820
v -0.261300 -1.073026 -0.014112
v 0.252920 -1.072004 0.013902
v 0.001482 -1.067902 -0.457136
v -0.010552 -1.077130 0.456892
v 0.011140 -1.074448 0.194576
v 0.206802 -0.225184 0.003796
v 0.008716 -0.227088 0.202204
v 0.012156 -1.070862 -0.203584
v -0.193762 -0.226632 0.002596
v 0.010788 -0.223122 -0.195950
v -0.187438 -1.072878 -0.005014
v 0.210736 -1.072432 -0.003994
v 0.128300 -0.001704 0.005680
vt 0.323679 0.798946
vt 0.317904 0.815256
vt 0.316952 0.798946
vt 0.276054 0.717868
vt 0.273998 0.758253
vt 0.313877 0.689551
vt 0.306023 0.788559
vt 0.290853 0.771670
vt 0.279223 0.712878
vt 0.284111 0.761152
vt 0.306899 0.697742
vt 0.289943 0.747567
vt 0.293415 0.788525
vt 0.300562 0.727475
vt 0.294932 0.744971
vt 0.296617 0.696664
vt 0.305146 0.738026
vt 0.319237 0.734723
vt 0.322440 0.792907
vt 0.318293 0.752387
vt 0.306191 0.763748
vt 0.306360 0.764051
vt 0.308382 0.722890
vt 0.319911 0.696495
vt 0.296247 0.765973
vt 0.301303 0.799649
vt 0.319069 0.793379
vt 0.316473 0.780637
vt 0.324948 0.815828
vt 0.326317 0.721137
vt 0.293718 0.710215
vt 0.296550 0.710417
vn 0.3900 -0.8559 0.3395
vn -0.4390 -0.8185 -0.3706
vn 0.3764 -0.8550 -0.3568
vn -0.5832 -0.8123 -0.0058
vn 0.6624 -0.6821 0.3097
vn -0.3459 -0.7556 0.5562
vn 0.3201 -0.7611 -0.5642
vn -0.4722 0.8813 0.0165
vn 0.6401 0.6668 -0.3816
vn -0.3105 0.7629 -0.5671
vn -0.3561 0.2327 0.9050
vn -0.0014 -0.0084 1.0000
vn 0.9241 0.1962 0.3280
vn 0.0028 -0.1747 0.9846
vn 0.0047 0.0080 -1.0000
vn -0.9260 0.2036 -0.3181
vn 0.0102 -0.1555 -0.9878
vn -1.0000 -0.0056 -0.0016
vn 1.0000 0.0046 0.0025
vn -0.0397 0.0421 -0.9983
vn -0.9988 -0.0466 -0.0174
vn 0.9991 0.0409 0.0129
vn -0.0678 0.0332 0.9971
vn -0.4580 -0.8240 0.3337
usemtl Material.001
s 1
f 1/1/1 2/2/2 3/3/3
f 4/4/4 5/5/5 6/6/6
f 7/7/7 5/5/5 4/4/4
f 8/8/8 9/9/9 10/10/10
f 4/11/4 10/12/10 7/13/7
f 11/14/11 4/11/4 6/15/6
f 9/16/9 7/13/7 10/12/10
f 6/15/6 9/16/9 11/14/11
f 12/17/12 13/18/13 14/19/14
f 15/20/15 16/21/16 17/22/17
f 18/23/18 14/19/14 16/21/16
f 15/20/15 13/18/13 19/24/19
f 1/25/20 16/21/16 3/26/21
f 20/27/22 17/22/17 1/25/20
f 14/19/14 20/27/22 2/28/23
f 16/21/16 2/28/23 3/26/21
f 1/1/1 20/29/24 2/2/2
f 8/8/8 11/30/11 9/9/9
f 4/11/4 8/31/8 10/12/10
f 11/14/11 8/31/8 4/11/4
f 9/16/9 5/32/5 7/13/7
f 6/15/6 5/32/5 9/16/9
f 12/17/12 19/24/19 13/18/13
f 15/20/15 18/23/18 16/21/16
f 18/23/18 12/17/12 14/19/14
f 15/20/15 17/22/17 13/18/13
f 1/25/20 17/22/17 16/21/16
f 20/27/22 13/18/13 17/22/17
f 14/19/14 13/18/13 20/27/22
f 16/21/16 14/19/14 2/28/23
