# Blender v2.79 (sub 0) OBJ File: ''
# www.blender.org
mtllib HandRight.mtl
v -0.617372 -0.672926 0.499686
v -0.625252 -0.745976 -0.560344
v -0.663416 -1.477964 0.032754
v -0.392330 -0.628936 -0.701016
v 0.378986 -1.434508 -0.813176
v -0.668380 -1.563168 -0.621704
v -0.658454 -1.392758 0.687214
v -0.382452 -0.566768 0.637406
v 0.280514 -1.235096 0.765566
v 0.305132 -1.284950 0.370880
v -0.660936 -1.435362 0.359984
v -0.305108 -0.231330 -0.575562
v -0.142476 -1.308834 -0.989622
v -0.378250 -1.349398 -0.712038
v 0.172852 -0.344290 -0.660322
v -0.096652 -1.111882 -0.459884
v 0.125414 -1.366740 -0.768814
v -0.070344 -0.212524 -0.855452
v -0.068386 -0.355022 -0.453712
v 0.329752 -1.334800 -0.023806
v -0.665898 -1.520566 -0.294474
v 0.354368 -1.384654 -0.418490
v -0.390084 0.001882 -0.603082
v -0.381576 -0.002812 0.569294
v 0.355094 0.000070 -0.608496
v 0.363600 -0.004624 0.563878
vt 0.528900 0.684300
vt 0.542100 0.784000
vt 0.450400 0.587900
vt 0.567300 0.829200
vt 0.510600 0.875900
vt 0.456700 0.774400
vt 0.476000 0.699100
vt 0.481900 0.713500
vt 0.484200 0.600300
vt 0.507500 0.625100
vt 0.432000 0.727900
vt 0.494300 0.699100
vt 0.442700 0.862500
vt 0.509800 0.818600
vt 0.542300 0.575700
vt 0.533300 0.682500
vt 0.466400 0.883100
vt 0.489400 0.884000
vt 0.520300 0.551000
vt 0.048866 0.121143
vt 0.048866 0.121143
vt 0.048866 0.121143
vt 0.529900 0.916900
vt 0.453200 0.688000
vt 0.426700 0.845900
vt 0.920293 0.767256
vt 0.872407 0.800002
vt 0.907825 0.864193
vt 0.888164 0.841928
vt 0.905701 0.736428
vt 0.949819 0.811717
vt 0.882820 0.756500
vt 0.073195 0.125392
vt 0.080440 0.317157
vt 0.048956 0.290861
vt 0.109374 0.234154
vt 0.100296 0.288267
vt 0.886793 0.606677
vt 0.098373 0.147439
vt 0.110984 0.190461
vn -0.7917 0.5332 0.2983
vn -0.7804 0.4015 -0.4794
vn -0.6723 -0.7332 0.1022
vn -0.5361 0.1709 -0.8267
vn 0.5613 -0.5475 -0.6206
vn -0.5879 -0.6403 -0.4943
vn -0.5799 -0.5424 0.6078
vn -0.5021 0.3191 0.8038
vn 0.5518 -0.4560 0.6983
vn 0.7360 -0.6645 0.1289
vn -0.6726 -0.7331 0.1005
vn -0.6800 0.6893 0.2498
vn -0.1054 -0.4355 -0.8940
vn -0.7809 -0.6161 0.1032
vn 0.8925 0.4474 0.0577
vn 0.0788 -0.2896 0.9539
vn 0.7383 -0.6732 -0.0407
vn 0.0252 0.7521 -0.6585
vn 0.1702 0.4204 0.8912
vn 0.7350 -0.6656 0.1295
vn -0.6725 -0.7332 0.1012
vn 0.7342 -0.6664 0.1296
vn -0.5880 0.6180 -0.5219
vn -0.5788 0.6077 0.5438
vn 0.5770 0.6189 -0.5329
vn 0.5926 0.6023 0.5348
usemtl Material.001
s 1
f 1/1/1 2/2/2 3/3/3
f 1/1/1 4/4/4 2/2/2
f 2/2/2 5/5/5 6/6/6
f 7/7/7 8/8/8 1/1/1
f 8/8/8 4/4/4 1/1/1
f 4/4/4 5/5/5 2/2/2
f 9/9/9 8/8/8 7/7/7
f 10/10/10 7/7/7 11/11/11
f 12/12/12 13/13/13 14/14/14
f 15/15/15 16/16/16 17/17/17
f 14/14/14 13/13/13 17/17/17
f 15/15/15 13/13/13 18/18/18
f 12/12/12 16/16/16 19/19/19
f 18/18/18 19/19/19 15/15/15
f 16/20/16 14/21/14 17/22/17
f 20/23/20 21/24/21 22/25/22
f 22/25/22 6/6/6 5/5/5
f 10/10/10 3/3/3 20/23/20
f 23/26/23 8/27/8 24/28/24
f 25/29/25 4/30/4 23/26/23
f 23/26/23 26/31/26 25/29/25
f 4/30/4 8/27/8 23/26/23
f 5/32/5 4/30/4 25/29/25
f 8/27/8 26/31/26 24/28/24
f 26/33/26 5/34/5 25/35/25
f 20/36/20 22/37/22 26/33/26
f 2/2/2 6/6/6 21/24/21
f 3/3/3 11/11/11 1/1/1
f 11/11/11 7/7/7 1/1/1
f 2/2/2 21/24/21 3/3/3
f 10/10/10 9/9/9 7/7/7
f 12/12/12 18/18/18 13/13/13
f 15/15/15 19/19/19 16/16/16
f 15/15/15 17/17/17 13/13/13
f 12/12/12 14/14/14 16/16/16
f 18/18/18 12/12/12 19/19/19
f 20/23/20 3/3/3 21/24/21
f 22/25/22 21/24/21 6/6/6
f 10/10/10 11/11/11 3/3/3
f 23/26/23 24/28/24 26/31/26
f 8/27/8 9/38/9 26/31/26
f 26/33/26 9/39/9 10/40/10
f 26/33/26 10/40/10 20/36/20
f 22/37/22 5/34/5 26/33/26
