# Blender v2.79 (sub 0) OBJ File: ''
# www.blender.org
mtllib Head.mtl
v 0.988020 -0.778430 -1.284379
v 0.598199 -0.193261 -1.474357
v 1.061993 -0.181590 -1.661578
v 0.452380 -1.349761 -0.485393
v 0.936243 -1.765522 -0.089672
v 0.823937 -1.785452 -0.000000
v 0.182226 0.246820 -0.951879
v 0.639479 0.213420 -1.624265
v 0.627139 -0.762756 -1.333774
v 0.185263 -0.225265 -0.966081
v 0.769337 -1.267661 -0.865863
v 0.803600 -1.182649 -0.844244
v 0.353505 -1.474318 -0.000000
v 1.034916 -1.750388 -0.000000
v 0.081605 -0.954479 -0.000000
v 0.275062 -0.844108 -0.811036
v -0.000007 -0.223280 -0.000000
v 1.089294 -1.654649 -0.000000
v 0.022969 0.270615 0.000000
v 0.598201 -0.193261 1.474357
v 0.988021 -0.778430 1.284379
v 1.061995 -0.181591 1.661578
v 0.452382 -1.349761 0.485392
v 0.936243 -1.765522 0.089671
v 0.769338 -1.267661 0.865863
v 0.182226 0.246819 0.951879
v 0.639481 0.213419 1.624265
v 0.185264 -0.225265 0.966081
v 0.627140 -0.762756 1.333774
v 0.803602 -1.182649 0.844244
v 0.275062 -0.844108 0.811036
v 1.137269 -2.592814 -0.000000
v 1.782385 -0.793648 -1.455741
v 1.896637 -0.470762 -1.693255
v 2.553754 -0.865041 -1.357844
v 1.501925 -1.335639 -0.869644
v 1.917333 -1.481096 -0.824786
v 1.324972 -1.644026 -0.000000
v 1.782385 -0.793649 1.455741
v 2.553754 -0.865042 1.357844
v 1.896639 -0.470763 1.693254
v 1.501925 -1.335639 0.869643
v 1.917333 -1.481096 0.824785
v 4.020861 4.366134 -0.606169
v 3.801462 6.408905 0.000002
v 4.514700 3.910604 0.000001
v 4.061973 0.449161 -1.120109
v 4.700716 1.603177 0.000000
v 4.494880 0.103328 0.000000
v 2.235371 -0.379948 -1.758932
v 3.296955 -0.095341 -1.964770
v 2.634478 -0.919764 -1.425462
v 3.808619 -0.890399 -1.067430
v 3.744027 -1.147694 -0.000000
v 3.178988 1.079645 -1.964743
v 0.043957 0.721786 0.000000
v 1.865058 3.476118 -2.663003
v 1.242467 2.858931 -2.824098
v 1.353882 4.965596 -3.392995
v 3.405065 1.839837 -1.492657
v 1.690536 0.162561 -1.984073
v 0.688337 3.160448 -2.760369
v 3.577795 4.132314 0.000002
v 2.269458 2.250833 -0.924608
v 3.713030 2.514237 -1.212340
v 1.582032 2.122715 -0.995050
v 1.603863 3.494772 -2.015949
v 1.260151 3.430711 -2.065888
v 4.586770 -0.659974 -1.954016
v 1.972901 -1.614237 -0.815602
v 2.948849 -1.443446 -0.736141
v 1.964420 -1.827624 -0.000000
v 1.317391 -1.828393 -0.000000
v 3.115704 3.006039 0.000001
v 0.034422 1.477501 -0.841354
v 0.278179 2.517235 -1.563563
v 0.438405 1.582185 -1.974750
v 0.608224 3.627972 -2.366322
v 3.187871 -0.940435 -1.376011
v 0.559501 2.293302 -0.739731
v 0.506807 2.220953 0.000000
v 2.791847 2.213526 -1.837395
v 2.573989 -1.826636 -0.000000
v 0.016465 1.226950 0.000000
v 4.020861 4.366134 0.606172
v 4.061972 0.449160 1.120110
v 2.235373 -0.379949 1.758930
v 2.634480 -0.919765 1.425462
v 3.296956 -0.095341 1.964770
v 3.808619 -0.890399 1.067430
v 3.178990 1.079644 1.964743
v 1.865058 3.476115 2.663007
v 1.353883 4.965594 3.392998
v 1.242467 2.858929 2.824100
v 3.405065 1.839837 1.492658
v 1.690538 0.162560 1.984073
v 1.546667 0.979155 2.064647
v 0.688337 3.160446 2.760373
v 3.713030 2.514237 1.212342
v 2.269458 2.250832 0.924610
v 1.603863 3.494770 2.015953
v 1.582032 2.122715 0.995051
v 1.260151 3.430710 2.065891
v 4.586772 -0.659974 1.954014
v 1.972903 -1.614237 0.815602
v 2.948851 -1.443446 0.736141
v 0.034422 1.477500 0.841354
v 0.438405 1.582185 1.974751
v 0.278179 2.517234 1.563563
v 0.608224 3.627969 2.366327
v 3.187871 -0.940437 1.376011
v 0.559501 2.293302 0.739732
v 2.791849 2.213524 1.837397
v 1.546667 0.979156 -2.064646
v 1.111795 -1.537958 -0.480077
v 1.038370 -1.453128 -0.511197
v 1.136061 -1.526685 -0.510884
v 1.133657 -1.559384 -0.452831
v 1.229154 -1.588951 -0.355724
v 1.033563 -1.518527 -0.395092
v 1.236050 -1.532052 -0.544184
v 1.482905 -1.502642 -0.602154
v 1.480387 -1.573809 -0.563260
v 1.826300 -1.615809 -0.528882
v 1.731032 -1.527438 -0.590621
v 1.926165 -1.567798 -0.534368
v 1.850340 -1.633144 -0.499234
v 1.921357 -1.633198 -0.418263
v 1.823896 -1.648510 -0.470831
v 1.728733 -1.595630 -0.557009
v 1.721838 -1.652527 -0.368548
v 1.231453 -1.594597 -0.433148
v 1.472838 -1.639631 -0.358955
v 1.238348 -1.463861 -0.577796
v 1.475354 -1.642304 -0.441660
v 1.724137 -1.658175 -0.445971
v 1.038370 -1.453128 0.511197
v 1.111795 -1.537958 0.480076
v 1.136061 -1.526685 0.510884
v 1.133657 -1.559385 0.452830
v 1.229154 -1.588951 0.355723
v 1.231453 -1.594597 0.433148
v 1.482905 -1.502642 0.602153
v 1.236050 -1.532052 0.544183
v 1.480387 -1.573809 0.563259
v 1.826300 -1.615809 0.528882
v 1.731032 -1.527438 0.590621
v 1.728733 -1.595630 0.557008
v 1.921357 -1.633199 0.418263
v 1.850340 -1.633144 0.499234
v 1.823896 -1.648511 0.470830
v 1.721838 -1.652528 0.368548
v 1.926165 -1.567798 0.534368
v 1.974246 -1.602466 0.475072
v 1.472838 -1.639631 0.358955
v 1.033563 -1.518527 0.395092
v 0.989840 -1.475673 0.449580
v 1.238348 -1.463862 0.577796
v 1.475354 -1.642304 0.441660
v 0.989840 -1.475673 -0.449581
v 1.974246 -1.602466 -0.475072
v 1.724137 -1.658175 0.445971
vt 0.064561 0.788869
vt 0.061052 0.781752
vt 0.065513 0.785811
vt 0.065413 0.792126
vt 0.068620 0.803002
vt 0.060852 0.795434
vt 0.069372 0.783255
vt 0.078895 0.775587
vt 0.078995 0.783606
vt 0.092377 0.788718
vt 0.088869 0.777742
vt 0.096537 0.785310
vt 0.093329 0.791976
vt 0.096337 0.799394
vt 0.092327 0.795033
vt 0.088668 0.785310
vt 0.088468 0.805408
vt 0.069222 0.795534
vt 0.078444 0.805408
vt 0.069021 0.775837
vt 0.078795 0.797239
vt 0.088518 0.797640
vt 0.053885 0.730980
vt 0.057594 0.724665
vt 0.058446 0.727923
vt 0.058596 0.721608
vt 0.062105 0.711433
vt 0.062456 0.719052
vt 0.071427 0.741004
vt 0.062205 0.731281
vt 0.071778 0.733035
vt 0.085310 0.730830
vt 0.081451 0.741004
vt 0.081501 0.733386
vt 0.089621 0.721056
vt 0.086363 0.727772
vt 0.085461 0.724515
vt 0.082002 0.713338
vt 0.089320 0.735090
vt 0.091475 0.728324
vt 0.072029 0.711183
vt 0.054136 0.717348
vt 0.052131 0.723963
vt 0.061554 0.738598
vt 0.072079 0.719402
vt 0.059098 0.788418
vt 0.098442 0.792527
vt 0.081752 0.721107
vt 0.436700 0.797600
vt 0.539200 0.751400
vt 0.520500 0.759500
vt 0.480200 0.780900
vt 0.503100 0.944100
vt 0.533800 0.853700
vt 0.542500 0.570600
vt 0.536100 0.614200
vt 0.585400 0.826200
vt 0.549600 0.665900
vt 0.465600 0.801300
vt 0.452100 0.806800
vt 0.501300 0.733000
vt 0.507500 0.805000
vt 0.532600 0.932000
vt 0.522100 0.867800
vt 0.509200 0.627000
vt 0.488800 0.786600
vt 0.502800 0.565900
vt 0.493900 0.867000
vt 0.518200 0.877000
vt 0.438600 0.654400
vt 0.493400 0.858700
vt 0.454300 0.621700
vt 0.498000 0.733400
vt 0.467600 0.605000
vt 0.426700 0.824500
vt 0.490100 0.771000
vt 0.527400 0.789600
vt 0.494300 0.882300
vt 0.452300 0.865300
vt 0.765700 0.861000
vt 0.646900 0.875900
vt 0.654100 0.673700
vt 0.636300 0.566700
vt 0.741400 0.560600
vt 0.945503 0.752048
vt 0.922280 0.810141
vt 0.926459 0.840969
vt 0.918923 0.747937
vt 0.893027 0.794522
vt 0.891178 0.746087
vt 0.914401 0.694023
vt 0.891246 0.651891
vt 0.873572 0.707381
vt 0.878915 0.752185
vt 0.847813 0.724576
vt 0.915155 0.747663
vt 0.874325 0.838503
vt 0.893850 0.697037
vt 0.913442 0.676005
vt 0.292134 0.703473
vt 0.279762 0.688539
vt 0.293381 0.700675
vt 0.288594 0.694978
vt 0.288864 0.683550
vt 0.291021 0.706844
vt 0.288527 0.752522
vt 0.282021 0.694877
vt 0.291662 0.760478
vt 0.289976 0.747836
vt 0.316203 0.717564
vt 0.286841 0.739881
vt 0.282830 0.735431
vt 0.294055 0.739308
vt 0.288931 0.761253
vt 0.280335 0.682235
vt 0.286841 0.751578
vt 0.286909 0.682337
vt 0.289707 0.704181
vt 0.291628 0.700102
vt 0.306158 0.750668
vt 0.289201 0.697978
vt 0.290651 0.746690
vt 0.299887 0.723160
vt 0.288527 0.764220
vt 0.288527 0.703136
vt 0.293617 0.728689
vt 0.290415 0.736678
vt 0.301573 0.735802
vt 0.292336 0.759332
vt 0.277166 0.681527
vt 0.286841 0.690495
vt 0.295235 0.717868
vt 0.287718 0.702158
vt 0.281009 0.718272
vt 0.291257 0.702563
vt 0.272481 0.704720
vt 0.278683 0.717800
vt 0.284010 0.816640
vt 0.284886 0.769849
vt 0.300326 0.806122
vt 0.297629 0.797661
vt 0.296921 0.730509
vt 0.275616 0.741499
vt 0.282661 0.670538
vt 0.307304 0.729531
vt 0.285594 0.735734
vt 0.287145 0.690629
vt 0.288729 0.724037
vt 0.287145 0.727576
vt 0.275616 0.746656
vt 0.299045 0.693057
vt 0.283909 0.723093
vt 0.305618 0.716890
vt 0.282695 0.730914
vt 0.308281 0.715204
vt 0.293685 0.721306
vt 0.274166 0.717362
vt 0.288830 0.740218
vt 0.300730 0.705698
vt 0.291932 0.716047
vt 0.281043 0.700810
vt 0.297966 0.780805
vt 0.273930 0.734015
vt 0.309697 0.820146
vt 0.285459 0.695180
vt 0.285459 0.677988
vt 0.290617 0.773895
vt 0.283201 0.757208
vt 0.287145 0.707822
vt 0.282729 0.713451
vt 0.306596 0.702563
vt 0.304641 0.794458
vt 0.309427 0.708091
vt 0.295202 0.698922
vt 0.287482 0.669055
vt 0.281448 0.701181
vt 0.303191 0.708833
vt 0.298101 0.681898
vt 0.289336 0.694203
vt 0.301067 0.743555
vt 0.321698 0.718744
vt 0.308854 0.680213
vt 0.323384 0.731385
vt 0.302753 0.756196
vt 0.316203 0.716182
vt 0.303461 0.723362
vt 0.299786 0.694540
vt 0.325946 0.733745
vt 0.295910 0.699259
vt 0.305113 0.725385
vt 0.300427 0.765838
vt 0.299449 0.746690
vt 0.304708 0.740757
vt 0.292606 0.675527
vt 0.302146 0.749994
vt 0.306764 0.731891
vt 0.298472 0.733914
vt 0.303022 0.728116
vt 0.297764 0.734049
vt 0.278852 0.694169
vt 0.277739 0.702967
vt 0.289066 0.700102
vt 0.277975 0.721373
vt 0.276054 0.716654
vt 0.293819 0.719283
vt 0.310540 0.692854
vt 0.304034 0.702934
vt 0.316810 0.797425
vt 0.307742 0.756500
vt 0.273930 0.728857
vt 0.321091 0.729801
vt 0.309630 0.705192
vt 0.293314 0.715676
vt 0.293280 0.757545
vt 0.311922 0.725452
vt 0.297426 0.718340
vt 0.277739 0.729295
vt 0.290752 0.712744
vt 0.294291 0.688169
vt 0.279425 0.715609
vt 0.290078 0.730340
vt 0.299112 0.730981
vt 0.303832 0.762635
vt 0.314518 0.703540
vt 0.331306 0.754713
vt 0.325170 0.804706
vt 0.305214 0.797189
vt 0.332991 0.767355
vt 0.292943 0.715204
vt 0.295370 0.733948
vt 0.290887 0.710620
vt 0.298741 0.753196
vt 0.290988 0.722115
vt 0.298876 0.697169
vt 0.279661 0.734015
vt 0.294999 0.728318
vt 0.295505 0.731925
vt 0.300157 0.746555
vt 0.311315 0.717834
vt 0.308450 0.744533
vt 0.309899 0.746420
vt 0.311585 0.759062
vt 0.069215 0.163628
vt 0.127934 0.232991
vt 0.068499 0.278294
vt 0.050342 0.241846
vt 0.118632 0.163986
vt 0.123551 0.282543
vt 0.916594 0.669429
vt 0.293381 0.792874
vt 0.282324 0.803998
vt 0.319979 0.799919
vt 0.294966 0.770186
vt 0.326856 0.817348
vn -0.4931 -0.7484 -0.4436
vn -0.4384 -0.5851 -0.6823
vn -0.3704 -0.4953 -0.7858
vn -0.4027 -0.9139 -0.0513
vn -0.2743 -0.9597 0.0618
vn -0.4583 -0.8707 -0.1784
vn -0.2330 -0.4272 -0.8736
vn -0.0819 -0.4722 -0.8777
vn -0.0756 -0.4726 -0.8781
vn 0.2135 -0.5372 -0.8160
vn 0.0642 -0.4471 -0.8922
vn 0.2655 -0.6351 -0.7254
vn 0.2970 -0.8361 -0.4612
vn 0.2347 -0.9595 -0.1556
vn 0.1741 -0.9841 -0.0362
vn 0.0827 -0.4428 -0.8928
vn 0.0175 -0.9975 0.0688
vn -0.2764 -0.9593 0.0578
vn -0.1249 -0.9916 0.0322
vn -0.2316 -0.4238 -0.8756
vn -0.1195 -0.9923 0.0324
vn 0.0347 -0.9967 0.0737
vn -0.4384 -0.5851 0.6823
vn -0.4931 -0.7484 0.4436
vn -0.3704 -0.4953 0.7858
vn -0.4027 -0.9139 0.0513
vn -0.2743 -0.9597 -0.0618
vn -0.2764 -0.9593 -0.0578
vn -0.0819 -0.4722 0.8777
vn -0.2330 -0.4272 0.8736
vn -0.0756 -0.4726 0.8781
vn 0.2135 -0.5372 0.8160
vn 0.0642 -0.4471 0.8922
vn 0.0827 -0.4428 0.8928
vn 0.2347 -0.9595 0.1556
vn 0.2970 -0.8361 0.4612
vn 0.1741 -0.9841 0.0362
vn 0.0175 -0.9975 -0.0688
vn 0.2655 -0.6351 0.7254
vn 0.2968 -0.8379 0.4581
vn -0.1249 -0.9916 -0.0322
vn -0.4583 -0.8707 0.1784
vn -0.4932 -0.7490 0.4425
vn -0.2316 -0.4238 0.8756
vn -0.1195 -0.9923 -0.0324
vn -0.4932 -0.7490 -0.4425
vn 0.2968 -0.8379 -0.4581
vn 0.0347 -0.9967 -0.0737
vn -0.0844 -0.5773 -0.8122
vn -0.5719 -0.2506 -0.7811
vn -0.2836 -0.3949 -0.8739
vn -0.6182 -0.6664 -0.4169
vn 0.1331 -0.5876 -0.7981
vn -0.6090 -0.7932 0.0000
vn -0.9235 -0.0341 -0.3820
vn -0.5972 -0.2074 -0.7748
vn -0.3443 -0.4496 -0.8242
vn -0.8984 -0.1043 -0.4266
vn 0.2053 -0.7466 -0.6328
vn 0.5835 -0.6843 -0.4372
vn -0.7373 -0.6756 0.0000
vn 0.9354 -0.3535 -0.0000
vn -0.9527 -0.3040 0.0000
vn -0.8219 -0.3878 -0.4173
vn -0.9985 -0.0547 0.0000
vn 0.4670 -0.8843 -0.0000
vn -0.9989 0.0465 0.0000
vn -0.5719 -0.2506 0.7811
vn -0.0844 -0.5773 0.8122
vn -0.2836 -0.3949 0.8739
vn -0.6182 -0.6664 0.4169
vn 0.1331 -0.5876 0.7981
vn 0.2053 -0.7466 0.6328
vn -0.9235 -0.0341 0.3820
vn -0.5972 -0.2074 0.7748
vn -0.8984 -0.1043 0.4266
vn -0.3443 -0.4496 0.8242
vn 0.5835 -0.6843 0.4372
vn -0.8219 -0.3878 0.4173
vn 0.2408 -0.9706 0.0000
vn -0.0843 -0.6225 -0.7780
vn -0.0984 -0.5219 -0.8473
vn -0.5179 -0.6351 -0.5731
vn -0.1970 -0.7982 -0.5693
vn -0.4155 -0.5533 -0.7219
vn -0.5660 -0.8244 0.0000
vn -0.0843 -0.6225 0.7780
vn -0.5179 -0.6351 0.5731
vn -0.0984 -0.5219 0.8473
vn -0.1970 -0.7982 0.5693
vn -0.4155 -0.5533 0.7219
vn 0.0697 0.3145 -0.9467
vn -0.0954 0.9954 0.0000
vn 0.9900 0.1408 0.0000
vn 0.8637 0.0885 -0.4962
vn 0.9991 0.0423 0.0000
vn 0.9665 -0.2567 0.0000
vn -0.0393 -0.4851 -0.8736
vn 0.2061 -0.1867 -0.9606
vn -0.1696 -0.6585 -0.7332
vn 0.6231 -0.7279 -0.2862
vn 0.6758 -0.7371 -0.0000
vn 0.4188 0.1187 -0.9003
vn -0.9992 -0.0407 0.0000
vn 0.8814 0.1958 -0.4298
vn 0.0673 -0.3199 -0.9450
vn 0.0702 0.8704 -0.4873
vn 0.4988 0.3834 -0.7773
vn -0.1397 -0.2506 -0.9580
vn -0.6940 -0.1143 -0.7109
vn -0.9591 0.2832 0.0000
vn -0.0430 0.9956 0.0828
vn 0.2534 0.4193 -0.8718
vn -0.1140 0.9409 0.3190
vn 0.2658 0.7167 0.6448
vn -0.1898 0.6194 0.7618
vn 0.7663 -0.3770 -0.5203
vn -0.2657 -0.7272 -0.6329
vn 0.3028 -0.8647 -0.4006
vn 0.0559 -0.9984 -0.0000
vn -0.7823 -0.6229 0.0000
vn -0.7326 0.6806 0.0000
vn -0.9847 0.1374 -0.1068
vn -0.8412 0.5038 0.1964
vn -0.7116 -0.2363 -0.6617
vn -0.7878 0.5500 0.2774
vn 0.2132 -0.6929 -0.6888
vn -0.3331 0.9202 0.2058
vn -0.5053 0.8630 0.0000
vn 0.6762 0.5442 -0.4966
vn 0.1819 -0.9833 -0.0000
vn -0.9880 0.1546 0.0000
vn 0.0697 0.3145 0.9467
vn 0.8637 0.0885 0.4962
vn -0.0393 -0.4851 0.8736
vn -0.1696 -0.6585 0.7333
vn 0.2061 -0.1867 0.9606
vn 0.6231 -0.7279 0.2862
vn 0.4188 0.1187 0.9003
vn 0.8814 0.1958 0.4298
vn 0.0702 0.8704 0.4873
vn 0.0673 -0.3199 0.9450
vn 0.4988 0.3834 0.7773
vn -0.1397 -0.2506 0.9580
vn -0.0496 -0.1960 0.9793
vn -0.6940 -0.1143 0.7109
vn 0.2534 0.4193 0.8718
vn -0.0430 0.9956 -0.0828
vn 0.2658 0.7167 -0.6448
vn -0.1140 0.9409 -0.3190
vn -0.1898 0.6194 -0.7618
vn 0.7663 -0.3770 0.5203
vn -0.2657 -0.7272 0.6329
vn 0.3028 -0.8647 0.4006
vn -0.9847 0.1374 0.1068
vn -0.7116 -0.2363 0.6617
vn -0.8412 0.5038 -0.1964
vn -0.7878 0.5500 -0.2774
vn 0.2132 -0.6930 0.6888
vn -0.3331 0.9202 -0.2058
vn 0.6762 0.5442 0.4966
vn -0.0496 -0.1960 -0.9793
usemtl Material.001
s 1
f 115/1/1 116/2/2 117/3/3
f 118/4/4 119/5/5 120/6/6
f 121/7/7 122/8/8 123/9/9
f 124/10/10 125/11/11 126/12/12
f 127/13/13 128/14/14 129/15/15
f 123/9/9 125/11/11 130/16/16
f 131/17/17 129/15/15 128/14/14
f 126/12/12 127/13/13 124/10/10
f 132/18/18 133/19/19 119/5/5
f 120/6/6 115/1/1 118/4/4
f 134/20/20 117/3/3 116/2/2
f 131/17/17 135/21/21 136/22/22
f 137/23/23 138/24/24 139/25/25
f 140/26/26 141/27/27 142/28/28
f 143/29/29 144/30/30 145/31/31
f 146/32/32 147/33/33 148/34/34
f 149/35/35 150/36/36 151/37/37
f 145/31/31 147/33/33 143/29/29
f 151/37/37 152/38/38 149/35/35
f 153/39/39 150/36/36 154/40/40
f 155/41/41 142/28/28 141/27/27
f 156/42/42 138/24/24 157/43/43
f 139/25/25 158/44/44 137/23/23
f 152/38/38 159/45/45 155/41/41
f 115/1/1 160/46/46 116/2/2
f 118/4/4 132/18/18 119/5/5
f 121/7/7 134/20/20 122/8/8
f 124/10/10 130/16/16 125/11/11
f 127/13/13 161/47/47 128/14/14
f 123/9/9 122/8/8 125/11/11
f 131/17/17 136/22/22 129/15/15
f 126/12/12 161/47/47 127/13/13
f 132/18/18 135/21/21 133/19/19
f 120/6/6 160/46/46 115/1/1
f 134/20/20 121/7/7 117/3/3
f 131/17/17 133/19/19 135/21/21
f 137/23/23 157/43/43 138/24/24
f 140/26/26 156/42/42 141/27/27
f 143/29/29 158/44/44 144/30/30
f 146/32/32 153/39/39 147/33/33
f 149/35/35 154/40/40 150/36/36
f 145/31/31 148/34/34 147/33/33
f 151/37/37 162/48/48 152/38/38
f 153/39/39 146/32/32 150/36/36
f 155/41/41 159/45/45 142/28/28
f 156/42/42 140/26/26 138/24/24
f 139/25/25 144/30/30 158/44/44
f 152/38/38 162/48/48 159/45/45
usemtl Material.001_metalsonicTex.png
f 1/49/49 2/50/50 3/51/51
f 4/52/52 5/53/53 6/54/54
f 2/50/50 7/55/55 8/56/56
f 9/57/57 10/58/58 2/50/50
f 1/49/49 11/59/59 9/57/57
f 12/60/60 11/59/59 1/49/49
f 4/52/52 6/54/54 13/61/61
f 2/50/50 8/56/56 3/51/51
f 14/62/62 5/53/53 11/59/59
f 15/63/63 4/52/52 13/61/61
f 16/64/64 17/65/65 10/58/58
f 11/59/59 18/66/66 14/62/62
f 16/64/64 11/59/59 4/52/52
f 7/55/55 17/65/65 19/67/67
f 20/68/68 21/69/69 22/70/70
f 23/71/71 24/72/72 25/73/73
f 26/74/74 20/68/68 27/75/75
f 28/76/76 29/77/77 20/68/68
f 21/69/69 29/77/77 25/73/73
f 30/78/78 21/69/69 25/73/73
f 23/71/71 13/61/61 6/54/54
f 20/68/68 22/70/70 27/75/75
f 14/62/62 25/73/73 24/72/72
f 15/63/63 23/71/71 31/79/79
f 17/65/65 31/79/79 28/76/76
f 25/73/73 18/66/66 30/78/78
f 31/79/79 25/73/73 29/77/77
f 17/65/65 26/74/74 19/67/67
f 6/80/54 5/81/53 32/82/80
f 5/81/53 14/83/62 32/82/80
f 6/80/54 32/82/80 24/84/72
f 24/84/72 32/82/80 14/83/62
f 33/85/81 34/86/82 35/87/83
f 36/88/84 37/89/85 38/90/86
f 34/86/82 33/85/81 1/91/49
f 37/89/85 33/85/81 35/87/83
f 18/92/66 36/88/84 38/90/86
f 36/88/84 1/91/49 33/85/81
f 39/93/87 40/94/88 41/95/89
f 42/96/90 38/90/86 43/97/91
f 41/95/89 21/98/69 39/93/87
f 39/93/87 43/97/91 40/94/88
f 18/92/66 42/96/90 30/99/78
f 42/96/90 21/98/69 30/99/78
f 44/100/92 45/101/93 46/102/94
f 47/103/95 48/104/96 49/105/97
f 50/106/98 51/107/99 52/108/100
f 52/109/100 34/110/82 50/111/98
f 53/112/101 49/105/97 54/113/102
f 35/114/83 34/110/82 52/109/100
f 51/115/99 55/116/103 47/117/95
f 7/118/55 19/119/67 56/120/104
f 57/121/105 58/122/106 59/123/107
f 55/124/103 60/125/108 47/103/95
f 61/126/109 55/124/103 51/107/99
f 62/127/110 59/128/107 58/129/106
f 44/100/92 63/130/111 45/101/93
f 60/131/108 64/132/112 65/133/113
f 66/134/114 67/135/115 68/136/116
f 47/103/95 69/137/117 51/107/99
f 53/112/101 69/137/117 47/103/95
f 70/138/118 71/139/119 72/140/120
f 72/140/120 73/141/121 70/138/118
f 64/142/112 74/143/122 65/144/113
f 75/145/123 76/146/124 77/147/125
f 62/148/110 78/149/126 59/123/107
f 79/150/127 51/107/99 53/112/101
f 80/151/128 76/152/124 75/153/123
f 66/154/114 81/155/129 64/142/112
f 60/125/108 65/144/113 47/103/95
f 82/156/130 60/131/108 55/116/103
f 68/157/116 59/128/107 78/158/126
f 80/151/128 66/134/114 76/152/124
f 81/155/129 66/154/114 80/159/128
f 61/160/109 51/115/99 50/111/98
f 50/111/98 34/110/82 61/160/109
f 34/110/82 3/161/51 61/160/109
f 71/139/119 83/162/131 72/140/120
f 54/113/102 83/162/131 71/139/119
f 79/163/127 52/109/100 51/115/99
f 38/164/86 70/138/118 73/141/121
f 8/165/56 75/153/123 77/166/125
f 70/138/118 35/167/83 52/108/100
f 71/168/119 52/109/100 79/163/127
f 8/169/56 61/126/109 3/170/51
f 53/112/101 71/139/119 79/150/127
f 81/171/129 75/153/123 84/172/132
f 75/153/123 56/120/104 84/172/132
f 1/173/49 3/161/51 34/110/82
f 85/174/133 46/175/94 45/176/93
f 48/177/96 86/178/134 49/179/97
f 87/180/135 88/181/136 89/182/137
f 88/183/136 87/184/135 41/185/89
f 90/186/138 49/105/97 86/187/134
f 40/188/88 88/183/136 41/185/89
f 89/182/137 86/178/134 91/189/139
f 26/190/74 56/120/104 19/119/67
f 92/191/140 93/192/141 94/193/142
f 91/189/139 86/178/134 95/194/143
f 96/195/144 91/189/139 97/196/145
f 98/197/146 94/198/142 93/199/141
f 85/174/133 45/176/93 63/200/111
f 95/194/143 99/201/147 100/202/148
f 101/203/149 102/204/150 103/205/151
f 86/187/134 89/206/137 104/207/152
f 90/186/138 86/187/134 104/207/152
f 105/208/153 72/140/120 106/209/154
f 72/140/120 105/208/153 73/141/121
f 100/202/148 99/201/147 74/210/122
f 107/211/155 108/212/156 109/213/157
f 98/197/146 93/199/141 110/214/158
f 111/215/159 90/186/138 89/206/137
f 112/216/160 107/211/155 109/213/157
f 102/217/150 100/218/148 81/155/129
f 95/219/143 86/187/134 99/220/147
f 113/221/161 91/189/139 95/194/143
f 103/205/151 110/214/158 93/199/141
f 112/216/160 109/213/157 102/204/150
f 81/155/129 112/222/160 102/217/150
f 96/223/144 87/184/135 89/206/137
f 87/180/135 96/195/144 41/224/89
f 41/224/89 96/195/144 22/225/70
f 106/209/154 72/140/120 83/162/131
f 54/113/102 106/209/154 83/162/131
f 111/215/159 89/206/137 88/183/136
f 105/208/153 38/164/86 73/141/121
f 27/226/75 107/211/155 26/190/74
f 40/188/88 105/208/153 88/183/136
f 106/209/154 88/183/136 105/208/153
f 27/226/75 96/195/144 97/196/145
f 90/186/138 106/209/154 54/113/102
f 107/211/155 81/171/129 84/172/132
f 56/120/104 107/211/155 84/172/132
f 21/227/69 41/185/89 22/228/70
f 81/171/129 100/202/148 64/132/112
f 64/132/112 100/202/148 74/210/122
f 67/229/115 82/230/130 57/231/105
f 60/131/108 82/156/130 64/132/112
f 113/221/161 101/203/149 92/232/140
f 95/194/143 100/202/148 113/221/161
f 85/233/133 74/210/122 99/201/147
f 99/201/147 46/102/94 85/233/133
f 74/143/122 44/234/92 65/144/113
f 65/144/113 46/175/94 48/104/96
f 93/192/141 92/191/140 101/235/149
f 59/123/107 67/135/115 57/121/105
f 109/236/157 103/237/151 102/217/150
f 98/238/146 109/236/157 108/239/156
f 93/192/141 101/235/149 103/237/151
f 94/193/142 108/239/156 97/240/145
f 97/196/145 113/221/161 94/198/142
f 68/157/116 76/146/124 66/154/114
f 76/152/124 62/148/110 77/166/125
f 59/128/107 68/157/116 67/229/115
f 114/241/162 77/166/125 58/122/106
f 58/129/106 82/230/130 114/242/162
f 51/243/99 69/244/117 53/245/101
f 89/246/137 90/247/138 104/248/152
f 1/49/49 9/57/57 2/50/50
f 4/52/52 11/59/59 5/53/53
f 2/50/50 10/58/58 7/55/55
f 9/57/57 16/64/64 10/58/58
f 15/63/63 16/64/64 4/52/52
f 16/64/64 15/63/63 17/65/65
f 11/59/59 12/60/60 18/66/66
f 16/64/64 9/57/57 11/59/59
f 7/55/55 10/58/58 17/65/65
f 20/68/68 29/77/77 21/69/69
f 23/71/71 6/54/54 24/72/72
f 26/74/74 28/76/76 20/68/68
f 28/76/76 31/79/79 29/77/77
f 15/63/63 13/61/61 23/71/71
f 17/65/65 15/63/63 31/79/79
f 25/73/73 14/62/62 18/66/66
f 31/79/79 23/71/71 25/73/73
f 17/65/65 28/76/76 26/74/74
f 37/89/85 36/88/84 33/85/81
f 18/92/66 12/249/60 36/88/84
f 36/88/84 12/249/60 1/91/49
f 39/93/87 42/96/90 43/97/91
f 18/92/66 38/90/86 42/96/90
f 42/96/90 39/93/87 21/98/69
f 47/103/95 65/144/113 48/104/96
f 53/112/101 47/103/95 49/105/97
f 61/126/109 114/242/162 55/124/103
f 66/134/114 64/132/112 67/135/115
f 38/164/86 37/250/85 70/138/118
f 8/165/56 7/118/55 75/153/123
f 70/138/118 37/250/85 35/167/83
f 71/168/119 70/251/118 52/109/100
f 8/169/56 114/242/162 61/126/109
f 53/112/101 54/113/102 71/139/119
f 81/171/129 80/151/128 75/153/123
f 75/153/123 7/118/55 56/120/104
f 48/177/96 99/201/147 86/178/134
f 90/186/138 54/113/102 49/105/97
f 96/195/144 89/182/137 91/189/139
f 101/203/149 100/202/148 102/204/150
f 105/208/153 43/252/91 38/164/86
f 27/226/75 108/212/156 107/211/155
f 40/188/88 43/252/91 105/208/153
f 106/209/154 111/215/159 88/183/136
f 27/226/75 22/225/70 96/195/144
f 90/186/138 111/215/159 106/209/154
f 107/211/155 112/216/160 81/171/129
f 56/120/104 26/190/74 107/211/155
f 67/229/115 64/142/112 82/230/130
f 113/221/161 100/202/148 101/203/149
f 85/233/133 63/130/111 74/210/122
f 99/201/147 48/177/96 46/102/94
f 74/143/122 63/200/111 44/234/92
f 65/144/113 44/234/92 46/175/94
f 109/236/157 110/253/158 103/237/151
f 98/238/146 110/253/158 109/236/157
f 98/238/146 108/239/156 94/193/142
f 108/239/156 27/254/75 97/240/145
f 91/189/139 113/221/161 97/196/145
f 113/221/161 92/232/140 94/198/142
f 68/157/116 78/158/126 76/146/124
f 76/152/124 78/149/126 62/148/110
f 8/165/56 77/166/125 114/241/162
f 77/166/125 62/148/110 58/122/106
f 57/231/105 82/230/130 58/129/106
f 82/230/130 55/124/103 114/242/162
