# Blender v2.79 (sub 0) OBJ File: ''
# www.blender.org
mtllib Shoe.mtl
v -0.768270 -0.925086 -1.015786
v -1.154662 -1.315200 -0.739790
v -1.314626 -0.938162 -0.707114
v -0.767986 -1.471454 -0.752966
v -1.314624 -0.873840 -0.707114
v -0.768268 -0.886912 -1.015786
v -1.154660 -0.496800 -0.739790
v -0.767986 -0.340546 -0.752966
v -0.719560 -0.925086 -1.015786
v -0.173204 -0.938162 -0.707114
v -0.333168 -1.315202 -0.739790
v -0.719842 -1.471454 -0.752966
v -0.173204 -0.873840 -0.707114
v -0.719560 -0.886912 -1.015786
v -0.333168 -0.496800 -0.739790
v -0.719842 -0.340546 -0.752966
v -0.333168 -1.315202 0.808696
v -0.768270 -0.925088 1.084692
v -1.314626 -0.938162 0.776020
v -1.154662 -1.315200 0.808696
v -0.767986 -1.471454 0.821872
v -1.314624 -0.873840 0.776020
v -0.768268 -0.886912 1.084692
v -1.154660 -0.496800 0.808696
v -0.767986 -0.340546 0.821872
v -0.719560 -0.925088 1.084692
v -0.173204 -0.938162 0.776020
v -0.719842 -1.471454 0.821872
v -0.173204 -0.873840 0.776020
v -0.719560 -0.886912 1.084692
v -0.333168 -0.496800 0.808696
v -0.719842 -0.340546 0.821872
v -1.128414 -2.384102 -0.558562
v -0.902716 -2.785142 -0.260046
v -1.125514 -2.905228 -0.168380
v -1.125520 -2.383384 0.542612
v -0.762270 -1.289782 0.668390
v -1.056594 -1.268968 0.705464
v -0.761024 -1.294160 -0.731762
v -1.056084 -1.274938 -0.774648
v -0.901618 -2.785708 0.284800
v -0.902200 -2.438478 0.513892
v -0.904648 -2.437724 -0.520166
v -0.996332 0.400076 -0.725378
v -0.730092 0.955658 0.002810
v -0.641842 0.308228 -0.703328
v -1.026302 -0.483972 -0.796352
v -0.648310 0.312208 0.689244
v -1.024912 -0.483126 0.778612
v -0.699066 -0.564056 0.739908
v -0.999458 0.401834 0.702728
v -0.701610 -0.563858 -0.763202
v -1.352180 -2.330480 -0.596958
v -1.350918 -1.248154 0.742536
v -1.351144 -1.255716 -0.817536
v -1.348314 -3.025316 -0.076716
v -1.348840 -2.328290 0.571336
v -0.170904 -1.332606 -0.645988
v -1.124650 -2.904228 0.198976
v -0.455558 -2.548666 0.456448
v -0.173620 -1.331412 0.594244
v -0.457116 -2.544966 -0.443374
v 0.053986 0.132956 0.662272
v 0.067140 0.124534 -0.659226
v -0.109572 0.812066 -0.002726
v -1.350606 0.491458 0.716214
v -1.350994 -0.404086 -0.829502
v -1.350756 -0.402198 0.817316
v -1.350614 1.099248 0.008344
v -1.350824 0.491922 -0.747428
v -1.040354 1.027454 0.005576
v -0.047376 -0.725916 0.662500
v -0.052226 -0.723632 -0.696902
v -1.347678 -3.022750 0.113152
vt 0.766700 0.658200
vt 0.690500 0.809400
vt 0.728700 0.872700
vt 0.732500 0.666100
vt 0.739300 0.777600
vt 0.744600 0.871400
vt 0.707600 0.940800
vt 0.642200 0.666300
vt 0.753000 0.804300
vt 0.727600 0.741700
vt 0.734400 0.804400
vt 0.655400 0.807900
vt 0.697200 0.749300
vt 0.742400 0.813300
vt 0.697000 0.753600
vt 0.768500 0.758900
vt 0.664900 0.689000
vt 0.660100 0.825500
vt 0.665500 0.743800
vt 0.742300 0.913200
vt 0.696000 0.551600
vt 0.744300 0.771600
vt 0.675600 0.656700
vt 0.786500 0.645500
vt 0.707200 0.694600
vt 0.694100 0.619600
vt 0.684300 0.727900
vt 0.632500 0.839700
vt 0.722400 0.668900
vt 0.664900 0.850300
vt 0.688800 0.655600
vt 0.656300 0.554400
vt 0.728500 0.756200
vt 0.685100 0.668800
vt 0.711000 0.775100
vt 0.620370 0.332135
vt 0.656925 0.270830
vt 0.689989 0.354156
vt 0.685356 0.082346
vt 0.555258 0.168845
vt 0.523844 0.082346
vt 0.592129 0.185980
vt 0.572456 0.265943
vt 0.715437 0.251981
vt 0.675519 0.174811
vt 0.634586 0.231991
vt 0.401297 0.139018
vt 0.487416 0.158247
vt 0.387272 0.151837
vt 0.403582 0.266895
vt 0.487924 0.289043
vt 0.478468 0.348508
vt 0.444833 0.216061
vt 0.523209 0.255281
vt 0.370010 0.304719
vt 0.062807 0.781551
vt 0.070776 0.729928
vt 0.069823 0.806260
vt 0.084208 0.768219
vt 0.078745 0.781150
vt 0.099895 0.739751
vt 0.070224 0.673342
vt 0.087465 0.667629
vt 0.105358 0.800747
vt 0.108867 0.770324
vt 0.093831 0.767117
vt 0.056040 0.788468
vt 0.081702 0.772580
vt 0.115683 0.731431
vt 0.087516 0.790873
vt 0.109969 0.767868
vt 0.082504 0.825306
vt 0.059048 0.737746
vt 0.075838 0.738749
vt 0.129265 0.762255
vt 0.118740 0.717949
vt 0.105559 0.852771
vt 0.061904 0.818389
vt 0.065613 0.825657
vt 0.079246 0.751930
vt 0.091275 0.760952
vt 0.108666 0.818189
vt 0.067568 0.713939
vt 0.113979 0.816835
vt 0.092929 0.749675
vt 0.063558 0.805909
vt 0.098091 0.721107
vt 0.095034 0.755238
vt 0.102451 0.758446
vt 0.102000 0.805559
vt 0.065713 0.736092
vt 0.096287 0.795384
vt 0.130769 0.697500
vt 0.084208 0.770274
vt 0.675100 0.887400
vt 0.754530 0.258772
vt 0.520988 0.123279
vt 0.078294 0.756942
vt 0.087415 0.705018
vt 0.079296 0.850466
vn -0.2154 -0.1834 -0.9592
vn -0.6298 -0.6110 -0.4797
vn -0.8694 -0.1572 -0.4684
vn -0.1665 -0.8466 -0.5055
vn -0.8694 0.1572 -0.4684
vn -0.2154 0.1834 -0.9592
vn -0.6298 0.6110 -0.4797
vn -0.1665 0.8466 -0.5055
vn 0.2154 -0.1834 -0.9592
vn 0.8694 -0.1572 -0.4684
vn 0.6298 -0.6110 -0.4797
vn 0.1665 -0.8466 -0.5055
vn 0.8694 0.1572 -0.4684
vn 0.2154 0.1834 -0.9592
vn 0.6298 0.6110 -0.4797
vn 0.1665 0.8466 -0.5055
vn 0.6298 -0.6110 0.4797
vn -0.2154 -0.1834 0.9592
vn -0.8694 -0.1572 0.4684
vn -0.6298 -0.6110 0.4797
vn -0.1665 -0.8466 0.5055
vn -0.8694 0.1572 0.4684
vn -0.2154 0.1834 0.9592
vn -0.6298 0.6110 0.4797
vn -0.1665 0.8466 0.5055
vn 0.2154 -0.1834 0.9592
vn 0.8694 -0.1572 0.4684
vn 0.1665 -0.8466 0.5055
vn 0.8694 0.1572 0.4684
vn 0.2154 0.1834 0.9592
vn 0.6298 0.6110 0.4797
vn 0.1665 0.8466 0.5055
vn -0.0834 -0.1219 -0.9890
vn 0.2897 -0.5755 -0.7647
vn 0.2993 -0.9436 0.1414
vn -0.0732 -0.6199 0.7813
vn 0.4888 0.5805 0.6512
vn 0.1532 0.1475 0.9771
vn 0.2041 0.8529 -0.4805
vn 0.1713 0.1331 -0.9762
vn 0.5692 -0.5888 0.5738
vn 0.1145 -0.1673 0.9792
vn -0.0605 -0.5657 -0.8224
vn 0.2652 0.6527 -0.7097
vn 0.4796 0.8775 -0.0004
vn 0.3401 0.3720 -0.8637
vn -0.0937 -0.6703 -0.7362
vn 0.3268 0.3689 0.8701
vn -0.1112 -0.2168 0.9698
vn 0.3813 -0.7229 0.5762
vn -0.1296 0.5085 0.8513
vn -0.0990 -0.6761 -0.7301
vn -0.9007 0.0620 -0.4300
vn -0.6843 0.7211 -0.1086
vn -0.6755 -0.2024 -0.7090
vn -0.7965 -0.3732 0.4756
vn -0.8882 -0.3438 0.3047
vn 0.6843 0.4542 -0.5705
vn 0.5253 -0.3760 0.7633
vn 0.6038 -0.5560 0.5712
vn 0.6826 0.4661 0.5629
vn 0.6093 -0.5716 -0.5495
vn 0.7080 0.2448 0.6624
vn 0.7260 0.2426 -0.6435
vn 0.5723 0.8200 -0.0001
vn -0.8787 0.2408 0.4121
vn -0.7795 -0.6149 -0.1195
vn -0.6992 0.0620 0.7123
vn -0.6033 0.6280 -0.4916
vn -0.7526 0.5599 -0.3464
vn 0.3055 0.8808 -0.3618
vn 0.4900 -0.6868 0.5368
vn 0.4809 -0.6780 -0.5559
vn -0.5189 -0.1185 0.8466
usemtl Material.001
s 1
f 1/1/1 2/2/2 3/3/3
f 2/2/2 1/1/1 4/4/4
f 1/1/1 5/5/5 6/6/6
f 6/6/6 5/5/5 7/7/7
f 7/7/7 8/8/8 6/6/6
f 9/9/9 10/10/10 11/11/11
f 11/11/11 12/12/12 9/9/9
f 13/13/13 9/9/9 14/14/14
f 14/14/14 15/15/15 13/13/13
f 15/15/15 14/14/14 16/16/16
f 8/8/8 14/14/14 6/6/6
f 9/9/9 4/4/4 1/1/1
f 17/17/17 12/12/12 11/11/11
f 6/6/6 9/9/9 1/1/1
f 18/18/18 19/19/19 20/20/20
f 20/20/20 21/21/21 18/18/18
f 22/22/22 18/18/18 23/23/23
f 23/23/23 24/24/24 22/22/22
f 24/24/24 23/23/23 25/25/25
f 26/26/26 17/17/17 27/27/27
f 17/17/17 26/26/26 28/28/28
f 26/26/26 29/29/29 30/30/30
f 30/30/30 29/29/29 31/31/31
f 31/31/31 32/32/32 30/30/30
f 23/23/23 32/32/32 25/25/25
f 21/21/21 26/26/26 18/18/18
f 2/2/2 21/21/21 20/20/20
f 23/33/23 26/34/26 30/35/30
f 27/27/27 11/11/11 10/10/10
f 15/15/15 29/29/29 13/13/13
f 16/16/16 31/31/31 15/15/15
f 24/24/24 8/8/8 7/7/7
f 22/22/22 7/7/7 5/5/5
f 2/2/2 19/19/19 3/3/3
f 3/3/3 22/22/22 5/5/5
f 28/28/28 4/4/4 12/12/12
f 29/29/29 10/10/10 13/13/13
f 8/8/8 32/32/32 16/16/16
f 33/36/33 34/37/34 35/38/35
f 36/39/36 37/40/37 38/41/38
f 38/41/38 39/42/39 40/43/40
f 36/39/36 41/44/41 42/45/42
f 33/36/33 39/42/39 43/46/43
f 41/44/41 35/38/35 34/37/34
f 44/47/44 45/48/45 46/49/46
f 46/49/46 47/50/47 44/47/44
f 48/51/48 49/52/49 50/53/50
f 45/48/45 51/54/51 48/51/48
f 50/53/50 47/50/47 52/55/52
f 53/56/53 54/57/54 55/58/55
f 56/59/56 57/60/57 53/56/53
f 37/61/37 58/62/58 39/63/39
f 59/64/59 56/59/56 35/65/35
f 53/56/53 40/66/40 33/67/33
f 37/61/37 60/68/60 61/69/61
f 62/70/62 61/69/61 60/68/60
f 57/60/57 59/64/59 36/71/36
f 34/72/34 43/73/43 62/70/62
f 63/74/63 64/75/64 65/76/65
f 66/77/66 67/78/67 68/79/68
f 66/77/66 69/80/69 70/81/70
f 64/75/64 52/82/52 46/83/46
f 71/84/71 66/77/66 51/85/51
f 46/83/46 65/76/65 64/75/64
f 51/85/51 68/79/68 49/86/49
f 64/75/64 72/87/72 73/88/73
f 60/68/60 42/89/42 41/90/41
f 62/70/62 39/63/39 58/62/58
f 60/68/60 34/72/34 62/70/62
f 54/57/54 40/66/40 55/58/55
f 57/60/57 38/91/38 54/57/54
f 53/56/53 35/65/35 56/59/56
f 63/74/63 50/92/50 72/87/72
f 65/76/65 48/93/48 63/74/63
f 44/94/44 67/78/67 70/81/70
f 70/81/70 71/84/71 44/94/44
f 67/78/67 49/86/49 68/79/68
f 72/87/72 52/82/52 73/88/73
f 1/1/1 3/3/3 5/5/5
f 13/13/13 10/10/10 9/9/9
f 8/8/8 16/16/16 14/14/14
f 9/9/9 12/12/12 4/4/4
f 17/17/17 28/28/28 12/12/12
f 6/6/6 14/14/14 9/9/9
f 22/22/22 19/19/19 18/18/18
f 26/26/26 27/27/27 29/29/29
f 23/23/23 30/30/30 32/32/32
f 21/21/21 28/28/28 26/26/26
f 2/2/2 4/4/4 21/21/21
f 23/33/23 18/95/18 26/34/26
f 27/27/27 17/17/17 11/11/11
f 15/15/15 31/31/31 29/29/29
f 16/16/16 32/32/32 31/31/31
f 24/24/24 25/25/25 8/8/8
f 22/22/22 24/24/24 7/7/7
f 2/2/2 20/20/20 19/19/19
f 3/3/3 19/19/19 22/22/22
f 28/28/28 21/21/21 4/4/4
f 29/29/29 27/27/27 10/10/10
f 8/8/8 25/25/25 32/32/32
f 33/36/33 43/46/43 34/37/34
f 36/39/36 42/45/42 37/40/37
f 38/41/38 37/40/37 39/42/39
f 36/39/36 59/96/59 41/44/41
f 33/36/33 40/43/40 39/42/39
f 41/44/41 59/96/59 35/38/35
f 44/47/44 71/97/71 45/48/45
f 46/49/46 52/55/52 47/50/47
f 48/51/48 51/54/51 49/52/49
f 45/48/45 71/97/71 51/54/51
f 50/53/50 49/52/49 47/50/47
f 53/56/53 57/60/57 54/57/54
f 56/59/56 74/98/74 57/60/57
f 37/61/37 61/69/61 58/62/58
f 59/64/59 74/98/74 56/59/56
f 53/56/53 55/58/55 40/66/40
f 37/61/37 42/89/42 60/68/60
f 62/70/62 58/62/58 61/69/61
f 57/60/57 74/98/74 59/64/59
f 66/77/66 70/81/70 67/78/67
f 64/75/64 73/88/73 52/82/52
f 71/84/71 69/80/69 66/77/66
f 46/83/46 45/99/45 65/76/65
f 51/85/51 66/77/66 68/79/68
f 64/75/64 63/74/63 72/87/72
f 62/70/62 43/73/43 39/63/39
f 60/68/60 41/90/41 34/72/34
f 54/57/54 38/91/38 40/66/40
f 57/60/57 36/71/36 38/91/38
f 53/56/53 33/67/33 35/65/35
f 63/74/63 48/93/48 50/92/50
f 65/76/65 45/99/45 48/93/48
f 44/94/44 47/100/47 67/78/67
f 70/81/70 69/80/69 71/84/71
f 67/78/67 47/100/47 49/86/49
f 72/87/72 50/92/50 52/82/52
