# 3ds Max Wavefront OBJ Exporter v0.97b - (c)2007 guruware
# File Created: 17.01.2017 18:48:01

mtllib Dashpad.mtl

#
# object Dashpad
#

v  -9.2284 0.0214 7.5072
v  -9.2294 0.9972 6.2860
v  -10.2800 0.0202 6.2806
v  -10.2796 0.0192 -3.1820
v  -7.7698 0.9224 -3.1820
v  -9.2298 0.9962 -3.1878
v  -9.2296 0.9968 3.1882
v  -10.2794 0.0198 3.1820
v  2.5018 1.1576 -5.2556
v  -3.9336 0.8510 -5.2554
v  -5.1716 0.0238 -5.2552
v  -10.2804 0.0188 -6.2888
v  -9.2300 0.9958 -6.2846
v  -9.2290 0.0196 -7.5072
v  10.0534 1.1386 5.2542
v  8.9374 1.6398 5.2542
v  8.9390 0.0392 7.0562
v  -4.7146 0.5884 3.0538
v  -4.7148 0.5876 -3.0556
v  -7.7694 0.9234 3.1816
v  10.0530 1.1374 -5.2558
v  10.3988 0.0392 -5.2558
v  8.9384 0.0376 -7.0574
v  10.3990 0.0404 5.2544
v  8.9390 0.0390 5.2544
v  8.9370 1.6386 -5.2558
v  -3.9332 0.8522 5.2548
v  -5.1710 0.0250 5.2550
v  2.5022 1.1588 5.2544
v  8.9386 0.0378 -5.2558
v  2.3326 0.0328 6.9062
v  -4.2738 0.0262 6.7564
v  2.3322 0.0312 -6.9070
v  -4.2742 0.0246 -6.7566
v  -4.8114 0.4784 -5.3430
v  -4.8110 0.4448 0.0040
v  -4.2744 0.6836 0.0032
v  -4.2748 0.7170 -5.3438
v  8.9376 1.4472 0.0004
v  8.9372 1.4808 -5.3464
v  9.9140 0.9978 0.0018
v  9.9136 1.0312 -5.3450
v  10.1776 0.0222 0.0052
v  10.1772 0.0556 -5.3418
v  -4.2744 0.6902 -0.0090
v  -4.8110 0.4514 -0.0104
v  -4.8114 0.4724 5.3366
v  -4.2748 0.7110 5.3380
v  8.9376 1.4538 -0.0046
v  8.9372 1.4748 5.3426
v  9.9140 1.0044 -0.0070
v  9.9136 1.0252 5.3400
v  10.1776 0.0286 -0.0126
v  10.1772 0.0496 5.3344
# 54 vertices

vn -0.1854 0.7676 0.6135
vn -0.3001 0.9013 0.3124
vn -0.6663 0.7152 0.2112
vn -0.0035 0.0098 0.9999
vn -0.3507 0.9365 -0.0077
vn -0.5203 0.8540 -0.0002
vn -0.0000 0.0001 1.0000
vn -0.0000 0.0002 1.0000
vn -0.6650 0.7159 -0.2127
vn -0.2996 0.9016 -0.3119
vn -0.1845 0.7680 -0.6133
vn 0.5608 0.5059 0.6555
vn 0.1351 0.7499 0.6476
vn 0.2142 0.6878 0.6936
vn 0.1052 0.9910 -0.0825
vn 0.1052 0.9910 0.0824
vn -0.0288 0.9988 0.0383
vn -0.0289 0.9988 -0.0386
vn -0.5203 0.8540 -0.0001
vn 0.5607 0.5057 -0.6556
vn 0.7546 0.2374 -0.6118
vn 0.2141 0.6877 -0.6937
vn -0.0040 0.0106 -0.9999
vn -0.3507 0.9365 0.0074
vn 0.0504 0.9451 -0.3228
vn 0.0000 -0.0001 -1.0000
vn -0.0001 -0.0001 -1.0000
vn 0.1350 0.7498 -0.6477
vn 0.7546 0.2375 0.6117
vn 0.5529 -0.8275 0.0973
vn 0.5530 -0.8275 -0.0971
vn 0.0000 -0.0002 -1.0000
vn 0.0001 0.0001 1.0000
vn 0.0505 0.9452 0.3225
vn -0.0515 0.8276 0.5589
vn -0.0427 0.8240 0.5649
vn 0.0623 0.8613 0.5042
vn -0.0515 0.8275 -0.5591
vn -0.0428 0.8239 -0.5651
vn 0.0622 0.8612 -0.5044
vn -0.4065 0.9136 -0.0001
vn -0.2359 0.9718 -0.0001
vn 0.1858 0.9826 -0.0001
vn 0.7638 0.6455 -0.0001
vn 0.9654 0.2609 -0.0001
vn -0.2359 0.9718 0.0024
vn -0.4065 0.9136 0.0022
vn 0.1858 0.9826 0.0024
vn 0.7638 0.6455 0.0016
vn 0.9654 0.2609 0.0007
# 50 vertex normals

vt 0.5000 0.3086 0.0000
vt 0.8398 0.0039 0.0000
vt 0.5000 0.0039 0.0000
vt 0.5000 0.5039 0.0000
vt 0.5000 0.2539 0.0000
vt 0.8398 0.5039 0.0000
vt 0.8398 0.5000 0.0000
vt 0.8398 0.0078 0.0000
vt 0.5000 0.5000 0.0000
vt 0.5000 0.0078 0.0000
vt 0.9570 0.5039 0.0000
vt 0.8086 0.5039 0.0000
vt 0.8086 0.3047 0.0000
vt 0.5000 0.3008 0.0000
vt 0.7031 0.3594 0.0000
vt 0.5000 1.0000 0.0000
vt 0.0000 1.0000 0.0000
vt 0.0000 0.7383 0.0000
vt 0.5000 0.7383 0.0000
vt 0.0000 0.5039 0.0000
vt 1.0000 0.1484 0.0000
vt 1.0000 0.5039 0.0000
vt 0.8125 0.5039 0.0000
vt 1.0000 0.0039 0.0000
vt 0.8125 0.0039 0.0000
vt 0.8086 0.0039 0.0000
vt 0.9570 0.0039 0.0000
vt 0.9570 0.0820 0.0000
vt 0.8086 0.1055 0.0000
vt 0.0000 0.0513 0.0000
vt 0.9945 0.0552 0.0000
vt 0.9945 0.1607 0.0000
vt 0.0000 0.1607 0.0000
vt 0.9945 2.6529 0.0000
vt 0.0000 2.6529 0.0000
vt 0.9945 2.8560 0.0000
vt 0.0000 2.8560 0.0000
vt 0.9945 3.0474 0.0000
vt 0.0000 3.0474 0.0000
vt 0.9877 0.1607 0.0000
vt 0.9877 0.0552 0.0000
vt 0.9877 2.6529 0.0000
vt 0.9877 2.8560 0.0000
vt 0.9877 3.0474 0.0000
# 44 texture coords

g Dashpad
usemtl b68ae7f3_png
f 1/1/1 2/2/2 3/3/3 
f 4/4/4 5/5/4 6/6/4 
f 2/7/2 7/8/5 3/9/3 
f 7/8/5 8/10/6 3/9/3 
f 9/11/7 10/12/8 11/13/8 
f 12/3/9 13/2/10 14/14/11 
f 15/15/12 16/7/13 17/9/14 
f 18/16/15 19/17/16 5/18/17 
f 20/19/18 18/16/15 5/18/17 
f 20/19/18 5/18/17 4/20/19 
f 8/4/6 20/19/18 4/20/19 
f 21/15/20 22/9/21 23/1/22 
f 7/6/23 20/5/23 8/4/23 
f 12/9/9 4/10/19 13/7/10 
f 4/10/19 6/8/24 13/7/10 
f 5/21/17 19/22/16 10/23/25 
f 6/24/24 5/21/17 10/23/25 
f 6/24/24 10/23/25 13/25/10 
f 15/26/26 24/27/27 25/28/26 
f 23/9/22 26/7/28 21/15/20 
f 17/1/14 24/9/29 15/15/12 
f 10/11/30 19/12/30 11/13/30 
f 27/11/31 28/12/31 18/13/31 
f 28/11/32 27/12/32 29/13/26 
f 25/28/26 28/11/32 29/13/26 
f 25/28/26 29/13/26 16/29/26 
f 15/26/26 25/28/26 16/29/26 
f 26/29/7 9/13/7 30/28/7 
f 21/26/7 26/29/7 30/28/7 
f 21/26/7 30/28/7 22/27/33 
f 9/13/7 11/11/8 30/28/7 
f 7/24/5 2/25/2 27/23/34 
f 20/21/18 7/24/5 27/23/34 
f 20/21/18 27/23/34 18/22/15 
f 29/7/35 31/9/36 16/2/13 
f 31/9/36 17/3/14 16/2/13 
f 29/2/35 27/7/34 31/3/36 
f 27/7/34 32/9/37 31/3/36 
f 9/2/38 33/3/39 10/7/25 
f 33/3/39 34/9/40 10/7/25 
f 9/7/38 26/2/28 33/9/39 
f 26/2/28 23/3/22 33/9/39 
f 10/2/25 34/3/40 13/7/10 
f 34/3/40 14/9/11 13/7/10 
f 27/2/34 2/7/2 32/3/37 
f 2/7/2 1/9/1 32/3/37 
usemtl 07bdaebd_png
f 35/30/41 36/31/41 37/32/42 
f 38/33/42 35/30/41 37/32/42 
f 38/33/42 37/32/42 39/34/43 
f 40/35/43 38/33/42 39/34/43 
f 40/35/43 39/34/43 41/36/44 
f 42/37/44 40/35/43 41/36/44 
f 42/37/44 41/36/44 43/38/45 
f 44/39/45 42/37/44 43/38/45 
f 45/40/46 46/41/47 47/30/47 
f 45/40/46 47/30/47 48/33/46 
f 49/42/48 45/40/46 48/33/46 
f 49/42/48 48/33/46 50/35/48 
f 51/43/49 49/42/48 50/35/48 
f 51/43/49 50/35/48 52/37/49 
f 53/44/50 51/43/49 52/37/49 
f 53/44/50 52/37/49 54/39/50 
# 62 faces

