# Blender v2.79 (sub 0) OBJ File: ''
# www.blender.org
mtllib Forearm.mtl
v -0.286525 -0.009300 -0.231060
v 0.305375 0.000022 -0.093115
v -0.259468 -0.799469 -0.215496
v 0.322543 -0.580657 -0.085601
v -0.244498 -1.130213 -0.254005
v 0.330578 -1.189001 -0.072961
v -0.147576 -1.131228 0.256332
v -0.162944 -0.651377 0.260831
v -0.159679 -0.010721 0.288461
v -0.209872 -1.083167 0.588236
v -0.207908 -1.703714 0.588225
v 0.516589 -1.085230 0.336125
v 0.518553 -1.705775 0.336114
v 0.512203 -1.086213 -0.349630
v 0.514168 -1.706761 -0.349641
v -0.603136 -1.083879 0.002642
v -0.601172 -1.704427 0.002630
v -0.171602 -1.087333 -0.671580
v -0.169637 -1.707879 -0.671595
vt 0.874510 0.101961
vt 0.894118 0.109804
vt 0.870588 0.086274
vt 0.890196 0.082353
vt 0.862745 0.078431
vt 0.874510 0.066667
vt 0.854902 0.070588
vt 0.866667 0.078431
vt 0.870588 0.098039
vt 0.200000 0.031373
vt 0.200000 0.094118
vt 0.133333 0.031373
vt 0.133333 0.094118
vt 0.184314 0.094118
vt 0.184314 0.043137
vt 0.133333 0.098039
vt 0.133333 0.043137
vt 0.184314 0.043137
vt 0.180392 0.094118
vt 0.133333 0.043137
vt 0.133333 0.098039
vt 0.184314 0.043137
vt 0.133333 0.043137
vt 0.203922 0.023529
vt 0.145098 0.019608
vt 0.203922 0.074510
vt 0.160784 0.109804
vt 0.129412 0.066667
vt 0.160784 0.113725
vt 0.121569 0.066667
vt 0.211765 0.074510
vt 0.200000 0.019608
vt 0.141177 0.011765
vt 0.180392 0.094118
vt 0.133333 0.043137
vn -0.6718 -0.0274 -0.7402
vn 0.9763 0.0058 -0.2165
vn -0.7136 -0.0637 -0.6976
vn 0.9836 -0.0292 -0.1780
vn -0.5835 -0.0631 -0.8097
vn 0.9865 -0.0326 -0.1603
vn -0.3009 0.0179 0.9535
vn -0.3495 -0.0111 0.9369
vn -0.3390 -0.0399 0.9399
vn -0.3186 -0.0010 0.9479
vn -0.3160 -0.0009 0.9488
vn 0.8157 0.0026 0.5784
vn 0.8179 0.0026 0.5753
vn 0.8427 0.0027 -0.5384
vn -0.9999 -0.0032 0.0121
vn -0.9999 -0.0032 0.0099
vn -0.2790 -0.0009 -0.9603
vn -0.2750 -0.0009 -0.9614
vn -0.0028 -1.0000 0.0016
vn -0.0017 -1.0000 0.0027
vn -0.0007 -1.0000 0.0027
vn -0.0009 -1.0000 0.0033
vn -0.0025 -1.0000 0.0035
vn 0.0006 1.0000 -0.0047
vn 0.0014 1.0000 -0.0030
vn 0.0013 1.0000 -0.0027
vn 0.0017 1.0000 -0.0018
vn 0.0020 1.0000 -0.0025
usemtl mat_007-1
s 1
f 1/1/1 2/2/2 3/3/3
f 2/2/2 4/4/4 3/3/3
f 3/3/3 4/4/4 5/5/5
f 4/4/4 6/6/6 5/5/5
f 5/5/5 7/7/7 3/3/3
f 7/7/7 8/8/8 3/3/3
f 3/3/3 8/8/8 1/1/1
f 8/8/8 9/9/9 1/1/1
f 7/7/7 6/6/6 8/8/8
f 6/6/6 4/4/4 8/8/8
f 8/8/8 4/4/4 9/9/9
f 4/4/4 2/2/2 9/9/9
f 10/10/10 11/11/11 12/12/12
f 11/11/11 13/13/13 12/12/12
f 14/14/14 12/15/12 15/16/14
f 12/15/12 13/17/13 15/16/14
f 10/18/10 16/19/15 11/20/11
f 11/20/11 16/19/15 17/21/16
f 16/19/15 18/22/17 17/21/16
f 17/21/16 18/22/17 19/23/18
f 13/24/19 11/25/20 15/26/21
f 15/26/21 11/25/20 19/27/22
f 11/25/20 17/28/23 19/27/22
f 18/29/24 16/30/25 14/31/26
f 14/31/26 16/30/25 12/32/27
f 16/30/25 10/33/28 12/32/27
f 15/16/14 19/34/18 14/35/14
f 19/34/18 18/22/17 14/35/14
