# Blender v2.79 (sub 0) OBJ File: ''
# www.blender.org
mtllib HandLeft.mtl
v -0.409118 0.093126 0.490514
v 0.385642 -0.093819 0.522779
v -0.423939 -1.738194 0.649571
v 0.386838 -1.793673 0.814864
v -0.402318 0.076541 -0.575697
v -0.425758 -1.770172 -0.651522
v 0.388569 -0.099052 -0.578132
v 0.363942 -1.783314 -0.806472
v -0.960495 -2.122289 -0.241144
v -0.616692 -2.343566 0.424913
v -0.647436 -2.349393 -0.254173
v -0.970805 -2.115565 0.410419
v -1.019643 -1.435887 0.696143
v -0.996092 -1.377940 0.926883
v -0.768992 -1.718448 0.730851
v -0.745438 -1.660502 0.961591
v 0.101553 -1.137212 0.221895
v -0.378135 -0.596461 0.155471
v 0.093067 -1.083563 0.652882
v -0.386621 -0.542811 0.586458
vt 0.450980 0.937255
vt 0.458824 0.796078
vt 0.454902 0.913725
vt 0.454902 0.780392
vt 0.290196 0.298039
vt 0.278431 0.513726
vt 0.509804 0.298039
vt 0.521569 0.513726
vt 0.090196 0.435294
vt 0.223529 0.403922
vt 0.098039 0.533333
vt 0.156863 0.525490
vt 0.066667 0.513726
vt 0.219608 0.501961
vt 0.066667 0.854902
vt 0.058824 0.862745
vt 0.341177 0.854902
vt 0.015686 0.564706
vt 0.396078 0.556863
vt 0.337255 0.858823
vt 0.513726 0.968628
vt 0.513726 0.839216
vt 0.537255 0.972549
vt 0.537255 0.843137
vt 0.498039 0.780392
vt 0.513726 0.800000
vt 0.501961 0.756863
vt 0.521569 0.792157
vt 0.396078 0.556863
vt 0.058824 0.862745
vt 0.015686 0.564706
vt 0.521628 0.788688
vt 0.490256 0.753394
vt 0.498099 0.788688
vt 0.474569 0.765159
vt 0.450980 0.694118
vt 0.505882 0.705882
vt 0.439216 0.650980
vt 0.462745 0.619608
vt 0.517647 0.850980
vt 0.474510 0.792157
vt 0.501961 0.945098
vt 0.462745 0.843137
vt 0.447059 0.788235
vt 0.470588 0.839216
vt 0.439216 0.839216
vt 0.454902 0.933333
vt 0.490196 0.870588
vt 0.486275 0.952941
vt 0.517647 0.815686
vt 0.427451 0.850980
vt 0.443137 0.784314
vt 0.517647 0.788235
vt 0.439216 0.682353
vt 0.490196 0.623529
vn -0.4996 0.7035 0.5054
vn -0.6086 0.1002 0.7871
vn 0.6228 0.5281 0.5774
vn 0.6089 -0.3884 0.6917
vn -0.5306 0.6511 -0.5426
vn -0.6200 -0.0679 -0.7817
vn 0.6193 0.5239 -0.5848
vn 0.6099 -0.4108 -0.6778
vn -0.9417 -0.0774 -0.3275
vn -0.1468 -0.8956 -0.4199
vn -0.0860 -0.8764 0.4738
vn -0.8905 -0.0347 0.4537
vn -0.9067 -0.1732 -0.3846
vn -0.1682 -0.9485 -0.2684
vn -0.7162 0.1229 0.6870
vn -0.0062 -0.6295 0.7770
vn 0.1475 -0.7664 -0.6252
vn -0.7115 0.0973 -0.6959
vn 0.5727 -0.4504 0.6849
vn -0.5735 0.6387 0.5130
usemtl mat_007-1
s 1
f 1/1/1 3/2/2 2/3/3
f 2/3/3 3/2/2 4/4/4
f 5/5/5 6/6/6 1/7/1
f 1/7/1 6/6/6 3/8/2
f 2/9/3 4/10/4 7/11/7
f 4/10/4 8/12/8 7/11/7
f 7/11/7 8/12/8 5/13/5
f 8/12/8 6/14/6 5/13/5
f 9/15/9 11/16/10 10/17/11
f 11/16/10 8/18/8 10/17/11
f 10/17/11 8/18/8 4/19/4
f 9/15/9 10/17/11 12/20/12
f 5/21/5 1/22/1 7/23/7
f 7/23/7 1/22/1 2/24/3
f 9/25/9 6/26/6 11/27/10
f 11/27/10 6/26/6 8/28/8
f 12/20/12 3/29/2 9/30/9
f 9/30/9 3/29/2 6/31/6
f 10/32/11 4/33/4 12/34/12
f 12/34/12 4/33/4 3/35/2
f 13/36/13 15/37/14 14/38/15
f 14/38/15 15/37/14 16/39/16
f 17/40/17 15/41/14 18/42/18
f 18/42/18 15/41/14 13/43/13
f 16/44/16 19/45/19 14/46/15
f 14/46/15 19/45/19 20/47/20
f 15/48/14 17/49/17 16/50/16
f 16/50/16 17/49/17 19/51/19
f 18/52/18 13/53/13 20/54/20
f 20/54/20 13/53/13 14/55/15
