# Blender v2.79 (sub 0) OBJ File: ''
# www.blender.org
mtllib Humerus.mtl
v 0.178504 0.023210 0.249350
v 0.157211 0.017025 -0.265049
v -0.324400 0.002798 -0.011794
v 0.180167 -0.960987 -0.301567
v 0.190001 -1.119016 0.320436
v 0.167393 -1.552168 -0.291488
v 0.184904 -1.574935 0.324896
v -0.322480 -1.557170 -0.010694
v -0.340558 -1.079439 -0.001882
vt 0.858823 0.121569
vt 0.835294 0.098039
vt 0.815686 0.098039
vt 0.862745 0.121569
vt 0.870588 0.133333
vt 0.874510 0.101961
vt 0.894118 0.109804
vt 0.870588 0.086274
vt 0.890196 0.082353
vt 0.866667 0.078431
vt 0.870588 0.098039
vt 0.850980 0.121569
vn 0.4229 0.5881 0.6894
vn 0.4173 0.5833 -0.6969
vn -0.8525 0.5223 0.0206
vn 0.4957 0.0491 -0.8671
vn 0.4955 0.0533 0.8670
vn 0.4886 0.0763 -0.8692
vn 0.4452 0.0147 0.8953
vn -0.9997 -0.0044 -0.0254
vn -0.9997 -0.0189 -0.0158
usemtl mat_007-1
s 1
f 1/1/1 2/2/2 3/3/3
f 2/4/2 1/5/1 4/6/4
f 1/5/1 5/7/5 4/6/4
f 4/6/4 5/7/5 6/8/6
f 5/7/5 7/9/7 6/8/6
f 6/8/6 8/10/8 4/6/4
f 8/10/8 9/11/9 4/6/4
f 4/6/4 9/11/9 2/4/2
f 9/11/9 3/12/3 2/4/2
f 1/5/1 3/12/3 9/11/9
f 8/10/8 7/9/7 9/11/9
f 7/9/7 5/7/5 9/11/9
f 9/11/9 5/7/5 1/5/1
