# Blender v2.79 (sub 0) OBJ File: ''
# www.blender.org
mtllib ShoeRight.mtl
v -1.359038 -0.211852 1.039407
v -1.820926 -1.925322 0.961219
v 0.143794 0.018407 0.566571
v -0.131878 -1.910799 0.551675
v -0.793271 -3.284127 0.517754
v -1.828633 -3.501418 0.320056
v -1.818717 -0.047151 1.036921
v -1.805171 0.965782 0.065402
v -1.793584 0.034824 -0.996121
v 0.160074 0.071257 -0.745045
v -0.394217 0.674534 0.068038
v -0.114410 -1.854075 -0.856077
v -1.765877 -1.824536 -0.988831
v -1.333904 -0.129902 -0.993635
v -1.821116 -3.428301 -0.582876
v -0.770980 -3.203182 -0.662457
vt 0.443137 0.066667
vt 0.376471 0.066667
vt 0.447059 0.180392
vt 0.388235 0.184314
vt 0.321569 0.145098
vt 0.316109 0.068127
vt 0.992157 0.796078
vt 0.835294 0.654902
vt 0.670588 0.788235
vt 0.337255 0.164706
vt 0.392157 0.125490
vt 0.301961 0.109804
vt 0.236870 0.196333
vt 0.195120 0.255291
vt 0.055557 0.196905
vt 0.063039 0.255136
vt 0.678431 0.956863
vt 0.745098 0.956863
vt 0.674510 0.835294
vt 0.745098 0.835294
vt 0.180124 0.049433
vt 0.201738 0.157331
vt 0.076204 0.048525
vt 0.035368 0.156436
vt 0.929412 0.866667
vt 0.933333 0.831373
vt 0.705882 0.866667
vt 0.705882 0.831373
vt 0.328389 0.067658
vt 0.376471 0.066667
vt 0.388235 0.184314
vt 0.443137 0.066667
vt 0.447059 0.180392
vt 0.439216 0.062745
vt 0.474510 0.062745
vt 0.321569 0.145098
vt 0.745098 0.611765
vt 0.929412 0.611765
vt 0.658823 0.309804
vt 0.988235 0.309804
vt 0.447059 0.180392
vt 0.443137 0.066667
vt 0.478431 0.062745
vn 0.2608 0.2893 0.9210
vn 0.2244 -0.1645 0.9605
vn 0.7450 0.3140 0.5885
vn 0.7496 -0.3141 0.5826
vn 0.4819 -0.7287 0.4866
vn 0.1145 -0.8589 0.4991
vn -0.6581 -0.7519 -0.0397
vn -0.9997 -0.0221 -0.0094
vn -0.6458 -0.7633 -0.0158
vn 0.7163 0.3697 -0.5918
vn 0.3736 0.9230 0.0918
vn 0.7041 -0.2332 -0.6707
vn -0.9853 0.1584 -0.0639
vn -0.8787 -0.4744 -0.0532
vn -0.9913 0.1303 0.0196
vn -0.8727 -0.4876 -0.0235
vn 0.1657 -0.7972 -0.5806
vn 0.4955 -0.6395 -0.5879
vn 0.1096 -0.1222 -0.9864
vn 0.1203 0.1960 -0.9732
vn 0.0996 0.6864 -0.7204
vn 0.1915 0.9797 0.0589
vn -0.9988 0.0478 -0.0042
vn -0.9971 0.0336 -0.0688
vn 0.1551 0.6439 0.7492
usemtl mat_007-0
s 1
f 1/1/1 2/2/2 3/3/3
f 3/3/3 2/2/2 4/4/4
f 4/4/4 2/2/2 5/5/5
f 2/2/2 6/6/6 5/5/5
f 7/7/7 8/8/8 9/9/9
f 10/10/10 11/11/11 3/12/3
f 12/13/12 10/14/10 4/15/4
f 10/14/10 3/16/3 4/15/4
f 2/17/13 1/18/14 13/19/15
f 1/18/14 14/20/16 13/19/15
f 15/21/17 16/22/18 6/23/6
f 16/22/18 5/24/5 6/23/6
f 9/25/9 14/26/16 7/27/7
f 14/26/16 1/28/14 7/27/7
f 15/29/17 13/30/19 12/31/12
f 13/30/19 14/32/20 12/31/12
f 12/31/12 14/32/20 10/33/10
f 14/32/20 9/34/21 10/33/10
f 10/33/10 9/34/21 8/35/22
f 12/31/12 16/36/18 15/29/17
f 15/37/23 6/38/24 13/39/15
f 6/38/24 2/40/13 13/39/15
f 5/24/5 16/22/18 4/15/4
f 16/22/18 12/13/12 4/15/4
f 10/33/10 8/35/22 11/41/11
f 8/35/22 7/42/25 11/41/11
f 11/41/11 7/42/25 3/3/3
f 7/42/25 1/43/1 3/3/3
