# Blender v2.79 (sub 0) OBJ File: ''
# www.blender.org
mtllib Thigh.mtl
v 0.209659 -1.875368 0.356874
v 0.193888 -1.859540 -0.329617
v 0.221405 -1.418919 0.366667
v 0.225185 -1.384878 -0.334396
v 0.199347 0.011879 0.365131
v 0.203127 0.045922 -0.335934
v -0.447841 -1.883410 -0.012430
v -0.459800 -1.428449 -0.013939
v -0.455824 0.024593 -0.001413
vt 0.729412 0.184314
vt 0.752941 0.180392
vt 0.721569 0.211765
vt 0.741176 0.203922
vt 0.725490 0.243137
vt 0.752941 0.231373
vt 0.784314 0.188235
vt 0.764706 0.211765
vt 0.858823 0.400000
vt 0.796078 0.403922
vt 0.866667 0.466667
vt 0.800000 0.474510
vt 0.937255 0.466667
vt 0.913725 0.454902
vt 0.929412 0.400000
vt 0.898039 0.388235
vt 0.960784 0.349020
vt 0.909804 0.333333
vn 0.3971 -0.5399 0.7422
vn 0.4200 -0.5503 -0.7216
vn 0.5201 -0.0061 0.8541
vn 0.5395 -0.0262 -0.8416
vn 0.4953 -0.0274 0.8683
vn 0.5218 -0.0190 -0.8528
vn -0.8432 -0.5377 0.0008
vn -0.9996 0.0023 -0.0291
vn -0.9933 -0.0868 -0.0767
usemtl mat_007-1
s 1
f 1/1/1 2/2/2 3/3/3
f 2/2/2 4/4/4 3/3/3
f 3/3/3 4/4/4 5/5/5
f 4/4/4 6/6/6 5/5/5
f 2/2/2 1/1/1 7/7/7
f 3/3/3 8/8/8 1/1/1
f 8/8/8 7/7/7 1/1/1
f 8/9/8 3/10/3 9/11/9
f 3/10/3 5/12/5 9/11/9
f 9/13/9 6/14/6 8/15/8
f 6/14/6 4/16/4 8/15/8
f 8/15/8 4/16/4 7/17/7
f 4/16/4 2/18/2 7/17/7
