# Blender v2.78 (sub 0) OBJ File: ''
# www.blender.org
mtllib FootR.mtl
v -2.033513 2.458879 0.432914
v -2.033514 1.179681 0.432915
v -0.925704 0.540082 0.437396
v -0.925704 3.098479 0.437394
v 0.182106 1.179681 0.441876
v 0.182106 2.458879 0.441876
v -2.029615 1.17968 -0.530698
v -2.029616 2.458879 -0.5307
v -0.921806 3.098479 -0.526219
v -0.921807 0.540082 -0.526219
v 0.186003 2.458879 -0.521738
v 0.186002 1.179681 -0.521737
v -0.695392 -1.25222 -0.731382
v -0.64618 0.672143 -0.362722
v -0.087818 -0.54032 -0.221545
v -0.78474 -2.375892 -0.335752
v -0.787651 -2.375892 0.383979
v 0.193512 0.975514 -0.250335
v -1.102485 -0.353673 -0.466633
v -1.678187 -1.871706 -0.780817
v -1.680104 -3.554749 -0.306873
v -1.682752 -3.554749 0.34786
v -0.71445 -1.238548 0.780265
v -1.684669 -1.871705 0.821803
v -0.105013 -0.54032 0.275351
v 0.19126 0.975514 0.306475
v -0.649314 0.672144 0.412068
v -1.106444 -0.353672 0.512284
v -1.491122 -0.357992 0.467759
v -1.48751 -0.357992 -0.425221
v -2.058458 -1.653068 -0.71201
v -2.064371 -1.653067 0.749921
v -2.060206 -3.067831 -0.279672
v -2.062622 -3.067831 0.317585
v 1.194475 1.091027 -0.465584
v 1.190941 1.091026 0.408147
v 0.787195 0.43018 -0.030358
v 0.789458 0.43018 -0.589925
v 0.784632 0.430181 0.603214
v 0.785403 -0.842188 0.4128
v 0.788988 -0.842189 -0.473516
v -0.212991 -1.160809 -0.566201
v 0.397168 1.091026 0.426075
v 0.400873 1.091026 -0.489933
v -0.211911 0.401215 -0.833284
v -0.220056 0.401216 1.180429
v -0.217294 -1.160808 0.497378
v 0.798348 1.092082 0.792801
v 0.804395 1.092081 -0.702139
v 0.400873 2.484953 -0.489933
v 0.795581 2.484953 -0.689001
v 1.194474 2.774231 -0.465585
v 1.190942 2.774231 0.408146
v 0.78964 2.484953 0.779592
v 0.397168 2.484953 0.426074
v -1.15883 0.044094 1.366296
v -0.72446 0.042728 1.368052
v -0.508457 0.41686 1.368926
v -1.377198 0.41959 1.365412
v -0.726825 0.792356 1.368042
v -1.161196 0.793721 1.366286
v -0.209982 0.406776 1.193958
v -0.573211 1.919379 1.192489
v -0.818215 -0.838776 1.191499
v -0.914518 2.064952 1.191108
v -1.880019 -0.554431 1.187204
v -1.354548 1.884641 1.189328
v -1.871809 -0.554432 -0.84277
v -1.346337 1.884639 -0.840645
v -0.810005 -0.838777 -0.838475
v -0.906308 2.06495 -0.838867
v -0.201771 0.406775 -0.836015
v -0.565 1.919377 -0.837485
v -0.283974 0.416156 1.192547
v -0.614834 0.98509 1.191208
v -1.272972 0.987159 1.188546
v -1.600249 0.420294 1.187222
v -1.269387 -0.14864 1.18856
v -0.61125 -0.150709 1.191222
vt 0.0026 0.5679
vt 0.0026 0.0528
vt 0.0026 0.9921
vt 0.0026 0.0033
vt 0.0026 0.8952
vt 0.0026 0.0647
vt 1.0055 0.8952
vt 1.0055 0.0647
vt 1.0055 0.9921
vt 1.0055 0.0033
vt 1.0055 0.5679
vt 1.0055 0.0528
vt 0.0000 0.0000
vt 1.0000 0.0000
vt 1.0000 1.0000
vt 1.0000 0.0000
vt 1.0000 1.0000
vt 0.0000 0.0000
vt 1.0000 1.0000
vt 0.0000 0.0000
vt 1.0000 0.0000
vt 0.0000 0.0000
vt 1.0000 1.0000
vt 1.0000 0.0000
vt 1.0000 1.0000
vt 0.0000 0.0000
vt 1.0000 0.0000
vt 1.0000 1.0000
vt 0.0000 0.0000
vt 1.0000 0.0000
vt 1.0000 1.0000
vt 0.0000 0.0000
vt 1.0000 1.0000
vt 1.0000 0.0000
vt 1.0000 1.0000
vt 0.0000 0.0000
vt 1.0000 0.0000
vt 0.0000 0.0000
vt 0.0000 0.0000
vt 1.0000 0.0000
vt 0.0000 0.0000
vt 1.0000 1.0000
vt 1.0000 0.0000
vt 0.0000 0.0000
vt 1.0000 1.0000
vt 0.0000 0.0000
vt 1.0000 0.0000
vt 1.0000 1.0000
vt 1.0000 0.0000
vt 1.0000 1.0000
vt 0.0000 0.0000
vt 1.0000 1.0000
vt 1.0000 0.0000
vt 1.0000 1.0000
vt 0.0000 0.0000
vt 1.0000 0.0000
vt 1.0000 0.0000
vt 1.0000 0.0000
vt 1.0000 1.0000
vt 0.0000 0.0000
vt 1.0000 0.0000
vt 1.0000 0.0000
vt 0.0000 0.0000
vt 1.0000 0.0000
vt 0.0000 0.0000
vt 1.3429 0.8196
vt 1.6663 0.8207
vt 1.8271 0.4993
vt 1.1803 0.4970
vt 1.6645 0.1768
vt 1.3411 0.1756
vt 0.0511 0.2455
vt 0.0511 0.7455
vt 0.4893 0.9955
vt 0.4893 -0.0045
vt 0.9275 0.7455
vt 0.9275 0.2455
vt 0.0511 0.7455
vt 0.0511 0.2455
vt 0.4893 -0.0045
vt 0.4893 0.9955
vt 0.9275 0.2455
vt 0.9275 0.7455
vt 0.0028 1.6187
vt -0.4792 1.6187
vt -0.4899 0.0069
vt -0.9684 1.9534
vt -0.9684 0.0057
vt -0.9684 1.9534
vt -0.9684 0.0057
vt -0.4792 1.6187
vt -0.4899 0.0069
vt 0.0028 0.0057
vt 0.0028 1.6187
vt 0.0028 0.0057
vt -0.0029 1.0055
vt -1.0029 1.0055
vt -1.0029 1.9907
vt -0.0029 1.9907
vt -1.0029 1.0055
vt -0.0029 1.0055
vt -1.0029 0.0019
vt -0.0029 0.0019
vt -1.0029 -0.9997
vt -0.0029 -0.9997
vt -1.0029 0.0019
vt -0.0029 0.0019
vt 1.6145 1.9931
vt 1.6145 1.9931
vt 1.1424 1.7873
vt 1.1424 1.7873
vt 1.1424 1.7873
vt 0.2334 1.7873
vt 0.2334 1.7873
vt 0.7202 1.7873
vt 0.2773 1.7873
vt 0.7645 1.0043
vt 1.4990 1.4841
vt 1.9142 1.4841
vt 2.0687 1.0043
vt 1.1559 1.0043
vt 1.1217 1.0043
vt 1.1217 1.0043
vt 0.0057 1.0043
vt 0.0057 1.0043
vt 0.2330 1.0043
vt 1.6153 1.7986
vt 1.6145 1.4841
vt 1.6153 1.7986
vt 1.3335 1.7986
vt 1.9937 0.4999
vt 1.7474 0.0112
vt 1.2574 0.0094
vt 1.0137 0.4964
vt 1.2600 0.9851
vt 1.7501 0.9869
vt 1.0771 -1.3432
vt 1.8132 -1.3432
vt 2.0960 -0.5185
vt 0.9159 -0.5185
vt 1.7962 -1.3480
vt 1.0941 -1.3480
vn 0.9596 -0.1055 0.2607
vn 0.5058 0.43 0.7478
vn 0.0961 -0.617 0.7811
vn 0.0959 0.6744 0.7321
vn -0.5038 -0.3059 0.8078
vn -0.739 0.6177 0.2689
vn -0.8053 -0.4929 -0.3295
vn -0.505 0.4254 -0.751
vn 0.4036 -0.4798 -0.7791
vn -0.0863 0.6758 -0.7321
vn 0.6842 -0.0748 -0.7255
vn 0.7366 0.6216 -0.2666
vn 0.2857 -0.006 -0.9583
vn 0.1662 0.102 -0.9808
vn 0.7991 -0.207 -0.5644
vn 0.7173 -0.4232 -0.5535
vn 0.8476 -0.4556 0.2719
vn 0.149 -0.0464 -0.9878
vn -0.1384 0.2229 -0.965
vn 0.0012 -0.0252 -0.9997
vn 0.1052 -0.6906 -0.7155
vn -0.1475 -0.6982 0.7005
vn 0.3814 -0.1136 0.9174
vn -0.2676 0.0032 0.9635
vn 0.854 -0.2645 0.4481
vn 0.4308 0.0168 0.9023
vn -0.3025 0.2887 0.9084
vn -0.3491 0.32 0.8808
vn -0.8054 0.4424 0.3944
vn -0.4466 0.3688 -0.8152
vn -0.7863 0.1134 -0.6074
vn -0.7636 0.1358 0.6312
vn -0.9162 -0.3446 -0.2046
vn -0.7646 -0.3478 0.5427
vn -0.007 -0.6953 0.7187
vn 0.4054 -0.5774 0.7087
vn 0.4825 0.2356 0.8436
vn -0.8025 -0.2513 0.5412
vn 0.4054 0.5773 0.7088
vn -0.3785 0.6923 0.6144
vn -0.7403 0.5222 0.4234
vn -0.7087 -0.5774 0.4054
vn 0.3306 -0.6667 0.668
vn -0.3345 0.6984 0.6328
vn 0.6475 -0.6364 0.4192
vn 0.571 0.674 0.4687
vn -0.6475 -0.6364 -0.4191
vn -0.571 0.674 -0.4687
vn 0.3345 0.6984 -0.6327
vn -0.332 -0.669 -0.665
vn 0.7403 0.5222 -0.4234
vn 0.7088 -0.5773 -0.4054
vn -0.4177 0.5856 -0.6947
vn -0.1053 0.676 -0.7293
vn -0.4947 -0.0854 -0.8649
vn 0.7213 0.5191 -0.4585
vn 0.8141 -0.3469 -0.4657
vn 0.7105 0.6245 0.3243
vn 0.6534 -0.4085 0.6374
vn 0.3151 0.6148 0.723
vn 0.4504 -0.4206 0.7875
vn -0.7849 0.427 0.4489
vn -0.7087 0.5774 0.4053
vn -0.723 0.5393 -0.4318
vn 0.6876 -0.7249 -0.0418
vn 0.7344 0.0055 -0.6786
vn 0.8297 -0.1607 0.5346
vn 0.7682 -0.5765 0.2784
vn 0.5935 -0.4259 -0.6829
vn -0.4788 -0.7935 -0.3756
vn -0.5105 0.3629 -0.7795
vn -0.6972 0.2815 0.6593
vn -0.0408 -0.6305 0.7751
vn 0.6133 -0.1176 0.781
vn 0.4086 0.4767 0.7783
vn -0.207 0.5944 0.7771
vn -0.6196 0.1176 0.7761
vn -0.4149 -0.4767 0.775
vn 0.2008 -0.5944 0.7787
usemtl Material__6.012
s 1
f 62/1/1 63/2/2 64/3/3
f 64/3/3 63/2/2 65/4/4
f 64/3/3 65/4/4 66/5/5
f 66/5/5 65/4/4 67/6/6
f 68/7/7 69/8/8 70/9/9
f 70/9/9 69/8/8 71/10/10
f 70/9/9 71/10/10 72/11/11
f 72/11/11 71/10/10 73/12/12
f 72/11/11 73/12/12 62/1/1
f 63/2/2 62/1/1 73/12/12
f 63/2/2 73/12/12 65/4/4
f 65/4/4 73/12/12 71/10/10
f 65/4/4 71/10/10 67/6/6
f 67/6/6 71/10/10 69/8/8
f 67/6/6 69/8/8 68/7/7
f 66/5/5 67/6/6 68/7/7
f 72/11/11 62/1/1 70/9/9
f 70/9/9 62/1/1 64/3/3
f 70/9/9 64/3/3 68/7/7
f 68/7/7 64/3/3 66/5/5
usemtl Mecha_Sonic_Foot.012
f 13/13/13 14/14/14 15/15/15
f 13/13/13 15/16/15 16/17/16
f 16/18/16 15/16/15 17/19/17
f 14/20/14 18/21/18 15/15/15
f 19/22/19 14/14/14 13/23/13
f 19/22/19 13/24/13 20/25/20
f 20/26/20 13/24/13 16/17/16
f 20/26/20 16/27/16 21/28/21
f 21/29/21 16/27/16 17/19/17
f 21/29/21 17/30/17 22/31/22
f 22/32/22 17/30/17 23/33/23
f 22/32/22 23/34/23 24/35/24
f 15/36/15 25/37/25 17/19/17
f 17/38/17 25/37/25 23/33/23
f 25/39/25 26/40/26 23/33/23
f 23/41/23 26/40/26 27/42/27
f 23/41/23 27/43/27 24/35/24
f 24/44/24 27/43/27 28/45/28
f 29/46/29 30/47/30 31/48/31
f 29/46/29 31/49/31 32/50/32
f 32/51/32 31/49/31 33/52/33
f 32/51/32 33/53/33 34/54/34
f 34/55/34 33/53/33 22/31/22
f 34/55/34 22/56/22 24/35/24
f 34/55/34 24/57/24 32/50/32
f 32/51/32 24/57/24 28/45/28
f 32/51/32 28/58/28 29/59/29
f 30/60/30 19/61/19 20/25/20
f 30/60/30 20/62/20 31/48/31
f 31/63/31 20/62/20 21/28/21
f 31/63/31 21/64/21 33/52/33
f 33/65/33 21/64/21 22/31/22
usemtl Material__4.012
f 56/66/35 57/67/36 58/68/37
f 56/66/35 58/68/37 59/69/38
f 59/69/38 58/68/37 60/70/39
f 59/69/38 60/70/39 61/71/40
usemtl Mecha_Sonic_Tires.012
f 1/72/41 2/73/42 3/74/43
f 1/72/41 3/74/43 4/75/44
f 4/75/44 3/74/43 5/76/45
f 4/75/44 5/76/45 6/77/46
f 7/78/47 8/79/48 9/80/49
f 7/78/47 9/80/49 10/81/50
f 10/81/50 9/80/49 11/82/51
f 10/81/50 11/82/51 12/83/52
usemtl Material__3.012
f 50/84/53 51/85/54 49/86/55
f 49/86/55 51/85/54 52/87/56
f 49/86/55 52/87/56 35/88/57
f 35/88/57 52/87/56 53/89/58
f 35/88/57 53/89/58 36/90/59
f 36/90/59 53/89/58 54/91/60
f 36/90/59 54/91/60 48/92/61
f 48/92/61 54/91/60 43/93/62
f 54/91/60 55/94/63 43/93/62
f 43/93/62 55/94/63 50/84/53
f 43/93/62 50/84/53 44/95/64
f 44/95/64 50/84/53 49/86/55
usemtl Material__9.012
f 12/96/52 5/97/45 3/98/43
f 12/96/52 3/98/43 10/99/50
f 10/99/50 3/98/43 2/100/42
f 10/99/50 2/100/42 7/101/47
f 7/101/47 2/100/42 1/102/41
f 7/101/47 1/102/41 8/103/48
f 8/103/48 1/102/41 4/104/44
f 8/103/48 4/104/44 9/105/49
f 9/105/49 4/104/44 6/106/46
f 9/105/49 6/106/46 11/107/51
f 11/107/51 6/106/46 5/97/45
f 11/107/51 5/97/45 12/96/52
usemtl 01_-_Default.012
f 35/108/57 36/109/59 37/110/65
f 38/111/66 39/112/67 40/113/68
f 38/111/66 40/113/68 41/114/69
f 41/115/69 40/116/68 42/117/70
f 43/118/62 44/119/64 45/120/71
f 43/118/62 45/120/71 46/121/72
f 46/122/72 45/123/71 42/124/70
f 46/122/72 42/124/70 47/125/73
f 47/126/73 42/117/70 40/116/68
f 37/110/65 36/109/59 48/127/61
f 45/123/71 44/128/64 38/111/66
f 38/111/66 44/128/64 49/129/55
f 38/111/66 49/129/55 39/112/67
f 39/112/67 49/129/55 48/127/61
f 39/112/67 48/127/61 46/122/72
f 46/121/72 48/130/61 43/118/62
f 38/111/66 41/114/69 45/123/71
f 45/123/71 41/114/69 42/124/70
f 46/122/72 47/125/73 39/112/67
f 39/112/67 47/125/73 40/113/68
f 49/129/55 35/108/57 37/110/65
usemtl Material__5.012
f 57/67/36 74/131/74 58/68/37
f 58/68/37 74/131/74 75/132/75
f 58/68/37 75/132/75 60/70/39
f 60/70/39 75/132/75 76/133/76
f 60/70/39 76/133/76 61/71/40
f 61/71/40 76/133/76 77/134/77
f 61/71/40 77/134/77 59/69/38
f 59/69/38 77/134/77 78/135/78
f 59/69/38 78/135/78 56/66/35
f 56/66/35 78/135/78 79/136/79
f 56/66/35 79/136/79 57/67/36
f 57/67/36 79/136/79 74/131/74
usemtl Material__7.012
f 50/137/53 55/138/63 54/139/60
f 50/137/53 54/139/60 51/140/54
f 51/140/54 54/139/60 53/141/58
f 51/140/54 53/141/58 52/142/56
