# Blender v2.78 (sub 0) OBJ File: ''
# www.blender.org
mtllib HandR.mtl
v 0.886337 0.871243 0.833372
v 2.254100 1.272747 0.696547
v 0.885415 1.272748 0.701699
v 2.253177 1.273904 -0.695858
v 0.878944 1.273905 -0.690706
v 2.251332 0.871243 -0.795428
v 0.882645 0.871242 -0.790276
v 2.253178 0.510810 -0.695858
v 0.878944 0.510811 -0.690707
v 2.254101 0.503508 0.696547
v 0.885414 0.503507 0.701699
v 2.255023 0.871243 0.828220
v 1.766939 -0.008348 -0.237702
v 0.871798 -0.389167 -0.617318
v 1.765092 -0.389167 -0.620666
v 0.881049 -0.008348 -0.981832
v 1.763247 -0.008349 -0.988289
v 0.871798 0.382107 -0.617318
v 1.765093 0.382107 -0.620665
v 0.884740 -0.008349 -0.231244
v 0.888254 1.313313 0.784498
v -0.057646 1.158568 0.597068
v -0.056510 0.287882 0.716798
v 0.890623 0.223723 0.843075
v -0.057645 -0.300420 0.573189
v 0.888254 -0.423603 0.713973
v -0.069878 1.158566 -0.692316
v 0.875927 1.313313 -0.694790
v -0.069950 -0.300420 -0.699864
v 0.873636 -0.423603 -0.989185
v 0.873560 0.497869 -0.991309
v -0.071203 0.287883 -0.832027
v 1.574120 -0.003530 -0.611597
vt 0.0048 1.3495
vt -0.5430 0.3499
vt -0.5430 1.3501
vt -1.6642 1.3433
vt -1.6638 0.3430
vt 1.5823 0.3437
vt 1.5817 1.3480
vt -0.5446 1.3549
vt -0.5446 0.3506
vt 0.0048 0.3519
vt 0.0048 1.3522
vt 0.4966 0.3506
vt 0.4966 1.3549
vt 1.5817 1.3480
vt 1.5823 0.3437
vt -1.6638 0.3430
vt -1.6642 1.3433
vt 0.5066 1.3501
vt 0.5066 0.3499
vt 0.0048 0.3492
vt 1.0396 0.6990
vt 1.5050 1.3532
vt 1.5135 0.7004
vt 1.9949 1.3464
vt 2.0114 0.7017
vt 1.5050 1.3532
vt 1.5135 0.7004
vt 1.0231 1.3437
vt -2.0019 -1.9886
vt -1.9128 -1.0138
vt -1.4115 -1.0140
vt -1.3746 -1.9887
vt -1.0728 -1.0138
vt -1.0019 -1.9886
vt -1.1608 -1.0147
vt -1.8637 -1.0169
vt -1.1594 -1.9909
vt -1.8506 -1.0169
vt -1.1566 -1.0147
vt -1.9274 -1.9917
vt -0.9989 -1.9908
vt -0.9978 -1.9908
vt -1.9978 -1.9919
vt -1.9658 -1.9917
vt -1.0019 -1.9876
vt -1.0728 -1.0115
vt -1.4115 -1.0113
vt -1.5324 -1.9876
vt -1.9128 -1.0115
vt -2.0019 -1.9878
vt 0.0564 0.0303
vt 0.9369 0.0287
vt 1.0202 -0.5255
vt -0.0066 -0.5255
vt 0.9369 -1.0332
vt 0.0564 -1.0231
vt -0.5175 -1.0455
vt -0.5041 0.0659
vt -0.3570 -0.4928
vt -0.2035 0.0678
vt -0.2148 -1.0441
vn 0.0037 0.1002 0.9950
vn 0.7084 0.2215 0.6702
vn 0.0015 0.9247 0.3807
vn 0.9857 0.1682 -0.0017
vn -0.0029 0.6064 -0.7951
vn 0.8231 -0.0000 -0.5680
vn -0.0037 -0.1003 -0.9950
vn 0.7060 -0.1852 -0.6835
vn -0.0016 -0.9187 -0.3950
vn 0.9859 -0.1675 -0.0066
vn 0.0027 -0.6655 0.7464
vn 0.8338 -0.0000 0.5520
vn 0.3859 -0.6023 0.6988
vn 0.0023 -0.9513 0.3084
vn 0.2180 -0.9381 -0.2690
vn -0.0059 -0.3081 -0.9513
vn 0.4039 0.5876 -0.7011
vn -0.0025 0.9405 -0.3397
vn 0.1766 0.7405 0.6485
vn 0.0059 0.3091 0.9510
vn 0.2129 0.5038 0.8372
vn -0.2254 0.8849 0.4077
vn -0.1642 -0.0164 0.9863
vn 0.6597 -0.0962 0.7454
vn -0.1817 -0.5824 0.7923
vn 0.5520 -0.7641 0.3338
vn -0.1704 0.6056 -0.7773
vn 0.5426 0.7769 -0.3194
vn -0.2329 -0.8960 -0.3780
vn 0.1711 -0.5230 -0.8350
vn 0.6567 0.1256 -0.7436
vn -0.2281 -0.0188 -0.9735
vn 1.0000 0.0010 -0.0036
usemtl Material__46.000
s 1
f 1/1/1 2/2/2 3/3/3
f 3/4/3 2/5/2 4/6/4
f 3/4/3 4/6/4 5/7/5
f 5/8/5 4/9/4 6/10/6
f 5/8/5 6/10/6 7/11/7
f 7/11/7 6/10/6 8/12/8
f 7/11/7 8/12/8 9/13/9
f 9/14/9 8/15/8 10/16/10
f 9/14/9 10/16/10 11/17/11
f 11/18/11 10/19/10 12/20/12
f 11/18/11 12/20/12 1/1/1
f 1/1/1 12/20/12 2/2/2
f 13/21/13 14/22/14 15/23/15
f 15/23/15 14/22/14 16/24/16
f 15/23/15 16/24/16 17/25/17
f 17/25/17 16/24/16 18/26/18
f 17/25/17 18/26/18 19/27/19
f 19/27/19 18/26/18 20/28/20
f 19/27/19 20/28/20 13/21/13
f 13/21/13 20/28/20 14/22/14
usemtl Material__47.000
f 21/29/21 22/30/22 23/31/23
f 21/29/21 23/31/23 24/32/24
f 24/32/24 23/31/23 25/33/25
f 24/32/24 25/33/25 26/34/26
f 27/35/27 22/36/22 28/37/28
f 25/38/25 29/39/29 26/40/26
f 29/39/29 30/41/30 26/40/26
f 26/40/26 30/41/30 31/42/31
f 26/40/26 31/42/31 24/43/24
f 24/43/24 31/42/31 28/37/28
f 24/43/24 28/37/28 21/44/21
f 21/44/21 28/37/28 22/36/22
f 30/45/30 29/46/29 32/47/32
f 30/45/30 32/47/32 31/48/31
f 31/48/31 32/47/32 27/49/27
f 31/48/31 27/49/27 28/50/28
usemtl 14_-_Default.000
f 4/51/4 2/52/2 12/53/12
f 4/51/4 12/53/12 6/54/6
f 6/54/6 12/53/12 10/55/10
f 6/54/6 10/55/10 8/56/8
f 15/57/15 17/58/17 33/59/33
f 33/59/33 17/58/17 19/60/19
f 33/59/33 19/60/19 13/61/13
f 33/59/33 13/61/13 15/57/15
