# Blender v2.78 (sub 0) OBJ File: ''
# www.blender.org
mtllib Thigh.mtl
v 0.307717 0.015944 -0.222941
v 1.492639 -0.286881 -0.008072
v 0.310568 -0.207923 0.000492
v 1.502718 0.017503 0.287839
v 0.311622 0.018250 0.226067
v 1.493068 0.320924 -0.005393
v 0.308771 0.242116 0.002634
v 1.501252 0.014456 -0.306553
v 0.149233 -0.001607 -0.357143
v 0.144203 -0.357700 -0.001015
v -0.260070 0.004174 -0.001015
v 0.154263 0.354486 -0.001015
v 0.149233 -0.001607 0.355114
v 0.558536 -0.007388 -0.001015
vt 0.5011 0.9972
vt 0.0995 -0.0081
vt 0.1869 0.9921
vt 0.5270 -0.0130
vt 0.5044 0.9939
vt 0.9527 -0.0012
vt 0.8186 0.9990
vt 0.5227 -0.0118
vt 0.5185 1.4198
vt 0.0355 1.5493
vt 0.6080 1.7541
vt 1.0014 1.2904
vt 0.5185 1.4198
vt 0.4289 1.0856
vn -0.0676 -0.3133 -0.9472
vn -0.0649 -0.9469 -0.3150
vn -0.0586 -0.9449 0.3221
vn -0.0510 -0.3130 0.9484
vn -0.0517 0.3088 0.9497
vn -0.0587 0.9451 0.3214
vn -0.0637 0.9455 -0.3193
vn -0.0670 0.3125 -0.9475
vn -0.0000 0.0000 -1.0000
vn -0.0141 -0.9999 -0.0000
vn -0.9999 0.0141 -0.0000
vn 0.0141 0.9999 -0.0000
vn 0.0000 -0.0000 1.0000
vn 0.9999 -0.0141 -0.0000
usemtl 09_-_Default.011
s 1
f 1/1/1 2/2/2 3/3/3
f 3/3/3 2/2/2 4/4/4
f 3/3/3 4/4/4 5/5/5
f 5/5/5 4/4/4 6/6/6
f 5/5/5 6/6/6 7/7/7
f 7/7/7 6/6/6 8/8/8
f 7/7/7 8/8/8 1/1/1
f 1/1/1 8/8/8 2/2/2
usemtl Material__31.011
f 9/9/9 10/10/10 11/11/11
f 9/9/9 11/11/11 12/12/12
f 12/12/12 11/11/11 13/13/13
f 12/12/12 13/13/13 14/14/14
f 14/14/14 13/13/13 10/10/10
f 14/14/14 10/10/10 9/9/9
f 11/11/11 10/10/10 13/13/13
f 12/12/12 14/14/14 9/9/9
