# Blender v2.79 (sub 0) OBJ File: ''
# www.blender.org
mtllib Hand.mtl
v 1.127317 0.003592 -0.332489
v 1.127733 -0.005860 0.338269
v 0.881448 -0.476232 0.258652
v -0.001802 -0.479333 0.469586
v 1.263894 -1.007755 0.301073
v -0.001781 -1.011481 0.552446
v 1.263824 -2.004894 0.287067
v -0.002016 -2.004686 0.259179
v -0.002010 -2.897843 0.351494
v -0.968194 -2.896966 0.275724
v -0.001950 -3.654544 0.515270
v -0.831061 -3.651245 0.264912
v -0.355854 -3.885688 0.250915
v -0.831444 -3.642370 -0.359873
v -0.356225 -3.877063 -0.353062
v -0.002643 -3.638635 -0.611115
v 0.351042 -3.876950 -0.353423
v 1.043770 -3.642090 -0.360825
v 0.351413 -3.885584 0.250557
v 1.044153 -3.650958 0.263961
v 1.196690 -2.852097 0.275206
v -0.936084 -2.980149 -0.350523
v -0.002683 -2.960802 -0.737680
v 1.149439 -2.974558 -0.351440
v -0.002694 -2.770031 -0.773175
v 1.182143 -2.767381 -0.348651
v -0.002723 -2.246887 -0.870753
v 1.263428 -2.254162 -0.341402
v 1.263445 -2.012716 -0.338011
v 1.602689 -2.167639 -0.310689
v 1.602958 -2.149850 0.255188
v 1.715866 -2.219173 -0.301455
v 2.281579 -2.477175 -0.255853
v 2.585130 -1.912751 -0.248081
v 2.468814 -2.379546 -0.131737
v 2.605386 -2.125331 -0.128238
v 2.605504 -2.128164 0.072802
v 2.585409 -1.919046 0.198588
v 2.468942 -2.382377 0.069300
v 2.281857 -2.483464 0.190815
v 2.034461 -1.532008 -0.279682
v 1.924581 -1.463456 0.249735
v 1.924251 -1.455908 -0.285927
v 1.263510 -0.998951 -0.323773
v -0.002471 -0.995610 -0.573862
v -0.002709 -2.005441 -0.867362
v -1.050652 -0.999303 -0.322598
v -1.050718 -2.013068 -0.336836
v -1.050269 -1.008108 0.302247
v -0.970460 -2.762630 -0.347375
v -1.050734 -2.254513 -0.340227
v -1.050334 -2.005247 0.288242
v -0.885117 -0.476501 0.259549
v -1.131252 -0.006206 0.339417
v -0.885439 -0.469111 -0.264965
v -1.131666 0.003246 -0.331341
v -0.002383 -0.466007 -0.476089
v -0.002434 0.007215 -0.601164
v -0.001690 -0.009827 0.608092
v 0.881119 -0.468840 -0.265863
vt 0.000000 1.000000
vt 0.000000 0.000000
vt 1.000000 0.000000
vt 1.000000 -0.500000
vt 1.000000 0.000000
vt 1.000000 -0.500000
vt 1.000000 0.000000
vt 1.000000 -0.500000
vt 1.000000 -0.500000
vt 1.000000 -1.000000
vt 1.000000 -0.500000
vt 1.000000 -1.000000
vt 1.000000 -1.000000
vt 2.000000 -1.000000
vt 2.000000 -1.000000
vt 2.000000 -0.500000
vt 2.000000 0.000000
vt 2.000000 0.000000
vt 1.000000 0.000000
vt 1.000000 0.000000
vt 1.000000 0.000000
vt 2.000000 -1.000000
vt 2.000000 -0.500000
vt 2.000000 0.000000
vt 2.000000 -0.500000
vt 2.000000 0.000000
vt 2.000000 -0.500000
vt 2.000000 0.000000
vt 2.000000 0.000000
vt 2.000000 0.000000
vt 1.000000 0.000000
vt 2.000000 0.000000
vt 2.000000 0.000000
vt 2.000000 0.000000
vt 2.000000 0.000000
vt 2.000000 0.000000
vt 1.000000 0.000000
vt 1.000000 0.000000
vt 1.000000 0.000000
vt 1.000000 0.000000
vt 2.000000 0.000000
vt 1.000000 0.000000
vt 2.000000 0.000000
vt 2.000000 0.000000
vt 2.000000 -0.500000
vt 2.000000 -0.500000
vt 2.000000 -1.000000
vt 2.000000 -1.000000
vt 1.000000 -1.000000
vt 2.000000 -1.000000
vt 2.000000 -1.000000
vt 1.000000 -1.000000
vt 1.000000 3.000000
vt 0.000000 3.000000
vt 1.000000 2.000000
vt 0.000000 2.000000
vt 1.000000 1.500000
vt 0.000000 1.500000
vt -1.000000 -1.000000
vt 0.000000 -1.000000
vt -1.000000 -0.500000
vt 0.000000 -0.500000
vt -1.000000 0.000000
vt 1.000000 -1.000000
vt 2.000000 -0.500000
vt 2.000000 0.000000
vt 1.000000 1.000000
vt 2.000000 -1.000000
vn 0.7456 0.4181 -0.5188
vn 0.7462 0.4033 0.5296
vn 0.6957 0.0243 0.7179
vn -0.0071 -0.0619 0.9980
vn 0.5381 0.4631 0.7042
vn -0.0164 -0.0058 0.9998
vn 0.2368 -0.3008 0.9238
vn -0.0112 -0.1052 0.9944
vn -0.0221 0.1474 0.9888
vn -0.7535 -0.0609 0.6546
vn -0.0179 -0.3006 0.9536
vn -0.7010 -0.5044 0.5040
vn -0.2271 -0.8898 0.3958
vn -0.7039 -0.4848 -0.5190
vn -0.2275 -0.8782 -0.4206
vn -0.0224 -0.4000 -0.9162
vn 0.1664 -0.8951 -0.4136
vn 0.6644 -0.5246 -0.5323
vn 0.1668 -0.9065 0.3878
vn 0.6616 -0.5459 0.5141
vn 0.7552 -0.0949 0.6486
vn -0.8103 -0.1434 -0.5682
vn -0.0338 -0.1831 -0.9825
vn 0.7871 -0.1411 -0.6005
vn -0.0348 -0.1752 -0.9839
vn 0.8024 -0.1287 -0.5828
vn -0.0357 -0.0669 -0.9971
vn 0.8389 -0.0521 -0.5417
vn 0.3927 -0.2079 -0.8958
vn -0.2422 -0.6637 -0.7076
vn -0.2307 -0.6560 0.7186
vn -0.2502 -0.6652 -0.7034
vn 0.1086 -0.7749 -0.6227
vn 0.7175 0.3275 -0.6147
vn 0.7156 -0.6247 -0.3125
vn 0.9194 -0.2459 -0.3070
vn 0.9197 -0.2544 0.2989
vn 0.7183 0.3099 0.6228
vn 0.7159 -0.6332 0.2940
vn 0.1039 -0.7917 0.6019
vn 0.4391 0.5774 -0.6883
vn 0.4421 0.5587 0.7017
vn 0.4411 0.5784 -0.6861
vn 0.5374 0.4827 -0.6915
vn 0.0115 0.2040 -0.9789
vn -0.0088 0.1149 -0.9933
vn -0.8041 0.1846 -0.5651
vn -0.8521 0.0074 -0.5233
vn -0.7875 0.1321 0.6019
vn -0.8349 -0.1209 -0.5370
vn -0.8658 -0.0719 -0.4952
vn -0.7277 -0.0870 0.6803
vn -0.7327 -0.1062 0.6721
vn -0.7457 0.4032 0.5304
vn -0.7337 -0.0870 -0.6738
vn -0.7463 0.4180 -0.5180
vn -0.0080 -0.0336 -0.9994
vn -0.0005 0.5652 -0.8249
vn 0.0003 0.5416 0.8406
vn 0.6950 0.0446 -0.7176
usemtl PMgloves
s 1
f 1/1/1 2/2/2 3/3/3
f 2/2/2 4/4/4 3/3/3
f 3/3/3 4/4/4 5/5/5
f 4/4/4 6/6/6 5/5/5
f 5/5/5 6/6/6 7/7/7
f 6/6/6 8/8/8 7/7/7
f 7/7/7 8/8/8 9/9/9
f 8/8/8 10/10/10 9/9/9
f 9/9/9 10/10/10 11/11/11
f 10/10/10 12/12/12 11/11/11
f 11/11/11 12/12/12 13/13/13
f 12/12/12 14/14/14 13/13/13
f 13/13/13 14/14/14 15/15/15
f 14/14/14 16/16/16 15/15/15
f 15/15/15 16/16/16 17/17/17
f 16/16/16 18/18/18 17/17/17
f 17/17/17 18/18/18 19/19/19
f 18/18/18 20/20/20 19/19/19
f 19/19/19 20/20/20 11/11/11
f 20/20/20 21/21/21 11/11/11
f 11/11/11 21/21/21 9/9/9
f 21/21/21 7/7/7 9/9/9
f 14/14/14 22/22/22 16/16/16
f 22/22/22 23/23/23 16/16/16
f 16/16/16 23/23/23 24/24/24
f 23/23/23 25/25/25 24/24/24
f 24/24/24 25/25/25 26/26/26
f 25/25/25 27/27/27 26/26/26
f 26/26/26 27/27/27 28/28/28
f 27/27/27 29/29/29 28/28/28
f 28/28/28 29/29/29 7/7/7
f 29/29/29 30/30/30 7/7/7
f 7/7/7 30/30/30 31/31/31
f 30/30/30 32/32/32 31/31/31
f 31/31/31 32/32/32 33/33/33
f 32/32/32 34/34/34 33/33/33
f 33/33/33 34/34/34 35/35/35
f 34/34/34 36/36/36 35/35/35
f 35/35/35 36/36/36 37/37/37
f 36/36/36 38/38/38 37/37/37
f 37/37/37 38/38/38 39/39/39
f 38/38/38 40/40/40 39/39/39
f 39/39/39 40/40/40 33/33/33
f 40/40/40 31/31/31 33/33/33
f 36/36/36 34/34/34 38/38/38
f 34/34/34 41/41/41 38/38/38
f 38/38/38 41/41/41 42/42/42
f 41/41/41 43/43/43 42/42/42
f 42/42/42 43/43/43 44/44/44
f 43/43/43 29/29/29 44/44/44
f 44/44/44 29/29/29 45/45/45
f 29/29/29 46/46/46 45/45/45
f 45/45/45 46/46/46 47/47/47
f 46/46/46 48/48/48 47/47/47
f 47/47/47 48/48/48 49/49/49
f 23/23/23 22/22/22 25/25/25
f 22/22/22 50/50/50 25/25/25
f 25/25/25 50/50/50 27/27/27
f 50/50/50 51/51/51 27/27/27
f 27/27/27 51/51/51 48/48/48
f 51/51/51 52/52/52 48/48/48
f 48/48/48 52/52/52 49/49/49
f 52/52/52 6/6/6 49/49/49
f 49/49/49 6/6/6 4/4/4
f 53/53/53 54/54/54 55/55/55
f 54/54/54 56/56/56 55/55/55
f 55/55/55 56/56/56 57/57/57
f 56/56/56 58/58/58 57/57/57
f 57/57/57 58/58/58 1/1/1
f 14/14/14 12/12/12 22/22/22
f 12/12/12 10/10/10 22/22/22
f 22/22/22 10/10/10 50/50/50
f 10/10/10 52/52/52 50/50/50
f 50/50/50 52/52/52 51/51/51
f 56/59/56 54/60/54 58/61/58
f 54/60/54 59/62/59 58/61/58
f 58/61/58 59/62/59 1/63/1
f 59/62/59 2/2/2 1/63/1
f 34/34/34 32/32/32 41/41/41
f 32/32/32 30/30/30 41/41/41
f 41/41/41 30/30/30 43/43/43
f 30/30/30 29/29/29 43/43/43
f 40/40/40 38/38/38 31/31/31
f 38/38/38 42/42/42 31/31/31
f 31/31/31 42/42/42 7/7/7
f 42/42/42 5/5/5 7/7/7
f 2/2/2 59/62/59 4/4/4
f 59/62/59 54/60/54 4/4/4
f 4/4/4 54/60/54 53/64/53
f 20/20/20 24/24/24 21/21/21
f 24/24/24 26/26/26 21/21/21
f 21/21/21 26/26/26 28/28/28
f 57/65/57 60/66/60 44/44/44
f 60/66/60 3/3/3 44/44/44
f 44/44/44 3/3/3 5/5/5
f 57/57/57 1/1/1 60/67/60
f 1/1/1 3/3/3 60/67/60
f 17/17/17 19/19/19 15/15/15
f 19/19/19 13/13/13 15/15/15
f 16/16/16 24/24/24 18/18/18
f 24/24/24 20/20/20 18/18/18
f 10/10/10 8/8/8 52/52/52
f 8/8/8 6/6/6 52/52/52
f 33/33/33 35/35/35 39/39/39
f 35/35/35 37/37/37 39/39/39
f 48/48/48 46/46/46 27/27/27
f 46/46/46 29/29/29 27/27/27
f 4/4/4 53/64/53 49/49/49
f 53/64/53 47/47/47 49/49/49
f 53/64/53 55/68/55 47/47/47
f 55/68/55 45/45/45 47/47/47
f 55/68/55 57/65/57 45/45/45
f 57/65/57 44/44/44 45/45/45
f 13/13/13 19/19/19 11/11/11
f 7/7/7 21/21/21 28/28/28
f 5/5/5 42/42/42 44/44/44
