# Blender v2.79 (sub 0) OBJ File: ''
# www.blender.org
mtllib HeadBody.mtl
v -0.944536 -1.564977 1.548639
v -1.965122 -2.067304 1.125954
v -0.707095 -1.244038 -0.000000
v -2.321376 -2.298198 -0.000000
v -0.944536 -1.564976 -1.548641
v -1.965122 -2.067302 -1.125956
v 0.983677 -4.662668 -0.360235
v 0.983677 -4.662668 0.360232
v 0.868565 -4.965121 -0.267688
v 0.868565 -4.965121 0.267683
v 0.458197 -5.241914 -0.000002
v 0.410513 -5.037652 0.535597
v -0.047557 -5.110409 0.267683
v -0.248572 -4.858225 0.360232
v -0.248572 -4.858223 -0.360235
v 0.410513 -5.037652 -0.535599
v -0.047557 -5.110409 -0.267688
v 0.367438 -4.760440 -0.720469
v 0.367438 -4.760440 0.720464
v 0.160935 -3.458029 -0.588096
v 0.664018 -3.378406 -0.294162
v -0.342159 -3.537877 -0.294162
v -0.342159 -3.537877 0.294160
v 0.160935 -3.458029 0.588092
v 0.664018 -3.378407 0.294160
v 3.412170 -2.583889 0.261801
v 2.749357 -2.577376 1.984902
v 2.084948 -3.489509 -0.000002
v 2.084801 -2.922676 1.933310
v 0.005598 -4.178919 -0.000002
v -0.401423 -3.481201 1.953901
v 2.749357 -2.577374 -1.984905
v 3.412170 -2.583889 -0.261805
v 2.084801 -2.922675 -1.933314
v -0.443941 -3.487974 -1.955714
v 4.299686 -1.588397 1.325530
v 4.299686 -1.588397 -1.325534
v -2.251266 -2.309849 2.069756
v -2.875471 -2.681490 -0.000000
v -0.000313 -2.133523 3.612061
v 0.359962 -0.366834 -0.000000
v -0.768150 -3.536898 2.041245
v -1.066840 -4.188649 -0.000002
v -0.768152 -3.536898 -2.041247
v -0.000315 -2.133520 -3.612062
v -2.251267 -2.309847 -2.069758
v -0.755295 -4.223343 -0.000002
v -2.734618 -2.414651 1.474647
v -2.991904 -2.579923 -0.000000
v -2.734618 -2.414651 -1.474648
v 3.552733 -0.460389 1.430070
v 4.170338 0.014945 -0.000001
v 3.611477 1.369897 1.284348
v 3.611570 2.100028 0.000000
v 2.084961 3.142912 1.805918
v 2.085070 3.626715 0.000001
v -0.000325 3.626810 2.085371
v -0.000324 4.185610 0.000001
v -2.085721 3.626906 0.000002
v -0.000326 3.626812 -2.085368
v -2.085704 3.142914 -1.805917
v -0.000420 2.100217 -3.612061
v -2.085721 1.820974 -3.128053
v 2.085069 1.820782 3.128055
v -0.000419 2.100214 3.612062
v -2.085704 3.142913 1.805919
v -3.612284 2.100215 0.000002
v -3.612192 1.820878 -1.042684
v -3.612394 1.057613 -1.805917
v -0.000324 0.014944 4.170739
v -2.085720 1.820972 3.128055
v -2.085719 0.015040 3.612062
v -3.612393 1.057612 1.805918
v -3.612190 0.014944 2.085370
v -4.170990 0.014947 0.000000
v -3.612212 -1.027835 1.805917
v -3.612250 -1.791079 1.042684
v -1.997008 -1.952998 2.664865
v 3.552733 -0.460387 -1.430073
v 3.611477 1.369897 -1.284349
v 2.085069 1.820784 -3.128055
v 2.084961 3.142913 -1.805917
v -1.997008 -1.952996 -2.664865
v -3.612250 -1.791079 -1.042685
v -3.612212 -1.027834 -1.805917
v -3.612190 0.014946 -2.085369
v -2.085720 0.015043 -3.612062
v 2.084884 -1.791208 3.128053
v 2.085069 0.014849 3.612060
v 2.085069 0.014852 -3.612062
v -0.000325 0.014947 -4.170739
v 2.084884 -1.791206 -3.128056
v -3.612190 1.820877 1.042686
v -3.612146 -2.070494 -0.000000
vt 0.785156 -0.648438
vt 0.750000 -0.718750
vt 0.726563 -0.664063
vt 0.683594 -0.726563
vt 0.785156 -0.648438
vt 0.750000 -0.718750
vt 0.785156 -0.707031
vt 0.667969 -0.750000
vt 0.832031 -0.500000
vt 0.753906 -0.621094
vt 0.750000 -0.527344
vt 0.667969 -0.582031
vt 0.750000 -0.527344
vt 0.832031 -0.500000
vt 0.785156 -0.707031
vt 0.000000 -0.500000
vt 0.167969 -0.500000
vt 0.000000 -0.332031
vt 0.167969 -0.332031
vt 0.500000 0.000000
vt 0.332031 -0.332031
vt 0.500000 -0.332031
vt 0.500000 -0.500000
vt 0.667969 -0.500000
vt 1.000000 -0.332031
vt 0.832031 -0.332031
vt 0.667969 -0.332031
vt 0.832031 -0.500000
vt 0.332031 -0.500000
vt 1.000000 0.000000
vt 0.000000 0.000000
vt 1.000000 -1.000000
vt 0.000000 -1.000000
vt 1.000000 0.000000
vt 0.000000 0.000000
vt 1.000000 -1.000000
vt 0.000000 -1.000000
vt 1.000000 0.000000
vt 0.000000 0.000000
vt 1.000000 -1.000000
vt 0.000000 -1.000000
vt 1.000000 0.000000
vt 0.000000 0.000000
vt 1.000000 -1.000000
vt 0.000000 -1.000000
vt 1.000000 0.000000
vt 0.000000 0.000000
vt 1.000000 -1.000000
vt 0.000000 -1.000000
vt 1.000000 0.000000
vt 0.000000 0.000000
vt 1.000000 -1.000000
vt 0.000000 -1.000000
vt 1.000000 -0.500000
vt 0.734375 -0.523438
vt 0.667969 -0.570313
vt 0.734375 -0.523438
vt 0.750000 -0.750000
vt 0.667969 -0.750000
vt 0.750000 -0.750000
vt 0.796875 -0.179688
vt 0.707031 -0.167969
vt 0.917969 -0.167969
vt 0.500000 0.000000
vt 0.082031 -0.167969
vt 0.167969 -0.167969
vt 0.082031 -0.332031
vt 0.167969 -0.332031
vt 0.082031 -0.500000
vt 0.167969 -0.500000
vt 0.167969 -0.667969
vt 0.082031 -0.500000
vt 0.082031 -0.667969
vt 0.000000 -0.500000
vt 0.000000 -0.667969
vt 0.000000 -0.332031
vt 0.000000 -0.500000
vt 0.082031 -0.667969
vt 0.167969 -0.832031
vt 0.082031 -0.832031
vt 0.000000 -0.832031
vt 1.000000 -0.332031
vt 1.000000 -0.500000
vt 0.917969 -0.500000
vt 1.000000 -0.667969
vt 0.917969 -0.667969
vt 1.000000 -0.832031
vt 0.917969 -0.832031
vt 0.500000 -1.000000
vt 0.832031 -0.832031
vt 0.750000 -0.832031
vt 0.820313 -0.667969
vt 0.707031 -0.167969
vt 0.917969 -0.167969
vt 0.082031 -0.167969
vt 0.000000 -0.332031
vt 0.082031 -0.332031
vt 0.820313 -0.667969
vt 0.750000 -0.832031
vt 0.832031 -0.832031
vt 0.917969 -0.832031
vt 1.000000 -0.832031
vt 0.917969 -0.667969
vt 0.753906 -0.507813
vt 0.832031 -0.332031
vt 0.917969 -0.332031
vt 0.796875 -0.179688
vt 0.808594 -0.250000
vt 0.917969 -0.332031
vt 1.000000 -0.332031
vt 0.917969 -0.500000
vt 1.000000 -0.500000
vt 1.000000 -0.667969
vt 0.753906 -0.511719
vt 0.832031 -0.332031
vt 0.750000 -0.332031
vt 0.750000 -0.332031
vt 0.808594 -0.250000
vt 0.000000 -0.667969
vt 0.082031 -0.832031
vt 0.000000 -0.832031
vt 0.667969 -0.832031
vt 0.667969 -0.500000
vt 0.250000 0.000000
vt 0.250000 0.000000
vt 0.000000 -0.421875
vt 0.076172 -0.225586
vt 0.923828 -0.369141
vt 0.041016 -0.494141
vt 0.908203 -0.504883
vt 0.064453 -0.878906
vt 0.859375 -0.980469
vt 0.923828 -0.369141
vt 0.076172 -0.225586
vt 0.908203 -0.504883
vt 0.859375 -0.984375
vt 0.517578 -0.035156
vt 0.517578 -0.035156
vn 0.4150 -0.8706 -0.2642
vn 0.5303 -0.8464 -0.0495
vn 0.5914 -0.8063 0.0069
vn 0.5524 -0.8335 0.0074
vn 0.4247 -0.8698 0.2510
vn 0.4981 -0.8670 0.0132
vn -0.1419 -0.9373 0.3183
vn -0.1332 -0.9901 -0.0430
vn -0.1084 -0.6308 0.7683
vn -0.5540 -0.8325 0.0000
vn -0.6816 -0.5273 0.5072
vn -0.8056 -0.5921 -0.0183
vn -0.6784 -0.5439 -0.4939
vn -0.1081 -0.6316 -0.7677
vn -0.1435 -0.9381 -0.3152
vn 0.8690 -0.0831 -0.4878
vn 0.8690 -0.0831 0.4878
vn 0.6985 -0.6284 -0.3422
vn 0.6985 -0.6284 0.3423
vn 0.1678 -0.9858 0.0000
vn 0.1131 -0.7226 0.6819
vn -0.4678 -0.8160 0.3395
vn -0.8010 -0.3463 0.4882
vn -0.8010 -0.3463 -0.4883
vn 0.1131 -0.7226 -0.6819
vn -0.4678 -0.8160 -0.3395
vn 0.0342 -0.2147 -0.9761
vn 0.0343 -0.2147 0.9760
vn -0.0157 0.0985 -0.9950
vn 0.8354 0.2336 -0.4976
vn -0.8666 -0.0365 -0.4976
vn -0.8666 -0.0364 0.4975
vn -0.0156 0.0986 0.9950
vn 0.8354 0.2335 0.4976
vn 0.2254 -0.8679 -0.4426
vn -0.0248 -0.9996 -0.0132
vn 0.2183 -0.8596 0.4618
vn -0.4102 -0.8318 0.3739
vn -0.6298 -0.7762 -0.0265
vn -0.3610 -0.8665 -0.3448
vn 0.9903 0.0492 0.1298
vn 0.7818 -0.6211 0.0549
vn 0.8775 -0.0017 0.4795
vn 0.9994 -0.0338 0.0000
vn 0.8668 0.2682 0.4204
vn 0.8575 0.5145 0.0000
vn 0.4974 0.7486 0.4382
vn 0.4824 0.8759 0.0000
vn 0.0000 0.8660 0.5000
vn 0.0000 1.0000 0.0000
vn -0.4823 0.8760 0.0000
vn 0.0000 0.8660 -0.5000
vn -0.4823 0.7586 -0.4380
vn 0.0000 0.5000 -0.8660
vn -0.4823 0.4380 -0.7586
vn 0.5329 0.4051 0.7429
vn 0.0000 0.5000 0.8660
vn -0.4823 0.7586 0.4380
vn -0.8474 0.5308 0.0000
vn -0.8474 0.4598 -0.2654
vn -0.8475 0.2654 -0.4597
vn 0.0008 0.0027 1.0000
vn -0.4823 0.4380 0.7586
vn -0.5011 -0.0581 0.8634
vn -0.8475 0.2654 0.4597
vn -0.8344 -0.0310 0.5503
vn -1.0000 0.0000 0.0000
vn -0.8012 -0.2845 0.5264
vn -0.8210 -0.4928 0.2883
vn -0.4895 -0.5422 0.6829
vn 0.7777 -0.6257 -0.0603
vn 0.8775 -0.0017 -0.4795
vn 0.8668 0.2682 -0.4204
vn 0.5329 0.4051 -0.7429
vn 0.4974 0.7486 -0.4382
vn -0.4895 -0.5422 -0.6829
vn -0.8210 -0.4928 -0.2883
vn -0.8012 -0.2845 -0.5264
vn -0.8344 -0.0310 -0.5503
vn -0.5011 -0.0581 -0.8634
vn 0.5000 -0.4151 0.7601
vn 0.5562 0.0066 0.8310
vn 0.9903 0.0492 -0.1298
vn 0.5721 -0.6304 -0.5246
vn 0.5562 0.0066 -0.8310
vn 0.0008 0.0027 -1.0000
vn 0.4998 -0.4152 -0.7601
vn 0.3044 -0.8360 -0.4564
vn 0.2997 -0.8258 0.4777
vn 0.5756 -0.6150 0.5389
vn -0.8474 0.4598 0.2654
vn -0.8192 -0.5735 0.0000
vn 0.1848 -0.9826 -0.0146
vn 0.4023 -0.9153 -0.0197
usemtl PMgloves
s 1
f 1/1/1 2/2/2 3/3/3
f 2/2/2 4/4/4 3/3/3
f 3/3/3 4/4/4 5/5/5
f 4/4/4 6/6/6 5/5/5
usemtl PMblack
f 1/1/1 38/7/7 2/2/2
f 38/7/7 39/8/8 2/2/2
f 2/2/2 39/8/8 4/4/4
f 39/8/8 6/6/6 4/4/4
f 40/9/9 41/10/10 42/11/11
f 41/10/10 43/12/12 42/11/11
f 43/12/12 41/10/10 44/13/13
f 41/10/10 45/14/14 44/13/13
f 1/1/1 3/3/3 41/10/10
f 3/3/3 5/5/5 41/10/10
f 5/5/5 6/6/6 46/15/15
f 6/6/6 39/8/8 46/15/15
f 40/9/9 38/7/7 1/1/1
f 40/9/9 1/1/1 41/10/10
f 45/14/14 41/10/10 5/5/5
f 45/14/14 5/5/5 46/15/15
usemtl PMbody
f 7/16/16 8/17/17 9/18/18
f 8/17/17 10/19/19 9/18/18
f 9/18/18 10/19/19 11/20/20
f 10/19/19 12/21/21 11/20/20
f 11/20/20 12/21/21 13/22/22
f 12/21/21 14/23/23 13/22/22
f 13/22/22 14/23/23 15/24/24
f 9/25/18 11/20/20 16/26/25
f 11/20/20 17/27/26 16/26/25
f 16/26/25 17/27/26 18/28/27
f 17/27/26 15/24/24 18/28/27
f 14/23/23 12/21/21 19/29/28
f 12/21/21 10/19/19 19/29/28
f 19/29/28 10/19/19 8/17/17
f 20/30/29 21/31/30 18/32/27
f 21/31/30 7/33/16 18/32/27
f 22/34/31 20/35/29 15/36/24
f 20/35/29 18/37/27 15/36/24
f 23/38/32 22/39/31 14/40/23
f 22/39/31 15/41/24 14/40/23
f 24/42/33 23/43/32 19/44/28
f 23/43/32 14/45/23 19/44/28
f 25/46/34 24/47/33 8/48/17
f 24/47/33 19/49/28 8/48/17
f 21/50/30 25/51/34 7/52/16
f 25/51/34 8/53/17 7/52/16
f 11/20/20 13/22/22 17/27/26
f 13/22/22 15/24/24 17/27/26
f 9/25/18 16/26/25 7/54/16
f 16/26/25 18/28/27 7/54/16
f 44/13/13 35/55/35 43/12/12
f 35/55/35 47/56/36 43/12/12
f 43/12/12 47/56/36 42/11/11
f 47/56/36 31/57/37 42/11/11
f 38/7/7 48/58/38 39/8/8
f 48/58/38 49/59/39 39/8/8
f 39/8/8 49/59/39 46/15/15
f 49/59/39 50/60/40 46/15/15
f 36/61/41 26/62/42 51/63/43
f 26/62/42 52/64/44 51/63/43
f 51/63/43 52/64/44 53/65/45
f 52/64/44 54/66/46 53/65/45
f 53/65/45 54/66/46 55/67/47
f 54/66/46 56/68/48 55/67/47
f 55/67/47 56/68/48 57/69/49
f 56/68/48 58/70/50 57/69/49
f 57/69/49 58/70/50 59/71/51
f 58/70/50 60/72/52 59/71/51
f 59/71/51 60/72/52 61/73/53
f 60/72/52 62/74/54 61/73/53
f 61/73/53 62/74/54 63/75/55
f 51/63/43 53/65/45 64/76/56
f 53/65/45 55/67/47 64/76/56
f 64/76/56 55/67/47 65/77/57
f 55/67/47 57/69/49 65/77/57
f 65/77/57 57/69/49 66/78/58
f 57/69/49 59/71/51 66/78/58
f 66/78/58 59/71/51 67/79/59
f 59/71/51 61/73/53 67/79/59
f 67/79/59 61/73/53 68/80/60
f 61/73/53 63/75/55 68/80/60
f 68/80/60 63/75/55 69/81/61
f 64/82/56 65/83/57 70/84/62
f 65/83/57 71/85/63 70/84/62
f 70/84/62 71/85/63 72/86/64
f 71/85/63 73/87/65 72/86/64
f 72/86/64 73/87/65 74/88/66
f 73/87/65 75/89/67 74/88/66
f 74/88/66 75/89/67 76/90/68
f 75/89/67 77/91/69 76/90/68
f 76/90/68 77/91/69 78/92/70
f 77/91/69 48/58/38 78/92/70
f 78/92/70 48/58/38 38/7/7
f 26/62/42 33/93/71 52/64/44
f 33/93/71 79/94/72 52/64/44
f 52/64/44 79/94/72 80/95/73
f 79/94/72 81/96/74 80/95/73
f 80/95/73 81/96/74 82/97/75
f 81/96/74 62/74/54 82/97/75
f 82/97/75 62/74/54 60/72/52
f 46/15/15 50/60/40 83/98/76
f 50/60/40 84/99/77 83/98/76
f 83/98/76 84/99/77 85/100/78
f 84/99/77 75/89/67 85/100/78
f 85/100/78 75/89/67 86/101/79
f 75/89/67 69/102/61 86/101/79
f 86/101/79 69/102/61 87/103/80
f 42/11/11 31/104/37 40/9/9
f 31/104/37 88/105/81 40/9/9
f 40/9/9 88/105/81 70/84/62
f 88/105/81 89/106/82 70/84/62
f 70/84/62 89/106/82 64/82/56
f 89/106/82 51/63/43 64/82/56
f 37/107/83 32/108/84 79/94/72
f 32/108/84 90/109/85 79/94/72
f 79/94/72 90/109/85 81/110/74
f 90/109/85 91/111/86 81/110/74
f 81/110/74 91/111/86 62/112/54
f 91/111/86 63/113/55 62/112/54
f 52/64/44 80/95/73 54/66/46
f 80/95/73 82/97/75 54/66/46
f 54/66/46 82/97/75 56/68/48
f 82/97/75 60/72/52 56/68/48
f 56/68/48 60/72/52 58/70/50
f 44/13/13 45/14/14 35/114/35
f 45/14/14 92/115/87 35/114/35
f 35/114/35 92/115/87 34/116/88
f 92/115/87 32/108/84 34/116/88
f 31/104/37 29/117/89 88/105/81
f 29/117/89 27/118/90 88/105/81
f 88/105/81 27/118/90 89/106/82
f 27/118/90 51/63/43 89/106/82
f 65/77/57 66/78/58 71/119/63
f 66/78/58 93/120/91 71/119/63
f 71/119/63 93/120/91 73/121/65
f 93/120/91 75/89/67 73/121/65
f 92/115/87 45/14/14 91/111/86
f 45/14/14 87/103/80 91/111/86
f 91/111/86 87/103/80 63/113/55
f 87/103/80 69/102/61 63/113/55
f 38/7/7 40/9/9 78/92/70
f 40/9/9 72/86/64 78/92/70
f 78/92/70 72/86/64 74/88/66
f 48/58/38 77/91/69 94/122/92
f 77/91/69 75/89/67 94/122/92
f 94/122/92 75/89/67 84/99/77
f 31/57/37 47/56/36 30/123/93
f 47/56/36 35/55/35 30/123/93
f 69/81/61 75/89/67 68/80/60
f 75/89/67 67/79/59 68/80/60
f 66/78/58 67/79/59 93/120/91
f 67/79/59 75/89/67 93/120/91
f 32/108/84 92/115/87 90/109/85
f 92/115/87 91/111/86 90/109/85
f 46/15/15 83/98/76 45/14/14
f 83/98/76 87/103/80 45/14/14
f 85/100/78 86/101/79 83/98/76
f 86/101/79 87/103/80 83/98/76
f 48/58/38 94/122/92 49/59/39
f 94/122/92 50/60/40 49/59/39
f 36/61/41 51/63/43 27/118/90
f 33/124/71 26/125/42 28/126/94
f 70/84/62 72/86/64 40/9/9
f 74/88/66 76/90/68 78/92/70
f 37/107/83 79/94/72 33/93/71
f 94/122/92 84/99/77 50/60/40
usemtl PMeyes
f 26/127/42 27/128/90 28/129/94
f 27/128/90 29/130/89 28/129/94
f 28/129/94 29/130/89 30/131/93
f 29/130/89 31/132/37 30/131/93
f 32/133/84 33/134/71 34/135/88
f 33/134/71 28/129/94 34/135/88
f 34/135/88 28/129/94 35/136/35
f 28/129/94 30/131/93 35/136/35
f 36/137/41 27/128/90 26/127/42
f 37/138/83 33/134/71 32/133/84
