# Blender v2.79 (sub 0) OBJ File: ''
# www.blender.org
mtllib Limb.mtl
v -0.603912 -0.797894 -0.000242
v -0.603912 -0.550451 -0.000189
v -0.302738 -0.828239 0.521583
v -0.302738 -0.520144 0.521572
v 0.299612 -0.828239 0.521583
v 0.299612 -0.520144 0.521572
v 0.601012 -0.797894 -0.000242
v 0.601012 -0.550451 -0.000189
v 0.299612 -0.937812 -0.521987
v -0.302738 -1.347646 -0.522067
v 0.299838 -1.347646 -0.522067
v -0.302738 -0.937812 -0.521987
v 0.299612 -0.410584 -0.522076
v 0.299612 -0.000749 -0.522002
v 0.601012 -0.000750 -0.000234
v -0.603912 -1.347637 -0.000220
v -0.302738 -1.347585 0.521415
v 0.299612 -1.347585 0.521415
v 0.601012 -1.347637 -0.000220
v -0.302738 -0.410584 -0.522076
v -0.302738 -0.000749 -0.522002
v -0.603912 -0.000750 -0.000234
v -0.302738 -0.000750 0.521533
v 0.299612 -0.000750 0.521533
vt 0.585938 -0.695313
vt 0.468750 -0.695313
vt 0.585938 -0.304688
vt 0.468750 -0.304688
vt 0.351563 -0.695313
vt 0.351563 -0.304688
vt 0.234375 -0.695313
vt 0.234375 -0.304688
vt 0.117188 -0.695313
vt 0.000000 -0.886719
vt 0.000000 -0.695313
vt 0.117188 -0.886719
vt 0.117188 -0.304688
vt 0.117188 -0.113281
vt 0.234375 -0.113281
vt 0.703125 -0.886719
vt 0.585938 -0.886719
vt 0.468750 -0.886719
vt 0.351563 -0.886719
vt 0.234375 -0.886719
vt 0.703125 -0.695313
vt 0.703125 -0.304688
vt 0.703125 -0.113281
vt 0.585938 -0.113281
vt 0.000000 -0.113281
vt 0.000000 -0.304688
vt 0.468750 -0.113281
vt 0.351563 -0.113281
vn -1.0000 0.0000 -0.0000
vn -0.5000 -0.0001 0.8660
vn -1.0000 0.0000 0.0001
vn -0.5000 0.0000 0.8660
vn 0.4999 -0.0001 0.8661
vn 0.4999 0.0000 0.8661
vn 1.0000 0.0001 0.0000
vn 1.0000 0.0000 0.0001
vn 0.4998 0.0002 -0.8661
vn -0.5000 0.0001 -0.8660
vn -0.5000 0.0000 -0.8660
vn 0.5000 0.0003 -0.8660
vn 0.4999 0.0000 -0.8661
vn 0.5000 0.0001 -0.8660
vn 1.0000 0.0000 0.0000
vn -0.5000 -0.0003 0.8660
vn 0.4999 -0.0003 0.8661
vn 1.0000 -0.0000 0.0002
vn -0.5001 0.0001 -0.8660
vn -0.5000 0.0001 0.8660
vn 0.4999 0.0001 0.8661
usemtl PMbody
s 1
f 1/1/1 3/2/2 2/3/3
f 2/3/3 3/2/2 4/4/4
f 3/2/2 5/5/5 4/4/4
f 4/4/4 5/5/5 6/6/6
f 5/5/5 7/7/7 6/6/6
f 6/6/6 7/7/7 8/8/8
f 7/7/7 9/9/9 8/8/8
f 10/10/10 12/11/11 11/12/12
f 11/12/12 12/11/11 9/9/9
f 12/11/11 13/13/13 9/9/9
f 9/9/9 13/13/13 8/8/8
f 13/13/13 14/14/14 8/8/8
f 8/8/8 14/14/14 15/15/15
f 10/16/10 16/17/1 1/1/1
f 1/1/1 16/17/1 3/2/2
f 16/17/1 17/18/16 3/2/2
f 3/2/2 17/18/16 5/5/5
f 17/18/16 18/19/17 5/5/5
f 5/5/5 18/19/17 19/20/18
f 10/16/10 1/1/1 12/21/11
f 12/21/11 1/1/1 20/22/11
f 1/1/1 2/3/3 20/22/11
f 20/22/11 2/3/3 21/23/19
f 2/3/3 22/24/1 21/23/19
f 14/14/14 13/13/13 21/25/19
f 21/25/19 13/13/13 20/26/11
f 13/13/13 12/11/11 20/26/11
f 2/3/3 4/4/4 22/24/1
f 22/24/1 4/4/4 23/27/20
f 4/4/4 24/28/21 23/27/20
f 4/4/4 6/6/6 24/28/21
f 24/28/21 6/6/6 15/15/15
f 6/6/6 8/8/8 15/15/15
f 5/5/5 19/20/18 7/7/7
f 7/7/7 19/20/18 11/12/12
f 9/9/9 7/7/7 11/12/12
