# Blender v2.79 (sub 0) OBJ File: ''
# www.blender.org
mtllib Water.mtl
v -33.660500 153.147537 -820.000000
v -131.492981 153.147644 -990.000000
v -97.399506 153.147537 -820.000000
v -30.588501 153.147598 -965.212952
v -24.550900 153.147537 -820.000000
v 28.221901 153.147537 -820.000000
v -18.811800 153.147537 -810.000000
v 22.959700 153.147537 -810.000000
v -223.736969 285.000702 -1105.319702
v -254.261993 285.000763 -1206.669800
v -312.252991 285.000763 -1206.079712
v -142.669998 285.000702 -1110.099731
v -202.720001 285.000702 -1096.839722
v -166.777008 285.000702 -1098.449829
v -179.982986 225.000687 -1009.999939
v -131.748001 225.000702 -1090.000000
v -236.084976 225.000702 -1085.349976
v -82.309196 225.000702 -1078.630005
v -131.492981 225.000687 -1009.999939
v -30.588501 225.000626 -985.212891
v -174.265991 285.000763 -1207.479736
v -137.471985 285.000763 -1207.859863
v -175.282990 285.000854 -1307.479980
v -255.279007 285.000854 -1306.660034
v 41.641201 225.000626 -985.212891
v -18.691601 225.000610 -975.212891
v 29.744301 225.000610 -975.212891
v -248.765991 225.000687 -1021.389954
v -292.585999 225.000687 -1054.640015
v -123.352005 285.000763 -1156.889771
v -85.053299 285.000702 -1099.779785
v -282.035980 285.000763 -1122.699707
v -304.223999 285.000763 -1164.469727
v 7.911410 225.000687 -1061.910034
v 140.651001 225.000687 -1003.059998
v -129.268982 153.147537 -845.755920
v -142.100998 153.147552 -882.862000
v 88.708801 225.000702 -1090.000000
v 123.758995 225.000687 -1054.760010
v 41.641201 153.147598 -965.212952
v 37.331501 153.147537 -820.000000
v 148.841995 153.147629 -983.060913
v 97.284103 153.147537 -838.750977
v 122.068985 153.147552 -864.480957
v 134.328003 153.147568 -904.980957
v 0.030840 37.796474 210.000000
v 44.897900 37.796444 229.248993
v 45.000000 37.796474 210.000000
v 19.389500 37.796440 255.000000
v -17.964100 37.796440 255.000000
v -45.030399 37.796444 227.886978
v -45.000000 37.796474 210.000000
v 280.148987 37.923206 -340.842957
v 296.429993 37.923199 -300.000000
v 296.429993 37.923206 -340.814972
v 255.472992 37.923203 -316.208984
v 255.472992 37.923187 -282.493988
v 278.910004 37.923161 -259.277985
v 296.429993 37.923161 -259.184967
v -17.884701 0.044950 -798.292908
v -23.580898 29.012121 -798.278931
v -29.027100 0.062630 -798.641968
v -11.984800 33.348522 -799.068970
v 6.503660 33.167419 -798.247986
v 12.143400 -0.050830 -797.186951
v 34.742500 -0.131714 -770.782959
v 35.215900 0.000520 -797.419983
v 17.357300 -0.194296 -761.220032
v -23.354900 0.097934 -762.680969
v -35.001801 0.175877 -777.888916
v 21.600399 29.095619 -798.480957
v -18.465599 153.395538 -801.593994
v 22.959700 153.147537 -810.000000
v -18.811800 153.147537 -810.000000
v 22.668701 153.395538 -801.593994
v -20.651600 149.251511 -795.500977
v 23.022999 149.251511 -795.500977
v -6.369120 132.344513 -794.421021
v 8.189079 132.344513 -794.421021
v 0.909980 94.997932 -790.735962
v 11.828600 94.997932 -791.978027
v 11.828600 0.000519 -791.978027
v 22.747299 0.000520 -795.688965
v 0.770130 32.799957 216.686981
v -3.372750 27.486753 216.686981
v 1.743440 27.486753 216.686981
v -2.399440 32.799957 216.686981
v 0.466700 40.416077 216.046997
v -2.023710 40.416077 216.046997
v 0.466700 44.896873 215.403000
v -2.023710 44.896873 215.403000
v 0.466700 48.351974 212.635986
v -2.023690 48.351974 212.635986
v -202.301971 285.280701 -1088.939819
v -166.777008 285.000702 -1098.449829
v -202.720001 285.000702 -1096.839722
v -167.022995 285.259674 -1089.639771
v -202.453995 282.824707 -1083.509766
v -167.193985 282.824707 -1083.509766
v -190.700989 263.808685 -1082.469727
v -178.947998 263.808685 -1082.469727
v -184.823990 216.828705 -1078.780029
v -176.008987 216.828705 -1080.030029
v -19.329399 223.600601 -959.112854
v 29.349300 225.294586 -965.229919
v -19.086601 225.294586 -965.229919
v 29.106501 223.600601 -959.112854
v -4.170080 203.842606 -958.057922
v 12.468200 203.842606 -958.057922
v 4.149070 147.844604 -954.371948
v 16.627800 147.844604 -955.613953
v 22.747299 132.344513 -795.662964
v 22.747299 94.997932 -795.662964
v 0.909980 0.000519 -790.735962
v -10.008699 94.997932 -791.978027
v -20.927299 94.997932 -795.688965
v 29.106501 203.842606 -959.298950
v 29.106501 147.844604 -959.299011
v -167.193985 263.808685 -1083.709839
v -167.193985 216.828705 -1083.709961
v -10.008699 0.000519 -791.978027
v -19.329399 203.842606 -959.298950
v -19.329399 147.844604 -959.324951
v -8.329660 147.844604 -955.613953
v -18.691601 225.000610 -975.212891
v 29.744301 225.000610 -975.212891
v -20.927299 132.344513 -795.662964
v -202.453995 263.808685 -1083.709839
v -202.453995 216.828705 -1083.739990
v -193.638992 216.828705 -1080.030029
v -20.927299 0.000520 -795.688965
vt 0.464844 0.296875
vt 0.367188 0.066406
vt 0.402344 0.296875
vt 0.468750 0.101563
vt 0.472656 0.296875
vt 0.527344 0.296875
vt 0.480469 0.312500
vt 0.519531 0.312500
vt 0.273438 -0.089844
vt 0.242188 -0.230469
vt 0.187500 -0.230469
vt 0.355469 -0.097656
vt 0.296875 -0.078125
vt 0.332031 -0.082031
vt 0.316406 0.039062
vt 0.367188 -0.070312
vt 0.261719 -0.062500
vt 0.414063 -0.054688
vt 0.367188 0.039062
vt 0.468750 0.074219
vt 0.324219 -0.230469
vt 0.359375 -0.230469
vt 0.324219 -0.367188
vt 0.242188 -0.367188
vt 0.539063 0.074219
vt 0.480469 0.085938
vt 0.527344 0.085938
vt 0.250000 0.023438
vt 0.207031 -0.023438
vt 0.375000 -0.160156
vt 0.414063 -0.085938
vt 0.214844 -0.117188
vt 0.195313 -0.171875
vt 0.507813 -0.031250
vt 0.640625 0.046875
vt 0.367188 0.261719
vt 0.355469 0.210938
vt 0.585938 -0.070312
vt 0.621094 -0.023438
vt 0.539063 0.101563
vt 0.535156 0.296875
vt 0.648438 0.074219
vt 0.593750 0.273438
vt 0.621094 0.238281
vt 0.632813 0.183594
vt 0.828125 -0.171875
vt 0.730469 0.031250
vt 0.925781 0.031250
vt 0.925781 0.031250
vt 0.730469 0.031250
vt 0.925781 0.031250
vt 0.730469 0.031250
vt 0.925781 0.031250
vt 0.828125 -0.171875
vt 0.730469 0.031250
vt 0.730469 0.031250
vt 0.925781 0.031250
vt 0.730469 0.031250
vt 0.925781 0.031250
vt 0.113281 0.621094
vt -0.011719 0.976563
vt -0.074219 0.351563
vt 0.187500 1.019530
vt 0.507813 1.019530
vt 0.644531 0.621094
vt 1.027340 0.113281
vt 1.242190 0.320313
vt 0.656250 0.203125
vt 0.019531 0.183594
vt 0.367188 0.222656
vt 0.769531 0.976563
vt 0.000000 1.695310
vt 0.992188 1.832030
vt 0.000000 1.832030
vt 0.992188 1.695310
vt 0.000000 1.589840
vt 0.992188 1.589840
vt 0.332031 1.398440
vt 0.660156 1.398440
vt 0.496094 1.160160
vt 0.746094 1.160160
vt 0.746094 0.542969
vt 0.992188 0.542969
vt 0.296875 0.058594
vt -0.070312 -0.011719
vt 0.398438 -0.011719
vt 0.000000 0.058594
vt 0.296875 0.328125
vt 0.000000 0.328125
vt 0.296875 0.546875
vt 0.000000 0.546875
vt 0.296875 0.847656
vt 0.000000 0.847656
vt 0.000000 1.738280
vt 0.992188 1.839840
vt 0.000000 1.851560
vt 0.992188 1.738280
vt 0.000000 1.652340
vt 0.992188 1.652340
vt 0.332031 1.398440
vt 0.660156 1.398440
vt 0.496094 1.160160
vt 0.746094 1.160160
vt 0.000000 1.652340
vt 0.992188 1.738280
vt 0.000000 1.738280
vt 0.992188 1.652340
vt 0.332031 1.398440
vt 0.660156 1.398440
vt 0.496094 1.160160
vt 0.746094 1.160160
vt 0.992188 1.398440
vt 0.992188 1.160160
vt 0.496094 0.542969
vt 0.246094 1.160160
vt 0.000000 1.160160
vt 0.992188 1.398440
vt 0.992188 1.160160
vt 0.992188 1.398440
vt 0.992188 1.160160
vt 0.246094 0.542969
vt 0.000000 1.398440
vt 0.000000 1.160160
vt 0.246094 1.160160
vt 0.000000 2.000000
vt 0.992188 2.000000
vt 0.000000 1.398440
vt 0.000000 1.398440
vt 0.000000 1.160160
vt 0.246094 1.160160
vt 0.000000 0.542969
vn 0.0000 1.0000 0.0000
vn -0.0142 0.7109 0.7032
vn 0.0465 0.0087 0.9989
vn -0.0177 0.7960 0.6051
vn -0.0038 0.0240 0.9997
vn -0.0147 0.0316 0.9994
vn -0.0044 0.7237 0.6901
vn -0.0016 1.0000 0.0044
vn 0.0041 0.8120 0.5836
vn 0.0032 1.0000 0.0035
vn 0.0060 1.0000 0.0006
vn 0.0062 1.0000 -0.0012
vn 0.0202 0.0378 0.9991
vn 0.0000 0.9533 0.3022
vn 0.0000 0.9996 -0.0295
vn 0.0000 0.9596 0.2814
vn -0.0239 0.4334 0.9009
vn 0.0219 0.4763 0.8790
vn -0.0481 0.0512 0.9975
vn 0.0477 0.0512 0.9976
vn 0.0000 0.0394 0.9992
vn 0.2201 0.0424 0.9746
vn 0.2187 0.0000 0.9758
vn 0.3216 -0.0000 0.9469
vn 0.0000 0.0391 0.9992
vn 0.0000 0.0000 1.0000
vn 0.0000 0.0390 0.9992
vn 0.0000 0.1127 0.9936
vn 0.0000 0.1126 0.9936
vn 0.0000 0.3977 0.9175
vn 0.0000 0.6251 0.7805
vn 0.0038 0.9808 0.1948
vn -0.0002 0.9995 -0.0303
vn -0.0016 0.9994 -0.0353
vn 0.0005 0.9855 0.1700
vn -0.0176 0.5534 0.8328
vn 0.0220 0.5790 0.8150
vn -0.0556 0.0388 0.9977
vn 0.0555 0.0389 0.9977
vn 0.0000 0.0621 0.9981
vn 0.2680 0.0667 0.9611
vn -0.0215 0.6089 0.7929
vn 0.0000 0.9932 0.1164
vn 0.0000 0.9923 0.1238
vn 0.0204 0.6224 0.7824
vn -0.0426 0.0362 0.9984
vn 0.0391 0.0369 0.9986
vn 0.0000 0.0524 0.9986
vn 0.1954 0.0572 0.9791
vn 0.0850 -0.0055 0.9964
vn 0.2926 0.0356 0.9556
vn -0.2211 0.0425 0.9743
vn -0.2945 0.0357 0.9550
vn 0.0744 -0.0047 0.9972
vn 0.2453 0.0514 0.9681
vn 0.1049 -0.0052 0.9945
vn 0.3427 0.0610 0.9375
vn -0.2187 0.0000 0.9758
vn -0.0816 -0.0049 0.9967
vn -0.2803 0.0542 0.9584
vn -0.2147 0.0585 0.9749
vn 0.0000 0.9996 -0.0294
vn -0.0850 -0.0044 0.9964
vn -0.1049 -0.0055 0.9945
vn -0.3450 0.0610 0.9366
vn -0.2694 0.0667 0.9607
vn -0.3218 0.0000 0.9468
usemtl m0
s off
f 1/1/1 2/2/1 3/3/1
f 2/2/1 1/1/1 4/4/1
f 5/5/1 4/4/1 1/1/1
f 4/4/1 5/5/1 6/6/1
f 7/7/1 6/6/1 5/5/1
f 6/6/1 7/7/1 8/8/1
f 9/9/1 10/10/1 11/11/1
f 10/10/1 9/9/1 12/12/1
f 13/13/1 12/12/1 9/9/1
f 12/12/1 13/13/1 14/14/1
f 15/15/1 16/16/1 17/17/1
f 16/16/1 15/15/1 18/18/1
f 19/19/1 18/18/1 15/15/1
f 18/18/1 19/19/1 20/20/1
f 21/21/1 12/12/1 22/22/1
f 12/12/1 21/21/1 10/10/1
f 23/23/1 10/10/1 21/21/1
f 10/10/1 23/23/1 24/24/1
f 25/25/1 26/26/1 27/27/1
f 26/26/1 25/25/1 20/20/1
f 18/18/1 20/20/1 25/25/1
f 28/28/1 17/17/1 29/29/1
f 17/17/1 28/28/1 15/15/1
f 30/30/1 12/12/1 31/31/1
f 12/12/1 30/30/1 22/22/1
f 32/32/1 11/11/1 33/33/1
f 11/11/1 32/32/1 9/9/1
f 25/25/1 34/34/1 18/18/1
f 34/34/1 25/25/1 35/35/1
f 36/36/1 2/2/1 37/37/1
f 2/2/1 36/36/1 3/3/1
f 38/38/1 35/35/1 39/39/1
f 35/35/1 38/38/1 34/34/1
f 6/6/1 40/40/1 4/4/1
f 40/40/1 6/6/1 41/41/1
f 41/41/1 42/42/1 40/40/1
f 42/42/1 41/41/1 43/43/1
f 44/44/1 42/42/1 43/43/1
f 42/42/1 44/44/1 45/45/1
f 46/46/1 47/47/1 48/48/1
f 47/47/1 46/46/1 49/49/1
f 50/50/1 49/49/1 46/46/1
f 46/46/1 51/51/1 50/50/1
f 51/51/1 46/46/1 52/52/1
f 53/53/1 54/54/1 55/55/1
f 54/54/1 53/53/1 56/56/1
f 57/57/1 54/54/1 56/56/1
f 54/54/1 57/57/1 58/58/1
f 58/58/1 59/59/1 54/54/1
usemtl m1
s 1
f 60/60/2 61/61/3 62/62/4
f 61/61/3 60/60/2 63/63/5
f 64/64/6 63/63/5 60/60/2
f 65/65/7 66/66/8 67/67/9
f 66/66/8 65/65/7 68/68/10
f 69/69/11 68/68/10 65/65/7
f 70/70/12 60/60/2 62/62/4
f 60/60/2 70/70/12 69/69/11
f 71/71/13 65/65/7 67/67/9
f 65/65/7 71/71/13 64/64/6
f 65/65/7 60/60/2 69/69/11
f 65/65/7 64/64/6 60/60/2
f 72/72/14 73/73/15 74/74/15
f 73/73/15 72/72/14 75/75/16
f 76/76/17 75/75/16 72/72/14
f 75/75/16 76/76/17 77/77/18
f 78/78/19 77/77/18 76/76/17
f 77/77/18 78/78/19 79/79/20
f 80/80/21 79/79/20 78/78/19
f 79/79/20 80/80/21 81/81/22
f 82/82/23 81/81/22 80/80/21
f 81/81/22 82/82/23 83/83/24
f 84/84/25 85/85/26 86/86/26
f 85/85/26 84/84/25 87/87/27
f 88/88/28 87/87/27 84/84/25
f 87/87/27 88/88/28 89/89/29
f 90/90/30 89/89/29 88/88/28
f 89/89/29 90/90/30 91/91/30
f 92/92/31 91/91/30 90/90/30
f 91/91/30 92/92/31 93/93/31
f 94/94/32 95/95/33 96/96/34
f 95/95/33 94/94/32 97/97/35
f 98/98/36 97/97/35 94/94/32
f 97/97/35 98/98/36 99/99/37
f 100/100/38 99/99/37 98/98/36
f 99/99/37 100/100/38 101/101/39
f 102/102/40 101/101/39 100/100/38
f 101/101/39 102/102/40 103/103/41
f 104/104/42 105/105/43 106/106/44
f 105/105/43 104/104/42 107/107/45
f 108/108/46 107/107/45 104/104/42
f 107/107/45 108/108/46 109/109/47
f 110/110/48 109/109/47 108/108/46
f 109/109/47 110/110/48 111/111/49
f 79/79/20 112/112/50 77/77/18
f 112/112/50 79/79/20 113/113/51
f 81/81/22 113/113/51 79/79/20
f 113/113/51 81/81/22 83/83/24
f 80/80/21 114/114/26 82/82/23
f 114/114/26 80/80/21 115/115/52
f 78/78/19 115/115/52 80/80/21
f 115/115/52 78/78/19 116/116/53
f 109/109/47 117/117/54 107/107/45
f 117/117/54 109/109/47 118/118/55
f 111/111/49 118/118/55 109/109/47
f 101/101/39 119/119/56 99/99/37
f 119/119/56 101/101/39 120/120/57
f 103/103/41 120/120/57 101/101/39
f 115/115/52 121/121/58 114/114/26
f 121/121/58 115/115/52 116/116/53
f 122/122/59 108/108/46 104/104/42
f 108/108/46 122/122/59 123/123/60
f 108/108/46 124/124/61 110/110/48
f 124/124/61 108/108/46 123/123/60
f 125/125/62 105/105/43 126/126/62
f 105/105/43 125/125/62 106/106/44
f 127/127/63 78/78/19 76/76/17
f 78/78/19 127/127/63 116/116/53
f 128/128/64 100/100/38 98/98/36
f 100/100/38 128/128/64 129/129/65
f 100/100/38 130/130/66 102/102/40
f 130/130/66 100/100/38 129/129/65
f 116/116/53 131/131/67 121/121/58
