# Blender v2.78 (sub 0) OBJ File: ''
# www.blender.org
mtllib Palmtree.mtl
v 0.739980 44.373989 3.975561
v -1.564541 64.442970 0.831969
v -5.689248 69.107613 3.599791
v -14.682393 69.511726 18.321062
v 1.282610 64.193878 3.497122
v -0.852491 68.684456 8.127368
v -11.101420 71.886894 7.300797
v -3.839487 71.251556 14.098524
v -14.778676 71.697617 12.111253
v -8.356641 71.135757 18.122765
v 0.493860 59.708000 1.039356
v -4.358835 72.261215 -8.377563
v 1.141977 65.136192 0.635860
v 0.685146 69.502304 -2.213633
v -0.911623 59.708000 2.444587
v -1.288627 65.136116 1.667724
v -3.022210 69.502228 -0.639820
v -0.099745 71.570084 -5.656299
v -5.036595 71.570000 -3.560595
v 0.284913 66.429100 1.699935
v 1.886823 64.611206 1.970155
v 5.737976 67.148399 -1.834096
v 11.000616 66.243904 -17.025932
v -1.147460 64.876671 0.211620
v 0.583317 67.599380 -4.821506
v 10.171078 68.327591 -6.309421
v 2.431845 69.004684 -10.794735
v 12.601315 67.586334 -11.652113
v 5.757181 68.185120 -15.618669
v 0.833938 64.559052 -0.194559
v -1.050007 64.866470 3.673952
v 0.311045 67.524681 7.581461
v 14.250643 69.080025 18.652536
v 1.888066 65.123520 1.110166
v 5.302263 67.961342 3.226087
v 3.243898 69.455696 13.672956
v 10.737739 70.111336 7.133780
v 7.356320 69.872803 17.548994
v 13.983431 70.452614 11.766117
v 1.829605 64.559052 3.119230
v 1.844270 64.014336 3.403736
v 6.845709 65.185013 3.000292
v 19.054201 61.352852 -3.127685
v 0.986531 63.939259 0.401516
v 5.431021 65.061203 -1.951660
v 12.142614 65.266403 2.328050
v 10.258818 65.101555 -4.266144
v 16.272608 63.841724 0.502156
v 14.748756 63.708370 -4.831917
v 1.277686 61.218918 3.635598
v 6.396183 58.538891 7.956086
v 1.653710 62.655540 2.132897
v 16.083078 52.802288 8.749544
v 2.906130 61.218918 1.221332
v 8.996157 58.538891 4.101464
v 7.628602 62.025581 5.983201
v 17.493191 53.326469 12.560513
v 14.237741 52.802288 11.485373
v 13.708057 54.902187 5.857407
v 10.311604 54.902180 10.892846
v 12.231713 58.704185 9.007122
v -1.923025 64.559052 2.506086
v -1.055779 63.350895 3.022070
v -2.350373 64.119080 9.439425
v 1.544178 60.262032 22.181366
v 2.120963 63.627102 2.922983
v 3.705481 64.647179 9.239414
v -3.271209 63.736450 13.951927
v 5.097054 64.466866 13.670866
v -2.216521 62.712975 18.737751
v 4.571025 63.305084 18.512087
v -18.939404 61.100842 -7.427367
v 0.908559 63.212269 -0.457278
v -3.724574 64.654884 -4.583210
v 1.294483 59.708000 2.584840
v -0.488891 63.473469 2.528160
v -6.426338 65.159866 1.188695
v -8.224360 64.791443 -8.463554
v -12.317327 65.556450 0.280427
v -13.518747 63.224567 -10.045211
v -17.171574 63.907307 -2.241513
v -2.209991 61.398746 2.768029
v -8.040307 59.692669 6.752227
v -0.167433 63.058834 2.888232
v -11.662101 54.094357 15.714291
v -0.261394 61.398746 4.932165
v -4.722385 59.692669 10.437152
v -5.848393 62.440048 8.114817
v -14.770031 54.232113 16.292397
v -13.870230 54.094357 13.261906
v -7.738407 56.748646 13.880205
v -11.676368 56.748650 9.506659
v -9.633250 60.801655 11.492326
v 1.883958 61.429401 0.496081
v 2.115001 57.841545 -4.023712
v 0.549401 62.925613 1.162205
v -4.441552 51.501869 -11.030924
v -0.941670 61.429401 1.200591
v -3.255711 57.841545 -2.684643
v -0.672124 61.793598 -3.762350
v -3.506028 51.572273 -14.587257
v -0.746648 51.501873 -12.096889
v -4.526162 54.594761 -6.839537
v 1.251701 54.594761 -8.280121
v -1.866211 58.967690 -8.478212
v 1.351911 25.146002 3.283887
v -2.961045 0.000000 -1.014013
v -1.845828 44.615990 3.528892
v -1.908642 9.459996 0.769294
v 1.209611 0.000001 -5.604171
v 2.393820 -0.000000 0.314050
v 0.917628 9.459996 -1.888639
v 1.786517 9.459996 1.382439
v -0.112655 44.615990 1.769795
v -1.673692 25.146002 2.606026
v 0.418009 25.146002 0.631264
v 2.200000 57.155991 4.389009
v -2.200000 57.155991 4.389009
v 2.200000 61.555992 4.389010
v -2.200000 61.555992 4.389010
v 2.200000 56.737991 -0.626991
v -2.200000 56.737991 -0.626991
v 2.200000 61.137989 -0.626990
v -2.200000 61.137989 -0.626990
v 0.739980 44.373989 3.975561
v -1.564541 64.442970 0.831969
v -5.689248 69.107613 3.599791
v -14.682393 69.511726 18.321062
v 1.282610 64.193878 3.497122
v -0.852491 68.684456 8.127368
v -11.101420 71.886894 7.300797
v -3.839487 71.251556 14.098524
v -14.778676 71.697617 12.111253
v -8.356641 71.135757 18.122765
v 0.493860 59.708000 1.039356
v -4.358835 72.261215 -8.377563
v 1.141977 65.136192 0.635860
v 0.685146 69.502304 -2.213633
v -0.911623 59.708000 2.444587
v -1.288627 65.136116 1.667724
v -3.022210 69.502228 -0.639820
v -0.099745 71.570084 -5.656299
v -5.036595 71.570000 -3.560595
v 0.284913 66.429100 1.699935
v 1.886823 64.611206 1.970155
v 5.737976 67.148399 -1.834096
v 11.000616 66.243904 -17.025932
v -1.147460 64.876671 0.211620
v 0.583317 67.599380 -4.821506
v 10.171078 68.327591 -6.309421
v 2.431845 69.004684 -10.794735
v 12.601315 67.586334 -11.652113
v 5.757181 68.185120 -15.618669
v 0.833938 64.559052 -0.194559
v -1.050007 64.866470 3.673952
v 0.311045 67.524681 7.581461
v 14.250643 69.080025 18.652536
v 1.888066 65.123520 1.110166
v 5.302263 67.961342 3.226087
v 3.243898 69.455696 13.672956
v 10.737739 70.111336 7.133780
v 7.356320 69.872803 17.548994
v 13.983431 70.452614 11.766117
v 1.829605 64.559052 3.119230
v 1.844270 64.014336 3.403736
v 6.845709 65.185013 3.000292
v 19.054201 61.352852 -3.127685
v 0.986531 63.939259 0.401516
v 5.431021 65.061203 -1.951660
v 12.142614 65.266403 2.328050
v 10.258818 65.101555 -4.266144
v 16.272608 63.841724 0.502156
v 14.748756 63.708370 -4.831917
v 1.277686 61.218918 3.635598
v 6.396183 58.538891 7.956086
v 1.653710 62.655540 2.132897
v 16.083078 52.802288 8.749544
v 2.906130 61.218918 1.221332
v 8.996157 58.538891 4.101464
v 7.628602 62.025581 5.983201
v 17.493191 53.326469 12.560513
v 14.237741 52.802288 11.485373
v 13.708057 54.902187 5.857407
v 10.311604 54.902180 10.892846
v 12.231713 58.704185 9.007122
v -1.923025 64.559052 2.506086
v -1.055779 63.350895 3.022070
v -2.350373 64.119080 9.439425
v 1.544178 60.262032 22.181366
v 2.120963 63.627102 2.922983
v 3.705481 64.647179 9.239414
v -3.271209 63.736450 13.951927
v 5.097054 64.466866 13.670866
v -2.216521 62.712975 18.737751
v 4.571025 63.305084 18.512087
v -18.939404 61.100842 -7.427367
v 0.908559 63.212269 -0.457278
v -3.724574 64.654884 -4.583210
v 1.294483 59.708000 2.584840
v -0.488891 63.473469 2.528160
v -6.426338 65.159866 1.188695
v -8.224360 64.791443 -8.463554
v -12.317327 65.556450 0.280427
v -13.518747 63.224567 -10.045211
v -17.171574 63.907307 -2.241513
v -2.209991 61.398746 2.768029
v -8.040307 59.692669 6.752227
v -0.167433 63.058834 2.888232
v -11.662101 54.094357 15.714291
v -0.261394 61.398746 4.932165
v -4.722385 59.692669 10.437152
v -5.848393 62.440048 8.114817
v -14.770031 54.232113 16.292397
v -13.870230 54.094357 13.261906
v -7.738407 56.748646 13.880205
v -11.676368 56.748650 9.506659
v -9.633250 60.801655 11.492326
v 1.883958 61.429401 0.496081
v 2.115001 57.841545 -4.023712
v 0.549401 62.925613 1.162205
v -4.441552 51.501869 -11.030924
v -0.941670 61.429401 1.200591
v -3.255711 57.841545 -2.684643
v -0.672124 61.793598 -3.762350
v -3.506028 51.572273 -14.587257
v -0.746648 51.501873 -12.096889
v -4.526162 54.594761 -6.839537
v 1.251701 54.594761 -8.280121
v -1.866211 58.967690 -8.478212
v 1.351911 25.146002 3.283887
v -2.961045 0.000000 -1.014013
v -1.845828 44.615990 3.528892
v -1.908642 9.459996 0.769294
v 1.209611 0.000001 -5.604171
v 2.393820 -0.000000 0.314050
v 0.917628 9.459996 -1.888639
v 1.786517 9.459996 1.382439
v -0.112655 44.615990 1.769795
v -1.673692 25.146002 2.606026
v 0.418009 25.146002 0.631264
vt 0.9529 -0.0431
vt 0.0118 -0.0431
vt 0.9529 -0.9843
vt 0.0118 -0.9843
vt 0.0118 0.9686
vt 0.9529 0.9686
vt 0.0118 -0.9686
vt 0.9529 -0.9686
vt 0.0118 0.9686
vt 0.9529 0.9686
vt 0.0118 -0.9686
vt 0.9529 -0.9686
vt 0.0118 0.9686
vt 0.9529 0.9686
vt 0.0118 -0.9686
vt 0.9529 -0.9686
vt 0.9529 2.9373
vt 0.0118 2.9373
vt 0.9529 -0.9373
vt 0.0118 -0.9373
vt 0.9529 2.9373
vt 0.0118 2.9373
vt 0.9529 -0.9373
vt 0.0118 -0.9373
vt 0.9529 2.9373
vt 0.0118 2.9373
vt 0.9529 -0.9373
vt 0.0118 -0.9373
vt 0.9529 2.9373
vt 0.0118 2.9373
vt 0.9529 -0.9373
vt 0.0118 -0.9373
vt 0.0118 2.9373
vt 0.0118 -0.9373
vt 0.9529 2.9373
vt 0.9529 -0.9373
vt 0.9529 2.9373
vt 0.0118 2.9373
vt 0.9529 -0.9373
vt 0.0118 -0.9373
vt 0.9529 2.9373
vt 0.0118 2.9373
vt 0.9529 -0.9373
vt 0.0118 -0.9373
vt 0.0118 2.9373
vt 0.0118 -0.9373
vt 0.9529 2.9373
vt 0.9529 -0.9373
vt 0.9529 2.9373
vt 0.0118 2.9373
vt 0.9529 -0.9373
vt 0.0118 -0.9373
vt 0.9529 -0.0431
vt 0.0118 -0.0431
vt 0.9529 -0.9843
vt 0.0118 -0.9843
vt 0.0118 -0.7098
vt 0.9529 -0.7098
vt 0.4980 -0.0431
vt 0.9529 -0.7098
vt 0.0118 -0.7098
vt 0.0118 -0.0431
vt 0.9529 -0.0431
vt 0.0118 -0.9843
vt 0.9529 -0.9843
vt 0.0118 -0.7098
vt 0.9529 -0.7098
vt 0.0118 -0.0431
vt 0.9529 -0.0431
vt 0.0118 -0.9843
vt 0.9529 -0.9843
vt 0.9529 -0.0431
vt 0.9529 -0.9843
vt 0.0118 -0.0431
vt 0.0118 -0.9843
vt 0.0039 -0.1608
vt 0.9765 -0.2980
vt 0.0039 -0.8196
vt 0.9765 -0.6667
vt 0.9765 -0.8196
vt 0.0039 -0.9922
vt 0.9765 -0.1608
vt 0.0039 -0.0196
vt 0.9765 -0.9608
vt 0.0039 -0.5137
vt 0.9765 -0.0667
vt 0.9765 -0.9922
vt 0.0039 -0.9294
vt 0.9765 -0.0196
vt 0.0039 -0.0980
vt 0.0039 -0.1137
vt 0.9765 -0.2078
vt 0.0039 -0.8667
vt 0.9765 -0.6980
vt 0.9765 -0.8510
vt 0.0039 -0.9922
vt 0.9765 -0.1294
vt 0.0039 -0.0196
vt 0.9765 -0.0196
vt 0.9765 -0.9922
vt 0.0039 -0.5137
vt 0.0039 -0.1608
vt 0.9765 -0.2980
vt 0.0039 -0.8196
vt 0.9765 -0.6667
vt 0.9765 -0.8196
vt 0.0039 -0.9922
vt 0.9765 -0.1608
vt 0.0039 -0.0196
vt 0.9765 -0.9451
vt 0.0039 -0.5137
vt 0.9765 -0.0824
vt 0.9765 -0.9922
vt 0.0039 -0.9294
vt 0.9765 -0.0196
vt 0.0039 -0.0980
vt 0.0039 -0.1608
vt 0.9765 -0.2980
vt 0.0039 -0.8196
vt 0.9765 -0.6667
vt 0.9765 -0.8196
vt 0.0039 -0.9922
vt 0.9765 -0.1608
vt 0.0039 -0.0196
vt 0.9765 -0.9608
vt 0.0039 -0.5137
vt 0.9765 -0.0667
vt 0.9765 -0.9922
vt 0.0039 -0.9294
vt 0.9765 -0.0196
vt 0.0039 -0.0980
vt 0.0039 -0.8824
vt 0.9765 -0.7608
vt 0.0039 -0.0824
vt 0.9765 -0.2078
vt 0.9765 -0.1137
vt 0.0039 -0.0196
vt 0.9765 -0.8510
vt 0.0039 -0.9922
vt 0.9765 -0.0824
vt 0.0039 -0.5137
vt 0.9765 -0.9137
vt 0.9765 -0.0196
vt 0.0039 -0.0980
vt 0.9765 -0.9922
vt 0.0039 -0.8980
vt 0.7451 -0.0196
vt 0.0039 -0.0196
vt 0.0039 -0.5137
vt 0.9765 -0.5137
vt 0.0039 -0.9922
vt 0.7608 -0.9922
vt 0.9765 -0.0196
vt 0.2667 -0.1294
vt 0.9765 -0.5137
vt 0.0039 -0.5137
vt 0.9765 -0.9922
vt 0.3137 -0.9922
vt 0.0039 -0.9922
vt 0.9765 -0.9922
vt 0.0039 -0.5137
vt 0.9765 -0.5137
vt 0.0039 -0.0196
vt 0.9765 -0.0196
vt 0.0039 -0.8196
vt 0.9765 -0.6667
vt 0.0039 -0.1608
vt 0.9765 -0.2980
vt 0.9765 -0.8824
vt 0.0039 -0.9922
vt 0.9765 -0.1608
vt 0.0039 -0.0196
vt 0.9765 -0.9608
vt 0.0039 -0.5137
vt 0.9765 -0.0667
vt 0.9765 -0.9922
vt 0.0039 -0.9294
vt 0.9765 -0.0196
vt 0.0039 -0.0980
vt 0.0039 -0.1608
vt 0.9765 -0.2980
vt 0.0039 -0.8196
vt 0.9765 -0.6667
vt 0.9765 -0.8196
vt 0.0039 -0.9922
vt 0.9765 -0.1608
vt 0.0039 -0.0196
vt 0.9765 -0.9765
vt 0.0039 -0.5137
vt 0.9765 -0.0353
vt 0.9765 -0.9922
vt 0.0039 -0.9451
vt 0.9765 -0.0196
vt 0.0039 -0.0667
vt 0.7451 -0.0196
vt 0.0039 -0.0196
vt 0.0039 -0.5137
vt 0.9765 -0.5137
vt 0.0039 -0.9922
vt 0.7608 -0.9922
vt 0.3451 -0.8196
vt 0.9765 -0.9922
vt 0.0039 -0.5137
vt 0.9765 -0.5137
vt 0.3608 -0.1765
vt 0.9765 -0.0196
vt 0.0039 -0.9922
vt 0.9765 -0.9922
vt 0.0039 -0.5137
vt 0.9765 -0.5137
vt 0.0039 -0.0196
vt 0.9765 -0.0196
vt 0.0039 -0.9922
vt 0.7608 -0.9922
vt 0.9765 -0.5137
vt 0.0039 -0.5137
vt 0.7451 -0.0196
vt 0.0039 -0.0196
vt 0.9765 -0.0196
vt 0.2510 -0.0196
vt 0.9765 -0.5137
vt 0.0039 -0.5137
vt 0.9765 -0.9922
vt 0.1765 -0.9922
vt 0.9765 -0.0196
vt 0.0039 -0.0196
vt 0.9765 -0.5137
vt 0.0039 -0.5137
vt 0.9765 -0.9922
vt 0.0039 -0.9922
vn 0.0000 0.0000 -1.0000
vn -0.9497 0.0237 0.3122
vn 0.2795 0.2515 -0.9266
vn -0.9773 0.1099 0.1810
vn 0.2231 0.3273 -0.9182
vn 0.7254 -0.0277 0.6878
vn 0.7544 0.0017 0.6564
vn -0.9523 -0.0280 0.3040
vn 0.2396 0.1163 -0.9639
vn 0.7414 -0.0234 0.6707
vn 0.1841 0.0006 -0.9829
vn 0.7561 0.0220 0.6540
vn -0.9419 0.0424 0.3333
vn 0.1980 -0.1637 -0.9665
vn 0.8069 -0.1105 0.5803
vn -0.9414 -0.0868 0.3260
vn 0.7447 0.2333 0.6252
vn 0.2280 0.2055 -0.9517
vn 0.0048 0.9993 -0.0371
vn -0.9246 0.2477 0.2893
vn 0.3982 0.8495 -0.3460
vn 0.5037 0.7245 -0.4704
vn 0.1658 0.9825 -0.0853
vn 0.1642 0.9829 -0.0836
vn -0.0560 0.9868 0.1520
vn -0.2254 0.9179 0.3266
vn -0.0570 0.9866 0.1531
vn 0.2651 0.7346 0.6245
vn 0.3289 0.5400 0.7747
vn 0.2655 0.7336 0.6255
vn 0.1468 0.9267 0.3459
vn 0.1444 0.9292 0.3401
vn 0.0639 0.9865 0.1506
vn -0.0960 0.9464 0.3085
vn -0.1677 0.8901 0.4238
vn 0.0507 0.9967 0.0630
vn 0.1742 0.9727 -0.1537
vn 0.2573 0.9167 -0.3057
vn -0.3227 0.9044 -0.2791
vn -0.4235 0.8108 -0.4040
vn -0.1664 0.9817 -0.0923
vn -0.0329 0.9975 0.0623
vn 0.0818 0.9780 0.1918
vn -0.1097 0.9939 0.0065
vn -0.2247 0.9736 0.0398
vn -0.1102 0.9939 0.0066
vn 0.1348 0.9889 -0.0632
vn 0.1357 0.9887 -0.0635
vn 0.3755 0.9176 -0.1302
vn 0.5240 0.8344 -0.1706
vn 0.3757 0.9175 -0.1303
vn -0.2965 0.6135 0.7319
vn -0.2056 0.5605 0.8023
vn 0.2863 0.9413 0.1787
vn 0.1863 0.9728 0.1375
vn 0.6258 0.5663 -0.5364
vn 0.5417 0.6140 -0.5741
vn -0.2638 0.2921 0.9193
vn -0.3283 0.1163 0.9374
vn 0.4512 0.8113 0.3718
vn 0.5499 0.6585 0.5138
vn 0.7455 0.5154 -0.4226
vn 0.7900 0.4960 -0.3605
vn -0.0875 0.9960 -0.0192
vn -0.0903 0.9865 -0.1364
vn -0.0875 0.9960 -0.0200
vn -0.0906 0.9865 -0.1365
vn -0.0810 0.9856 0.1487
vn -0.0810 0.9854 0.1495
vn -0.0687 0.9274 0.3677
vn -0.0483 0.7881 0.6137
vn -0.0686 0.9272 0.3681
vn 0.1554 0.9878 -0.0137
vn 0.2647 0.9635 0.0396
vn 0.1547 0.9879 -0.0140
vn -0.0850 0.9883 -0.1263
vn -0.0890 0.9878 -0.1281
vn -0.3060 0.9253 -0.2242
vn -0.4678 0.8342 -0.2920
vn -0.3105 0.9233 -0.2261
vn -0.5377 0.6830 -0.4944
vn -0.6282 0.6861 -0.3669
vn -0.1549 0.9767 0.1486
vn -0.0673 0.9962 0.0548
vn 0.3093 0.6854 0.6592
vn 0.4535 0.6786 0.5778
vn 0.1826 0.4496 0.8744
vn 0.2032 0.5370 0.8188
vn -0.5298 0.6966 0.4838
vn -0.3742 0.8657 0.3324
vn -0.8605 0.4288 -0.2750
vn -0.8019 0.5241 -0.2869
vn -0.8336 0.5427 -0.1028
vn -0.8054 0.5892 -0.0644
vn -0.0970 0.9170 -0.3868
vn -0.1090 0.8909 -0.4410
vn 0.6818 0.5895 -0.4331
vn 0.6864 0.5420 -0.4848
vn 0.6465 0.4613 -0.6077
vn 0.6141 0.4196 -0.6685
vn -0.1678 0.7808 -0.6018
vn -0.2230 0.6372 -0.7377
vn -0.8850 0.4260 -0.1879
vn -0.9038 0.3605 -0.2306
usemtl material_C3B608
f 109/5/2 112/6/3 107/7/4
f 107/7/4 112/6/3 110/8/5
f 113/9/6 109/10/2 111/11/7
f 111/11/7 109/10/2 107/12/4
f 112/13/3 113/14/6 110/15/5
f 110/15/5 113/14/6 111/16/7
f 115/17/8 116/18/9 109/19/2
f 109/19/2 116/18/9 112/20/3
f 106/21/10 115/22/8 113/23/6
f 113/23/6 115/22/8 109/24/2
f 116/25/9 106/26/10 112/27/3
f 112/27/3 106/26/10 113/28/6
f 114/29/11 1/30/12 116/31/9
f 116/31/9 1/30/12 106/32/10
f 114/33/11 116/34/9 108/35/13
f 108/35/13 116/34/9 115/36/8
f 1/37/12 108/38/13 106/39/10
f 106/39/10 108/38/13 115/40/8
f 11/41/14 75/42/15 114/43/11
f 114/43/11 75/42/15 1/44/12
f 11/45/14 114/46/11 15/47/16
f 15/47/16 114/46/11 108/48/13
f 75/49/15 15/50/16 1/51/12
f 1/51/12 15/50/16 108/52/13
usemtl material_C3B4E8
f 120/53/1 119/54/1 118/55/1
f 118/55/1 119/54/1 117/56/1
f 124/1/1 123/2/1 122/3/1
f 122/3/1 123/2/1 121/4/1
usemtl material_C3B5F4
f 40/57/17 30/58/18 20/59/19
f 62/60/20 20/59/19 30/61/18
f 40/62/17 62/63/20 75/64/15
f 75/64/15 62/63/20 15/65/16
f 62/66/20 40/67/17 20/59/19
f 30/68/18 40/69/17 11/70/14
f 11/70/14 40/69/17 75/71/15
f 30/72/18 11/73/14 62/74/20
f 62/74/20 11/73/14 15/75/16
usemtl material_C3B61C
f 130/76/21 129/77/22 127/78/21
f 127/78/21 129/77/22 126/79/22
f 127/80/21 131/81/23 130/82/21
f 130/82/21 131/81/23 132/83/24
f 133/84/25 128/85/26 134/86/27
f 131/87/23 133/88/25 132/89/24
f 132/89/24 133/88/25 134/90/27
f 141/91/28 140/92/29 138/93/30
f 138/93/30 140/92/29 137/94/29
f 138/95/30 142/96/31 141/97/28
f 141/97/28 142/96/31 143/98/32
f 143/99/32 142/100/31 136/101/33
f 149/102/34 148/103/35 146/104/34
f 146/104/34 148/103/35 145/105/35
f 146/106/34 150/107/36 149/108/34
f 149/108/34 150/107/36 151/109/36
f 152/110/37 147/111/38 153/112/37
f 150/113/36 152/114/37 151/115/36
f 151/115/36 152/114/37 153/116/37
f 159/117/39 158/118/40 156/119/39
f 156/119/39 158/118/40 155/120/40
f 156/121/39 160/122/41 159/123/39
f 159/123/39 160/122/41 161/124/41
f 162/125/42 157/126/43 163/127/42
f 160/128/41 162/129/42 161/130/41
f 161/130/41 162/129/42 163/131/42
f 169/132/44 168/133/45 166/134/46
f 166/134/46 168/133/45 165/135/45
f 166/136/46 170/137/47 169/138/44
f 169/138/44 170/137/47 171/139/48
f 172/140/49 167/141/50 173/142/51
f 170/143/47 172/144/49 171/145/48
f 171/145/48 172/144/49 173/146/51
f 174/147/52 175/148/53 180/149/54
f 174/147/52 180/149/54 176/150/55
f 176/150/55 180/149/54 179/151/56
f 176/150/55 179/151/56 178/152/57
f 184/153/58 182/154/59 185/155/60
f 185/155/60 182/154/59 181/156/61
f 185/155/60 181/156/61 183/157/62
f 183/157/62 181/156/61 177/158/63
f 183/159/62 179/160/56 185/161/60
f 185/161/60 179/160/56 180/162/54
f 185/161/60 180/162/54 184/163/58
f 184/163/58 180/162/54 175/164/53
f 191/165/64 190/166/65 188/167/66
f 188/167/66 190/166/65 187/168/67
f 188/169/66 192/170/68 191/171/64
f 191/171/64 192/170/68 193/172/69
f 194/173/70 189/174/71 195/175/72
f 192/176/68 194/177/70 193/178/69
f 193/178/69 194/177/70 195/179/72
f 201/180/73 200/181/74 198/182/75
f 198/182/75 200/181/74 197/183/74
f 198/184/75 202/185/76 201/186/73
f 201/186/73 202/185/76 203/187/77
f 204/188/78 196/189/79 205/190/80
f 202/191/76 204/192/78 203/193/77
f 203/193/77 204/192/78 205/194/80
f 206/195/81 207/196/82 212/197/83
f 206/195/81 212/197/83 208/198/84
f 208/198/84 212/197/83 211/199/85
f 208/198/84 211/199/85 210/200/86
f 209/201/87 215/202/88 213/203/89
f 213/203/89 215/202/88 217/204/90
f 213/203/89 217/204/90 214/205/91
f 214/205/91 217/204/90 216/206/92
f 215/207/88 211/208/85 217/209/90
f 217/209/90 211/208/85 212/210/83
f 217/209/90 212/210/83 216/211/92
f 216/211/92 212/210/83 207/212/82
f 223/213/93 222/214/94 220/215/95
f 223/213/93 220/215/95 224/216/96
f 224/216/96 220/215/95 218/217/97
f 224/216/96 218/217/97 219/218/98
f 228/219/99 226/220/100 229/221/101
f 229/221/101 226/220/100 225/222/102
f 229/221/101 225/222/102 227/223/103
f 227/223/103 225/222/102 221/224/104
f 219/225/98 228/226/99 224/227/96
f 224/227/96 228/226/99 229/228/101
f 224/227/96 229/228/101 223/229/93
f 223/229/93 229/228/101 227/230/103
