# Blender v2.79 (sub 0) OBJ File: ''
# www.blender.org
mtllib CapsuleSolid.mtl
v 2.615521 -2.406663 -4.168466
v 2.615517 -4.813330 0.000000
v 0.000005 -2.787750 -4.828526
v 0.000001 -5.575500 0.000000
v 2.615520 2.406666 -4.168466
v 0.000004 2.787751 -4.828526
v 2.615515 4.813331 0.000001
v -0.000001 5.575500 0.000001
v 2.615511 2.406664 4.168468
v -0.000005 2.787750 4.828526
v 2.615512 -2.406666 4.168468
v -0.000004 -2.787752 4.828525
v -0.017318 1.450000 4.785662
v -0.017318 1.000000 6.735290
v 1.090680 0.975000 4.391457
v 0.736228 1.000000 6.161777
v -0.017318 -1.450000 4.785662
v 1.090680 -0.975000 4.391457
v -0.017318 -1.000000 6.735290
v 0.736228 -1.000000 6.161777
v -0.017313 -4.869504 -1.137095
v -0.017313 -6.332932 -2.501620
v 1.090685 -4.290613 -1.351354
v 0.736233 -5.836256 -2.214864
v 0.736235 4.836256 -3.946915
v -0.017311 5.332932 -4.233671
v 0.736231 5.836256 -2.214864
v -0.017315 6.332932 -2.501620
v -0.017309 -3.419505 -3.648568
v 1.090686 -3.315613 -3.040103
v -0.017309 -5.332932 -4.233671
v 0.736237 -4.836256 -3.946915
v -0.017311 3.419505 -3.648568
v 1.090685 3.315613 -3.040103
v -0.017315 4.869504 -1.137095
v 1.090683 4.290613 -1.351354
v 3.811493 0.000001 0.000004
v 0.000000 0.000000 0.000000
v 13.191494 2.188331 -3.790286
v 13.191494 -2.188324 -3.790286
v 12.203900 0.000002 0.000009
v 13.191486 -2.188326 3.790302
v 13.191486 2.188329 3.790303
v 13.191491 -4.376653 0.000009
v 13.191489 4.376657 0.000010
v 14.423760 -1.539137 2.665874
v 14.423761 -3.078274 0.000009
v 15.000000 0.000003 0.000009
v 14.423760 -1.539135 -2.665857
v 14.423760 1.539142 -2.665857
v 14.423760 1.539141 2.665875
v 14.423759 3.078280 0.000009
vt 0.141200 -0.337300
vt 0.823500 -0.337300
vt 0.482400 -0.027500
vt 0.141200 -0.337300
vt 0.823500 -0.337300
vt 0.141200 -0.337300
vt 0.823500 -0.337300
vt 0.141200 -0.337300
vt 0.823500 -0.337300
vt 0.141200 -0.337300
vt 0.823500 -0.337300
vt 0.141200 -0.337300
vt 0.823500 -0.337300
vt 0.000000 -0.996100
vt 0.968600 -0.996100
vt 0.000000 -0.996100
vt 0.968600 -0.996100
vt 0.000000 -0.996100
vt 0.968600 -0.996100
vt 0.000000 -0.996100
vt 0.968600 -0.996100
vt 0.000000 -0.996100
vt 0.968600 -0.996100
vt 0.000000 -0.996100
vt 0.968600 -0.996100
vt 0.968600 -0.027500
vt 0.000000 -0.027500
vt 0.482400 -0.996100
vt 0.968600 -0.027500
vt 0.000000 -0.027500
vt 0.968600 -0.027500
vt 0.000000 -0.027500
vt 0.968600 -0.027500
vt 0.000000 -0.027500
vt 0.968600 -0.027500
vt 0.000000 -0.027500
vt 0.968600 -0.027500
vt 0.000000 -0.027500
vt 0.968600 -1.000000
vt 0.858800 -0.027500
vt 0.000000 -1.000000
vt 0.137300 -0.027500
vt 0.968600 -1.000000
vt 0.858800 -0.027500
vt 0.000000 -1.000000
vt 0.137300 -0.027500
vt 0.968600 -1.000000
vt 0.858800 -0.027500
vt 0.000000 -1.000000
vt 0.137300 -0.027500
vt 0.000000 -1.000000
vt 0.968600 -1.000000
vt 0.482400 -0.027500
vt 0.000000 -1.000000
vt 0.968600 -1.000000
vt 0.000000 -1.000000
vt 0.968600 -1.000000
vt 0.000000 -1.000000
vt 0.968600 -1.000000
vt 0.000000 -1.000000
vt 0.968600 -1.000000
vt 0.000000 -1.000000
vt 0.968600 -1.000000
vt 0.968600 -1.000000
vt 0.000000 -1.000000
vt 0.482400 -0.027500
vt 0.968600 -1.000000
vt 0.000000 -1.000000
vt 0.968600 -1.000000
vt 0.000000 -1.000000
vt 0.968600 -1.000000
vt 0.000000 -1.000000
vt 0.968600 -1.000000
vt 0.000000 -1.000000
vt 0.968600 -1.000000
vt 0.000000 -1.000000
vt 0.902000 -0.027500
vt 0.062700 -0.027500
vt 0.968600 -1.000000
vt 0.000000 -1.000000
vt 0.902000 -0.027500
vt 0.062700 -0.027500
vt 0.968600 -1.000000
vt 0.000000 -1.000000
vt 0.902000 -0.027500
vt 0.062700 -0.027500
vt 0.968600 -1.000000
vt 0.000000 -1.000000
vt 0.902000 -0.027500
vt 0.062700 -0.027500
vt 0.968600 -1.000000
vt 0.000000 -1.000000
vt 0.902000 -0.027500
vt 0.062700 -0.027500
vt 0.968600 -1.000000
vt 0.000000 -1.000000
vt 0.902000 -0.027500
vt 0.062700 -0.027500
vt 0.968600 -1.000000
vt 0.000000 -1.000000
vt 0.921600 -1.000000
vt 0.000000 -1.000000
vt 0.960800 -0.439200
vt 0.129400 -0.615700
vt 0.921600 -1.000000
vt 0.960800 -0.439200
vt 0.000000 -1.000000
vt 0.129400 -0.615700
vt 0.000000 -0.603900
vt 0.968600 -0.603900
vt 0.968600 -1.000000
vt 0.921600 -1.000000
vt 0.000000 -1.000000
vt 0.960800 -0.439200
vt 0.129400 -0.615700
vt 0.000000 -0.603900
vt 0.000000 -1.000000
vt 0.968600 -0.603900
vt 0.968600 -1.000000
vt 0.921600 -1.000000
vt 0.960800 -0.439200
vt 0.000000 -1.000000
vt 0.129400 -0.615700
vt 0.000000 -0.603900
vt 0.968600 -0.603900
vt 0.968600 -1.000000
vt 0.921600 -1.000000
vt 0.960800 -0.439200
vt 0.129400 -0.615700
vt 0.921600 -1.000000
vt 0.960800 -0.439200
vt 0.000000 -1.000000
vt 0.129400 -0.615700
vt 0.000000 -0.603900
vt 0.000000 -0.027500
vt 0.968600 -0.603900
vt 0.968600 -0.027500
vt 0.000000 -0.603900
vt 0.000000 -0.027500
vt 0.968600 -0.603900
vt 0.968600 -0.027500
vt 0.000000 -0.603900
vt 0.000000 -0.027500
vt 0.968600 -0.603900
vt 0.968600 -0.027500
vn 0.8526 -0.2613 0.4526
vn 0.8526 -0.5226 0.0000
vn 1.0000 0.0000 0.0000
vn 0.8526 -0.2613 -0.4526
vn 0.8526 0.2613 -0.4526
vn 0.8526 0.2613 0.4526
vn 0.8526 0.5226 0.0000
vn 0.7253 -0.3442 0.5962
vn 0.7253 -0.6884 0.0000
vn 0.7253 -0.3442 -0.5962
vn 0.7253 0.3442 -0.5962
vn 0.7253 0.3442 0.5962
vn 0.7253 0.6884 0.0000
vn -1.0000 -0.0000 -0.0000
vn 0.9705 -0.2411 0.0000
vn 0.9705 -0.1206 -0.2088
vn 0.9705 0.2411 0.0000
vn 0.9705 0.1206 0.2088
vn 0.9705 0.1206 -0.2088
vn 0.9705 -0.1206 0.2088
vn -0.9755 0.1101 -0.1906
vn -0.9755 -0.1101 -0.1906
vn -0.9755 -0.1101 0.1906
vn -0.9755 0.1101 0.1906
vn -0.9755 -0.2201 -0.0000
vn -0.9755 0.2201 -0.0000
vn 0.2447 -0.8397 -0.4848
vn 0.2447 0.0000 -0.9696
vn 0.2447 0.8397 -0.4848
vn 0.2447 0.8397 0.4848
vn 0.2447 0.0000 0.9696
vn 0.2447 -0.8397 0.4848
vn 0.4456 0.8723 0.2013
vn 0.2289 0.9685 0.0979
vn 0.3521 0.9228 0.1566
vn -0.0127 0.9998 -0.0167
vn 0.4456 -0.8723 0.2013
vn 0.3521 -0.9228 0.1566
vn 0.2289 -0.9685 0.0979
vn -0.0127 -0.9998 -0.0167
vn 0.8469 0.0000 0.5317
vn 0.6056 0.0000 0.7957
vn 0.4456 -0.6105 0.6548
vn 0.2289 -0.5690 0.7898
vn 0.3521 -0.5970 0.7209
vn -0.0127 -0.4855 0.8742
vn 0.8469 0.4605 -0.2658
vn 0.6056 0.6891 -0.3979
vn 0.4456 0.2618 -0.8561
vn 0.3521 0.3258 -0.8774
vn 0.2289 0.3995 -0.8877
vn -0.0127 0.5143 -0.8575
vn 0.8469 -0.4605 -0.2658
vn 0.6056 -0.6891 -0.3979
vn 0.4456 -0.2618 -0.8561
vn 0.2289 -0.3995 -0.8877
vn 0.3521 -0.3258 -0.8774
vn -0.0127 -0.5143 -0.8575
vn 0.4456 0.6105 0.6548
vn 0.3521 0.5970 0.7209
vn 0.2289 0.5690 0.7898
vn -0.0127 0.4855 0.8742
vn 0.9805 -0.1700 -0.0982
vn 0.9805 0.1700 -0.0982
vn 0.9805 0.0000 0.1963
usemtl object_004BF28C_material_9
s 1
f 46/1/1 47/2/2 48/3/3
f 49/4/4 50/5/5 48/3/3
f 51/6/6 46/7/1 48/3/3
f 52/8/7 51/9/6 48/3/3
f 47/10/2 49/11/4 48/3/3
f 50/12/5 52/13/7 48/3/3
f 42/14/8 44/15/9 46/1/1
f 46/1/1 44/15/9 47/2/2
f 40/16/10 39/17/11 49/4/4
f 49/4/4 39/17/11 50/5/5
f 43/18/12 42/19/8 51/6/6
f 51/6/6 42/19/8 46/7/1
f 45/20/13 43/21/12 52/8/7
f 52/8/7 43/21/12 51/9/6
f 44/22/9 40/23/10 47/10/2
f 47/10/2 40/23/10 49/11/4
f 39/24/11 45/25/13 50/12/5
f 50/12/5 45/25/13 52/13/7
usemtl object_004BF28C_material_12
f 3/26/14 4/27/14 38/28/14
f 6/29/14 3/30/14 38/28/14
f 8/31/14 6/32/14 38/28/14
f 10/33/14 8/34/14 38/28/14
f 12/35/14 10/36/14 38/28/14
f 4/37/14 12/38/14 38/28/14
f 35/39/14 28/40/14 33/41/14
f 33/41/14 28/40/14 26/42/14
f 17/43/14 19/44/14 13/45/14
f 13/45/14 19/44/14 14/46/14
f 29/47/14 31/48/14 21/49/14
f 21/49/14 31/48/14 22/50/14
usemtl object_004BF28C_material_14
f 2/51/15 1/52/16 37/53/3
f 7/54/17 9/55/18 37/53/3
f 37/53/3 1/56/16 5/57/19
f 5/58/19 7/59/17 37/53/3
f 37/53/3 9/60/18 11/61/20
f 11/62/20 2/63/15 37/53/3
f 39/64/21 40/65/22 41/66/14
f 42/67/23 43/68/24 41/66/14
f 41/66/14 40/69/22 44/70/25
f 44/71/25 42/72/23 41/66/14
f 41/66/14 43/73/24 45/74/26
f 45/75/26 39/76/21 41/66/14
usemtl object_004BF28C_material_16
f 1/77/27 2/78/27 3/79/27
f 3/79/27 2/78/27 4/80/27
f 5/81/28 1/82/28 6/83/28
f 6/83/28 1/82/28 3/84/28
f 7/85/29 5/86/29 8/87/29
f 8/87/29 5/86/29 6/88/29
f 9/89/30 7/90/30 10/91/30
f 10/91/30 7/90/30 8/92/30
f 11/93/31 9/94/31 12/95/31
f 12/95/31 9/94/31 10/96/31
f 2/97/32 11/98/32 4/99/32
f 4/99/32 11/98/32 12/100/32
usemtl object_004BF28C_material_15
f 13/101/33 14/102/34 15/103/35
f 15/103/35 14/102/34 16/104/36
f 17/105/37 18/106/38 19/107/39
f 19/107/39 18/106/38 20/108/40
f 16/109/41 14/102/42 20/110/41
f 20/110/41 14/102/42 19/111/42
f 21/112/43 22/113/44 23/114/45
f 23/114/45 22/113/44 24/115/46
f 25/116/47 26/117/48 27/118/47
f 27/118/47 26/117/48 28/119/48
f 29/120/49 30/121/50 31/122/51
f 31/122/51 30/121/50 32/123/52
f 24/124/53 22/113/54 32/125/53
f 32/125/53 22/113/54 31/126/54
f 33/127/55 26/117/56 34/128/57
f 34/128/57 26/117/56 25/129/58
f 35/130/59 36/131/60 28/132/61
f 28/132/61 36/131/60 27/133/62
f 32/134/53 30/135/63 24/136/53
f 24/136/53 30/135/63 23/137/63
f 27/138/47 36/139/64 25/140/47
f 25/140/47 36/139/64 34/141/64
f 20/142/41 18/143/65 16/144/41
f 16/144/41 18/143/65 15/145/65
