# Blender v2.78 (sub 0) OBJ File: ''
# www.blender.org
mtllib CapsuleSolid.mtl
v 2.406664 2.615519 -4.168466
v 4.813330 2.615516 0.000000
v 2.787750 0.000003 -4.828526
v 5.575500 0.000000 0.000000
v -2.406665 2.615519 -4.168466
v -2.787751 0.000003 -4.828526
v -4.813330 2.615516 0.000001
v -5.575500 -0.000000 0.000001
v -2.406664 2.615513 4.168468
v -2.787750 -0.000003 4.828526
v 2.406666 2.615513 4.168468
v 2.787752 -0.000003 4.828525
v -1.450000 -0.017317 4.785662
v -1.000000 -0.017317 6.735290
v -0.975000 1.090681 4.391457
v -1.000000 0.736229 6.161777
v 1.450000 -0.017317 4.785662
v 0.975000 1.090681 4.391457
v 1.000000 -0.017317 6.735290
v 1.000000 0.736229 6.161777
v 4.869504 -0.017314 -1.137095
v 6.332932 -0.017314 -2.501620
v 4.290613 1.090684 -1.351354
v 5.836256 0.736232 -2.214864
v -4.836256 0.736235 -3.946915
v -5.332932 -0.017311 -4.233671
v -5.836256 0.736232 -2.214864
v -6.332932 -0.017314 -2.501620
v 3.419505 -0.017311 -3.648568
v 3.315613 1.090685 -3.040103
v 5.332932 -0.017311 -4.233671
v 4.836256 0.736235 -3.946915
v -3.419505 -0.017311 -3.648568
v -3.315613 1.090685 -3.040103
v -4.869504 -0.017314 -1.137095
v -4.290613 1.090684 -1.351354
v 0.000000 3.811493 0.000003
v 0.000000 0.000000 0.000000
v -2.188328 13.191493 -3.790288
v 2.188327 13.191493 -3.790288
v 0.000000 12.203900 0.000006
v 2.188329 13.191487 3.790299
v -2.188326 13.191487 3.790300
v 4.376655 13.191490 0.000006
v -4.376655 13.191490 0.000007
v 1.539140 14.423760 2.665871
v 3.078277 14.423760 0.000006
v 0.000000 15.000000 0.000006
v 1.539138 14.423760 -2.665860
v -1.539139 14.423760 -2.665860
v -1.539138 14.423760 2.665872
v -3.078277 14.423760 0.000006
vt 0.1412 -0.3373
vt 0.8235 -0.3373
vt 0.4824 -0.0275
vt 0.1412 -0.3373
vt 0.8235 -0.3373
vt 0.1412 -0.3373
vt 0.8235 -0.3373
vt 0.1412 -0.3373
vt 0.8235 -0.3373
vt 0.1412 -0.3373
vt 0.8235 -0.3373
vt 0.1412 -0.3373
vt 0.8235 -0.3373
vt 0.0000 -0.9961
vt 0.9686 -0.9961
vt 0.0000 -0.9961
vt 0.9686 -0.9961
vt 0.0000 -0.9961
vt 0.9686 -0.9961
vt 0.0000 -0.9961
vt 0.9686 -0.9961
vt 0.0000 -0.9961
vt 0.9686 -0.9961
vt 0.0000 -0.9961
vt 0.9686 -0.9961
vt 0.9216 -1.0000
vt 0.0000 -1.0000
vt 0.9608 -0.4392
vt 0.1294 -0.6157
vt 0.9216 -1.0000
vt 0.9608 -0.4392
vt 0.0000 -1.0000
vt 0.1294 -0.6157
vt 0.0000 -0.6039
vt 0.9686 -0.6039
vt 0.9686 -1.0000
vt 0.9216 -1.0000
vt 0.0000 -1.0000
vt 0.9608 -0.4392
vt 0.1294 -0.6157
vt 0.0000 -0.6039
vt 0.0000 -1.0000
vt 0.9686 -0.6039
vt 0.9686 -1.0000
vt 0.9216 -1.0000
vt 0.9608 -0.4392
vt 0.0000 -1.0000
vt 0.1294 -0.6157
vt 0.0000 -0.6039
vt 0.9686 -0.6039
vt 0.9686 -1.0000
vt 0.9216 -1.0000
vt 0.9608 -0.4392
vt 0.1294 -0.6157
vt 0.9216 -1.0000
vt 0.9608 -0.4392
vt 0.0000 -1.0000
vt 0.1294 -0.6157
vt 0.0000 -0.6039
vt 0.0000 -0.0275
vt 0.9686 -0.6039
vt 0.9686 -0.0275
vt 0.0000 -0.6039
vt 0.0000 -0.0275
vt 0.9686 -0.6039
vt 0.9686 -0.0275
vt 0.0000 -0.6039
vt 0.0000 -0.0275
vt 0.9686 -0.6039
vt 0.9686 -0.0275
vt 0.9686 -0.0275
vt 0.0000 -0.0275
vt 0.4824 -0.9961
vt 0.9686 -0.0275
vt 0.0000 -0.0275
vt 0.9686 -0.0275
vt 0.0000 -0.0275
vt 0.9686 -0.0275
vt 0.0000 -0.0275
vt 0.9686 -0.0275
vt 0.0000 -0.0275
vt 0.9686 -0.0275
vt 0.0000 -0.0275
vt 0.9686 -1.0000
vt 0.8588 -0.0275
vt 0.0000 -1.0000
vt 0.1373 -0.0275
vt 0.9686 -1.0000
vt 0.8588 -0.0275
vt 0.0000 -1.0000
vt 0.1373 -0.0275
vt 0.9686 -1.0000
vt 0.8588 -0.0275
vt 0.0000 -1.0000
vt 0.1373 -0.0275
vt 0.9020 -0.0275
vt 0.0627 -0.0275
vt 0.9686 -1.0000
vt 0.0000 -1.0000
vt 0.9020 -0.0275
vt 0.0627 -0.0275
vt 0.9686 -1.0000
vt 0.0000 -1.0000
vt 0.9020 -0.0275
vt 0.0627 -0.0275
vt 0.9686 -1.0000
vt 0.0000 -1.0000
vt 0.9020 -0.0275
vt 0.0627 -0.0275
vt 0.9686 -1.0000
vt 0.0000 -1.0000
vt 0.9020 -0.0275
vt 0.0627 -0.0275
vt 0.9686 -1.0000
vt 0.0000 -1.0000
vt 0.9020 -0.0275
vt 0.0627 -0.0275
vt 0.9686 -1.0000
vt 0.0000 -1.0000
vt 0.0000 -1.0000
vt 0.9686 -1.0000
vt 0.4824 -0.0275
vt 0.0000 -1.0000
vt 0.9686 -1.0000
vt 0.0000 -1.0000
vt 0.9686 -1.0000
vt 0.0000 -1.0000
vt 0.9686 -1.0000
vt 0.0000 -1.0000
vt 0.9686 -1.0000
vt 0.0000 -1.0000
vt 0.9686 -1.0000
vt 0.9686 -1.0000
vt 0.0000 -1.0000
vt 0.4824 -0.0275
vt 0.9686 -1.0000
vt 0.0000 -1.0000
vt 0.9686 -1.0000
vt 0.0000 -1.0000
vt 0.9686 -1.0000
vt 0.0000 -1.0000
vt 0.9686 -1.0000
vt 0.0000 -1.0000
vt 0.9686 -1.0000
vt 0.0000 -1.0000
vn 0.2229 0.8951 0.3861
vn 0.4459 0.8951 0.0000
vn -0.0000 1.0000 0.0000
vn 0.2229 0.8951 -0.3861
vn -0.2229 0.8951 -0.3861
vn -0.2229 0.8951 0.3861
vn -0.4459 0.8951 0.0000
vn 0.4731 -0.3238 0.8194
vn 0.9461 -0.3238 -0.0000
vn 0.4731 -0.3238 -0.8194
vn -0.4731 -0.3238 -0.8194
vn -0.4731 -0.3238 0.8194
vn -0.9461 -0.3238 0.0000
vn -0.8013 -0.5868 0.1168
vn -0.7086 -0.0627 0.7029
vn -0.5761 0.7914 0.2043
vn -0.3918 0.7906 0.4705
vn 0.8012 -0.5868 0.1168
vn 0.5762 0.7914 0.2043
vn 0.7085 -0.0627 0.7029
vn 0.3918 0.7906 0.4705
vn 0.5018 -0.5868 0.6355
vn 0.9630 -0.0626 0.2622
vn 0.4650 0.7914 0.3968
vn 0.6034 0.7906 0.1041
vn -0.2115 0.7906 -0.5746
vn -0.2544 -0.0627 -0.9651
vn -0.6034 0.7906 0.1041
vn -0.9630 -0.0627 0.2622
vn -0.2995 -0.5868 -0.7523
vn -0.1112 0.7914 -0.6011
vn 0.2544 -0.0627 -0.9651
vn 0.2115 0.7906 -0.5746
vn 0.2995 -0.5869 -0.7523
vn 0.1112 0.7914 -0.6011
vn -0.5018 -0.5868 0.6355
vn -0.4650 0.7914 0.3968
vn 0.3717 -0.6688 -0.6439
vn 0.7435 -0.6688 -0.0000
vn -0.0000 -1.0000 -0.0000
vn -0.3718 -0.6688 -0.6438
vn -0.7435 -0.6688 0.0000
vn -0.3717 -0.6688 0.6439
vn 0.3718 -0.6688 0.6438
vn 0.3333 0.7454 -0.5773
vn 0.6667 0.7454 -0.0000
vn -0.3333 0.7454 -0.5773
vn -0.6667 0.7454 0.0000
vn -0.3333 0.7454 0.5773
vn 0.3333 0.7454 0.5773
usemtl object_004BF28C_material_9
s 1
f 46/1/1 47/2/2 48/3/3
f 49/4/4 50/5/5 48/3/3
f 51/6/6 46/7/1 48/3/3
f 52/8/7 51/9/6 48/3/3
f 47/10/2 49/11/4 48/3/3
f 50/12/5 52/13/7 48/3/3
f 42/14/8 44/15/9 46/1/1
f 46/1/1 44/15/9 47/2/2
f 40/16/10 39/17/11 49/4/4
f 49/4/4 39/17/11 50/5/5
f 43/18/12 42/19/8 51/6/6
f 51/6/6 42/19/8 46/7/1
f 45/20/13 43/21/12 52/8/7
f 52/8/7 43/21/12 51/9/6
f 44/22/9 40/23/10 47/10/2
f 47/10/2 40/23/10 49/11/4
f 39/24/11 45/25/13 50/12/5
f 50/12/5 45/25/13 52/13/7
usemtl object_004BF28C_material_15
f 13/26/14 14/27/15 15/28/16
f 15/28/16 14/27/15 16/29/17
f 17/30/18 18/31/19 19/32/20
f 19/32/20 18/31/19 20/33/21
f 16/34/17 14/27/15 20/35/21
f 20/35/21 14/27/15 19/36/20
f 21/37/22 22/38/23 23/39/24
f 23/39/24 22/38/23 24/40/25
f 25/41/26 26/42/27 27/43/28
f 27/43/28 26/42/27 28/44/29
f 29/45/30 30/46/31 31/47/32
f 31/47/32 30/46/31 32/48/33
f 24/49/25 22/38/23 32/50/33
f 32/50/33 22/38/23 31/51/32
f 33/52/34 26/42/27 34/53/35
f 34/53/35 26/42/27 25/54/26
f 35/55/36 36/56/37 28/57/29
f 28/57/29 36/56/37 27/58/28
f 32/59/33 30/60/31 24/61/25
f 24/61/25 30/60/31 23/62/24
f 27/63/28 36/64/37 25/65/26
f 25/65/26 36/64/37 34/66/35
f 20/67/21 18/68/19 16/69/17
f 16/69/17 18/68/19 15/70/16
usemtl object_004BF28C_material_12
f 3/71/38 4/72/39 38/73/40
f 6/74/41 3/75/38 38/73/40
f 8/76/42 6/77/41 38/73/40
f 10/78/43 8/79/42 38/73/40
f 12/80/44 10/81/43 38/73/40
f 4/82/39 12/83/44 38/73/40
f 35/84/36 28/85/29 33/86/34
f 33/86/34 28/85/29 26/87/27
f 17/88/18 19/89/20 13/90/14
f 13/90/14 19/89/20 14/91/15
f 29/92/30 31/93/32 21/94/22
f 21/94/22 31/93/32 22/95/23
usemtl object_004BF28C_material_16
f 1/96/45 2/97/46 3/98/38
f 3/98/38 2/97/46 4/99/39
f 5/100/47 1/101/45 6/102/41
f 6/102/41 1/101/45 3/103/38
f 7/104/48 5/105/47 8/106/42
f 8/106/42 5/105/47 6/107/41
f 9/108/49 7/109/48 10/110/43
f 10/110/43 7/109/48 8/111/42
f 11/112/50 9/113/49 12/114/44
f 12/114/44 9/113/49 10/115/43
f 2/116/46 11/117/50 4/118/39
f 4/118/39 11/117/50 12/119/44
usemtl object_004BF28C_material_14
f 2/120/46 1/121/45 37/122/3
f 7/123/48 9/124/49 37/122/3
f 37/122/3 1/125/45 5/126/47
f 5/127/47 7/128/48 37/122/3
f 37/122/3 9/129/49 11/130/50
f 11/131/50 2/132/46 37/122/3
f 39/133/11 40/134/10 41/135/40
f 42/136/8 43/137/12 41/135/40
f 41/135/40 40/138/10 44/139/9
f 44/140/9 42/141/8 41/135/40
f 41/135/40 43/142/12 45/143/13
f 45/144/13 39/145/11 41/135/40
