# Blender v2.79 (sub 0) OBJ File: ''
# www.blender.org
mtllib SnowheadTransparent.mtl
v -4326.607910 1516.635498 -214.182495
v -4485.827148 1516.635254 -159.829102
v -4567.230469 1516.635254 -129.460327
v -4610.549805 1516.635132 90.679382
v -4423.326172 1516.635132 154.743164
v -4258.786133 1516.635132 154.127197
v -4065.599121 1516.635132 40.940617
v -3976.422363 1516.635254 -124.049133
v -4163.858398 1516.635498 -214.620850
v -4546.493652 1516.635498 -334.099365
v -4692.671875 1516.636597 -508.324860
v -4756.316406 1516.636597 -419.438232
v -4640.678711 1516.635498 -298.847534
v -4930.423828 1516.636597 -533.640015
v -4957.575195 1516.636597 -424.232300
v -5448.317383 1516.636597 -557.726807
v -5216.377441 1516.636597 -431.768188
v -5495.614258 1516.637085 -1035.390625
v -5339.711914 1516.638184 -1238.942749
v -5135.411621 1516.638428 -1422.567139
v -5015.333496 1516.638428 -1439.883057
v -4963.203125 1516.638306 -1266.576660
v -5026.107910 1516.637085 -1043.291626
v -5022.594727 1516.636841 -788.598999
v -4397.937500 1342.764282 -3455.292725
v -4215.259766 1342.764771 -3621.680176
v -4740.553223 1342.764160 -3471.182129
v -5031.925781 1342.764771 -3789.540283
v -5183.864746 1342.764771 -3683.201416
v -4799.242188 1342.764771 -3810.050537
v -4783.787109 1342.765381 -4016.056152
v -4458.261230 1342.764771 -3638.201416
v -4664.267090 1342.764771 -3653.656738
v -4093.309082 1342.764893 -3725.078857
v -4073.588379 1342.765503 -4079.066406
v -4286.412109 1342.765503 -3979.182617
v -4301.867188 1342.764771 -3773.176758
v -4117.839844 1342.766235 -4542.738281
v -4421.387695 1342.765625 -4135.578125
v -3957.728027 1342.765503 -4057.257324
v -4661.789551 1342.765625 -4253.411621
v -4627.393555 1342.765625 -4151.033691
v -4504.826172 1342.766113 -4388.574707
v -4489.940918 1342.766235 -4594.392578
v -4624.346191 1342.766724 -4750.974609
v -4344.914551 1342.766846 -4853.872070
v -4838.289551 1342.766968 -4955.243652
v -4682.366699 1342.766968 -4942.224609
v -5237.806152 1342.766724 -4858.230957
v -4830.921875 1342.766724 -4766.241699
v -5386.823242 1342.765503 -4298.599609
v -5002.770508 1342.766113 -4425.260742
v -4987.315430 1342.766113 -4631.266602
v -4867.795410 1342.765503 -4268.866211
vt -2.541000 -0.777300
vt -1.450200 -2.124000
vt -2.336900 -2.443400
vt -1.857400 -0.175800
vt -5.102500 0.553700
vt -3.418900 0.894500
vt -3.633800 0.085900
vt -4.914100 1.253900
vt -4.593800 2.621100
vt -6.890600 0.012700
vt -7.576200 1.511700
vt -7.704100 2.877900
vt -6.924800 4.573200
vt -5.630900 5.447300
vt -4.723600 3.969700
vt -6.960000 -3.199700
vt -7.576700 -2.292000
vt -7.715300 -1.221700
vt -7.272000 -1.062000
vt -6.178200 -1.340800
vt -5.118200 -1.251000
vt -4.219200 -0.898400
vt -4.179700 -2.471200
vt -4.960000 -3.199700
vt -3.478500 -1.043500
vt -3.502900 -1.547400
vt -0.498000 0.090600
vt -0.166500 0.228000
vt -0.404800 -0.304700
vt -1.088100 0.003700
vt -1.301500 0.559300
vt -0.966800 0.559300
vt -0.829600 0.228000
vt -1.126000 0.950900
vt -1.021500 1.208700
vt -0.449200 1.432900
vt -0.498000 1.028100
vt -0.829600 0.890900
vt 0.339600 1.612100
vt -0.166500 0.890900
vt -0.548100 1.612100
vt 0.158400 0.558800
vt -0.029300 0.559300
vt 0.295700 0.890400
vt 0.627200 1.027600
vt 0.958700 0.890400
vt 0.975800 1.407000
vt 1.411900 0.648400
vt 1.305200 0.898900
vt 1.469000 -0.062000
vt 1.095900 0.558800
vt 0.627200 -0.612500
vt 0.627200 0.090100
vt 0.958700 0.227300
vt 0.295700 0.227300
vt -0.498000 -0.612500
vn 0.0000 1.0000 0.0000
vn -0.0000 -1.0000 0.0000
usemtl Shape.010_194E92C8_c.png
s 1
f 12/1/1 14/2/1 15/3/1
f 12/1/1 11/4/1 14/2/1
f 3/5/1 10/6/1 13/7/1
f 3/5/1 2/8/1 10/6/1
f 10/6/1 12/1/1 13/7/1
f 10/6/1 11/4/1 12/1/1
f 1/9/1 3/5/1 4/10/1
f 1/9/1 2/8/1 3/5/1
f 1/9/1 5/11/1 6/12/1
f 1/9/1 4/10/1 5/11/1
f 1/9/1 7/13/1 8/14/1
f 1/9/1 6/12/1 7/13/1
f 1/9/1 8/14/1 9/15/1
f 16/16/1 17/17/1 15/18/1
f 16/16/1 14/19/1 24/20/1
f 16/16/1 24/20/1 23/21/1
f 16/16/1 15/18/1 14/19/1
f 23/21/1 22/22/1 19/23/1
f 16/16/1 23/21/1 18/24/1
f 22/22/1 21/25/1 20/26/1
f 23/21/1 19/23/1 18/24/1
f 22/22/1 20/26/1 19/23/1
usemtl Shape.225
f 30/27/1 31/28/1 28/29/1
f 27/30/1 30/27/1 28/29/1
f 27/30/1 25/31/1 32/32/1
f 33/33/1 30/27/1 27/30/1
f 25/31/2 26/34/2 34/35/2
f 27/30/1 32/32/1 33/33/1
f 35/36/1 36/37/1 37/38/1
f 25/31/1 34/35/1 37/38/1
f 35/36/1 38/39/1 39/40/1
f 35/36/1 37/38/1 34/35/1
f 35/36/1 40/41/1 38/39/1
f 35/36/1 39/40/1 36/37/1
f 38/39/1 41/42/1 42/43/1
f 38/39/1 43/44/1 41/42/1
f 38/39/1 44/45/1 43/44/1
f 38/39/1 42/43/1 39/40/1
f 38/39/1 45/46/1 44/45/1
f 38/39/1 46/47/1 45/46/1
f 46/47/1 47/48/1 45/46/1
f 46/47/1 48/49/1 47/48/1
f 47/48/1 49/50/1 50/51/1
f 47/48/1 50/51/1 45/46/1
f 49/50/1 51/52/1 52/53/1
f 49/50/1 53/54/1 50/51/1
f 51/52/1 28/29/1 31/28/1
f 49/50/1 52/53/1 53/54/1
f 51/52/1 54/55/1 52/53/1
f 51/52/1 31/28/1 54/55/1
f 54/55/1 42/43/1 41/42/1
f 54/55/1 31/28/1 42/43/1
f 51/52/1 29/56/1 28/29/1
f 32/32/1 25/31/1 37/38/1
