# Blender v2.78 (sub 0) OBJ File: ''
# www.blender.org
mtllib Body.mtl
v 1.000934 0.000247 -0.896348
v 1.315875 0.004541 -0.003464
v 0.986889 -0.855991 -0.632783
v 1.022327 0.859027 -0.637181
v 1.038539 1.217289 -0.007098
v 0.988415 -1.208112 -0.000878
v 1.004628 -0.849849 0.629203
v 1.026029 0.008932 0.888372
v 1.040074 0.865169 0.624807
v 1.038539 1.217289 -0.007098
v 0.396644 1.217415 -0.903787
v 0.419655 1.725908 -0.009493
v 1.022327 0.859027 -0.637181
v 0.366280 -0.001477 -1.271631
v 1.000934 0.000247 -0.896348
v 0.346343 -1.216758 -0.897545
v 0.986889 -0.855991 -0.632783
v 0.348513 -1.716535 -0.000665
v 0.988415 -1.208112 -0.000878
v 0.371525 -1.208042 0.893628
v 1.004628 -0.849849 0.629203
v 0.401897 0.010852 1.261471
v 1.026029 0.008932 0.888372
v 0.421825 1.226133 0.887387
v 1.040074 0.865169 0.624807
v -1.051855 -0.803554 -0.558961
v -2.397422 -0.826754 -1.089243
v -1.043418 0.087182 -1.275246
v -0.383615 1.217538 -0.905140
v -0.413978 -0.001355 -1.272983
v -1.061139 1.298979 -0.458735
v -1.049406 -1.058866 -0.004797
v -1.266710 0.093388 -0.008168
v -0.433916 -1.216637 -0.898898
v -0.431746 -1.716411 -0.002017
v -0.408735 -1.207919 0.892276
v -1.036287 -0.798167 0.548044
v -0.378362 0.010974 1.260119
v -0.358434 1.226254 0.886034
v -0.360604 1.726031 -0.010845
v -1.048544 1.303339 0.436852
v -2.367012 -0.816228 1.073792
v -1.007767 0.099519 1.259745
vt 0.9843 0.4941
vt 0.4902 0.4941
vt 0.8392 0.1451
vt 0.8392 0.8431
vt 0.4902 0.9882
vt 0.4902 0.0039
vt 0.1412 0.1451
vt 0.0000 0.4941
vt 0.1412 0.8431
vt 1.0039 1.7020
vt 0.5177 1.7059
vt 1.0039 2.0000
vt 0.7647 1.4980
vt 0.4078 1.0000
vt 0.6784 1.0000
vt 0.5177 0.2941
vt 0.7647 0.5020
vt 1.0039 0.0000
vt 1.0039 0.2980
vt 1.4863 0.2941
vt 1.2431 0.5020
vt 1.5961 1.0000
vt 1.3255 1.0000
vt 1.4863 1.7059
vt 1.2431 1.4980
vt 3.5294 0.5333
vt 3.3373 0.5216
vt 3.7647 1.0510
vt 4.0941 1.7059
vt 4.0667 1.0000
vt 3.4274 1.7529
vt 3.0118 0.3843
vt 3.0118 1.0510
vt 4.0941 0.2941
vt 5.0039 0.0000
vt 1.9098 0.2941
vt 2.4902 0.5333
vt 1.9373 1.0000
vt 1.9098 1.7059
vt 1.0039 0.0000
vt 0.0941 0.2941
vt 0.0667 1.0000
vt 0.0941 1.7059
vt 1.0039 2.0000
vt 5.0039 2.0000
vt 2.5922 1.7529
vt 2.6823 0.5216
vt 2.2588 1.0510
vn 0.7262 -0.0709 -0.6838
vn 0.9997 -0.0199 -0.0129
vn 0.7660 -0.4508 -0.4584
vn 0.7605 0.3241 -0.5627
vn 0.8163 0.5684 -0.1029
vn 0.8024 -0.5914 0.0805
vn 0.7599 -0.3552 0.5444
vn 0.7359 0.0426 0.6758
vn 0.7830 0.4310 0.4484
vn 0.8162 0.5685 -0.1029
vn 0.3080 0.5752 -0.7578
vn 0.3457 0.9380 -0.0251
vn 0.7604 0.3241 -0.5627
vn 0.2662 -0.0149 -0.9638
vn 0.2882 -0.6087 -0.7392
vn 0.3377 -0.9411 0.0186
vn 0.3044 -0.5867 0.7504
vn 0.2666 0.0040 0.9638
vn 0.7358 0.0426 0.6758
vn 0.2929 0.6039 0.7413
vn -0.2849 -0.6088 -0.7404
vn -0.0909 -0.0676 -0.9936
vn -0.0451 -0.0540 -0.9975
vn -0.1572 0.6867 -0.7098
vn -0.1766 0.0401 -0.9835
vn -0.6233 0.6528 -0.4306
vn -0.7091 -0.6271 -0.3223
vn -0.8345 -0.5508 0.0133
vn -0.9921 -0.1247 0.0119
vn -0.6291 -0.1277 0.7667
vn -0.7913 -0.5909 0.1569
vn -0.9431 -0.0973 0.3179
vn -0.9235 0.1701 0.3437
vn -0.9851 -0.0168 0.1711
vn -0.7198 0.6196 -0.3130
vn -0.6808 0.1714 -0.7121
vn -0.6232 0.6528 -0.4306
vn -0.3588 0.6766 -0.6430
vn -0.4864 -0.5720 -0.6604
vn -0.3616 -0.5765 -0.7327
vn -0.5504 -0.6955 -0.4619
vn -0.3271 -0.9385 -0.1103
vn -0.3562 -0.6723 0.6490
vn -0.7049 -0.6222 0.3407
vn -0.5458 -0.6890 0.4768
vn -0.1771 -0.0481 0.9830
vn -0.4812 -0.5629 0.6720
vn -0.1587 0.5646 0.8100
vn -0.1798 0.9795 0.0908
vn -0.6213 0.6512 0.4357
vn -0.9921 -0.1247 0.0118
vn -0.9287 0.1652 -0.3320
vn -0.7178 0.6178 0.3210
vn -0.9888 -0.0187 -0.1480
vn -0.6369 -0.1330 -0.7594
vn -0.9502 -0.0998 -0.2953
vn -0.7929 -0.5945 -0.1338
vn -0.0466 -0.0496 0.9977
vn -0.0907 -0.0673 0.9936
vn -0.2823 -0.6006 0.7480
vn -0.5145 0.6370 0.5740
vn -0.6785 0.1707 0.7145
usemtl belly.009
s 1
f 1/1/1 2/2/2 3/3/3
f 4/4/4 2/2/2 1/1/1
f 4/4/4 5/5/5 2/2/2
f 6/6/6 3/3/3 2/2/2
f 7/7/7 6/6/6 2/2/2
f 8/8/8 7/7/7 2/2/2
f 9/9/9 8/8/8 2/2/2
f 9/9/9 2/2/2 5/5/5
usemtl fur.009
f 10/10/10 11/11/11 12/12/12
f 13/13/13 11/11/11 10/10/10
f 13/13/13 14/14/14 11/11/11
f 15/15/1 14/14/14 13/13/13
f 15/15/1 16/16/15 14/14/14
f 17/17/3 16/16/15 15/15/1
f 17/17/3 18/18/16 16/16/15
f 19/19/6 18/18/16 17/17/3
f 19/19/6 20/20/17 18/18/16
f 21/21/7 20/20/17 19/19/6
f 21/21/7 22/22/18 20/20/17
f 23/23/19 22/22/18 21/21/7
f 23/23/19 24/24/20 22/22/18
f 25/25/9 24/24/20 23/23/19
f 26/26/21 27/27/22 28/28/23
f 29/29/24 30/30/25 31/31/26
f 26/26/27 32/32/28 33/33/29
f 27/27/30 26/26/31 33/33/32
f 27/27/33 33/33/34 31/31/35
f 28/28/23 27/27/36 31/31/37
f 28/28/23 31/31/38 30/30/25
f 26/26/39 28/28/23 30/30/25
f 26/26/39 30/30/25 34/34/40
f 32/32/28 26/26/41 34/34/40
f 32/32/28 34/34/40 35/35/42
f 36/36/43 32/32/28 35/35/42
f 32/32/28 37/37/44 33/33/29
f 36/36/43 37/37/45 32/32/28
f 36/36/43 38/38/46 37/37/47
f 22/22/18 24/24/20 39/39/48
f 22/22/18 39/39/48 38/38/46
f 20/20/17 22/22/18 38/38/46
f 20/20/17 38/38/46 36/36/43
f 18/18/16 20/20/17 36/36/43
f 18/18/16 36/36/43 35/40/42
f 16/16/15 18/18/16 35/40/42
f 16/16/15 35/40/42 34/41/40
f 14/14/14 16/16/15 34/41/40
f 14/14/14 34/41/40 30/42/25
f 11/11/11 14/14/14 30/42/25
f 11/11/11 30/42/25 29/43/24
f 12/12/12 11/11/11 29/43/24
f 12/12/12 29/43/24 40/44/49
f 40/45/49 29/29/24 31/31/26
f 41/46/50 40/45/49 31/31/26
f 41/46/50 31/31/35 33/33/51
f 42/47/52 41/46/53 33/33/54
f 42/47/55 33/33/56 37/37/57
f 43/48/58 42/47/59 37/37/60
f 43/48/58 37/37/47 38/38/46
f 41/46/61 43/48/58 38/38/46
f 41/46/50 38/38/46 39/39/48
f 40/44/49 41/46/50 39/39/48
f 24/24/20 40/44/49 39/39/48
f 24/24/20 12/12/12 40/44/49
f 12/12/12 24/24/20 25/25/9
f 10/10/10 12/12/12 25/25/9
f 42/47/62 43/48/58 41/46/50
