# Blender v2.78 (sub 0) OBJ File: ''
# www.blender.org
mtllib FootR.mtl
v 0.065835 0.211938 -0.445224
v -1.045895 0.425235 -0.590161
v 0.065468 0.211535 0.367775
v -1.046402 0.424579 0.67001
v -1.047879 -0.871198 -0.572644
v -0.101835 -0.869398 -0.444052
v -0.433621 -1.615121 -0.223513
v -1.046741 -1.940285 -0.154561
v -0.102246 -0.869831 0.424201
v -0.433817 -1.615384 0.290882
v -1.046936 -1.940454 0.227696
v -1.048416 -0.871815 0.68123
v -1.046402 0.424579 0.67001
v -1.045895 0.425235 -0.590161
v -1.047879 -0.871198 -0.572644
v -1.046741 -1.940285 -0.154561
v -1.046936 -1.940454 0.227696
v -0.102246 -0.869831 0.424201
v 0.065468 0.211535 0.367775
v -0.433817 -1.615384 0.290882
vt 0.8745 0.0627
vt 0.8471 0.1137
vt 0.0000 0.0863
vt 0.0275 0.0353
vt 0.3216 0.0039
vt 0.5804 0.0118
vt 0.0118 0.0157
vt 0.5294 0.8039
vt 0.0118 0.9569
vt 0.5294 0.0157
vt 0.8627 0.4392
vt 0.9529 0.0157
vt 0.3765 0.9569
vt 0.3765 0.0157
vt 0.0118 0.9569
vt 0.0118 0.0157
vt 0.5294 0.0157
vt 0.0118 0.9569
vt 0.5294 0.7451
vt 0.8627 0.4706
vt 0.9529 0.0157
vt 0.0118 0.0157
vt 0.0118 0.2274
vt 0.5294 0.2274
vt 0.5294 0.9569
vt 0.9529 0.9569
vt 0.9529 0.2274
vt 0.6784 0.0157
vt 0.6784 0.4392
vt 0.9529 0.0157
vt 0.9529 0.4392
vn -1.0 4.0E-4 -4.0E-4
vn -1.0 0.0016 -4.0E-4
vn -1.0 0.0015 -4.0E-4
vn -1.0 3.0E-4 -4.0E-4
vn -1.0 -0.0012 -5.0E-4
vn 0.3124 0.4368 0.8436
vn 0.6696 -0.205 0.7139
vn 0.8052 0.513 0.2974
vn 0.2122 -0.2231 0.9514
vn 0.6696 -0.2049 0.7139
vn 0.3123 0.4368 0.8436
vn 0.6639 -0.5898 0.4598
vn 0.4087 -0.8401 0.3565
vn 0.8175 0.576 6.0E-4
vn 0.1883 0.9821 6.0E-4
vn 0.8053 0.513 0.2973
vn 0.1211 -0.1855 -0.9752
vn 0.5316 -0.0804 -0.8432
vn 0.859 -0.3114 -0.4064
vn 0.517 -0.718 -0.466
vn 0.3373 -0.7551 -0.5623
vn 0.1267 -0.0136 -0.9918
vn 0.5587 0.3082 -0.7699
vn 0.8052 0.5129 0.2974
vn 0.6697 -0.2049 0.7137
vn 0.6639 -0.5897 0.4598
usemtl shoe.008
s 1
f 12/1/1 13/2/2 14/3/3
f 12/1/1 14/3/3 15/4/4
f 12/1/1 15/4/4 16/5/5
f 17/6/5 12/1/1 16/5/5
f 13/7/6 18/8/7 19/9/8
f 12/10/9 18/8/10 13/7/11
f 12/10/9 20/11/12 18/8/10
f 17/12/13 20/11/12 12/10/9
usemtl shoeback.008
f 1/13/14 2/14/15 3/15/16
f 3/15/16 2/14/15 4/16/11
f 5/17/17 1/18/18 6/19/19
f 5/17/17 6/19/19 7/20/20
f 8/21/21 5/17/17 7/20/20
f 1/18/18 5/17/17 2/22/22
f 1/23/23 3/15/24 6/24/19
f 6/24/19 3/15/24 9/25/25
f 6/24/19 9/25/25 10/26/26
f 7/27/20 6/24/19 10/26/26
f 8/28/21 7/29/20 11/30/13
f 11/30/13 7/29/20 10/31/26
