# Blender v2.78 (sub 0) OBJ File: ''
# www.blender.org
mtllib Head.mtl
v -0.286276 3.224575 1.671168
v 0.542216 3.932982 0.782648
v 0.342509 4.409174 1.739157
v 0.502751 3.930145 -0.952863
v -0.365152 3.218899 -1.798159
v 0.259359 4.403193 -1.917632
v 0.715293 1.781301 1.497995
v 0.905419 1.738949 1.292216
v 0.830084 1.994560 1.166010
v 0.639949 2.036910 1.371789
v 0.512728 1.756434 0.891076
v 0.322610 1.798790 1.096852
v 0.588071 1.500824 1.017278
v 0.397944 1.543175 1.223057
v 0.953825 2.195059 -1.197539
v 0.811533 2.044777 -1.397406
v 0.736800 2.297978 -1.528697
v 0.879093 2.448255 -1.328831
v 0.353967 2.323605 -1.248233
v 0.496260 2.473887 -1.048366
v 0.428701 2.070408 -1.116941
v 0.570993 2.220689 -0.917074
v -1.634021 0.295620 -0.003036
v -1.023868 0.097607 -0.611760
v -1.248121 0.111801 -0.005362
v -1.296346 0.280108 1.108220
v -0.996418 0.099581 0.595199
v -1.648422 0.821965 -1.454262
v -0.444382 1.040550 -1.912236
v -0.456185 0.754283 -1.988423
v -0.464320 0.468280 -1.903499
v 0.932371 0.391998 -1.495450
v 0.606246 0.168042 -1.145911
v 1.071311 0.145458 -0.036218
v 0.376873 0.021609 -0.025296
v 0.152618 0.035806 0.581102
v -0.437609 0.009789 -0.014459
v -0.416225 0.068099 0.838121
v -0.398179 0.231076 1.380750
v -0.378739 0.474440 1.860486
v -1.521651 0.536516 1.404707
v -0.366936 0.760707 1.936673
v -1.581783 0.826760 1.476657
v -0.358801 1.046708 1.851750
v -0.455031 0.065306 -0.868775
v -0.461779 0.226498 -1.416357
v 0.125179 0.033832 -0.625858
v -1.347047 0.276459 -1.121949
v -1.584859 0.531967 -1.375339
v -1.831044 0.549594 -0.004214
v -1.940225 0.842345 -0.007124
v 0.952300 0.964263 -1.504187
v 1.053881 0.671589 -1.621261
v 1.540006 0.362487 -0.045568
v 1.711589 0.639652 -0.051920
v 1.559943 0.934757 -0.054305
v 0.643089 1.225462 -1.162056
v 1.108155 1.202876 -0.052364
v 0.097320 1.132859 -1.626352
v 0.656955 0.171693 1.084257
v 0.998609 0.396759 1.418405
v 1.125585 0.676747 1.532675
v 1.018539 0.969025 1.409672
v 0.693783 1.229106 1.068115
v 0.169514 1.138053 1.549140
v 1.999661 0.769702 -0.249984
v 1.968942 0.893448 0.010920
v 2.043031 0.638670 0.139559
v 2.073749 0.514925 -0.121346
v 1.550010 0.631216 -0.245486
v 1.519292 0.754961 0.015417
v 1.624100 0.376440 -0.116846
v 1.593382 0.500185 0.144056
v -0.286276 3.224575 1.671168
v -0.318645 2.094476 1.997197
v 0.869905 3.158934 1.148772
v -0.365152 3.218899 -1.798159
v 0.814130 3.154919 -1.304412
v -0.411561 2.087792 -2.089664
v -0.358801 1.046708 1.851750
v 0.169514 1.138053 1.549140
v 0.693783 1.229106 1.068115
v 1.314657 2.812872 -0.078910
v 1.108155 1.202876 -0.052364
v 0.643089 1.225462 -1.162056
v 0.097320 1.132859 -1.626352
v -0.444382 1.040550 -1.912236
v -2.559884 1.497126 -2.279347
v -2.470441 1.498741 -0.009906
v -1.927258 2.173194 -1.630138
v -1.977142 3.313392 -0.043235
v -2.945936 3.360642 -2.284449
v -1.289258 4.029195 -1.072182
v -3.273833 4.142270 -0.038538
v 0.814130 3.154919 -1.304412
v -0.365152 3.218899 -1.798159
v 0.502751 3.930145 -0.952863
v 1.314657 2.812872 -0.078910
v 0.862915 3.912668 -0.089285
v 0.869905 3.158934 1.148772
v 0.542216 3.932982 0.782648
v -0.286276 3.224575 1.671168
v -2.457676 1.504482 2.215862
v -1.940225 0.842345 -0.007124
v -1.581783 0.826760 1.476657
v -1.648422 0.821965 -1.454262
v -0.444382 1.040550 -1.912236
v -0.411561 2.087792 -2.089664
v -0.318645 2.094476 1.997197
v -0.358801 1.046708 1.851750
v -1.854375 2.178439 1.575102
v -2.843516 3.368010 2.220490
v -1.243379 4.032498 0.945855
v -3.329583 2.255681 -0.009869
v 0.259359 4.403193 -1.917632
v -0.331837 3.974846 -1.501991
v 0.342509 4.409174 1.739157
v -0.266951 3.979517 1.351939
v -0.290147 4.242463 -0.079078
vt 1.5843 0.6039
vt 1.0000 0.6039
vt 1.6078 0.9255
vt 0.9961 1.4314
vt 1.5020 1.4235
vt 1.6628 1.7765
vt 1.0000 1.7608
vt 2.6039 1.4549
vt 2.1647 1.4431
vt 2.6314 1.7922
vt 3.0118 1.3137
vt 3.0118 1.7961
vt 3.4196 1.4549
vt 3.3922 1.7922
vt 3.8588 1.4471
vt 0.4235 0.6039
vt 0.9961 0.3255
vt 0.3098 0.3294
vt 1.6824 0.3294
vt 2.1608 0.4667
vt 2.1451 0.9373
vt 3.8745 0.9412
vt 4.4235 0.6039
vt 4.3098 0.3294
vt 3.8588 0.4667
vt 0.3961 0.9294
vt 0.5020 1.4235
vt 0.3372 1.7765
vt 1.0000 0.9176
vt 2.3333 1.9961
vt 2.1922 1.7843
vt 3.6863 2.0000
vt 3.8314 1.7843
vt 4.5020 1.4235
vt 4.3961 0.9294
vt 0.6823 0.9059
vt 0.4941 0.9882
vt 0.4941 0.7137
vt 0.8039 0.7098
vt 0.8392 0.3412
vt 0.9765 0.2000
vt 0.9373 0.7059
vt 0.7137 0.4823
vt 0.9843 0.0980
vt 0.4941 0.0078
vt 0.2745 0.4823
vt 0.1451 0.3412
vt 0.0471 0.7059
vt 0.0000 0.2000
vt 0.4941 0.3176
vt 0.4902 0.0039
vt 0.1804 0.7098
vt 0.0039 0.0980
vt 0.3020 0.9059
vt 0.7695 0.1775
vt 0.7618 0.1777
vt 0.7618 0.1867
vt 0.7695 0.1866
vt 0.7723 0.1869
vt 0.7801 0.1868
vt 0.7723 0.1778
vt 0.7801 0.1777
vt 0.7801 0.1777
vt 0.7723 0.1778
vt 0.7723 0.1869
vt 0.7801 0.1868
vt 0.7618 0.1867
vt 0.7695 0.1866
vt 0.7618 0.1777
vt 0.7695 0.1776
vt 0.2557 0.1397
vt 0.1948 0.0419
vt 0.2557 0.0419
vt 0.3673 0.1537
vt 0.3145 0.0419
vt 0.1096 0.5169
vt 0.0669 0.7265
vt 0.0588 0.5309
vt 0.0669 0.3353
vt 0.1096 0.3493
vt 0.1441 0.1677
vt 0.2557 0.1816
vt 0.2557 0.0559
vt 0.3145 0.0559
vt 0.2557 0.0000
vt 0.3409 0.0419
vt 0.3957 0.1677
vt 0.4424 0.3353
vt 0.3957 0.3213
vt 0.4505 0.5309
vt 0.4038 0.5169
vt 0.4424 0.7404
vt 0.1684 0.0419
vt 0.1157 0.1537
vt 0.1948 0.0559
vt 0.1441 0.1537
vt 0.1177 0.3213
vt 0.2557 0.3073
vt 0.2557 0.5169
vt 0.1096 0.7544
vt 0.0974 0.5449
vt 0.2557 0.3493
vt 0.2557 0.5588
vt 0.2557 0.7544
vt 0.1420 0.9221
vt 0.2557 0.9221
vt 0.0954 0.8243
vt 0.3673 0.1677
vt 0.3998 0.3493
vt 0.4120 0.5449
vt 0.3998 0.7544
vt 0.3673 0.9221
vt 0.4140 0.8243
vt 0.7618 0.1869
vt 0.7801 0.1869
vt 0.7801 0.1778
vt 0.7618 0.1778
vt 0.7618 0.1866
vt 0.7801 0.1867
vt 0.7618 0.1775
vt 0.7801 0.1776
vt 0.9569 -0.0039
vt 0.7255 0.6157
vt 0.9804 0.9882
vt 0.2549 0.6157
vt 0.0235 -0.0039
vt 0.0000 0.9843
vt -0.8471 0.9843
vt -1.0000 0.4745
vt -0.6000 0.9922
vt 0.1490 0.9804
vt 0.3961 0.9922
vt 0.0000 0.4745
vt -0.9176 0.0000
vt -0.7765 0.0588
vt -0.5451 0.1177
vt -0.0182 0.8510
vt -0.0221 0.1216
vt 0.9813 0.8485
vt 0.9852 0.1191
vt 0.4510 0.1177
vt 0.2196 0.0588
vt 0.0784 0.0000
vn -0.5004 0.7958 -0.3411
vn -0.9990 0.0283 -0.0358
vn -0.7826 0.5597 -0.2724
vn -0.8618 -0.4054 -0.3048
vn -0.9532 -0.1979 0.2284
vn -0.9771 -0.1867 -0.1023
vn -0.7440 0.6590 0.1106
vn -0.7506 0.6537 0.0958
vn -0.1782 0.9758 -0.1269
vn -0.8765 -0.4629 -0.1324
vn -0.5385 -0.8425 0.0165
vn -0.3929 -0.6107 -0.6875
vn 0.7471 0.1522 -0.6470
vn 0.2491 0.2310 -0.9405
vn 0.6922 0.5780 -0.4322
vn 0.9881 0.1536 -0.0098
vn 0.7472 0.1522 -0.6470
vn 0.6116 0.7236 -0.3198
vn 0.7081 0.7054 0.0323
vn 0.7430 0.2156 0.6336
vn 0.5229 0.7994 0.2959
vn 0.2770 0.2562 0.9261
vn 0.7430 0.2157 0.6336
vn 0.6319 0.6394 0.4380
vn -0.4382 -0.8179 0.3729
vn -0.8493 -0.5273 -0.0261
vn -0.5609 -0.3809 0.7351
vn -0.9218 -0.3875 -0.0105
vn -0.7445 -0.5513 0.3766
vn -0.6266 -0.4867 -0.6087
vn -0.2286 -0.7363 -0.6369
vn -0.6256 -0.5925 -0.5076
vn -0.7025 -0.7115 -0.0182
vn -0.2287 -0.7363 -0.6369
vn 0.1306 -0.0409 -0.9906
vn -0.6267 -0.4866 -0.6086
vn 0.2946 0.0168 -0.9555
vn 0.1547 0.0839 -0.9844
vn -0.2808 -0.4073 -0.8691
vn 0.1979 -0.0349 0.9796
vn -0.5162 -0.5394 0.6652
vn 0.1066 0.2258 0.9683
vn -0.9623 -0.1997 -0.1846
vn -0.8505 -0.3961 0.3460
vn -0.9720 -0.1817 0.1493
vn -0.7546 0.6526 -0.0687
vn -0.7502 0.6562 -0.0818
vn -0.1754 0.9759 0.1299
vn -0.8701 -0.4613 0.1738
vn -0.3768 -0.5936 0.7111
vn -0.9060 -0.3399 -0.2523
vn -0.7766 -0.3968 -0.4893
vn -0.7592 -0.3864 0.5237
vn -0.8950 -0.3371 0.2920
vn -0.7025 -0.7114 -0.0182
vn -0.7737 0.5545 0.3065
vn -0.9990 0.0283 -0.0359
vn -0.8507 0.4020 0.3388
vn -0.6396 0.7578 -0.1287
vn -0.2171 0.9511 -0.2195
vn 0.3087 0.9511 -0.0091
vn 0.0983 0.3520 -0.9308
vn -0.1510 0.9106 -0.3848
vn -0.6396 0.7578 -0.1288
vn 0.0054 0.2868 -0.9580
vn -0.1067 0.8303 -0.5470
vn 0.2947 0.0167 -0.9555
vn -0.7519 -0.1159 -0.6490
vn -0.2769 -0.2221 -0.9349
vn -0.6297 0.7634 0.1440
vn 0.2920 0.9562 0.0210
vn -0.2093 0.9527 0.2205
vn 0.1237 0.3764 0.9182
vn -0.1391 0.9141 0.3809
vn -0.0899 0.8361 0.5412
vn 0.0294 0.3084 0.9508
vn 0.1979 -0.0348 0.9796
vn 0.1980 -0.0349 0.9796
vn -0.2539 -0.1975 0.9469
vn -0.7263 -0.1098 0.6786
vn 0.3339 0.9201 0.2045
vn 0.1000 0.9950 -0.0043
vn -0.1390 0.9141 0.3809
vn -0.5598 0.5055 0.6566
vn -0.3591 0.4732 0.8045
vn 0.1980 -0.0348 0.9796
vn -0.0594 0.7691 0.6364
vn -0.0336 0.9994 -0.0016
vn -0.5827 0.5063 -0.6357
vn -0.3526 0.5801 -0.7343
vn -0.8406 0.4839 -0.2433
vn -0.6799 0.2417 -0.6923
vn -0.8925 0.3769 -0.2479
vn -0.6533 0.2460 0.7160
vn -0.8289 0.4875 0.2744
vn -0.8815 0.3815 0.2784
vn -0.0754 0.7595 -0.6461
vn 0.4721 0.8470 -0.2445
vn 0.6936 0.4728 0.5435
vn 0.9238 0.0883 -0.3727
vn 0.9198 0.3520 0.1734
vn -0.2734 0.8606 -0.4297
vn 0.7050 -0.1359 -0.6961
vn 0.9238 0.0882 -0.3726
vn 0.2734 -0.8606 0.4297
vn -0.7050 0.1359 0.6961
vn 0.9638 0.1849 -0.1920
vn 0.8292 -0.0442 -0.5572
vn 0.8324 0.4281 0.3518
vn -0.2710 0.8521 -0.4478
vn -0.5308 -0.5083 -0.6781
vn 0.2710 -0.8521 0.4478
vn 0.5308 0.5083 0.6781
vn -0.5897 -0.8076 0.0095
vn -0.2387 -0.9649 -0.1093
vn -0.2940 -0.9555 0.0233
vn -0.3370 -0.8979 0.2831
vn -0.1728 -0.9724 0.1568
vn -0.5941 -0.3981 -0.6990
vn -0.0244 -0.1122 -0.9934
vn -0.1249 -0.6522 -0.7477
vn -0.6267 -0.4866 -0.6087
vn -0.0244 -0.1121 -0.9934
vn 0.3995 -0.7285 -0.5565
vn 0.1565 -0.9524 -0.2618
vn 0.2991 -0.9540 -0.0205
vn 0.1110 -0.9936 -0.0190
vn 0.0776 -0.9920 0.0992
vn -0.0553 -0.9985 0.0030
vn -0.0424 -0.9812 0.1883
vn -0.0469 -0.9256 0.3755
vn -0.0419 -0.6509 0.7580
vn -0.6298 -0.5575 0.5409
vn -0.0457 0.0401 0.9981
vn -0.5609 -0.3809 0.7350
vn 0.1065 0.2258 0.9683
vn -0.0711 -0.9800 -0.1860
vn -0.0838 -0.9205 -0.3816
vn 0.0474 -0.9886 -0.1428
vn -0.4167 -0.8716 -0.2580
vn -0.6490 -0.6242 -0.4350
vn -0.8674 -0.4972 0.0221
vn -0.6267 -0.4867 -0.6086
vn 0.5295 0.6721 -0.5176
vn 0.6448 -0.0750 -0.7607
vn 0.6574 -0.7526 -0.0388
vn 0.9990 -0.0401 -0.0205
vn 0.7244 0.6893 0.0081
vn 0.6867 0.4656 -0.5583
vn 0.8873 0.4568 -0.0631
vn 0.4624 0.3995 -0.7915
vn 0.1803 0.2393 -0.9541
vn 0.1994 -0.9488 0.2449
vn 0.4539 -0.7532 0.4760
vn 0.6738 0.0237 0.7385
vn 0.4588 0.6985 0.5491
vn 0.7989 0.3429 0.4942
vn 0.5296 0.2993 0.7937
vn 0.9622 0.2719 -0.0157
vn 0.8624 -0.4105 0.2962
vn 0.8624 -0.4105 0.2963
vn -0.2685 0.8577 -0.4384
vn 0.1202 -0.4194 -0.8998
vn 0.2685 -0.8577 0.4384
vn -0.1202 0.4194 0.8998
vn 0.4516 0.2133 0.8663
vn 0.7902 0.2206 0.5717
vn 0.8034 -0.4489 0.3912
vn 0.8231 0.2429 -0.5134
vn 0.4258 0.1888 -0.8849
vn 0.7840 -0.4559 -0.4213
vn 0.2947 0.0168 -0.9554
vn 0.7989 0.3430 0.4942
vn 0.8874 0.4568 -0.0631
vn 0.6866 0.4656 -0.5584
usemtl fur.010
s 1
f 88/1/1 89/2/2 90/3/3
f 90/3/4 91/4/5 92/5/6
f 92/5/7 91/4/8 93/6/9
f 91/4/10 94/7/11 93/6/12
f 95/8/13 96/9/14 97/10/15
f 98/11/16 95/8/17 97/10/18
f 98/11/16 97/10/15 99/12/19
f 100/13/20 98/11/16 99/12/19
f 100/13/20 99/12/19 101/14/21
f 102/15/22 100/13/23 101/14/24
f 103/16/25 104/17/26 105/18/27
f 89/2/28 104/17/26 103/16/29
f 89/2/28 106/19/30 104/17/26
f 88/1/31 106/19/32 89/2/33
f 88/1/34 107/20/35 106/19/36
f 108/21/37 107/20/38 88/1/39
f 109/22/40 103/23/41 105/24/27
f 110/25/42 109/22/40 105/24/27
f 91/4/43 111/26/44 112/27/45
f 91/4/46 112/27/47 113/28/48
f 94/7/11 91/4/49 113/28/50
f 114/29/51 90/3/52 89/2/33
f 111/26/53 114/29/54 89/2/55
f 111/26/56 89/2/57 103/16/58
f 115/30/59 116/31/60 97/10/61
f 96/9/62 116/31/63 115/30/64
f 96/9/14 92/5/65 116/31/66
f 108/21/37 92/5/65 96/9/14
f 108/21/67 90/3/68 92/5/69
f 117/32/70 101/14/71 118/33/72
f 102/15/73 117/32/70 118/33/74
f 102/15/22 118/33/75 112/34/76
f 109/22/77 102/15/22 112/34/76
f 109/22/78 112/34/79 111/35/80
f 101/36/81 99/37/19 119/38/82
f 118/39/83 101/36/81 119/38/82
f 111/40/84 103/41/85 109/42/86
f 118/39/83 113/43/48 112/44/87
f 119/38/82 113/43/48 118/39/83
f 119/38/82 94/45/88 113/43/48
f 93/46/9 94/45/88 119/38/82
f 90/47/89 108/48/37 88/49/90
f 91/50/91 90/47/92 114/51/93
f 111/40/94 91/50/95 114/51/96
f 93/46/9 116/52/63 92/53/97
f 119/38/82 116/52/63 93/46/9
f 119/38/82 97/54/98 116/52/63
f 99/37/19 97/54/98 119/38/82
usemtl colors.010
f 7/55/99 8/56/100 9/57/101
f 10/58/99 7/55/99 9/57/101
f 9/57/102 11/59/102 12/60/102
f 8/56/100 11/59/103 9/57/101
f 8/56/104 13/61/103 11/59/103
f 7/55/105 13/61/105 8/56/105
f 7/55/105 14/62/105 13/61/105
f 10/58/106 14/62/106 7/55/106
f 10/58/106 12/60/106 14/62/106
f 9/57/102 12/60/102 10/58/102
f 15/63/107 16/64/108 17/65/108
f 18/66/109 15/63/107 17/65/108
f 17/65/110 19/67/110 20/68/110
f 16/64/111 19/67/111 17/65/111
f 16/64/111 21/69/111 19/67/111
f 15/63/112 21/69/112 16/64/112
f 15/63/112 22/70/112 21/69/112
f 18/66/109 22/70/113 15/63/107
f 18/66/109 20/68/113 22/70/113
f 17/65/110 20/68/110 18/66/110
f 23/71/114 24/72/115 25/73/116
f 26/74/117 23/71/114 25/73/116
f 26/74/117 25/73/116 27/75/118
f 28/76/119 29/77/38 30/78/120
f 31/79/121 28/76/122 30/78/123
f 31/79/121 30/78/123 32/80/124
f 33/81/125 31/79/121 32/80/124
f 33/81/125 32/80/124 34/82/126
f 35/83/127 33/81/125 34/82/126
f 35/83/127 34/82/126 36/84/128
f 37/85/129 35/83/127 36/84/128
f 37/85/129 36/84/128 38/86/130
f 27/75/118 37/85/129 38/86/130
f 27/75/118 38/86/130 39/87/131
f 26/74/117 27/75/118 39/87/131
f 26/74/117 39/87/131 40/88/132
f 41/89/133 26/74/117 40/88/132
f 41/89/133 40/88/132 42/90/134
f 43/91/135 41/89/133 42/90/134
f 43/91/135 42/90/134 44/92/136
f 45/93/137 46/94/138 47/95/139
f 48/96/140 46/94/138 45/93/137
f 48/96/140 49/97/141 46/94/138
f 50/98/142 49/97/141 48/96/140
f 50/98/142 51/99/26 49/97/141
f 43/91/135 51/99/26 50/98/142
f 33/81/125 47/95/139 46/94/138
f 31/79/121 33/81/125 46/94/138
f 31/79/121 46/94/138 49/97/141
f 28/76/122 31/79/121 49/97/141
f 28/76/143 49/97/141 51/99/26
f 29/77/38 52/100/144 53/101/145
f 30/78/123 29/77/38 53/101/145
f 30/78/123 53/101/145 32/80/124
f 35/83/127 47/95/139 33/81/125
f 37/85/129 47/95/139 35/83/127
f 37/85/129 45/93/137 47/95/139
f 24/72/115 45/93/137 37/85/129
f 24/72/115 48/96/140 45/93/137
f 23/71/114 48/96/140 24/72/115
f 23/71/114 50/98/142 48/96/140
f 41/89/133 50/98/142 23/71/114
f 41/89/133 43/91/135 50/98/142
f 32/80/124 54/102/146 34/82/126
f 53/101/145 54/102/146 32/80/124
f 53/101/145 55/103/147 54/102/146
f 52/100/144 55/103/147 53/101/145
f 52/100/144 56/104/148 55/103/147
f 56/104/148 57/105/149 58/106/150
f 52/100/144 57/105/149 56/104/148
f 52/100/144 59/107/151 57/105/149
f 29/77/152 59/107/151 52/100/144
f 60/108/153 36/84/128 34/82/126
f 60/108/153 34/82/126 54/102/146
f 61/109/154 60/108/153 54/102/146
f 61/109/154 54/102/146 55/103/147
f 62/110/155 61/109/154 55/103/147
f 62/110/155 55/103/147 56/104/148
f 63/111/156 62/110/155 56/104/148
f 63/111/156 56/104/148 58/106/150
f 64/112/157 63/111/156 58/106/150
f 38/86/130 36/84/128 60/108/153
f 39/87/131 38/86/130 60/108/153
f 39/87/131 60/108/153 61/109/154
f 40/88/132 39/87/131 61/109/154
f 40/88/132 61/109/154 62/110/155
f 42/90/134 40/88/132 62/110/155
f 42/90/134 62/110/155 63/111/156
f 44/92/136 42/90/134 63/111/156
f 44/92/136 63/111/156 65/113/158
f 37/85/129 27/75/118 25/73/116
f 24/72/115 37/85/129 25/73/116
f 23/71/114 26/74/117 41/89/133
f 63/111/156 64/112/157 65/113/158
f 66/114/159 67/115/159 68/116/160
f 69/117/161 66/114/159 68/116/160
f 66/114/162 70/118/162 71/119/162
f 69/117/163 70/118/163 66/114/163
f 69/117/163 72/120/163 70/118/163
f 68/116/160 72/120/164 69/117/161
f 68/116/160 73/121/164 72/120/164
f 67/115/165 73/121/165 68/116/165
f 67/115/165 71/119/165 73/121/165
f 66/114/162 71/119/162 67/115/162
usemtl belly.011
f 1/122/166 2/123/167 3/124/168
f 4/125/169 5/126/170 6/127/171
usemtl eye.008
f 74/128/22 75/129/77 76/130/23
f 77/131/14 78/132/17 79/133/172
f 75/129/77 80/134/136 81/135/158
f 76/130/23 75/129/77 81/135/158
f 76/130/23 81/135/158 82/136/173
f 83/137/16 76/130/23 82/136/173
f 83/137/16 82/136/173 84/138/174
f 78/132/17 83/139/16 84/140/174
f 78/132/17 84/140/174 85/141/175
f 79/133/172 78/132/17 85/141/175
f 79/133/172 85/141/175 86/142/151
f 87/143/38 79/133/172 86/142/151
