# Blender v2.79 (sub 0) OBJ File: ''
# www.blender.org
mtllib Head.mtl
v 1.781301 -0.715293 1.497995
v 1.738949 -0.905419 1.292216
v 1.994560 -0.830085 1.166010
v 2.036910 -0.639950 1.371789
v 1.756434 -0.512728 0.891076
v 1.798790 -0.322610 1.096852
v 1.500824 -0.588071 1.017278
v 1.543175 -0.397944 1.223057
v 2.195059 -0.953825 -1.197539
v 2.044777 -0.811533 -1.397406
v 2.297978 -0.736800 -1.528697
v 2.448255 -0.879093 -1.328831
v 2.323605 -0.353967 -1.248233
v 2.473887 -0.496260 -1.048366
v 2.070408 -0.428701 -1.116941
v 2.220689 -0.570993 -0.917074
v 0.295620 1.634021 -0.003036
v 0.097607 1.023868 -0.611760
v 0.111801 1.248121 -0.005362
v 0.280108 1.296346 1.108220
v 0.099581 0.996418 0.595199
v 0.821965 1.648422 -1.454262
v 1.040550 0.444382 -1.912236
v 0.754283 0.456185 -1.988423
v 0.468280 0.464320 -1.903499
v 0.391998 -0.932371 -1.495450
v 0.168042 -0.606246 -1.145911
v 0.145458 -1.071311 -0.036218
v 0.021609 -0.376873 -0.025296
v 0.035806 -0.152618 0.581102
v 0.009789 0.437609 -0.014459
v 0.068099 0.416225 0.838121
v 0.231076 0.398179 1.380750
v 0.474440 0.378739 1.860486
v 0.536516 1.521651 1.404707
v 0.760707 0.366936 1.936673
v 0.826760 1.581783 1.476657
v 1.046708 0.358801 1.851750
v 0.065306 0.455031 -0.868775
v 0.226498 0.461779 -1.416357
v 0.033832 -0.125179 -0.625858
v 0.276459 1.347047 -1.121949
v 0.531967 1.584859 -1.375339
v 0.549594 1.831044 -0.004214
v 0.842345 1.940225 -0.007124
v 0.964263 -0.952300 -1.504187
v 0.671589 -1.053881 -1.621261
v 0.362487 -1.540006 -0.045568
v 0.639652 -1.711589 -0.051920
v 0.934757 -1.559943 -0.054305
v 1.225462 -0.643089 -1.162056
v 1.202876 -1.108155 -0.052364
v 1.132859 -0.097320 -1.626352
v 0.171693 -0.656955 1.084257
v 0.396759 -0.998609 1.418405
v 0.676747 -1.125585 1.532675
v 0.969025 -1.018539 1.409672
v 1.229106 -0.693783 1.068115
v 1.138053 -0.169514 1.549140
v 0.769702 -1.999661 -0.249984
v 0.893448 -1.968942 0.010920
v 0.638670 -2.043031 0.139559
v 0.514925 -2.073749 -0.121346
v 0.631216 -1.550010 -0.245486
v 0.754961 -1.519292 0.015417
v 0.376440 -1.624100 -0.116846
v 0.500185 -1.593382 0.144056
v 3.224575 0.286276 1.671168
v 3.932982 -0.542216 0.782648
v 4.409174 -0.342509 1.739157
v 3.930145 -0.502751 -0.952863
v 3.218899 0.365152 -1.798159
v 4.403193 -0.259359 -1.917632
v 1.497126 2.559886 -2.279346
v 1.498742 2.470441 -0.009906
v 2.173193 1.927258 -1.630138
v 3.313391 1.977142 -0.043235
v 3.360641 2.945936 -2.284449
v 4.029194 1.289258 -1.072182
v 4.142271 3.273833 -0.038536
v 1.504482 2.457675 2.215863
v 2.087792 0.411561 -2.089664
v 2.094476 0.318644 1.997197
v 2.178438 1.854375 1.575102
v 3.368011 2.843516 2.220490
v 4.032497 1.243379 0.945855
v 2.255681 3.329582 -0.009867
v 3.974846 0.331837 -1.501991
v 3.979517 0.266951 1.351939
v 3.912668 -0.862915 -0.089285
v 4.242463 0.290147 -0.079078
v 3.158934 -0.869905 1.148772
v 3.154919 -0.814130 -1.304412
v 2.812872 -1.314657 -0.078910
vt 0.260115 0.679427
vt 0.310467 0.668632
vt 0.341348 0.733786
vt 0.290996 0.744581
vt 0.408620 0.673089
vt 0.358270 0.683885
vt 0.377741 0.607935
vt 0.327389 0.618730
vt 0.736753 0.625222
vt 0.785658 0.586916
vt 0.817783 0.651455
vt 0.768879 0.689760
vt 0.749157 0.657987
vt 0.700253 0.696294
vt 0.717032 0.593449
vt 0.668127 0.631755
vt 0.447495 0.078617
vt 0.516848 0.055116
vt 0.447760 0.056800
vt 0.320887 0.076776
vt 0.379336 0.055350
vt 0.612836 0.141086
vt 0.665014 0.167029
vt 0.673694 0.133053
vt 0.664018 0.099109
vt 0.766948 0.201828
vt 0.810189 0.274728
vt 0.675978 0.222165
vt 0.646443 0.138417
vt 0.511084 0.226522
vt 0.497202 0.073159
vt 0.422784 0.082916
vt 0.492225 0.000000
vt 0.283610 0.014863
vt 0.448796 0.044693
vt 0.351660 0.051613
vt 0.289837 0.070956
vt 0.235180 0.099840
vt 0.287107 0.107208
vt 0.226499 0.133816
vt 0.278910 0.141655
vt 0.270100 0.187249
vt 0.653413 0.037588
vt 0.709274 0.118714
vt 0.601740 0.073871
vt 0.574975 0.076343
vt 0.608517 0.070413
vt 0.546130 0.051282
vt 0.603844 0.106668
vt 0.447629 0.108760
vt 0.447960 0.143505
vt 0.857953 0.360392
vt 0.749186 0.380065
vt 0.728909 0.288510
vt 0.516632 0.421479
vt 0.531677 0.582135
vt 0.537825 0.628029
vt 0.626268 0.528299
vt 0.564419 0.685188
vt 0.780122 0.423011
vt 0.345193 0.131087
vt 0.322490 0.225367
vt 0.249005 0.269666
vt 0.186081 0.293004
vt 0.390105 0.577431
vt 0.183063 0.046639
vt 0.170170 0.148710
vt 0.151528 0.221678
vt 0.108448 0.306160
vt 0.258452 0.548021
vt 0.587060 0.616901
vt 0.523220 0.648443
vt 0.491744 0.583502
vt 0.555584 0.551960
vt 0.585959 0.581602
vt 0.522120 0.613144
vt 0.554483 0.516661
vt 0.490643 0.548203
vt 0.779956 0.783074
vt 0.979829 0.675366
vt 0.771446 0.935719
vt 0.576204 0.920666
vt 0.701314 0.994778
vt 0.510534 0.994822
vt 0.283558 0.951518
vt 0.297184 1.000000
vt 0.138682 0.900041
vt 0.851487 0.780499
vt 0.703797 0.851330
vt 0.741670 0.935493
vt 0.388217 0.845129
vt 0.225026 0.836306
vt 0.325541 0.968798
vt 0.124814 0.818647
vt 0.115956 0.802373
vt 0.116213 0.824177
vt 0.092849 0.814809
vt 0.100738 0.828780
vt 0.093344 0.838610
vt 0.083733 0.819912
vt 0.107215 0.786316
vt 0.123650 0.798043
vt 0.113137 0.778987
vt 0.133946 0.817218
vt 0.137375 0.832624
vt 0.124030 0.839321
vt 0.150140 0.887548
vt 0.167857 0.897725
vt 0.173779 0.890397
vt 0.163118 0.879917
vt 0.097734 0.790487
vt 0.085578 0.800928
vt 0.073247 0.801689
vt 0.107218 0.807129
vt 0.097393 0.860615
vt 0.101153 0.853474
vt 0.107591 0.865826
vt 0.110239 0.847535
vt 0.117796 0.898358
vt 0.119125 0.887016
vt 0.126004 0.899129
vt 0.135811 0.894780
vt 0.146220 0.912337
vt 0.158376 0.901897
vt 0.102728 0.798102
vt 0.097582 0.794108
vt 0.105228 0.789947
vt 0.110033 0.798516
vt 0.120834 0.793911
vt 0.126849 0.795595
vt 0.112164 0.802173
vt 0.115002 0.792555
vt 0.129808 0.794266
vt 0.124889 0.779245
vt 0.108343 0.780322
vt 0.110312 0.774579
vt 0.098668 0.777378
vt 0.112045 0.768397
vt 0.116260 0.783942
vt 0.124938 0.779077
vt 0.100580 0.781150
vt 0.114945 0.766959
vt 0.096962 0.787510
vt 0.063558 0.770105
vt 0.929466 0.528896
vn -0.1347 -0.1432 0.9805
vn -0.3040 -0.9393 0.1589
vn 0.6977 -0.6317 -0.3378
vn 0.8592 0.1577 0.4867
vn 0.5009 -0.3206 -0.8039
vn 0.7057 0.6853 0.1798
vn -0.6958 -0.6912 -0.1951
vn -0.5289 0.2931 0.7964
vn -0.2261 -0.9189 0.3233
vn -0.8192 -0.3255 -0.4722
vn 0.1661 -0.0270 -0.9857
vn 0.7651 -0.6140 -0.1941
vn 0.2495 0.5613 -0.7890
vn 0.9647 -0.1946 0.1774
vn -0.9728 0.1756 -0.1509
vn -0.2329 -0.5645 0.7919
vn -0.7681 0.6403 -0.0047
vn -0.9681 0.2224 -0.1150
vn -0.9508 0.3097 -0.0033
vn -0.8766 0.3775 0.2983
vn -0.9698 0.2006 0.1384
vn -0.6505 0.5885 -0.4801
vn 0.0008 -0.1244 -0.9922
vn -0.0175 0.0795 -0.9967
vn -0.5995 0.0905 -0.7953
vn -0.7071 -0.4420 -0.5518
vn -0.9405 -0.1953 -0.2778
vn -0.9450 -0.3270 -0.0054
vn -0.9934 -0.1143 -0.0010
vn -0.9911 -0.0677 0.1144
vn -0.9984 0.0553 0.0029
vn -0.9774 0.0646 0.2012
vn -0.9210 0.0534 0.3859
vn -0.5875 0.0659 0.8065
vn -0.5395 0.6444 0.5419
vn 0.0197 0.0382 0.9991
vn -0.5743 0.4838 0.6603
vn 0.1032 -0.0579 0.9930
vn -0.9793 0.0475 -0.1965
vn -0.9213 0.0781 -0.3808
vn -0.9903 -0.0605 -0.1250
vn -0.8625 0.4053 -0.3028
vn -0.5574 0.6646 -0.4976
vn -0.4826 0.8757 0.0134
vn -0.5266 0.8499 -0.0166
vn 0.6527 -0.5258 -0.5454
vn -0.0414 -0.6571 -0.7527
vn -0.7179 -0.6959 -0.0125
vn -0.0415 -0.9989 -0.0204
vn 0.6521 -0.7579 -0.0190
vn 0.4741 -0.6948 -0.5408
vn 0.5067 -0.8618 -0.0213
vn 0.3824 -0.4616 -0.8004
vn -0.9371 -0.2047 0.2825
vn -0.7070 -0.4659 0.5321
vn -0.0149 -0.6841 0.7292
vn 0.6598 -0.5337 0.5289
vn 0.4750 -0.7218 0.5033
vn 0.3785 -0.4786 0.7922
vn 0.4181 -0.4685 -0.7782
vn 0.9043 -0.3392 0.2590
vn -0.0877 -0.6380 0.7650
vn -0.5785 -0.7682 -0.2742
vn 0.2997 0.1018 -0.9485
vn 0.9039 0.2751 0.3274
vn -0.9044 -0.2753 -0.3258
vn -0.3193 -0.1078 0.9415
vn 0.2467 -0.7353 -0.6312
vn 0.2340 -0.2766 -0.9320
vn 0.7329 -0.5887 -0.3408
vn 0.0963 -0.9948 -0.0311
vn 0.7037 -0.7093 -0.0399
vn 0.2558 -0.7479 0.6125
vn 0.7538 -0.5740 0.3197
vn 0.2614 -0.3013 0.9170
vn 0.7287 -0.3819 0.5684
vn 0.7221 -0.3558 -0.5933
vn -0.0636 0.7322 -0.6781
vn -0.5744 0.8185 -0.0062
vn 0.1465 0.8021 -0.5790
vn 0.1249 0.9918 0.0252
vn 0.1952 0.8184 -0.5404
vn 0.9435 0.2251 -0.2430
vn 0.2014 0.9794 0.0114
vn -0.0660 0.6667 0.7424
vn 0.0058 -0.2988 -0.9543
vn -0.0141 -0.2797 0.9600
vn 0.1455 0.7740 0.6162
vn 0.2010 0.8014 0.5634
vn 0.9442 0.2178 0.2467
vn 0.0352 0.9992 0.0169
vn 0.8662 0.2407 -0.4379
vn 0.8713 0.2235 0.4368
vn 0.9950 -0.1000 -0.0042
usemtl dage4
s 1
f 1/1/1 2/2/2 3/3/3
f 4/4/4 1/1/1 3/3/3
f 3/3/3 5/5/5 6/6/6
f 2/2/2 5/5/5 3/3/3
f 2/2/2 7/7/7 5/5/5
f 1/1/1 7/7/7 2/2/2
f 1/1/1 8/8/8 7/7/7
f 4/4/4 8/8/8 1/1/1
f 4/4/4 6/6/6 8/8/8
f 3/3/3 6/6/6 4/4/4
f 9/9/9 10/10/10 11/11/11
f 12/12/12 9/9/9 11/11/11
f 11/11/11 13/13/13 14/14/14
f 10/10/10 13/13/13 11/11/11
f 10/10/10 15/15/15 13/13/13
f 9/9/9 15/15/15 10/10/10
f 9/9/9 16/16/16 15/15/15
f 12/12/12 16/16/16 9/9/9
f 12/12/12 14/14/14 16/16/16
f 11/11/11 14/14/14 12/12/12
f 17/17/17 18/18/18 19/19/19
f 20/20/20 17/17/17 19/19/19
f 20/20/20 19/19/19 21/21/21
f 22/22/22 23/23/23 24/24/24
f 25/25/25 22/22/22 24/24/24
f 25/26/25 24/27/24 26/28/26
f 27/29/27 25/26/25 26/28/26
f 27/29/27 26/28/26 28/30/28
f 29/31/29 27/29/27 28/30/28
f 29/31/29 28/30/28 30/32/30
f 31/33/31 29/31/29 30/32/30
f 31/33/31 30/32/30 32/34/32
f 21/21/21 31/35/31 32/36/32
f 21/21/21 32/36/32 33/37/33
f 20/20/20 21/21/21 33/37/33
f 20/20/20 33/37/33 34/38/34
f 35/39/35 20/20/20 34/38/34
f 35/39/35 34/38/34 36/40/36
f 37/41/37 35/39/35 36/40/36
f 37/41/37 36/40/36 38/42/38
f 39/43/39 40/44/40 41/45/41
f 42/46/42 40/47/40 39/48/39
f 42/46/42 43/49/43 40/47/40
f 44/50/44 43/49/43 42/46/42
f 44/50/44 45/51/45 43/49/43
f 37/41/37 45/51/45 44/50/44
f 27/29/27 41/45/41 40/44/40
f 25/26/25 27/29/27 40/44/40
f 25/25/25 40/47/40 43/49/43
f 22/22/22 25/25/25 43/49/43
f 22/22/22 43/49/43 45/51/45
f 23/52/23 46/53/46 47/54/47
f 24/27/24 23/52/23 47/54/47
f 24/27/24 47/54/47 26/28/26
f 29/31/29 41/45/41 27/29/27
f 31/33/31 41/45/41 29/31/29
f 31/33/31 39/43/39 41/45/41
f 18/18/18 39/48/39 31/35/31
f 18/18/18 42/46/42 39/48/39
f 17/17/17 42/46/42 18/18/18
f 17/17/17 44/50/44 42/46/42
f 35/39/35 44/50/44 17/17/17
f 35/39/35 37/41/37 44/50/44
f 26/28/26 48/55/48 28/30/28
f 47/54/47 48/55/48 26/28/26
f 47/54/47 49/56/49 48/55/48
f 46/53/46 49/56/49 47/54/47
f 46/53/46 50/57/50 49/56/49
f 50/57/50 51/58/51 52/59/52
f 46/53/46 51/58/51 50/57/50
f 46/53/46 53/60/53 51/58/51
f 23/52/23 53/60/53 46/53/46
f 54/61/54 30/32/30 28/30/28
f 54/61/54 28/30/28 48/55/48
f 55/62/55 54/61/54 48/55/48
f 55/62/55 48/55/48 49/56/49
f 56/63/56 55/62/55 49/56/49
f 56/63/56 49/56/49 50/57/50
f 57/64/57 56/63/56 50/57/50
f 57/64/57 50/57/50 52/59/52
f 58/65/58 57/64/57 52/59/52
f 32/34/32 30/32/30 54/61/54
f 33/66/33 32/34/32 54/61/54
f 33/66/33 54/61/54 55/62/55
f 34/67/34 33/66/33 55/62/55
f 34/67/34 55/62/55 56/63/56
f 36/68/36 34/67/34 56/63/56
f 36/68/36 56/63/56 57/64/57
f 38/69/38 36/68/36 57/64/57
f 38/69/38 57/64/57 59/70/59
f 31/35/31 21/21/21 19/19/19
f 18/18/18 31/35/31 19/19/19
f 17/17/17 20/20/20 35/39/35
f 57/64/57 58/65/58 59/70/59
f 60/71/60 61/72/61 62/73/62
f 63/74/63 60/71/60 62/73/62
f 60/71/60 64/75/64 65/76/65
f 63/74/63 64/75/64 60/71/60
f 63/74/63 66/77/66 64/75/64
f 62/73/62 66/77/66 63/74/63
f 62/73/62 67/78/67 66/77/66
f 61/72/61 67/78/67 62/73/62
f 61/72/61 65/76/65 67/78/67
f 60/71/60 65/76/65 61/72/61
f 93/79/68 72/80/69 71/81/70
f 94/82/71 93/79/68 71/83/70
f 94/82/71 71/83/70 90/84/72
f 92/85/73 94/82/71 90/84/72
f 92/85/73 90/84/72 69/86/74
f 68/87/75 92/85/73 69/86/74
f 68/88/75 69/89/74 70/90/76
f 71/91/70 72/92/69 73/93/77
f 74/94/78 75/95/79 76/96/80
f 76/96/80 77/97/81 78/98/82
f 78/98/82 77/97/81 79/99/83
f 77/97/81 80/100/84 79/99/83
f 81/101/85 45/102/45 37/103/37
f 75/95/79 45/102/45 81/101/85
f 75/95/79 22/104/22 45/102/45
f 74/94/78 22/104/22 75/95/79
f 74/94/78 23/105/23 22/104/22
f 82/106/86 23/105/23 74/94/78
f 83/107/87 81/108/85 37/109/37
f 38/110/38 83/107/87 37/109/37
f 77/97/81 84/111/88 85/112/89
f 77/97/81 85/112/89 86/113/90
f 80/100/84 77/97/81 86/113/90
f 87/114/91 76/96/80 75/95/79
f 84/111/88 87/114/91 75/95/79
f 84/111/88 75/95/79 81/101/85
f 73/115/77 88/116/92 71/117/70
f 72/118/69 88/116/92 73/115/77
f 72/118/69 78/98/82 88/116/92
f 82/106/86 78/98/82 72/118/69
f 82/106/86 76/96/80 78/98/82
f 70/119/76 69/120/74 89/121/93
f 68/122/75 70/119/76 89/121/93
f 68/122/75 89/121/93 85/123/89
f 83/107/87 68/122/75 85/123/89
f 83/107/87 85/123/89 84/124/88
f 69/125/74 90/126/72 91/127/94
f 89/128/93 69/125/74 91/127/94
f 84/129/88 81/130/85 83/131/87
f 89/128/93 86/132/90 85/133/89
f 91/127/94 86/132/90 89/128/93
f 91/127/94 80/134/84 86/132/90
f 79/135/83 80/134/84 91/127/94
f 76/136/80 82/137/86 74/138/78
f 77/139/81 76/136/80 87/140/91
f 84/129/88 77/139/81 87/140/91
f 79/135/83 88/141/92 78/142/82
f 91/127/94 88/141/92 79/135/83
f 91/127/94 71/143/70 88/141/92
f 90/126/72 71/143/70 91/127/94
f 68/87/75 83/144/87 92/85/73
f 72/80/69 93/79/68 82/145/86
f 83/144/87 38/69/38 59/70/59
f 92/85/73 83/144/87 59/70/59
f 92/85/73 59/70/59 58/65/58
f 94/82/71 92/85/73 58/65/58
f 94/82/71 58/65/58 52/59/52
f 93/79/68 94/82/71 52/59/52
f 93/79/68 52/59/52 51/58/51
f 82/145/86 93/79/68 51/58/51
f 82/145/86 51/58/51 53/60/53
f 23/52/23 82/145/86 53/60/53
