# Blender v2.78 (sub 0) OBJ File: ''
# www.blender.org
mtllib Shin.mtl
v -0.006991 0.002055 -0.208710
v 0.672032 0.201776 -0.013754
v 0.641789 0.001527 -0.228771
v 0.048405 -0.193178 -0.008273
v 0.616942 -0.199007 -0.020656
v -0.002113 0.001872 0.201738
v 0.647344 0.001206 0.194359
v -0.057756 0.197055 0.001305
v 1.251228 0.030737 0.439526
v 0.663499 0.111311 0.452554
v 1.171180 -0.593478 0.240899
v 0.719343 0.526007 -0.000951
v 0.578515 -0.401669 -0.384493
v 0.666787 0.219610 -0.387247
v 1.254510 0.139140 -0.400411
v 1.306657 0.444261 -0.012280
v 1.165949 -0.486347 -0.405490
v 0.583667 -0.510158 0.255259
vt 0.7232 0.6751
vt 0.7228 0.6769
vt 0.7216 0.6753
vt 0.7194 0.6765
vt 0.7164 0.6769
vt 0.7165 0.6766
vt 0.7168 0.6748
vt 0.7198 0.6748
vt 0.7167 0.6751
vt 0.7213 0.6770
vt 0.3608 0.2471
vt 0.0000 0.9882
vt 0.0000 0.2471
vt 0.3529 0.4941
vt 0.0000 0.4941
vt 0.3608 0.7412
vt 0.0000 0.7412
vt 0.3686 0.9882
vn 0.0805 0.4445 0.8921
vn 0.0290 0.0483 0.9984
vn -0.0771 -0.6684 0.7398
vn 0.1371 0.9412 0.3088
vn -0.9896 0.1431 0.0171
vn -0.9464 0.1316 -0.2950
vn -0.9911 0.1320 0.0197
vn -0.9898 0.1407 0.0230
vn -0.9906 0.1350 0.0208
vn -0.9896 0.1431 0.0172
vn 0.0610 0.5660 -0.8221
vn 0.0132 0.2878 -0.9576
vn -0.0853 -0.4054 -0.9101
vn 0.1261 0.9622 -0.2414
vn -0.4607 -0.3210 -0.8275
vn 0.0132 0.2879 -0.9576
vn -0.1377 -0.8179 -0.5586
vn -0.5034 -0.8258 0.2542
vn -0.0770 -0.6684 0.7398
vn -0.1307 -0.9549 0.2666
vn -0.9910 0.1321 0.0197
vn -0.9832 -0.1799 -0.0320
vn -0.5679 -0.8125 -0.1316
vn 0.0806 0.2548 -0.9636
vn -0.0129 0.9562 -0.2926
vn -0.0204 0.7331 -0.6798
vn 0.1177 -0.8859 -0.4487
vn 0.0994 -0.4080 -0.9075
vn -0.0224 -0.7188 -0.6949
vn -0.0036 -0.9563 0.2924
vn -0.0948 -0.2594 0.9611
vn 0.2141 -0.9563 0.1991
vn 0.0070 -0.7323 0.6809
vn -0.1240 0.8852 0.4484
vn -0.1127 0.4000 0.9096
vn 0.0093 0.7186 0.6954
vn -0.0129 0.9561 -0.2926
vn -0.2274 0.9536 -0.1971
usemtl colors.011
s 1
f 9/1/1 10/2/2 11/3/3
f 12/4/4 10/2/2 9/1/1
f 12/4/5 13/5/6 10/2/7
f 14/6/8 13/5/9 12/4/10
f 14/6/11 15/7/12 13/5/13
f 16/8/14 15/7/12 14/6/11
f 16/8/14 14/6/11 12/4/4
f 9/1/1 16/8/14 12/4/4
f 13/5/15 15/7/16 17/9/17
f 18/10/18 13/5/15 17/9/17
f 18/10/18 17/9/17 11/3/19
f 10/2/2 18/10/20 11/3/3
f 10/2/21 13/5/22 18/10/23
usemtl fur.011
f 1/11/24 2/12/25 3/13/26
f 4/14/27 1/11/28 3/13/29
f 4/14/27 3/13/29 5/15/30
f 6/16/31 4/14/32 5/15/30
f 6/16/31 5/15/30 7/17/33
f 8/18/34 6/16/35 7/17/36
f 8/18/34 7/17/36 2/12/37
f 1/11/24 8/18/38 2/12/25
