# Blender v2.79 (sub 0) OBJ File: ''
# www.blender.org
mtllib DigTeleport.mtl
o DigTeleport
v 0.342000 -27.787510 27.787487
v 0.342000 -27.787487 -27.787510
v 0.342000 27.787510 -27.787487
v 0.342000 27.787487 27.787510
v 1.111500 -27.787510 27.787487
v 1.111500 -27.787487 -27.787510
v 1.111500 27.787510 -27.787487
v 1.111500 27.787487 27.787510
v -0.558000 -27.787510 27.787487
v -0.558000 -27.787487 -27.787510
v -0.558000 27.787510 -27.787487
v -0.558000 27.787487 27.787510
vt 0.000000 1.000000
vt 0.000000 0.000000
vt 1.000000 0.000000
vt 1.000000 1.000000
vt 0.000000 1.000000
vt 0.000000 0.000000
vt 1.000000 0.000000
vt 1.000000 1.000000
vt 0.000000 1.000000
vt 0.000000 0.000000
vt 1.000000 0.000000
vt 1.000000 1.000000
vn 1.0000 -0.0000 0.0000
usemtl LANDTX16_material_16
s 1
f 4/1/1 1/2/1 2/3/1
f 4/1/1 2/3/1 3/4/1
f 8/5/1 5/6/1 6/7/1
f 8/5/1 6/7/1 7/8/1
f 12/9/1 9/10/1 10/11/1
f 12/9/1 10/11/1 11/12/1
