# Blender v2.79 (sub 0) OBJ File: ''
# www.blender.org
mtllib WaterPlatformCollision.mtl
v -40.122444 -49.581909 13.036534
v -24.797029 -49.581909 34.130142
v -24.797029 2.747428 34.130180
v 24.797029 -49.581909 34.130142
v 40.122444 2.747447 13.036567
v 40.122444 -49.581871 -13.036616
v 24.797029 -49.581863 -34.130219
v -24.797029 2.747494 -34.130180
v -40.122444 2.747447 13.036567
v -40.122444 -49.581871 -13.036616
v 24.797029 2.747428 34.130180
v 0.000000 -49.581944 42.187172
v -24.797029 -49.581863 -34.130219
v 0.000000 -49.581844 -42.187256
v 40.122444 -49.581909 13.036534
v 6.929480 -93.914284 -9.537694
v -11.212140 -93.914284 3.642957
v -6.929480 -93.914284 -9.537694
v 11.212140 -93.914284 3.642957
v 0.000000 -93.914284 11.789056
v 12.749400 -78.059181 17.547966
v 0.000000 -78.059181 21.690496
v 0.000000 -81.174179 15.574924
v -12.749400 -78.059166 -17.548113
v 0.000000 -78.059166 -21.690643
v -9.154760 -81.174171 -12.600515
v -20.628960 -78.059166 -6.702833
v -14.812710 -81.174171 4.812866
v -12.749400 -78.059181 17.547966
v 20.628960 -78.059166 6.702687
v 14.812710 -81.174171 4.812866
v 20.628960 -78.059166 -6.702833
v 9.154760 -81.174171 -12.600515
v -20.628960 -78.059166 6.702687
v 12.749400 -78.059166 -17.548113
v -25.017090 -73.694977 -8.128608
v -15.461411 -73.694977 -21.280869
v -25.017090 -73.694977 8.128471
v -27.316401 -65.056892 -8.875701
v -16.882460 -65.056877 -23.236784
v -27.316401 -65.056892 8.875579
v -15.461411 -73.694984 21.280731
v 0.000000 -73.695023 26.304453
v -16.882460 -65.056900 23.236645
v 0.000000 -65.056923 28.722097
v 16.882460 -65.056900 23.236658
v 15.461411 -73.694984 21.280731
v 27.316401 -65.056892 8.875579
v 25.017090 -73.694977 -8.128608
v 25.017090 -73.694977 8.128471
v 15.461411 -73.694977 -21.280869
v 27.316401 -65.056892 -8.875690
v 16.882460 -65.056877 -23.236784
v 0.000000 -65.056854 -28.722223
v 0.000000 -73.694939 -26.304588
v 0.000000 -60.685986 35.041729
v -20.597050 -60.685986 28.349342
v -33.326721 -60.685966 10.828454
v -33.326721 -60.685966 -10.828566
v -20.597050 -60.685936 -28.349457
v 0.000000 -60.685936 -35.041851
v 20.597050 -60.685936 -28.349457
v 33.326721 -60.685966 -10.828566
v 33.326721 -60.685966 10.828454
v 20.597050 -60.685986 28.349342
v 0.000000 3.171661 -40.396999
v 23.744759 3.171644 -32.681854
v 38.419830 3.171631 -12.483365
v 38.419830 3.171613 12.483353
v 23.744759 3.171601 32.681854
v 0.000000 3.171585 40.396999
v -23.744759 3.171601 32.681854
v -38.419830 3.171613 12.483353
v -38.419830 3.171631 -12.483365
v -23.744759 3.171644 -32.681854
v 0.000000 2.747421 42.187229
v 40.122444 2.747466 -13.036576
v 0.000000 2.747494 -42.187229
v -40.122444 2.747466 -13.036576
v 24.797029 2.747490 -34.130180
vt 3.800000 -0.256878
vt 4.200000 -0.395679
vt 4.200000 -0.256878
vt 3.800000 -0.395679
vt 3.400000 -0.256878
vt 3.400000 -0.395679
vt 3.000000 -0.256878
vt 3.000000 -0.395679
vt 2.600000 -0.256878
vt 2.600000 -0.395679
vt 2.200000 -0.256878
vt 2.200000 -0.395679
vt 1.800000 -0.256878
vt 1.800000 -0.395679
vt 1.400000 -0.256878
vt 1.400000 -0.395679
vt 1.000000 -0.256878
vt 1.000000 -0.395679
vt 0.600000 -0.256878
vt 0.600000 -0.395679
vt 0.200000 -0.256878
vt 0.200000 -0.395679
vt 3.800000 -0.558292
vt 4.200000 -0.612844
vt 4.200000 -0.558292
vt 3.800000 -0.612844
vt 3.400000 -0.612844
vt 3.400000 -0.651782
vt 3.000000 -0.612844
vt 2.600000 -0.651782
vt 2.600000 -0.612844
vt 2.200000 -0.612844
vt 2.200000 -0.558292
vt 1.400000 -0.558292
vt 1.800000 -0.612844
vt 1.800000 -0.558292
vt 1.400000 -0.612844
vt 1.000000 -0.612844
vt 1.000000 -0.651782
vt 0.600000 -0.612844
vt 0.200000 -0.651782
vt 0.200000 -0.612844
vt 4.200000 -0.450316
vt 3.800000 -0.450316
vt 3.400000 -0.450316
vt 3.400000 -0.558292
vt 3.000000 -0.450316
vt 3.000000 -0.558292
vt 2.600000 -0.558292
vt 2.600000 -0.450316
vt 2.200000 -0.450316
vt 1.800000 -0.450316
vt 1.800000 -0.651782
vt 2.600000 -0.863529
vt 3.400000 -0.863529
vt 1.800000 0.225587
vt 1.000000 0.225587
vt 1.000000 -0.558292
vt 0.600000 -0.450316
vt 0.600000 -0.558292
vt 1.000000 -0.450316
vt 1.400000 -0.450316
vt 4.200000 0.225587
vt 0.200000 -0.450316
vt 0.200000 -0.558292
vt 3.800000 0.225587
vt 1.800000 -0.863529
vt 4.200000 -0.651782
vt 4.200000 -0.863529
vt 1.000000 -0.863529
vt 0.200000 -0.863529
vt 0.570076 0.703002
vt 0.429924 0.703002
vt 0.500000 0.652089
vt 0.456691 0.785381
vt 0.543309 0.785381
vt 3.000000 0.225587
vt 2.600000 0.225587
vt 2.200000 0.225587
vt 0.600000 0.348198
vt 2.600000 0.348198
vt 3.400000 0.348198
vt 3.000000 0.348198
vt 1.800000 0.348198
vt 2.200000 0.348198
vt 1.000000 0.348198
vt 1.400000 0.348198
vt 4.200000 0.348198
vt 3.800000 0.348198
vt 3.400000 0.225587
vt 0.600000 0.225587
vt 1.400000 0.225587
vt 0.200000 0.225587
vt 0.200000 0.348198
vn -0.9163 -0.2680 -0.2977
vn -0.7005 -0.6764 0.2276
vn -0.9163 -0.2680 0.2977
vn -0.7005 -0.6764 -0.2276
vn -0.5663 -0.2680 -0.7794
vn -0.4329 -0.6764 -0.5959
vn -0.0000 -0.2680 -0.9634
vn -0.0000 -0.6764 -0.7365
vn 0.5663 -0.2680 -0.7794
vn 0.4329 -0.6764 -0.5959
vn 0.9163 -0.2680 -0.2977
vn 0.7005 -0.6764 -0.2276
vn 0.9163 -0.2680 0.2977
vn 0.7005 -0.6764 0.2276
vn 0.5663 -0.2680 0.7794
vn 0.4329 -0.6764 0.5959
vn 0.0000 -0.2680 0.9634
vn -0.0000 -0.6764 0.7365
vn -0.5663 -0.2680 0.7794
vn -0.4329 -0.6764 0.5959
vn -0.8265 -0.4947 -0.2686
vn -0.5657 -0.8039 0.1838
vn -0.8265 -0.4947 0.2686
vn -0.5386 -0.8242 -0.1750
vn -0.3496 -0.8039 -0.4812
vn -0.3791 -0.7641 -0.5218
vn 0.0000 -0.8242 -0.5664
vn 0.3791 -0.7641 -0.5218
vn 0.3496 -0.8039 -0.4812
vn 0.5386 -0.8242 -0.1750
vn 0.8265 -0.4947 -0.2686
vn 0.5108 -0.4947 0.7031
vn 0.5657 -0.8039 0.1838
vn 0.8265 -0.4947 0.2686
vn 0.3329 -0.8242 0.4582
vn 0.0000 -0.8039 0.5948
vn -0.0000 -0.7641 0.6450
vn -0.3329 -0.8242 0.4582
vn -0.6135 -0.7641 0.1993
vn -0.7504 -0.6144 0.2438
vn -0.7504 -0.6144 -0.2438
vn -0.4637 -0.6144 -0.6383
vn -0.5108 -0.4947 -0.7031
vn 0.0000 -0.6144 -0.7890
vn 0.0000 -0.4947 -0.8691
vn 0.5108 -0.4947 -0.7031
vn 0.4637 -0.6144 -0.6383
vn 0.7504 -0.6144 -0.2438
vn 0.7504 -0.6144 0.2438
vn 0.6135 -0.7641 0.1993
vn 0.4185 -0.7022 -0.5760
vn -0.4185 -0.7022 -0.5760
vn 0.7836 0.5668 0.2546
vn -0.0000 0.5668 0.8239
vn -0.0000 -0.4947 0.8690
vn -0.4637 -0.6144 0.6383
vn -0.5108 -0.4947 0.7031
vn -0.0000 -0.6144 0.7890
vn 0.4637 -0.6144 0.6383
vn -0.7836 0.5668 0.2546
vn -0.7836 0.5668 -0.2546
vn 0.6772 -0.7022 0.2200
vn -0.6772 -0.7022 0.2200
vn 0.0000 -0.7022 0.7120
vn -0.0000 0.5668 -0.8239
vn 0.4843 0.5668 -0.6665
vn 0.7836 0.5668 -0.2546
vn 0.0000 1.0000 0.0000
vn -0.4843 0.5668 -0.6665
vn -0.2193 0.9731 -0.0712
vn -0.2193 0.9731 0.0712
vn -0.0000 0.9731 -0.2306
vn -0.1355 0.9731 -0.1865
vn 0.2193 0.9731 -0.0712
vn 0.2193 0.9731 0.0712
vn -0.0000 0.9731 0.2306
vn -0.4843 0.5668 0.6665
vn -0.1355 0.9731 0.1865
vn 0.1355 0.9731 -0.1865
vn 0.1355 0.9731 0.1865
vn 0.4843 0.5668 0.6665
usemtl None
s 1
f 10/1/1 58/2/2 1/3/3
f 58/2/2 10/1/1 59/4/4
f 13/5/5 59/4/4 10/1/1
f 59/4/4 13/5/5 60/6/6
f 14/7/7 60/6/6 13/5/5
f 60/6/6 14/7/7 61/8/8
f 7/9/9 61/8/8 14/7/7
f 61/8/8 7/9/9 62/10/10
f 6/11/11 62/10/10 7/9/9
f 62/10/10 6/11/11 63/12/12
f 15/13/13 63/12/12 6/11/11
f 63/12/12 15/13/13 64/14/14
f 4/15/15 64/14/14 15/13/13
f 64/14/14 4/15/15 65/16/16
f 12/17/17 65/16/16 4/15/15
f 65/16/16 12/17/17 56/18/18
f 2/19/19 56/18/18 12/17/17
f 56/18/18 2/19/19 57/20/20
f 1/21/3 57/20/20 2/19/19
f 57/20/20 1/21/3 58/22/2
f 36/23/21 34/24/22 38/25/23
f 34/24/22 36/23/21 27/26/24
f 24/27/25 27/26/24 36/23/21
f 27/26/24 24/27/25 26/28/26
f 25/29/27 26/28/26 24/27/25
f 26/28/26 25/29/27 33/30/28
f 35/31/29 33/30/28 25/29/27
f 33/30/28 35/31/29 32/32/30
f 49/33/31 32/32/30 35/31/29
f 47/34/32 30/35/33 50/36/34
f 30/35/33 47/34/32 21/37/35
f 22/38/36 21/37/35 47/34/32
f 21/37/35 22/38/36 23/39/37
f 29/40/38 23/39/37 22/38/36
f 23/39/37 29/40/38 28/41/39
f 34/42/22 28/41/39 29/40/38
f 59/4/4 41/43/40 58/2/2
f 41/43/40 59/4/4 39/44/41
f 40/45/42 39/44/41 59/4/4
f 39/44/41 40/45/42 37/46/43
f 54/47/44 37/46/43 40/45/42
f 37/46/43 54/47/44 55/48/45
f 51/49/46 55/48/45 54/47/44
f 53/50/47 51/49/46 54/47/44
f 51/49/46 53/50/47 52/51/48
f 63/12/12 52/51/48 53/50/47
f 52/51/48 63/12/12 48/52/49
f 64/14/14 48/52/49 63/12/12
f 48/52/49 64/14/14 65/16/16
f 30/35/33 49/33/31 50/36/34
f 49/33/31 30/35/33 32/32/30
f 31/53/50 32/32/30 30/35/33
f 32/32/30 31/53/50 33/30/28
f 16/54/51 33/30/28 31/53/50
f 33/30/28 16/54/51 18/55/52
f 5/56/53 4/15/15 15/13/13
f 4/15/15 76/57/54 12/17/17
f 43/58/55 44/59/56 42/60/57
f 44/59/56 43/58/55 45/61/58
f 46/62/59 45/61/58 43/58/55
f 45/61/58 46/62/59 65/16/16
f 48/52/49 65/16/16 46/62/59
f 61/8/8 54/47/44 40/45/42
f 54/47/44 61/8/8 53/50/47
f 62/10/10 53/50/47 61/8/8
f 53/50/47 62/10/10 63/12/12
f 76/57/54 2/19/19 12/17/17
f 2/19/19 9/63/60 1/3/3
f 41/64/40 57/20/20 58/22/2
f 57/20/20 41/64/40 44/59/56
f 38/65/23 44/59/56 41/64/40
f 44/59/56 38/65/23 42/60/57
f 35/31/29 51/49/46 49/33/31
f 51/49/46 35/31/29 55/48/45
f 25/29/27 55/48/45 35/31/29
f 55/48/45 25/29/27 24/27/25
f 10/1/1 9/63/60 79/66/61
f 79/66/61 13/5/5 10/1/1
f 42/60/57 29/40/38 22/38/36
f 29/40/38 42/60/57 34/42/22
f 38/65/23 34/42/22 42/60/57
f 39/44/41 38/25/23 41/43/40
f 38/25/23 39/44/41 36/23/21
f 37/46/43 36/23/21 39/44/41
f 52/51/48 49/33/31 51/49/46
f 49/33/31 52/51/48 50/36/34
f 48/52/49 50/36/34 52/51/48
f 31/53/50 19/67/62 16/54/51
f 19/67/62 31/53/50 23/39/37
f 21/37/35 23/39/37 31/53/50
f 28/68/39 26/28/26 17/69/63
f 26/28/26 28/68/39 27/26/24
f 34/24/22 27/26/24 28/68/39
f 20/70/64 28/41/39 17/71/63
f 28/41/39 20/70/64 23/39/37
f 19/67/62 23/39/37 20/70/64
f 17/72/63 19/73/62 20/74/64
f 19/73/62 17/72/63 16/75/51
f 18/76/52 16/75/51 17/72/63
f 46/62/59 50/36/34 48/52/49
f 50/36/34 46/62/59 47/34/32
f 43/58/55 47/34/32 46/62/59
f 60/6/6 40/45/42 59/4/4
f 40/45/42 60/6/6 61/8/8
f 24/27/25 37/46/43 55/48/45
f 37/46/43 24/27/25 36/23/21
f 13/5/5 78/77/65 14/7/7
f 80/78/66 14/7/7 78/77/65
f 18/55/52 26/28/26 33/30/28
f 26/28/26 18/55/52 17/69/63
f 43/58/55 22/38/36 47/34/32
f 22/38/36 43/58/55 42/60/57
f 56/18/18 45/61/58 65/16/16
f 45/61/58 56/18/18 57/20/20
f 80/78/66 6/11/11 7/9/9
f 5/56/53 6/11/11 77/79/67
f 44/59/56 45/61/58 57/20/20
f 30/35/33 21/37/35 31/53/50
f 72/80/68 67/81/68 75/82/68
f 67/81/68 66/83/68 75/82/68
f 69/84/68 68/85/68 67/81/68
f 71/86/68 70/87/68 69/84/68
f 72/80/68 71/86/68 67/81/68
f 73/88/68 72/80/68 75/82/68
f 75/82/68 74/89/68 73/88/68
f 71/86/68 69/84/68 67/81/68
f 8/90/69 79/66/61 74/89/70
f 73/88/71 74/89/70 79/66/61
f 80/78/66 78/77/65 66/83/72
f 75/82/73 66/83/72 78/77/65
f 68/85/74 5/56/53 77/79/67
f 5/56/53 68/85/74 69/84/75
f 71/86/76 3/91/77 76/57/54
f 3/91/77 71/86/76 72/80/78
f 67/81/79 77/79/67 80/78/66
f 77/79/67 67/81/79 68/85/74
f 70/87/80 11/92/81 69/84/75
f 11/92/81 70/87/80 76/57/54
f 71/86/76 76/57/54 70/87/80
f 79/66/61 9/63/60 73/88/71
f 11/92/81 5/56/53 69/84/75
f 8/90/69 75/82/73 78/77/65
f 75/82/73 8/90/69 74/89/70
f 9/93/60 72/80/78 73/94/71
f 72/80/78 9/93/60 3/91/77
f 67/81/79 80/78/66 66/83/72
f 5/56/53 11/92/81 4/15/15
f 4/15/15 11/92/81 76/57/54
f 76/57/54 3/91/77 2/19/19
f 2/19/19 3/91/77 9/63/60
f 10/1/1 1/3/3 9/63/60
f 79/66/61 8/90/69 13/5/5
f 13/5/5 8/90/69 78/77/65
f 80/78/66 7/9/9 14/7/7
f 80/78/66 77/79/67 6/11/11
f 5/56/53 15/13/13 6/11/11
