# Blender v2.79 (sub 0) OBJ File: ''
# www.blender.org
mtllib WaterPlatformBounceCollision.mtl
v -40.122444 -49.581905 13.036542
v -24.797029 -49.581905 34.130150
v -24.797029 -10.939394 34.130180
v 24.797029 -49.581905 34.130150
v 40.122444 -10.939379 13.036567
v 40.122444 -49.581875 -13.036609
v 24.797029 -49.581867 -34.130211
v -24.797029 -10.939339 -34.130180
v -40.122444 -10.939379 13.036567
v -40.122444 -49.581875 -13.036609
v 24.797029 -10.939394 34.130180
v 0.000000 -49.581936 42.187180
v -24.797029 -49.581867 -34.130211
v 0.000000 -49.581852 -42.187248
v 40.122444 -49.581905 13.036542
v 6.929480 -93.914284 -9.537679
v -11.212140 -93.914284 3.642972
v -6.929480 -93.914284 -9.537679
v 11.212140 -93.914284 3.642972
v 0.000000 -93.914284 11.789071
v 12.749400 -78.059181 17.547979
v 0.000000 -78.059181 21.690510
v 0.000000 -81.174179 15.574938
v -12.749400 -78.059166 -17.548100
v 0.000000 -78.059166 -21.690630
v -9.154760 -81.174171 -12.600502
v -20.628960 -78.059166 -6.702820
v -14.812710 -81.174171 4.812879
v -12.749400 -78.059181 17.547979
v 20.628960 -78.059166 6.702700
v 14.812710 -81.174171 4.812879
v 20.628960 -78.059166 -6.702820
v 9.154760 -81.174171 -12.600502
v -20.628960 -78.059166 6.702700
v 12.749400 -78.059166 -17.548100
v -25.017090 -73.694977 -8.128595
v -15.461411 -73.694977 -21.280857
v -25.017090 -73.694977 8.128484
v -27.316401 -65.056892 -8.875690
v -16.882460 -65.056877 -23.236773
v -27.316401 -65.056892 8.875589
v -15.461411 -73.694984 21.280743
v 0.000000 -73.695015 26.304464
v -16.882460 -65.056900 23.236656
v 0.000000 -65.056915 28.722109
v 16.882460 -65.056900 23.236670
v 15.461411 -73.694984 21.280743
v 27.316401 -65.056892 8.875589
v 25.017090 -73.694977 -8.128595
v 25.017090 -73.694977 8.128484
v 15.461411 -73.694977 -21.280857
v 27.316401 -65.056892 -8.875679
v 16.882460 -65.056877 -23.236773
v 0.000000 -65.056862 -28.722212
v 0.000000 -73.694946 -26.304577
v 0.000000 -60.685982 35.041740
v -20.597050 -60.685982 28.349352
v -33.326721 -60.685966 10.828464
v -33.326721 -60.685966 -10.828556
v -20.597050 -60.685940 -28.349447
v 0.000000 -60.685940 -35.041840
v 20.597050 -60.685940 -28.349447
v 33.326721 -60.685966 -10.828556
v 33.326721 -60.685966 10.828464
v 20.597050 -60.685982 28.349352
v 0.000000 -4.140116 -34.853390
v -20.486300 -4.140129 -28.196981
v -18.426189 -0.214738 -25.361481
v 0.000000 -0.214725 -31.348511
v -33.147541 -4.140138 -10.770291
v -29.814201 -0.214744 -9.687220
v -33.147541 -4.140150 10.770289
v -29.814201 -0.214756 9.687220
v -20.486300 -4.140158 28.196981
v -18.426189 -0.214762 25.361481
v 0.000000 -4.140172 34.853378
v 0.000000 -0.214775 31.348511
v 20.486309 -4.140158 28.196981
v 18.426189 -0.214762 25.361481
v 33.147541 -4.140150 10.770289
v 29.814209 -0.214756 9.687220
v 33.147541 -4.140138 -10.770291
v 29.814209 -0.214744 -9.687220
v 20.486300 -4.140129 -28.196981
v 18.426189 -0.214738 -25.361481
v 0.000000 -3.453223 -34.059280
v 20.019541 -3.453235 -27.554531
v 32.392300 -3.453244 -10.524903
v 32.392300 -3.453256 10.524888
v 20.019541 -3.453264 27.554531
v 17.959431 -0.752659 24.719030
v 0.000000 -3.453275 34.059280
v 0.000000 -0.752662 30.554399
v -20.019541 -3.453264 27.554531
v -32.392300 -3.453256 10.524888
v -32.392300 -3.453244 -10.524903
v -20.019541 -3.453235 -27.554531
v 0.000000 -0.752632 -30.554399
v 0.000000 -10.939400 42.187229
v 40.122444 -10.939364 -13.036576
v 0.000000 -10.939340 -42.187229
v -40.122444 -10.939364 -13.036576
v 24.797029 -10.939342 -34.130180
v 29.058960 -0.752642 -9.441830
v 17.959431 -0.752635 -24.719030
v 29.058960 -0.752653 9.441830
v -29.058960 -0.752653 9.441830
v -17.959431 -0.752659 24.719030
v -29.058960 -0.752642 -9.441830
v -17.959431 -0.752635 -24.719030
v 0.000000 2.374252 -23.544651
v 13.839199 2.374249 -19.048031
v 22.392300 2.374243 -7.275700
v 22.392300 2.374237 7.275702
v 13.839199 2.374231 19.048019
v 0.000000 2.374228 23.544651
v -13.839199 2.374231 19.048019
v -22.392290 2.374237 7.275702
v -22.392290 2.374243 -7.275700
v -13.839199 2.374249 -19.048031
vt 0.500000 0.794308
vt 0.724493 0.808988
vt 0.500000 0.881930
vt 0.672990 0.738100
vt 0.327010 0.738100
vt 0.220096 0.590946
vt 0.275507 0.808988
vt 0.136763 0.618023
vt 0.863237 0.618023
vt 0.779904 0.590946
vt 0.779904 0.409054
vt 0.863237 0.381977
vt 0.724493 0.191012
vt 0.327010 0.261900
vt 0.136763 0.381977
vt 0.275507 0.191012
vt 0.220096 0.409054
vt 0.500000 0.118070
vt 0.500000 0.205692
vt 0.672990 0.261900
vt 3.800000 -0.256878
vt 4.200000 -0.395679
vt 4.200000 -0.256878
vt 3.800000 -0.395679
vt 3.400000 -0.256878
vt 3.400000 -0.395679
vt 3.000000 -0.256878
vt 3.000000 -0.395679
vt 2.600000 -0.256878
vt 2.600000 -0.395679
vt 2.200000 -0.256878
vt 2.200000 -0.395679
vt 1.800000 -0.256878
vt 1.800000 -0.395679
vt 1.400000 -0.256878
vt 1.400000 -0.395679
vt 1.000000 -0.256878
vt 1.000000 -0.395679
vt 0.600000 -0.256878
vt 0.600000 -0.395679
vt 0.200000 -0.256878
vt 0.200000 -0.395679
vt 3.800000 -0.558292
vt 4.200000 -0.612844
vt 4.200000 -0.558292
vt 3.800000 -0.612844
vt 3.400000 -0.612844
vt 3.400000 -0.651782
vt 3.000000 -0.612844
vt 2.600000 -0.651782
vt 2.600000 -0.612844
vt 2.200000 -0.612844
vt 2.200000 -0.558292
vt 1.400000 -0.558292
vt 1.800000 -0.612844
vt 1.800000 -0.558292
vt 1.400000 -0.612844
vt 1.000000 -0.612844
vt 1.000000 -0.651782
vt 0.600000 -0.612844
vt 0.200000 -0.651782
vt 0.200000 -0.612844
vt 4.200000 -0.450316
vt 3.800000 -0.450316
vt 3.400000 -0.450316
vt 3.400000 -0.558292
vt 3.000000 -0.450316
vt 3.000000 -0.558292
vt 2.600000 -0.558292
vt 2.600000 -0.450316
vt 2.200000 -0.450316
vt 1.800000 -0.450316
vt 1.800000 -0.651782
vt 2.600000 -0.863529
vt 3.400000 -0.863529
vt 1.400000 0.225587
vt 1.800000 0.225587
vt 1.000000 0.225587
vt 1.000000 -0.558292
vt 0.600000 -0.450316
vt 0.600000 -0.558292
vt 1.000000 -0.450316
vt 1.400000 -0.450316
vt 4.200000 0.225587
vt 0.200000 -0.450316
vt 0.200000 -0.558292
vt 3.800000 0.225587
vt 3.400000 0.225587
vt 1.800000 -0.863529
vt 4.200000 -0.651782
vt 4.200000 -0.863529
vt 1.000000 -0.863529
vt 0.200000 -0.863529
vt 0.570076 0.703002
vt 0.429924 0.703002
vt 0.500000 0.652089
vt 0.456691 0.785381
vt 0.543309 0.785381
vt 3.000000 0.225587
vt 2.600000 0.225587
vt 2.200000 0.225587
vt 0.000000 0.000000
vt 0.000000 0.000000
vt 0.000000 0.000000
vt 0.000000 0.000000
vt 0.000000 0.000000
vt 0.000000 0.000000
vt 0.000000 0.000000
vt 0.000000 0.000000
vt 0.000000 0.000000
vt 0.000000 0.000000
vt 0.000000 0.000000
vt 0.000000 0.000000
vt 0.000000 0.000000
vt 0.000000 0.000000
vt 0.000000 0.000000
vt 0.000000 0.000000
vt 0.000000 0.000000
vt 0.000000 0.000000
vt 0.000000 0.000000
vt 0.000000 0.000000
vt 0.000000 0.000000
vt 0.000000 0.000000
vt 0.000000 0.000000
vt 0.000000 0.000000
vt 0.000000 0.000000
vt 0.000000 0.000000
vt 0.000000 0.000000
vt 0.000000 0.000000
vt 0.000000 0.000000
vt 0.000000 0.000000
vt 3.800000 0.348198
vt 4.200000 0.348198
vt 3.000000 0.348198
vt 3.400000 0.348198
vt 2.200000 0.348198
vt 1.800000 0.348198
vt 1.000000 0.348198
vt 0.600000 0.225587
vt 0.600000 0.348198
vt 2.600000 0.348198
vt 1.400000 0.348198
vt 0.200000 0.225587
vt 0.200000 0.348198
vt 0.000000 0.000000
vt 0.000000 0.000000
vt 0.000000 0.000000
vt 0.000000 0.000000
vt 0.000000 0.000000
vt 0.000000 0.000000
vt 0.000000 0.000000
vt 0.000000 0.000000
vt 0.000000 0.000000
vt 0.000000 0.000000
vn 0.0000 0.9689 -0.2473
vn 0.2395 0.9133 -0.3296
vn 0.0000 0.9133 -0.4074
vn 0.1454 0.9689 -0.2001
vn -0.1454 0.9689 -0.2001
vn -0.2352 0.9689 -0.0764
vn -0.2395 0.9133 -0.3296
vn -0.3874 0.9133 -0.1259
vn 0.3874 0.9133 -0.1259
vn 0.2352 0.9689 -0.0764
vn 0.2352 0.9689 0.0764
vn 0.3874 0.9133 0.1259
vn 0.2395 0.9133 0.3296
vn -0.1454 0.9689 0.2001
vn -0.3874 0.9133 0.1259
vn -0.2395 0.9133 0.3296
vn -0.2352 0.9689 0.0764
vn -0.0000 0.9133 0.4074
vn 0.0000 0.9689 0.2473
vn 0.1454 0.9689 0.2001
vn -0.9163 -0.2680 -0.2977
vn -0.7005 -0.6764 0.2276
vn -0.9163 -0.2680 0.2977
vn -0.7005 -0.6764 -0.2276
vn -0.5663 -0.2680 -0.7794
vn -0.4329 -0.6764 -0.5959
vn 0.0000 -0.2680 -0.9634
vn -0.0000 -0.6764 -0.7365
vn 0.5663 -0.2680 -0.7794
vn 0.4329 -0.6764 -0.5959
vn 0.9163 -0.2680 -0.2977
vn 0.7005 -0.6764 -0.2276
vn 0.9163 -0.2680 0.2977
vn 0.7005 -0.6764 0.2276
vn 0.5663 -0.2680 0.7794
vn 0.4329 -0.6764 0.5959
vn -0.0000 -0.2680 0.9634
vn -0.0000 -0.6764 0.7365
vn -0.5663 -0.2680 0.7794
vn -0.4329 -0.6764 0.5959
vn -0.8265 -0.4947 -0.2686
vn -0.5657 -0.8039 0.1838
vn -0.8265 -0.4947 0.2686
vn -0.5386 -0.8242 -0.1750
vn -0.3496 -0.8039 -0.4812
vn -0.3791 -0.7641 -0.5218
vn 0.0000 -0.8242 -0.5664
vn 0.3791 -0.7641 -0.5218
vn 0.3496 -0.8039 -0.4812
vn 0.5386 -0.8242 -0.1750
vn 0.8265 -0.4947 -0.2686
vn 0.5108 -0.4947 0.7031
vn 0.5657 -0.8039 0.1838
vn 0.8265 -0.4947 0.2686
vn 0.3329 -0.8242 0.4582
vn 0.0000 -0.8039 0.5948
vn -0.0000 -0.7641 0.6450
vn -0.3329 -0.8242 0.4582
vn -0.6135 -0.7641 0.1993
vn -0.7504 -0.6144 0.2438
vn -0.7504 -0.6144 -0.2438
vn -0.4637 -0.6144 -0.6383
vn -0.5108 -0.4947 -0.7031
vn -0.0000 -0.6144 -0.7890
vn 0.0000 -0.4947 -0.8691
vn 0.5108 -0.4947 -0.7031
vn 0.4637 -0.6144 -0.6383
vn 0.7504 -0.6144 -0.2438
vn 0.7504 -0.6144 0.2438
vn 0.6135 -0.7641 0.1993
vn 0.4185 -0.7022 -0.5760
vn -0.4185 -0.7022 -0.5760
vn 0.5449 0.3751 0.7499
vn 0.8816 0.3751 0.2865
vn -0.0000 0.3751 0.9270
vn -0.0000 -0.4947 0.8690
vn -0.4637 -0.6144 0.6383
vn -0.5108 -0.4947 0.7031
vn -0.0000 -0.6144 0.7890
vn 0.4637 -0.6144 0.6383
vn -0.8816 0.3751 0.2865
vn -0.8816 0.3751 -0.2865
vn -0.5449 0.3751 -0.7499
vn 0.6772 -0.7022 0.2200
vn -0.6772 -0.7022 0.2200
vn 0.0000 -0.7022 0.7120
vn -0.0000 0.3751 -0.9270
vn 0.5449 0.3751 -0.7499
vn 0.8816 0.3751 -0.2865
vn -0.0000 0.6660 -0.7459
vn -0.4384 0.6660 -0.6035
vn -0.7094 0.6660 -0.2305
vn -0.7094 0.6660 0.2305
vn -0.4384 0.6660 0.6035
vn -0.0000 0.6660 0.7459
vn 0.4384 0.6660 0.6035
vn 0.7094 0.6660 0.2305
vn 0.7094 0.6660 -0.2305
vn 0.4384 0.6660 -0.6035
vn 0.3845 -0.7563 0.5293
vn 0.0000 -0.7563 0.6542
vn 0.6222 -0.7563 0.2022
vn 0.6222 -0.7563 -0.2022
vn 0.3845 -0.7563 -0.5293
vn 0.0000 -0.7563 -0.6542
vn -0.3845 -0.7563 -0.5293
vn -0.6222 -0.7563 -0.2022
vn -0.6222 -0.7563 0.2022
vn -0.3845 -0.7563 0.5293
vn -0.6443 0.7356 -0.2093
vn -0.6443 0.7356 0.2093
vn -0.0000 0.7356 -0.6775
vn -0.3982 0.7356 -0.5481
vn 0.6443 0.7356 -0.2093
vn 0.6443 0.7356 0.2093
vn -0.0000 0.7356 0.6775
vn -0.5449 0.3751 0.7499
vn -0.3982 0.7356 0.5481
vn 0.3982 0.7356 -0.5481
vn 0.3982 0.7356 0.5481
vn 0.0000 0.8279 0.5608
vn 0.3296 0.8279 0.4537
vn 0.5334 0.8279 0.1733
vn 0.5334 0.8279 -0.1733
vn 0.3296 0.8279 -0.4537
vn 0.0000 0.8279 -0.5608
vn -0.3296 0.8279 -0.4537
vn -0.5334 0.8279 -0.1733
vn -0.5334 0.8279 0.1733
vn -0.3296 0.8279 0.4537
usemtl m1
s 1
f 111/1/1 105/2/2 98/3/3
f 105/2/2 111/1/1 112/4/4
f 120/5/5 112/4/4 111/1/1
f 112/4/4 120/5/5 119/6/6
f 110/7/7 119/6/6 120/5/5
f 119/6/6 110/7/7 109/8/8
f 112/4/4 104/9/9 105/2/2
f 104/9/9 112/4/4 113/10/10
f 114/11/11 113/10/10 112/4/4
f 113/10/10 114/11/11 106/12/12
f 91/13/13 106/12/12 114/11/11
f 117/14/14 107/15/15 108/16/16
f 107/15/15 117/14/14 118/17/17
f 112/4/4 118/17/17 117/14/14
f 118/17/17 112/4/4 119/6/6
f 93/18/18 116/19/19 108/16/16
f 116/19/19 93/18/18 115/20/20
f 91/13/13 115/20/20 93/18/18
f 115/20/20 91/13/13 114/11/11
f 116/19/19 117/14/14 108/16/16
f 117/14/14 116/19/19 112/4/4
f 115/20/20 112/4/4 116/19/19
f 112/4/4 115/20/20 114/11/11
f 120/5/5 98/3/3 110/7/7
f 98/3/3 120/5/5 111/1/1
f 118/17/17 109/8/8 107/15/15
f 109/8/8 118/17/17 119/6/6
f 104/9/9 113/10/10 106/12/12
usemtl None
f 10/21/21 58/22/22 1/23/23
f 58/22/22 10/21/21 59/24/24
f 13/25/25 59/24/24 10/21/21
f 59/24/24 13/25/25 60/26/26
f 14/27/27 60/26/26 13/25/25
f 60/26/26 14/27/27 61/28/28
f 7/29/29 61/28/28 14/27/27
f 61/28/28 7/29/29 62/30/30
f 6/31/31 62/30/30 7/29/29
f 62/30/30 6/31/31 63/32/32
f 15/33/33 63/32/32 6/31/31
f 63/32/32 15/33/33 64/34/34
f 4/35/35 64/34/34 15/33/33
f 64/34/34 4/35/35 65/36/36
f 12/37/37 65/36/36 4/35/35
f 65/36/36 12/37/37 56/38/38
f 2/39/39 56/38/38 12/37/37
f 56/38/38 2/39/39 57/40/40
f 1/41/23 57/40/40 2/39/39
f 57/40/40 1/41/23 58/42/22
f 36/43/41 34/44/42 38/45/43
f 34/44/42 36/43/41 27/46/44
f 24/47/45 27/46/44 36/43/41
f 27/46/44 24/47/45 26/48/46
f 25/49/47 26/48/46 24/47/45
f 26/48/46 25/49/47 33/50/48
f 35/51/49 33/50/48 25/49/47
f 33/50/48 35/51/49 32/52/50
f 49/53/51 32/52/50 35/51/49
f 47/54/52 30/55/53 50/56/54
f 30/55/53 47/54/52 21/57/55
f 22/58/56 21/57/55 47/54/52
f 21/57/55 22/58/56 23/59/57
f 29/60/58 23/59/57 22/58/56
f 23/59/57 29/60/58 28/61/59
f 34/62/42 28/61/59 29/60/58
f 59/24/24 41/63/60 58/22/22
f 41/63/60 59/24/24 39/64/61
f 40/65/62 39/64/61 59/24/24
f 39/64/61 40/65/62 37/66/63
f 54/67/64 37/66/63 40/65/62
f 37/66/63 54/67/64 55/68/65
f 51/69/66 55/68/65 54/67/64
f 53/70/67 51/69/66 54/67/64
f 51/69/66 53/70/67 52/71/68
f 63/32/32 52/71/68 53/70/67
f 52/71/68 63/32/32 48/72/69
f 64/34/34 48/72/69 63/32/32
f 48/72/69 64/34/34 65/36/36
f 30/55/53 49/53/51 50/56/54
f 49/53/51 30/55/53 32/52/50
f 31/73/70 32/52/50 30/55/53
f 32/52/50 31/73/70 33/50/48
f 16/74/71 33/50/48 31/73/70
f 33/50/48 16/74/71 18/75/72
f 11/76/73 15/33/33 5/77/74
f 4/35/35 99/78/75 12/37/37
f 43/79/76 44/80/77 42/81/78
f 44/80/77 43/79/76 45/82/79
f 46/83/80 45/82/79 43/79/76
f 45/82/79 46/83/80 65/36/36
f 48/72/69 65/36/36 46/83/80
f 61/28/28 54/67/64 40/65/62
f 54/67/64 61/28/28 53/70/67
f 62/30/30 53/70/67 61/28/28
f 53/70/67 62/30/30 63/32/32
f 99/78/75 2/39/39 12/37/37
f 2/39/39 9/84/81 1/23/23
f 41/85/60 57/40/40 58/42/22
f 57/40/40 41/85/60 44/80/77
f 38/86/43 44/80/77 41/85/60
f 44/80/77 38/86/43 42/81/78
f 35/51/49 51/69/66 49/53/51
f 51/69/66 35/51/49 55/68/65
f 25/49/47 55/68/65 35/51/49
f 55/68/65 25/49/47 24/47/45
f 1/23/23 102/87/82 10/21/21
f 8/88/83 10/21/21 102/87/82
f 42/81/78 29/60/58 22/58/56
f 29/60/58 42/81/78 34/62/42
f 38/86/43 34/62/42 42/81/78
f 39/64/61 38/45/43 41/63/60
f 38/45/43 39/64/61 36/43/41
f 37/66/63 36/43/41 39/64/61
f 52/71/68 49/53/51 51/69/66
f 49/53/51 52/71/68 50/56/54
f 48/72/69 50/56/54 52/71/68
f 31/73/70 19/89/84 16/74/71
f 19/89/84 31/73/70 23/59/57
f 21/57/55 23/59/57 31/73/70
f 28/90/59 26/48/46 17/91/85
f 26/48/46 28/90/59 27/46/44
f 34/44/42 27/46/44 28/90/59
f 20/92/86 28/61/59 17/93/85
f 28/61/59 20/92/86 23/59/57
f 19/89/84 23/59/57 20/92/86
f 17/94/85 19/95/84 20/96/86
f 19/95/84 17/94/85 16/97/71
f 18/98/72 16/97/71 17/94/85
f 46/83/80 50/56/54 48/72/69
f 50/56/54 46/83/80 47/54/52
f 43/79/76 47/54/52 46/83/80
f 60/26/26 40/65/62 59/24/24
f 40/65/62 60/26/26 61/28/28
f 24/47/45 37/66/63 55/68/65
f 37/66/63 24/47/45 36/43/41
f 13/25/25 101/99/87 14/27/27
f 103/100/88 14/27/27 101/99/87
f 18/75/72 26/48/46 33/50/48
f 26/48/46 18/75/72 17/91/85
f 43/79/76 22/58/56 47/54/52
f 22/58/56 43/79/76 42/81/78
f 56/38/38 45/82/79 65/36/36
f 45/82/79 56/38/38 57/40/40
f 103/100/88 6/31/31 7/29/29
f 15/33/33 100/101/89 5/77/74
f 44/80/77 45/82/79 57/40/40
f 30/55/53 21/57/55 31/73/70
f 66/102/90 67/103/91 69/104/90
f 69/104/90 67/103/91 68/105/91
f 70/106/92 68/105/91 67/103/91
f 68/105/91 70/106/92 71/107/92
f 72/108/93 71/107/92 70/106/92
f 71/107/92 72/108/93 73/109/93
f 74/110/94 73/109/93 72/108/93
f 73/109/93 74/110/94 75/111/94
f 76/112/95 75/111/94 74/110/94
f 75/111/94 76/112/95 77/113/95
f 78/114/96 77/113/95 76/112/95
f 77/113/95 78/114/96 79/115/96
f 80/116/97 79/115/96 78/114/96
f 79/115/96 80/116/97 81/117/97
f 82/118/98 81/117/97 80/116/97
f 81/117/97 82/118/98 83/119/98
f 84/120/99 83/119/98 82/118/98
f 83/119/98 84/120/99 85/121/99
f 66/102/90 85/121/99 84/120/99
f 85/121/99 66/102/90 69/104/90
f 97/122/100 67/103/100 86/123/101
f 67/103/100 97/122/100 70/106/102
f 96/124/102 70/106/102 97/122/100
f 70/106/102 96/124/102 72/108/103
f 95/125/103 72/108/103 96/124/102
f 72/108/103 95/125/103 74/110/104
f 94/126/104 74/110/104 95/125/103
f 74/110/104 94/126/104 76/112/105
f 92/127/105 76/112/105 94/126/104
f 76/112/105 92/127/105 78/114/106
f 90/128/106 78/114/106 92/127/105
f 78/114/106 90/128/106 80/116/107
f 89/129/107 80/116/107 90/128/106
f 80/116/107 89/129/107 82/118/108
f 88/130/108 82/118/108 89/129/107
f 82/118/108 88/130/108 84/120/109
f 87/131/109 84/120/109 88/130/108
f 66/102/101 84/120/109 87/131/109
f 86/123/101 66/102/101 87/131/109
f 66/102/101 86/123/101 67/103/100
f 8/88/83 102/87/82 96/132/110
f 95/133/111 96/132/110 102/87/82
f 103/100/88 101/99/87 86/134/112
f 97/135/113 86/134/112 101/99/87
f 88/136/114 5/77/74 100/101/89
f 5/77/74 88/136/114 89/137/115
f 92/138/116 3/139/117 99/78/75
f 3/139/117 92/138/116 94/140/118
f 87/141/119 100/101/89 103/100/88
f 100/101/89 87/141/119 88/136/114
f 90/142/120 11/76/73 89/137/115
f 11/76/73 90/142/120 99/78/75
f 92/138/116 99/78/75 90/142/120
f 102/87/82 9/84/81 95/133/111
f 11/76/73 5/77/74 89/137/115
f 8/88/83 97/135/113 101/99/87
f 97/135/113 8/88/83 96/132/110
f 9/143/81 94/140/118 95/144/111
f 94/140/118 9/143/81 3/139/117
f 69/104/121 110/145/122 98/146/121
f 110/145/122 69/104/121 68/105/122
f 68/105/122 109/147/123 110/145/122
f 109/147/123 68/105/122 71/107/123
f 71/107/123 107/148/124 109/147/123
f 107/148/124 71/107/123 73/109/124
f 73/109/124 108/149/125 107/148/124
f 108/149/125 73/109/124 75/111/125
f 75/111/125 93/150/126 108/149/125
f 93/150/126 75/111/125 77/113/126
f 77/113/126 91/151/127 93/150/126
f 91/151/127 77/113/126 79/115/127
f 79/115/127 106/152/128 91/151/127
f 106/152/128 79/115/127 81/117/128
f 81/117/128 104/153/129 106/152/128
f 104/153/129 81/117/128 83/119/129
f 83/119/129 105/154/130 104/153/129
f 105/154/130 83/119/129 85/121/130
f 85/121/130 98/146/121 105/154/130
f 98/146/121 85/121/130 69/104/121
f 87/141/119 103/100/88 86/134/112
f 11/76/73 4/35/35 15/33/33
f 4/35/35 11/76/73 99/78/75
f 99/78/75 3/139/117 2/39/39
f 2/39/39 3/139/117 9/84/81
f 1/23/23 9/84/81 102/87/82
f 8/88/83 13/25/25 10/21/21
f 13/25/25 8/88/83 101/99/87
f 103/100/88 7/29/29 14/27/27
f 103/100/88 100/101/89 6/31/31
f 15/33/33 6/31/31 100/101/89
