# Blender v2.79 (sub 0) OBJ File: ''
# www.blender.org
mtllib Transparent.mtl
v -2963.790283 409.893829 -1079.999878
v -221.298599 356.127014 -3118.727539
v -167.622299 377.355621 -3115.463379
v -106.367401 394.182312 -3120.827148
v -25.694099 404.172302 -3131.132324
v 43.668301 398.230804 -3139.674805
v 117.574203 378.891022 -3143.810059
v 1330.773926 107.814316 1512.979126
v -2967.129395 414.548615 -1066.852295
v -2976.307373 412.291107 -1057.508545
v -2970.361328 410.012604 -1069.523560
v 3339.663574 111.943787 -332.833466
v 3339.663574 111.943115 30.656910
v 3339.663574 132.411377 -332.833466
v 3339.807861 132.410706 30.737030
v 3676.229004 111.943115 30.656910
v 3676.229004 132.410706 30.657230
v 3676.229004 111.943787 -332.833466
v 3676.223877 132.411377 -332.751251
v 2915.563965 204.652634 62.099476
v 2949.172852 205.981369 -56.906921
v 2915.563965 232.699631 62.099518
v 2873.483154 228.219559 186.942032
v 2873.483154 200.172272 186.942032
v 2824.291260 223.030304 323.579132
v 2824.291260 194.983002 323.579132
v 2949.172852 234.028671 -56.906879
v 2978.630371 214.836929 -181.611862
v 2978.630371 242.884232 -181.611694
v 3007.804932 221.818100 -322.236572
v 3007.804932 249.865097 -322.236572
v 3046.995605 244.152832 -501.003876
v 3046.995605 216.105835 -501.003876
v -3232.220215 420.403320 849.555969
v -3232.220215 448.450317 849.555969
v -3399.840332 505.567719 425.432495
v -3186.981445 414.763916 969.228943
v -3186.981445 386.716919 969.228943
v -3010.898682 380.695892 1213.747070
v -3010.898682 352.648590 1213.745728
v -2660.731689 334.381256 1331.468994
v -2660.731689 306.334259 1331.468994
v -3399.840332 533.615356 425.432495
v -2328.873047 187.759949 1555.380981
v -2189.123535 169.940674 1678.612305
v -2328.873047 215.807251 1555.380981
v -2442.744385 230.244308 1454.972412
v -2442.744385 258.291626 1454.972412
v -2543.350830 250.715881 1397.975342
v -2543.350830 278.763062 1397.975342
v 2424.413574 198.622391 570.297485
v 2424.413574 226.669388 570.297485
v 2252.290283 214.621994 589.999878
v 2252.290283 242.668991 589.999878
v 2129.358154 224.814026 638.032593
v 2129.358154 252.861023 638.032593
v 2039.447021 219.962250 737.447449
v 2039.447021 191.915253 737.447449
v 1899.318237 174.362228 921.772522
v 1899.318237 146.315216 921.772522
v 1835.264160 166.786148 986.799316
v 1835.264160 138.738861 986.799316
v 1673.365479 144.150085 1147.597168
v 1673.365479 172.197083 1147.597168
v 1536.036133 161.099747 1269.044189
v 1536.036133 133.052750 1269.044189
v 1407.291870 148.710190 1358.410156
v 1407.291870 120.663269 1358.410156
v 1330.773926 135.861313 1512.979126
v 2183.213867 107.608597 1455.095093
v 2183.213867 135.655518 1455.095093
v 2266.623291 111.968231 1285.118896
v 2054.335938 116.645844 1612.052490
v 2054.335938 88.598846 1612.052490
v 2266.623291 140.015457 1285.118896
v 2383.481201 140.649521 1184.277588
v 2383.481201 112.602600 1184.277588
v 2782.391113 188.195023 417.440430
v 2782.391113 216.242630 417.440430
v 2711.456055 206.239563 504.835236
v 2711.456055 178.192566 504.835236
v 2617.843018 181.439896 570.745483
v 2617.843018 209.486893 570.746155
v 3201.826660 84.937492 837.171875
v 3201.826660 112.984489 837.171875
v 3272.783203 87.821854 730.282776
v 3068.856689 89.564819 932.831116
v 3068.856689 117.611824 932.831116
v 2901.417969 98.100037 1003.151978
v 2901.417969 126.147339 1003.151978
v 2741.180664 107.878067 1059.385132
v 2741.180664 135.925156 1059.385132
v 2574.036133 111.423767 1085.412842
v 2574.036133 139.470688 1085.412842
v 3272.783203 115.869156 730.282776
v -2189.123535 141.893372 1678.612305
v -2101.173340 45.004719 2386.857910
v -2101.173340 73.051720 2386.857910
v -2151.551270 86.318222 2110.981201
v -2035.564209 60.885399 2618.046387
v -2035.564209 32.838402 2618.046387
v -2151.551270 114.365524 2110.981201
v -2158.250488 107.669861 1902.631104
v -2158.250488 135.716949 1902.631104
v 782.092224 245.225906 2075.016846
v 750.332092 245.011108 2106.776855
v 782.092224 224.633301 2075.016846
v 750.332092 224.418213 2106.776855
v 442.045197 137.486832 2415.065430
v 476.647186 149.450699 2380.463379
v 442.045197 157.879044 2415.065430
v 476.647186 169.795807 2380.463379
v 333.190796 99.781769 2523.920410
v 369.216614 112.366249 2487.891602
v 333.190796 120.227371 2523.920410
v 369.216614 132.764664 2487.891602
v 549.023071 174.309311 2308.085693
v 581.873108 185.730469 2275.235840
v 549.023071 194.852707 2308.085693
v 581.873108 206.226166 2275.235840
v 644.014771 206.317978 2212.853760
v 678.964172 215.619644 2178.069824
v 644.014771 226.955872 2212.853760
v 678.964172 236.341843 2178.069824
v 1090.332642 137.426514 1766.776245
v 1090.332642 157.898209 1766.776245
v 1055.586304 149.397705 1801.522461
v 1055.586304 169.821716 1801.522461
v 983.198120 174.326340 1873.911133
v 983.198120 194.772842 1873.911133
v 950.513672 185.695145 1906.594971
v 950.513672 206.094238 1906.594971
v 888.153015 206.275879 1969.383301
v 888.153015 227.168472 1969.383301
v 853.048523 215.078781 2003.493896
v 853.048523 235.924576 2003.493896
v 766.625977 581.190491 2091.433838
v 750.764709 251.019943 2107.300293
v 782.492676 251.020111 2075.567139
v 831.957275 245.302246 2188.887695
v 863.962830 245.085342 2156.876953
v 831.957275 224.558441 2188.887695
v 863.962830 224.342133 2156.876953
v 1172.492065 157.952637 1848.353394
v 1137.158081 149.380447 1883.681885
v 1137.158081 170.120346 1883.681885
v 1065.282593 174.186081 1955.562500
v 1032.165649 185.700378 1988.679565
v 1065.282593 194.883972 1955.562500
v 1032.165649 206.350571 1988.679565
v 970.253418 206.327606 2050.591797
v 934.823425 215.492310 2086.021729
v 970.253418 227.168304 2050.591797
v 934.823425 236.285004 2086.021729
v 523.700073 137.301270 2497.144531
v 523.700073 157.924774 2497.144531
v 558.730225 149.368637 2462.114990
v 558.730225 169.944733 2462.114990
v 415.102203 99.877304 2605.743408
v 415.102203 120.286903 2605.743408
v 451.050598 112.369682 2569.794678
v 451.050598 132.732574 2569.794678
v 630.514771 173.899933 2390.330322
v 630.514771 194.877731 2390.330322
v 664.117798 185.589600 2356.721924
v 664.117798 206.518204 2356.721924
v 725.586609 205.876511 2295.258545
v 725.586609 226.939804 2295.258545
v 761.422791 215.125366 2259.422363
v 761.422791 236.139465 2259.422363
v 847.546326 581.190491 2172.348145
v 863.412598 251.019943 2156.481689
v 831.679504 251.019943 2188.214844
v 871.741516 245.158539 2148.446777
v 926.596191 238.215210 2092.608887
v 871.741516 223.834534 2148.446777
v 926.596191 217.707214 2092.608887
v 1128.182983 152.555939 1891.989258
v 1073.702148 171.395782 1946.470215
v 1128.182983 173.550537 1891.989258
v 1073.702148 192.343582 1946.470215
v 1023.746094 188.346375 1996.447510
v 977.155823 204.451111 2042.043823
v 1023.746094 210.048981 1996.447510
v 977.155823 225.145111 2042.043823
v 566.823914 152.185043 2453.348389
v 566.823914 173.414536 2453.348389
v 622.025696 171.331940 2398.146240
v 622.025696 192.432434 2398.146240
v 459.682800 115.339386 2560.488770
v 459.682800 136.089264 2560.488770
v 514.582520 134.404175 2505.590820
v 514.582520 155.313568 2505.590820
v 671.981689 188.451004 2348.195557
v 671.981689 209.777710 2348.195557
v 716.889282 204.294601 2302.315918
v 717.172180 225.288910 2303.004883
v 767.817322 217.402374 2251.387695
v 767.817322 237.901367 2251.387695
v 823.505676 223.917938 2196.677246
v 823.505676 245.369446 2196.677246
v 791.783081 244.757309 2066.800293
v 791.783081 224.045914 2066.800293
v 845.216675 238.029373 2012.314209
v 845.216675 217.325180 2012.314209
v 1099.863281 155.687210 1758.623657
v 1099.863281 134.455917 1758.623657
v 1155.551392 136.474182 1702.930176
v 1155.551392 115.194878 1702.930176
v 992.792725 192.608643 1865.689209
v 992.792725 171.392349 1865.689209
v 1048.037598 173.554916 1810.449707
v 1048.037598 152.290604 1810.449707
v 897.037170 224.432770 1959.959473
v 897.037170 204.082870 1959.959473
v 942.276001 209.948349 1916.206299
v 942.276001 188.630341 1916.206299
v 541.052429 192.118500 2317.434814
v 486.192902 173.409897 2372.000977
v 541.052429 171.334808 2317.434814
v 486.192902 152.499908 2372.000977
v 433.775085 155.118134 2424.708252
v 378.756287 135.805634 2479.312012
v 433.775085 134.405533 2424.708252
v 378.756287 115.251053 2479.312012
v 636.198914 224.937469 2222.288574
v 591.195312 209.735565 2266.762695
v 635.915588 204.330170 2221.614990
v 591.195312 188.802765 2266.762695
v 742.126221 244.965942 2116.355469
v 688.142395 238.471542 2169.388672
v 742.126221 224.121933 2116.355469
v 688.142395 217.805740 2169.388672
v 1199.315674 99.664261 1657.793213
v 1199.315674 120.332466 1657.793213
v 1162.875977 112.328682 1694.233154
v 1162.875977 132.948883 1694.233154
v 1172.492065 137.164139 1848.353394
v 1281.405518 99.413895 1739.439453
v 1244.533203 112.294914 1776.312378
v 1281.405518 120.302895 1739.439453
v 1244.533203 133.135010 1776.312378
v 1235.782227 115.403511 1784.389648
v 1180.687256 134.457245 1839.485107
v 1235.782227 136.471313 1784.389648
v 1180.687256 155.478241 1839.485107
v -221.298599 384.174011 -3118.727539
v -227.575500 384.173676 -3015.455322
v -227.575500 350.876068 -3015.455322
v -167.622299 405.402618 -3115.463379
v 43.668301 426.277802 -3139.674805
v 117.574203 406.938019 -3143.810059
v 170.404800 386.977203 -3104.004395
v 168.499207 410.988617 -3102.487061
v 177.481796 386.976868 -3081.491455
v 176.300995 411.491669 -3080.957520
v -25.694099 432.219604 -3131.132324
v -106.367401 422.229309 -3120.827148
vt 0.326500 0.717700
vt 0.477000 0.699600
vt 0.087600 0.719150
vt 0.058300 0.743800
vt 17.021000 0.953500
vt -0.000500 0.953500
vt 17.030399 1.000300
vt -0.000500 1.000300
vt -17.030399 0.953500
vt -17.021000 1.000300
vt -0.000500 0.953500
vt -17.030399 0.953500
vt -0.000500 1.000300
vt 17.030399 1.000300
vt 17.021000 0.953500
vt -17.021000 1.000300
vt 33.778500 0.954150
vt 37.815399 0.954150
vt 33.805599 0.999850
vt 29.145800 0.999850
vt 29.121700 0.954150
vt 23.737499 0.999850
vt 23.716999 0.954150
vt 37.844799 0.999850
vt 41.675598 0.954150
vt 41.707100 0.999850
vt 45.684502 0.954150
vt 45.717999 0.999850
vt 51.049198 0.999850
vt 51.048801 0.954150
vt 0.975700 0.952750
vt 0.975700 0.999600
vt -18.050699 0.952750
vt 5.082300 0.999600
vt 5.082300 0.952750
vt 15.029200 0.999600
vt 15.029200 0.952750
vt 26.537201 0.999600
vt 26.537201 0.952750
vt -18.050699 0.999600
vt 37.869999 0.952750
vt 43.834999 0.999600
vt 37.869999 0.999600
vt 33.009499 0.952750
vt 33.009499 0.999600
vt 30.022400 0.952750
vt 30.022400 0.999600
vt 3.704900 0.954150
vt 3.710200 0.999850
vt -1.562100 0.954150
vt -1.560700 0.999850
vt -5.575500 0.954150
vt -5.576800 0.999850
vt -13.258700 0.999850
vt -13.252400 0.954150
vt -19.706699 0.999850
vt -19.696199 0.954150
vt -25.631399 0.999850
vt -25.616899 0.954150
vt -32.352402 0.954150
vt -32.371201 0.999850
vt -38.980701 0.999850
vt -38.957802 0.954150
vt -44.130299 0.999850
vt -44.104500 0.954150
vt -51.011600 0.999850
vt -51.011600 0.954150
vt 15.330100 0.954850
vt 15.330100 0.999900
vt 11.631600 0.954850
vt 20.026100 0.999900
vt 20.026100 0.954850
vt 11.631600 0.999900
vt 7.294800 0.999900
vt 7.294800 0.954850
vt 19.594801 0.954150
vt 19.612499 0.999850
vt 14.599200 0.999850
vt 14.585400 0.954150
vt 9.516600 0.954150
vt 9.526400 0.999850
vt -15.466800 0.954850
vt -15.466800 0.999900
vt -19.036699 0.954850
vt -11.380400 0.954850
vt -11.380400 0.999900
vt -7.138100 0.954850
vt -7.138100 0.999900
vt -3.029500 0.954850
vt -3.029500 0.999900
vt 1.089000 0.954850
vt 1.089000 0.999900
vt -19.036699 0.999900
vt 43.834999 0.952750
vt 31.033701 0.952750
vt 31.033701 0.999600
vt 21.059000 0.952750
vt 40.033501 0.999600
vt 40.033501 0.952750
vt 21.059000 0.999600
vt 14.360100 0.952750
vt 14.360100 0.999600
vt 6.860100 0.952750
vt 6.860100 0.999600
vt 0.913900 0.815200
vt 0.913900 0.919350
vt 0.099200 0.815200
vt 0.099200 0.919350
vt 0.099200 0.919350
vt 0.099200 0.815200
vt 0.913900 0.919350
vt 0.913900 0.815200
vt 0.099200 0.919350
vt 0.099200 0.815200
vt 0.913900 0.919350
vt 0.913900 0.815200
vt 0.099200 0.919350
vt 0.099200 0.815200
vt 0.913900 0.919350
vt 0.913900 0.815200
vt 0.099200 0.919350
vt 0.099200 0.815200
vt 0.913900 0.919350
vt 0.913900 0.815200
vt 0.099200 0.815200
vt 0.913900 0.815200
vt 0.099200 0.919350
vt 0.913900 0.919350
vt 0.099200 0.815200
vt 0.913900 0.815200
vt 0.099200 0.919350
vt 0.913900 0.919350
vt 0.099200 0.815200
vt 0.913900 0.815200
vt 0.099200 0.919350
vt 0.913900 0.919350
vt 13.713400 0.865200
vt 1.166900 0.908200
vt 1.166900 0.824000
vt 0.913900 0.815200
vt 0.099200 0.815200
vt 0.913900 0.919350
vt 0.099200 0.919350
vt 0.913900 0.919350
vt 0.913900 0.815200
vt 0.099200 0.815200
vt 0.099200 0.919350
vt 0.913900 0.919350
vt 0.099200 0.815200
vt 0.913900 0.815200
vt 0.099200 0.919350
vt 0.913900 0.919350
vt 0.099200 0.815200
vt 0.913900 0.815200
vt 0.099200 0.815200
vt 0.099200 0.919350
vt 0.913900 0.815200
vt 0.913900 0.919350
vt 0.099200 0.815200
vt 0.099200 0.919350
vt 0.913900 0.815200
vt 0.913900 0.919350
vt 0.099200 0.815200
vt 0.099200 0.919350
vt 0.913900 0.815200
vt 0.913900 0.919350
vt 0.099200 0.815200
vt 0.099200 0.919350
vt 0.913900 0.815200
vt 0.913900 0.919350
vt 13.713400 0.865200
vt 1.166900 0.824000
vt 1.166900 0.908200
vt 2.040600 0.848200
vt 2.040600 0.900550
vt -1.027400 0.848200
vt -1.027400 0.900550
vt -1.027400 0.900550
vt -1.027400 0.848200
vt 2.040600 0.900550
vt 2.040600 0.848200
vt -1.027400 0.900550
vt -1.027400 0.848200
vt 2.040600 0.900550
vt 2.040600 0.848200
vt 2.040600 0.900550
vt -1.027400 0.900550
vt 2.040600 0.848200
vt -1.027400 0.848200
vt 2.040600 0.900550
vt -1.027400 0.900550
vt 2.040600 0.848200
vt -1.027400 0.848200
vt 2.040600 0.900550
vt -1.027400 0.900550
vt 2.040600 0.848200
vt -1.027400 0.848200
vt 2.040600 0.900550
vt -1.027400 0.900550
vt 2.040600 0.848200
vt -1.027400 0.848200
vt 2.040600 0.848200
vt 2.040600 0.900550
vt -1.027400 0.848200
vt -1.027400 0.900550
vt 2.040600 0.848200
vt 2.040600 0.900550
vt -1.027400 0.848200
vt -1.027400 0.900550
vt 2.040600 0.848200
vt 2.040600 0.900550
vt -1.027400 0.848200
vt -1.027400 0.900550
vt 2.040600 0.848200
vt 2.040600 0.900550
vt -1.027400 0.848200
vt -1.027400 0.900550
vt -1.027400 0.848200
vt 2.040600 0.848200
vt -1.027400 0.900550
vt 2.040600 0.900550
vt -1.027400 0.848200
vt 2.040600 0.848200
vt -1.027400 0.900550
vt 2.040600 0.900550
vt -1.027400 0.848200
vt 2.040600 0.848200
vt -1.027400 0.900550
vt 2.040600 0.900550
vt -1.027400 0.848200
vt 2.040600 0.848200
vt -1.027400 0.900550
vt 2.040600 0.900550
vt 0.099200 0.815200
vt 0.913900 0.815200
vt 0.099200 0.919350
vt 0.913900 0.919350
vt 0.099200 0.919350
vt 0.099200 0.919350
vt 0.913900 0.919350
vt 0.099200 0.815200
vt 0.913900 0.815200
vt -1.027400 0.900550
vt -1.027400 0.848200
vt 2.040600 0.900550
vt 2.040600 0.848200
vt 41.982899 0.954150
vt 41.982899 1.002800
vt 39.512199 0.954150
vt 45.647598 1.002800
vt 45.647598 0.954150
vt 39.512199 1.002800
vt 30.131701 0.954150
vt 33.136799 0.954150
vt 30.131701 1.002800
vt 26.996201 1.002800
vt 26.996201 0.954150
vt 23.993500 0.954150
vt 23.993500 1.002800
vt 22.930599 0.954150
vt 22.930599 1.002800
vt 33.136799 1.002800
vt 36.723099 1.002800
vt 36.723099 0.954150
vt 37.505798 0.954150
vt 37.505798 1.002800
vn -0.6117 0.6769 -0.4094
vn -0.5997 0.6778 -0.4253
vn -0.6088 0.6772 -0.4133
vn -0.6208 0.6760 -0.3970
vn -1.0000 0.0000 0.0000
vn -1.0000 0.0068 0.0004
vn -1.0000 0.0003 0.0000
vn -1.0000 0.0070 0.0004
vn 0.0000 -0.0039 1.0000
vn 0.0002 -0.0002 1.0000
vn 0.0000 -0.0038 1.0000
vn 0.0002 -0.0000 1.0000
vn 0.0000 0.0040 -1.0000
vn 0.0002 0.0002 -1.0000
vn 1.0000 0.0002 -0.0000
vn 1.0000 0.0000 0.0000
vn -0.0000 0.0039 -1.0000
vn 0.0002 0.0000 -1.0000
vn 0.9552 0.0000 0.2960
vn 0.9679 0.0000 0.2514
vn 0.9554 0.0000 0.2953
vn 0.9444 0.0000 0.3289
vn 0.9442 0.0000 0.3293
vn 0.9281 0.0000 0.3723
vn 0.9272 0.0000 0.3745
vn 0.9681 0.0000 0.2504
vn 0.9762 0.0000 0.2170
vn 0.9764 0.0000 0.2160
vn 0.9780 0.0000 0.2086
vn 0.9780 0.0000 0.2087
vn 0.9768 0.0000 0.2141
vn -0.9331 0.0000 0.3596
vn -0.9323 0.0000 0.3616
vn -0.9300 0.0000 0.3676
vn -0.8880 0.0000 0.4599
vn -0.8732 -0.0000 0.4874
vn -0.8115 -0.0000 0.5844
vn -0.3187 -0.0000 0.9479
vn -0.3919 -0.0000 0.9200
vn -0.4209 0.0000 0.9071
vn -0.6614 0.0000 0.7500
vn -0.5919 0.0000 0.8060
vn -0.5677 0.0000 0.8232
vn -0.4929 0.0000 0.8701
vn 0.0524 -0.0000 0.9986
vn 0.0591 0.0000 0.9982
vn 0.2341 0.0000 0.9722
vn 0.2477 0.0000 0.9688
vn 0.5771 0.0000 0.8167
vn 0.5567 0.0000 0.8307
vn 0.7658 0.0000 0.6430
vn 0.7734 0.0000 0.6339
vn 0.7593 0.0000 0.6507
vn 0.7519 0.0000 0.6592
vn 0.7086 0.0000 0.7056
vn 0.7085 0.0000 0.7057
vn 0.6836 0.0000 0.7298
vn 0.6841 0.0000 0.7294
vn 0.6195 0.0000 0.7850
vn 0.6154 -0.0000 0.7882
vn 0.5702 0.0000 0.8215
vn 0.8962 0.0000 0.4437
vn -0.8386 0.0000 -0.5447
vn -0.8433 0.0000 -0.5375
vn -0.7926 0.0000 -0.6098
vn -0.7729 0.0000 -0.6346
vn -0.7904 0.0000 -0.6126
vn -0.5608 0.0000 -0.8280
vn -0.5607 0.0000 -0.8280
vn 0.8487 0.0000 0.5289
vn 0.8555 0.0000 0.5178
vn 0.6844 -0.0000 0.7291
vn 0.6805 0.0000 0.7327
vn 0.5757 -0.0000 0.8177
vn -0.0023 -0.0000 1.0000
vn -0.7205 0.0000 -0.6934
vn -0.7200 0.0000 -0.6939
vn -0.8331 0.0000 -0.5531
vn -0.4911 0.0000 -0.8711
vn -0.4864 0.0000 -0.8738
vn -0.3603 0.0000 -0.9328
vn -0.3584 0.0000 -0.9336
vn -0.2457 0.0000 -0.9693
vn -0.2413 0.0000 -0.9705
vn -0.3100 0.0000 -0.9507
vn -0.3126 0.0000 -0.9499
vn -0.9733 0.0000 0.2296
vn -0.9746 0.0000 0.2237
vn -0.9937 0.0000 0.1119
vn -0.9620 0.0000 0.2730
vn -0.9950 0.0000 0.1002
vn -0.9968 0.0000 0.0802
vn -0.9961 0.0000 0.0886
vn -0.9906 0.0000 0.1365
vn 0.7071 0.0000 0.7071
vn 0.7054 0.0000 0.7088
vn 0.6969 0.0000 0.7172
vn 0.7072 0.0000 0.7070
vn 0.7072 0.0000 0.7071
vn 0.7070 0.0000 0.7072
vn 0.7071 0.0000 0.7072
vn 0.7134 0.0000 0.7008
vn 0.6994 0.0000 0.7147
vn 0.7146 0.0000 0.6995
vn 0.7128 -0.0267 0.7009
vn 0.7143 -0.0058 0.6998
vn 0.7123 -0.0326 0.7011
vn 0.7008 0.0000 0.7133
vn 0.7140 0.0000 0.7002
vn 0.6952 0.0000 0.7188
vn 0.7052 0.0000 0.7090
vn 0.7044 0.0000 0.7098
vn 0.7081 -0.0328 0.7053
vn 0.7101 -0.0058 0.7041
vn 0.7086 -0.0269 0.7051
vn 0.7105 0.0000 0.7037
vn 0.7008 0.0000 0.7134
vn 0.0607 0.0000 -0.9982
vn 0.0014 0.0000 -1.0000
vn -0.9982 0.0000 -0.0607
vn -0.0290 0.0000 -0.9996
vn -0.0857 0.0000 -0.9963
vn -0.1245 0.0000 -0.9922
vn -0.0929 0.0000 -0.9957
vn -0.0559 0.0000 -0.9984
vn 0.6018 0.0000 -0.7987
vn 0.6068 0.0215 -0.7946
vn 0.6178 0.0741 -0.7828
vn 0.6223 0.0985 -0.7766
vn 0.9497 0.0942 -0.2986
vn 0.9444 0.0729 -0.3206
vn 0.9447 0.0742 -0.3194
vn 0.9385 0.0526 -0.3413
vn -0.1244 0.0000 -0.9922
vn -0.1096 0.0000 -0.9940
vn -0.1047 0.0000 -0.9945
usemtl Wi_StadiumFence
s 1
f 11/1/1 10/2/2 9/3/3
f 1/4/4 11/1/1 9/3/3
f 12/5/5 13/6/6 14/7/5
f 14/7/7 13/6/8 15/8/8
f 13/6/9 16/9/10 15/8/9
f 15/8/11 16/9/12 17/10/12
f 18/11/13 12/12/14 19/13/13
f 17/14/15 18/11/15 19/13/15
f 16/15/16 18/11/16 17/14/16
f 19/13/17 12/12/18 14/16/18
f 20/17/19 21/18/20 22/19/21
f 23/20/22 20/17/19 22/19/21
f 24/21/23 20/17/19 23/20/22
f 25/22/24 24/21/23 23/20/22
f 26/23/25 24/21/23 25/22/24
f 22/19/21 21/18/20 27/24/26
f 21/18/20 28/25/27 27/24/26
f 27/24/26 28/25/27 29/26/28
f 28/25/27 30/27/29 29/26/28
f 29/26/28 30/27/29 31/28/30
f 30/27/29 32/29/31 31/28/30
f 33/30/31 32/29/31 30/27/29
f 34/31/32 35/32/33 36/33/34
f 34/31/32 37/34/35 35/32/33
f 38/35/36 37/34/35 34/31/32
f 38/35/36 39/36/37 37/34/35
f 40/37/37 39/36/37 38/35/36
f 40/37/38 41/38/39 39/36/38
f 42/39/40 41/38/39 40/37/38
f 36/33/34 35/32/33 43/40/34
f 44/41/41 45/42/41 46/43/41
f 44/41/41 46/43/41 47/44/42
f 47/44/42 46/43/41 48/45/43
f 47/44/42 48/45/43 49/46/44
f 49/46/44 48/45/43 50/47/44
f 49/46/44 50/47/44 42/39/40
f 42/39/40 50/47/44 41/38/39
f 51/48/45 52/49/46 53/50/47
f 53/50/47 52/49/46 54/51/48
f 53/50/47 54/51/48 55/52/49
f 55/52/49 54/51/48 56/53/50
f 56/53/50 57/54/51 55/52/49
f 55/52/49 57/54/51 58/55/52
f 57/54/51 59/56/53 58/55/52
f 58/55/52 59/56/53 60/57/54
f 59/56/53 61/58/55 60/57/54
f 60/57/54 61/58/55 62/59/56
f 62/59/56 61/58/55 63/60/57
f 63/60/57 61/58/55 64/61/58
f 64/61/58 65/62/59 63/60/57
f 63/60/57 65/62/59 66/63/60
f 65/62/59 67/64/61 66/63/60
f 66/63/60 67/64/61 68/65/61
f 67/64/62 69/66/62 68/65/62
f 68/65/62 69/66/62 8/67/62
f 70/68/63 71/69/64 72/70/65
f 70/68/63 73/71/66 71/69/64
f 74/72/66 73/71/66 70/68/63
f 72/70/65 71/69/64 75/73/67
f 76/74/68 72/70/65 75/73/67
f 77/75/69 72/70/65 76/74/68
f 78/76/70 26/23/25 79/77/71
f 80/78/72 78/76/70 79/77/71
f 81/79/73 78/76/70 80/78/72
f 81/79/73 80/78/72 82/80/74
f 82/80/74 80/78/72 83/81/74
f 82/80/75 83/81/75 51/48/45
f 51/48/45 83/81/75 52/49/46
f 79/77/71 26/23/25 25/22/24
f 84/82/76 85/83/77 86/84/78
f 84/82/76 87/85/79 85/83/77
f 85/83/77 87/85/79 88/86/80
f 87/85/79 89/87/81 88/86/80
f 88/86/80 89/87/81 90/88/82
f 89/87/81 91/89/83 90/88/82
f 90/88/82 91/89/83 92/90/84
f 91/89/83 93/91/85 92/90/84
f 92/90/84 93/91/85 94/92/86
f 93/91/85 77/75/69 94/92/86
f 94/92/86 77/75/69 76/74/68
f 86/84/78 85/83/77 95/93/78
f 96/94/41 45/42/41 44/41/41
f 97/95/87 98/96/88 99/97/89
f 97/95/87 100/98/90 98/96/88
f 101/99/90 100/98/90 97/95/87
f 99/97/89 98/96/88 102/100/91
f 99/97/89 102/100/91 103/101/92
f 103/101/92 102/100/91 104/102/93
f 103/101/92 104/102/93 96/103/94
f 96/103/94 104/102/93 45/104/94
f 105/105/95 106/106/95 107/107/95
f 107/107/95 106/106/95 108/108/95
f 109/109/95 110/110/95 111/111/95
f 111/111/95 110/110/95 112/112/95
f 113/113/95 114/114/95 115/115/95
f 115/115/95 114/114/95 116/116/95
f 117/117/95 118/118/95 119/119/95
f 119/119/95 118/118/95 120/120/95
f 121/121/96 122/122/96 123/123/96
f 123/123/96 122/122/96 124/124/96
f 125/125/95 126/126/95 127/127/95
f 127/127/95 126/126/95 128/128/95
f 129/129/95 130/130/95 131/131/95
f 131/131/95 130/130/95 132/132/95
f 133/133/97 134/134/97 135/135/97
f 135/135/97 134/134/97 136/136/97
f 137/137/98 138/138/98 139/139/98
f 140/140/98 142/141/98 141/142/99
f 142/141/98 143/143/99 141/142/99
f 144/144/100 146/145/101 145/146/101
f 147/147/95 149/148/95 148/149/95
f 149/148/95 150/150/95 148/149/95
f 151/151/95 153/152/95 152/153/95
f 153/152/95 154/154/95 152/153/95
f 155/155/95 157/156/95 156/157/95
f 157/156/95 158/158/95 156/157/95
f 159/159/95 161/160/95 160/161/95
f 161/160/95 162/162/95 160/161/95
f 163/163/99 165/164/98 164/165/98
f 165/164/98 166/166/98 164/165/98
f 167/167/95 169/168/95 168/169/95
f 169/168/95 170/170/95 168/169/95
f 171/171/95 173/172/95 172/173/95
f 174/174/102 176/175/102 175/176/102
f 176/175/102 177/177/102 175/176/102
f 178/178/95 180/179/95 179/180/95
f 180/179/95 181/181/95 179/180/95
f 182/182/103 184/183/103 183/184/103
f 184/183/103 185/185/103 183/184/103
f 186/186/95 188/187/95 187/188/95
f 188/187/95 189/189/95 187/188/95
f 190/190/95 192/191/95 191/192/95
f 192/191/95 193/193/95 191/192/95
f 194/194/104 196/195/105 195/196/106
f 196/195/105 197/197/107 195/196/106
f 198/198/108 200/199/108 199/200/108
f 200/199/108 201/201/108 199/200/108
f 202/202/109 203/203/109 204/204/109
f 204/204/109 203/203/109 205/205/109
f 206/206/95 207/207/95 208/208/95
f 208/208/95 207/207/95 209/209/95
f 210/210/95 211/211/95 212/212/95
f 212/212/95 211/211/95 213/213/95
f 214/214/110 215/215/110 216/216/110
f 216/216/110 215/215/110 217/217/110
f 218/218/111 219/219/111 220/220/111
f 220/220/111 219/219/111 221/221/111
f 222/222/112 223/223/112 224/224/112
f 224/224/112 223/223/112 225/225/112
f 226/226/113 227/227/114 228/228/115
f 228/228/115 227/227/114 229/229/116
f 230/230/117 231/231/117 232/232/117
f 232/232/117 231/231/117 233/233/117
f 234/234/95 235/235/95 236/236/95
f 236/236/95 235/235/95 237/237/95
f 238/238/100 144/144/100 145/146/101
f 239/239/95 241/240/95 240/241/95
f 241/240/95 242/242/95 240/241/95
f 243/243/95 245/244/95 244/245/95
f 245/244/95 246/246/95 244/245/95
f 2/247/118 247/248/118 3/249/119
f 247/248/120 2/247/120 248/250/120
f 248/250/120 2/247/120 249/251/120
f 3/249/119 247/248/118 250/252/121
f 6/253/122 5/254/123 251/255/124
f 252/256/125 6/253/122 251/255/124
f 7/257/125 6/253/122 252/256/125
f 7/257/126 252/256/127 253/258/128
f 253/258/128 252/256/127 254/259/129
f 253/258/130 254/259/131 255/260/132
f 255/260/132 254/259/131 256/261/133
f 251/255/124 5/254/123 257/262/134
f 5/254/123 258/263/135 257/262/134
f 4/264/136 258/263/135 5/254/123
f 3/249/119 250/252/121 4/265/136
f 4/265/136 250/252/121 258/266/135
