# 3ds Max Wavefront OBJ Exporter v0.97b - (c)2007 guruware
# File Created: 30.08.2016 20:17:46

mtllib MeasureCube.mtl

#
# object Box001
#

v  -10.0000 0.0000 10.0000
v  -10.0000 0.0000 -10.0000
v  10.0000 0.0000 -10.0000
v  10.0000 0.0000 10.0000
v  -10.0000 20.0000 10.0000
v  10.0000 20.0000 10.0000
v  10.0000 20.0000 -10.0000
v  -10.0000 20.0000 -10.0000
# 8 vertices

vn 0.0000 -1.0000 -0.0000
vn 0.0000 1.0000 -0.0000
vn 0.0000 0.0000 1.0000
vn 1.0000 0.0000 -0.0000
vn 0.0000 0.0000 -1.0000
vn -1.0000 0.0000 -0.0000
# 6 vertex normals

vt 10.0000 0.0000 0.0000
vt 10.0000 10.0000 0.0000
vt 0.0000 10.0000 0.0000
vt 0.0000 0.0000 0.0000
vt 0.0000 0.0000 1.0000
vt 10.0000 0.0000 1.0000
vt 10.0000 10.0000 1.0000
vt 0.0000 10.0000 1.0000
# 8 texture coords

g Box001
usemtl Material__36
f 1/1/1 2/2/1 3/3/1 
f 3/3/1 4/4/1 1/1/1 
f 5/5/2 6/6/2 7/7/2 
f 7/7/2 8/8/2 5/5/2 
f 1/4/3 4/1/3 6/2/3 
f 6/2/3 5/3/3 1/4/3 
f 4/5/4 3/6/4 7/7/4 
f 7/7/4 6/8/4 4/5/4 
f 3/5/5 2/6/5 8/7/5 
f 8/7/5 7/8/5 3/5/5 
f 2/4/6 1/1/6 5/2/6 
f 5/2/6 8/3/6 2/4/6 
# 12 faces

