# Blender v2.78 (sub 0) OBJ File: ''
# www.blender.org
mtllib Foot.mtl
v 0.008700 0.483300 0.000000
v -0.861100 0.124200 0.000000
v 0.003100 0.003800 0.888800
v 0.807200 0.184400 0.000000
v 0.003100 0.003800 -0.888700
v -1.222400 -1.441200 -0.000000
v -0.117300 -1.441200 1.225500
v -0.117300 -1.441200 -1.225500
v 2.512400 -1.441200 -0.913700
v 1.940400 -0.598300 -0.752100
v 2.748800 -0.417700 -0.000000
v 3.757300 -1.441200 -0.000000
v 1.940400 -0.598300 0.752200
v 2.512400 -1.441200 0.913800
v -0.664770 0.000000 -0.027045
v 2.293000 -0.000000 -0.670426
v 1.426221 -0.000000 0.750374
v -1.343895 -0.000000 1.715445
v 1.569195 -0.000001 2.707323
v 3.034676 -0.000001 1.956713
v -1.104498 -1.441200 -0.000000
v -0.080208 -1.441200 1.136126
v -0.071174 -1.441200 -1.121070
v 2.480351 -1.441200 -0.833648
v 3.627090 -1.441200 -0.003011
v 2.471318 -1.441200 0.845783
vt 0.0742 0.8945
vt 0.0742 0.8945
vt 0.0742 0.8945
vt 0.0742 0.8945
vt 0.0742 0.8945
vt 0.0742 0.8945
vt 0.0742 0.8945
vt 0.0742 0.8945
vt 0.0742 0.8945
vt 0.0742 0.8945
vt 0.0742 0.8945
vt 0.0742 0.8945
vt 0.2244 0.0287
vt 0.7456 0.0874
vt 0.7438 0.4305
vt 0.2225 0.4898
vt 0.0133 0.2577
vt 0.9798 0.2571
vt 0.7669 0.5000
vt 0.9316 0.4067
vt 0.7679 0.3754
vt 0.6157 0.4223
vt 0.6157 0.5777
vt 0.7679 0.6246
vt 0.9316 0.5933
vt 1.0000 0.0000
vt 0.7907 0.0000
vt 1.0000 1.0000
vt 0.7907 1.0000
vt 0.2928 1.0000
vt 0.4011 0.7810
vt 0.2480 0.7028
vt 0.0000 1.0000
vt 0.4011 0.2190
vt 0.2928 -0.0000
vt 0.2480 0.2972
vt 0.0000 -0.0000
vn -0.2937 -0.5225 0.8005
vn 0.0000 -1.0000 -0.0000
vn 0.3837 -0.4788 0.7896
vn -0.8723 -0.4890 -0.0000
vn -0.2937 -0.5225 -0.8005
vn 0.3837 -0.4789 -0.7896
vn 0.9598 -0.2807 -0.0000
vn -0.0140 0.9999 -0.0000
vn -0.8169 0.5768 -0.0000
vn -0.1870 0.5868 0.7879
vn 0.3293 0.9442 -0.0000
vn -0.1870 0.5868 -0.7879
vn 0.2911 0.5685 -0.7694
vn 0.5893 0.8079 -0.0000
vn 0.2912 0.5685 0.7694
usemtl Shoe_She_pngs_She_png
s 1
f 7/1/1 26/2/2 14/3/3
f 6/4/4 22/5/2 7/1/1
f 23/6/2 6/4/4 8/7/5
f 24/8/2 8/7/5 9/9/6
f 25/10/2 9/9/6 12/11/7
f 14/3/3 25/10/2 12/11/7
f 7/1/1 22/5/2 26/2/2
f 6/4/4 21/12/2 22/5/2
f 23/6/2 21/12/2 6/4/4
f 24/8/2 23/6/2 8/7/5
f 25/10/2 24/8/2 9/9/6
f 14/3/3 26/2/2 25/10/2
f 23/13/2 24/14/2 26/15/2
f 26/15/2 22/16/2 23/13/2
f 21/17/2 23/13/2 22/16/2
f 24/14/2 25/18/2 26/15/2
usemtl Shoe_She_pngs_She_png_She.png
f 1/19/8 2/20/9 3/21/10
f 1/19/8 3/21/10 4/22/11
f 1/19/8 4/23/11 5/24/12
f 1/19/8 5/24/12 2/25/9
f 3/21/10 2/20/9 6/26/4
f 7/27/1 3/21/10 6/26/4
f 6/28/4 5/24/12 8/29/5
f 6/28/4 2/25/9 5/24/12
f 9/30/6 10/31/13 11/32/14
f 12/33/7 9/30/6 11/32/14
f 8/29/5 5/24/12 10/31/13
f 9/30/6 8/29/5 10/31/13
f 7/27/1 13/34/15 3/21/10
f 7/27/1 14/35/3 13/34/15
f 14/35/3 11/36/14 13/34/15
f 14/35/3 12/37/7 11/36/14
f 13/34/15 11/36/14 4/22/11
f 3/21/10 13/34/15 4/22/11
f 10/31/13 5/24/12 4/23/11
f 11/32/14 10/31/13 4/23/11
