# 3ds Max Wavefront OBJ Exporter v0.97b - (c)2007 guruware
# File Created: 01.07.2016 18:28:32

mtllib Forearm.mtl

#
# object Object002
#

v 0.0086 -0.6595 -0.7686
v 0.0086 -1.3097 -0.0606
v 0.7166 -0.6595 -0.0606
v 0.0086 -0.6595 0.6475
v -0.6995 -0.6595 -0.0606
v 0.7166 -1.4358 -0.0606
v 0.0086 -1.8151 -0.0606
v 0.0086 -1.4358 -0.7686
v -0.6995 -1.4358 -0.0606
v 0.0086 -1.4358 0.6475
v -0.2516 -0.7249 -0.0594
v -0.2516 -1.4496 -0.0594
v 2.0E-4 -1.4496 0.1923
v 2.0E-4 -0.7249 0.1923
v -0.2516 -2.0E-4 -0.0594
v 2.0E-4 -2.0E-4 0.1923
v 0.2519 -1.4496 -0.0594
v 0.2519 -0.7249 -0.0594
v 0.2519 -2.0E-4 -0.0594
v 2.0E-4 -1.4496 -0.3112
v 2.0E-4 -0.7249 -0.3112
v 2.0E-4 -2.0E-4 -0.3112
# 22 vertices

vn -0.0 0.7577 -0.6526
vn 0.0 1.0 -0.0
vn 0.6526 0.7577 -0.0
vn -0.0 0.7577 0.6526
vn -0.6526 0.7577 0.0
vn 0.9019 -0.432 0.0
vn -0.0 -1.0 -0.0
vn -0.0 -0.432 -0.9019
vn -0.9019 -0.432 -0.0
vn -0.0 -0.432 0.9019
vn -1.0 -0.0 0.0
vn 0.0 -0.0 1.0
vn -1.0 -0.0 -0.0
vn 1.0 -0.0 0.0
vn 1.0 -0.0 -0.0
vn 0.0 -0.0 -1.0
# 16 vertex normals

vt 0.0000 0.1611 0.0000
vt 0.1250 0.0000 0.0000
vt 0.1250 0.1611 0.0000
vt 0.1250 0.9723 0.0000
vt 0.1250 1.0000 0.0000
vt 0.0000 0.9723 0.0000
vt 0.1250 0.3750 0.0000
vt 0.3750 0.3750 0.0000
vt 0.3750 0.6250 0.0000
vt 0.1250 0.6250 0.0000
# 10 texture coords

g Object002
usemtl Hand_Hand_png_Hand_png
f 1/1/1 2/2/2 3/3/3 
f 2/2/2 4/3/4 3/1/3 
f 4/1/4 2/2/2 5/3/5 
f 2/2/2 1/3/1 5/1/5 
f 6/4/6 7/5/7 8/6/8 
f 7/5/7 9/6/9 8/4/8 
f 9/4/9 7/5/7 10/6/10 
f 7/5/7 6/6/6 10/4/10 
f 9/6/9 5/1/5 1/3/1 
f 9/6/9 1/3/1 8/4/8 
f 6/6/6 3/1/3 4/3/4 
f 6/6/6 4/3/4 10/4/10 
f 8/6/8 1/1/1 3/3/3 
f 8/6/8 3/3/3 6/4/6 
f 5/3/5 9/4/9 10/6/10 
f 5/3/5 10/6/10 4/1/4 
usemtl Skin_Belly_png_Belly_png
f 11/7/11 12/8/11 13/9/12 
f 11/7/11 13/9/12 14/10/12 
f 15/7/13 11/8/11 14/9/12 
f 15/7/13 14/9/12 16/10/12 
f 14/7/12 13/8/12 17/9/14 
f 14/7/12 17/9/14 18/10/15 
f 16/7/12 14/8/12 18/9/15 
f 16/7/12 18/9/15 19/10/15 
f 20/9/16 21/10/16 18/7/15 
f 20/9/16 18/7/15 17/8/14 
f 19/7/15 18/8/15 21/9/16 
f 19/7/15 21/9/16 22/10/16 
f 11/7/11 15/8/13 22/9/16 
f 11/7/11 22/9/16 21/10/16 
f 21/9/16 20/10/16 12/7/11 
f 21/9/16 12/7/11 11/8/11 
# 32 faces

