# 3ds Max Wavefront OBJ Exporter v0.97b - (c)2007 guruware
# File Created: 01.07.2016 18:32:21

mtllib LeftHand.mtl

#
# object Object001
#

v 0.496 -0.2104 -0.7676
v -0.522 -0.3415 -0.7676
v -0.0014 0.0356 -0.0848
v -0.522 -0.3415 0.9591
v 0.502 -0.2104 0.9591
v -0.4555 -0.7065 -0.9193
v -0.9947 -0.8989 -0.9193
v -0.9947 -0.8989 1.0205
v -0.4555 -0.7065 1.0205
v -0.3447 -1.2388 1.0205
v -0.3447 -1.2388 -0.9193
v -0.9434 -1.873 -0.9193
v -0.9434 -1.873 1.0205
v -0.3451 -1.2379 -0.9193
v 0.6934 -1.8704 -0.9193
v 0.6934 -1.8704 1.0205
v -0.3451 -1.2379 1.0205
v -0.8007 -1.034 1.0253
v -0.8007 -1.0339 1.5455
v -1.0186 -0.5224 1.5455
v -1.0186 -0.5224 1.0037
v -0.0079 -0.4695 1.513
v -0.4878 -0.5135 0.982
v -0.4026 -1.0305 1.0037
v 0.0474 -1.0294 1.513
# 25 vertices

vn 0.5594 0.5804 -0.5918
vn -0.7039 0.418 -0.5743
vn -0.0874 0.9951 -0.0471
vn -0.7957 0.49 0.356
vn 0.6322 0.674 0.3823
vn 0.402 0.7162 -0.5705
vn -0.6694 0.446 -0.5942
vn -0.6694 0.446 0.5942
vn 0.402 0.7162 0.5705
vn 0.2389 -0.8087 0.5375
vn 0.239 -0.8086 -0.5376
vn -0.5602 -0.5914 -0.5801
vn -0.5602 -0.5914 0.5801
vn -0.6804 -0.1365 -0.72
vn 0.6152 -0.5276 -0.5858
vn 0.6282 -0.602 0.4929
vn -0.8345 -0.3522 0.4237
vn -0.4531 -0.6867 -0.5685
vn -0.4274 -0.6642 0.6133
vn -0.6936 0.4454 0.5662
vn -0.7002 0.4441 -0.559
vn 0.2161 0.5485 0.8077
vn -0.9285 0.3573 0.1015
vn -0.1333 -0.5912 -0.7954
vn 0.184 -0.3547 0.9167
# 25 vertex normals

vt 0.0000 0.8750 0.0000
vt 0.1250 0.8750 0.0000
vt 0.1250 1.0000 0.0000
vt 1.0000 0.0129 0.0000
vt 0.0000 0.0129 0.0000
vt 0.0000 0.5000 0.0000
vt 1.0000 0.5000 0.0000
vt 1.0000 0.9803 0.0000
vt 0.0000 0.9803 0.0000
vt 0.0707 0.0129 0.0000
vt 0.0707 0.5000 0.0000
vt 0.0707 0.9803 0.0000
vt 0.0000 1.0000 0.0000
# 13 texture coords

g Object001
usemtl Hand_Hand_png_Hand_png
f 1/1/1 2/2/2 3/3/3 
f 4/1/4 5/2/5 3/3/3 
f 5/1/5 1/2/1 3/3/3 
f 2/1/2 4/2/4 3/3/3 
f 6/4/6 7/4/7 8/5/8 
f 6/4/6 8/5/8 9/5/9 
f 10/6/10 11/7/11 6/4/6 
f 10/6/10 6/4/6 9/5/9 
f 12/7/12 13/6/13 8/5/8 
f 12/7/12 8/5/8 7/4/7 
f 13/6/13 10/6/10 8/5/8 
f 10/6/10 9/5/9 8/5/8 
f 11/7/11 12/7/12 7/4/7 
f 11/7/11 7/4/7 6/4/6 
f 14/8/14 15/8/15 12/7/12 
f 14/8/14 12/7/12 11/7/11 
f 16/9/16 17/9/17 13/6/13 
f 17/9/17 10/6/10 13/6/13 
f 15/8/15 16/9/16 13/6/13 
f 15/8/15 13/6/13 12/7/12 
f 17/9/17 14/8/14 11/7/11 
f 17/9/17 11/7/11 10/6/10 
f 18/10/18 19/10/19 20/5/20 
f 18/10/18 20/5/20 21/5/21 
f 22/6/22 23/6/23 20/5/20 
f 23/6/23 21/5/21 20/5/20 
f 24/11/24 25/11/25 19/10/19 
f 24/11/24 19/10/19 18/10/18 
f 25/11/25 22/6/22 19/10/19 
f 22/6/22 20/5/20 19/10/19 
f 23/6/23 24/11/24 18/10/18 
f 23/6/23 18/10/18 21/5/21 
f 4/9/4 17/12/17 24/11/24 
f 4/9/4 24/11/24 23/6/23 
f 16/12/16 5/9/5 22/6/22 
f 16/12/16 22/6/22 25/11/25 
f 17/12/17 16/12/16 25/11/25 
f 17/12/17 25/11/25 24/11/24 
f 5/9/5 4/9/4 22/6/22 
f 4/9/4 23/6/23 22/6/22 
f 2/1/2 1/2/1 14/13/14 
f 1/2/1 15/3/15 14/13/14 
f 15/1/15 1/2/1 5/3/5 
f 15/1/15 5/3/5 16/13/16 
f 4/13/4 2/1/2 14/2/14 
f 4/13/4 14/2/14 17/3/17 
# 46 faces

