# 3ds Max Wavefront OBJ Exporter v0.97b - (c)2007 guruware
# File Created: 01.07.2016 18:19:54

mtllib Shin.mtl

#
# object Object005
#

v 0.8528 -1.4063 0.0047
v 0.0031 -1.4063 0.8543
v 0.0031 -1.7856 0.0047
v 0.0031 -1.4063 -0.845
v -0.8465 -1.4063 0.0047
v 0.0031 -0.2687 -0.845
v -0.8465 -0.2687 0.0047
v 0.0031 -0.919 0.0047
v 0.8528 -0.2687 0.0047
v 0.0031 -0.2687 0.8543
v -0.2486 -0.7224 0.005
v 0.0031 -0.7224 -0.2467
v 0.0031 -1.4471 -0.2467
v -0.2486 -1.4471 0.005
v -0.2486 0.0023 0.005
v 0.0031 0.0023 -0.2467
v 0.0031 -0.7224 0.2568
v 0.0031 0.0023 0.2568
v 0.0031 -1.4471 0.2568
v 0.2549 -0.7224 0.005
v 0.2549 0.0023 0.005
v 0.2549 -1.4471 0.005
# 22 vertices

vn 0.8906 -0.4548 -0.0
vn 0.0 -0.4548 0.8906
vn 0.0 -1.0 0.0
vn -0.0 -0.4548 -0.8906
vn -0.8906 -0.4548 0.0
vn -0.0 0.7381 -0.6747
vn -0.6747 0.7381 0.0
vn -0.0 1.0 -0.0
vn 0.6747 0.7381 0.0
vn -0.0 0.7381 0.6747
vn -1.0 -0.0 -0.0
vn -0.0 0.0 -1.0
vn -0.0 -0.0 1.0
vn -0.0 0.0 1.0
vn 1.0 0.0 -0.0
# 15 vertex normals

vt 0.0000 0.8389 0.0000
vt 0.1250 0.8389 0.0000
vt 0.1250 1.0000 0.0000
vt 0.1250 0.0277 0.0000
vt 0.0000 0.0277 0.0000
vt 0.1250 0.0000 0.0000
vt 0.6250 0.1250 0.0000
vt 0.8750 0.1250 0.0000
vt 0.8750 0.3750 0.0000
vt 0.6250 0.3750 0.0000
# 10 texture coords

g Object005
usemtl Hand_Hand_png_Hand_png
f 1/1/1 2/2/2 3/3/3 
f 1/2/1 3/3/3 4/1/4 
f 5/1/5 4/2/4 3/3/3 
f 5/2/5 3/3/3 2/1/2 
f 6/4/6 7/5/7 8/6/8 
f 6/5/6 8/6/8 9/4/9 
f 10/4/10 9/5/9 8/6/8 
f 10/5/10 8/6/8 7/4/7 
f 1/2/1 4/1/4 6/5/6 
f 9/4/9 1/2/1 6/5/6 
f 10/5/10 7/4/7 5/2/5 
f 2/1/2 10/5/10 5/2/5 
f 9/5/9 10/4/10 2/2/2 
f 1/1/1 9/5/9 2/2/2 
f 4/2/4 5/1/5 7/5/7 
f 6/4/6 4/2/4 7/5/7 
usemtl Skin_Belly_png_Belly_png
f 11/7/11 12/8/12 13/9/12 
f 11/7/11 13/9/12 14/10/11 
f 15/7/11 16/8/12 12/9/12 
f 15/7/11 12/9/12 11/10/11 
f 11/7/11 17/8/13 18/9/13 
f 11/7/11 18/9/13 15/10/11 
f 14/7/11 19/8/14 17/9/13 
f 14/7/11 17/9/13 11/10/11 
f 17/7/13 20/8/15 21/9/15 
f 17/7/13 21/9/15 18/10/13 
f 19/7/14 22/8/15 20/9/15 
f 19/7/14 20/9/15 17/10/13 
f 20/7/15 12/8/12 16/9/12 
f 20/7/15 16/9/12 21/10/15 
f 22/7/15 13/8/12 12/9/12 
f 22/7/15 12/9/12 20/10/15 
# 32 faces

