# 3ds Max Wavefront OBJ Exporter v0.97b - (c)2007 guruware
# File Created: 22.08.2015 18:48:12

mtllib Snowball.mtl

#
# object facemeplate
#

v  0.0000 0.5000 0.5000
v  -0.0000 -0.5000 0.5000
v  -0.0000 -0.5000 -0.5000
v  0.0000 0.5000 -0.5000
# 4 vertices

vn 1.0000 -0.0000 -0.0000
# 1 vertex normals

vt 0.0000 1.0000 0.0000
vt 0.0000 0.0000 0.0000
vt 1.0000 0.0000 0.0000
vt 1.0000 1.0000 0.0000
# 4 texture coords

g facemeplate
usemtl Material_Snowball
f 1/1/1 2/2/1 3/3/1 
f 3/3/1 4/4/1 1/1/1 
# 2 faces

