# Blender v2.78 (sub 0) OBJ File: ''
# www.blender.org
mtllib Umbrella2.mtl
v -0.281667 45.656437 -0.281646
v -0.281667 45.656437 0.281688
v 0.281667 45.656437 0.000021
v -0.477401 -0.000003 -0.477401
v -0.477401 -0.000003 0.477401
v -0.477401 44.070107 -0.477381
v -0.477401 44.070107 0.477422
v 0.477401 44.070107 0.000021
v 0.477401 -0.000003 -0.000000
v 13.280067 40.819298 0.000020
v 9.390412 40.819298 -9.419453
v 0.000000 44.376171 0.000021
v 0.000000 40.819309 -13.321128
v -9.390412 40.819298 -9.419449
v -13.280067 40.819298 0.000020
v -9.390412 40.819298 9.419492
v 0.000000 40.819286 13.321168
v 9.390412 40.819298 9.419492
v 0.000000 33.530445 22.223038
v -15.714054 33.530445 15.714070
v -2.017940 31.218863 21.765429
v -14.125581 31.218866 16.802525
v 22.223038 33.530457 0.000015
v 15.714054 33.530468 -15.714038
v -22.223021 33.530457 0.000015
v -15.714054 33.530468 -15.714038
v -21.994532 31.218872 -1.996904
v -16.979380 31.218880 -13.978423
v 0.000000 33.530468 -22.223005
v 2.017940 31.218884 -21.765396
v 14.125579 31.218880 -16.802509
v 15.714054 33.530445 15.714070
v 21.994532 31.218872 1.996936
v 16.979380 31.218866 13.978454
v 2.017940 31.218863 21.765429
v 14.125579 31.218866 16.802525
v -14.125581 31.218880 -16.802492
v -2.017941 31.218884 -21.765396
v 16.979380 31.218880 -13.978432
v 21.994532 31.218872 -1.996904
v -16.979380 31.218866 13.978454
v -21.994532 31.218872 1.996934
vt 0.9873 0.0098
vt 0.9857 0.9828
vt 0.6576 0.0141
vt -0.0055 0.9842
vt -0.0007 0.0174
vt 0.3337 0.9845
vt 0.3341 0.0121
vt 0.6525 0.9824
vt 1.0098 0.9762
vt 0.2901 0.9754
vt 0.0000 0.9646
vt 0.0123 0.9902
vt 0.9852 0.0098
vt 0.9835 0.9758
vt 1.0000 0.0000
vt 0.9886 0.9927
vt 0.0073 0.9852
vt 0.9951 0.0078
vt 0.9924 0.9852
vt 0.0115 0.9807
vt 0.0000 0.0000
vt 0.0098 0.0143
vt 0.0000 0.0071
vt 0.0025 0.0054
vt 0.8169 -0.1513
vt 1.0000 0.0037
vt 1.0000 0.0037
vt 0.9931 0.9932
vt 0.0045 0.9938
vt 0.0045 0.9938
vt 0.9931 0.9932
vt 0.4814 1.5912
vt 0.0045 0.9938
vt 0.9931 0.9932
vt 0.0045 0.9938
vt 0.9931 0.9932
vt 0.0025 0.0054
vt 0.8169 -0.1513
vt 0.0025 0.0054
vt 0.1788 -0.1512
vt 0.1788 -0.1512
vt 1.0000 0.0037
vt 0.1788 -0.1512
vt 0.8169 -0.1513
vt 0.0025 0.0054
vt 0.1788 -0.1512
vt 1.0000 0.0037
vt 0.8169 -0.1513
vt -0.0003 0.9894
vt 0.9909 0.9912
vt 0.4629 1.6902
vt -0.0003 0.9894
vt 0.9909 0.9912
vt 0.7833 -0.1370
vt 0.0071 0.0134
vt 0.1993 -0.1401
vt 0.0071 0.0134
vt 0.7833 -0.1370
vt 0.9967 0.0146
vt 0.9967 0.0146
vt 0.1993 -0.1401
vt 0.0068 0.0049
vt 0.9950 0.0049
vt 0.5088 0.9461
vt -0.0003 0.9894
vt 0.9909 0.9912
vt 0.9916 0.9921
vt 0.0034 0.9938
vt 0.9876 0.0031
vt 0.2621 0.5586
vt 1.0000 1.0000
vt 0.0025 0.9929
vt 0.0031 0.0063
vt 0.7113 0.5559
vt 0.0071 0.0134
vt 0.9967 0.0146
vt 0.1993 -0.1401
vt 0.7833 -0.1370
vn -0.5257 -0.0000 0.8507
vn -0.4989 -0.3033 0.8118
vn -0.5257 0.0000 -0.8506
vn 0.8937 -0.2394 -0.3794
vn 0.4472 0.0000 -0.8944
vn -0.4552 -0.5210 -0.7220
vn 0.4472 -0.0000 0.8944
vn -0.4534 0.7061 0.5439
vn 0.7210 0.6734 0.1632
vn -0.3122 0.7079 -0.6336
vn -0.6944 0.2330 0.6808
vn -0.3781 0.1510 0.9134
vn -0.6822 0.7302 -0.0373
vn -0.9690 0.2470 -0.0016
vn -0.3943 0.8814 0.2603
vn -0.1666 0.9720 -0.1658
vn 0.1664 0.9721 -0.1655
vn -0.2615 0.8811 -0.3940
vn -0.0000 1.0000 0.0000
vn -0.2142 0.9532 0.2135
vn -0.0002 0.9721 0.2344
vn 0.4629 0.8814 0.0942
vn 0.3943 0.8814 -0.2603
vn -0.6926 0.2201 -0.6869
vn 0.3781 0.1510 -0.9134
vn 0.6944 0.2330 -0.6808
vn 0.3736 0.1724 -0.9114
vn -0.9022 0.2149 -0.3740
vn 0.9689 0.2473 -0.0049
vn 0.9022 0.2149 0.3740
vn 0.8965 0.2356 0.3752
vn -0.3554 0.9311 0.0817
vn -0.3736 0.1724 0.9114
vn 0.0011 0.2021 -0.9794
vn -0.8965 0.2356 -0.3752
vn 0.9022 0.2149 -0.3740
vn 0.8965 0.2355 -0.3752
vn -0.9022 0.2149 0.3740
vn -0.8965 0.2356 0.3752
vn -0.3781 0.1510 -0.9134
vn -0.3736 0.1724 -0.9114
vn 0.3781 0.1510 0.9134
vn 0.3736 0.1724 0.9114
usemtl material_C84C8C
f 5/1/1 7/2/2 4/3/3
f 7/4/2 5/5/1 8/6/4
f 9/7/5 4/3/3 8/6/4
f 7/2/2 6/8/6 4/3/3
f 8/6/4 5/5/1 9/7/7
f 1/9/8 2/10/9 3/11/10
f 3/12/10 6/13/6 1/14/8
f 7/15/2 2/16/9 1/17/8
f 8/18/4 3/19/10 2/20/9
f 6/8/6 8/6/4 4/3/3
f 8/18/4 2/20/9 7/21/2
f 6/13/6 3/12/10 8/22/4
f 1/17/8 6/23/6 7/15/2
usemtl white
f 20/24/11 21/25/12 19/26/13
f 25/27/14 15/28/15 14/29/16
f 11/30/17 13/31/18 12/32/19
f 14/29/16 15/28/15 12/32/19
f 16/33/20 17/34/21 12/32/19
f 18/35/22 10/36/23 12/32/19
f 25/27/14 14/29/16 26/37/24
f 30/38/25 24/39/26 31/40/27
f 28/41/28 25/27/14 26/37/24
f 19/26/13 16/33/20 20/24/11
f 23/42/29 34/43/30 33/44/31
f 18/35/22 32/45/32 23/42/29
f 19/26/13 17/34/21 16/33/20
f 18/35/22 23/42/29 10/36/23
f 20/24/11 22/46/33 21/25/12
f 30/38/25 29/47/34 24/39/26
f 28/41/28 27/48/35 25/27/14
f 23/42/29 32/45/32 34/43/30
f 29/47/34 13/31/18 11/30/17
f 24/39/26 29/47/34 11/30/17
usemtl blue
f 10/49/23 11/50/17 12/51/19
f 15/52/15 16/53/20 12/51/19
f 39/54/36 23/55/29 40/56/37
f 25/57/14 41/58/38 20/59/11
f 20/59/11 15/52/15 25/57/14
f 11/50/17 10/49/23 24/60/26
f 24/60/26 10/49/23 23/55/29
f 39/54/36 24/60/26 23/55/29
f 25/57/14 42/61/39 41/58/38
f 16/53/20 15/52/15 20/59/11
usemtl red
f 13/62/18 14/63/16 12/64/19
f 17/65/21 18/66/22 12/51/19
f 14/67/16 13/68/18 26/69/24
f 38/70/40 26/71/24 29/72/34
f 29/73/34 26/69/24 13/68/18
f 38/70/40 37/74/41 26/71/24
f 17/65/21 19/75/13 32/76/32
f 35/77/42 36/78/43 32/76/32
f 32/76/32 18/66/22 17/65/21
f 35/77/42 32/76/32 19/75/13
