# Blender v2.78 (sub 0) OBJ File: ''
# www.blender.org
mtllib Umbrella.mtl
v -0.281667 45.656437 -0.281639
v -0.281667 45.656437 0.281695
v 0.281667 45.656437 0.000028
v -0.477401 -0.000003 -0.477401
v -0.477401 -0.000003 0.477401
v -0.477401 44.070107 -0.477374
v -0.477401 44.070107 0.477429
v 0.477401 44.070107 0.000028
v 0.477401 -0.000003 -0.000000
v 13.280067 40.819298 0.000027
v 9.390412 40.819298 -9.419446
v 0.000000 44.376171 0.000028
v 0.000000 40.819313 -13.321121
v -9.390412 40.819298 -9.419442
v -13.280067 40.819298 0.000027
v -9.390412 40.819298 9.419498
v 0.000000 40.819283 13.321175
v 9.390412 40.819298 9.419498
v 0.000000 33.530441 22.223043
v -15.714054 33.530441 15.714076
v -2.017940 31.218859 21.765434
v -14.125581 31.218864 16.802530
v 22.223038 33.530457 0.000020
v 15.714054 33.530472 -15.714032
v -22.223021 33.530457 0.000020
v -15.714054 33.530472 -15.714032
v -21.994532 31.218872 -1.996899
v -16.979380 31.218882 -13.978418
v 0.000000 33.530472 -22.223000
v 2.017940 31.218887 -21.765390
v 14.125579 31.218882 -16.802504
v 15.714054 33.530441 15.714076
v 21.994532 31.218872 1.996941
v 16.979380 31.218864 13.978458
v 2.017940 31.218859 21.765434
v 14.125579 31.218864 16.802530
v -14.125581 31.218882 -16.802486
v -2.017941 31.218887 -21.765390
v 16.979380 31.218882 -13.978427
v 21.994532 31.218872 -1.996899
v -16.979380 31.218864 13.978458
v -21.994532 31.218872 1.996939
vt 0.0025 0.0054
vt 0.8169 -0.1513
vt 1.0000 0.0037
vt 0.8169 -0.1513
vt 0.0025 0.0054
vt 0.1788 -0.1512
vt 0.1788 -0.1512
vt 1.0000 0.0037
vt 0.0025 0.0054
vt 1.0000 0.0037
vt 0.1788 -0.1512
vt 0.8169 -0.1513
vt 0.1788 -0.1512
vt 1.0000 0.0037
vt 0.8169 -0.1513
vt 0.0025 0.0054
vt -0.0003 0.9894
vt 0.9909 0.9912
vt 0.4629 1.6902
vt 0.0068 0.0049
vt 0.9950 0.0049
vt 0.5088 0.9461
vt -0.0003 0.9894
vt 0.9909 0.9912
vt -0.0003 0.9894
vt 0.9909 0.9912
vt 0.9916 0.9921
vt 0.0034 0.9938
vt 0.9876 0.0031
vt 0.9967 0.0146
vt 0.0071 0.0134
vt 0.0031 0.0063
vt 0.9967 0.0146
vt 0.0071 0.0134
vt 0.0071 0.0134
vt 0.9967 0.0146
vt 0.9873 0.0098
vt 0.9857 0.9828
vt 0.6576 0.0141
vt -0.0055 0.9842
vt -0.0007 0.0174
vt 0.3337 0.9845
vt 0.3341 0.0121
vt 0.6525 0.9824
vt 1.0098 0.9762
vt 0.2901 0.9754
vt 0.0000 0.9646
vt 0.0123 0.9902
vt 0.9852 0.0098
vt 0.9835 0.9758
vt 1.0000 0.0000
vt 0.9886 0.9927
vt 0.0073 0.9852
vt 0.9951 0.0078
vt 0.9924 0.9852
vt 0.0115 0.9807
vt 0.0000 0.0000
vt 0.0098 0.0143
vt 0.0000 0.0071
vt 0.9931 0.9932
vt 0.0045 0.9938
vt 0.0045 0.9938
vt 0.9931 0.9932
vt 0.4814 1.5912
vt 0.0045 0.9938
vt 0.9931 0.9932
vt 0.0045 0.9938
vt 0.9931 0.9932
vt 0.7833 -0.1370
vt 0.1993 -0.1401
vt 0.7833 -0.1370
vt 0.1993 -0.1401
vt 0.1993 -0.1401
vt 0.7833 -0.1370
vt 0.2621 0.5586
vt 1.0000 1.0000
vt 0.0025 0.9929
vt 0.7113 0.5559
vn -0.6944 0.2330 0.6808
vn -0.3781 0.1510 0.9134
vn -0.6822 0.7302 -0.0373
vn 0.3781 0.1510 -0.9134
vn 0.6944 0.2330 -0.6808
vn 0.3736 0.1724 -0.9114
vn -0.9022 0.2149 -0.3740
vn -0.9690 0.2470 -0.0016
vn -0.6926 0.2201 -0.6869
vn 0.9689 0.2473 -0.0049
vn 0.9022 0.2149 0.3740
vn 0.8965 0.2356 0.3752
vn -0.3736 0.1724 0.9114
vn 0.0011 0.2021 -0.9794
vn -0.8965 0.2356 -0.3752
vn -0.3554 0.9311 0.0817
vn 0.3943 0.8814 -0.2603
vn 0.1664 0.9721 -0.1655
vn -0.0000 1.0000 0.0000
vn -0.2615 0.8811 -0.3940
vn -0.1666 0.9720 -0.1658
vn -0.3943 0.8814 0.2603
vn -0.2142 0.9532 0.2135
vn -0.0002 0.9721 0.2344
vn 0.4629 0.8814 0.0942
vn -0.5257 -0.0000 0.8507
vn -0.4989 -0.3033 0.8118
vn -0.5257 0.0000 -0.8506
vn 0.8937 -0.2394 -0.3794
vn 0.4472 0.0000 -0.8944
vn -0.4552 -0.5210 -0.7220
vn 0.4472 -0.0000 0.8944
vn -0.4534 0.7061 0.5439
vn 0.7210 0.6734 0.1632
vn -0.3122 0.7079 -0.6336
vn 0.9022 0.2149 -0.3740
vn 0.8965 0.2355 -0.3752
vn -0.9022 0.2149 0.3740
vn -0.8965 0.2356 0.3752
vn 0.3781 0.1510 0.9134
vn 0.3736 0.1724 0.9114
vn -0.3781 0.1510 -0.9134
vn -0.3736 0.1724 -0.9114
usemtl blue_am_sea34_32.png
s 1
f 20/1/1 21/2/2 19/3/3
f 30/4/4 24/5/5 31/6/6
f 28/7/7 25/8/8 26/9/9
f 23/10/10 34/11/11 33/12/12
f 20/1/1 22/13/13 21/2/2
f 30/4/4 29/14/14 24/5/5
f 28/7/7 27/15/15 25/8/8
f 23/10/10 32/16/16 34/11/11
f 10/17/17 11/18/18 12/19/19
f 13/20/20 14/21/21 12/22/19
f 15/23/22 16/24/23 12/19/19
f 17/25/24 18/26/25 12/19/19
f 14/27/21 13/28/20 26/29/9
f 20/30/1 15/23/22 25/31/8
f 29/32/14 26/29/9 13/28/20
f 11/18/18 10/17/17 24/33/5
f 24/33/5 10/17/17 23/34/10
f 16/24/23 15/23/22 20/30/1
f 17/25/24 19/35/3 32/36/16
f 32/36/16 18/26/25 17/25/24
usemtl material_C84C8C
f 5/37/26 7/38/27 4/39/28
f 7/40/27 5/41/26 8/42/29
f 9/43/30 4/39/28 8/42/29
f 7/38/27 6/44/31 4/39/28
f 8/42/29 5/41/26 9/43/32
f 1/45/33 2/46/34 3/47/35
f 3/48/35 6/49/31 1/50/33
f 7/51/27 2/52/34 1/53/33
f 8/54/29 3/55/35 2/56/34
f 6/44/31 8/42/29 4/39/28
f 8/54/29 2/56/34 7/57/27
f 6/49/31 3/48/35 8/58/29
f 1/53/33 6/59/31 7/51/27
usemtl blue
f 25/8/8 15/60/22 14/61/21
f 11/62/18 13/63/20 12/64/19
f 14/61/21 15/60/22 12/64/19
f 16/65/23 17/66/24 12/64/19
f 18/67/25 10/68/17 12/64/19
f 25/8/8 14/61/21 26/9/9
f 19/3/3 16/65/23 20/1/1
f 18/67/25 32/16/16 23/10/10
f 19/3/3 17/66/24 16/65/23
f 18/67/25 23/10/10 10/68/17
f 29/14/14 13/63/20 11/62/18
f 24/5/5 29/14/14 11/62/18
f 39/69/36 23/34/10 40/70/37
f 25/31/8 41/71/38 20/30/1
f 39/69/36 24/33/5 23/34/10
f 25/31/8 42/72/39 41/71/38
f 35/73/40 36/74/41 32/36/16
f 35/73/40 32/36/16 19/35/3
f 38/75/42 26/76/9 29/77/14
f 38/75/42 37/78/43 26/76/9
