# Blender v2.79 (sub 0) OBJ File: ''
# www.blender.org
mtllib Crab.mtl
v -0.466164 4.611659 5.593087
v 0.333160 2.061578 5.212613
v 2.484222 2.412139 4.475286
v 0.320343 2.531350 -4.958353
v 2.472656 2.836568 -4.713385
v -0.479790 5.111299 -5.224708
v 2.402725 5.379441 -5.080785
v 2.415192 4.923026 4.800921
v 4.947250 5.461886 1.643956
v 4.697914 2.681486 1.775942
v 4.942024 5.653494 -2.504487
v 4.692513 2.879766 -2.517153
v -0.466164 4.611659 5.593087
v 0.859657 2.341628 5.746862
v 2.347008 5.226624 4.805146
v 2.334557 5.683049 -5.076543
v -0.479790 5.111299 -5.224708
v 0.845329 2.866561 -5.618101
v 2.746841 2.936624 -5.368766
v 5.388130 3.326963 -2.524893
v 4.859726 6.107059 -2.500375
v 5.393349 3.135670 1.616696
v 4.864944 5.915440 1.648076
v 2.759995 2.454602 5.067083
v 3.796761 8.774522 -3.313336
v 3.427650 8.839478 -3.817600
v 3.598236 7.457387 -4.592010
v 4.038010 6.819943 -4.408532
v 3.345428 8.293908 -4.347236
v 3.794983 6.024292 -4.374520
v 4.328079 5.930470 -3.646218
v 4.446823 6.718431 -2.881282
v 4.489349 7.300569 -3.374633
v 4.081696 7.926599 -2.527753
v 4.236526 8.137078 -3.129858
v 3.446556 8.847248 -2.792746
v 2.913460 8.941075 -3.521033
v 2.794685 8.153104 -4.285993
v 3.159836 6.944926 -4.639522
v 4.128387 8.054364 -4.058180
v 4.407127 6.754986 -3.904271
v 3.181572 7.996094 3.806743
v 3.521667 7.217257 4.003064
v 3.198761 8.609149 3.252729
v 3.563202 8.697315 2.665561
v 3.928238 8.010834 1.824166
v 4.419464 6.885992 2.107709
v 4.394623 6.000553 2.907853
v 3.868271 5.873207 3.755900
v 3.148727 6.578538 4.155076
v 2.657516 7.703400 3.871539
v 2.682358 8.588836 3.071383
v 3.208710 8.716175 2.223334
v 4.019867 6.728897 3.726687
v 3.971527 8.010737 3.343015
v 4.384308 6.817055 3.139512
v 4.401520 7.430133 2.585507
v 4.061386 8.208958 2.389182
v 2.347008 5.226624 4.805146
v -0.479790 5.111299 -5.224708
v -0.466164 4.611659 5.593087
v 0.320343 2.531350 -4.958353
v 4.692513 2.879766 -2.517153
v -0.584213 9.102881 8.728725
v 2.657516 7.703400 3.871539
v 2.682358 8.588836 3.071383
v 3.148727 6.578538 4.155076
v 3.019791 6.437006 2.566321
v 3.868271 5.873207 3.755900
v 4.394623 6.000553 2.907853
v 4.419464 6.885992 2.107709
v 3.928238 8.010834 1.824166
v 3.208710 8.716175 2.223334
v 1.851364 6.018488 8.490079
v -1.016762 4.185399 8.593818
v -0.232773 5.875783 6.798045
v 1.324989 9.091613 6.193555
v 2.609406 11.671843 7.172970
v -2.712845 4.145896 -5.398316
v -2.125465 2.714020 -2.460745
v -3.245071 1.950360 -4.418896
v -1.683075 2.138352 -4.901989
v -2.201912 0.003636 -5.275549
v -4.930893 0.964878 2.733316
v 0.678352 7.887943 -3.992164
v 2.946785 8.646965 -2.016379
v -2.812546 1.758267 -3.839746
v 2.472656 2.836568 -4.713385
v 3.104141 0.714138 -2.424225
v -2.868668 0.203320 -1.609432
v -4.935944 1.149933 -1.273289
v -2.801651 1.358790 4.809200
v 0.333160 2.061578 5.212613
v 2.484222 2.412139 4.475286
v 4.697914 2.681486 1.775942
v 2.334557 5.683049 -5.076543
v 4.859726 6.107059 -2.500375
v 4.864944 5.915440 1.648076
v -2.721634 3.946677 4.998878
v -2.863335 0.007734 2.625189
v 3.109825 0.505623 2.090263
v -5.094383 3.379978 -1.452409
v -2.733093 4.367229 -4.106441
v 2.951263 8.482838 1.537242
v -0.087456 8.798042 0.099929
v -5.088913 3.179060 2.897606
v -3.407959 6.153816 0.504127
v -2.680389 6.380961 3.805816
v 0.688461 7.516785 4.043191
v -2.688896 6.694261 -2.977107
v -4.661285 2.975501 -2.898052
v -4.845177 0.892205 -4.679613
v -3.455612 2.148263 -4.032262
v -3.802940 4.879293 -4.037505
v -2.413727 1.940725 -1.861536
v -0.726135 5.539741 -7.015428
v 2.101837 6.437337 -8.889131
v 4.409027 16.176886 -9.673112
v -2.118271 2.449759 3.260326
v -2.957268 1.542483 5.624196
v -1.442070 2.236001 5.562822
v -1.645943 0.017961 6.285231
v -2.649551 3.946155 6.222662
v -4.683403 2.602696 4.213510
v -5.059540 -0.000064 5.818022
v -3.809052 4.023559 5.376926
v -2.407913 1.728041 2.743221
v -3.573441 1.318898 5.072506
v -31.971588 -3.096629 32.533451
v -1.128052 2.446687 8.820398
v 2.635750 11.470808 12.458298
v 4.432312 15.327247 8.699883
v -0.335182 5.388166 12.563668
v -0.879333 9.429064 8.950808
v -2.032608 3.592229 8.909038
v -1.315506 3.789527 4.131038
v -3.270836 0.325503 8.538818
v 4.401596 8.150370 -36.344109
v 2.913460 8.941075 -3.521033
v 3.012749 6.694818 -3.015202
v 3.446556 8.847248 -2.792746
v 3.794983 6.024292 -4.374520
v 3.159836 6.944926 -4.639522
v 2.794685 8.153104 -4.285993
v 4.081696 7.926599 -2.527753
v 4.446823 6.718431 -2.881282
v 4.328079 5.930470 -3.646218
v 2.604385 12.644617 -12.942074
v -0.901176 10.239408 -8.593529
v -0.365395 6.533821 -12.239966
v -1.325165 4.144019 -3.543559
v -1.148804 3.235004 -8.248296
v -2.053467 4.380357 -8.159263
v -0.249313 6.490331 -6.503987
v 1.309158 9.670197 -6.323056
v 1.830231 6.811597 -8.670108
v -1.037186 4.955794 -8.086123
v -0.605583 9.895490 -8.430368
v 2.590630 12.357240 -7.651247
v 2.123444 5.626378 8.656591
v -0.708321 4.872056 7.438941
vt -0.9703 0.0248
vt -1.0380 0.9508
vt 0.3098 0.9508
vt 0.2846 0.0248
vt 1.7423 0.9508
vt 1.7194 0.0248
vt 3.2603 0.9508
vt 3.1347 0.0248
vt 0.9599 0.9969
vt 0.0575 0.9959
vt 0.0062 0.9310
vt 0.9969 0.9271
vt 0.9918 0.7751
vt 0.0037 0.7859
vt 1.0032 0.2029
vt 0.0046 0.1994
vt 0.9972 0.1135
vt 0.0030 0.1354
vt 0.9384 0.0071
vt 0.0522 0.0062
vt 0.9951 0.9853
vt 0.0064 0.9846
vt 0.0072 0.0084
vt 0.9949 0.0119
vt 0.0032 0.9849
vt 0.0041 0.0080
vt 0.9910 0.0001
vt 0.9968 0.9849
vt 0.9923 0.9893
vt 0.0124 0.9999
vt 0.0080 0.0005
vt 0.9923 0.0010
vt 0.0111 0.0049
vt 0.9834 0.0000
vt 1.0000 0.9926
vt 0.0000 1.0000
vt 2.3507 0.0226
vt 2.4623 0.9490
vt 1.1920 0.9490
vt 1.2535 0.0226
vt -0.1156 0.9490
vt -0.0996 0.0226
vt -1.2435 0.9490
vt -1.0783 0.0226
vt 3.3930 0.9490
vt 3.0570 0.0226
vt -1.7358 0.0226
vt -2.1250 0.9490
vt 4.1654 0.0248
vt 3.9480 0.9508
vt -1.9638 0.0248
vt -1.6925 0.9508
vt 0.7281 1.0185
vt 0.2742 0.9805
vt 0.5420 0.4698
vt 1.0383 0.6892
vt 1.0051 0.2566
vt 0.7127 -0.0124
vt 1.0339 0.2300
vt 0.7255 -0.0354
vt 0.3235 -0.0336
vt 0.3432 -0.0191
vt 0.0312 0.2018
vt 0.0610 0.2240
vt 0.0067 0.6295
vt 0.0103 0.6260
vt 0.2637 0.9929
vt 0.7408 1.0181
vt 1.0367 0.6954
vt -0.0229 0.5392
vt 0.2503 0.9335
vt 0.4765 0.3933
vt 0.0344 0.1515
vt 0.3090 -0.0260
vt 0.7510 1.0034
vt 0.7325 0.9909
vt 1.0375 0.6520
vt 1.0103 0.6407
vt 0.9498 0.2008
vt 0.9249 0.2189
vt 0.6108 0.0073
vt 0.6325 -0.0296
vt 0.3225 -0.0096
vt 0.0304 0.1476
vt -0.0189 0.5408
vt 0.1962 1.0012
vt 0.4657 0.1511
vt 0.4642 0.1389
vt 0.4840 0.1399
vt 0.4757 0.1598
vt 0.4883 0.1599
vt 0.4720 0.1304
vt 0.4846 0.1305
vt 0.4946 0.1392
vt 0.4962 0.1514
vt 0.4188 0.1422
vt 0.4311 0.1658
vt 0.4047 0.1340
vt 0.3937 0.1281
vt 0.3921 0.1702
vt 0.4224 0.1831
vt 0.5657 0.1493
vt 0.5636 0.1270
vt 0.5308 0.1311
vt 0.5520 0.1306
vt 0.5672 0.1103
vt 0.4554 0.1201
vt 0.5181 0.1105
vt 0.5063 0.1262
vt 0.4521 0.1403
vt 0.5073 0.1469
vt 0.4876 0.1633
vt 0.5342 0.1693
vt 0.5036 0.1751
vt 0.5587 0.1686
vt 0.5413 0.1649
vt 0.5711 0.1495
vt 0.5713 0.1232
vt 0.5462 0.1266
vt 0.5757 0.1177
vt 0.5556 0.1075
vt 0.5495 0.0940
vt 0.4644 0.1041
vt 0.4922 0.0871
vt 0.4422 0.1078
vt 0.4364 0.1135
vt 0.4337 0.1331
vt 0.4335 0.1361
vt 0.4590 0.1038
vt 0.5011 0.1010
vt 0.5790 0.1440
vt 0.5550 0.1357
vt 0.5023 0.1294
vt 0.4962 0.1595
vt 0.4535 0.1291
vt 0.4566 0.1565
vt 0.4481 0.1590
vt 0.5491 0.1499
vt 0.5274 0.1433
vt 0.5443 0.1583
vt 0.5500 0.1273
vt 0.5463 0.1327
vt 0.5224 0.1246
vt 0.4182 0.1345
vt 0.4314 0.1155
vt 0.4582 0.1225
vt 0.4254 0.1149
vt 0.4221 0.0957
vt 0.4370 0.1322
vt 0.4248 0.1404
vt 0.4160 0.1086
vt 0.4303 0.1157
vt 0.4640 0.1176
vt 0.4036 0.1293
vt 0.3453 0.1319
vt 0.3910 0.1127
vt 0.4093 0.1343
vt 0.4083 0.2073
vt 0.3881 0.1740
vt 0.3553 0.1754
vt 0.3863 0.1262
vt 0.4496 0.1305
vt 0.5603 0.1693
vt 0.5698 0.1635
vt 0.5549 0.1483
vt 0.5529 0.1657
vt 0.5751 0.1409
vt 0.5678 0.1373
vt 0.5760 0.1518
vt 0.5521 0.1548
vt 0.5582 0.1431
vt 0.6077 0.1385
vt 0.6603 0.1694
vt 0.6264 0.1558
vt 0.5929 0.1562
vt 0.6416 0.2351
vt 0.6778 0.2138
vt 0.6109 0.2005
vt 0.6031 0.1519
vt 0.5470 0.1421
vt 0.5877 0.1623
vt 0.6226 0.1599
vt 0.5900 0.1848
vt 0.6055 0.1533
vt 0.6099 0.1961
vt 0.6106 0.2055
vn -0.7037 -0.1629 0.6916
vn -0.7085 -0.1790 0.6826
vn -0.9125 -0.1851 0.3648
vn -0.9067 -0.1757 0.3834
vn -0.9255 -0.1721 -0.3373
vn -0.9279 -0.1795 -0.3267
vn -0.7603 -0.1596 -0.6296
vn -0.7515 -0.1721 -0.6369
vn 0.8936 -0.2495 -0.3731
vn 0.9160 -0.2978 0.2689
vn 0.5690 -0.3910 0.7234
vn 0.4765 -0.3123 -0.8218
vn 0.0575 0.0084 -0.9983
vn 0.2439 0.0778 0.9667
vn 0.3402 -0.1432 -0.9294
vn 0.4860 -0.2066 0.8492
vn 0.2936 0.4174 -0.8600
vn 0.4158 0.3948 0.8193
vn 0.8477 0.4308 -0.3094
vn 0.8618 0.4281 0.2719
vn -0.6856 0.5102 0.5193
vn -0.4745 -0.8391 0.2662
vn 0.7960 -0.4863 0.3604
vn 0.4714 0.8768 -0.0952
vn -0.7122 0.4757 0.5162
vn 0.1206 0.2021 0.9719
vn 0.8805 -0.3788 0.2850
vn 0.4547 0.8756 0.1632
vn 0.7283 -0.4798 -0.4893
vn -0.4935 -0.8523 -0.1731
vn -0.7590 0.5060 -0.4097
vn 0.4796 0.8774 -0.0132
vn 0.8365 -0.3657 -0.4081
vn -0.0146 0.1819 -0.9832
vn -0.7897 0.4585 -0.4077
vn 0.4378 0.8626 -0.2535
vn -0.7803 0.0515 -0.6233
vn -0.7836 0.0587 -0.6185
vn -0.9530 0.0750 -0.2937
vn -0.9306 0.0664 -0.3600
vn -0.9270 0.0817 0.3662
vn -0.9185 0.0858 0.3860
vn -0.7075 0.0728 0.7029
vn -0.7017 0.0829 0.7076
vn 0.3019 -0.0830 0.9497
vn 0.2705 -0.0586 0.9609
vn 0.3014 -0.0826 0.9499
vn 0.3385 -0.1119 0.9343
vn 0.0907 -0.1049 -0.9903
vn 0.1219 -0.0645 -0.9905
vn 0.0892 -0.1068 -0.9903
vn 0.0625 -0.1410 -0.9880
vn 0.2698 0.1725 0.9474
vn 0.3136 0.2453 0.9173
vn 0.2736 0.1788 0.9451
vn 0.2417 0.1269 0.9620
vn 0.0620 0.1573 -0.9856
vn 0.0299 0.1102 -0.9935
vn 0.0687 0.1671 -0.9836
vn 0.1176 0.2384 -0.9640
vn 0.2010 0.8581 -0.4725
vn 0.5998 0.8001 0.0099
vn 0.7434 0.4135 -0.5257
vn 0.0689 0.5224 -0.8499
vn 0.2348 0.1748 -0.9562
vn 0.5940 -0.0649 -0.8018
vn 0.0967 0.0096 -0.9953
vn 0.5986 -0.2158 -0.7714
vn 0.9114 -0.1999 -0.3596
vn 0.9225 -0.0723 -0.3791
vn 0.9956 0.0063 0.0933
vn 0.9902 0.1394 -0.0083
vn 0.8546 0.3810 0.3529
vn 0.8836 0.4437 0.1494
vn 0.4934 0.8430 0.2142
vn -0.0122 0.9393 -0.3429
vn -0.2152 0.4690 -0.8566
vn -0.4308 -0.5022 -0.7498
vn -0.3925 -0.6106 -0.6878
vn -0.4876 -0.4481 -0.7492
vn -0.5773 -0.3033 -0.7581
vn -0.6413 -0.2421 -0.7281
vn 0.2701 0.9466 -0.1761
vn 0.0154 0.8894 0.4568
vn 0.4157 0.9083 0.0463
vn 0.7713 0.5216 -0.3647
vn 0.7933 0.5915 -0.1441
vn 0.9874 0.1214 -0.1012
vn 0.9662 0.2578 0.0039
vn 0.9425 -0.0801 0.3244
vn 0.9412 0.0501 0.3342
vn 0.7022 -0.1003 0.7049
vn 0.7098 -0.0226 0.7040
vn 0.2976 0.0531 0.9532
vn 0.1726 0.1315 0.9762
vn -0.1212 0.4164 0.9011
vn -0.1725 0.4970 0.8504
vn -0.1894 0.8773 0.4410
vn 0.8114 0.4851 0.3261
vn 0.9738 0.2204 0.0565
vn 0.9208 0.3748 -0.1081
vn 0.9670 0.2075 0.1480
vn 0.9210 0.0539 0.3858
vn 0.8490 0.0091 0.5283
vn -0.4753 -0.8765 -0.0764
vn -0.6604 -0.7414 0.1196
vn -0.3682 -0.6905 -0.6226
vn -0.1371 -0.8411 -0.5231
vn -0.1310 -0.4785 -0.8682
vn -0.4308 -0.1693 -0.8864
vn -0.5429 -0.0808 -0.8359
vn -0.3022 -0.3850 -0.8720
vn 0.0510 0.1251 -0.9908
vn 0.1469 -0.8666 0.4769
vn -0.9701 0.1887 0.1528
vn -0.1762 -0.0396 -0.9836
vn 0.8628 0.4613 -0.2066
vn -0.1177 0.9768 0.1789
vn 0.9555 0.2947 0.0124
vn 0.4215 0.9059 0.0413
vn 0.8234 0.5669 0.0251
vn 0.9885 -0.1512 -0.0082
vn 0.9567 -0.2907 0.0160
vn 0.7794 -0.6261 0.0240
vn 0.6265 -0.7695 0.1244
vn 0.3954 -0.9014 0.1763
vn 0.2699 -0.9280 0.2569
vn 0.1169 -0.9646 0.2364
vn -0.4175 -0.4842 -0.7689
vn 0.4423 -0.8256 -0.3502
vn -0.1485 -0.9236 -0.3534
vn -0.6640 -0.3854 -0.6407
vn -0.7632 0.0131 -0.6460
vn -0.1483 -0.9582 0.2448
vn 0.4916 -0.8277 0.2707
vn -0.2969 -0.5046 0.8107
vn -0.4850 0.1604 0.8597
vn 0.0895 0.5638 -0.8211
vn 0.5914 0.7451 -0.3082
vn 0.4550 0.8339 0.3124
vn 0.0371 0.7465 0.6644
vn -0.5640 0.6509 0.5081
vn -0.7668 0.1881 0.6138
vn -0.5926 -0.6324 0.4990
vn -0.6151 0.1365 -0.7765
vn -0.5801 0.4003 -0.7094
vn -0.1964 0.9593 0.2031
vn -0.7079 0.6980 0.1080
vn -0.7950 0.0186 0.6064
vn 0.0418 0.9583 -0.2826
vn -0.3649 -0.8382 -0.4053
vn 0.6755 -0.6018 -0.4261
vn 0.5911 -0.4444 0.6731
vn -0.2253 0.8668 0.4448
vn 0.9984 -0.0537 0.0187
vn 0.0728 -0.0077 -0.9973
vn -0.8126 -0.5818 -0.0351
vn 0.2778 -0.9332 0.2279
vn 0.8222 -0.1817 0.5394
vn -0.0806 -0.9069 -0.4135
vn 0.3959 0.8510 -0.3451
vn -0.6553 0.7289 -0.1982
vn -0.5836 0.2736 0.7646
vn -0.1671 -0.3325 0.9282
vn -0.0040 -0.9979 0.0651
vn 0.2375 0.3645 0.9004
vn -0.9713 -0.2076 0.1164
vn -0.0230 0.0016 -0.9997
vn -0.9078 0.0535 0.4159
vn -0.9934 -0.1018 0.0537
vn -0.6936 -0.4781 0.5388
vn -0.6725 0.0593 0.7377
vn -0.6292 -0.7770 0.0212
vn -0.2793 -0.8497 0.4471
vn -0.8956 -0.4204 -0.1458
vn -0.2946 -0.1196 0.9481
vn -0.0713 -0.5143 0.8546
vn 0.0102 -0.9944 -0.1056
vn -0.2441 -0.3453 -0.9062
vn 0.1637 0.3392 -0.9264
vn -0.9825 -0.1717 -0.0721
vn -0.0149 -0.0805 0.9966
vn -0.2137 -0.3744 0.9023
vn 0.1594 0.1652 0.9733
usemtl material_115
s 1
f 16/1/1 19/2/2 20/3/3
f 21/4/4 16/1/1 20/3/3
f 21/4/4 20/3/3 22/5/5
f 23/6/6 21/4/4 22/5/5
f 23/6/6 22/5/5 24/7/7
f 15/8/8 23/6/6 24/7/7
usemtl material_114
f 97/9/9 98/10/10 59/11/11
f 96/12/12 97/9/9 59/11/11
f 60/13/13 96/12/12 59/11/11
f 60/13/13 59/11/11 61/14/14
f 62/15/15 60/13/13 61/14/14
f 62/15/15 61/14/14 93/16/16
f 88/17/17 62/15/15 93/16/16
f 88/17/17 93/16/16 94/18/18
f 63/19/19 88/17/17 94/18/18
f 63/19/19 94/18/18 95/20/20
f 64/21/21 75/22/22 74/23/23
f 78/24/24 64/21/21 74/23/23
f 149/25/25 116/26/26 117/27/27
f 118/28/28 149/25/25 117/27/27
f 156/29/29 157/30/30 158/31/31
f 159/32/32 156/29/29 158/31/31
f 160/33/33 161/34/34 134/35/35
f 132/36/36 160/33/33 134/35/35
usemtl material_119
f 3/37/37 8/38/38 9/39/39
f 10/40/40 3/37/37 9/39/39
f 10/40/40 9/39/39 11/41/41
f 12/42/42 10/40/40 11/41/41
f 12/42/42 11/41/41 7/43/43
f 5/44/44 12/42/42 7/43/43
usemtl material_113
f 8/38/45 1/45/46 2/46/47
f 3/37/48 8/38/45 2/46/47
f 5/44/49 4/47/50 6/48/51
f 7/43/52 5/44/49 6/48/51
usemtl material_118
f 13/49/53 14/50/54 24/7/55
f 15/8/56 13/49/53 24/7/55
f 17/51/57 16/1/58 19/2/59
f 18/52/60 17/51/57 19/2/59
usemtl material_116
f 26/53/61 25/54/62 40/55/63
f 29/56/64 26/53/61 40/55/63
f 27/57/65 29/56/64 40/55/63
f 27/57/65 40/55/63 28/58/66
f 39/59/67 29/56/64 27/57/65
f 30/60/68 39/59/67 27/57/65
f 30/60/68 27/57/65 28/58/66
f 31/61/69 30/60/68 28/58/66
f 31/61/69 28/58/66 41/62/70
f 32/63/71 31/61/69 41/62/70
f 32/63/71 41/62/70 33/64/72
f 34/65/73 32/63/71 33/64/72
f 34/65/73 33/64/72 35/66/74
f 36/67/75 34/65/73 35/66/74
f 36/67/75 35/66/74 25/54/62
f 37/68/76 36/67/75 25/54/62
f 37/68/76 25/54/62 26/53/61
f 38/69/77 37/68/76 26/53/61
f 38/69/77 26/53/61 29/56/64
f 39/59/67 38/69/77 29/56/64
f 41/62/70 28/58/66 40/55/63
f 33/64/72 41/62/70 40/55/63
f 35/66/74 33/64/72 40/55/63
f 35/66/74 40/55/63 25/54/62
f 42/70/78 44/71/79 55/72/80
f 43/73/81 42/70/78 55/72/80
f 43/73/81 55/72/80 54/74/82
f 53/75/83 44/71/84 45/76/85
f 46/77/86 53/75/83 45/76/85
f 46/77/86 45/76/85 58/78/87
f 47/79/88 46/77/86 58/78/87
f 47/79/88 58/78/87 57/80/89
f 48/81/90 47/79/88 57/80/89
f 48/81/90 57/80/89 56/82/91
f 49/83/92 48/81/90 56/82/91
f 49/83/92 56/82/91 54/74/93
f 50/84/94 49/83/92 54/74/93
f 50/84/94 54/74/93 43/73/95
f 51/85/96 50/84/94 43/73/95
f 51/85/96 43/73/95 42/70/97
f 52/86/98 51/85/96 42/70/97
f 52/86/98 42/70/97 44/71/84
f 53/75/83 52/86/98 44/71/84
f 55/72/99 54/74/93 56/82/91
f 57/80/89 55/72/99 56/82/91
f 55/72/99 57/80/89 58/78/87
f 55/72/99 58/78/87 45/76/85
f 44/71/84 55/72/99 45/76/85
usemtl material_117
f 65/87/100 67/88/101 68/89/102
f 66/90/103 65/87/100 68/89/102
f 66/90/103 68/89/102 73/91/104
f 69/92/105 67/88/106 68/89/107
f 70/93/108 69/92/105 68/89/107
f 71/94/109 70/93/108 68/89/107
f 71/94/109 68/89/107 72/95/110
f 73/91/111 72/95/110 68/89/107
f 76/96/112 77/97/113 74/98/23
f 76/96/112 74/98/23 75/99/22
f 76/96/112 75/99/22 64/100/21
f 77/97/113 76/96/112 64/100/21
f 77/97/113 64/100/21 78/101/24
f 74/98/23 77/97/113 78/101/24
f 79/102/114 82/103/115 80/104/116
f 81/105/117 79/102/114 80/104/116
f 81/105/117 80/104/116 82/103/115
f 83/106/118 81/105/117 82/103/115
f 83/106/118 82/103/115 79/102/114
f 81/105/117 83/106/118 79/102/114
f 84/107/119 90/108/120 91/109/121
f 106/110/122 84/107/119 91/109/121
f 106/110/122 91/109/121 102/111/123
f 107/112/124 106/110/122 102/111/123
f 107/112/124 102/111/123 110/113/125
f 105/114/126 107/112/124 110/113/125
f 105/114/126 110/113/125 85/115/127
f 86/116/128 105/114/126 85/115/127
f 60/117/13 62/118/15 87/119/129
f 88/120/17 63/121/19 89/122/130
f 62/118/15 88/120/17 89/122/130
f 62/118/15 89/122/130 90/108/131
f 87/119/129 62/118/15 90/108/131
f 87/119/129 90/108/131 91/109/132
f 102/111/133 87/119/129 91/109/132
f 100/123/134 101/124/135 93/125/16
f 92/126/136 100/123/134 93/125/16
f 92/126/136 93/125/16 61/127/14
f 99/128/137 92/126/136 61/127/14
f 94/129/18 93/125/16 101/124/135
f 95/130/20 94/129/18 101/124/135
f 96/131/12 60/117/13 85/115/138
f 97/132/9 96/131/12 85/115/138
f 97/132/9 85/115/138 86/116/139
f 98/133/10 97/132/9 86/116/139
f 98/133/10 86/116/139 104/134/140
f 59/135/11 98/133/10 104/134/140
f 59/135/11 104/134/140 109/136/141
f 61/127/14 59/135/11 109/136/141
f 61/127/14 109/136/141 108/137/142
f 99/128/137 61/127/14 108/137/142
f 99/128/137 108/137/142 106/110/143
f 92/126/136 99/128/137 106/110/143
f 92/126/136 106/110/143 84/107/144
f 100/123/134 92/126/136 84/107/144
f 100/123/134 84/107/144 90/108/131
f 101/124/135 100/123/134 90/108/131
f 101/124/135 90/108/131 89/122/130
f 95/130/20 101/124/135 89/122/130
f 95/130/20 89/122/130 63/121/19
f 87/119/129 102/111/133 103/138/145
f 60/117/13 87/119/129 103/138/145
f 60/117/13 103/138/145 110/113/146
f 85/115/138 60/117/13 110/113/146
f 104/134/140 86/116/139 105/114/147
f 107/112/148 106/110/143 108/137/142
f 105/114/147 107/112/148 108/137/142
f 105/114/147 108/137/142 109/136/141
f 104/134/140 105/114/147 109/136/141
f 103/138/145 102/111/133 110/113/146
f 111/139/149 114/140/150 112/141/151
f 113/142/152 111/139/149 112/141/151
f 113/142/152 112/141/151 114/140/150
f 115/143/153 113/142/152 114/140/150
f 115/143/153 114/140/150 111/139/149
f 113/142/152 115/143/153 111/139/149
f 123/144/154 121/145/155 119/146/156
f 120/147/157 123/144/154 119/146/156
f 120/147/157 119/146/156 121/145/155
f 122/148/158 120/147/157 121/145/155
f 122/148/158 121/145/155 123/144/154
f 120/147/157 122/148/158 123/144/154
f 124/149/159 126/150/160 125/151/161
f 128/152/162 124/149/159 125/151/161
f 128/152/162 125/151/161 126/150/160
f 127/153/163 128/152/162 126/150/160
f 127/153/163 126/150/160 124/149/159
f 128/152/162 127/153/163 124/149/159
f 160/154/33 133/155/164 130/156/165
f 161/157/34 160/154/33 130/156/165
f 132/158/36 134/159/35 131/160/166
f 160/154/33 132/158/36 131/160/166
f 133/155/164 160/154/33 131/160/166
f 133/155/164 131/160/166 134/159/35
f 135/161/167 133/155/164 134/159/35
f 135/161/167 134/159/35 161/157/34
f 136/162/168 135/161/167 161/157/34
f 136/162/168 161/157/34 130/156/165
f 135/161/167 136/162/168 130/156/165
f 135/161/167 130/156/165 133/155/164
f 139/163/169 144/164/170 140/165/171
f 141/166/172 139/163/169 140/165/171
f 142/167/173 147/168/174 140/165/171
f 143/169/175 142/167/173 140/165/171
f 143/169/175 140/165/171 144/164/170
f 145/170/176 141/166/172 140/165/171
f 146/171/177 145/170/176 140/165/171
f 146/171/177 140/165/171 147/168/174
f 152/172/178 150/173/179 117/174/27
f 116/175/26 152/172/178 117/174/27
f 118/176/28 148/177/180 149/178/25
f 148/177/180 118/176/28 117/174/27
f 148/177/180 117/174/27 150/173/179
f 149/178/25 148/177/180 150/173/179
f 149/178/25 150/173/179 153/179/181
f 116/175/26 149/178/25 153/179/181
f 116/175/26 153/179/181 151/180/182
f 152/172/178 116/175/26 151/180/182
f 152/172/178 151/180/182 153/179/181
f 150/173/179 152/172/178 153/179/181
f 154/181/183 156/182/29 155/183/184
f 157/184/30 156/182/29 154/181/183
f 158/185/31 157/184/30 154/181/183
f 158/185/31 154/181/183 155/183/184
f 159/186/32 158/185/31 155/183/184
f 159/186/32 155/183/184 156/182/29
