# 3ds Max Wavefront OBJ Exporter v0.97b - (c)2007 guruware
# File Created: 01.07.2016 18:06:04

mtllib Body.mtl

#
# object Object008
#

v -0.7374 1.9193 -0.6934
v -1.0645 2.3926 -1.551
v -0.5652 1.6544 -1.5995
v -0.5652 1.6544 1.5995
v -1.0645 2.3926 1.551
v -0.7374 1.9193 0.6934
v 0.466 2.1963 -0.5609
v 0.466 2.1963 0.5609
v 0.4335 1.9193 -1.414
v 0.4335 1.9193 1.414
v -1.6035 1.5767 -0.1245
v -1.8051 2.2628 0.0
v -1.5087 1.6462 0.0
v -1.6035 1.5767 0.1245
v -1.6999 1.551 0.0
v -1.2635 0.8845 0.249
v -1.3485 0.8165 0.0
v -1.2635 0.8845 -0.249
v -0.9947 1.0627 0.0
v -0.9025 -0.9025 0.9028
v -1.1054 3.0E-4 1.1057
v -1.5634 3.0E-4 -0.0
v -1.1054 -1.1054 -0.0
v -1.1054 3.0E-4 -1.1057
v -0.9025 -0.9025 -0.9028
v -0.975 0.6453 0.9138
v -0.975 0.6453 -0.9138
v -0.3971 1.4159 0.0
v -0.1984 0.6873 1.3351
v -0.1984 0.6873 -1.3351
v 1.3453 1.0351 0.0
v 1.0334 0.5922 1.1467
v 1.0334 0.5922 -1.1467
v 3.0E-4 -1.5634 -0.0
v 3.0E-4 -1.1054 1.1057
v 3.0E-4 -1.1054 -1.1057
v 1.106 -1.1054 -0.0
v 0.9031 -0.9025 0.9028
v 0.9031 -0.9025 -0.9028
v 3.0E-4 3.0E-4 1.5637
v 3.0E-4 3.0E-4 -1.5637
v 1.106 3.0E-4 1.1057
v 1.106 3.0E-4 -1.1057
v 1.5639 3.0E-4 -0.0
# 44 vertices

vn -0.8451 0.2514 0.4718
vn -0.7375 0.5308 -0.4176
vn -0.477 -0.3041 -0.8246
vn -0.477 -0.3041 0.8246
vn -0.7375 0.5308 0.4176
vn -0.8451 0.2514 -0.4718
vn 0.3862 0.8663 0.3168
vn 0.3862 0.8663 -0.3168
vn 0.5236 0.4486 -0.7243
vn 0.5236 0.4486 0.7243
vn -0.1671 0.1007 -0.9808
vn -0.2894 0.9572 0.0
vn 0.8354 0.5497 -0.0
vn -0.1671 0.1007 0.9808
vn -0.957 -0.2902 -0.0
vn -0.6327 0.4461 0.633
vn -0.9999 -0.0166 -0.0
vn -0.6327 0.4461 -0.633
vn -0.1018 0.9948 0.0
vn -0.5773 -0.5774 0.5774
vn -0.7057 -0.0121 0.7084
vn -0.9983 -0.0588 -0.0
vn -0.7071 -0.7071 -0.0
vn -0.7057 -0.0121 -0.7084
vn -0.5773 -0.5774 -0.5774
vn -0.5742 0.5574 0.5996
vn -0.5742 0.5574 -0.5996
vn -0.6808 0.7325 0.0
vn -0.3034 0.162 0.939
vn -0.3034 0.162 -0.939
vn 0.9003 0.4353 0.0
vn 0.6822 0.1442 0.7168
vn 0.6822 0.1442 -0.7168
vn 0.0 -1.0 -0.0
vn 0.0 -0.7071 0.7071
vn 0.0 -0.7071 -0.7071
vn 0.7071 -0.7071 -0.0
vn 0.5774 -0.5774 0.5774
vn 0.5774 -0.5774 -0.5774
vn -0.0103 -0.0494 0.9987
vn -0.0103 -0.0494 -0.9987
vn 0.7132 -0.1272 0.6893
vn 0.7132 -0.1272 -0.6893
vn 0.9966 -0.0825 -0.0
# 44 vertex normals

vt 0.6250 0.1250 0.0000
vt 0.8750 0.1250 0.0000
vt 0.8750 0.3750 0.0000
vt 0.6250 0.3750 0.0000
vt 0.0113 0.5000 0.0000
vt 0.4887 0.5000 0.0000
vt 0.4011 0.1103 0.0000
vt 0.0113 0.0227 0.0000
vt 0.0113 0.9773 0.0000
vt 0.4011 0.8897 0.0000
# 10 texture coords

g Object008
usemtl Skin_Belly_png_Belly_png
f 1/1/1 2/2/2 3/3/3 
f 4/1/4 5/2/5 6/3/6 
f 7/1/7 2/2/2 1/3/1 
f 6/1/6 5/2/5 8/3/8 
f 3/1/3 2/2/2 9/3/9 
f 10/1/10 5/2/5 4/3/4 
f 9/1/9 2/2/2 7/3/7 
f 8/1/8 5/2/5 10/3/10 
f 11/1/11 12/2/12 13/3/13 
f 13/1/13 12/2/12 14/3/14 
f 15/1/15 12/2/12 11/3/11 
f 14/1/14 12/2/12 15/3/15 
f 16/1/16 14/2/14 17/4/17 
f 14/2/14 15/3/15 17/4/17 
f 17/1/17 15/2/15 11/3/11 
f 17/1/17 11/3/11 18/4/18 
f 19/1/19 13/2/13 14/3/14 
f 19/1/19 14/3/14 16/4/16 
f 18/1/18 11/2/11 19/4/19 
f 11/2/11 13/3/13 19/4/19 
f 20/1/20 21/2/21 22/3/22 
f 20/1/20 22/3/22 23/4/23 
f 22/1/22 24/2/24 25/3/25 
f 22/1/22 25/3/25 23/4/23 
f 16/2/16 26/3/26 19/4/19 
f 27/1/27 18/2/18 19/4/19 
f 28/1/28 19/2/19 26/3/26 
f 28/1/28 26/3/26 29/4/29 
f 27/1/27 19/2/19 28/3/28 
f 27/1/27 28/3/28 30/4/30 
f 8/1/8 10/2/10 31/4/31 
f 10/2/10 32/3/32 31/4/31 
f 33/1/33 9/2/9 31/4/31 
f 9/2/9 7/3/7 31/4/31 
f 10/1/10 4/2/4 29/3/29 
f 10/1/10 29/3/29 32/4/32 
f 30/1/30 3/2/3 9/3/9 
f 30/1/30 9/3/9 33/4/33 
f 6/1/6 8/2/8 28/4/28 
f 8/2/8 31/3/31 28/4/28 
f 31/1/31 7/2/7 28/4/28 
f 7/2/7 1/3/1 28/4/28 
f 4/1/4 6/2/6 29/4/29 
f 6/2/6 28/3/28 29/4/29 
f 28/1/28 1/2/1 30/4/30 
f 1/2/1 3/3/3 30/4/30 
f 34/5/34 35/6/35 20/7/20 
f 34/5/34 20/7/20 23/8/23 
f 25/7/25 36/6/36 34/5/34 
f 25/7/25 34/5/34 23/8/23 
f 37/9/37 38/10/38 34/5/34 
f 38/10/38 35/6/35 34/5/34 
f 36/6/36 39/10/39 34/5/34 
f 39/10/39 37/9/37 34/5/34 
f 35/1/35 40/2/40 20/4/20 
f 40/2/40 21/3/21 20/4/20 
f 24/1/24 41/2/41 25/4/25 
f 41/2/41 36/3/36 25/4/25 
f 38/1/38 42/2/42 40/3/40 
f 38/1/38 40/3/40 35/4/35 
f 41/1/41 43/2/43 39/3/39 
f 41/1/41 39/3/39 36/4/36 
f 40/1/40 29/2/29 21/4/21 
f 29/2/29 26/3/26 21/4/21 
f 27/1/27 30/2/30 24/4/24 
f 30/2/30 41/3/41 24/4/24 
f 42/1/42 32/2/32 40/4/40 
f 32/2/32 29/3/29 40/4/40 
f 30/1/30 33/2/33 41/4/41 
f 33/2/33 43/3/43 41/4/41 
f 37/1/37 44/2/44 38/4/38 
f 44/2/44 42/3/42 38/4/38 
f 43/1/43 44/2/44 39/4/39 
f 44/2/44 37/3/37 39/4/39 
f 44/1/44 31/2/31 32/3/32 
f 44/1/44 32/3/32 42/4/42 
f 33/1/33 31/2/31 44/3/44 
f 33/1/33 44/3/44 43/4/43 
f 24/3/24 18/3/18 27/4/27 
f 21/1/21 26/2/26 16/1/16 
f 18/3/18 24/3/24 22/4/22 
f 18/3/18 22/4/22 17/1/17 
f 22/4/22 21/1/21 16/1/16 
f 22/4/22 16/1/16 17/3/17 
# 84 faces

