# 3ds Max Wavefront OBJ Exporter v0.97b - (c)2007 guruware
# File Created: 01.07.2016 18:51:37

mtllib Foot.mtl

#
# object Foot
#

v 0.4833 -0.0087 -0.0
v 0.1242 0.8611 -0.0
v 0.0038 -0.0031 0.8888
v 0.1844 -0.8072 -0.0
v 0.0038 -0.0031 -0.8887
v -1.4412 1.2224 -0.0
v -1.4412 0.1173 1.2255
v -1.4412 0.1173 -1.2255
v -1.4412 -2.5124 -0.9137
v -0.5983 -1.9404 -0.7521
v -0.4177 -2.7488 -0.0
v -1.4412 -3.7573 -0.0
v -0.5983 -1.9404 0.7522
v -1.4412 -2.5124 0.9138
# 14 vertices

vn 0.9999 0.014 -0.0
vn 0.5768 0.8169 -0.0
vn 0.5867 0.187 0.7879
vn 0.9442 -0.3293 -0.0
vn 0.5867 0.187 -0.7879
vn -0.489 0.8723 -0.0
vn -0.5225 0.2937 0.8005
vn -0.5225 0.2937 -0.8005
vn -0.4788 -0.3837 -0.7896
vn 0.5686 -0.2911 -0.7694
vn 0.8079 -0.5893 -0.0
vn -0.2807 -0.9598 -0.0
vn 0.5686 -0.2911 0.7694
vn -0.4788 -0.3837 0.7896
# 14 vertex normals

vt 0.7669 0.5000 0.0000
vt 0.9316 0.4067 0.0000
vt 0.7679 0.3754 0.0000
vt 0.6157 0.4223 0.0000
vt 0.6157 0.5777 0.0000
vt 0.7679 0.6246 0.0000
vt 0.9316 0.5933 0.0000
vt 1.0000 0.0000 0.0000
vt 0.7907 0.0000 0.0000
vt 1.0000 1.0000 0.0000
vt 0.7907 1.0000 0.0000
vt 0.2928 1.0000 0.0000
vt 0.4011 0.7810 0.0000
vt 0.2480 0.7028 0.0000
vt 0.0000 1.0000 0.0000
vt 0.4011 0.2190 0.0000
vt 0.2928 -0.0000 0.0000
vt 0.2480 0.2972 0.0000
vt 0.0000 -0.0000 0.0000
vt 0.0254 0.9300 0.0000
vt 0.1000 1.0000 0.0000
vt 0.1000 0.8000 0.0000
vt 0.0000 0.8419 0.0000
vt 0.1746 0.9300 0.0000
vt 0.2000 0.8419 0.0000
# 25 texture coords

g Foot
usemtl Shoe_She_pngs_She_png
f 1/1/1 2/2/2 3/3/3 
f 1/1/1 3/3/3 4/4/4 
f 1/1/1 4/5/4 5/6/5 
f 1/1/1 5/6/5 2/7/2 
f 3/3/3 2/2/2 6/8/6 
f 7/9/7 3/3/3 6/8/6 
f 6/10/6 5/6/5 8/11/8 
f 6/10/6 2/7/2 5/6/5 
f 9/12/9 10/13/10 11/14/11 
f 12/15/12 9/12/9 11/14/11 
f 8/11/8 5/6/5 10/13/10 
f 9/12/9 8/11/8 10/13/10 
f 7/9/7 13/16/13 3/3/3 
f 7/9/7 14/17/14 13/16/13 
f 14/17/14 11/18/11 13/16/13 
f 14/17/14 12/19/12 11/18/11 
f 13/16/13 11/18/11 4/4/4 
f 3/3/3 13/16/13 4/4/4 
f 10/13/10 5/6/5 4/5/4 
f 11/14/11 10/13/10 4/5/4 
f 9/20/9 12/21/12 6/22/6 
f 8/23/8 9/20/9 6/22/6 
f 6/22/6 14/24/14 7/25/7 
f 6/22/6 12/21/12 14/24/14 
# 24 faces

