# 3ds Max Wavefront OBJ Exporter v0.97b - (c)2007 guruware
# File Created: 01.07.2016 18:33:36

mtllib RightHand.mtl

#
# object Object007
#

v -0.0037 0.0159 0.0848
v -0.5243 -0.3611 0.7676
v 0.4937 -0.23 0.7676
v 0.4997 -0.23 -0.9591
v -0.5243 -0.3611 -0.9591
v -0.997 -0.9185 -1.0205
v -0.997 -0.9185 0.9193
v -0.4578 -0.7261 0.9193
v -0.4578 -0.7261 -1.0205
v -0.347 -1.2584 0.9193
v -0.347 -1.2584 -1.0205
v -0.9457 -1.8926 -1.0205
v -0.9457 -1.8926 0.9193
v 0.6911 -1.89 0.9193
v -0.3474 -1.2575 0.9193
v -0.3474 -1.2575 -1.0205
v 0.6911 -1.89 -1.0205
v -1.0209 -0.542 -1.5455
v -0.803 -1.0536 -1.5455
v -0.803 -1.0536 -1.0253
v -1.0209 -0.542 -1.0037
v -0.4901 -0.5331 -0.982
v -0.0102 -0.4891 -1.513
v 0.0451 -1.0491 -1.513
v -0.4049 -1.0501 -1.0037
# 25 vertices

vn -0.0874 0.9951 0.0471
vn -0.7039 0.418 0.5743
vn 0.5594 0.5804 0.5918
vn 0.6322 0.674 -0.3823
vn -0.7957 0.49 -0.356
vn -0.6694 0.446 -0.5942
vn -0.6694 0.446 0.5942
vn 0.402 0.7162 0.5705
vn 0.402 0.7162 -0.5705
vn 0.2391 -0.8087 0.5375
vn 0.239 -0.8087 -0.5375
vn -0.5601 -0.5914 -0.5801
vn -0.5602 -0.5914 0.5801
vn 0.6152 -0.5276 0.5858
vn -0.6804 -0.1365 0.72
vn -0.8345 -0.3522 -0.4237
vn 0.6282 -0.602 -0.4929
vn -0.6936 0.4454 -0.5662
vn -0.4274 -0.6642 -0.6133
vn -0.4531 -0.6867 0.5685
vn -0.7002 0.4441 0.559
vn -0.9285 0.3573 -0.1015
vn 0.2161 0.5485 -0.8077
vn 0.184 -0.3547 -0.9167
vn -0.1333 -0.5912 0.7954
# 25 vertex normals

vt 0.1250 1.0000 0.0000
vt 0.1250 0.8750 0.0000
vt 0.0000 0.8750 0.0000
vt 0.0000 0.0129 0.0000
vt 1.0000 0.0129 0.0000
vt 1.0000 0.5000 0.0000
vt 0.0000 0.5000 0.0000
vt 1.0000 0.9803 0.0000
vt 0.0000 0.9803 0.0000
vt 0.0707 0.0129 0.0000
vt 0.0707 0.5000 0.0000
vt 0.0707 0.9803 0.0000
vt 0.0000 1.0000 0.0000
# 13 texture coords

g Object007
usemtl Hand_Hand_png_Hand_png
f 1/1/1 2/2/2 3/3/3 
f 1/1/1 4/2/4 5/3/5 
f 1/1/1 3/2/3 4/3/4 
f 1/1/1 5/2/5 2/3/2 
f 6/4/6 7/5/7 8/5/8 
f 9/4/9 6/4/6 8/5/8 
f 8/5/8 10/6/10 11/7/11 
f 9/4/9 8/5/8 11/7/11 
f 6/4/6 12/7/12 13/6/13 
f 7/5/7 6/4/6 13/6/13 
f 6/4/6 11/7/11 12/7/12 
f 6/4/6 9/4/9 11/7/11 
f 7/5/7 13/6/13 10/6/10 
f 8/5/8 7/5/7 10/6/10 
f 13/6/13 14/8/14 15/8/15 
f 10/6/10 13/6/13 15/8/15 
f 12/7/12 16/9/16 17/9/17 
f 12/7/12 11/7/11 16/9/16 
f 12/7/12 17/9/17 14/8/14 
f 13/6/13 12/7/12 14/8/14 
f 10/6/10 15/8/15 16/9/16 
f 11/7/11 10/6/10 16/9/16 
f 18/4/18 19/10/19 20/10/20 
f 21/4/21 18/4/18 20/10/20 
f 18/4/18 22/7/22 23/7/23 
f 18/4/18 21/4/21 22/7/22 
f 19/10/19 24/11/24 25/11/25 
f 20/10/20 19/10/19 25/11/25 
f 19/10/19 23/7/23 24/11/24 
f 19/10/19 18/4/18 23/7/23 
f 20/10/20 25/11/25 22/7/22 
f 21/4/21 20/10/20 22/7/22 
f 25/11/25 16/12/16 5/9/5 
f 22/7/22 25/11/25 5/9/5 
f 23/7/23 4/9/4 17/12/17 
f 24/11/24 23/7/23 17/12/17 
f 24/11/24 17/12/17 16/12/16 
f 25/11/25 24/11/24 16/12/16 
f 23/7/23 5/9/5 4/9/4 
f 23/7/23 22/7/22 5/9/5 
f 15/13/15 3/2/3 2/3/2 
f 15/13/15 14/1/14 3/2/3 
f 4/1/4 3/2/3 14/3/14 
f 17/13/17 4/1/4 14/3/14 
f 15/2/15 2/3/2 5/13/5 
f 16/1/16 15/2/15 5/13/5 
# 46 faces

