# Blender v2.79 (sub 0) OBJ File: ''
# www.blender.org
mtllib CranePlatform.mtl
v 35.048584 3.234757 34.572052
v -34.951420 3.234792 34.572052
v -34.951435 -20.565203 -35.427948
v -34.951424 3.234792 -35.427948
v 35.048584 3.234757 -35.427948
v -33.551414 11.634797 33.172050
v 33.648586 11.634763 33.172050
v 33.648586 6.034762 33.172050
v -33.551418 6.034792 33.172050
v -33.551418 11.634797 -34.027946
v -33.551422 6.034792 -34.027946
v 33.648582 11.634763 -34.027946
v 33.648582 6.034762 -34.027946
v 42.048584 11.634754 -42.427956
v 42.048584 3.234756 -42.427956
v -41.951424 3.234797 -42.427948
v -41.951420 11.634798 -42.427948
v 42.048588 11.634754 41.572044
v 42.048588 3.234756 41.572044
v -41.951416 11.634798 41.572052
v -41.951420 3.234797 41.572052
v 35.048565 -6.278800 -35.427948
v -34.951431 -20.565205 34.572052
v 35.048569 -6.278800 34.572052
v 37.848614 11.354813 14.972036
v 37.848614 18.634762 14.972036
v 37.848614 18.634762 30.372036
v 41.558559 18.634754 34.082092
v 40.158512 18.634754 39.612045
v 34.558628 18.634764 41.082047
v 30.848629 18.634764 37.372047
v 8.448587 18.634775 37.372047
v 8.448578 11.354829 37.372047
v 7.258548 11.354830 38.772034
v 8.448578 11.354829 40.172050
v 8.448587 18.634775 40.172050
v 30.848629 18.634764 40.172050
v 34.558628 18.634764 43.602066
v 41.940434 18.634754 41.463982
v 44.078571 18.634754 34.082092
v 40.648563 18.634754 30.372036
v 40.648563 18.634754 14.972036
v 40.648563 11.354813 14.972036
v 39.248585 11.354813 13.572048
v 42.818562 20.034752 34.082092
v 41.049480 20.034752 40.573036
v 34.558628 20.034761 42.342049
v 30.848629 20.034761 38.772034
v 8.448587 20.034773 38.772034
v 7.258558 18.634775 38.772034
v 39.248585 18.634762 13.572048
v 39.248585 20.034760 30.372036
v 39.248585 20.034760 14.972036
v 35.888588 35.994762 35.412048
v 36.683147 11.634763 32.445984
v 36.975368 14.434762 31.355087
v 36.643906 34.734760 32.592461
v 33.717167 11.634763 33.240898
v 32.918537 14.434762 32.442383
v 33.824402 34.734760 33.348129
v 32.922619 11.634763 36.206970
v 31.831768 14.434762 36.499344
v 33.069099 34.734760 36.167709
v 35.094028 11.634763 38.378120
v 34.801807 14.434762 39.468994
v 35.133278 34.734760 38.231636
v 38.060001 11.634762 37.583183
v 38.858616 14.434761 38.381699
v 37.952766 34.734760 37.475952
v 38.854542 11.634762 34.617119
v 39.945408 14.434761 34.324738
v 38.708076 34.734760 34.656372
v 34.801807 24.234760 39.468994
v 38.858616 24.234760 38.381699
v 36.975368 24.234760 31.355087
v 32.918537 24.234762 32.442383
v 39.945408 24.234760 34.324738
v 31.831768 24.234762 36.499344
v 34.801807 22.834759 39.468994
v 38.858616 22.834759 38.381699
v 39.945408 22.834759 34.324738
v 31.831768 22.834761 36.499344
v 36.975368 22.834759 31.355087
v 32.918537 22.834761 32.442383
v 36.975372 32.634762 31.355087
v 32.918541 32.634762 32.442383
v 31.831772 32.634762 36.499344
v 34.801811 32.634762 39.468994
v 38.858620 32.634762 38.381699
v 39.945412 32.634762 34.324738
v 37.269672 21.445301 32.183578
v 37.269672 15.824388 32.183578
v 32.402012 21.445303 34.994347
v 32.402012 15.824388 34.994347
v 34.507458 21.445303 38.640518
v 34.507458 15.824388 38.640518
v 39.375134 21.445301 35.829750
v 39.375134 15.824387 35.829750
v 32.660095 31.245234 34.030952
v 32.660091 25.624331 34.030952
v 35.470856 31.245232 38.898613
v 35.470852 25.624329 38.898613
v 39.117027 31.245232 36.793159
v 39.117023 25.624329 36.793159
v 36.306282 31.245232 31.925489
v 36.306278 25.624329 31.925489
vt 0.000000 -1.000000
vt 0.000000 0.000000
vt 0.831373 -1.000000
vt 0.831373 0.000000
vt 1.000000 -1.000000
vt 1.000000 0.000000
vt 0.164706 -1.000000
vt 0.164706 0.000000
vt 0.474510 -1.000000
vt 0.474510 0.000000
vt -0.501961 0.000000
vt -0.501961 -1.000000
vt -1.505882 0.000000
vt -1.505882 -1.000000
vt -2.509804 0.000000
vt -2.509804 -1.000000
vt -3.513726 0.000000
vt -3.513726 -1.000000
vt -4.517647 0.000000
vt -4.517647 -1.000000
vt -5.521569 0.000000
vt -5.521569 -1.000000
vt 9.996078 9.000000
vt 9.996078 -0.996078
vt 0.000000 9.000000
vt 0.000000 -0.996078
vt 0.000000 -1.000000
vt 0.000000 0.000000
vt 0.831373 -1.000000
vt 0.831373 0.000000
vt 1.000000 -1.000000
vt 1.000000 0.000000
vt 0.164706 -1.000000
vt 0.164706 0.000000
vt 0.000000 -1.000000
vt 0.000000 0.000000
vt 1.000000 -1.000000
vt 1.000000 0.000000
vt 0.000000 -1.000000
vt 0.000000 0.000000
vt 1.000000 -1.000000
vt 1.000000 0.000000
vt 0.000000 -1.000000
vt 0.000000 0.000000
vt 1.000000 -1.000000
vt 1.000000 0.000000
vt 0.000000 -1.000000
vt 0.000000 0.000000
vt 1.000000 -1.000000
vt 1.000000 0.000000
vt 0.000000 -1.000000
vt 0.000000 0.000000
vt 1.000000 -1.000000
vt 1.000000 0.000000
vt 0.000000 -1.000000
vt 0.000000 0.000000
vt 1.000000 -1.000000
vt 1.000000 0.000000
vt 5.000000 -1.000000
vt 0.000000 -1.000000
vt 5.000000 0.000000
vt 0.000000 0.000000
vt 5.000000 -1.000000
vt 0.000000 -1.000000
vt 5.000000 0.000000
vt 0.000000 0.000000
vt 5.000000 -1.000000
vt 0.000000 -1.000000
vt 5.000000 0.000000
vt 0.000000 0.000000
vt 5.000000 -1.000000
vt 0.000000 -1.000000
vt 5.000000 0.000000
vt 0.000000 0.000000
vt 4.000000 -0.768628
vt 4.000000 -0.078431
vt 3.341177 -0.768628
vt 3.341177 -0.078431
vt 2.670588 -0.768628
vt 2.670588 -0.078431
vt 2.007843 -0.768628
vt 2.007843 -0.078431
vt 1.333333 -0.768628
vt 1.333333 -0.078431
vt 0.666667 -0.768628
vt 0.666667 -0.078431
vt 0.000000 -0.768628
vt 0.000000 -0.078431
vt 0.000000 -1.003922
vt 0.000000 8.980392
vt 0.996078 -1.000000
vt 0.996078 8.996078
vt 0.996078 8.996078
vt 0.996078 -1.000000
vt 0.000000 8.980392
vt 0.000000 -1.003922
vt 0.996078 8.996078
vt 0.996078 -1.000000
vt 0.000000 7.996078
vt 0.996078 8.996078
vt 0.996078 -1.000000
vt 0.000000 7.996078
vt 0.996078 -1.000000
vt 0.000000 -1.003922
vt 0.996078 8.996078
vt 0.000000 8.980392
vt 0.000000 8.980392
vt 0.996078 8.996078
vt 0.000000 -1.003922
vt 0.996078 -1.000000
vt 0.996078 -0.474510
vt 0.372549 -0.474510
vt 0.372549 0.501961
vt 0.996078 0.501961
vt 0.372549 1.505882
vt 0.996078 1.505882
vt 0.372549 2.509804
vt 0.996078 2.509804
vt 0.372549 3.513726
vt 0.996078 3.513726
vt 0.372549 4.517647
vt 0.996078 4.517647
vt 0.372549 5.521569
vt 0.996078 5.521569
vt 0.000000 5.521569
vt 0.000000 -0.474510
vt 4.000000 0.031373
vt 4.000000 0.721569
vt 3.341177 0.031373
vt 3.341177 0.721569
vt 2.670588 0.031373
vt 2.670588 0.721569
vt 2.007843 0.031373
vt 2.007843 0.721569
vt 1.333333 0.031373
vt 1.333333 0.721569
vt 0.666667 0.031373
vt 0.666667 0.721569
vt 0.000000 0.031373
vt 0.000000 0.721569
vt 0.439216 -0.160784
vt 0.952941 -0.160784
vt 0.439216 0.000000
vt 0.313726 -0.160784
vt 0.313726 0.000000
vt 0.070588 -0.160784
vt 0.098039 0.000000
vt 0.000000 -0.160784
vt 0.039216 0.000000
vt 0.113725 -0.160784
vt 0.160784 0.000000
vt 0.113725 -0.160784
vt 0.952941 0.000000
vt 0.203922 -0.996078
vt 0.160784 -0.996078
vt 0.160784 -0.160784
vt 0.203922 -0.160784
vt 0.160784 0.000000
vt 0.203922 -0.160784
vt 0.082353 -0.160784
vt 0.129412 -0.160784
vt 0.313726 -0.160784
vt 0.439216 -0.160784
vt 0.952941 -0.160784
vt 1.000000 -0.160784
vt 0.952941 -0.996078
vt 1.000000 -0.996078
vt 0.952941 -0.996078
vt 0.113725 -0.996078
vt 10.000000 -1.000000
vt 0.831373 -0.164706
vt 0.000000 -1.000000
vt 0.831373 8.164706
vt 0.000000 8.996078
vt 9.164706 8.164706
vt 10.000000 8.996078
vt 9.164706 -0.164706
vt 9.164706 -0.164706
vt 9.164706 8.164706
vt 0.831373 -0.164706
vt 0.831373 8.164706
vt 9.996078 -0.996078
vt 0.000000 2.560784
vt 9.996078 4.996078
vt 0.000000 4.996078
vt 0.000000 4.996078
vt 9.996078 4.996078
vt 0.000000 -1.000000
vt 9.996078 -0.996078
vt 0.000000 2.560784
vt 0.000000 4.996078
vt 9.996078 4.996078
vt 9.996078 2.596078
vt 0.000000 2.596078
vn -0.8660 0.0000 0.5001
vn 0.8660 -0.0000 -0.5001
vn 0.2400 -0.3741 -0.8958
vn 0.2545 -0.1801 -0.9502
vn 0.9501 -0.1801 -0.2546
vn 0.8958 -0.3741 -0.2401
vn 0.6956 -0.1801 0.6955
vn 0.6558 -0.3741 0.6557
vn -0.2545 -0.1801 0.9502
vn -0.2400 -0.3741 0.8958
vn -0.9501 -0.1801 0.2547
vn -0.8958 -0.3741 0.2401
vn -0.6956 -0.1801 -0.6955
vn -0.6558 -0.3741 -0.6557
vn 0.0000 1.0000 -0.0000
vn -0.5001 0.0000 -0.8660
vn 0.5001 0.0000 0.8660
vn -0.9659 0.0000 0.2589
vn -0.2588 -0.0000 0.9659
vn -0.7072 0.0000 -0.7071
vn 0.2588 0.0000 -0.9659
vn 0.9659 -0.0000 -0.2589
vn 0.7072 -0.0000 0.7071
vn 0.0000 0.0000 -1.0000
vn 1.0000 -0.0000 -0.0000
vn 0.0000 0.0000 1.0000
vn -1.0000 0.0000 0.0000
vn 0.2505 0.2504 -0.9352
vn 0.1825 0.7088 -0.6814
vn 0.6814 0.7088 -0.1826
vn 0.9351 0.2504 -0.2506
vn 0.4989 0.7088 0.4988
vn 0.6846 0.2504 0.6845
vn -0.1825 0.7088 0.6814
vn -0.2505 0.2504 0.9352
vn -0.6814 0.7088 0.1826
vn -0.9351 0.2504 0.2506
vn -0.4989 0.7088 -0.4988
vn -0.6846 0.2504 -0.6845
vn 0.6689 0.6688 -0.3244
vn 0.7588 0.4606 -0.4606
vn 0.6908 0.6843 -0.2336
vn 0.7314 0.6656 -0.1487
vn 0.7243 0.6472 -0.2378
vn 0.5261 0.6724 0.5207
vn 0.5287 0.6716 0.5190
vn -0.1500 0.6578 0.7381
vn -0.2326 0.6542 0.7196
vn -0.3350 0.6629 0.6696
vn -0.2365 0.6870 0.6870
vn -0.5046 0.4546 0.7340
vn -0.0000 0.9431 -0.3324
vn -0.7619 0.0000 -0.6477
vn -0.9520 0.3060 -0.0000
vn -0.5046 0.4546 -0.7340
vn -0.3610 0.9326 -0.0000
vn 0.2418 0.6861 -0.6861
vn 0.3456 0.6603 -0.6668
vn 0.2475 0.6516 -0.7170
vn 0.1591 0.6584 -0.7357
vn -0.5277 0.6842 -0.5034
vn -0.5136 0.6868 -0.5143
vn -0.7212 0.6438 0.2556
vn -0.7302 0.6643 0.1597
vn -0.6898 0.6834 0.2390
vn -0.6662 0.6662 0.3353
vn -0.7588 0.4606 -0.4606
vn -0.0000 0.3324 -0.9431
vn 0.7071 0.0000 -0.7071
vn -0.7071 0.0000 -0.7071
vn -0.7619 0.0000 0.6477
vn -0.0000 -1.0000 -0.0000
vn 0.2000 -0.9798 -0.0000
usemtl object_02271A20_material_5
s 1
f 102/1/1 101/2/1 100/3/1
f 100/3/1 101/2/1 99/4/1
f 106/5/2 105/6/2 104/7/2
f 104/7/2 105/6/2 103/8/2
usemtl object_02271A20_material_95
f 55/9/3 56/10/4 71/11/5
f 55/9/3 71/11/5 70/12/6
f 70/12/6 71/11/5 68/13/7
f 70/12/6 68/13/7 67/14/8
f 67/14/8 68/13/7 65/15/9
f 67/14/8 65/15/9 64/16/10
f 64/16/10 65/15/9 62/17/11
f 64/16/10 62/17/11 61/18/12
f 61/18/12 62/17/11 59/19/13
f 61/18/12 59/19/13 58/20/14
f 58/20/14 59/19/13 56/21/4
f 58/20/14 56/21/4 55/22/3
usemtl object_02271A20_material_76
f 13/23/15 11/24/15 8/25/15
f 8/25/15 11/24/15 9/26/15
usemtl object_02271A20_material_4
f 94/27/16 93/28/16 92/29/16
f 92/29/16 93/28/16 91/30/16
f 98/31/17 97/32/17 96/33/17
f 96/33/17 97/32/17 95/34/17
usemtl object_02271A20_material_79
f 78/35/18 82/36/18 73/37/19
f 73/37/19 82/36/18 79/38/19
f 76/39/20 84/40/20 78/41/18
f 78/41/18 84/40/20 82/42/18
f 75/43/21 83/44/21 76/45/20
f 76/45/20 83/44/21 84/46/20
f 77/47/22 81/48/22 75/49/21
f 75/49/21 81/48/22 83/50/21
f 74/51/23 80/52/23 77/53/22
f 77/53/22 80/52/23 81/54/22
f 73/55/19 79/56/19 74/57/23
f 74/57/23 79/56/19 80/58/23
usemtl object_02271A20_material_46
f 8/59/24 9/60/24 7/61/24
f 7/61/24 9/60/24 6/62/24
f 9/63/25 11/64/25 6/65/25
f 6/65/25 11/64/25 10/66/25
f 11/67/26 13/68/26 10/69/26
f 10/69/26 13/68/26 12/70/26
f 13/71/27 8/72/27 12/73/27
f 12/73/27 8/72/27 7/74/27
usemtl object_02271A20_material_82
f 56/75/4 83/76/21 71/77/5
f 71/77/5 83/76/21 81/78/22
f 71/77/5 81/78/22 68/79/7
f 68/79/7 81/78/22 80/80/23
f 68/79/7 80/80/23 65/81/9
f 65/81/9 80/80/23 79/82/19
f 65/81/9 79/82/19 62/83/11
f 62/83/11 79/82/19 82/84/18
f 62/83/11 82/84/18 59/85/13
f 59/85/13 82/84/18 84/86/20
f 59/85/13 84/86/20 56/87/4
f 56/87/4 84/86/20 83/88/21
usemtl object_02271A20_material_80
f 18/89/26 20/90/26 19/91/26
f 19/91/26 20/90/26 21/92/26
f 16/93/27 21/94/27 17/95/27
f 17/95/27 21/94/27 20/96/27
f 20/97/15 10/66/15 17/98/15
f 17/98/15 10/66/15 12/99/15
f 17/98/15 12/99/15 14/100/15
f 14/100/15 12/99/15 7/74/15
f 14/100/15 7/74/15 18/101/15
f 18/101/15 7/74/15 6/102/15
f 18/101/15 6/102/15 20/97/15
f 20/97/15 6/102/15 10/66/15
f 16/103/24 17/104/24 15/105/24
f 15/105/24 17/104/24 14/106/24
f 18/107/25 19/108/25 14/109/25
f 14/109/25 19/108/25 15/110/25
f 85/111/28 57/112/29 72/113/30
f 85/111/28 72/113/30 90/114/31
f 90/114/31 72/113/30 69/115/32
f 90/114/31 69/115/32 89/116/33
f 89/116/33 69/115/32 66/117/34
f 89/116/33 66/117/34 88/118/35
f 88/118/35 66/117/34 63/119/36
f 88/118/35 63/119/36 87/120/37
f 87/120/37 63/119/36 60/121/38
f 87/120/37 60/121/38 86/122/39
f 86/122/39 60/121/38 57/123/29
f 86/122/39 57/123/29 85/124/28
f 57/123/29 60/121/38 54/125/15
f 54/125/15 60/121/38 63/119/36
f 63/119/36 66/117/34 54/126/15
f 66/117/34 69/115/32 54/126/15
f 54/126/15 69/115/32 72/113/30
f 54/126/15 72/113/30 57/112/29
usemtl object_02271A20_material_81
f 75/127/21 85/128/28 77/129/22
f 77/129/22 85/128/28 90/130/31
f 77/129/22 90/130/31 74/131/23
f 74/131/23 90/130/31 89/132/33
f 74/131/23 89/132/33 73/133/19
f 73/133/19 89/132/33 88/134/35
f 73/133/19 88/134/35 78/135/18
f 78/135/18 88/134/35 87/136/37
f 78/135/18 87/136/37 76/137/20
f 76/137/20 87/136/37 86/138/39
f 76/137/20 86/138/39 75/139/21
f 75/139/21 86/138/39 85/140/28
usemtl object_02271A20_material_65
f 41/141/40 42/142/41 52/143/42
f 41/141/40 52/143/42 40/144/43
f 40/144/43 52/143/42 45/145/44
f 40/144/43 45/145/44 39/146/45
f 39/146/45 45/145/44 46/147/46
f 39/146/45 46/147/46 38/148/47
f 38/148/47 46/147/46 47/149/48
f 38/148/47 47/149/48 37/150/49
f 37/150/49 47/149/48 48/151/50
f 37/150/49 48/151/50 36/152/51
f 42/142/41 53/153/52 52/143/42
f 33/154/53 34/155/53 50/156/54
f 33/154/53 50/156/54 32/157/55
f 32/157/55 50/156/54 49/158/56
f 32/157/55 49/158/56 31/159/57
f 31/159/57 49/158/56 48/151/58
f 31/159/57 48/151/58 30/160/59
f 30/160/59 48/151/58 47/149/60
f 30/160/59 47/149/60 29/161/61
f 29/161/61 47/149/60 46/147/62
f 29/161/61 46/147/62 28/162/63
f 28/162/63 46/147/62 45/145/64
f 28/162/63 45/145/64 27/163/65
f 27/163/65 45/145/64 52/143/66
f 27/163/65 52/143/66 26/164/67
f 26/164/67 52/143/66 53/153/52
f 26/164/67 53/153/52 51/165/68
f 51/165/68 53/153/52 42/142/41
f 51/165/68 42/142/41 43/166/69
f 51/165/68 43/166/69 44/167/69
f 51/165/68 44/167/70 26/164/67
f 26/164/67 44/167/70 25/168/70
f 50/156/54 34/155/71 36/152/51
f 50/156/54 36/152/51 49/158/56
f 49/158/56 36/152/51 48/151/50
f 34/155/71 35/169/71 36/152/51
usemtl object_02271A20_material_77
f 16/170/72 2/171/72 21/172/72
f 21/172/72 2/171/72 1/173/72
f 21/172/72 1/173/72 19/174/72
f 19/174/72 1/173/72 5/175/72
f 19/174/72 5/175/72 15/176/72
f 15/176/72 5/175/72 4/177/72
f 15/176/72 4/177/72 16/170/72
f 16/170/72 4/177/72 2/171/72
f 3/178/73 22/179/73 23/180/73
f 23/180/73 22/179/73 24/181/73
f 23/182/26 24/183/26 2/184/26
f 2/184/26 24/183/26 1/185/26
f 2/186/27 4/187/27 23/188/27
f 3/189/27 23/188/27 4/187/27
f 3/189/24 4/187/24 22/190/24
f 22/190/24 4/187/24 5/191/24
f 5/192/25 1/185/25 22/193/25
f 22/193/25 1/185/25 24/194/25
