# Blender v2.79 (sub 0) OBJ File: ''
# www.blender.org
mtllib CranePlatform.mtl
v -35.000000 23.799986 77.000008
v -35.000000 23.799997 7.000004
v 35.000000 0.000004 7.000000
v 35.000000 23.799997 7.000004
v 35.000000 23.799986 77.000008
v -33.599998 32.200001 8.400005
v -33.599998 32.199989 75.600006
v -33.599998 26.599989 75.600006
v -33.599998 26.599998 8.400004
v 33.599998 32.200001 8.400005
v 33.599998 26.599998 8.400004
v 33.599998 32.199989 75.600006
v 33.599998 26.599989 75.600006
v 42.000000 32.199986 84.000008
v 42.000000 23.799986 84.000008
v 42.000000 23.799999 0.000004
v 42.000000 32.200001 0.000005
v -42.000000 32.199986 84.000008
v -42.000000 23.799986 84.000008
v -42.000000 32.200001 0.000005
v -42.000000 23.799999 0.000004
v 35.000000 14.286427 77.000000
v -35.000000 0.000002 7.000000
v -35.000000 14.286427 77.000000
v -15.399986 31.920042 79.800034
v -15.399986 39.199989 79.800034
v -30.799986 39.199989 79.800034
v -34.510040 39.199986 83.509979
v -40.040001 39.199986 82.109932
v -41.509998 39.199989 76.510048
v -37.799999 39.199989 72.800049
v -37.799999 39.199993 50.400005
v -37.799999 31.920048 50.400002
v -39.199986 31.920048 49.209972
v -40.599998 31.920048 50.400002
v -40.599998 39.199993 50.400005
v -40.599998 39.199989 72.800049
v -44.030014 39.199989 76.510048
v -41.891933 39.199986 83.891853
v -34.510040 39.199986 86.029991
v -30.799986 39.199986 82.599983
v -15.399986 39.199986 82.599983
v -15.399986 31.920042 82.599983
v -13.999998 31.920042 81.200005
v -34.510040 40.599983 84.769981
v -41.000988 40.599983 83.000900
v -42.769997 40.599987 76.510048
v -39.199986 40.599987 72.800049
v -39.199986 40.599991 50.400005
v -39.199986 39.199993 49.209976
v -13.999998 39.199989 81.200005
v -30.799986 40.599987 81.200005
v -15.399986 40.599987 81.200005
v -35.840000 56.559990 77.840004
v -32.873932 32.199989 78.634567
v -31.783037 34.999989 78.926788
v -33.020412 55.299988 78.595322
v -33.668850 32.199989 75.668587
v -32.870331 34.999989 74.869957
v -33.776077 55.299988 75.775818
v -36.634922 32.199989 74.874039
v -36.927296 34.999989 73.783188
v -36.595661 55.299988 75.020515
v -38.806068 32.199989 77.045448
v -39.896946 34.999989 76.753227
v -38.659588 55.299988 77.084694
v -38.011135 32.199989 80.011421
v -38.809650 34.999989 80.810036
v -37.903908 55.299988 79.904182
v -35.045067 32.199989 80.805962
v -34.752689 34.999989 81.896828
v -35.084320 55.299988 80.659492
v -39.896946 44.799988 76.753227
v -38.809650 44.799988 80.810036
v -31.783037 44.799988 78.926788
v -32.870331 44.799988 74.869957
v -34.752689 44.799988 81.896828
v -36.927296 44.799988 73.783188
v -39.896946 43.399986 76.753227
v -38.809650 43.399986 80.810036
v -34.752689 43.399986 81.896828
v -36.927296 43.399986 73.783188
v -31.783037 43.399986 78.926788
v -32.870331 43.399986 74.869957
v -31.783037 53.199989 78.926788
v -32.870331 53.199989 74.869957
v -36.927296 53.199989 73.783188
v -39.896946 53.199989 76.753227
v -38.809650 53.199989 80.810036
v -34.752689 53.199989 81.896828
v -32.611526 42.010529 79.221092
v -32.611526 36.389614 79.221092
v -35.422295 42.010529 74.353432
v -35.422295 36.389614 74.353432
v -39.068470 42.010529 76.458878
v -39.068470 36.389614 76.458878
v -36.257702 42.010529 81.326553
v -36.257702 36.389614 81.326553
v -34.458900 51.810459 74.611511
v -34.458900 46.189556 74.611511
v -39.326561 51.810459 77.422272
v -39.326561 46.189556 77.422272
v -37.221111 51.810459 81.068443
v -37.221111 46.189556 81.068443
v -32.353439 51.810459 78.257698
v -32.353439 46.189556 78.257698
vt 0.439216 -0.160784
vt 0.952941 -0.160784
vt 0.439216 0.000000
vt 0.313726 -0.160784
vt 0.313726 0.000000
vt 0.070588 -0.160784
vt 0.098039 0.000000
vt 0.000000 -0.160784
vt 0.039216 0.000000
vt 0.113725 -0.160784
vt 0.160784 0.000000
vt 0.113725 -0.160784
vt 0.952941 0.000000
vt 0.203922 -0.996078
vt 0.160784 -0.996078
vt 0.160784 -0.160784
vt 0.203922 -0.160784
vt 0.160784 0.000000
vt 0.203922 -0.160784
vt 0.082353 -0.160784
vt 0.129412 -0.160784
vt 0.313726 -0.160784
vt 0.439216 -0.160784
vt 0.952941 -0.160784
vt 1.000000 -0.160784
vt 0.952941 -0.996078
vt 1.000000 -0.996078
vt 0.952941 -0.996078
vt 0.113725 -0.996078
vt 4.000000 0.031373
vt 4.000000 0.721569
vt 3.341177 0.031373
vt 3.341177 0.721569
vt 2.670588 0.031373
vt 2.670588 0.721569
vt 2.007843 0.031373
vt 2.007843 0.721569
vt 1.333333 0.031373
vt 1.333333 0.721569
vt 0.666667 0.031373
vt 0.666667 0.721569
vt 0.000000 0.031373
vt 0.000000 0.721569
vt 0.000000 -1.000000
vt 0.000000 0.000000
vt 0.831373 -1.000000
vt 0.831373 0.000000
vt 1.000000 -1.000000
vt 1.000000 0.000000
vt 0.164706 -1.000000
vt 0.164706 0.000000
vt 0.000000 -1.003922
vt 0.000000 8.980392
vt 0.996078 -1.000000
vt 0.996078 8.996078
vt 0.996078 8.996078
vt 0.996078 -1.000000
vt 0.000000 8.980392
vt 0.000000 -1.003922
vt 0.996078 8.996078
vt 0.000000 0.000000
vt 0.996078 -1.000000
vt 0.000000 7.996078
vt 0.996078 8.996078
vt 0.000000 0.000000
vt 0.996078 -1.000000
vt 0.000000 7.996078
vt 0.996078 -1.000000
vt 0.000000 -1.003922
vt 0.996078 8.996078
vt 0.000000 8.980392
vt 0.000000 8.980392
vt 0.996078 8.996078
vt 0.000000 -1.003922
vt 0.996078 -1.000000
vt 0.996078 -0.474510
vt 0.372549 -0.474510
vt 0.372549 0.501961
vt 0.996078 0.501961
vt 0.372549 1.505882
vt 0.996078 1.505882
vt 0.372549 2.509804
vt 0.996078 2.509804
vt 0.372549 3.513726
vt 0.996078 3.513726
vt 0.372549 4.517647
vt 0.996078 4.517647
vt 0.372549 5.521569
vt 0.996078 5.521569
vt 0.000000 5.521569
vt 0.000000 -0.474510
vt 4.000000 -0.768628
vt 4.000000 -0.078431
vt 3.341177 -0.768628
vt 3.341177 -0.078431
vt 2.670588 -0.768628
vt 2.670588 -0.078431
vt 2.007843 -0.768628
vt 2.007843 -0.078431
vt 1.333333 -0.768628
vt 1.333333 -0.078431
vt 0.666667 -0.768628
vt 0.666667 -0.078431
vt 0.000000 -0.768628
vt 0.000000 -0.078431
vt 5.000000 -1.000000
vt 0.000000 -1.000000
vt 5.000000 0.000000
vt 0.000000 0.000000
vt 5.000000 -1.000000
vt 0.000000 -1.000000
vt 5.000000 0.000000
vt 5.000000 -1.000000
vt 0.000000 -1.000000
vt 5.000000 0.000000
vt 0.000000 0.000000
vt 5.000000 -1.000000
vt 0.000000 -1.000000
vt 5.000000 0.000000
vt 10.000000 -1.000000
vt 0.831373 -0.164706
vt 0.000000 -1.000000
vt 0.831373 8.164706
vt 0.000000 8.996078
vt 9.164706 8.164706
vt 10.000000 8.996078
vt 9.164706 -0.164706
vt 9.164706 -0.164706
vt 9.164706 8.164706
vt 0.831373 -0.164706
vt 0.831373 8.164706
vt 9.996078 -0.996078
vt 0.000000 2.560784
vt 9.996078 4.996078
vt 0.000000 4.996078
vt 0.000000 4.996078
vt 9.996078 4.996078
vt 0.000000 -1.000000
vt 9.996078 -0.996078
vt 0.000000 2.560784
vt 0.000000 4.996078
vt 9.996078 4.996078
vt 9.996078 2.596078
vt 0.000000 2.596078
vt 9.996078 9.000000
vt 9.996078 -0.996078
vt 0.000000 9.000000
vt 0.000000 -0.996078
vt 0.474510 -1.000000
vt 0.474510 0.000000
vt -0.501961 0.000000
vt -0.501961 -1.000000
vt -1.505882 0.000000
vt -1.505882 -1.000000
vt -2.509804 0.000000
vt -2.509804 -1.000000
vt -3.513726 0.000000
vt -3.513726 -1.000000
vt -4.517647 0.000000
vt -4.517647 -1.000000
vt -5.521569 0.000000
vt -5.521569 -1.000000
vt 0.000000 -1.000000
vt 0.000000 0.000000
vt 0.831373 -1.000000
vt 0.831373 0.000000
vt 1.000000 -1.000000
vt 1.000000 0.000000
vt 0.164706 -1.000000
vt 0.164706 0.000000
vt 0.000000 -1.000000
vt 0.000000 0.000000
vt 1.000000 -1.000000
vt 1.000000 0.000000
vt 0.000000 -1.000000
vt 0.000000 0.000000
vt 1.000000 -1.000000
vt 1.000000 0.000000
vt 0.000000 -1.000000
vt 0.000000 0.000000
vt 1.000000 -1.000000
vt 1.000000 0.000000
vt 0.000000 -1.000000
vt 0.000000 0.000000
vt 1.000000 -1.000000
vt 1.000000 0.000000
vt 0.000000 -1.000000
vt 0.000000 0.000000
vt 1.000000 -1.000000
vt 1.000000 0.000000
vt 0.000000 -1.000000
vt 0.000000 0.000000
vt 1.000000 -1.000000
vt 1.000000 0.000000
vn 0.3244 0.6689 0.6689
vn 0.4606 0.4606 0.7588
vn 0.2336 0.6843 0.6908
vn 0.1487 0.6656 0.7314
vn 0.2378 0.6472 0.7243
vn -0.5207 0.6724 0.5261
vn -0.5190 0.6716 0.5287
vn -0.7381 0.6578 -0.1500
vn -0.7196 0.6542 -0.2326
vn -0.6696 0.6629 -0.3350
vn -0.6870 0.6870 -0.2365
vn -0.7340 0.4546 -0.5046
vn 0.3324 0.9431 -0.0000
vn 0.6477 0.0000 -0.7619
vn 0.0000 0.3060 -0.9520
vn 0.7340 0.4546 -0.5046
vn 0.0000 0.9326 -0.3610
vn 0.6861 0.6861 0.2418
vn 0.6668 0.6603 0.3456
vn 0.7170 0.6516 0.2475
vn 0.7357 0.6584 0.1591
vn 0.5034 0.6842 -0.5277
vn 0.5143 0.6868 -0.5136
vn -0.2556 0.6438 -0.7212
vn -0.1597 0.6643 -0.7302
vn -0.2390 0.6834 -0.6898
vn -0.3353 0.6662 -0.6662
vn 0.4606 0.4606 -0.7588
vn 0.9431 0.3324 0.0000
vn 0.7071 0.0000 0.7071
vn 0.7071 0.0000 -0.7071
vn -0.6477 0.0000 -0.7619
vn 0.9659 0.0000 0.2588
vn 0.9352 0.2504 0.2505
vn 0.2589 0.0000 0.9659
vn 0.2506 0.2504 0.9351
vn -0.7071 0.0000 0.7072
vn -0.6845 0.2504 0.6846
vn -0.9659 0.0000 -0.2588
vn -0.9352 0.2504 -0.2505
vn -0.2589 0.0000 -0.9659
vn -0.2506 0.2504 -0.9351
vn 0.7071 0.0000 -0.7072
vn 0.6845 0.2504 -0.6846
vn 0.8660 0.0000 -0.5001
vn -0.8660 0.0000 0.5001
vn -1.0000 0.0000 0.0000
vn 0.0000 0.0000 -1.0000
vn -0.0000 1.0000 0.0000
vn 1.0000 0.0000 0.0000
vn 0.0000 0.0000 1.0000
vn 0.6814 0.7088 0.1825
vn 0.1826 0.7088 0.6814
vn -0.4988 0.7088 0.4989
vn -0.6814 0.7088 -0.1825
vn -0.1826 0.7088 -0.6814
vn 0.4988 0.7088 -0.4989
vn 0.9502 -0.1801 0.2545
vn 0.2546 -0.1801 0.9501
vn -0.6955 -0.1801 0.6956
vn -0.9502 -0.1801 -0.2545
vn -0.2547 -0.1801 -0.9501
vn 0.6955 -0.1801 -0.6956
vn 0.0000 -1.0000 -0.0000
vn 0.0000 -0.9798 0.2000
vn 0.8958 -0.3741 0.2400
vn 0.2401 -0.3741 0.8958
vn -0.6557 -0.3741 0.6558
vn -0.8958 -0.3741 -0.2400
vn -0.2401 -0.3741 -0.8958
vn 0.6557 -0.3741 -0.6558
vn -0.5001 0.0000 -0.8660
vn 0.5001 0.0000 0.8660
usemtl object_02271A20_material_65
s 1
f 41/1/1 42/2/2 52/3/3
f 41/1/1 52/3/3 40/4/4
f 40/4/4 52/3/3 45/5/5
f 40/4/4 45/5/5 39/6/6
f 39/6/6 45/5/5 46/7/7
f 39/6/6 46/7/7 38/8/8
f 38/8/8 46/7/7 47/9/9
f 38/8/8 47/9/9 37/10/10
f 37/10/10 47/9/9 48/11/11
f 37/10/10 48/11/11 36/12/12
f 42/2/2 53/13/13 52/3/3
f 33/14/14 34/15/14 50/16/15
f 33/14/14 50/16/15 32/17/16
f 32/17/16 50/16/15 49/18/17
f 32/17/16 49/18/17 31/19/18
f 31/19/18 49/18/17 48/11/19
f 31/19/18 48/11/19 30/20/20
f 30/20/20 48/11/19 47/9/21
f 30/20/20 47/9/21 29/21/22
f 29/21/22 47/9/21 46/7/23
f 29/21/22 46/7/23 28/22/24
f 28/22/24 46/7/23 45/5/25
f 28/22/24 45/5/25 27/23/26
f 27/23/26 45/5/25 52/3/27
f 27/23/26 52/3/27 26/24/28
f 26/24/28 52/3/27 53/13/13
f 26/24/28 53/13/13 51/25/29
f 51/25/29 53/13/13 42/2/2
f 51/25/29 42/2/2 43/26/30
f 51/25/29 43/26/30 44/27/30
f 51/25/29 44/27/31 26/24/28
f 26/24/28 44/27/31 25/28/31
f 50/16/15 34/15/32 36/12/12
f 50/16/15 36/12/12 49/18/17
f 49/18/17 36/12/12 48/11/11
f 34/15/32 35/29/32 36/12/12
usemtl object_02271A20_material_81
f 75/30/33 85/31/34 77/32/35
f 77/32/35 85/31/34 90/33/36
f 77/32/35 90/33/36 74/34/37
f 74/34/37 90/33/36 89/35/38
f 74/34/37 89/35/38 73/36/39
f 73/36/39 89/35/38 88/37/40
f 73/36/39 88/37/40 78/38/41
f 78/38/41 88/37/40 87/39/42
f 78/38/41 87/39/42 76/40/43
f 76/40/43 87/39/42 86/41/44
f 76/40/43 86/41/44 75/42/33
f 75/42/33 86/41/44 85/43/34
usemtl object_02271A20_material_4
f 94/44/45 93/45/45 92/46/45
f 92/46/45 93/45/45 91/47/45
f 98/48/46 97/49/46 96/50/46
f 96/50/46 97/49/46 95/51/46
usemtl object_02271A20_material_80
f 18/52/47 20/53/47 19/54/47
f 19/54/47 20/53/47 21/55/47
f 16/56/48 21/57/48 17/58/48
f 17/58/48 21/57/48 20/59/48
f 20/60/49 10/61/49 17/62/49
f 17/62/49 10/61/49 12/63/49
f 17/62/49 12/63/49 14/64/49
f 14/64/49 12/63/49 7/65/49
f 14/64/49 7/65/49 18/66/49
f 18/66/49 7/65/49 6/67/49
f 18/66/49 6/67/49 20/60/49
f 20/60/49 6/67/49 10/61/49
f 16/68/50 17/69/50 15/70/50
f 15/70/50 17/69/50 14/71/50
f 18/72/51 19/73/51 14/74/51
f 14/74/51 19/73/51 15/75/51
f 85/76/34 57/77/52 72/78/53
f 85/76/34 72/78/53 90/79/36
f 90/79/36 72/78/53 69/80/54
f 90/79/36 69/80/54 89/81/38
f 89/81/38 69/80/54 66/82/55
f 89/81/38 66/82/55 88/83/40
f 88/83/40 66/82/55 63/84/56
f 88/83/40 63/84/56 87/85/42
f 87/85/42 63/84/56 60/86/57
f 87/85/42 60/86/57 86/87/44
f 86/87/44 60/86/57 57/88/52
f 86/87/44 57/88/52 85/89/34
f 57/88/52 60/86/57 54/90/49
f 54/90/49 60/86/57 63/84/56
f 63/84/56 66/82/55 54/91/49
f 66/82/55 69/80/54 54/91/49
f 54/91/49 69/80/54 72/78/53
f 54/91/49 72/78/53 57/77/52
usemtl object_02271A20_material_82
f 56/92/58 83/93/33 71/94/59
f 71/94/59 83/93/33 81/95/35
f 71/94/59 81/95/35 68/96/60
f 68/96/60 81/95/35 80/97/37
f 68/96/60 80/97/37 65/98/61
f 65/98/61 80/97/37 79/99/39
f 65/98/61 79/99/39 62/100/62
f 62/100/62 79/99/39 82/101/41
f 62/100/62 82/101/41 59/102/63
f 59/102/63 82/101/41 84/103/43
f 59/102/63 84/103/43 56/104/58
f 56/104/58 84/103/43 83/105/33
usemtl object_02271A20_material_46
f 8/106/50 9/107/50 7/108/50
f 7/108/50 9/107/50 6/109/50
f 9/110/51 11/111/51 6/112/51
f 6/112/51 11/111/51 10/61/51
f 11/113/47 13/114/47 10/115/47
f 10/115/47 13/114/47 12/116/47
f 13/117/48 8/118/48 12/119/48
f 12/119/48 8/118/48 7/65/48
usemtl object_02271A20_material_77
f 16/120/64 2/121/64 21/122/64
f 21/122/64 2/121/64 1/123/64
f 21/122/64 1/123/64 19/124/64
f 19/124/64 1/123/64 5/125/64
f 19/124/64 5/125/64 15/126/64
f 15/126/64 5/125/64 4/127/64
f 15/126/64 4/127/64 16/120/64
f 16/120/64 4/127/64 2/121/64
f 3/128/65 22/129/65 23/130/65
f 23/130/65 22/129/65 24/131/65
f 23/132/47 24/133/47 2/134/47
f 2/134/47 24/133/47 1/135/47
f 2/136/48 4/137/48 23/138/48
f 3/139/48 23/138/48 4/137/48
f 3/139/50 4/137/50 22/140/50
f 22/140/50 4/137/50 5/141/50
f 5/142/51 1/135/51 22/143/51
f 22/143/51 1/135/51 24/144/51
usemtl object_02271A20_material_76
f 13/145/49 11/146/49 8/147/49
f 8/147/49 11/146/49 9/148/49
usemtl object_02271A20_material_95
f 55/149/66 56/150/58 71/151/59
f 55/149/66 71/151/59 70/152/67
f 70/152/67 71/151/59 68/153/60
f 70/152/67 68/153/60 67/154/68
f 67/154/68 68/153/60 65/155/61
f 67/154/68 65/155/61 64/156/69
f 64/156/69 65/155/61 62/157/62
f 64/156/69 62/157/62 61/158/70
f 61/158/70 62/157/62 59/159/63
f 61/158/70 59/159/63 58/160/71
f 58/160/71 59/159/63 56/161/58
f 58/160/71 56/161/58 55/162/66
usemtl object_02271A20_material_5
f 102/163/72 101/164/72 100/165/72
f 100/165/72 101/164/72 99/166/72
f 106/167/73 105/168/73 104/169/73
f 104/169/73 105/168/73 103/170/73
usemtl object_02271A20_material_79
f 78/171/41 82/172/41 73/173/39
f 73/173/39 82/172/41 79/174/39
f 76/175/43 84/176/43 78/177/41
f 78/177/41 84/176/43 82/178/41
f 75/179/33 83/180/33 76/181/43
f 76/181/43 83/180/33 84/182/43
f 77/183/35 81/184/35 75/185/33
f 75/185/33 81/184/35 83/186/33
f 74/187/37 80/188/37 77/189/35
f 77/189/35 80/188/37 81/190/35
f 73/191/39 79/192/39 74/193/37
f 74/193/37 79/192/39 80/194/37
