# Blender v2.79 (sub 0) OBJ File: 'CranePlatform.obj'
# www.blender.org
mtllib CranePlatform1.mtl
v -29.658377 3.234764 41.338089
v -29.658377 3.234787 -28.661919
v 40.341625 -20.565207 -28.661926
v 40.341625 3.234787 -28.661919
v 40.341625 3.234764 41.338089
v -28.258375 11.634792 -27.261915
v -28.258375 11.634769 39.938087
v -28.258375 6.034769 39.938087
v -28.258375 6.034788 -27.261917
v 38.941624 11.634792 -27.261915
v 38.941624 6.034788 -27.261917
v 38.941624 11.634769 39.938087
v 38.941624 6.034769 39.938087
v 47.341625 11.634762 48.338089
v 47.341625 3.234764 48.338089
v 47.341625 3.234791 -35.661919
v 47.341625 11.634792 -35.661915
v -36.658375 11.634762 48.338089
v -36.658375 3.234764 48.338089
v -36.658375 11.634792 -35.661915
v -36.658375 3.234791 -35.661919
v 40.341625 -6.278794 41.338074
v -29.658377 -20.565208 -28.661926
v -29.658377 -6.278794 41.338074
v -10.058363 11.354820 44.138115
v -10.058363 18.634769 44.138115
v -25.458363 18.634769 44.138115
v -29.168417 18.634762 47.848061
v -34.698376 18.634762 46.448013
v -36.168373 18.634769 40.848129
v -32.458374 18.634769 37.138130
v -32.458374 18.634777 14.738087
v -32.458374 11.354832 14.738079
v -33.858360 11.354832 13.548050
v -35.258373 11.354832 14.738079
v -35.258373 18.634777 14.738087
v -35.258373 18.634769 37.138130
v -38.688389 18.634769 40.848129
v -36.550308 18.634762 48.229935
v -29.168417 18.634762 50.368073
v -25.458363 18.634762 46.938065
v -10.058363 18.634762 46.938065
v -10.058363 11.354820 46.938065
v -8.658375 11.354820 45.538086
v -29.168417 20.034760 49.108063
v -35.659363 20.034760 47.338982
v -37.428371 20.034767 40.848129
v -33.858360 20.034767 37.138130
v -33.858360 20.034775 14.738087
v -33.858360 18.634777 13.548058
v -8.658375 18.634769 45.538086
v -25.458363 20.034767 45.538086
v -10.058363 20.034767 45.538086
v -30.498377 35.994770 42.178085
v -27.532309 11.634769 42.972649
v -26.441414 14.434769 43.264870
v -27.678789 34.734768 42.933403
v -28.327227 11.634769 40.006668
v -27.528708 14.434769 39.208038
v -28.434454 34.734768 40.113899
v -31.293299 11.634769 39.212120
v -31.585672 14.434769 38.121269
v -31.254038 34.734768 39.358597
v -33.464443 11.634769 41.383530
v -34.555321 14.434769 41.091309
v -33.317963 34.734768 41.422775
v -32.669510 11.634769 44.349503
v -33.468025 14.434769 45.148117
v -32.562283 34.734768 44.242264
v -29.703444 11.634769 45.144043
v -29.411066 14.434769 46.234909
v -29.742697 34.734768 44.997574
v -34.555321 24.234768 41.091309
v -33.468025 24.234768 45.148117
v -26.441414 24.234768 43.264870
v -27.528708 24.234768 39.208038
v -29.411066 24.234768 46.234909
v -31.585672 24.234768 38.121269
v -34.555321 22.834766 41.091309
v -33.468025 22.834766 45.148117
v -29.411066 22.834766 46.234909
v -31.585672 22.834766 38.121269
v -26.441414 22.834766 43.264870
v -27.528708 22.834766 39.208038
v -26.441414 32.634769 43.264870
v -27.528708 32.634769 39.208038
v -31.585672 32.634769 38.121269
v -34.555321 32.634769 41.091309
v -33.468025 32.634769 45.148117
v -29.411066 32.634769 46.234909
v -27.269903 21.445309 43.559174
v -27.269903 15.824394 43.559174
v -30.080671 21.445309 38.691513
v -30.080671 15.824394 38.691513
v -33.726845 21.445309 40.796959
v -33.726845 15.824394 40.796959
v -30.916079 21.445309 45.664635
v -30.916079 15.824394 45.664635
v -29.117277 31.245239 38.949593
v -29.117277 25.624336 38.949593
v -33.984936 31.245239 41.760353
v -33.984936 25.624336 41.760353
v -31.879488 31.245239 45.406525
v -31.879488 25.624336 45.406525
v -27.011816 31.245239 42.595779
v -27.011816 25.624336 42.595779
vt 0.000000 -1.000000
vt 0.000000 0.000000
vt 1.000000 -1.000000
vt 1.000000 0.000000
vt 0.000000 -1.000000
vt 0.000000 0.000000
vt 1.000000 -1.000000
vt 1.000000 0.000000
vt 0.000000 -1.000000
vt 0.000000 0.000000
vt 1.000000 -1.000000
vt 1.000000 0.000000
vt 0.000000 -1.000000
vt 0.000000 0.000000
vt 1.000000 -1.000000
vt 1.000000 0.000000
vt 0.000000 -1.000000
vt 0.000000 0.000000
vt 1.000000 -1.000000
vt 1.000000 0.000000
vt 0.000000 -1.000000
vt 0.000000 0.000000
vt 1.000000 -1.000000
vt 1.000000 0.000000
vt 0.474510 -1.000000
vt 0.474510 0.000000
vt -0.501961 0.000000
vt -0.501961 -1.000000
vt -1.505882 0.000000
vt -1.505882 -1.000000
vt -2.509804 0.000000
vt -2.509804 -1.000000
vt -3.513726 0.000000
vt -3.513726 -1.000000
vt -4.517647 0.000000
vt -4.517647 -1.000000
vt -5.521569 0.000000
vt -5.521569 -1.000000
vt 10.000000 -1.000000
vt 0.831373 -0.164706
vt 0.000000 -1.000000
vt 0.831373 8.164706
vt 0.000000 8.996078
vt 9.164706 8.164706
vt 10.000000 8.996078
vt 9.164706 -0.164706
vt 9.164706 -0.164706
vt 9.164706 8.164706
vt 0.831373 -0.164706
vt 0.831373 8.164706
vt 9.996078 -0.996078
vt 0.000000 2.560784
vt 9.996078 4.996078
vt 0.000000 4.996078
vt 0.000000 4.996078
vt 9.996078 4.996078
vt 0.000000 -1.000000
vt 9.996078 -0.996078
vt 0.000000 2.560784
vt 0.000000 4.996078
vt 9.996078 4.996078
vt 9.996078 2.596078
vt 0.000000 2.596078
vt 0.000000 -1.003922
vt 0.000000 8.980392
vt 0.996078 -1.000000
vt 0.996078 8.996078
vt 0.996078 8.996078
vt 0.996078 -1.000000
vt 0.000000 8.980392
vt 0.000000 -1.003922
vt 0.996078 8.996078
vt 0.000000 0.000000
vt 0.996078 -1.000000
vt 0.000000 7.996078
vt 0.996078 8.996078
vt 0.000000 0.000000
vt 0.996078 -1.000000
vt 0.000000 7.996078
vt 0.996078 -1.000000
vt 0.000000 -1.003922
vt 0.996078 8.996078
vt 0.000000 8.980392
vt 0.000000 8.980392
vt 0.996078 8.996078
vt 0.000000 -1.003922
vt 0.996078 -1.000000
vt 0.996078 -0.474510
vt 0.372549 -0.474510
vt 0.372549 0.501961
vt 0.996078 0.501961
vt 0.372549 1.505882
vt 0.996078 1.505882
vt 0.372549 2.509804
vt 0.996078 2.509804
vt 0.372549 3.513726
vt 0.996078 3.513726
vt 0.372549 4.517647
vt 0.996078 4.517647
vt 0.372549 5.521569
vt 0.996078 5.521569
vt 0.000000 5.521569
vt 0.000000 -0.474510
vt 0.000000 -1.000000
vt 0.000000 0.000000
vt 0.831373 -1.000000
vt 0.831373 0.000000
vt 1.000000 -1.000000
vt 1.000000 0.000000
vt 0.164706 -1.000000
vt 0.164706 0.000000
vt 0.000000 -1.000000
vt 0.000000 0.000000
vt 0.831373 -1.000000
vt 0.831373 0.000000
vt 1.000000 -1.000000
vt 1.000000 0.000000
vt 0.164706 -1.000000
vt 0.164706 0.000000
vt 4.000000 0.031373
vt 4.000000 0.721569
vt 3.341177 0.031373
vt 3.341177 0.721569
vt 2.670588 0.031373
vt 2.670588 0.721569
vt 2.007843 0.031373
vt 2.007843 0.721569
vt 1.333333 0.031373
vt 1.333333 0.721569
vt 0.666667 0.031373
vt 0.666667 0.721569
vt 0.000000 0.031373
vt 0.000000 0.721569
vt 0.439216 -0.160784
vt 0.952941 -0.160784
vt 0.439216 0.000000
vt 0.313726 -0.160784
vt 0.313726 0.000000
vt 0.070588 -0.160784
vt 0.098039 0.000000
vt 0.000000 -0.160784
vt 0.039216 0.000000
vt 0.113725 -0.160784
vt 0.160784 0.000000
vt 0.113725 -0.160784
vt 0.952941 0.000000
vt 0.203922 -0.996078
vt 0.160784 -0.996078
vt 0.160784 -0.160784
vt 0.203922 -0.160784
vt 0.160784 0.000000
vt 0.203922 -0.160784
vt 0.082353 -0.160784
vt 0.129412 -0.160784
vt 0.313726 -0.160784
vt 0.439216 -0.160784
vt 0.952941 -0.160784
vt 1.000000 -0.160784
vt 0.952941 -0.996078
vt 1.000000 -0.996078
vt 0.952941 -0.996078
vt 0.113725 -0.996078
vt 4.000000 -0.768628
vt 4.000000 -0.078431
vt 3.341177 -0.768628
vt 3.341177 -0.078431
vt 2.670588 -0.768628
vt 2.670588 -0.078431
vt 2.007843 -0.768628
vt 2.007843 -0.078431
vt 1.333333 -0.768628
vt 1.333333 -0.078431
vt 0.666667 -0.768628
vt 0.666667 -0.078431
vt 0.000000 -0.768628
vt 0.000000 -0.078431
vt 9.996078 9.000000
vt 9.996078 -0.996078
vt 0.000000 9.000000
vt 0.000000 -0.996078
vt 5.000000 -1.000000
vt 0.000000 -1.000000
vt 5.000000 0.000000
vt 0.000000 0.000000
vt 5.000000 -1.000000
vt 0.000000 -1.000000
vt 5.000000 0.000000
vt 5.000000 -1.000000
vt 0.000000 -1.000000
vt 5.000000 0.000000
vt 0.000000 0.000000
vt 5.000000 -1.000000
vt 0.000000 -1.000000
vt 5.000000 0.000000
vn -0.2589 0.0000 -0.9659
vn -0.9659 0.0000 -0.2588
vn 0.7071 0.0000 -0.7072
vn 0.9659 0.0000 0.2588
vn 0.2589 0.0000 0.9659
vn -0.7071 0.0000 0.7072
vn 0.8958 -0.3741 0.2400
vn 0.9502 -0.1801 0.2545
vn 0.2546 -0.1801 0.9501
vn 0.2401 -0.3741 0.8958
vn -0.6955 -0.1801 0.6956
vn -0.6557 -0.3741 0.6558
vn -0.9502 -0.1801 -0.2545
vn -0.8958 -0.3741 -0.2400
vn -0.2547 -0.1801 -0.9501
vn -0.2401 -0.3741 -0.8958
vn 0.6955 -0.1801 -0.6956
vn 0.6557 -0.3741 -0.6558
vn 0.0000 -1.0000 -0.0000
vn 0.0000 -0.9798 0.2000
vn -1.0000 0.0000 0.0000
vn 0.0000 0.0000 -1.0000
vn 1.0000 0.0000 0.0000
vn 0.0000 -0.0000 1.0000
vn -0.0000 1.0000 0.0000
vn 0.9352 0.2504 0.2505
vn 0.6814 0.7088 0.1825
vn 0.1826 0.7088 0.6814
vn 0.2506 0.2504 0.9351
vn -0.4988 0.7088 0.4989
vn -0.6845 0.2504 0.6846
vn -0.6814 0.7088 -0.1825
vn -0.9352 0.2504 -0.2505
vn -0.1826 0.7088 -0.6814
vn -0.2506 0.2504 -0.9351
vn 0.4988 0.7088 -0.4989
vn 0.6845 0.2504 -0.6846
vn 0.8660 0.0000 -0.5001
vn -0.8660 0.0000 0.5001
vn -0.5001 0.0000 -0.8660
vn 0.5001 0.0000 0.8660
vn 0.3244 0.6688 0.6689
vn 0.4606 0.4606 0.7588
vn 0.2336 0.6843 0.6908
vn 0.1487 0.6656 0.7314
vn 0.2378 0.6472 0.7243
vn -0.5207 0.6724 0.5261
vn -0.5190 0.6716 0.5287
vn -0.7381 0.6578 -0.1500
vn -0.7196 0.6542 -0.2326
vn -0.6696 0.6629 -0.3350
vn -0.6870 0.6870 -0.2365
vn -0.7340 0.4546 -0.5046
vn 0.3324 0.9431 -0.0000
vn 0.6477 0.0000 -0.7619
vn 0.0000 0.3060 -0.9520
vn 0.7340 0.4546 -0.5046
vn 0.0000 0.9326 -0.3610
vn 0.6861 0.6861 0.2418
vn 0.6668 0.6603 0.3456
vn 0.7170 0.6516 0.2475
vn 0.7357 0.6584 0.1591
vn 0.5034 0.6842 -0.5277
vn 0.5143 0.6868 -0.5136
vn -0.2556 0.6438 -0.7212
vn -0.1597 0.6643 -0.7302
vn -0.2390 0.6834 -0.6898
vn -0.3353 0.6662 -0.6662
vn 0.4606 0.4606 -0.7588
vn 0.9431 0.3324 -0.0000
vn 0.7071 0.0000 0.7071
vn 0.7071 0.0000 -0.7071
vn -0.6477 0.0000 -0.7619
usemtl object_02271A20_material_79
s 1
f 78/1/1 82/2/1 73/3/2
f 73/3/2 82/2/1 79/4/2
f 76/5/3 84/6/3 78/7/1
f 78/7/1 84/6/3 82/8/1
f 75/9/4 83/10/4 76/11/3
f 76/11/3 83/10/4 84/12/3
f 77/13/5 81/14/5 75/15/4
f 75/15/4 81/14/5 83/16/4
f 74/17/6 80/18/6 77/19/5
f 77/19/5 80/18/6 81/20/5
f 73/21/2 79/22/2 74/23/6
f 74/23/6 79/22/2 80/24/6
usemtl object_02271A20_material_95
f 55/25/7 56/26/8 71/27/9
f 55/25/7 71/27/9 70/28/10
f 70/28/10 71/27/9 68/29/11
f 70/28/10 68/29/11 67/30/12
f 67/30/12 68/29/11 65/31/13
f 67/30/12 65/31/13 64/32/14
f 64/32/14 65/31/13 62/33/15
f 64/32/14 62/33/15 61/34/16
f 61/34/16 62/33/15 59/35/17
f 61/34/16 59/35/17 58/36/18
f 58/36/18 59/35/17 56/37/8
f 58/36/18 56/37/8 55/38/7
usemtl object_02271A20_material_77
f 16/39/19 2/40/19 21/41/19
f 21/41/19 2/40/19 1/42/19
f 21/41/19 1/42/19 19/43/19
f 19/43/19 1/42/19 5/44/19
f 19/43/19 5/44/19 15/45/19
f 15/45/19 5/44/19 4/46/19
f 15/45/19 4/46/19 16/39/19
f 16/39/19 4/46/19 2/40/19
f 3/47/20 22/48/20 23/49/20
f 23/49/20 22/48/20 24/50/20
f 23/51/21 24/52/21 2/53/21
f 2/53/21 24/52/21 1/54/21
f 2/55/22 4/56/22 23/57/22
f 3/58/22 23/57/22 4/56/22
f 3/58/23 4/56/23 22/59/23
f 22/59/23 4/56/23 5/60/23
f 5/61/24 1/54/24 22/62/24
f 22/62/24 1/54/24 24/63/24
usemtl object_02271A20_material_80
f 18/64/21 20/65/21 19/66/21
f 19/66/21 20/65/21 21/67/21
f 16/68/22 21/69/22 17/70/22
f 17/70/22 21/69/22 20/71/22
f 20/72/25 10/73/25 17/74/25
f 17/74/25 10/73/25 12/75/25
f 17/74/25 12/75/25 14/76/25
f 14/76/25 12/75/25 7/77/25
f 14/76/25 7/77/25 18/78/25
f 18/78/25 7/77/25 6/79/25
f 18/78/25 6/79/25 20/72/25
f 20/72/25 6/79/25 10/73/25
f 16/80/23 17/81/23 15/82/23
f 15/82/23 17/81/23 14/83/23
f 18/84/24 19/85/24 14/86/24
f 14/86/24 19/85/24 15/87/24
f 85/88/26 57/89/27 72/90/28
f 85/88/26 72/90/28 90/91/29
f 90/91/29 72/90/28 69/92/30
f 90/91/29 69/92/30 89/93/31
f 89/93/31 69/92/30 66/94/32
f 89/93/31 66/94/32 88/95/33
f 88/95/33 66/94/32 63/96/34
f 88/95/33 63/96/34 87/97/35
f 87/97/35 63/96/34 60/98/36
f 87/97/35 60/98/36 86/99/37
f 86/99/37 60/98/36 57/100/27
f 86/99/37 57/100/27 85/101/26
f 57/100/27 60/98/36 54/102/25
f 54/102/25 60/98/36 63/96/34
f 63/96/34 66/94/32 54/103/25
f 66/94/32 69/92/30 54/103/25
f 54/103/25 69/92/30 72/90/28
f 54/103/25 72/90/28 57/89/27
usemtl object_02271A20_material_4
f 94/104/38 93/105/38 92/106/38
f 92/106/38 93/105/38 91/107/38
f 98/108/39 97/109/39 96/110/39
f 96/110/39 97/109/39 95/111/39
usemtl object_02271A20_material_5
f 102/112/40 101/113/40 100/114/40
f 100/114/40 101/113/40 99/115/40
f 106/116/41 105/117/41 104/118/41
f 104/118/41 105/117/41 103/119/41
usemtl object_02271A20_material_81
f 75/120/4 85/121/26 77/122/5
f 77/122/5 85/121/26 90/123/29
f 77/122/5 90/123/29 74/124/6
f 74/124/6 90/123/29 89/125/31
f 74/124/6 89/125/31 73/126/2
f 73/126/2 89/125/31 88/127/33
f 73/126/2 88/127/33 78/128/1
f 78/128/1 88/127/33 87/129/35
f 78/128/1 87/129/35 76/130/3
f 76/130/3 87/129/35 86/131/37
f 76/130/3 86/131/37 75/132/4
f 75/132/4 86/131/37 85/133/26
usemtl object_02271A20_material_65
f 41/134/42 42/135/43 52/136/44
f 41/134/42 52/136/44 40/137/45
f 40/137/45 52/136/44 45/138/46
f 40/137/45 45/138/46 39/139/47
f 39/139/47 45/138/46 46/140/48
f 39/139/47 46/140/48 38/141/49
f 38/141/49 46/140/48 47/142/50
f 38/141/49 47/142/50 37/143/51
f 37/143/51 47/142/50 48/144/52
f 37/143/51 48/144/52 36/145/53
f 42/135/43 53/146/54 52/136/44
f 33/147/55 34/148/55 50/149/56
f 33/147/55 50/149/56 32/150/57
f 32/150/57 50/149/56 49/151/58
f 32/150/57 49/151/58 31/152/59
f 31/152/59 49/151/58 48/144/60
f 31/152/59 48/144/60 30/153/61
f 30/153/61 48/144/60 47/142/62
f 30/153/61 47/142/62 29/154/63
f 29/154/63 47/142/62 46/140/64
f 29/154/63 46/140/64 28/155/65
f 28/155/65 46/140/64 45/138/66
f 28/155/65 45/138/66 27/156/67
f 27/156/67 45/138/66 52/136/68
f 27/156/67 52/136/68 26/157/69
f 26/157/69 52/136/68 53/146/54
f 26/157/69 53/146/54 51/158/70
f 51/158/70 53/146/54 42/135/43
f 51/158/70 42/135/43 43/159/71
f 51/158/70 43/159/71 44/160/71
f 51/158/70 44/160/72 26/157/69
f 26/157/69 44/160/72 25/161/72
f 50/149/56 34/148/73 36/145/53
f 50/149/56 36/145/53 49/151/58
f 49/151/58 36/145/53 48/144/52
f 34/148/73 35/162/73 36/145/53
usemtl object_02271A20_material_82
f 56/163/8 83/164/4 71/165/9
f 71/165/9 83/164/4 81/166/5
f 71/165/9 81/166/5 68/167/11
f 68/167/11 81/166/5 80/168/6
f 68/167/11 80/168/6 65/169/13
f 65/169/13 80/168/6 79/170/2
f 65/169/13 79/170/2 62/171/15
f 62/171/15 79/170/2 82/172/1
f 62/171/15 82/172/1 59/173/17
f 59/173/17 82/172/1 84/174/3
f 59/173/17 84/174/3 56/175/8
f 56/175/8 84/174/3 83/176/4
usemtl object_02271A20_material_76
f 13/177/25 11/178/25 8/179/25
f 8/179/25 11/178/25 9/180/25
usemtl object_02271A20_material_46
f 8/181/23 9/182/23 7/183/23
f 7/183/23 9/182/23 6/184/23
f 9/185/24 11/186/24 6/187/24
f 6/187/24 11/186/24 10/73/24
f 11/188/21 13/189/21 10/190/21
f 10/190/21 13/189/21 12/191/21
f 13/192/22 8/193/22 12/194/22
f 12/194/22 8/193/22 7/77/22
