# Blender v2.79 (sub 0) OBJ File: ''
# www.blender.org
mtllib ElevatorPlatform.mtl
v -80.935257 -11433.630859 -38675.976562
v -32.054523 4.552605 -24.859316
v -31.951006 4.568889 25.456297
v -32.054523 -4.577895 -24.787992
v -31.951006 -4.561615 25.527609
v 32.212753 4.552572 -24.985966
v 32.212746 -4.577935 -24.914625
v 32.316261 4.568848 25.329662
v 32.316257 -4.561642 25.400978
v 25.798958 3.413299 -18.674931
v -25.614853 3.413321 -18.573620
v -25.537222 3.425537 19.163094
v 25.876600 3.425501 19.061802
v 10.226583 1.476049 25.397362
vt 0.000000 0.000000
vt 5.000000 1.000000
vt 0.000000 1.000000
vt 5.000000 0.000000
vt 0.000000 0.000000
vt 7.000000 1.000000
vt 0.000000 1.000000
vt 7.000000 0.000000
vt 0.000000 0.000000
vt 5.000000 1.000000
vt 0.000000 1.000000
vt 5.000000 0.000000
vt 0.000000 0.000000
vt 7.000000 1.000000
vt 0.000000 1.000000
vt 7.000000 0.000000
vt 6.000000 0.000000
vt 0.000000 5.000000
vt 0.000000 0.000000
vt 6.000000 5.000000
vt 0.211910 0.178430
vt 0.788090 0.248470
vt 0.789260 0.178570
vt 0.210740 0.248330
vt 0.221710 0.771280
vt 0.537000 0.998080
vt 0.220580 0.838810
vt 0.462850 0.998070
vt 0.779420 0.771420
vt 0.463000 0.989090
vt 0.778290 0.838940
vt 0.537150 0.989110
vn -1.0000 0.0000 0.0021
vn -0.0020 -0.0078 -1.0000
vn 1.0000 -0.0000 -0.0021
vn 0.0020 0.0078 1.0000
vn -0.0000 1.0000 -0.0003
vn 0.0000 -1.0000 0.0003
vn -0.1749 0.9846 0.0000
vn 0.0004 0.9840 0.1780
vn 0.1749 0.9846 -0.0007
vn -0.0004 0.9838 -0.1791
usemtl material_424
f 4/1/1 3/2/1 2/3/1
f 4/1/1 5/4/1 3/2/1
f 7/5/2 2/6/2 6/7/2
f 7/5/2 4/8/2 2/6/2
f 9/9/3 6/10/3 8/11/3
f 9/9/3 7/12/3 6/10/3
f 5/13/4 8/14/4 3/15/4
f 5/13/4 9/16/4 8/14/4
usemtl material_399
f 11/17/5 13/18/5 10/19/5
f 11/17/5 12/20/5 13/18/5
usemtl material_605
f 7/21/6 5/22/6 4/23/6
f 7/21/6 9/24/6 5/22/6
f 6/25/7 10/26/7 8/27/7
f 6/25/8 11/28/8 10/26/8
f 2/29/8 11/28/8 6/25/8
f 2/29/9 12/30/9 11/28/9
f 3/31/9 12/30/9 2/29/9
f 3/31/10 13/32/10 12/30/10
f 8/27/10 13/32/10 3/31/10
f 8/27/7 10/26/7 13/32/7
