# Blender v2.79 (sub 0) OBJ File: ''
# www.blender.org
mtllib Lamppost.mtl
v 1.400001 45.299969 1.500014
v -1.299996 45.299969 1.530014
v 1.400001 0.000004 1.500000
v -1.289998 0.000004 1.510000
v 1.400001 45.299969 -1.499985
v 1.400001 0.000004 -1.500000
v -1.300000 45.299969 -1.499986
v -1.299998 0.000004 -1.500000
v 16.599991 55.099998 0.900018
v 5.500002 53.499981 0.900018
v 5.500002 53.499981 -0.899982
v 16.599991 55.099998 -0.899982
v 4.600000 54.699989 0.000018
v 16.099991 56.399990 0.000018
v 0.200001 51.699989 0.000016
v 1.000001 50.199982 -0.899984
v -0.800002 50.199982 -0.899984
v 1.000001 50.199982 0.900016
v -0.800002 50.199982 0.900016
v 19.599991 55.500000 2.400018
v 19.599991 54.299992 0.000018
v 17.099991 54.399990 0.000018
v 19.599991 55.500000 -2.399982
v 24.299990 56.000000 -1.399982
v 21.799990 54.799999 0.000018
v 24.299990 56.000000 1.400018
v 19.599991 57.700001 0.000018
v 21.799990 57.500000 0.000018
v 22.660040 55.802010 -4.416710
v 17.637489 54.916618 4.416746
v 32.299580 25.312544 -11.691333
v 19.004589 22.968845 11.691348
v 17.637489 54.916618 -4.416710
v 22.660040 55.802010 4.416746
v 19.004580 22.968853 -11.691333
v 32.299580 25.312536 11.691348
v 25.171320 56.244709 0.000018
v 15.126210 54.473919 0.000019
v 38.947079 26.484381 0.000008
v 12.357090 21.797010 0.000009
vt 3.000000 -1.000000
vt 2.031373 -1.000000
vt 3.000000 4.000000
vt 2.031373 4.000000
vt 1.121569 -1.000000
vt 1.866667 -0.996078
vt 1.129412 3.964706
vt 1.866667 3.972549
vt 0.000000 -1.000000
vt 0.960784 -1.000000
vt 0.000000 4.000000
vt 0.964706 4.000000
vt 1.121569 -1.000000
vt 1.866667 -0.996078
vt 1.129412 3.964706
vt 1.866667 3.972549
vt 1.000000 -0.996078
vt 0.000000 -0.992157
vt 0.992157 -0.003922
vt 0.000000 0.000000
vt 0.000000 -0.992157
vt 1.000000 -0.996078
vt 0.000000 0.000000
vt 0.992157 -0.003922
vt 0.000000 -0.992157
vt 1.000000 -0.996078
vt 0.992157 -0.003922
vt 1.000000 -0.996078
vt 0.003922 -0.498039
vt 0.992157 -0.003922
vt 0.321569 -0.129412
vt 0.670588 -0.129412
vt 0.000000 -0.921569
vt 0.996078 -0.921569
vt 0.321569 -0.129412
vt 0.670588 -0.129412
vt 0.000000 -0.921569
vt 0.996078 -0.921569
vt 0.321569 -0.129412
vt 0.670588 -0.129412
vt 0.000000 -0.921569
vt 0.996078 -0.921569
vt 1.866667 -0.003922
vt 1.098039 -0.003922
vt 1.874510 -0.996078
vt 1.098039 -0.996078
vt 1.000000 0.000000
vt 0.000000 0.000000
vt 0.960784 -1.000000
vt 0.000000 -1.000000
vt 3.000000 -1.000000
vt 2.031373 -1.000000
vt 3.000000 0.000000
vt 1.992157 0.000000
vt 0.960784 -1.000000
vt 1.000000 0.000000
vt 0.000000 0.000000
vt 0.388235 0.000000
vt 0.000000 -0.309804
vt 0.388235 -0.498039
vt 0.062745 -0.498039
vt 0.388235 -1.000000
vt 1.000000 -0.788235
vt 0.674510 -0.498039
vt 1.000000 -0.207843
vt 0.000000 -0.686275
vt 0.996078 -0.207843
vt 0.360784 -0.466667
vt 0.360784 -0.466667
vt 0.996078 -0.207843
vt 0.309804 -0.270588
vt 0.968628 0.000000
vt 0.054902 -0.756863
vt 0.101961 -0.996078
vt 0.000000 -0.996078
vt 0.101961 -0.996078
vt 0.000000 -0.996078
vn 0.7048 0.0705 0.7059
vn -0.6986 0.0779 0.7112
vn 0.7085 -0.0003 0.7057
vn -0.7047 -0.0003 0.7095
vn 0.7014 0.0696 -0.7094
vn 0.7071 0.0000 -0.7071
vn -0.7031 0.0759 -0.7070
vn -0.7083 0.0000 -0.7059
vn -0.0970 -0.1249 0.9874
vn -0.1489 0.9887 0.0155
vn -0.2997 -0.3560 0.8851
vn -0.3039 0.9519 0.0380
vn 0.1747 0.9846 0.0014
vn 0.8018 -0.0181 -0.5972
vn -0.0476 -0.1307 -0.9903
vn -0.3824 -0.4079 -0.8291
vn 0.8017 -0.0180 0.5974
vn 0.8529 0.1503 0.5000
vn 0.8529 0.1503 -0.5000
vn 0.0000 0.0000 1.0000
vn 0.4955 0.0510 -0.8671
vn 0.4936 0.0465 0.8684
vn -0.6576 0.3871 0.6463
vn -0.6577 0.3864 -0.6466
vn 0.0739 -0.9972 0.0104
vn -0.3521 -0.9350 0.0412
vn 0.2483 -0.9687 0.0000
vn 0.1674 -0.3293 0.9293
vn 0.1611 -0.3299 -0.9301
vn -0.3956 0.9184 -0.0034
vn -0.5166 0.8562 -0.0027
usemtl object_02288C64_material_48
s 1
f 1/1/1 2/2/2 3/3/3
f 3/3/3 2/2/2 4/4/4
f 5/5/5 1/6/1 6/7/6
f 6/7/6 1/6/1 3/8/3
f 7/9/7 5/10/5 8/11/8
f 8/11/8 5/10/5 6/12/6
f 8/13/8 4/14/4 7/15/7
f 7/15/7 4/14/4 2/16/2
f 20/17/9 27/18/10 9/19/11
f 9/19/11 27/18/10 14/20/12
f 28/21/13 24/22/14 27/23/10
f 27/23/10 24/22/14 23/24/15
f 27/23/10 23/24/15 14/25/12
f 14/25/12 23/24/15 12/26/16
f 27/23/10 20/27/9 28/21/13
f 28/21/13 20/27/9 26/28/17
f 28/29/13 26/30/17 24/22/14
usemtl object_02288C64_material_14
f 29/31/18 30/32/18 31/33/18
f 31/33/18 30/32/18 32/34/18
f 33/35/19 34/36/19 35/37/19
f 35/37/19 34/36/19 36/38/19
f 37/39/20 38/40/20 39/41/20
f 39/41/20 38/40/20 40/42/20
usemtl object_02288C64_material_49
f 16/43/21 18/44/22 5/45/5
f 5/45/5 18/44/22 1/46/1
f 18/47/22 19/48/23 1/49/1
f 1/49/1 19/48/23 2/50/2
f 5/51/5 7/52/7 16/53/21
f 16/53/21 7/52/7 17/54/24
f 2/55/2 19/56/23 7/9/7
f 7/9/7 19/56/23 17/57/24
usemtl object_02288C64_material_45
f 20/58/9 9/59/11 21/60/25
f 21/60/25 9/59/11 22/61/26
f 23/62/15 24/63/14 25/64/27
f 25/64/27 24/63/14 26/65/17
f 26/65/17 20/58/9 25/64/27
f 25/64/27 20/58/9 21/60/25
f 25/64/27 21/60/25 23/62/15
f 23/62/15 21/60/25 22/61/26
f 23/62/15 22/61/26 12/66/16
f 12/66/16 22/61/26 9/59/11
usemtl object_02288C64_material_0
f 9/67/11 10/68/28 11/69/29
f 9/67/11 11/69/29 12/70/16
f 12/70/16 11/69/29 13/71/30
f 12/70/16 13/71/30 14/72/12
f 14/72/12 13/71/30 10/68/28
f 14/72/12 10/68/28 9/67/11
f 10/68/28 13/71/30 15/73/31
f 15/73/31 13/71/30 16/74/21
f 15/73/31 16/74/21 17/75/24
f 13/71/30 11/69/29 16/74/21
f 16/74/21 11/69/29 10/68/28
f 16/74/21 10/68/28 18/76/22
f 18/76/22 10/68/28 15/73/31
f 18/76/22 15/73/31 19/77/23
f 19/77/23 15/73/31 17/75/24
