# Blender v2.79 (sub 0) OBJ File: ''
# www.blender.org
mtllib EmeraldPiece.mtl
v 0.000000 3.400000 0.000001
v 0.781000 -1.950000 -0.000000
v 1.480000 0.925000 0.000000
v 1.000000 2.350000 0.000000
v 1.046518 0.075000 -1.046518
v 0.707107 2.125000 -0.707107
v 0.000000 -1.950000 -0.781000
v 0.000000 0.925000 -1.479999
v 0.000000 2.350000 -1.000000
v -1.046518 0.075000 -1.046518
v -0.707107 2.125000 -0.707107
v -0.781000 -1.950000 -0.000000
v -1.479999 0.925000 0.000000
v -1.000000 2.350000 0.000000
v -1.046518 0.075000 1.046518
v -0.707107 2.125000 0.707107
v 0.000000 -1.950000 0.781000
v 0.000000 0.925000 1.479999
v 0.000000 2.350000 1.000000
v 1.046518 0.075000 1.046518
v 0.707107 2.125000 0.707107
v 0.000000 -3.400000 -0.000001
vt 0.585649 -0.784314
vt 0.499356 -1.000000
vt 0.615272 -0.486275
vt 0.499356 -0.784314
vt 0.610120 -0.152941
vt 0.577921 -0.184314
vt 0.499356 0.000000
vt 0.499356 -0.152941
vt 0.413063 -0.784314
vt 0.335785 -0.360784
vt 0.383440 -0.486275
vt 0.388592 -0.152941
vt 0.420791 -0.184314
vt 0.499356 -0.360784
vt 0.664215 -0.360784
vt 0.615272 -0.486275
vt 0.499356 -0.784314
vt 0.383440 -0.486275
vt 0.499356 -0.360784
vt 0.420791 -0.184314
vt 0.499356 -0.152941
vt 0.577921 -0.184314
vn 0.7232 -0.3895 -0.5703
vn 0.5703 -0.3895 -0.7232
vn 0.6426 0.6120 -0.4609
vn 0.4609 0.6120 -0.6426
vn -0.9508 -0.2312 -0.2061
vn -0.8496 0.2862 -0.4430
vn -0.8234 0.2227 -0.5220
vn -0.5220 0.2227 -0.8234
vn 0.9508 -0.2312 -0.2061
vn 0.9508 -0.2312 0.2061
vn 0.7232 -0.3895 0.5703
vn 0.5703 -0.3895 0.7232
vn -0.5703 -0.3895 0.7232
vn -0.2061 -0.2312 0.9508
vn -0.5220 0.2227 0.8234
vn -0.4430 0.2862 0.8496
vn -0.4609 0.6120 0.6426
vn 0.4609 0.6120 0.6426
vn 0.6426 0.6120 0.4609
vn 0.8496 0.2862 0.4430
vn 0.8496 0.2862 -0.4430
vn 0.8234 0.2227 -0.5220
vn 0.5220 0.2227 -0.8234
vn 0.2061 -0.2312 -0.9508
vn -0.2061 -0.2312 -0.9508
vn -0.5703 -0.3895 -0.7232
vn -0.7232 -0.3895 -0.5703
vn -0.7232 -0.3895 0.5703
vn -0.9508 -0.2312 0.2061
vn -0.8234 0.2227 0.5220
vn -0.8496 0.2862 0.4430
vn -0.6426 0.6120 0.4609
vn -0.6426 0.6120 -0.4609
vn -0.4609 0.6120 -0.6426
vn -0.4430 0.2862 -0.8496
vn 0.4430 0.2862 -0.8496
vn 0.2061 -0.2312 0.9508
vn 0.4430 0.2862 0.8496
vn 0.5220 0.2227 0.8234
vn 0.8234 0.2227 0.5220
usemtl material_4BA30C
f 2/1/1 22/2/1 5/3/1
f 5/3/2 22/2/2 7/4/2
f 4/5/3 6/6/3 1/7/3
f 1/7/4 6/6/4 9/8/4
f 12/9/5 13/10/5 10/11/5
f 13/10/6 14/12/6 11/13/6
f 13/10/7 11/13/7 10/11/7
f 10/11/8 11/13/8 8/14/8
f 5/3/9 3/15/9 2/1/9
f 2/1/10 3/15/10 20/16/10
f 2/1/11 20/16/11 22/2/11
f 22/2/12 20/16/12 17/17/12
f 22/2/13 17/17/13 15/18/13
f 15/18/14 17/17/14 18/19/14
f 15/18/15 18/19/15 16/20/15
f 16/20/16 18/19/16 19/21/16
f 16/20/17 19/21/17 1/7/17
f 1/7/18 19/21/18 21/22/18
f 1/7/19 21/22/19 4/5/19
f 4/5/20 21/22/20 3/15/20
f 4/5/21 3/15/21 6/6/21
f 6/6/22 3/15/22 5/3/22
f 6/6/23 5/3/23 8/14/23
f 8/14/24 5/3/24 7/4/24
f 8/14/25 7/4/25 10/11/25
f 10/11/26 7/4/26 22/2/26
f 10/11/27 22/2/27 12/9/27
f 12/9/28 22/2/28 15/18/28
f 12/9/29 15/18/29 13/10/29
f 13/10/30 15/18/30 16/20/30
f 13/10/31 16/20/31 14/12/31
f 14/12/32 16/20/32 1/7/32
f 14/12/33 1/7/33 11/13/33
f 11/13/34 1/7/34 9/8/34
f 11/13/35 9/8/35 8/14/35
f 8/14/36 9/8/36 6/6/36
f 20/16/37 18/19/37 17/17/37
f 19/21/38 18/19/38 21/22/38
f 21/22/39 18/19/39 20/16/39
f 21/22/40 20/16/40 3/15/40
