# Blender v2.78 (sub 0) OBJ File: ''
# www.blender.org
mtllib Chunk7.mtl
v 4329.600098 32.327812 -11293.150391
v 4219.600098 65.327812 -11293.150391
v 4219.600098 32.327812 -11293.150391
v 4109.600098 65.327812 -11293.150391
v 4109.600098 32.327812 -11293.150391
v 4109.600098 32.327778 -11213.950195
v 4109.600098 65.327766 -11213.950195
v 4329.600098 65.327766 -11213.950195
v 4329.600098 32.327778 -11213.950195
v 4219.600098 32.327778 -11213.950195
v 3775.750000 43.327702 -11125.950195
v 3773.550049 57.627689 -11125.950195
v 3896.200195 32.327400 -10628.199219
v 3896.200195 120.327278 -10452.199219
v 3896.200195 32.327278 -10452.199219
v 3896.200195 -55.672600 -10628.199219
v 3896.200195 -55.672722 -10452.199219
v 3721.300049 32.327400 -10628.199219
v 3721.300049 120.327385 -10628.199219
v 3896.200195 120.327385 -10628.199219
v 3721.300049 -55.672600 -10628.199219
v 3721.300049 -55.672722 -10452.199219
v 3721.300049 32.327278 -10452.199219
v 3721.300049 120.327278 -10452.199219
v 4615.600098 112.627739 -11191.950195
v 4615.600098 98.327766 -11191.950195
v 4450.600098 112.627739 -11191.950195
v 4285.600098 112.627739 -11191.950195
v 4285.600098 112.627739 -11187.549805
v 4615.600098 98.327766 -11185.350586
v 3867.600098 57.627766 -11213.950195
v 3867.600098 43.327778 -11213.950195
v 3977.600098 57.627766 -11213.950195
v 4087.600098 57.627766 -11213.950195
v 4087.600098 43.327778 -11213.950195
v 4087.600098 57.627766 -11218.350586
v 3977.600098 57.627766 -11218.350586
v 3867.600098 43.327778 -11220.549805
v 4615.600098 112.627739 -11187.549805
v 4450.600098 98.327766 -11185.350586
v 4450.600098 112.627739 -11187.549805
v 4285.600098 98.327766 -11185.350586
v 4285.600098 112.627693 -11112.750000
v 4450.600098 112.627693 -11112.750000
v 4615.600098 112.627693 -11112.750000
v 4794.350098 32.327679 -11064.900391
v 4618.350098 120.327667 -11064.900391
v 4618.350098 32.327679 -11064.900391
v 4794.350098 -55.672321 -11064.900391
v 4618.350098 -55.672321 -11064.900391
v 4794.350098 32.327789 -11239.799805
v 4794.350098 120.327789 -11239.799805
v 4794.350098 120.327667 -11064.900391
v 4794.350098 -55.672211 -11239.799805
v 4618.350098 -55.672211 -11239.799805
v 4618.350098 32.327789 -11239.799805
v 4618.350098 120.327789 -11239.799805
v 4087.600098 57.627800 -11293.150391
v 4087.600098 43.327812 -11293.150391
v 3977.600098 57.627800 -11293.150391
v 3977.600098 43.327812 -11293.150391
v 3867.600098 57.627800 -11293.150391
v 3977.600098 57.627800 -11288.750000
v 4285.600098 98.327766 -11191.950195
v 4285.600098 65.327766 -11191.950195
v 4175.600098 98.327766 -11191.950195
v 4065.600098 98.327766 -11191.950195
v 4065.600098 65.327766 -11191.950195
v 4065.600098 65.327690 -11112.750000
v 4175.600098 98.327690 -11112.750000
v 4175.600098 65.327690 -11112.750000
v 4329.600098 79.627800 -11293.150391
v 4329.600098 65.327812 -11293.150391
v 4219.600098 79.627800 -11293.150391
v 4109.600098 79.627800 -11293.150391
v 4109.600098 65.327812 -11286.549805
v 4109.600098 79.627800 -11288.750000
v 4219.600098 79.627800 -11288.750000
v 4065.600098 98.327690 -11119.350586
v 4065.600098 112.627693 -11117.150391
v 4175.600098 98.327690 -11119.350586
v 4087.600098 43.327812 -11286.549805
v 4087.600098 57.627800 -11288.750000
v 3977.600098 43.327812 -11286.549805
v 3867.600098 43.327812 -11286.549805
v 3867.600098 57.627800 -11288.750000
v 4219.600098 79.627777 -11220.549805
v 4109.600098 79.627777 -11220.549805
v 4219.600098 79.627777 -11216.150391
v 4219.600098 65.327766 -11213.950195
v 4219.600098 65.327789 -11220.549805
v 4109.600098 65.327789 -11220.549805
v 4329.600098 65.327812 -11286.549805
v 4329.600098 79.627800 -11288.750000
v 4219.600098 65.327812 -11286.549805
v 4065.600098 79.627754 -11185.350586
v 4175.600098 79.627754 -11185.350586
v 4065.600098 79.627754 -11189.750000
v 4175.600098 79.627754 -11189.750000
v 4065.600098 65.327766 -11185.350586
v 4175.600098 65.327766 -11185.350586
v 4175.600098 65.327766 -11191.950195
v 4087.600098 10.327815 -11293.150391
v 3977.600098 10.327815 -11293.150391
v 3867.600098 43.327812 -11293.150391
v 3867.600098 10.327815 -11293.150391
v 3867.600098 10.327778 -11213.950195
v 3977.600098 43.327778 -11213.950195
v 4087.600098 10.327778 -11213.950195
v 3977.600098 10.327778 -11213.950195
v 3769.150146 10.327815 -11290.950195
v 3769.150146 43.327702 -11125.950195
v 3769.150146 10.327703 -11125.950195
v 3769.150146 43.327621 -10960.949219
v 3769.150146 10.327624 -10960.949219
v 3848.350098 10.327624 -10960.949219
v 3848.350098 43.327621 -10960.949219
v 3848.350098 43.327702 -11125.950195
v 3848.350098 43.327812 -11290.950195
v 3848.350098 10.327815 -11290.950195
v 3848.350098 10.327703 -11125.950195
v 3867.600098 57.627766 -11218.350586
v 3977.600098 43.327778 -11220.549805
v 4087.600098 43.327778 -11220.549805
v 4615.600098 65.327766 -11191.950195
v 4450.600098 98.327766 -11191.950195
v 4450.600098 65.327766 -11191.950195
v 4285.600098 65.327690 -11112.750000
v 4450.600098 98.327690 -11112.750000
v 4615.600098 98.327690 -11112.750000
v 4615.600098 65.327690 -11112.750000
v 4450.600098 65.327690 -11112.750000
v 3769.150146 57.627800 -11290.950195
v 3769.150146 43.327812 -11290.950195
v 3769.150146 57.627689 -11125.950195
v 3769.150146 57.627609 -10960.949219
v 3775.750000 43.327621 -10960.949219
v 3773.550049 57.627609 -10960.949219
v 3773.550049 57.627800 -11290.950195
v 3775.750000 43.327812 -11290.950195
v 4109.600098 79.627777 -11216.150391
v 4065.600098 112.627693 -11112.750000
v 4065.600098 98.327690 -11112.750000
v 4175.600098 112.627693 -11112.750000
v 4285.600098 98.327690 -11112.750000
v 4285.600098 112.627693 -11117.150391
v 4175.600098 112.627693 -11117.150391
v 4285.600098 98.327690 -11119.350586
v 4450.600098 98.327690 -11119.350586
v 4450.600098 112.627693 -11117.150391
v 4615.600098 98.327690 -11119.350586
v 4615.600098 112.627693 -11117.150391
vt 0.0000 0.0000
vt 1.0000 0.0000
vt 1.0000 1.0000
vt 0.0000 0.0000
vt 1.0000 1.0000
vt 1.0000 0.0000
vt 1.0000 1.0000
vt 0.0000 0.0000
vt 1.0000 1.0000
vt 0.0000 0.0000
vt 1.0000 0.0000
vt 1.0000 1.0000
vt 1.0000 0.0000
vt 1.0000 1.0000
vt 1.0000 0.0000
vt 1.0000 1.0000
vt 1.0000 1.0000
vt 1.0000 0.0000
vt 1.0000 1.0000
vt 0.0000 0.0000
vt 1.0000 1.0000
vt 0.0000 0.0000
vt 0.0000 0.0000
vt 1.0000 1.0000
vt 1.0000 0.0000
vt 0.0000 0.0000
vt 0.0000 0.0000
vt 1.0000 0.0000
vt 1.0000 1.0000
vt 0.0000 0.0000
vt 1.0000 1.0000
vt 1.0000 0.0000
vt 1.0000 1.0000
vt 0.0000 0.0000
vt 1.0000 1.0000
vt 0.0000 0.0000
vt 1.0000 0.0000
vt 1.0000 1.0000
vt 1.0000 0.0000
vt 1.0000 1.0000
vt 0.0000 0.0000
vt 1.0000 1.0000
vt 0.0000 0.0000
vt 1.0000 0.0000
vt 1.0000 1.0000
vt 1.0000 0.0000
vt 1.0000 1.0000
vt 1.0000 0.0000
vt 1.0000 1.0000
vt 1.0000 0.0000
vt 1.0000 1.0000
vt 0.0000 0.0000
vt 1.0000 1.0000
vt 1.0000 0.0000
vt 0.0000 0.0000
vt 1.0000 0.0000
vt 0.0000 0.0000
vt 0.0000 0.0000
vt 1.0000 1.0000
vt 0.0000 0.0000
vt 1.0000 1.0000
vt 1.0000 0.0000
vt 1.0000 1.0000
vt 1.0000 0.0000
vt 1.0000 1.0000
vt 0.0000 0.0000
vt 1.0000 0.0000
vt 1.0000 1.0000
vt 0.0000 0.0000
vt 1.0000 1.0000
vt 1.0000 0.0000
vt 1.0000 1.0000
vt 0.0000 0.0000
vt 1.0000 1.0000
vt 0.0000 0.0000
vt 1.0000 0.0000
vt 1.0000 1.0000
vt 1.0000 0.0000
vt 1.0000 1.0000
vt 1.0000 0.0000
vt 1.0000 1.0000
vt 1.0000 1.0000
vt 1.0000 0.0000
vt 1.0000 1.0000
vt 0.0000 0.0000
vt 1.0000 1.0000
vt 0.0000 0.0000
vt 1.0000 0.0000
vt 1.0000 1.0000
vt 0.0000 0.0000
vt 1.0000 1.0000
vt 1.0000 0.0000
vt 1.0000 1.0000
vt 0.0000 0.0000
vt 1.0000 1.0000
vt 0.0000 0.0000
vt 1.0000 0.0000
vt 1.0000 1.0000
vt 1.0000 0.0000
vt 1.0000 1.0000
vt 1.0000 0.0000
vt 1.0000 1.0000
vt 1.0000 1.0000
vt 1.0000 0.0000
vt 1.0000 1.0000
vt 0.0000 0.0000
vt 1.0000 1.0000
vt 0.0000 0.0000
vt 1.0000 1.0000
vt 0.0000 0.0000
vt 1.0000 1.0000
vt 0.0000 0.0000
vt 0.0000 0.0000
vt 1.0000 0.0000
vt 1.0000 1.0000
vt 0.0000 0.0000
vt 1.0000 1.0000
vt 1.0000 0.0000
vt 1.0000 1.0000
vt 0.0000 0.0000
vt 1.0000 1.0000
vt 0.0000 0.0000
vt 1.0000 0.0000
vt 1.0000 1.0000
vt 1.0000 0.0000
vt 1.0000 1.0000
vt 1.0000 0.0000
vt 1.0000 1.0000
vt 1.0000 1.0000
vt 1.0000 0.0000
vt 1.0000 1.0000
vt 0.0000 0.0000
vt 1.0000 1.0000
vt 0.0000 0.0000
vt 1.0000 0.0000
vt 1.0000 1.0000
vt 1.0000 0.0000
vt 1.0000 1.0000
vt 0.0000 0.0000
vt 1.0000 1.0000
vt 0.0000 0.0000
vt 1.0000 0.0000
vt 1.0000 1.0000
vt 1.0000 0.0000
vt 1.0000 1.0000
vt 1.0000 0.0000
vt 1.0000 1.0000
vt 1.0000 0.0000
vt 1.0000 1.0000
vt 0.0000 0.0000
vt 1.0000 1.0000
vt 1.0000 0.0000
vt 0.0000 0.0000
vt 1.0000 0.0000
vt 0.0000 0.0000
vt 0.0000 0.0000
vt 1.0000 1.0000
vt 0.0000 0.0000
vt 1.0000 1.0000
vt 1.0000 0.0000
vt 1.0000 1.0000
vt 1.0000 0.0000
vt 1.0000 1.0000
vt 0.0000 0.0000
vt 1.0000 0.0000
vt 1.0000 1.0000
vt 0.0000 0.0000
vt 1.0000 1.0000
vt 1.0000 0.0000
vt 1.0000 1.0000
vt 0.0000 0.0000
vt 1.0000 1.0000
vt 0.0000 0.0000
vt 1.0000 0.0000
vt 1.0000 1.0000
vt 1.0000 0.0000
vt 1.0000 1.0000
vt 1.0000 0.0000
vt 1.0000 1.0000
vt 1.0000 1.0000
vt 1.0000 0.0000
vt 1.0000 1.0000
vt 0.0000 0.0000
vt 1.0000 1.0000
vt 1.0000 0.0000
vt 1.0000 1.0000
vt 0.0000 0.0000
vt 1.0000 1.0000
vt 1.0000 0.0000
vt 1.0000 1.0000
vt 0.0000 0.0000
vt 1.0000 1.0000
vt 0.0000 0.0000
vt 1.0000 0.0000
vt 1.0000 1.0000
vt 1.0000 0.0000
vt 1.0000 1.0000
vt 1.0000 0.0000
vt 1.0000 1.0000
vt 0.0000 0.0000
vt 1.0000 1.0000
vt 0.0000 0.0000
vt 0.0000 0.0000
vt 1.0000 1.0000
vt 1.0000 0.0000
vt 0.0000 0.0000
vt 1.0000 0.0000
vt 1.0000 1.0000
vt 0.0000 0.0000
vt 1.0000 0.0000
vt 1.0000 1.0000
vt 0.0000 0.0000
vt 1.0000 0.0000
vt 1.0000 1.0000
vt 1.0000 0.0000
vt 1.0000 1.0000
vt 1.0000 0.0000
vt 1.0000 1.0000
vt 1.0000 1.0000
vt 1.0000 0.0000
vt 1.0000 1.0000
vt 0.0000 0.0000
vt 1.0000 0.0000
vt 1.0000 1.0000
vt 0.0000 0.0000
vt 1.0000 1.0000
vt 1.0000 0.0000
vt 0.0000 0.0000
vt 0.0000 0.0000
vt 1.0000 1.0000
vt 0.0000 0.0000
vt 1.0000 1.0000
vt 0.0000 0.0000
vt 0.0000 0.0000
vt 1.0000 0.0000
vt 1.0000 1.0000
vt 0.0000 0.0000
vt 1.0000 1.0000
vt 1.0000 1.0000
vt 1.0000 0.0000
vt 1.0000 1.0000
vt 1.0000 1.0000
vt 1.0000 0.0000
vt 1.0000 1.0000
vt 0.0000 0.0000
vt 0.0000 0.0000
vt 1.0000 1.0000
vt 0.0000 0.0000
vt 1.0000 1.0000
vt 0.0000 0.0000
vt 0.0000 0.0000
vt 1.0000 0.0000
vt 1.0000 1.0000
vt 0.0000 0.0000
vt 1.0000 1.0000
vt 1.0000 0.0000
vt 1.0000 1.0000
vt 1.0000 0.0000
vt 1.0000 1.0000
vt 1.0000 1.0000
vt 1.0000 0.0000
vt 1.0000 1.0000
vt 0.0000 0.0000
vt 1.0000 0.0000
vt 1.0000 0.0000
vt 0.0000 0.0000
vt 1.0000 1.0000
vt 1.0000 0.0000
vt 1.0000 1.0000
vt 0.0000 0.0000
vt 1.0000 0.0000
vt 1.0000 0.0000
vt 1.0000 1.0000
vt 0.0000 0.0000
vt 1.0000 1.0000
vt 0.0000 0.0000
vt 1.0000 1.0000
vt 1.0000 0.0000
vt 0.0000 0.0000
vt 1.0000 0.0000
vt 1.0000 1.0000
vt 0.0000 0.0000
vt 1.0000 1.0000
vt 1.0000 0.0000
vt 1.0000 1.0000
vt 0.0000 0.0000
vt 1.0000 1.0000
vt 0.0000 0.0000
vt 1.0000 0.0000
vt 1.0000 1.0000
vt 1.0000 0.0000
vt 1.0000 1.0000
vt 1.0000 0.0000
vt 1.0000 1.0000
vt 1.0000 1.0000
vt 1.0000 0.0000
vt 1.0000 1.0000
vt 0.0000 0.0000
vt 1.0000 1.0000
vt 0.0000 0.0000
vt 0.0000 0.0000
vt 1.0000 1.0000
vt 1.0000 0.0000
vt 0.0000 0.0000
vt 0.0000 0.0000
vt 1.0000 1.0000
vt 0.0000 0.0000
vt 1.0000 1.0000
vt 0.0000 0.0000
vt 1.0000 0.0000
vt 0.0000 0.0000
vt 1.0000 1.0000
vt 1.0000 0.0000
vt 1.0000 0.0000
vt 1.0000 0.0000
vt 1.0000 1.0000
vt 0.0000 0.0000
vt 1.0000 1.0000
vt 0.0000 0.0000
vt 1.0000 1.0000
vt 1.0000 0.0000
vt 0.0000 0.0000
vt 1.0000 0.0000
vt 1.0000 1.0000
vt 0.0000 0.0000
vt 1.0000 0.0000
vt 1.0000 1.0000
vt 0.0000 0.0000
vt 1.0000 0.0000
vt 1.0000 0.0000
vt 1.0000 1.0000
vt 1.0000 1.0000
vt 1.0000 1.0000
vt 1.0000 0.0000
vt 0.0000 0.0000
vt 1.0000 1.0000
vt 0.0000 0.0000
vt 1.0000 0.0000
vt 1.0000 1.0000
vt 1.0000 1.0000
vt 1.0000 1.0000
vt 1.0000 1.0000
vt 0.0000 0.0000
vt 1.0000 1.0000
vt 0.0000 0.0000
vn 0.0000 0.0000 -1.0000
vn -1.0000 0.0000 0.0000
vn 0.0000 1.0000 0.0000
vn 1.0000 0.0000 0.0000
vn 0.0000 0.0000 1.0000
vn 0.9884 0.1521 0.0000
vn 0.0000 0.1520 0.9884
vn 0.0000 0.1521 -0.9884
vn 0.0000 0.1521 0.9884
vn 0.0000 0.1520 -0.9884
usemtl LANDTX12_material_32
s 1
f 73/1/1 1/2/1 2/3/1
f 2/4/1 1/2/1 3/5/1
f 2/4/1 3/6/1 4/7/1
f 4/8/1 3/6/1 5/9/1
f 5/10/2 6/11/2 4/7/2
f 4/8/2 6/11/2 7/12/2
f 4/8/3 7/13/3 2/3/3
f 2/4/3 7/13/3 90/14/3
f 2/4/3 90/15/3 73/16/3
f 73/1/3 90/15/3 8/17/3
f 73/1/4 8/18/4 1/19/4
f 1/20/4 8/18/4 9/21/4
f 7/22/5 6/11/5 90/14/5
f 90/23/5 6/11/5 10/24/5
f 90/23/5 10/25/5 8/17/5
f 8/26/5 10/25/5 9/21/5
f 140/27/6 139/28/6 11/29/6
f 11/30/6 139/28/6 12/31/6
f 11/30/6 12/32/6 137/33/6
f 137/34/6 12/32/6 138/35/6
f 13/36/4 14/37/4 15/38/4
f 13/36/4 15/39/4 16/40/4
f 16/41/4 15/39/4 17/42/4
f 18/43/1 19/44/1 20/45/1
f 13/36/1 16/46/1 21/47/1
f 18/43/2 22/48/2 23/49/2
f 18/43/2 23/50/2 19/51/2
f 19/52/2 23/50/2 24/53/2
f 19/52/3 24/54/3 20/45/3
f 22/55/5 17/56/5 23/49/5
f 23/57/5 17/56/5 15/38/5
f 23/57/5 15/39/5 24/53/5
f 24/58/5 15/39/5 14/59/5
f 24/58/3 14/37/3 20/45/3
f 20/60/4 14/37/4 13/61/4
f 20/60/1 13/62/1 18/63/1
f 18/43/1 13/62/1 21/47/1
f 18/43/2 21/64/2 22/65/2
f 25/66/1 26/67/1 27/68/1
f 27/69/1 26/67/1 126/70/1
f 27/69/1 126/71/1 28/72/1
f 28/73/1 126/71/1 64/74/1
f 64/75/2 42/76/2 28/72/2
f 28/73/2 42/76/2 29/77/2
f 28/73/3 29/78/3 27/68/3
f 27/69/3 29/78/3 41/79/3
f 27/69/3 41/80/3 25/81/3
f 25/66/3 41/80/3 39/82/3
f 25/66/4 39/83/4 26/84/4
f 26/85/4 39/83/4 30/86/4
f 31/87/5 32/88/5 33/89/5
f 33/90/5 32/88/5 108/91/5
f 33/90/5 108/92/5 34/93/5
f 34/94/5 108/92/5 35/95/5
f 35/96/4 124/97/4 34/93/4
f 34/94/4 124/97/4 36/98/4
f 34/94/3 36/99/3 33/89/3
f 33/90/3 36/99/3 37/100/3
f 33/90/3 37/101/3 31/102/3
f 31/87/3 37/101/3 122/103/3
f 31/87/2 122/104/2 32/105/2
f 32/106/2 122/104/2 38/107/2
f 30/108/7 39/83/7 40/109/7
f 40/110/7 39/83/7 41/79/7
f 40/110/7 41/80/7 42/111/7
f 42/112/7 41/80/7 29/77/7
f 43/113/5 145/114/5 44/115/5
f 44/116/5 145/114/5 129/117/5
f 44/116/5 129/118/5 45/119/5
f 45/120/5 129/118/5 130/121/5
f 130/122/4 151/123/4 45/119/4
f 45/120/4 151/123/4 152/124/4
f 45/120/3 152/125/3 44/115/3
f 44/116/3 152/125/3 150/126/3
f 44/116/3 150/127/3 43/128/3
f 43/113/3 150/127/3 146/129/3
f 43/113/2 146/130/2 145/131/2
f 145/132/2 146/130/2 148/133/2
f 46/134/5 47/135/5 48/136/5
f 46/134/5 48/137/5 49/138/5
f 49/139/5 48/137/5 50/140/5
f 51/141/4 52/142/4 53/143/4
f 46/134/4 49/144/4 54/145/4
f 51/141/1 55/146/1 56/147/1
f 51/141/1 56/148/1 52/149/1
f 52/150/1 56/148/1 57/151/1
f 52/150/3 57/152/3 53/143/3
f 55/153/2 50/154/2 56/147/2
f 56/155/2 50/154/2 48/136/2
f 56/155/2 48/137/2 57/151/2
f 57/156/2 48/137/2 47/157/2
f 57/156/3 47/135/3 53/143/3
f 53/158/5 47/135/5 46/159/5
f 53/158/4 46/160/4 51/161/4
f 51/141/4 46/160/4 54/145/4
f 51/141/1 54/162/1 55/163/1
f 58/164/1 59/165/1 60/166/1
f 60/167/1 59/165/1 61/168/1
f 60/167/1 61/169/1 62/170/1
f 62/171/1 61/169/1 105/172/1
f 105/173/2 85/174/2 62/170/2
f 62/171/2 85/174/2 86/175/2
f 62/171/3 86/176/3 60/166/3
f 60/167/3 86/176/3 63/177/3
f 60/167/3 63/178/3 58/179/3
f 58/164/3 63/178/3 83/180/3
f 58/164/4 83/181/4 59/182/4
f 59/183/4 83/181/4 82/184/4
f 64/75/1 65/185/1 66/186/1
f 66/187/1 65/185/1 102/188/1
f 66/187/1 102/189/1 67/190/1
f 67/191/1 102/189/1 68/192/1
f 68/193/2 69/194/2 67/190/2
f 67/191/2 69/194/2 143/195/2
f 67/191/3 143/196/3 66/186/3
f 66/187/3 143/196/3 70/197/3
f 66/187/3 70/198/3 64/74/3
f 64/75/3 70/198/3 145/131/3
f 64/75/4 145/114/4 65/199/4
f 65/200/4 145/114/4 128/201/4
f 143/202/5 69/194/5 70/197/5
f 70/203/5 69/194/5 71/204/5
f 70/203/5 71/205/5 145/131/5
f 145/132/5 71/205/5 128/201/5
f 72/206/1 73/207/1 74/208/1
f 74/209/1 73/207/1 2/3/1
f 74/209/1 2/210/1 75/211/1
f 75/212/1 2/210/1 4/7/1
f 4/8/2 76/213/2 75/211/2
f 75/212/2 76/213/2 77/214/2
f 75/212/3 77/215/3 74/208/3
f 74/209/3 77/215/3 78/216/3
f 74/209/3 78/217/3 72/218/3
f 72/206/3 78/217/3 94/219/3
f 72/206/4 94/220/4 73/16/4
f 73/1/4 94/220/4 93/221/4
f 79/222/8 80/223/8 81/224/8
f 81/225/8 80/223/8 147/226/8
f 81/225/8 147/227/8 148/133/8
f 148/228/8 147/227/8 146/129/8
f 82/229/9 83/181/9 84/230/9
f 84/231/9 83/181/9 63/177/9
f 84/231/9 63/178/9 85/232/9
f 85/233/9 63/178/9 86/175/9
f 87/234/3 88/235/3 89/236/3
f 89/237/3 88/235/3 141/238/3
f 89/237/4 90/15/4 91/239/4
f 89/237/4 91/240/4 87/241/4
f 87/234/1 91/240/1 92/242/1
f 87/234/1 92/243/1 88/244/1
f 88/245/2 92/243/2 7/12/2
f 88/245/2 7/13/2 141/238/2
f 93/246/9 94/220/9 95/247/9
f 95/248/9 94/220/9 78/216/9
f 95/248/9 78/217/9 76/249/9
f 76/250/9 78/217/9 77/214/9
f 96/251/3 97/252/3 98/253/3
f 98/254/3 97/252/3 99/255/3
f 98/254/2 68/256/2 100/257/2
f 98/254/2 100/258/2 96/259/2
f 96/251/5 100/258/5 101/260/5
f 96/251/5 101/261/5 97/262/5
f 97/263/4 101/261/4 102/188/4
f 97/263/4 102/189/4 99/255/4
f 98/254/8 99/264/8 68/192/8
f 68/193/8 99/264/8 102/188/8
f 59/183/1 103/265/1 61/168/1
f 61/266/1 103/265/1 104/267/1
f 61/266/1 104/268/1 105/172/1
f 105/173/1 104/268/1 106/269/1
f 106/270/2 107/271/2 105/172/2
f 105/173/2 107/271/2 32/105/2
f 105/173/3 32/88/3 61/168/3
f 61/266/3 32/88/3 108/91/3
f 61/266/3 108/92/3 59/182/3
f 59/183/3 108/92/3 35/95/3
f 59/183/4 35/272/4 103/273/4
f 103/274/4 35/272/4 109/275/4
f 32/106/5 107/271/5 108/91/5
f 108/276/5 107/271/5 110/277/5
f 108/276/5 110/278/5 35/95/5
f 35/96/5 110/278/5 109/275/5
f 134/279/2 111/280/2 112/281/2
f 112/282/2 111/280/2 113/283/2
f 112/282/2 113/284/2 114/285/2
f 114/286/2 113/284/2 115/287/2
f 115/288/5 116/289/5 114/285/5
f 114/286/5 116/289/5 117/290/5
f 114/286/3 117/291/3 112/281/3
f 112/282/3 117/291/3 118/292/3
f 112/282/3 118/293/3 134/294/3
f 134/279/3 118/293/3 119/295/3
f 134/279/1 119/296/1 111/297/1
f 111/298/1 119/296/1 120/299/1
f 117/300/4 116/289/4 118/292/4
f 118/301/4 116/289/4 121/302/4
f 118/301/4 121/303/4 119/295/4
f 119/304/4 121/303/4 120/299/4
f 38/305/10 122/104/10 123/306/10
f 123/307/10 122/104/10 37/100/10
f 123/307/10 37/101/10 124/308/10
f 124/309/10 37/101/10 36/98/10
f 26/85/1 125/310/1 126/70/1
f 126/311/1 125/310/1 127/312/1
f 126/311/1 127/313/1 64/74/1
f 64/75/1 127/313/1 65/199/1
f 65/200/2 128/314/2 64/74/2
f 64/75/2 128/314/2 145/131/2
f 64/75/3 145/114/3 126/70/3
f 126/311/3 145/114/3 129/117/3
f 126/311/3 129/118/3 26/84/3
f 26/85/3 129/118/3 130/121/3
f 26/85/4 130/315/4 125/316/4
f 125/317/4 130/315/4 131/318/4
f 145/132/5 128/314/5 129/117/5
f 129/319/5 128/314/5 132/320/5
f 129/319/5 132/321/5 130/121/5
f 130/122/5 132/321/5 131/318/5
f 133/322/2 134/323/2 135/324/2
f 135/325/2 134/323/2 112/281/2
f 135/325/2 112/326/2 136/327/2
f 136/328/2 112/326/2 114/285/2
f 114/286/5 137/329/5 136/327/5
f 136/328/5 137/329/5 138/35/5
f 136/328/3 138/330/3 135/324/3
f 135/325/3 138/330/3 12/31/3
f 135/325/3 12/32/3 133/331/3
f 133/322/3 12/32/3 139/332/3
f 133/322/1 139/28/1 134/294/1
f 134/279/1 139/28/1 140/333/1
f 89/237/9 141/334/9 90/14/9
f 90/23/9 141/334/9 7/12/9
f 142/335/5 143/196/5 144/336/5
f 144/337/5 143/196/5 70/197/5
f 144/337/5 70/198/5 43/128/5
f 43/113/5 70/198/5 145/131/5
f 145/132/4 148/338/4 43/128/4
f 43/113/4 148/338/4 146/129/4
f 43/113/3 146/130/3 144/336/3
f 144/337/3 146/130/3 147/226/3
f 144/337/3 147/227/3 142/339/3
f 142/335/3 147/227/3 80/340/3
f 142/335/2 80/223/2 143/195/2
f 143/202/2 80/223/2 79/341/2
f 148/228/8 146/130/8 149/342/8
f 149/343/8 146/130/8 150/126/8
f 149/343/8 150/127/8 151/344/8
f 151/345/8 150/127/8 152/124/8
