# Blender v2.78 (sub 0) OBJ File: ''
# www.blender.org
mtllib Chunk4.mtl
v 2148.300049 43.325603 -7896.900391
v 2148.300049 43.325504 -7750.232910
v 2150.500000 57.625423 -7603.566406
v 2148.300049 43.325436 -7603.566406
v 2075.699951 10.325331 -7456.900391
v 2154.900146 10.325331 -7456.900391
v 2075.699951 43.325325 -7456.900391
v 2075.699951 43.325436 -7603.566406
v 2154.900146 43.325436 -7603.566406
v 2075.699951 43.325504 -7750.232910
v 2154.900146 43.325504 -7750.232910
v 2075.699951 43.325603 -7896.900391
v 2075.699951 10.325606 -7896.900391
v 2154.900146 10.325606 -7896.900391
v 2154.900146 10.325433 -7603.566406
v 2154.900146 10.325504 -7750.232910
v 2075.699951 10.325504 -7750.232910
v 2075.699951 10.325433 -7603.566406
v 1860.650024 112.624786 -6644.000000
v 1750.650024 112.624786 -6644.000000
v 1860.650024 98.324783 -6641.800293
v 2058.100098 57.625179 -7242.400391
v 2058.100098 57.625237 -7352.400391
v 2058.100098 43.325191 -7242.400391
v 2058.100098 43.325249 -7352.400391
v 2051.500000 43.325249 -7352.400391
v 2027.850098 65.324837 -6694.050293
v 2202.750000 65.324837 -6694.050293
v 2027.850098 -55.675163 -6694.050293
v 2202.750000 -55.675163 -6694.050293
v 2027.850098 -55.675285 -6518.050293
v 2027.850098 65.324715 -6518.050293
v 2202.750000 65.324715 -6518.050293
v 2202.750000 -55.675285 -6518.050293
v 2075.699951 10.324837 -6696.800293
v 2154.900146 10.324837 -6696.800293
v 2075.699951 43.324837 -6696.800293
v 2154.900146 43.324837 -6696.800293
v 2154.900146 43.324936 -6843.466309
v 2075.699951 43.325016 -6990.132812
v 2075.699951 43.325115 -7136.800293
v 2154.900146 43.325115 -7136.800293
v 2075.699951 10.325112 -7136.800293
v 2154.900146 10.325112 -7136.800293
v 2154.900146 10.324939 -6843.466309
v 2154.900146 10.325010 -6990.132812
v 2075.699951 10.325010 -6990.132812
v 2075.699951 10.324939 -6843.466309
v 1747.900024 32.324726 -6521.350098
v 1571.900024 120.324715 -6521.350098
v 1571.900024 32.324726 -6521.350098
v 1747.900024 -55.675274 -6521.350098
v 1571.900024 -55.675274 -6521.350098
v 1747.900024 32.324837 -6696.250000
v 1747.900024 120.324821 -6696.250000
v 1747.900024 120.324715 -6521.350098
v 1747.900024 -55.675163 -6696.250000
v 1571.900024 -55.675163 -6696.250000
v 1571.900024 32.324837 -6696.250000
v 1571.900024 120.324821 -6696.250000
v 2058.100098 43.325115 -7132.400391
v 2058.100098 10.325109 -7132.400391
v 2058.100098 43.325226 -7297.400391
v 2058.100098 10.325224 -7297.400391
v 2058.100098 43.325336 -7462.400391
v 2058.100098 10.325334 -7462.400391
v 1978.900024 10.325334 -7462.400391
v 1978.900024 43.325336 -7462.400391
v 1978.900024 43.325226 -7297.400391
v 1978.900024 10.325109 -7132.400391
v 1978.900024 10.325224 -7297.400391
v 2053.699951 57.625179 -7242.400391
v 2053.699951 57.625237 -7352.400391
v 2051.500000 43.325191 -7242.400391
v 2082.300049 43.324936 -6843.466309
v 2082.300049 43.325016 -6990.132812
v 2154.900146 43.325603 -7896.900391
v 2154.900146 57.625591 -7896.900391
v 2150.500000 57.625591 -7896.900391
v 2154.900146 57.625492 -7750.232910
v 2150.500000 57.625492 -7750.232910
v 2154.900146 57.625423 -7603.566406
v 2154.900146 57.625313 -7456.900391
v 2150.500000 57.625313 -7456.900391
v 2154.900146 43.325325 -7456.900391
v 2148.300049 43.325325 -7456.900391
v 1985.500000 43.325226 -7297.400391
v 1983.300049 57.625103 -7132.400391
v 1750.650024 112.624725 -6569.200195
v 1860.650024 112.624725 -6569.200195
v 1750.650024 112.624725 -6573.600098
v 1750.650024 98.324738 -6575.800293
v 1750.650024 98.324738 -6569.200195
v 1860.650024 98.324738 -6569.200195
v 1860.650024 98.324738 -6575.800293
v 2075.699951 57.625591 -7896.900391
v 2075.699951 57.625481 -7731.900391
v 2075.699951 43.325493 -7731.900391
v 2075.699951 57.625370 -7566.900391
v 2075.699951 43.325382 -7566.900391
v 2082.300049 43.325382 -7566.900391
v 2080.100098 57.625481 -7731.900391
v 2080.100098 57.625591 -7896.900391
v 2202.750000 32.325726 -8075.650391
v 2202.750000 120.325615 -7899.650391
v 2202.750000 32.325603 -7899.650391
v 2202.750000 -55.674274 -8075.650391
v 2202.750000 -55.674397 -7899.650391
v 2027.850098 32.325726 -8075.650391
v 2027.850098 120.325714 -8075.650391
v 2202.750000 120.325714 -8075.650391
v 2027.850098 -55.674274 -8075.650391
v 2027.850098 -55.674397 -7899.650391
v 2027.850098 32.325603 -7899.650391
v 2027.850098 120.325615 -7899.650391
v 2082.300049 43.325603 -7896.900391
v 2082.300049 43.325493 -7731.900391
v 2080.100098 57.625370 -7566.900391
v 1860.650024 112.624786 -6648.399902
v 1750.650024 112.624786 -6648.399902
v 1860.650024 98.324783 -6648.399902
v 1750.650024 98.324783 -6648.399902
v 1750.650024 98.324783 -6641.800293
v 1978.900024 57.625324 -7462.400391
v 1978.900024 57.625214 -7297.400391
v 1978.900024 57.625103 -7132.400391
v 1978.900024 43.325115 -7132.400391
v 1985.500000 43.325115 -7132.400391
v 1983.300049 57.625214 -7297.400391
v 1983.300049 57.625324 -7462.400391
v 1985.500000 43.325336 -7462.400391
v 2202.750000 32.324581 -6298.050293
v 2202.750000 120.324455 -6122.050293
v 2202.750000 32.324459 -6122.050293
v 2202.750000 -55.675419 -6298.050293
v 2202.750000 -55.675541 -6122.050293
v 2027.850098 32.324581 -6298.050293
v 2027.850098 120.324554 -6298.050293
v 2202.750000 120.324554 -6298.050293
v 2027.850098 -55.675419 -6298.050293
v 2027.850098 -55.675541 -6122.050293
v 2027.850098 32.324459 -6122.050293
v 2027.850098 120.324455 -6122.050293
v 1860.650024 112.624725 -6573.600098
v 2150.500000 57.625103 -7136.800293
v 2148.300049 43.325115 -7136.800293
v 2150.500000 57.625004 -6990.132812
v 2148.300049 43.325016 -6990.132812
v 2148.300049 43.324936 -6843.466309
v 2150.500000 57.624825 -6696.800293
v 2154.900146 57.625103 -7136.800293
v 2154.900146 57.625004 -6990.132812
v 2154.900146 57.624924 -6843.466309
v 2150.500000 57.624924 -6843.466309
v 2154.900146 57.624825 -6696.800293
v 2148.300049 43.324837 -6696.800293
v 2154.900146 43.325016 -6990.132812
v 1860.650024 76.324783 -6648.399902
v 1750.650024 76.324783 -6648.399902
v 1750.650024 76.324738 -6569.200195
v 1860.650024 76.324738 -6569.200195
v 2082.300049 43.324837 -6696.800293
v 2075.699951 57.624825 -6696.800293
v 2080.100098 57.624825 -6696.800293
v 2075.699951 57.624924 -6843.466309
v 2080.100098 57.624924 -6843.466309
v 2075.699951 57.625004 -6990.132812
v 2080.100098 57.625004 -6990.132812
v 2075.699951 57.625103 -7136.800293
v 2080.100098 57.625103 -7136.800293
v 2082.300049 43.325115 -7136.800293
v 2075.699951 43.324936 -6843.466309
vt 0.0000 0.0000
vt 1.0000 0.0000
vt 1.0000 1.0000
vt 0.0000 0.0000
vt 1.0000 1.0000
vt 1.0000 0.0000
vt 1.0000 1.0000
vt 0.0000 0.0000
vt 1.0000 1.0000
vt 1.0000 0.0000
vt 1.0000 1.0000
vt 0.0000 0.0000
vt 1.0000 1.0000
vt 0.0000 0.0000
vt 1.0000 0.0000
vt 1.0000 1.0000
vt 0.0000 0.0000
vt 1.0000 1.0000
vt 1.0000 0.0000
vt 1.0000 1.0000
vt 0.0000 0.0000
vt 1.0000 1.0000
vt 1.0000 0.0000
vt 1.0000 1.0000
vt 0.0000 0.0000
vt 1.0000 1.0000
vt 1.0000 0.0000
vt 1.0000 1.0000
vt 0.0000 0.0000
vt 1.0000 1.0000
vt 1.0000 0.0000
vt 1.0000 1.0000
vt 0.0000 0.0000
vt 1.0000 1.0000
vt 0.0000 0.0000
vt 0.0000 0.0000
vt 1.0000 1.0000
vt 1.0000 0.0000
vt 0.0000 0.0000
vt 1.0000 1.0000
vt 1.0000 0.0000
vt 0.0000 0.0000
vt 1.0000 0.0000
vt 1.0000 1.0000
vt 1.0000 0.0000
vt 1.0000 1.0000
vt 1.0000 0.0000
vt 1.0000 1.0000
vt 0.0000 0.0000
vt 1.0000 0.0000
vt 1.0000 1.0000
vt 0.0000 0.0000
vt 1.0000 1.0000
vt 0.0000 0.0000
vt 1.0000 0.0000
vt 1.0000 1.0000
vt 0.0000 0.0000
vt 1.0000 1.0000
vt 1.0000 0.0000
vt 1.0000 1.0000
vt 1.0000 0.0000
vt 1.0000 1.0000
vt 1.0000 1.0000
vt 1.0000 0.0000
vt 1.0000 1.0000
vt 0.0000 0.0000
vt 1.0000 1.0000
vt 1.0000 0.0000
vt 0.0000 0.0000
vt 1.0000 0.0000
vt 1.0000 1.0000
vt 0.0000 0.0000
vt 1.0000 1.0000
vt 1.0000 0.0000
vt 1.0000 1.0000
vt 1.0000 1.0000
vt 1.0000 0.0000
vt 1.0000 1.0000
vt 0.0000 0.0000
vt 1.0000 1.0000
vt 1.0000 0.0000
vt 0.0000 0.0000
vt 1.0000 1.0000
vt 0.0000 0.0000
vt 0.0000 0.0000
vt 1.0000 1.0000
vt 0.0000 0.0000
vt 1.0000 0.0000
vt 1.0000 1.0000
vt 0.0000 0.0000
vt 1.0000 1.0000
vt 1.0000 0.0000
vt 1.0000 1.0000
vt 0.0000 0.0000
vt 1.0000 1.0000
vt 1.0000 0.0000
vt 1.0000 1.0000
vt 0.0000 0.0000
vt 1.0000 1.0000
vt 1.0000 0.0000
vt 1.0000 1.0000
vt 0.0000 0.0000
vt 1.0000 1.0000
vt 1.0000 0.0000
vt 1.0000 1.0000
vt 0.0000 0.0000
vt 1.0000 1.0000
vt 0.0000 0.0000
vt 0.0000 0.0000
vt 1.0000 1.0000
vt 1.0000 0.0000
vt 0.0000 0.0000
vt 1.0000 1.0000
vt 1.0000 0.0000
vt 0.0000 0.0000
vt 1.0000 0.0000
vt 1.0000 1.0000
vt 1.0000 0.0000
vt 1.0000 1.0000
vt 1.0000 0.0000
vt 1.0000 1.0000
vt 0.0000 0.0000
vt 1.0000 0.0000
vt 1.0000 1.0000
vt 1.0000 0.0000
vt 1.0000 1.0000
vt 0.0000 0.0000
vt 1.0000 1.0000
vt 0.0000 0.0000
vt 1.0000 0.0000
vt 1.0000 1.0000
vt 1.0000 0.0000
vt 1.0000 1.0000
vt 1.0000 0.0000
vt 1.0000 1.0000
vt 1.0000 0.0000
vt 1.0000 1.0000
vt 0.0000 0.0000
vt 1.0000 1.0000
vt 1.0000 0.0000
vt 0.0000 0.0000
vt 1.0000 0.0000
vt 0.0000 0.0000
vt 0.0000 0.0000
vt 1.0000 1.0000
vt 0.0000 0.0000
vt 1.0000 1.0000
vt 1.0000 0.0000
vt 1.0000 1.0000
vt 1.0000 0.0000
vt 1.0000 1.0000
vt 0.0000 0.0000
vt 1.0000 0.0000
vt 1.0000 1.0000
vt 0.0000 0.0000
vt 1.0000 1.0000
vt 1.0000 0.0000
vt 1.0000 1.0000
vt 0.0000 0.0000
vt 1.0000 1.0000
vt 0.0000 0.0000
vt 1.0000 0.0000
vt 1.0000 1.0000
vt 1.0000 0.0000
vt 1.0000 1.0000
vt 1.0000 0.0000
vt 1.0000 1.0000
vt 1.0000 1.0000
vt 1.0000 0.0000
vt 1.0000 1.0000
vt 0.0000 0.0000
vt 1.0000 1.0000
vt 0.0000 0.0000
vt 0.0000 0.0000
vt 1.0000 1.0000
vt 1.0000 0.0000
vt 0.0000 0.0000
vt 1.0000 0.0000
vt 1.0000 1.0000
vt 0.0000 0.0000
vt 0.0000 0.0000
vt 1.0000 0.0000
vt 1.0000 1.0000
vt 0.0000 0.0000
vt 1.0000 1.0000
vt 1.0000 0.0000
vt 1.0000 1.0000
vt 0.0000 0.0000
vt 1.0000 1.0000
vt 1.0000 0.0000
vt 1.0000 1.0000
vt 0.0000 0.0000
vt 1.0000 1.0000
vt 1.0000 1.0000
vt 0.0000 0.0000
vt 1.0000 1.0000
vt 1.0000 0.0000
vt 1.0000 1.0000
vt 0.0000 0.0000
vt 1.0000 0.0000
vt 1.0000 1.0000
vt 0.0000 0.0000
vt 1.0000 0.0000
vt 1.0000 1.0000
vt 0.0000 0.0000
vt 1.0000 0.0000
vt 0.0000 0.0000
vt 1.0000 0.0000
vt 1.0000 1.0000
vt 0.0000 0.0000
vt 1.0000 1.0000
vt 1.0000 0.0000
vt 1.0000 1.0000
vt 0.0000 0.0000
vt 1.0000 1.0000
vt 0.0000 0.0000
vt 1.0000 0.0000
vt 1.0000 1.0000
vt 0.0000 0.0000
vt 1.0000 1.0000
vt 1.0000 0.0000
vt 1.0000 1.0000
vt 1.0000 0.0000
vt 1.0000 1.0000
vt 1.0000 1.0000
vt 1.0000 0.0000
vt 1.0000 1.0000
vt 0.0000 0.0000
vt 1.0000 1.0000
vt 1.0000 0.0000
vt 0.0000 0.0000
vt 1.0000 0.0000
vt 1.0000 1.0000
vt 0.0000 0.0000
vt 1.0000 1.0000
vt 1.0000 0.0000
vt 1.0000 1.0000
vt 0.0000 0.0000
vt 1.0000 1.0000
vt 0.0000 0.0000
vt 1.0000 0.0000
vt 1.0000 1.0000
vt 1.0000 0.0000
vt 1.0000 1.0000
vt 1.0000 0.0000
vt 1.0000 1.0000
vt 1.0000 1.0000
vt 1.0000 0.0000
vt 1.0000 1.0000
vt 0.0000 0.0000
vt 1.0000 0.0000
vt 1.0000 1.0000
vt 1.0000 0.0000
vt 1.0000 1.0000
vt 0.0000 0.0000
vt 1.0000 1.0000
vt 0.0000 0.0000
vt 1.0000 0.0000
vt 1.0000 1.0000
vt 1.0000 0.0000
vt 1.0000 1.0000
vt 1.0000 0.0000
vt 1.0000 1.0000
vt 1.0000 0.0000
vt 1.0000 1.0000
vt 0.0000 0.0000
vt 1.0000 1.0000
vt 1.0000 0.0000
vt 0.0000 0.0000
vt 1.0000 0.0000
vt 0.0000 0.0000
vt 0.0000 0.0000
vt 1.0000 1.0000
vt 0.0000 0.0000
vt 1.0000 1.0000
vt 1.0000 0.0000
vt 1.0000 1.0000
vt 1.0000 0.0000
vt 1.0000 1.0000
vt 0.0000 0.0000
vt 1.0000 1.0000
vt 0.0000 0.0000
vt 1.0000 1.0000
vt 0.0000 0.0000
vt 0.0000 0.0000
vt 1.0000 0.0000
vt 1.0000 1.0000
vt 1.0000 1.0000
vt 1.0000 0.0000
vt 1.0000 1.0000
vt 1.0000 0.0000
vt 1.0000 1.0000
vt 1.0000 1.0000
vt 1.0000 0.0000
vt 1.0000 1.0000
vt 0.0000 0.0000
vt 1.0000 0.0000
vt 0.0000 0.0000
vt 1.0000 1.0000
vt 0.0000 0.0000
vt 1.0000 1.0000
vt 0.0000 0.0000
vt 1.0000 0.0000
vt 1.0000 0.0000
vt 1.0000 1.0000
vt 1.0000 1.0000
vt 1.0000 1.0000
vt 0.0000 0.0000
vt 1.0000 0.0000
vt 1.0000 1.0000
vt 1.0000 0.0000
vt 1.0000 1.0000
vt 0.0000 0.0000
vt 1.0000 1.0000
vt 0.0000 0.0000
vt 1.0000 0.0000
vt 1.0000 1.0000
vt 1.0000 0.0000
vt 1.0000 1.0000
vt 1.0000 0.0000
vt 1.0000 1.0000
vt 1.0000 0.0000
vt 1.0000 1.0000
vt 0.0000 0.0000
vt 1.0000 1.0000
vt 1.0000 0.0000
vt 0.0000 0.0000
vt 1.0000 0.0000
vt 0.0000 0.0000
vt 0.0000 0.0000
vt 1.0000 1.0000
vt 0.0000 0.0000
vt 1.0000 1.0000
vt 1.0000 0.0000
vt 1.0000 1.0000
vt 1.0000 0.0000
vt 1.0000 1.0000
vt 1.0000 0.0000
vt 1.0000 1.0000
vt 0.0000 0.0000
vt 0.0000 0.0000
vt 1.0000 0.0000
vt 1.0000 1.0000
vt 0.0000 0.0000
vt 1.0000 1.0000
vt 1.0000 0.0000
vt 1.0000 1.0000
vt 0.0000 0.0000
vt 1.0000 1.0000
vt 1.0000 0.0000
vt 1.0000 1.0000
vt 0.0000 0.0000
vt 1.0000 1.0000
vt 1.0000 1.0000
vt 0.0000 0.0000
vt 1.0000 1.0000
vt 1.0000 0.0000
vt 1.0000 1.0000
vt 0.0000 0.0000
vt 1.0000 0.0000
vt 1.0000 1.0000
vt 0.0000 0.0000
vt 1.0000 0.0000
vt 1.0000 1.0000
vt 0.0000 0.0000
vt 1.0000 0.0000
vt 0.0000 0.0000
vt 1.0000 0.0000
vt 0.0000 0.0000
vt 1.0000 1.0000
vt 0.0000 0.0000
vt 1.0000 0.0000
vt 1.0000 1.0000
vt 1.0000 0.0000
vt 1.0000 1.0000
vt 0.0000 0.0000
vt 0.0000 0.0000
vt 1.0000 1.0000
vt 0.0000 0.0000
vt 1.0000 1.0000
vt 1.0000 0.0000
vt 1.0000 1.0000
vt 0.0000 0.0000
vt 1.0000 0.0000
vt 1.0000 1.0000
vt 0.0000 0.0000
vt 1.0000 0.0000
vt 1.0000 1.0000
vt 0.0000 0.0000
vt 1.0000 0.0000
vt 1.0000 0.0000
vt 1.0000 0.0000
vt 1.0000 0.0000
vn -0.9884 0.1521 0.0000
vn -0.9884 0.1520 0.0000
vn 0.0000 0.0000 1.0000
vn 0.0000 1.0000 0.0000
vn 0.0000 0.0000 -1.0000
vn 1.0000 0.0000 0.0000
vn -1.0000 0.0000 0.0000
vn 0.0000 0.1520 0.9884
vn 0.9884 0.1521 0.0000
vn 0.9884 0.1520 0.0000
vn 0.0000 0.1521 -0.9884
usemtl LANDTX12_material_32
s 1
f 79/1/1 1/2/1 81/3/1
f 81/4/1 1/2/1 2/5/1
f 81/4/1 2/6/1 3/7/1
f 3/8/1 2/6/1 4/9/1
f 3/8/1 4/10/1 84/11/2
f 84/12/2 4/10/1 86/13/2
f 5/14/3 6/15/3 7/16/3
f 7/17/3 6/15/3 85/18/3
f 7/17/4 85/19/4 8/20/4
f 8/21/4 85/19/4 9/22/4
f 8/21/4 9/23/4 10/24/4
f 10/25/4 9/23/4 11/26/4
f 10/25/4 11/27/4 12/28/4
f 12/29/4 11/27/4 77/30/4
f 12/29/5 77/31/5 13/32/5
f 13/33/5 77/31/5 14/34/5
f 85/35/6 6/15/6 9/22/6
f 9/36/6 6/15/6 15/37/6
f 9/36/6 15/38/6 11/26/6
f 11/39/6 15/38/6 16/40/6
f 11/39/6 16/41/6 77/30/6
f 77/42/6 16/41/6 14/34/6
f 12/29/7 13/43/7 10/24/7
f 10/25/7 13/43/7 17/44/7
f 10/25/7 17/45/7 8/20/7
f 8/21/7 17/45/7 18/46/7
f 8/21/7 18/47/7 7/16/7
f 7/17/7 18/47/7 5/48/7
f 19/49/8 20/50/8 21/51/8
f 21/52/8 20/50/8 123/53/8
f 22/54/4 23/55/4 72/56/4
f 72/57/4 23/55/4 73/58/4
f 72/57/3 74/59/3 24/60/3
f 72/57/3 24/61/3 22/62/3
f 22/54/6 24/61/6 25/63/6
f 22/54/6 25/64/6 23/65/6
f 23/66/5 25/64/5 26/67/5
f 23/66/5 26/68/5 73/58/5
f 27/69/5 28/70/5 29/71/5
f 29/72/5 28/70/5 30/73/5
f 29/72/7 31/74/7 27/75/7
f 27/69/7 31/74/7 32/76/7
f 27/69/4 32/77/4 28/78/4
f 28/79/4 32/77/4 33/80/4
f 28/79/6 33/81/6 30/73/6
f 30/82/6 33/81/6 34/83/6
f 33/84/3 32/77/3 34/83/3
f 34/85/3 32/77/3 31/86/3
f 35/87/3 36/88/3 37/89/3
f 37/90/3 36/88/3 38/91/3
f 37/90/4 38/92/4 172/93/4
f 172/94/4 38/92/4 39/95/4
f 172/94/4 39/96/4 40/97/4
f 40/98/4 39/96/4 157/99/4
f 40/98/4 157/100/4 41/101/4
f 41/102/4 157/100/4 42/103/4
f 41/102/5 42/104/5 43/105/5
f 43/106/5 42/104/5 44/107/5
f 38/108/6 36/88/6 39/95/6
f 39/109/6 36/88/6 45/110/6
f 39/109/6 45/111/6 157/99/6
f 157/112/6 45/111/6 46/113/6
f 157/112/6 46/114/6 42/103/6
f 42/115/6 46/114/6 44/107/6
f 41/102/7 43/116/7 40/97/7
f 40/98/7 43/116/7 47/117/7
f 40/98/7 47/118/7 172/93/7
f 172/94/7 47/118/7 48/119/7
f 172/94/7 48/120/7 37/89/7
f 37/90/7 48/120/7 35/121/7
f 49/122/3 50/123/3 51/124/3
f 49/122/3 51/125/3 52/126/3
f 52/127/3 51/125/3 53/128/3
f 54/129/6 55/130/6 56/131/6
f 49/122/6 52/132/6 57/133/6
f 54/129/5 58/134/5 59/135/5
f 54/129/5 59/136/5 55/137/5
f 55/138/5 59/136/5 60/139/5
f 55/138/4 60/140/4 56/131/4
f 58/141/7 53/142/7 59/135/7
f 59/143/7 53/142/7 51/124/7
f 59/143/7 51/125/7 60/139/7
f 60/144/7 51/125/7 50/145/7
f 60/144/4 50/123/4 56/131/4
f 56/146/3 50/123/3 49/147/3
f 56/146/6 49/148/6 54/149/6
f 54/129/6 49/148/6 57/133/6
f 54/129/5 57/150/5 58/151/5
f 61/152/6 62/153/6 63/154/6
f 63/155/6 62/153/6 64/156/6
f 63/155/6 64/157/6 65/158/6
f 65/159/6 64/157/6 66/160/6
f 66/161/5 67/162/5 65/158/5
f 65/159/5 67/162/5 68/163/5
f 65/159/4 68/164/4 63/154/4
f 63/155/4 68/164/4 69/165/4
f 63/155/4 69/166/4 61/167/4
f 61/152/4 69/166/4 127/168/4
f 61/152/3 127/169/3 62/170/3
f 62/171/3 127/169/3 70/172/3
f 68/173/7 67/162/7 69/165/7
f 69/174/7 67/162/7 71/175/7
f 69/174/7 71/176/7 127/168/7
f 127/177/7 71/176/7 70/172/7
f 72/57/2 73/178/2 74/179/2
f 74/180/1 73/178/1 26/67/1
f 164/181/9 162/182/9 166/183/9
f 166/184/9 162/182/9 75/185/9
f 166/184/9 75/186/9 168/187/9
f 168/188/9 75/186/9 76/189/9
f 168/188/9 76/190/9 170/191/10
f 170/192/10 76/190/9 171/193/10
f 77/42/5 1/2/5 78/194/5
f 78/195/5 1/2/5 79/196/5
f 78/195/4 79/197/4 80/198/4
f 80/199/4 79/197/4 81/3/4
f 80/199/4 81/200/4 82/201/4
f 82/202/4 81/200/4 3/7/4
f 82/202/4 3/203/4 83/204/4
f 83/205/4 3/203/4 84/11/4
f 83/205/3 84/206/3 85/18/3
f 85/35/3 84/206/3 86/13/3
f 83/205/6 85/19/6 82/201/6
f 82/202/6 85/19/6 9/22/6
f 82/202/6 9/23/6 80/198/6
f 80/199/6 9/23/6 11/26/6
f 80/199/6 11/27/6 78/194/6
f 78/195/6 11/27/6 77/30/6
f 131/207/9 130/208/9 87/209/9
f 87/210/9 130/208/9 129/211/9
f 87/210/9 129/212/9 128/213/9
f 128/214/9 129/212/9 88/215/9
f 89/216/4 90/217/4 91/218/4
f 91/219/4 90/217/4 144/220/4
f 91/219/7 92/221/7 93/222/7
f 91/219/7 93/223/7 89/224/7
f 89/216/3 93/223/3 94/225/3
f 89/216/3 94/226/3 90/227/3
f 90/228/6 94/226/6 95/229/6
f 90/228/6 95/230/6 144/220/6
f 96/231/7 12/232/7 97/233/7
f 97/234/7 12/232/7 98/235/7
f 97/234/7 98/236/7 99/237/7
f 99/238/7 98/236/7 100/239/7
f 100/240/3 101/241/3 99/237/3
f 99/238/3 101/241/3 118/242/3
f 99/238/4 118/243/4 97/233/4
f 97/234/4 118/243/4 102/244/4
f 97/234/4 102/245/4 96/246/4
f 96/231/4 102/245/4 103/247/4
f 96/231/5 103/248/5 12/28/5
f 12/29/5 103/248/5 116/249/5
f 104/250/6 105/251/6 106/252/6
f 104/250/6 106/253/6 107/254/6
f 107/255/6 106/253/6 108/256/6
f 109/257/5 110/258/5 111/259/5
f 104/250/5 107/260/5 112/261/5
f 109/257/7 113/262/7 114/263/7
f 109/257/7 114/264/7 110/265/7
f 110/266/7 114/264/7 115/267/7
f 110/266/4 115/268/4 111/259/4
f 113/269/3 108/270/3 114/263/3
f 114/271/3 108/270/3 106/252/3
f 114/271/3 106/253/3 115/267/3
f 115/272/3 106/253/3 105/273/3
f 115/272/4 105/251/4 111/259/4
f 111/274/6 105/251/6 104/275/6
f 111/274/5 104/276/5 109/277/5
f 109/257/5 104/276/5 112/261/5
f 109/257/7 112/278/7 113/279/7
f 116/280/10 103/248/10 117/281/10
f 117/282/10 103/248/10 102/244/10
f 117/282/10 102/245/10 101/283/9
f 101/284/9 102/245/10 118/242/9
f 119/285/4 120/286/4 19/287/4
f 19/49/4 120/286/4 20/288/4
f 19/49/6 21/289/6 121/290/6
f 19/49/6 121/291/6 119/292/6
f 119/285/5 121/291/5 122/293/5
f 119/285/5 122/294/5 120/295/5
f 120/296/7 122/294/7 123/53/7
f 120/296/7 123/297/7 20/288/7
f 124/298/7 68/164/7 125/299/7
f 125/300/7 68/164/7 69/165/7
f 125/300/7 69/166/7 126/301/7
f 126/302/7 69/166/7 127/168/7
f 127/177/3 128/303/3 126/301/3
f 126/302/3 128/303/3 88/215/3
f 126/302/4 88/304/4 125/299/4
f 125/300/4 88/304/4 129/211/4
f 125/300/4 129/212/4 124/305/4
f 124/298/4 129/212/4 130/306/4
f 124/298/5 130/208/5 68/163/5
f 68/173/5 130/208/5 131/307/5
f 132/308/6 133/309/6 134/310/6
f 132/308/6 134/311/6 135/312/6
f 135/313/6 134/311/6 136/314/6
f 137/315/5 138/316/5 139/317/5
f 132/308/5 135/318/5 140/319/5
f 137/315/7 141/320/7 142/321/7
f 137/315/7 142/322/7 138/323/7
f 138/324/7 142/322/7 143/325/7
f 138/324/4 143/326/4 139/317/4
f 141/327/3 136/328/3 142/321/3
f 142/329/3 136/328/3 134/310/3
f 142/329/3 134/311/3 143/325/3
f 143/330/3 134/311/3 133/331/3
f 143/330/4 133/309/4 139/317/4
f 139/332/6 133/309/6 132/333/6
f 139/332/5 132/334/5 137/335/5
f 137/315/5 132/334/5 140/319/5
f 137/315/7 140/336/7 141/337/7
f 91/219/11 144/338/11 92/339/11
f 92/340/11 144/338/11 95/229/11
f 145/341/1 146/342/1 147/343/1
f 147/344/1 146/342/1 148/345/1
f 147/344/1 148/346/1 154/347/1
f 154/348/1 148/346/1 149/349/1
f 154/348/1 149/350/1 150/351/2
f 150/352/2 149/350/1 156/353/2
f 42/115/5 146/342/5 151/354/5
f 151/355/5 146/342/5 145/356/5
f 151/355/4 145/357/4 152/358/4
f 152/359/4 145/357/4 147/343/4
f 152/359/4 147/360/4 153/361/4
f 153/362/4 147/360/4 154/347/4
f 153/362/4 154/363/4 155/364/4
f 155/365/4 154/363/4 150/351/4
f 155/365/3 150/366/3 38/91/3
f 38/108/3 150/366/3 156/353/3
f 155/365/6 38/92/6 153/361/6
f 153/362/6 38/92/6 39/95/6
f 153/362/6 39/96/6 152/358/6
f 152/359/6 39/96/6 157/99/6
f 152/359/6 157/100/6 151/354/6
f 151/355/6 157/100/6 42/103/6
f 94/367/6 158/368/6 121/290/6
f 121/369/5 158/368/5 159/370/5
f 159/371/7 160/372/7 122/293/7
f 159/371/5 122/294/5 121/290/5
f 121/369/4 122/294/4 93/222/4
f 121/369/4 93/223/4 94/225/4
f 94/367/3 93/223/3 161/373/3
f 94/367/6 161/374/6 158/375/6
f 122/376/7 160/372/7 93/222/7
f 93/377/3 160/372/3 161/373/3
f 37/90/3 162/182/3 163/378/3
f 163/379/3 162/182/3 164/380/3
f 163/379/4 164/381/4 165/382/4
f 165/383/4 164/381/4 166/183/4
f 165/383/4 166/384/4 167/385/4
f 167/386/4 166/384/4 168/187/4
f 167/386/4 168/387/4 169/388/4
f 169/389/4 168/387/4 170/191/4
f 169/389/5 170/390/5 41/101/5
f 41/102/5 170/390/5 171/193/5
f 169/389/7 41/391/7 167/385/7
f 167/386/7 41/391/7 40/97/7
f 167/386/7 40/392/7 165/382/7
f 165/383/7 40/392/7 172/93/7
f 165/383/7 172/393/7 163/378/7
f 163/379/7 172/393/7 37/89/7
