# Blender v2.79 (sub 0) OBJ File: ''
# www.blender.org
mtllib TurtleCollision.mtl
v 13.479263 4.043607 4.886647
v 13.825727 4.043606 0.020290
v 2.111641 4.043607 5.470403
v 2.111641 4.043606 10.884708
v 15.438866 4.043607 10.201721
v 2.111641 4.043606 15.012856
v 22.265499 4.043606 0.020289
v 18.152399 4.043606 0.020289
v 20.425884 4.043607 5.063943
v 13.479263 4.043607 4.886647
v 15.438866 4.043607 10.201721
v 15.441351 -1.754510 14.343170
v 2.513263 -1.689676 18.271782
v 24.257015 4.043606 0.020288
v 23.627438 4.043607 4.694300
v 22.985703 -4.923010 7.180418
v 15.441351 -1.754510 14.343170
v 9.381145 -3.582366 17.072695
v 2.808130 -6.712369 19.796104
v 24.630283 -1.211467 4.708945
v 20.303812 -7.464421 10.322516
v 14.939086 -7.623108 13.974401
v 9.162395 -11.350908 18.320623
v 2.723142 -12.688797 18.885164
v 2.172913 4.043606 0.020290
v -3.371257 4.043606 0.020291
v -4.145142 4.043607 5.397644
v -9.346811 4.043606 0.020290
v -4.615426 4.043606 10.902176
v -11.747272 4.043607 5.200863
v -4.698733 -1.185666 16.176537
v -13.629145 -0.868491 11.025591
v -22.089876 -1.550130 6.750447
v -17.638445 4.043606 0.020291
v -27.071522 -0.426689 0.020290
v -4.115180 -7.533685 19.920124
v -10.173033 -6.822279 18.196939
v -17.962336 -5.744051 14.515161
v -28.769379 -4.701901 7.814430
v -3.934793 -13.502452 18.175375
v -11.040909 -13.176613 17.336185
v -15.992252 -14.102666 15.681259
v -20.548893 -12.008158 13.554773
v -28.519997 -10.385812 7.835188
v -38.479523 -6.569192 2.666641
v -34.476402 -3.819245 0.020290
v -39.635345 -6.849615 0.020290
v 20.303812 -7.464421 10.322516
v 23.881187 -8.677416 6.015728
v 22.985703 -4.923010 7.180418
v 24.630283 -1.211467 4.708945
v -39.635345 -6.849615 0.020290
v -33.185539 -10.982735 0.020289
v -38.479523 -6.569192 2.666641
v 26.328545 -2.150085 4.671457
v 26.329817 -0.684950 0.020288
v 24.706604 0.491631 0.020288
v 26.451891 -8.725452 5.812632
v 28.745396 -8.736672 5.817738
v 28.622046 -2.280018 4.676497
v 28.623325 -0.847736 0.020288
v 30.723476 -9.067483 5.800001
v 30.603821 -2.033993 4.580759
v 30.605297 -0.415009 0.020288
v 34.588062 -10.817475 6.596190
v 34.615337 -1.729452 5.626603
v 34.616749 0.158938 0.020288
v 38.349186 -2.548888 7.154552
v 38.154423 -1.229676 6.381340
v 38.115723 -7.200191 7.544954
v 41.699215 -2.270144 6.254900
v 40.051815 -0.689790 0.020287
v 42.290230 -0.785124 0.020287
v 46.111752 -3.203992 0.020287
v 43.970619 -4.376343 4.992795
v 46.245514 -5.018682 1.863797
v 43.926949 -7.796108 5.354508
v 44.865433 -2.284051 0.020287
v 43.251217 -3.233218 5.567817
v 44.369148 -10.785564 4.355290
v 47.065620 -7.224848 1.826778
v 46.802666 -10.683514 2.257491
v 47.834869 -7.260926 0.020286
v 47.055946 -4.574465 0.020287
v 40.009083 -4.081206 7.823228
v 41.686516 -3.642968 7.701827
v 43.191826 -5.186909 6.663575
v 46.613003 -10.403695 0.020286
v 20.303812 -7.464421 10.322516
v 9.162395 -11.350908 18.320623
v 18.999916 -8.768720 15.653110
v 14.939086 -7.623108 13.974401
v 23.728884 -8.865463 11.929607
v 20.303812 -7.464421 10.322516
v 20.303812 -7.464421 10.322516
v 23.728884 -8.865463 11.929607
v 2.172913 4.043606 0.020290
v 13.825727 4.043606 0.020290
v 24.706604 0.491631 0.020288
v -27.903320 -0.807752 0.020290
v -28.519997 -10.385812 7.835188
v 13.479261 4.043607 -4.846068
v 2.111641 4.043607 -5.429824
v 2.111641 4.043607 -10.844195
v 15.438866 4.043606 -10.161143
v 2.111640 4.043607 -14.972342
v 20.425884 4.043607 -5.023365
v 15.438866 4.043606 -10.161143
v 13.479261 4.043607 -4.846068
v 15.441350 -1.754505 -14.302658
v 2.513261 -1.689670 -18.231203
v 23.627438 4.043607 -4.653723
v 22.985703 -4.923008 -7.139910
v 15.441350 -1.754505 -14.302658
v 9.381144 -3.582360 -17.032183
v 2.808128 -6.712363 -19.755529
v 24.630283 -1.211465 -4.668369
v 20.303812 -7.464417 -10.281940
v 14.939086 -7.623103 -13.933824
v 9.162395 -11.350903 -18.280050
v 2.723140 -12.688791 -18.844589
v -4.145142 4.043607 -5.357130
v -4.615427 4.043607 -10.861662
v -11.747272 4.043607 -5.160283
v -4.698735 -1.185660 -16.135958
v -13.629147 -0.868487 -10.985011
v -22.089876 -1.550128 -6.709936
v -4.115181 -7.533678 -19.879549
v -10.173035 -6.822273 -18.156364
v -17.962337 -5.744047 -14.474582
v -28.769379 -4.701899 -7.773917
v -3.934796 -13.502446 -18.134798
v -11.040910 -13.176607 -17.295679
v -15.992254 -14.102660 -15.640751
v -20.548895 -12.008154 -13.514264
v -28.519997 -10.385810 -7.794678
v -38.479523 -6.569191 -2.626061
v 20.303812 -7.464417 -10.281940
v 23.881187 -8.677414 -5.975153
v 22.985703 -4.923008 -7.139910
v 24.630283 -1.211465 -4.668369
v -38.479523 -6.569191 -2.626061
v 26.328545 -2.150084 -4.630948
v 26.451891 -8.725451 -5.772125
v 28.622046 -2.280017 -4.635987
v 28.745396 -8.736670 -5.777165
v 30.603821 -2.033992 -4.540251
v 30.723476 -9.067481 -5.759428
v 34.615337 -1.729450 -5.586027
v 34.588062 -10.817473 -6.555685
v 38.349186 -2.548886 -7.114045
v 38.154423 -1.229673 -6.340831
v 38.115723 -7.200188 -7.504380
v 41.699215 -2.270143 -6.214326
v 46.245514 -5.018681 -1.823224
v 43.970619 -4.376341 -4.952220
v 43.926949 -7.796106 -5.313936
v 43.251217 -3.233216 -5.527309
v 44.369148 -10.785563 -4.314718
v 47.065620 -7.224847 -1.786274
v 46.802666 -10.683514 -2.216987
v 41.686516 -3.642966 -7.661321
v 40.009083 -4.081203 -7.782720
v 43.191826 -5.186907 -6.623070
v 20.303812 -7.464417 -10.281940
v 9.162395 -11.350903 -18.280050
v 18.999914 -8.768714 -15.612536
v 14.939086 -7.623103 -13.933824
v 23.728884 -8.865459 -11.889033
v 20.303812 -7.464417 -10.281940
v 20.303812 -7.464417 -10.281940
v 23.728884 -8.865459 -11.889033
v -28.519997 -10.385810 -7.794678
vt 0.484300 0.209700
vt 0.433600 0.200000
vt 0.486100 0.307300
vt 0.561200 0.308100
vt 0.562300 0.205300
vt 0.615500 0.313100
vt 0.433500 0.145400
vt 0.431700 0.187100
vt 0.494600 0.166100
vt 0.484500 0.208400
vt 0.564100 0.206400
vt 0.617900 0.198400
vt 0.650200 0.312300
vt 0.433900 0.118200
vt 0.490700 0.132500
vt 0.561700 0.073500
vt 0.617200 0.198800
vt 0.666300 0.260100
vt 0.707000 0.333200
vt 0.499100 0.097600
vt 0.640100 0.089600
vt 0.719600 0.201400
vt 0.765700 0.285700
vt 0.780800 0.357400
vt 0.433600 0.304500
vt 0.433500 0.352600
vt 0.484400 0.362100
vt 0.433500 0.392900
vt 0.567800 0.370900
vt 0.481400 0.416600
vt 0.629900 0.384400
vt 0.562200 0.451700
vt 0.511900 0.527600
vt 0.431900 0.479600
vt 0.431800 0.538200
vt 0.711300 0.389900
vt 0.665400 0.447000
vt 0.605500 0.502200
vt 0.540600 0.580100
vt 0.761800 0.421600
vt 0.727200 0.482700
vt 0.687800 0.544900
vt 0.631900 0.591500
vt 0.574000 0.629100
vt 0.491000 0.664900
vt 0.429300 0.627400
vt 0.428500 0.672600
vt 0.206500 0.047500
vt 0.161600 0.113100
vt 0.168600 0.010500
vt 0.272900 0.024300
vt 0.429000 0.672900
vt 0.511400 0.656200
vt 0.438600 0.636800
vt 0.262600 0.042200
vt 0.309200 0.042200
vt 0.305000 0.023300
vt 0.174300 0.045800
vt 0.174200 0.077900
vt 0.264500 0.076200
vt 0.320100 0.074300
vt 0.169500 0.105600
vt 0.268000 0.103900
vt 0.337300 0.103900
vt 0.131900 0.159700
vt 0.272300 0.160100
vt 0.345400 0.160100
vt 0.260800 0.212300
vt 0.279200 0.186300
vt 0.195700 0.209100
vt 0.269900 0.258700
vt 0.322300 0.232400
vt 0.320900 0.288000
vt 0.295700 0.347800
vt 0.237800 0.303000
vt 0.228800 0.345700
vt 0.301100 0.328300
vt 0.253800 0.292900
vt 0.197900 0.357100
vt 0.189900 0.302400
vt 0.129900 0.294200
vt 0.130000 0.334200
vt 0.197500 0.409900
vt 0.253900 0.401200
vt 0.242700 0.232600
vt 0.248900 0.256100
vt 0.227200 0.277100
vt 0.123600 0.399500
vt 0.111900 0.785300
vt 0.064200 0.804300
vt 0.028600 0.754700
vt 0.150100 0.821200
vt 0.119200 0.832600
vt 0.433600 0.303400
vt 0.433600 0.203500
vt 0.470300 0.100900
vt 0.431500 0.548200
vt 0.569300 0.611200
vt 0.484300 0.209700
vt 0.486100 0.307300
vt 0.561200 0.308100
vt 0.562300 0.205300
vt 0.615500 0.313100
vt 0.494600 0.166100
vt 0.564100 0.206400
vt 0.484500 0.208400
vt 0.617900 0.198400
vt 0.650200 0.312300
vt 0.490700 0.132500
vt 0.561700 0.073500
vt 0.617200 0.198800
vt 0.666300 0.260100
vt 0.707000 0.333200
vt 0.499100 0.097600
vt 0.640100 0.089600
vt 0.719600 0.201400
vt 0.765700 0.285700
vt 0.780800 0.357400
vt 0.484400 0.362100
vt 0.567800 0.370900
vt 0.481400 0.416600
vt 0.629900 0.384400
vt 0.562200 0.451700
vt 0.511900 0.527600
vt 0.711300 0.389900
vt 0.665400 0.447000
vt 0.605500 0.502200
vt 0.540600 0.580100
vt 0.761800 0.421600
vt 0.727200 0.482700
vt 0.687800 0.544900
vt 0.631900 0.591500
vt 0.574000 0.629100
vt 0.491000 0.664900
vt 0.206500 0.047500
vt 0.168600 0.010500
vt 0.161600 0.113100
vt 0.272900 0.024300
vt 0.438600 0.636800
vt 0.262600 0.042200
vt 0.174300 0.045800
vt 0.264500 0.076200
vt 0.174200 0.077900
vt 0.268000 0.103900
vt 0.169500 0.105600
vt 0.272300 0.160100
vt 0.131900 0.159700
vt 0.260800 0.212300
vt 0.279200 0.186300
vt 0.195700 0.209100
vt 0.269900 0.258700
vt 0.228800 0.345700
vt 0.237800 0.303000
vt 0.253800 0.292900
vt 0.197900 0.357100
vt 0.189900 0.302400
vt 0.129900 0.294200
vt 0.130000 0.334200
vt 0.248900 0.256100
vt 0.242700 0.232600
vt 0.227200 0.277100
vt 0.111900 0.785300
vt 0.028600 0.754700
vt 0.064200 0.804300
vt 0.150100 0.821200
vt 0.119200 0.832600
vt 0.569300 0.611200
vn 0.0388 0.9992 0.0085
vn 0.0510 0.9987 -0.0000
vn 0.0000 1.0000 -0.0000
vn 0.3623 0.8274 0.4291
vn -0.0270 0.8284 0.5594
vn 0.2264 0.8744 0.4292
vn -0.0509 0.9986 -0.0113
vn 0.3605 0.8142 0.4552
vn 0.5266 0.1699 0.8330
vn 0.0469 0.4237 0.9046
vn 0.6786 0.7345 0.0000
vn 0.5233 0.6863 0.5052
vn 0.7596 0.0702 0.6465
vn 0.4913 0.3280 0.8068
vn 0.3528 0.2401 0.9044
vn 0.1102 0.0840 0.9904
vn 0.7596 0.2979 0.5782
vn 0.8185 0.2803 0.5014
vn 0.3683 0.4258 0.8264
vn 0.1357 -0.0532 0.9893
vn 0.0383 -0.2932 0.9553
vn 0.0029 1.0000 0.0000
vn -0.2156 0.9130 0.3462
vn -0.2029 0.9424 0.2658
vn -0.2985 0.5747 0.7620
vn -0.3428 0.7200 0.6034
vn -0.3396 0.8016 0.4920
vn -0.3202 0.9474 0.0000
vn -0.4076 0.9132 0.0000
vn -0.1211 0.0819 0.9893
vn -0.3227 0.2827 0.9033
vn -0.4020 0.4176 0.8149
vn -0.4790 0.5087 0.7154
vn -0.0666 -0.2443 0.9674
vn -0.2163 -0.1576 0.9635
vn -0.2541 0.0589 0.9654
vn -0.2921 0.4935 0.8192
vn -0.6090 -0.4380 0.6613
vn -0.8158 0.0906 0.5711
vn -0.4148 0.9099 0.0000
vn -0.9997 -0.0237 0.0001
vn 0.7311 0.1550 0.6645
vn 0.7748 0.3976 0.4916
vn 0.4870 0.0886 0.8689
vn 0.6444 0.4316 0.6312
vn -0.9997 -0.0237 -0.0000
vn -0.4567 -0.8896 -0.0000
vn 0.1794 0.5958 0.7828
vn 0.3455 0.9384 0.0000
vn 0.8373 0.5468 -0.0000
vn 0.0401 0.1728 0.9841
vn 0.0183 0.1729 0.9848
vn -0.0099 0.6342 0.7731
vn -0.0762 0.9971 0.0000
vn -0.0935 0.1415 0.9855
vn -0.1431 0.6690 0.7294
vn -0.1636 0.9865 0.0000
vn -0.3577 0.2599 0.8969
vn -0.2688 0.6234 0.7342
vn -0.0539 0.9985 0.0000
vn -0.1407 0.3568 0.9235
vn 0.0214 0.8121 0.5831
vn -0.3441 0.0983 0.9338
vn 0.3929 0.7930 0.4657
vn 0.1329 0.9911 0.0000
vn 0.2952 0.9554 0.0000
vn 0.7525 0.6586 0.0000
vn 0.8146 0.2638 0.5165
vn 0.7924 0.3882 0.4706
vn 0.5533 0.8330 0.0000
vn 0.7159 0.5397 0.4429
vn 0.8748 0.0454 0.4823
vn 0.7487 -0.0225 0.6625
vn 0.3719 -0.5792 0.7254
vn 0.8993 -0.0139 0.4371
vn 0.9990 -0.0445 0.0000
vn 0.8951 0.4458 0.0000
vn -0.1536 0.2508 0.9558
vn 0.3895 0.5656 0.7269
vn 0.7681 0.2953 0.5682
vn 0.9248 -0.3804 0.0000
vn 0.1248 0.9338 0.3353
vn 0.3683 0.4258 0.8265
vn 0.4374 -0.0377 0.8985
vn 0.8841 0.4614 0.0740
vn 0.8185 0.2803 0.5015
vn -0.0028 1.0000 0.0000
vn -0.0486 0.9988 0.0000
vn 0.9312 0.3645 -0.0000
vn -0.4165 0.9091 0.0000
vn -0.6090 -0.4380 0.6612
vn 0.0388 0.9992 -0.0085
vn 0.3623 0.8274 -0.4291
vn -0.0270 0.8284 -0.5594
vn 0.2264 0.8744 -0.4292
vn 0.3605 0.8142 -0.4552
vn -0.0509 0.9986 0.0113
vn 0.5266 0.1699 -0.8330
vn 0.0469 0.4237 -0.9046
vn 0.5233 0.6863 -0.5052
vn 0.7597 0.0702 -0.6465
vn 0.4913 0.3280 -0.8068
vn 0.3528 0.2401 -0.9044
vn 0.1102 0.0840 -0.9904
vn 0.7596 0.2979 -0.5782
vn 0.8185 0.2803 -0.5014
vn 0.3683 0.4258 -0.8264
vn 0.1357 -0.0532 -0.9893
vn 0.0383 -0.2932 -0.9553
vn -0.2156 0.9130 -0.3462
vn -0.2029 0.9424 -0.2658
vn -0.2985 0.5746 -0.7620
vn -0.3428 0.7200 -0.6034
vn -0.3396 0.8016 -0.4920
vn -0.1211 0.0819 -0.9893
vn -0.3227 0.2827 -0.9033
vn -0.4020 0.4176 -0.8149
vn -0.4790 0.5087 -0.7154
vn -0.0666 -0.2443 -0.9674
vn -0.2163 -0.1576 -0.9635
vn -0.2541 0.0589 -0.9654
vn -0.2921 0.4935 -0.8192
vn -0.6090 -0.4380 -0.6613
vn -0.8158 0.0906 -0.5711
vn 0.7311 0.1550 -0.6645
vn 0.4870 0.0885 -0.8689
vn 0.7748 0.3976 -0.4916
vn 0.6444 0.4316 -0.6313
vn 0.1794 0.5958 -0.7828
vn 0.0401 0.1728 -0.9841
vn -0.0099 0.6342 -0.7731
vn 0.0183 0.1729 -0.9848
vn -0.1431 0.6690 -0.7294
vn -0.0935 0.1415 -0.9855
vn -0.2688 0.6234 -0.7342
vn -0.3577 0.2599 -0.8969
vn -0.1407 0.3568 -0.9235
vn 0.0214 0.8121 -0.5831
vn -0.3441 0.0983 -0.9338
vn 0.3929 0.7930 -0.4657
vn 0.7924 0.3882 -0.4706
vn 0.8146 0.2638 -0.5165
vn 0.7159 0.5397 -0.4429
vn 0.8748 0.0454 -0.4823
vn 0.7487 -0.0225 -0.6625
vn 0.3719 -0.5792 -0.7254
vn 0.8993 -0.0139 -0.4371
vn 0.3895 0.5656 -0.7269
vn -0.1536 0.2507 -0.9558
vn 0.7681 0.2953 -0.5681
vn 0.1248 0.9338 -0.3353
vn 0.4374 -0.0378 -0.8985
vn 0.3683 0.4258 -0.8265
vn 0.8841 0.4614 -0.0740
vn 0.8185 0.2803 -0.5015
vn -0.6090 -0.4380 -0.6612
usemtl Material.001
s 1
f 1/1/1 2/2/2 3/3/3
f 1/1/1 3/3/3 4/4/3
f 5/5/4 1/1/1 4/4/3
f 5/5/4 4/4/3 6/6/5
f 7/7/3 8/8/3 9/9/6
f 9/9/6 10/10/7 11/11/8
f 12/12/9 5/5/4 6/6/5
f 12/12/9 6/6/5 13/13/10
f 14/14/11 7/7/3 15/15/12
f 15/15/12 9/9/6 16/16/13
f 16/16/13 9/9/6 11/11/8
f 16/16/13 11/11/8 17/17/14
f 18/18/15 12/12/9 13/13/10
f 18/18/15 13/13/10 19/19/16
f 20/20/17 15/15/12 16/16/13
f 21/21/18 16/16/13 17/17/14
f 21/21/18 17/17/14 22/22/19
f 22/22/19 17/17/14 18/18/15
f 22/22/19 18/18/15 23/23/20
f 23/23/20 18/18/15 19/19/16
f 23/23/20 19/19/16 24/24/21
f 3/3/3 25/25/22 26/26/3
f 4/4/3 3/3/3 27/27/3
f 27/27/3 26/26/3 28/28/3
f 6/6/5 4/4/3 29/29/23
f 29/29/23 4/4/3 27/27/3
f 29/29/23 27/27/3 30/30/24
f 13/13/10 6/6/5 31/31/25
f 31/31/25 6/6/5 29/29/23
f 31/31/25 29/29/23 32/32/26
f 32/32/26 29/29/23 30/30/24
f 32/32/26 30/30/24 33/33/27
f 33/33/27 30/30/24 34/34/28
f 33/33/27 34/34/28 35/35/29
f 19/19/16 13/13/10 36/36/30
f 36/36/30 13/13/10 31/31/25
f 36/36/30 31/31/25 37/37/31
f 37/37/31 31/31/25 32/32/26
f 37/37/31 32/32/26 38/38/32
f 38/38/32 32/32/26 33/33/27
f 38/38/32 33/33/27 39/39/33
f 39/39/33 33/33/27 35/35/29
f 24/24/21 19/19/16 40/40/34
f 40/40/34 19/19/16 36/36/30
f 40/40/34 36/36/30 41/41/35
f 41/41/35 36/36/30 37/37/31
f 41/41/35 37/37/31 42/42/36
f 42/42/36 37/37/31 38/38/32
f 42/42/36 38/38/32 43/43/37
f 43/43/37 38/38/32 39/39/33
f 44/44/38 39/39/33 45/45/39
f 45/45/39 46/46/40 47/47/41
f 50/48/42 48/49/43 49/50/44
f 50/48/42 49/50/44 51/51/45
f 52/52/46 53/53/47 54/54/39
f 51/51/45 55/55/48 56/56/49
f 56/56/49 57/57/50 51/51/45
f 49/50/44 58/58/51 55/55/48
f 55/55/48 51/51/45 49/50/44
f 58/58/51 59/59/52 60/60/53
f 60/60/53 55/55/48 58/58/51
f 55/55/48 60/60/53 61/61/54
f 61/61/54 56/56/49 55/55/48
f 59/59/52 62/62/55 63/63/56
f 63/63/56 60/60/53 59/59/52
f 60/60/53 63/63/56 64/64/57
f 64/64/57 61/61/54 60/60/53
f 62/62/55 65/65/58 66/66/59
f 66/66/59 63/63/56 62/62/55
f 63/63/56 66/66/59 67/67/60
f 67/67/60 64/64/57 63/63/56
f 68/68/61 69/69/62 66/66/59
f 70/70/63 68/68/61 66/66/59
f 65/65/58 70/70/63 66/66/59
f 68/68/61 71/71/64 69/69/62
f 67/67/60 66/66/59 69/69/62
f 72/72/65 67/67/60 69/69/62
f 71/71/64 72/72/65 69/69/62
f 72/72/65 71/71/64 73/73/66
f 74/74/67 75/75/68 76/76/69
f 74/74/67 78/77/70 79/78/71
f 79/78/71 75/75/68 74/74/67
f 81/79/72 76/76/69 75/75/68
f 81/79/72 75/75/68 77/80/73
f 81/79/72 77/80/73 80/81/74
f 82/82/75 81/79/72 80/81/74
f 81/79/72 83/83/76 84/84/77
f 68/68/61 85/85/78 86/86/79
f 86/86/79 71/71/64 68/68/61
f 87/87/80 75/75/68 79/78/71
f 86/86/79 87/87/80 79/78/71
f 71/71/64 86/86/79 79/78/71
f 85/85/78 68/68/61 70/70/63
f 88/88/81 83/83/76 81/79/72
f 91/89/82 92/90/83 90/91/84
f 92/90/83 91/89/82 93/92/85
f 93/92/85 94/93/86 92/90/83
f 73/73/66 71/71/64 79/78/71
f 79/78/71 78/77/70 73/73/66
f 43/43/37 39/39/33 44/44/38
f 2/2/2 97/94/87 3/3/3
f 8/8/3 98/95/88 10/10/7
f 9/9/6 8/8/3 10/10/7
f 15/15/12 7/7/3 9/9/6
f 99/96/89 14/14/11 20/20/17
f 20/20/17 14/14/11 15/15/12
f 27/27/3 3/3/3 26/26/3
f 30/30/24 27/27/3 28/28/3
f 30/30/24 28/28/3 34/34/28
f 39/39/33 100/97/90 46/46/40
f 39/39/33 35/35/29 100/97/90
f 45/45/39 39/39/33 46/46/40
f 54/54/39 53/53/47 101/98/91
f 76/76/69 84/84/77 74/74/67
f 84/84/77 76/76/69 81/79/72
f 81/79/72 82/82/75 88/88/81
f 102/99/92 103/100/3 2/2/2
f 102/99/92 104/101/3 103/100/3
f 105/102/93 104/101/3 102/99/92
f 105/102/93 106/103/94 104/101/3
f 7/7/3 107/104/95 8/8/3
f 107/104/95 108/105/96 109/106/97
f 110/107/98 106/103/94 105/102/93
f 110/107/98 111/108/99 106/103/94
f 14/14/11 112/109/100 7/7/3
f 112/109/100 113/110/101 107/104/95
f 113/110/101 108/105/96 107/104/95
f 113/110/101 114/111/102 108/105/96
f 115/112/103 111/108/99 110/107/98
f 115/112/103 116/113/104 111/108/99
f 117/114/105 113/110/101 112/109/100
f 118/115/106 114/111/102 113/110/101
f 118/115/106 119/116/107 114/111/102
f 119/116/107 115/112/103 114/111/102
f 119/116/107 120/117/108 115/112/103
f 120/117/108 116/113/104 115/112/103
f 120/117/108 121/118/109 116/113/104
f 103/100/3 26/26/3 25/25/22
f 104/101/3 122/119/3 103/100/3
f 122/119/3 28/28/3 26/26/3
f 106/103/94 123/120/110 104/101/3
f 123/120/110 122/119/3 104/101/3
f 123/120/110 124/121/111 122/119/3
f 111/108/99 125/122/112 106/103/94
f 125/122/112 123/120/110 106/103/94
f 125/122/112 126/123/113 123/120/110
f 126/123/113 124/121/111 123/120/110
f 126/123/113 127/124/114 124/121/111
f 127/124/114 34/34/28 124/121/111
f 127/124/114 35/35/29 34/34/28
f 116/113/104 128/125/115 111/108/99
f 128/125/115 125/122/112 111/108/99
f 128/125/115 129/126/116 125/122/112
f 129/126/116 126/123/113 125/122/112
f 129/126/116 130/127/117 126/123/113
f 130/127/117 127/124/114 126/123/113
f 130/127/117 131/128/118 127/124/114
f 131/128/118 35/35/29 127/124/114
f 121/118/109 132/129/119 116/113/104
f 132/129/119 128/125/115 116/113/104
f 132/129/119 133/130/120 128/125/115
f 133/130/120 129/126/116 128/125/115
f 133/130/120 134/131/121 129/126/116
f 134/131/121 130/127/117 129/126/116
f 134/131/121 135/132/122 130/127/117
f 135/132/122 131/128/118 130/127/117
f 136/133/123 137/134/124 131/128/118
f 137/134/124 47/47/41 46/46/40
f 140/135/125 139/136/126 138/137/127
f 140/135/125 141/138/128 139/136/126
f 52/52/46 142/139/124 53/53/47
f 141/138/128 56/56/49 143/140/129
f 56/56/49 141/138/128 57/57/50
f 139/136/126 143/140/129 144/141/130
f 143/140/129 139/136/126 141/138/128
f 144/141/130 145/142/131 146/143/132
f 145/142/131 144/141/130 143/140/129
f 143/140/129 61/61/54 145/142/131
f 61/61/54 143/140/129 56/56/49
f 146/143/132 147/144/133 148/145/134
f 147/144/133 146/143/132 145/142/131
f 145/142/131 64/64/57 147/144/133
f 64/64/57 145/142/131 61/61/54
f 148/145/134 149/146/135 150/147/136
f 149/146/135 148/145/134 147/144/133
f 147/144/133 67/67/60 149/146/135
f 67/67/60 147/144/133 64/64/57
f 151/148/137 149/146/135 152/149/138
f 153/150/139 149/146/135 151/148/137
f 150/147/136 149/146/135 153/150/139
f 151/148/137 152/149/138 154/151/140
f 67/67/60 152/149/138 149/146/135
f 72/72/65 152/149/138 67/67/60
f 154/151/140 152/149/138 72/72/65
f 72/72/65 73/73/66 154/151/140
f 74/74/67 155/152/141 156/153/142
f 74/74/67 158/154/143 78/77/70
f 158/154/143 74/74/67 156/153/142
f 160/155/144 156/153/142 155/152/141
f 160/155/144 157/156/145 156/153/142
f 160/155/144 159/157/146 157/156/145
f 161/158/147 159/157/146 160/155/144
f 160/155/144 84/84/77 83/83/76
f 151/148/137 162/159/148 163/160/149
f 162/159/148 151/148/137 154/151/140
f 164/161/150 158/154/143 156/153/142
f 162/159/148 158/154/143 164/161/150
f 154/151/140 158/154/143 162/159/148
f 163/160/149 153/150/139 151/148/137
f 88/88/81 160/155/144 83/83/76
f 167/162/151 166/163/152 168/164/153
f 168/164/153 169/165/154 167/162/151
f 169/165/154 168/164/153 170/166/155
f 73/73/66 158/154/143 154/151/140
f 158/154/143 73/73/66 78/77/70
f 135/132/122 136/133/123 131/128/118
f 2/2/2 103/100/3 97/94/87
f 8/8/3 109/106/97 98/95/88
f 107/104/95 109/106/97 8/8/3
f 112/109/100 107/104/95 7/7/3
f 99/96/89 117/114/105 14/14/11
f 117/114/105 112/109/100 14/14/11
f 122/119/3 26/26/3 103/100/3
f 124/121/111 28/28/3 122/119/3
f 124/121/111 34/34/28 28/28/3
f 131/128/118 46/46/40 100/97/90
f 131/128/118 100/97/90 35/35/29
f 137/134/124 46/46/40 131/128/118
f 142/139/124 173/167/156 53/53/47
f 155/152/141 74/74/67 84/84/77
f 84/84/77 160/155/144 155/152/141
f 160/155/144 88/88/81 161/158/147
