# Blender v2.79 (sub 0) OBJ File: ''
# www.blender.org
mtllib CapsuleBroke.mtl
v 15.466529 1.985447 -6.406445
v 15.466529 8.463353 -6.406443
v 6.406444 1.985451 -15.466529
v -6.406445 1.985451 -15.466529
v -6.406445 8.463357 -15.466527
v -15.466529 1.985447 -6.406444
v -15.466529 8.463353 -6.406442
v -15.466529 1.985443 6.406446
v -6.406444 1.985440 15.466529
v -6.406444 8.463346 15.466531
v 6.406444 1.985440 15.466529
v 15.466529 1.985443 6.406446
v 0.000008 8.463351 0.000006
v -3.960001 3.339969 14.902340
v -2.922481 3.339965 22.522875
v -2.930402 5.175625 14.902340
v -4.934827 -0.059394 17.239683
v -3.641902 -0.059396 23.152340
v 3.960003 3.339969 14.902340
v 2.930402 5.175625 14.902340
v 4.934828 -0.059394 17.239683
v 2.922482 3.339965 22.522875
v 3.641903 -0.059396 23.152340
v -14.902338 3.339975 -3.959997
v -22.522875 3.339973 -2.930398
v -14.902338 5.175631 -2.930398
v -17.239683 -0.059386 -4.949998
v -23.152340 -0.059386 -3.662998
v -14.902338 3.339971 3.960006
v -14.902338 5.175629 2.930408
v -17.239683 -0.059390 4.950007
v -22.522875 3.339972 2.930408
v -23.152340 -0.059389 3.663007
v 3.960000 3.339978 -14.902336
v 2.922479 3.339981 -22.522875
v 2.930400 5.175634 -14.902336
v 4.934824 -0.059382 -17.239683
v 3.641899 -0.059380 -23.152340
v -3.960004 3.339978 -14.902336
v -2.930405 5.175634 -14.902336
v -4.934831 -0.059382 -17.239683
v -2.922485 3.339981 -22.522875
v -3.641905 -0.059380 -23.152340
v 14.902338 3.339971 3.960001
v 22.522875 3.339972 2.930403
v 14.902338 5.175629 2.930403
v 17.239683 -0.059390 4.950000
v 23.152340 -0.059389 3.663000
v 14.902338 3.339975 -3.960002
v 14.902338 5.175631 -2.930401
v 17.239683 -0.059386 -4.950004
v 22.522875 3.339973 -2.930403
v 23.152340 -0.059386 -3.663004
v 5.728138 8.461139 0.000002
v 5.728138 14.826163 0.000004
v 3.608727 16.800838 0.000006
v 2.864069 8.461141 -4.960710
v 2.864069 14.826165 -4.960709
v 1.804363 16.800838 -3.125245
v -2.864070 8.461141 -4.960710
v -2.864070 14.826165 -4.960709
v -1.804364 16.800838 -3.125245
v -5.728138 8.461139 0.000003
v -5.728138 14.826163 0.000006
v -3.608727 16.800838 0.000006
v -2.864068 8.461137 4.960716
v -2.864068 14.826161 4.960718
v -1.804363 16.800838 3.125256
v 2.864070 8.461137 4.960715
v 2.864070 14.826161 4.960717
v 1.804365 16.800838 3.125255
v 6.406443 8.463357 -15.466527
v -15.466529 8.463349 6.406446
v 6.406443 8.463346 15.466531
v 15.466529 8.463349 6.406446
vt 0.968627 -0.996078
vt 0.768627 -0.027451
vt 0.839216 -0.996078
vt 0.196078 -0.027451
vt 0.125490 -0.996078
vt 0.094118 -0.027451
vt 0.000000 -0.996078
vt 0.870588 -0.027451
vt 0.968627 -0.996078
vt 0.768627 -0.027451
vt 0.839216 -0.996078
vt 0.196078 -0.027451
vt 0.125490 -0.996078
vt 0.094118 -0.027451
vt 0.000000 -0.996078
vt 0.870588 -0.027451
vt 0.000000 -0.996078
vt 0.196078 -0.027451
vt 0.125490 -0.996078
vt 0.768627 -0.027451
vt 0.839216 -0.996078
vt 0.870588 -0.027451
vt 0.968627 -0.996078
vt 0.094118 -0.027451
vt 0.094118 -0.027451
vt 0.968627 -0.996078
vt 0.870588 -0.027451
vt 0.839216 -0.996078
vt 0.768627 -0.027451
vt 0.125490 -0.996078
vt 0.196078 -0.027451
vt 0.000000 -0.996078
vt 2.494118 -1.000000
vt 2.494118 0.000000
vt 2.007843 0.000000
vt 2.007843 -1.000000
vt 1.505882 0.000000
vt 1.505882 -1.000000
vt 1.003922 0.000000
vt 1.003922 -1.000000
vt 0.501961 0.000000
vt 0.501961 -1.000000
vt 0.000000 0.000000
vt 0.000000 -1.000000
vt -0.501961 0.000000
vt -0.501961 -1.000000
vt 1.996078 -0.027451
vt 0.000000 -0.027451
vt 1.996078 -1.000000
vt 0.000000 -1.000000
vt 1.996078 -0.027451
vt 0.000000 -0.027451
vt 1.996078 -1.000000
vt 0.000000 -1.000000
vt 1.996078 -0.027451
vt 0.000000 -0.027451
vt 1.996078 -1.000000
vt 0.000000 -1.000000
vt 1.996078 -0.027451
vt 0.000000 -0.027451
vt 1.996078 -1.000000
vt 0.000000 -1.000000
vt 4.992157 -1.000000
vt 4.992157 0.000000
vt 4.015687 0.000000
vt 4.015687 -1.000000
vt 3.011765 0.000000
vt 3.011765 -1.000000
vt 2.007843 0.000000
vt 2.007843 -1.000000
vt 1.003922 0.000000
vt 1.003922 -1.000000
vt 0.000000 0.000000
vt 0.000000 -1.000000
vt -1.003922 0.000000
vt -1.003922 -1.000000
vt 0.000000 -0.027451
vt 0.125490 -0.027451
vt 0.125490 -1.000000
vt 0.839216 -0.027451
vt 0.839216 -1.000000
vt 0.968627 -0.027451
vt 0.000000 -0.027451
vt 0.125490 -0.027451
vt 0.125490 -1.000000
vt 0.839216 -0.027451
vt 0.839216 -1.000000
vt 0.968627 -0.027451
vt 0.000000 -0.027451
vt 0.125490 -0.027451
vt 0.125490 -1.000000
vt 0.839216 -0.027451
vt 0.839216 -1.000000
vt 0.968627 -0.027451
vt 0.000000 -0.027451
vt 0.125490 -0.027451
vt 0.125490 -1.000000
vt 0.839216 -0.027451
vt 0.839216 -1.000000
vt 0.968627 -0.027451
vt 0.000000 0.996078
vt 0.968627 0.996078
vt 0.482353 -1.000000
vt 0.000000 0.996078
vt 0.968627 0.996078
vt 0.000000 0.996078
vt 0.968627 0.996078
vt 0.000000 0.996078
vt 0.968627 0.996078
vt 0.000000 0.996078
vt 0.968627 0.996078
vt 0.000000 0.996078
vt 0.968627 0.996078
vt 0.000000 0.996078
vt 0.968627 0.996078
vt 0.000000 0.996078
vt 0.968627 0.996078
vt 2.000000 -0.027451
vt 0.000000 -0.027451
vt 2.000000 -1.000000
vt 0.000000 -1.000000
vt 2.000000 -0.027451
vt 0.000000 -0.027451
vt 2.000000 -1.000000
vt 0.000000 -1.000000
vt 2.000000 -0.027451
vt 0.000000 -0.027451
vt 2.000000 -1.000000
vt 0.000000 -1.000000
vt 2.000000 -0.027451
vt 0.000000 -0.027451
vt 2.000000 -1.000000
vt 0.000000 -1.000000
vn 0.9347 0.3229 0.1483
vn 0.4714 0.6243 0.6230
vn 0.6163 0.2676 0.7407
vn -0.4914 0.6164 0.6153
vn -0.6288 0.2987 0.7179
vn -0.8946 0.4242 0.1404
vn -0.8984 0.3927 0.1965
vn 0.0000 -0.5666 -0.8240
vn 0.8932 0.4328 0.1216
vn -0.1472 0.3260 0.9338
vn -0.6227 0.6251 0.4706
vn -0.7393 0.2699 0.6169
vn -0.6151 0.6172 -0.4906
vn -0.7165 0.3010 -0.6293
vn -0.1394 0.4254 -0.8942
vn -0.1953 0.3957 -0.8974
vn 0.8240 -0.5666 -0.0000
vn -0.1206 0.4341 0.8928
vn -0.9347 0.3229 -0.1483
vn -0.4714 0.6243 -0.6230
vn -0.6163 0.2676 -0.7407
vn 0.4914 0.6164 -0.6153
vn 0.6288 0.2987 -0.7179
vn 0.8946 0.4242 -0.1404
vn 0.8984 0.3927 -0.1965
vn 0.0000 -0.5666 0.8240
vn -0.8932 0.4328 -0.1216
vn -0.8240 -0.5666 -0.0000
vn 0.1394 0.4254 0.8942
vn 0.1953 0.3957 0.8974
vn 0.7165 0.3010 0.6293
vn 0.6151 0.6172 0.4906
vn 0.7393 0.2699 -0.6169
vn 0.6227 0.6251 -0.4706
vn 0.1472 0.3260 -0.9338
vn 0.1206 0.4341 -0.8928
vn 1.0000 -0.0000 -0.0000
vn 0.9334 0.3587 -0.0000
vn 0.4667 0.3587 0.8084
vn 0.5000 -0.0000 0.8660
vn -0.4667 0.3587 0.8084
vn -0.5000 -0.0000 0.8660
vn -0.9334 0.3587 0.0000
vn -1.0000 -0.0000 0.0000
vn -0.4667 0.3587 -0.8084
vn -0.5000 0.0000 -0.8660
vn 0.4667 0.3587 -0.8084
vn 0.5000 0.0000 -0.8660
vn 0.3827 0.0000 -0.9239
vn 0.9239 0.0000 -0.3827
vn -0.9239 0.0000 -0.3827
vn -0.3827 0.0000 -0.9239
vn 0.9239 -0.0000 0.3827
vn 0.3827 -0.0000 0.9239
vn -0.3827 -0.0000 0.9239
vn -0.9239 -0.0000 0.3827
vn 0.6817 0.7316 -0.0000
vn 0.3408 0.7316 0.5904
vn -0.3408 0.7316 0.5904
vn -0.6817 0.7316 0.0000
vn -0.3408 0.7316 -0.5904
vn 0.3408 0.7316 -0.5904
vn 0.4649 0.8606 0.2078
vn -0.4649 0.8606 0.2078
vn -0.2074 0.8608 0.4647
vn -0.2074 0.8608 -0.4647
vn -0.4649 0.8606 -0.2078
vn 0.4649 0.8606 -0.2078
vn 0.2074 0.8608 -0.4647
vn 0.2074 0.8608 0.4647
vn -0.0000 1.0000 0.0000
usemtl material_4B970C
s 1
f 21/1/1 22/2/2 23/3/3
f 23/3/3 22/2/2 15/4/4
f 23/3/3 15/4/4 18/5/5
f 18/5/5 15/4/4 14/6/6
f 18/5/5 14/6/6 17/7/7
f 17/7/8 14/6/8 19/8/8
f 17/7/8 19/8/8 21/1/8
f 21/1/1 19/8/9 22/2/2
f 31/9/10 32/10/11 33/11/12
f 33/11/12 32/10/11 25/12/13
f 33/11/12 25/12/13 28/13/14
f 28/13/14 25/12/13 24/14/15
f 28/13/14 24/14/15 27/15/16
f 27/15/17 24/14/17 29/16/17
f 27/15/17 29/16/17 31/9/17
f 31/9/10 29/16/18 32/10/11
f 41/17/19 42/18/20 43/19/21
f 43/19/21 42/18/20 35/20/22
f 43/19/21 35/20/22 38/21/23
f 38/21/23 35/20/22 34/22/24
f 38/21/23 34/22/24 37/23/25
f 37/23/26 34/22/26 39/24/26
f 37/23/26 39/24/26 41/17/26
f 41/17/19 39/24/27 42/18/20
f 49/25/28 47/26/28 44/27/28
f 44/27/29 47/26/30 48/28/31
f 44/27/29 48/28/31 45/29/32
f 45/29/32 48/28/31 53/30/33
f 45/29/32 53/30/33 52/31/34
f 52/31/34 53/30/33 51/32/35
f 52/31/34 51/32/35 49/25/36
f 49/25/28 51/32/28 47/26/28
usemtl material_4B9734
f 54/33/37 55/34/38 70/35/39
f 54/33/37 70/35/39 69/36/40
f 69/36/40 70/35/39 67/37/41
f 69/36/40 67/37/41 66/38/42
f 66/38/42 67/37/41 64/39/43
f 66/38/42 64/39/43 63/40/44
f 63/40/44 64/39/43 61/41/45
f 63/40/44 61/41/45 60/42/46
f 60/42/46 61/41/45 58/43/47
f 60/42/46 58/43/47 57/44/48
f 57/44/48 58/43/47 55/45/38
f 57/44/48 55/45/38 54/46/37
usemtl material_4B96E4
f 72/47/49 2/48/50 3/49/49
f 3/49/49 2/48/50 1/50/50
f 7/51/51 5/52/52 6/53/51
f 6/53/51 5/52/52 4/54/52
f 75/55/53 74/56/54 12/57/53
f 12/57/53 74/56/54 11/58/54
f 10/59/55 73/60/56 9/61/55
f 9/61/55 73/60/56 8/62/56
f 55/63/38 56/64/57 71/65/58
f 55/63/38 71/65/58 70/66/39
f 70/66/39 71/65/58 68/67/59
f 70/66/39 68/67/59 67/68/41
f 67/68/41 68/67/59 65/69/60
f 67/68/41 65/69/60 64/70/43
f 64/70/43 65/69/60 62/71/61
f 64/70/43 62/71/61 61/72/45
f 61/72/45 62/71/61 59/73/62
f 61/72/45 59/73/62 58/74/47
f 58/74/47 59/73/62 56/75/57
f 58/74/47 56/75/57 55/76/38
usemtl material_4B9720
f 19/77/9 20/78/63 22/79/2
f 22/79/2 20/78/63 16/80/64
f 22/79/2 16/80/64 15/81/4
f 15/81/4 16/80/64 14/82/6
f 29/83/18 30/84/65 32/85/11
f 32/85/11 30/84/65 26/86/66
f 32/85/11 26/86/66 25/87/13
f 25/87/13 26/86/66 24/88/15
f 39/89/27 40/90/67 42/91/20
f 42/91/20 40/90/67 36/92/68
f 42/91/20 36/92/68 35/93/22
f 35/93/22 36/92/68 34/94/24
f 49/95/36 50/96/69 52/97/34
f 52/97/34 50/96/69 46/98/70
f 52/97/34 46/98/70 45/99/32
f 45/99/32 46/98/70 44/100/29
usemtl material_4B96F8
f 74/101/71 75/102/71 13/103/71
f 5/104/71 7/105/71 13/103/71
f 13/103/71 75/106/71 2/107/71
f 72/108/71 5/109/71 13/103/71
f 2/110/71 72/111/71 13/103/71
f 13/103/71 7/112/71 73/113/71
f 10/114/71 74/115/71 13/103/71
f 73/116/71 10/117/71 13/103/71
usemtl material_4B96D0
f 73/118/56 7/119/51 8/120/56
f 8/120/56 7/119/51 6/121/51
f 2/122/50 75/123/53 1/124/50
f 1/124/50 75/123/53 12/125/53
f 74/126/54 10/127/55 11/128/54
f 11/128/54 10/127/55 9/129/55
f 5/130/52 72/131/49 4/132/52
f 4/132/52 72/131/49 3/133/49
