# Blender v2.79 (sub 0) OBJ File: ''
# www.blender.org
mtllib CapsuleTop.mtl
v 3.601259 16.588924 0.000003
v 3.601259 27.431074 0.000004
v 1.800630 16.588924 -3.118779
v 1.800630 27.431074 -3.118777
v -1.800630 16.588924 -3.118779
v -1.800630 27.431074 -3.118777
v -3.601259 16.588924 0.000003
v -3.601259 27.431074 0.000004
v -1.800629 16.588924 3.118784
v -1.800629 27.431074 3.118786
v 1.800631 16.588924 3.118784
v 1.800631 27.431074 3.118786
v 10.032445 32.866043 10.032452
v 14.188021 27.366043 0.000004
v 14.188021 32.866043 0.000005
v 10.032445 27.366045 -10.032439
v 10.032445 32.866043 -10.032438
v 0.000000 27.366045 -14.188016
v 0.000000 32.866047 -14.188015
v -10.032445 27.366045 -10.032439
v -10.032445 32.866043 -10.032438
v -14.188021 27.366043 0.000004
v -14.188021 32.866043 0.000005
v -10.032445 27.366041 10.032451
v -10.032445 32.866043 10.032452
v 0.000000 27.366041 14.188025
v 0.000000 32.866039 14.188026
v 10.032445 27.366041 10.032451
vt 0.584314 2.411765
vt 1.996078 3.000000
vt 3.411765 2.411765
vt 0.000000 1.000000
vt 4.000000 1.000000
vt 0.584314 -0.411765
vt 3.411765 -0.411765
vt 1.996078 -1.000000
vt 1.996078 3.000000
vt 0.584314 2.411765
vt 0.000000 1.000000
vt 1.996078 -1.000000
vt 3.411765 -0.411765
vt 0.584314 -0.411765
vt 4.000000 1.000000
vt 3.411765 2.411765
vt 2.494118 -0.996078
vt 2.494118 0.000000
vt 2.007843 0.000000
vt 2.007843 -0.996078
vt 1.505882 0.000000
vt 1.505882 -0.996078
vt 1.003922 0.000000
vt 1.003922 -0.996078
vt 0.501961 0.000000
vt 0.501961 -0.996078
vt 0.000000 0.000000
vt 0.000000 -0.996078
vt -0.501961 0.000000
vt -0.501961 -0.996078
vt 13.988235 -0.788235
vt 13.988235 0.000000
vt 12.047059 0.000000
vt 12.047059 -0.788235
vt 10.039216 0.000000
vt 10.039216 -0.788235
vt 8.031373 0.000000
vt 8.031373 -0.788235
vt 6.023530 0.000000
vt 6.023530 -0.788235
vt 4.015687 0.000000
vt 4.015687 -0.788235
vt 2.007843 0.000000
vt 2.007843 -0.788235
vt 0.000000 0.000000
vt 0.000000 -0.788235
vt -2.007843 0.000000
vt -2.007843 -0.788235
vn 0.0000 1.0000 0.0000
vn -0.0000 -1.0000 -0.0000
vn 1.0000 -0.0000 -0.0000
vn 0.5000 -0.0000 0.8660
vn -0.5000 -0.0000 0.8660
vn -1.0000 -0.0000 0.0000
vn -0.5000 0.0000 -0.8660
vn 0.5000 0.0000 -0.8660
vn 0.7071 -0.0000 0.7071
vn 0.0000 -0.0000 1.0000
vn -0.7071 -0.0000 0.7071
vn -0.7071 0.0000 -0.7071
vn -0.0000 0.0000 -1.0000
vn 0.7071 0.0000 -0.7071
usemtl material_4B8BE0
s 1
f 25/1/1 27/2/1 13/3/1
f 25/1/1 13/3/1 23/4/1
f 23/4/1 13/3/1 15/5/1
f 23/4/1 15/5/1 21/6/1
f 21/6/1 15/5/1 17/7/1
f 21/6/1 17/7/1 19/8/1
f 26/9/2 24/10/2 22/11/2
f 18/12/2 16/13/2 20/14/2
f 20/14/2 16/13/2 14/15/2
f 20/14/2 14/15/2 22/11/2
f 22/11/2 14/15/2 28/16/2
f 22/11/2 28/16/2 26/9/2
usemtl material_4B8BCC
f 1/17/3 2/18/3 12/19/4
f 1/17/3 12/19/4 11/20/4
f 11/20/4 12/19/4 10/21/5
f 11/20/4 10/21/5 9/22/5
f 9/22/5 10/21/5 8/23/6
f 9/22/5 8/23/6 7/24/6
f 7/24/6 8/23/6 6/25/7
f 7/24/6 6/25/7 5/26/7
f 5/26/7 6/25/7 4/27/8
f 5/26/7 4/27/8 3/28/8
f 3/28/8 4/27/8 2/29/3
f 3/28/8 2/29/3 1/30/3
usemtl material_4B8BF4
f 14/31/3 15/32/3 13/33/9
f 14/31/3 13/33/9 28/34/9
f 28/34/9 13/33/9 27/35/10
f 28/34/9 27/35/10 26/36/10
f 26/36/10 27/35/10 25/37/11
f 26/36/10 25/37/11 24/38/11
f 24/38/11 25/37/11 23/39/6
f 24/38/11 23/39/6 22/40/6
f 22/40/6 23/39/6 21/41/12
f 22/40/6 21/41/12 20/42/12
f 20/42/12 21/41/12 19/43/13
f 20/42/12 19/43/13 18/44/13
f 18/44/13 19/43/13 17/45/14
f 18/44/13 17/45/14 16/46/14
f 16/46/14 17/45/14 15/47/3
f 16/46/14 15/47/3 14/48/3
