# Blender v2.79 (sub 0) OBJ File: ''
# www.blender.org
mtllib CapsuleBottom.mtl
v 15.466529 1.985446 -6.406445
v 15.466529 8.463352 -6.406444
v 6.406444 1.985448 -15.466529
v 6.406444 8.463354 -15.466528
v -6.406445 1.985448 -15.466529
v -6.406445 8.463354 -15.466528
v -15.466529 1.985446 -6.406444
v -15.466529 8.463352 -6.406443
v -15.466529 1.985444 6.406445
v -15.466529 8.463350 6.406446
v -6.406444 1.985443 15.466529
v -6.406444 8.463348 15.466530
v 6.406444 1.985443 15.466529
v 6.406444 8.463348 15.466530
v 15.466529 1.985444 6.406445
v 15.466529 8.463350 6.406446
v 0.000008 8.463351 0.000005
v -3.960001 3.339971 14.902339
v -2.922481 3.339969 22.522875
v -2.930402 5.175627 14.902339
v -4.934827 -0.059391 17.239683
v -3.641902 -0.059392 23.152340
v 3.960003 3.339971 14.902339
v 2.930402 5.175627 14.902339
v 4.934828 -0.059391 17.239683
v 2.922482 3.339969 22.522875
v 3.641903 -0.059392 23.152340
v -14.902338 3.339974 -3.959998
v -22.522875 3.339973 -2.930398
v -14.902338 5.175630 -2.930399
v -17.239683 -0.059387 -4.949998
v -23.152340 -0.059387 -3.662998
v -14.902338 3.339972 3.960006
v -14.902338 5.175629 2.930407
v -17.239683 -0.059389 4.950007
v -22.522875 3.339972 2.930407
v -23.152340 -0.059388 3.663007
v 3.960000 3.339975 -14.902337
v 2.922479 3.339977 -22.522875
v 2.930400 5.175632 -14.902337
v 4.934824 -0.059385 -17.239683
v 3.641899 -0.059384 -23.152340
v -3.960004 3.339975 -14.902337
v -2.930405 5.175632 -14.902337
v -4.934831 -0.059385 -17.239683
v -2.922485 3.339977 -22.522875
v -3.641905 -0.059384 -23.152340
v 14.902338 3.339972 3.960001
v 22.522875 3.339972 2.930402
v 14.902338 5.175629 2.930402
v 17.239683 -0.059389 4.950000
v 23.152340 -0.059388 3.663000
v 14.902338 3.339974 -3.960003
v 14.902338 5.175630 -2.930402
v 17.239683 -0.059387 -4.950004
v 22.522875 3.339973 -2.930403
v 23.152340 -0.059387 -3.663004
v 5.728138 8.461139 0.000001
v 5.728138 14.826163 0.000002
v 3.608727 16.800838 0.000003
v 2.864069 8.461140 -4.960711
v 2.864069 14.826164 -4.960711
v 1.804363 16.800838 -3.125248
v -2.864070 8.461140 -4.960711
v -2.864070 14.826164 -4.960711
v -1.804364 16.800838 -3.125248
v -5.728138 8.461139 0.000002
v -5.728138 14.826163 0.000004
v -3.608727 16.800838 0.000003
v -2.864068 8.461138 4.960715
v -2.864068 14.826162 4.960716
v -1.804363 16.800838 3.125253
v 2.864070 8.461138 4.960714
v 2.864070 14.826162 4.960715
v 1.804365 16.800838 3.125252
v 0.000000 21.835001 0.000004
v 15.466529 8.463352 -6.406443
v 14.538536 16.826097 -6.022055
v 11.394835 20.426714 -4.719893
v 6.050909 21.857727 -2.506365
v 6.406443 8.463354 -15.466528
v 6.022057 16.826097 -14.538533
v 4.687494 20.426716 -11.473063
v 2.489161 21.857729 -6.092443
v -6.406444 8.463354 -15.466528
v -6.022057 16.826097 -14.538533
v -4.765720 20.426716 -11.505469
v -2.530702 21.857729 -6.109650
v -15.466529 8.463352 -6.406442
v -14.538536 16.826097 -6.022053
v -11.427240 20.426714 -4.798118
v -6.068112 21.857727 -2.547902
v -15.466529 8.463350 6.406445
v -14.538536 16.826094 6.022059
v -11.394835 20.426714 4.719899
v -6.050905 21.857727 2.506371
v -6.406443 8.463348 15.466530
v -6.022056 16.826094 14.538539
v -4.687493 20.426712 11.473069
v -2.489160 21.857725 6.092449
v 6.406443 8.463348 15.466530
v 6.022057 16.826094 14.538539
v 4.765720 20.426712 11.505475
v 2.530701 21.857725 6.109657
v 15.466529 8.463350 6.406445
v 14.538536 16.826094 6.022058
v 11.427240 20.426714 4.798124
v 6.068112 21.857727 2.547909
vt 0.000000 -0.027451
vt 0.125490 -0.027451
vt 0.125490 -1.000000
vt 0.839216 -0.027451
vt 0.839216 -1.000000
vt 0.968627 -0.027451
vt 0.000000 -0.027451
vt 0.125490 -0.027451
vt 0.125490 -1.000000
vt 0.839216 -0.027451
vt 0.839216 -1.000000
vt 0.968627 -0.027451
vt 0.000000 -0.027451
vt 0.125490 -0.027451
vt 0.125490 -1.000000
vt 0.839216 -0.027451
vt 0.839216 -1.000000
vt 0.968627 -0.027451
vt 0.000000 -0.027451
vt 0.125490 -0.027451
vt 0.125490 -1.000000
vt 0.839216 -0.027451
vt 0.839216 -1.000000
vt 0.968627 -0.027451
vt 2.000000 -0.027451
vt 0.000000 -0.027451
vt 2.000000 -1.000000
vt 0.000000 -1.000000
vt 2.000000 -0.027451
vt 0.000000 -0.027451
vt 2.000000 -1.000000
vt 0.000000 -1.000000
vt 2.000000 -0.027451
vt 0.000000 -0.027451
vt 2.000000 -1.000000
vt 0.000000 -1.000000
vt 2.000000 -0.027451
vt 0.000000 -0.027451
vt 2.000000 -1.000000
vt 0.000000 -1.000000
vt 0.000000 0.000000
vt 0.000000 -0.996078
vt 1.254902 -0.996078
vt 1.254902 0.000000
vt 2.509804 -0.996078
vt 2.509804 0.000000
vt 3.764706 -0.996078
vt 3.764706 0.000000
vt 5.019608 -0.996078
vt 5.019608 0.000000
vt 6.274510 -0.996078
vt 6.274510 0.000000
vt 7.529412 -0.996078
vt 7.529412 0.000000
vt 8.784314 -0.996078
vt 8.784314 0.000000
vt 10.000000 -0.996078
vt 10.000000 0.000000
vt 1.996078 -0.027451
vt 0.000000 -0.027451
vt 1.996078 -1.000000
vt 0.000000 -1.000000
vt 1.996078 -0.027451
vt 0.000000 -0.027451
vt 1.996078 -1.000000
vt 0.000000 -1.000000
vt 1.996078 -0.027451
vt 0.000000 -0.027451
vt 1.996078 -1.000000
vt 0.000000 -1.000000
vt 1.996078 -0.027451
vt 0.000000 -0.027451
vt 1.996078 -1.000000
vt 0.000000 -1.000000
vt 4.992157 -1.000000
vt 4.992157 0.000000
vt 4.015687 0.000000
vt 4.015687 -1.000000
vt 3.011765 0.000000
vt 3.011765 -1.000000
vt 2.007843 0.000000
vt 2.007843 -1.000000
vt 1.003922 0.000000
vt 1.003922 -1.000000
vt 0.000000 0.000000
vt 0.000000 -1.000000
vt -1.003922 0.000000
vt -1.003922 -1.000000
vt 0.000000 0.000000
vt 0.000000 -0.996078
vt 1.003922 -0.996078
vt 1.007843 0.000000
vt 2.007843 -0.996078
vt 2.007843 0.000000
vt 3.011765 -0.996078
vt 3.003922 0.000000
vt 4.015687 -0.996078
vt 4.015687 0.000000
vt 5.019608 -0.996078
vt 5.023530 0.000000
vt 6.023530 -0.996078
vt 6.023530 0.000000
vt 7.027451 -0.996078
vt 7.019608 0.000000
vt 8.000000 -0.996078
vt 8.000000 0.000000
vt 2.494118 -1.000000
vt 2.494118 0.000000
vt 2.007843 0.000000
vt 2.007843 -1.000000
vt 1.505882 0.000000
vt 1.505882 -1.000000
vt 1.003922 0.000000
vt 1.003922 -1.000000
vt 0.501961 0.000000
vt 0.501961 -1.000000
vt 0.000000 0.000000
vt 0.000000 -1.000000
vt -0.501961 0.000000
vt -0.501961 -1.000000
vt 0.968627 -0.996078
vt 0.768627 -0.027451
vt 0.839216 -0.996078
vt 0.196078 -0.027451
vt 0.125490 -0.996078
vt 0.094118 -0.027451
vt 0.000000 -0.996078
vt 0.870588 -0.027451
vt 0.968627 -0.996078
vt 0.768627 -0.027451
vt 0.839216 -0.996078
vt 0.196078 -0.027451
vt 0.125490 -0.996078
vt 0.094118 -0.027451
vt 0.000000 -0.996078
vt 0.870588 -0.027451
vt 0.000000 -0.996078
vt 0.196078 -0.027451
vt 0.125490 -0.996078
vt 0.768627 -0.027451
vt 0.839216 -0.996078
vt 0.870588 -0.027451
vt 0.968627 -0.996078
vt 0.094118 -0.027451
vt 0.094118 -0.027451
vt 0.968627 -0.996078
vt 0.870588 -0.027451
vt 0.839216 -0.996078
vt 0.768627 -0.027451
vt 0.125490 -0.996078
vt 0.196078 -0.027451
vt 0.000000 -0.996078
vt 0.000000 0.996078
vt 0.968627 0.996078
vt 0.482353 -1.000000
vt 0.000000 0.996078
vt 0.968627 0.996078
vt 0.000000 0.996078
vt 0.968627 0.996078
vt 0.000000 0.996078
vt 0.968627 0.996078
vt 0.000000 0.996078
vt 0.968627 0.996078
vt 0.000000 0.996078
vt 0.968627 0.996078
vt 0.000000 0.996078
vt 0.968627 0.996078
vt 0.000000 0.996078
vt 0.968627 0.996078
vt 0.000000 0.000000
vt 0.000000 -0.996078
vt 1.007843 -0.996078
vt 1.007843 0.000000
vt 2.007843 -0.996078
vt 2.007843 0.000000
vt 3.003922 -0.996078
vt 3.003922 0.000000
vt 4.015687 -0.996078
vt 4.015687 0.000000
vt 5.023530 -0.996078
vt 5.023530 0.000000
vt 6.023530 -0.996078
vt 6.023530 0.000000
vt 7.019608 -0.996078
vt 7.019608 0.000000
vt 8.000000 -0.996078
vt 8.000000 0.000000
vt 0.968627 -0.996078
vt 0.000000 -1.000000
vt 0.486275 -0.027451
vt 0.968627 -0.996078
vt 0.000000 -1.000000
vt 0.968627 -0.996078
vt 0.000000 -1.000000
vt 0.968627 -0.996078
vt 0.000000 -1.000000
vt 0.968627 -0.996078
vt 0.000000 -1.000000
vt 0.968627 -0.996078
vt 0.000000 -1.000000
vt 0.968627 -0.996078
vt 0.000000 -1.000000
vt 0.968627 -0.996078
vt 0.000000 -1.000000
vn 0.8932 0.4328 0.1216
vn 0.4649 0.8606 0.2078
vn 0.4714 0.6243 0.6230
vn -0.4649 0.8606 0.2078
vn -0.4914 0.6164 0.6153
vn -0.8946 0.4242 0.1404
vn -0.1206 0.4341 0.8928
vn -0.2074 0.8608 0.4647
vn -0.6227 0.6251 0.4706
vn -0.2074 0.8608 -0.4647
vn -0.6151 0.6172 -0.4906
vn -0.1394 0.4254 -0.8942
vn -0.8932 0.4328 -0.1216
vn -0.4649 0.8606 -0.2078
vn -0.4714 0.6243 -0.6230
vn 0.4649 0.8606 -0.2078
vn 0.4914 0.6164 -0.6153
vn 0.8946 0.4242 -0.1404
vn 0.1206 0.4341 -0.8928
vn 0.2074 0.8608 -0.4647
vn 0.6227 0.6251 -0.4706
vn 0.2074 0.8608 0.4647
vn 0.6151 0.6172 0.4906
vn 0.1394 0.4254 0.8942
vn -0.9239 -0.0000 0.3827
vn -0.9239 0.0000 -0.3827
vn 0.9239 0.0000 -0.3827
vn 0.9239 -0.0000 0.3827
vn 0.3827 -0.0000 0.9239
vn -0.3827 -0.0000 0.9239
vn -0.3827 0.0000 -0.9239
vn 0.3827 0.0000 -0.9239
vn 0.8477 0.3972 -0.3515
vn 0.9173 0.1193 -0.3800
vn 0.3800 0.1193 -0.9173
vn 0.3528 0.3944 -0.8485
vn -0.3800 0.1193 -0.9173
vn -0.3519 0.3908 -0.8505
vn -0.9173 0.1193 -0.3800
vn -0.8497 0.3938 -0.3507
vn -0.9173 0.1193 0.3800
vn -0.8477 0.3972 0.3515
vn -0.3800 0.1193 0.9173
vn -0.3528 0.3944 0.8485
vn 0.3800 0.1193 0.9173
vn 0.3519 0.3908 0.8505
vn 0.9173 0.1193 0.3800
vn 0.8497 0.3938 0.3507
vn 0.9334 0.3587 -0.0000
vn 0.6817 0.7316 -0.0000
vn 0.3408 0.7316 0.5904
vn 0.4667 0.3587 0.8084
vn -0.3408 0.7316 0.5904
vn -0.4667 0.3587 0.8084
vn -0.6817 0.7316 0.0000
vn -0.9334 0.3587 0.0000
vn -0.3408 0.7316 -0.5904
vn -0.4667 0.3587 -0.8084
vn 0.3408 0.7316 -0.5904
vn 0.4667 0.3587 -0.8084
vn 0.5101 0.8336 -0.2121
vn 0.2126 0.8307 -0.5145
vn -0.2137 0.8283 -0.5179
vn -0.5135 0.8312 -0.2132
vn -0.5101 0.8336 0.2121
vn -0.2126 0.8307 0.5145
vn 0.2137 0.8283 0.5179
vn 0.5135 0.8312 0.2132
vn 1.0000 -0.0000 0.0000
vn 0.5000 -0.0000 0.8660
vn -0.5000 -0.0000 0.8660
vn -1.0000 -0.0000 0.0000
vn -0.5000 0.0000 -0.8660
vn 0.5000 0.0000 -0.8660
vn 0.9347 0.3229 0.1483
vn 0.6163 0.2676 0.7407
vn -0.6288 0.2987 0.7179
vn -0.8984 0.3927 0.1965
vn 0.0000 -0.5666 -0.8240
vn -0.1472 0.3260 0.9338
vn -0.7393 0.2699 0.6169
vn -0.7165 0.3010 -0.6293
vn -0.1953 0.3957 -0.8974
vn 0.8240 -0.5666 -0.0000
vn -0.9347 0.3229 -0.1483
vn -0.6163 0.2676 -0.7407
vn 0.6288 0.2987 -0.7179
vn 0.8984 0.3927 -0.1965
vn 0.0000 -0.5666 0.8240
vn -0.8240 -0.5666 -0.0000
vn 0.1953 0.3957 0.8974
vn 0.7165 0.3010 0.6293
vn 0.7393 0.2699 -0.6169
vn 0.1472 0.3260 -0.9338
vn -0.0000 1.0000 0.0000
vn 0.1376 0.9888 -0.0570
vn 0.0577 0.9889 -0.1369
vn -0.0567 0.9890 -0.1368
vn -0.1376 0.9889 -0.0560
vn -0.1376 0.9888 0.0570
vn -0.0577 0.9889 0.1369
vn 0.0567 0.9890 0.1368
vn 0.1376 0.9889 0.0560
usemtl material_4B9720
s 1
f 23/1/1 24/2/2 26/3/3
f 26/3/3 24/2/2 20/4/4
f 26/3/3 20/4/4 19/5/5
f 19/5/5 20/4/4 18/6/6
f 33/7/7 34/8/8 36/9/9
f 36/9/9 34/8/8 30/10/10
f 36/9/9 30/10/10 29/11/11
f 29/11/11 30/10/10 28/12/12
f 43/13/13 44/14/14 46/15/15
f 46/15/15 44/14/14 40/16/16
f 46/15/15 40/16/16 39/17/17
f 39/17/17 40/16/16 38/18/18
f 53/19/19 54/20/20 56/21/21
f 56/21/21 54/20/20 50/22/22
f 56/21/21 50/22/22 49/23/23
f 49/23/23 50/22/22 48/24/24
usemtl material_4B96D0
f 10/25/25 8/26/26 9/27/25
f 9/27/25 8/26/26 7/28/26
f 2/29/27 16/30/28 1/31/27
f 1/31/27 16/30/28 15/32/28
f 14/33/29 12/34/30 13/35/29
f 13/35/29 12/34/30 11/36/30
f 6/37/31 4/38/32 5/39/31
f 5/39/31 4/38/32 3/40/32
usemtl material_4B90C8
f 78/41/33 77/42/34 81/43/35
f 78/41/33 81/43/35 82/44/36
f 82/44/36 81/43/35 85/45/37
f 82/44/36 85/45/37 86/46/38
f 86/46/38 85/45/37 89/47/39
f 86/46/38 89/47/39 90/48/40
f 90/48/40 89/47/39 93/49/41
f 90/48/40 93/49/41 94/50/42
f 94/50/42 93/49/41 97/51/43
f 94/50/42 97/51/43 98/52/44
f 98/52/44 97/51/43 101/53/45
f 98/52/44 101/53/45 102/54/46
f 102/54/46 101/53/45 105/55/47
f 102/54/46 105/55/47 106/56/48
f 106/56/48 105/55/47 77/57/34
f 106/56/48 77/57/34 78/58/33
usemtl material_4B96E4
f 4/59/32 2/60/27 3/61/32
f 3/61/32 2/60/27 1/62/27
f 8/63/26 6/64/31 7/65/26
f 7/65/26 6/64/31 5/66/31
f 16/67/28 14/68/29 15/69/28
f 15/69/28 14/68/29 13/70/29
f 12/71/30 10/72/25 11/73/30
f 11/73/30 10/72/25 9/74/25
f 59/75/49 60/76/50 75/77/51
f 59/75/49 75/77/51 74/78/52
f 74/78/52 75/77/51 72/79/53
f 74/78/52 72/79/53 71/80/54
f 71/80/54 72/79/53 69/81/55
f 71/80/54 69/81/55 68/82/56
f 68/82/56 69/81/55 66/83/57
f 68/82/56 66/83/57 65/84/58
f 65/84/58 66/83/57 63/85/59
f 65/84/58 63/85/59 62/86/60
f 62/86/60 63/85/59 60/87/50
f 62/86/60 60/87/50 59/88/49
usemtl material_4B90DC
f 79/89/61 78/90/33 82/91/36
f 79/89/61 82/91/36 83/92/62
f 83/92/62 82/91/36 86/93/38
f 83/92/62 86/93/38 87/94/63
f 87/94/63 86/93/38 90/95/40
f 87/94/63 90/95/40 91/96/64
f 91/96/64 90/95/40 94/97/42
f 91/96/64 94/97/42 95/98/65
f 95/98/65 94/97/42 98/99/44
f 95/98/65 98/99/44 99/100/66
f 99/100/66 98/99/44 102/101/46
f 99/100/66 102/101/46 103/102/67
f 103/102/67 102/101/46 106/103/48
f 103/102/67 106/103/48 107/104/68
f 107/104/68 106/103/48 78/105/33
f 107/104/68 78/105/33 79/106/61
usemtl material_4B9734
f 58/107/69 59/108/49 74/109/52
f 58/107/69 74/109/52 73/110/70
f 73/110/70 74/109/52 71/111/54
f 73/110/70 71/111/54 70/112/71
f 70/112/71 71/111/54 68/113/56
f 70/112/71 68/113/56 67/114/72
f 67/114/72 68/113/56 65/115/58
f 67/114/72 65/115/58 64/116/73
f 64/116/73 65/115/58 62/117/60
f 64/116/73 62/117/60 61/118/74
f 61/118/74 62/117/60 59/119/49
f 61/118/74 59/119/49 58/120/69
usemtl material_4B970C
f 25/121/75 26/122/3 27/123/76
f 27/123/76 26/122/3 19/124/5
f 27/123/76 19/124/5 22/125/77
f 22/125/77 19/124/5 18/126/6
f 22/125/77 18/126/6 21/127/78
f 21/127/79 18/126/79 23/128/79
f 21/127/79 23/128/79 25/121/79
f 25/121/75 23/128/1 26/122/3
f 35/129/80 36/130/9 37/131/81
f 37/131/81 36/130/9 29/132/11
f 37/131/81 29/132/11 32/133/82
f 32/133/82 29/132/11 28/134/12
f 32/133/82 28/134/12 31/135/83
f 31/135/84 28/134/84 33/136/84
f 31/135/84 33/136/84 35/129/84
f 35/129/80 33/136/7 36/130/9
f 45/137/85 46/138/15 47/139/86
f 47/139/86 46/138/15 39/140/17
f 47/139/86 39/140/17 42/141/87
f 42/141/87 39/140/17 38/142/18
f 42/141/87 38/142/18 41/143/88
f 41/143/89 38/142/89 43/144/89
f 41/143/89 43/144/89 45/137/89
f 45/137/85 43/144/13 46/138/15
f 53/145/90 51/146/90 48/147/90
f 48/147/24 51/146/91 52/148/92
f 48/147/24 52/148/92 49/149/23
f 49/149/23 52/148/92 57/150/93
f 49/149/23 57/150/93 56/151/21
f 56/151/21 57/150/93 55/152/94
f 56/151/21 55/152/94 53/145/19
f 53/145/90 55/152/90 51/146/90
usemtl material_4B96F8
f 14/153/95 16/154/95 17/155/95
f 6/156/95 8/157/95 17/155/95
f 17/155/95 16/158/95 2/159/95
f 4/160/95 6/161/95 17/155/95
f 2/162/95 4/163/95 17/155/95
f 17/155/95 8/164/95 10/165/95
f 12/166/95 14/167/95 17/155/95
f 10/168/95 12/169/95 17/155/95
usemtl material_4B90B4
f 80/170/96 79/171/61 83/172/62
f 80/170/96 83/172/62 84/173/97
f 84/173/97 83/172/62 87/174/63
f 84/173/97 87/174/63 88/175/98
f 88/175/98 87/174/63 91/176/64
f 88/175/98 91/176/64 92/177/99
f 92/177/99 91/176/64 95/178/65
f 92/177/99 95/178/65 96/179/100
f 96/179/100 95/178/65 99/180/66
f 96/179/100 99/180/66 100/181/101
f 100/181/101 99/180/66 103/182/67
f 100/181/101 103/182/67 104/183/102
f 104/183/102 103/182/67 107/184/68
f 104/183/102 107/184/68 108/185/103
f 108/185/103 107/184/68 79/186/61
f 108/185/103 79/186/61 80/187/96
usemtl material_4B90A0
f 108/188/103 80/189/96 76/190/95
f 80/191/96 84/192/97 76/190/95
f 84/193/97 88/194/98 76/190/95
f 104/195/102 108/196/103 76/190/95
f 88/197/98 92/198/99 76/190/95
f 92/199/99 96/200/100 76/190/95
f 100/201/101 104/202/102 76/190/95
f 96/203/100 100/204/101 76/190/95
