# Blender v2.79 (sub 0) OBJ File: ''
# www.blender.org
mtllib CollisionBase.mtl
v 15.466529 1.985448 -6.406445
v 15.466529 8.463354 -6.406442
v 6.406444 1.985453 -15.466529
v 6.406444 8.463360 -15.466526
v -6.406445 1.985453 -15.466529
v -6.406445 8.463360 -15.466526
v -15.466529 1.985448 -6.406444
v -15.466529 8.463354 -6.406441
v -15.466529 1.985442 6.406446
v -15.466529 8.463348 6.406448
v -6.406444 1.985438 15.466529
v -6.406444 8.463343 15.466532
v 6.406444 1.985438 15.466529
v 6.406444 8.463343 15.466532
v 15.466529 1.985442 6.406446
v 15.466529 8.463348 6.406448
v 0.000008 8.463351 0.000007
v -3.960001 3.339967 14.902341
v -2.922481 3.339962 22.522875
v -2.930402 5.175622 14.902341
v -4.934827 -0.059397 17.239683
v -3.641902 -0.059400 23.152340
v 3.960003 3.339967 14.902341
v 2.930402 5.175622 14.902341
v 4.934828 -0.059397 17.239683
v 2.922482 3.339962 22.522875
v 3.641903 -0.059400 23.152340
v -14.902338 3.339976 -3.959996
v -22.522875 3.339973 -2.930398
v -14.902338 5.175632 -2.930397
v -17.239683 -0.059385 -4.949998
v -23.152340 -0.059385 -3.662998
v -14.902338 3.339970 3.960006
v -14.902338 5.175629 2.930409
v -17.239683 -0.059391 4.950007
v -22.522875 3.339972 2.930408
v -23.152340 -0.059390 3.663007
v 3.960000 3.339980 -14.902335
v 2.922479 3.339985 -22.522875
v 2.930400 5.175636 -14.902335
v 4.934824 -0.059379 -17.239683
v 3.641899 -0.059376 -23.152340
v -3.960004 3.339980 -14.902335
v -2.930405 5.175636 -14.902335
v -4.934831 -0.059379 -17.239683
v -2.922485 3.339985 -22.522875
v -3.641905 -0.059376 -23.152340
v 14.902338 3.339970 3.960001
v 22.522875 3.339972 2.930403
v 14.902338 5.175629 2.930404
v 17.239683 -0.059391 4.950000
v 23.152340 -0.059390 3.663000
v 14.902338 3.339976 -3.960001
v 14.902338 5.175632 -2.930400
v 17.239683 -0.059385 -4.950004
v 22.522875 3.339973 -2.930403
v 23.152340 -0.059385 -3.663004
v 5.728138 8.461139 0.000003
v 5.728138 14.826163 0.000006
v 3.608727 16.800838 0.000009
v 2.864069 8.461142 -4.960709
v 2.864069 14.826166 -4.960707
v 1.804363 16.800838 -3.125242
v -2.864070 8.461142 -4.960709
v -2.864070 14.826166 -4.960707
v -1.804364 16.800838 -3.125242
v -5.728138 8.461139 0.000004
v -5.728138 14.826163 0.000008
v -3.608727 16.800838 0.000009
v -2.864068 8.461136 4.960717
v -2.864068 14.826160 4.960721
v -1.804363 16.800838 3.125259
v 2.864070 8.461136 4.960716
v 2.864070 14.826160 4.960720
v 1.804365 16.800838 3.125258
v 0.000000 21.835001 0.000012
v 15.466529 8.463354 -6.406441
v 14.538536 16.826101 -6.022049
v 11.394835 20.426714 -4.719887
v 6.050909 21.857727 -2.506357
v 6.406443 8.463360 -15.466526
v 6.022057 16.826101 -14.538527
v 4.687494 20.426720 -11.473058
v 2.489161 21.857733 -6.092437
v -6.406444 8.463360 -15.466526
v -6.022057 16.826101 -14.538527
v -4.765720 20.426720 -11.505464
v -2.530702 21.857733 -6.109643
v -15.466529 8.463354 -6.406440
v -14.538536 16.826101 -6.022047
v -11.427240 20.426714 -4.798111
v -6.068112 21.857727 -2.547895
v -15.466529 8.463348 6.406447
v -14.538536 16.826090 6.022065
v -11.394835 20.426714 4.719906
v -6.050905 21.857727 2.506379
v -6.406443 8.463343 15.466532
v -6.022056 16.826090 14.538545
v -4.687493 20.426708 11.473075
v -2.489160 21.857721 6.092456
v 6.406443 8.463343 15.466532
v 6.022057 16.826090 14.538545
v 4.765720 20.426708 11.505481
v 2.530701 21.857721 6.109663
v 15.466529 8.463348 6.406447
v 14.538536 16.826090 6.022064
v 11.427240 20.426714 4.798131
v 6.068112 21.857727 2.547917
v 3.601259 16.588924 0.000009
v 3.601259 27.431074 0.000012
v 1.800630 16.588924 -3.118773
v 1.800630 27.431074 -3.118768
v -1.800630 16.588924 -3.118773
v -1.800630 27.431074 -3.118768
v -3.601259 16.588924 0.000009
v -3.601259 27.431074 0.000012
v -1.800629 16.588924 3.118790
v -1.800629 27.431074 3.118796
v 1.800631 16.588924 3.118790
v 1.800631 27.431074 3.118796
v 10.032445 32.866043 10.032463
v 14.188021 27.366043 0.000012
v 14.188021 32.866043 0.000015
v 10.032445 27.366049 -10.032430
v 10.032445 32.866043 -10.032427
v 0.000000 27.366049 -14.188006
v 0.000000 32.866055 -14.188004
v -10.032445 27.366049 -10.032430
v -10.032445 32.866043 -10.032427
v -14.188021 27.366043 0.000012
v -14.188021 32.866043 0.000015
v -10.032445 27.366037 10.032460
v -10.032445 32.866043 10.032463
v 0.000000 27.366037 14.188035
v 0.000000 32.866032 14.188038
v 10.032445 27.366037 10.032460
vt 0.000000 -0.027451
vt 0.125490 -0.027451
vt 0.125490 -1.000000
vt 0.839216 -0.027451
vt 0.839216 -1.000000
vt 0.968627 -0.027451
vt 0.000000 -0.027451
vt 0.125490 -0.027451
vt 0.125490 -1.000000
vt 0.839216 -0.027451
vt 0.839216 -1.000000
vt 0.968627 -0.027451
vt 0.000000 -0.027451
vt 0.125490 -0.027451
vt 0.125490 -1.000000
vt 0.839216 -0.027451
vt 0.839216 -1.000000
vt 0.968627 -0.027451
vt 0.000000 -0.027451
vt 0.125490 -0.027451
vt 0.125490 -1.000000
vt 0.839216 -0.027451
vt 0.839216 -1.000000
vt 0.968627 -0.027451
vt 2.000000 -0.027451
vt 0.000000 -0.027451
vt 2.000000 -1.000000
vt 0.000000 -1.000000
vt 2.000000 -0.027451
vt 0.000000 -0.027451
vt 2.000000 -1.000000
vt 0.000000 -1.000000
vt 2.000000 -0.027451
vt 0.000000 -0.027451
vt 2.000000 -1.000000
vt 0.000000 -1.000000
vt 2.000000 -0.027451
vt 0.000000 -0.027451
vt 2.000000 -1.000000
vt 0.000000 -1.000000
vt 0.000000 0.000000
vt 0.000000 -0.996078
vt 1.254902 -0.996078
vt 1.254902 0.000000
vt 2.509804 -0.996078
vt 2.509804 0.000000
vt 3.764706 -0.996078
vt 3.764706 0.000000
vt 5.019608 -0.996078
vt 5.019608 0.000000
vt 6.274510 -0.996078
vt 6.274510 0.000000
vt 7.529412 -0.996078
vt 7.529412 0.000000
vt 8.784314 -0.996078
vt 8.784314 0.000000
vt 10.000000 -0.996078
vt 10.000000 0.000000
vt 1.996078 -0.027451
vt 0.000000 -0.027451
vt 1.996078 -1.000000
vt 0.000000 -1.000000
vt 1.996078 -0.027451
vt 0.000000 -0.027451
vt 1.996078 -1.000000
vt 0.000000 -1.000000
vt 1.996078 -0.027451
vt 0.000000 -0.027451
vt 1.996078 -1.000000
vt 0.000000 -1.000000
vt 1.996078 -0.027451
vt 0.000000 -0.027451
vt 1.996078 -1.000000
vt 0.000000 -1.000000
vt 4.992157 -1.000000
vt 4.992157 0.000000
vt 4.015687 0.000000
vt 4.015687 -1.000000
vt 3.011765 0.000000
vt 3.011765 -1.000000
vt 2.007843 0.000000
vt 2.007843 -1.000000
vt 1.003922 0.000000
vt 1.003922 -1.000000
vt 0.000000 0.000000
vt 0.000000 -1.000000
vt -1.003922 0.000000
vt -1.003922 -1.000000
vt 0.000000 0.000000
vt 0.000000 -0.996078
vt 1.003922 -0.996078
vt 1.007843 0.000000
vt 2.007843 -0.996078
vt 2.007843 0.000000
vt 3.011765 -0.996078
vt 3.003922 0.000000
vt 4.015687 -0.996078
vt 4.015687 0.000000
vt 5.019608 -0.996078
vt 5.023530 0.000000
vt 6.023530 -0.996078
vt 6.023530 0.000000
vt 7.027451 -0.996078
vt 7.019608 0.000000
vt 8.000000 -0.996078
vt 8.000000 0.000000
vt 2.494118 -0.996078
vt 2.494118 0.000000
vt 2.007843 0.000000
vt 2.007843 -0.996078
vt 1.505882 0.000000
vt 1.505882 -0.996078
vt 1.003922 0.000000
vt 1.003922 -0.996078
vt 0.501961 0.000000
vt 0.501961 -0.996078
vt 0.000000 0.000000
vt 0.000000 -0.996078
vt -0.501961 0.000000
vt -0.501961 -0.996078
vt 2.494118 -1.000000
vt 2.494118 0.000000
vt 2.007843 0.000000
vt 2.007843 -1.000000
vt 1.505882 0.000000
vt 1.505882 -1.000000
vt 1.003922 0.000000
vt 1.003922 -1.000000
vt 0.501961 0.000000
vt 0.501961 -1.000000
vt 0.000000 0.000000
vt 0.000000 -1.000000
vt -0.501961 0.000000
vt -0.501961 -1.000000
vt 0.968627 -0.996078
vt 0.000000 -1.000000
vt 0.486275 -0.027451
vt 0.968627 -0.996078
vt 0.000000 -1.000000
vt 0.968627 -0.996078
vt 0.000000 -1.000000
vt 0.968627 -0.996078
vt 0.000000 -1.000000
vt 0.968627 -0.996078
vt 0.000000 -1.000000
vt 0.968627 -0.996078
vt 0.000000 -1.000000
vt 0.968627 -0.996078
vt 0.000000 -1.000000
vt 0.968627 -0.996078
vt 0.000000 -1.000000
vt 13.988235 -0.788235
vt 13.988235 0.000000
vt 12.047059 0.000000
vt 12.047059 -0.788235
vt 10.039216 0.000000
vt 10.039216 -0.788235
vt 8.031373 0.000000
vt 8.031373 -0.788235
vt 6.023530 0.000000
vt 6.023530 -0.788235
vt 4.015687 0.000000
vt 4.015687 -0.788235
vt 2.007843 0.000000
vt 2.007843 -0.788235
vt 0.000000 0.000000
vt 0.000000 -0.788235
vt -2.007843 0.000000
vt -2.007843 -0.788235
vt 1.996078 3.000000
vt 0.584314 2.411765
vt 0.000000 1.000000
vt 1.996078 -1.000000
vt 3.411765 -0.411765
vt 0.584314 -0.411765
vt 4.000000 1.000000
vt 3.411765 2.411765
vt 0.000000 0.996078
vt 0.968627 0.996078
vt 0.482353 -1.000000
vt 0.000000 0.996078
vt 0.968627 0.996078
vt 0.000000 0.996078
vt 0.968627 0.996078
vt 0.000000 0.996078
vt 0.968627 0.996078
vt 0.000000 0.996078
vt 0.968627 0.996078
vt 0.000000 0.996078
vt 0.968627 0.996078
vt 0.000000 0.996078
vt 0.968627 0.996078
vt 0.000000 0.996078
vt 0.968627 0.996078
vt 0.000000 0.000000
vt 0.000000 -0.996078
vt 1.007843 -0.996078
vt 1.007843 0.000000
vt 2.007843 -0.996078
vt 2.007843 0.000000
vt 3.003922 -0.996078
vt 3.003922 0.000000
vt 4.015687 -0.996078
vt 4.015687 0.000000
vt 5.023530 -0.996078
vt 5.023530 0.000000
vt 6.023530 -0.996078
vt 6.023530 0.000000
vt 7.019608 -0.996078
vt 7.019608 0.000000
vt 8.000000 -0.996078
vt 8.000000 0.000000
vt 0.968627 -0.996078
vt 0.768627 -0.027451
vt 0.839216 -0.996078
vt 0.196078 -0.027451
vt 0.125490 -0.996078
vt 0.094118 -0.027451
vt 0.000000 -0.996078
vt 0.870588 -0.027451
vt 0.968627 -0.996078
vt 0.768627 -0.027451
vt 0.839216 -0.996078
vt 0.196078 -0.027451
vt 0.125490 -0.996078
vt 0.094118 -0.027451
vt 0.000000 -0.996078
vt 0.870588 -0.027451
vt 0.000000 -0.996078
vt 0.196078 -0.027451
vt 0.125490 -0.996078
vt 0.768627 -0.027451
vt 0.839216 -0.996078
vt 0.870588 -0.027451
vt 0.968627 -0.996078
vt 0.094118 -0.027451
vt 0.094118 -0.027451
vt 0.968627 -0.996078
vt 0.870588 -0.027451
vt 0.839216 -0.996078
vt 0.768627 -0.027451
vt 0.125490 -0.996078
vt 0.196078 -0.027451
vt 0.000000 -0.996078
vn 0.8862 0.0285 -0.4624
vn 0.4649 0.8606 0.2078
vn 0.4714 0.6243 0.6229
vn -0.4649 0.8606 0.2078
vn -0.4914 0.6164 0.6153
vn -0.8940 0.0197 -0.4476
vn 0.4640 0.0291 0.8853
vn -0.2073 0.8608 0.4647
vn -0.6227 0.6251 0.4706
vn -0.2073 0.8608 -0.4647
vn -0.6151 0.6172 -0.4906
vn 0.4492 0.0203 -0.8932
vn -0.8862 0.0285 0.4624
vn -0.4649 0.8606 -0.2078
vn -0.4714 0.6243 -0.6229
vn 0.4649 0.8606 -0.2078
vn 0.4914 0.6164 -0.6153
vn 0.8940 0.0197 0.4476
vn -0.4640 0.0291 -0.8853
vn 0.2073 0.8608 -0.4647
vn 0.6227 0.6251 -0.4706
vn 0.2073 0.8608 0.4647
vn 0.6151 0.6172 0.4906
vn -0.4492 0.0203 0.8932
vn -0.7173 0.6302 0.2971
vn -0.7173 0.6302 -0.2971
vn -0.9239 0.0000 0.3827
vn -0.9239 0.0000 -0.3827
vn 0.7173 0.6302 -0.2971
vn 0.7173 0.6302 0.2971
vn 0.9239 0.0000 -0.3827
vn 0.9239 0.0000 0.3827
vn 0.2971 0.6302 0.7173
vn -0.2971 0.6302 0.7173
vn 0.3827 0.0000 0.9239
vn -0.3827 0.0000 0.9239
vn -0.2971 0.6302 -0.7173
vn 0.2971 0.6302 -0.7173
vn -0.3827 0.0000 -0.9239
vn 0.3827 0.0000 -0.9239
vn 0.8477 0.3972 -0.3515
vn 0.9173 0.1192 -0.3799
vn 0.3799 0.1192 -0.9173
vn 0.3527 0.3944 -0.8485
vn -0.3799 0.1192 -0.9173
vn -0.3519 0.3908 -0.8505
vn -0.9173 0.1192 -0.3799
vn -0.8497 0.3937 -0.3507
vn -0.9173 0.1192 0.3799
vn -0.8477 0.3972 0.3515
vn -0.3799 0.1192 0.9173
vn -0.3527 0.3944 0.8485
vn 0.3799 0.1192 0.9173
vn 0.3519 0.3908 0.8505
vn 0.9173 0.1192 0.3799
vn 0.8497 0.3937 0.3507
vn 0.9334 0.3587 0.0000
vn 0.6817 0.7316 0.0000
vn 0.3408 0.7316 0.5904
vn 0.4667 0.3587 0.8084
vn -0.3408 0.7316 0.5904
vn -0.4667 0.3587 0.8084
vn -0.6817 0.7316 0.0000
vn -0.9334 0.3587 0.0000
vn -0.3408 0.7316 -0.5904
vn -0.4667 0.3587 -0.8084
vn 0.3408 0.7316 -0.5904
vn 0.4667 0.3587 -0.8084
vn 0.5101 0.8336 -0.2121
vn 0.2126 0.8307 -0.5145
vn -0.2137 0.8283 -0.5179
vn -0.5135 0.8312 -0.2132
vn -0.5101 0.8336 0.2121
vn -0.2126 0.8307 0.5145
vn 0.2137 0.8283 0.5179
vn 0.5135 0.8312 0.2132
vn 1.0000 0.0000 0.0000
vn 0.5000 0.0000 0.8660
vn -0.5000 0.0000 0.8660
vn -1.0000 0.0000 0.0000
vn -0.5000 0.0000 -0.8660
vn 0.5000 0.0000 -0.8660
vn 0.1376 0.9889 0.0559
vn 0.1376 0.9888 -0.0570
vn 0.0000 1.0000 0.0000
vn 0.0577 0.9889 -0.1368
vn -0.0567 0.9890 -0.1368
vn 0.0567 0.9890 0.1368
vn -0.1376 0.9889 -0.0559
vn -0.1376 0.9888 0.0570
vn -0.0577 0.9889 0.1368
vn 0.7764 -0.6302 0.0000
vn 0.7071 0.0000 0.7071
vn 0.5490 -0.6302 0.5490
vn 0.0000 0.0000 1.0000
vn 0.0000 -0.6302 0.7764
vn -0.7071 0.0000 0.7071
vn -0.5490 -0.6302 0.5490
vn -0.7764 -0.6302 0.0000
vn -0.7071 0.0000 -0.7071
vn -0.5490 -0.6302 -0.5490
vn 0.0000 0.0000 -1.0000
vn 0.0000 -0.6302 -0.7764
vn 0.7071 0.0000 -0.7071
vn 0.5490 -0.6302 -0.5490
vn 0.9253 -0.0406 -0.3771
vn 0.6163 0.2676 0.7407
vn -0.6288 0.2986 0.7179
vn -0.9371 0.0297 -0.3476
vn 0.3774 -0.0367 0.9253
vn -0.7393 0.2698 0.6169
vn -0.7165 0.3010 -0.6293
vn 0.3479 0.0336 -0.9369
vn -0.9253 -0.0406 0.3771
vn -0.6163 0.2676 -0.7407
vn 0.6288 0.2986 -0.7179
vn 0.9371 0.0297 0.3476
vn -0.3479 0.0336 0.9369
vn 0.7165 0.3010 0.6293
vn 0.7393 0.2698 -0.6169
vn -0.3774 -0.0367 -0.9253
usemtl material_4B9720
s 1
f 23/1/1 24/2/2 26/3/3
f 26/3/3 24/2/2 20/4/4
f 26/3/3 20/4/4 19/5/5
f 19/5/5 20/4/4 18/6/6
f 33/7/7 34/8/8 36/9/9
f 36/9/9 34/8/8 30/10/10
f 36/9/9 30/10/10 29/11/11
f 29/11/11 30/10/10 28/12/12
f 43/13/13 44/14/14 46/15/15
f 46/15/15 44/14/14 40/16/16
f 46/15/15 40/16/16 39/17/17
f 39/17/17 40/16/16 38/18/18
f 53/19/19 54/20/20 56/21/21
f 56/21/21 54/20/20 50/22/22
f 56/21/21 50/22/22 49/23/23
f 49/23/23 50/22/22 48/24/24
usemtl material_4B96D0
f 10/25/25 8/26/26 9/27/27
f 9/27/27 8/26/26 7/28/28
f 2/29/29 16/30/30 1/31/31
f 1/31/31 16/30/30 15/32/32
f 14/33/33 12/34/34 13/35/35
f 13/35/35 12/34/34 11/36/36
f 6/37/37 4/38/38 5/39/39
f 5/39/39 4/38/38 3/40/40
usemtl material_4B90C8
f 78/41/41 77/42/42 81/43/43
f 78/41/41 81/43/43 82/44/44
f 82/44/44 81/43/43 85/45/45
f 82/44/44 85/45/45 86/46/46
f 86/46/46 85/45/45 89/47/47
f 86/46/46 89/47/47 90/48/48
f 90/48/48 89/47/47 93/49/49
f 90/48/48 93/49/49 94/50/50
f 94/50/50 93/49/49 97/51/51
f 94/50/50 97/51/51 98/52/52
f 98/52/52 97/51/51 101/53/53
f 98/52/52 101/53/53 102/54/54
f 102/54/54 101/53/53 105/55/55
f 102/54/54 105/55/55 106/56/56
f 106/56/56 105/55/55 77/57/42
f 106/56/56 77/57/42 78/58/41
usemtl material_4B96E4
f 4/59/38 2/60/29 3/61/40
f 3/61/40 2/60/29 1/62/31
f 8/63/26 6/64/37 7/65/28
f 7/65/28 6/64/37 5/66/39
f 16/67/30 14/68/33 15/69/32
f 15/69/32 14/68/33 13/70/35
f 12/71/34 10/72/25 11/73/36
f 11/73/36 10/72/25 9/74/27
f 59/75/57 60/76/58 75/77/59
f 59/75/57 75/77/59 74/78/60
f 74/78/60 75/77/59 72/79/61
f 74/78/60 72/79/61 71/80/62
f 71/80/62 72/79/61 69/81/63
f 71/80/62 69/81/63 68/82/64
f 68/82/64 69/81/63 66/83/65
f 68/82/64 66/83/65 65/84/66
f 65/84/66 66/83/65 63/85/67
f 65/84/66 63/85/67 62/86/68
f 62/86/68 63/85/67 60/87/58
f 62/86/68 60/87/58 59/88/57
usemtl material_4B90DC
f 79/89/69 78/90/41 82/91/44
f 79/89/69 82/91/44 83/92/70
f 83/92/70 82/91/44 86/93/46
f 83/92/70 86/93/46 87/94/71
f 87/94/71 86/93/46 90/95/48
f 87/94/71 90/95/48 91/96/72
f 91/96/72 90/95/48 94/97/50
f 91/96/72 94/97/50 95/98/73
f 95/98/73 94/97/50 98/99/52
f 95/98/73 98/99/52 99/100/74
f 99/100/74 98/99/52 102/101/54
f 99/100/74 102/101/54 103/102/75
f 103/102/75 102/101/54 106/103/56
f 103/102/75 106/103/56 107/104/76
f 107/104/76 106/103/56 78/105/41
f 107/104/76 78/105/41 79/106/69
usemtl material_4B8BCC
f 109/107/77 110/108/77 120/109/78
f 109/107/77 120/109/78 119/110/78
f 119/110/78 120/109/78 118/111/79
f 119/110/78 118/111/79 117/112/79
f 117/112/79 118/111/79 116/113/80
f 117/112/79 116/113/80 115/114/80
f 115/114/80 116/113/80 114/115/81
f 115/114/80 114/115/81 113/116/81
f 113/116/81 114/115/81 112/117/82
f 113/116/81 112/117/82 111/118/82
f 111/118/82 112/117/82 110/119/77
f 111/118/82 110/119/77 109/120/77
usemtl material_4B9734
f 58/121/77 59/122/57 74/123/60
f 58/121/77 74/123/60 73/124/78
f 73/124/78 74/123/60 71/125/62
f 73/124/78 71/125/62 70/126/79
f 70/126/79 71/125/62 68/127/64
f 70/126/79 68/127/64 67/128/80
f 67/128/80 68/127/64 65/129/66
f 67/128/80 65/129/66 64/130/81
f 64/130/81 65/129/66 62/131/68
f 64/130/81 62/131/68 61/132/82
f 61/132/82 62/131/68 59/133/57
f 61/132/82 59/133/57 58/134/77
usemtl material_4B90A0
f 108/135/83 80/136/84 76/137/85
f 80/138/84 84/139/86 76/137/85
f 84/140/86 88/141/87 76/137/85
f 104/142/88 108/143/83 76/137/85
f 88/144/87 92/145/89 76/137/85
f 92/146/89 96/147/90 76/137/85
f 100/148/91 104/149/88 76/137/85
f 96/150/90 100/151/91 76/137/85
usemtl material_4B8BF4
f 122/152/92 123/153/77 121/154/93
f 122/152/92 121/154/93 136/155/94
f 136/155/94 121/154/93 135/156/95
f 136/155/94 135/156/95 134/157/96
f 134/157/96 135/156/95 133/158/97
f 134/157/96 133/158/97 132/159/98
f 132/159/98 133/158/97 131/160/80
f 132/159/98 131/160/80 130/161/99
f 130/161/99 131/160/80 129/162/100
f 130/161/99 129/162/100 128/163/101
f 128/163/101 129/162/100 127/164/102
f 128/163/101 127/164/102 126/165/103
f 126/165/103 127/164/102 125/166/104
f 126/165/103 125/166/104 124/167/105
f 124/167/105 125/166/104 123/168/77
f 124/167/105 123/168/77 122/169/92
usemtl material_4B8BE0
f 134/170/96 132/171/98 130/172/99
f 126/173/103 124/174/105 128/175/101
f 128/175/101 124/174/105 122/176/92
f 128/175/101 122/176/92 130/172/99
f 130/172/99 122/176/92 136/177/94
f 130/172/99 136/177/94 134/170/96
usemtl material_4B96F8
f 14/178/33 16/179/30 17/180/85
f 6/181/37 8/182/26 17/180/85
f 17/180/85 16/183/30 2/184/29
f 4/185/38 6/186/37 17/180/85
f 2/187/29 4/188/38 17/180/85
f 17/180/85 8/189/26 10/190/25
f 12/191/34 14/192/33 17/180/85
f 10/193/25 12/194/34 17/180/85
usemtl material_4B90B4
f 80/195/84 79/196/69 83/197/70
f 80/195/84 83/197/70 84/198/86
f 84/198/86 83/197/70 87/199/71
f 84/198/86 87/199/71 88/200/87
f 88/200/87 87/199/71 91/201/72
f 88/200/87 91/201/72 92/202/89
f 92/202/89 91/201/72 95/203/73
f 92/202/89 95/203/73 96/204/90
f 96/204/90 95/203/73 99/205/74
f 96/204/90 99/205/74 100/206/91
f 100/206/91 99/205/74 103/207/75
f 100/206/91 103/207/75 104/208/88
f 104/208/88 103/207/75 107/209/76
f 104/208/88 107/209/76 108/210/83
f 108/210/83 107/209/76 79/211/69
f 108/210/83 79/211/69 80/212/84
usemtl material_4B970C
f 25/213/106 26/214/3 27/215/107
f 27/215/107 26/214/3 19/216/5
f 27/215/107 19/216/5 22/217/108
f 22/217/108 19/216/5 18/218/6
f 22/217/108 18/218/6 21/219/109
f 21/219/109 18/218/6 23/220/1
f 21/219/109 23/220/1 25/213/106
f 25/213/106 23/220/1 26/214/3
f 35/221/110 36/222/9 37/223/111
f 37/223/111 36/222/9 29/224/11
f 37/223/111 29/224/11 32/225/112
f 32/225/112 29/224/11 28/226/12
f 32/225/112 28/226/12 31/227/113
f 31/227/113 28/226/12 33/228/7
f 31/227/113 33/228/7 35/221/110
f 35/221/110 33/228/7 36/222/9
f 45/229/114 46/230/15 47/231/115
f 47/231/115 46/230/15 39/232/17
f 47/231/115 39/232/17 42/233/116
f 42/233/116 39/232/17 38/234/18
f 42/233/116 38/234/18 41/235/117
f 41/235/117 38/234/18 43/236/13
f 41/235/117 43/236/13 45/229/114
f 45/229/114 43/236/13 46/230/15
f 53/237/19 51/238/118 48/239/24
f 48/239/24 51/238/118 52/240/119
f 48/239/24 52/240/119 49/241/23
f 49/241/23 52/240/119 57/242/120
f 49/241/23 57/242/120 56/243/21
f 56/243/21 57/242/120 55/244/121
f 56/243/21 55/244/121 53/237/19
f 53/237/19 55/244/121 51/238/118
