# Blender v2.79 (sub 0) OBJ File: ''
# www.blender.org
mtllib Body.mtl
v -0.307960 -3.629332 0.806126
v -0.308762 -3.617149 -0.577644
v 1.953638 -2.430380 -0.586155
v 1.954444 -2.442552 0.797608
v -2.934393 -4.296392 0.801697
v -2.935207 -4.284207 -0.582062
v 4.272208 -0.220474 -0.441017
v 4.477220 -0.520784 0.105538
v 3.637923 -1.200020 0.113499
v 2.701499 -1.876281 -0.272461
v 2.118398 -2.358704 0.126499
v 2.701949 -1.883222 0.514095
v 4.272845 -0.229958 0.637390
v 5.505620 2.040334 -0.880459
v 5.184867 2.011095 -1.573491
v 5.506717 2.023892 0.988086
v 3.919589 -0.767613 0.866715
v 4.629607 -0.487696 1.021610
v 5.186761 1.982481 1.678188
v 2.127820 -2.321993 0.117741
v 3.635629 -1.132156 -0.923508
v 3.636823 -1.150236 1.131149
v 4.628533 -0.471448 -0.824797
v 3.918744 -0.754832 -0.586651
v 5.222060 2.059766 1.671100
v 5.220164 2.088284 -1.569029
v 4.345643 -0.698669 0.100887
v 3.713492 -1.183079 3.196480
v 3.709891 -1.128647 -2.988391
v 4.888099 0.752430 2.586259
v 4.885165 0.796628 -2.436416
v 3.896325 2.843485 2.439309
v 3.517919 3.325384 0.014267
v 3.893504 2.885951 -2.387091
v -0.310148 3.402665 -0.013298
v -0.304502 2.092455 -3.806340
v -4.795671 3.580336 -0.047386
v -4.688692 -3.731270 -0.941128
v -4.832503 -2.819065 -4.085464
v -3.739040 -4.408085 0.080246
v -0.300041 2.025217 3.833961
v -0.327552 -2.270909 3.817077
v -0.334516 -3.587542 0.127236
v -4.827649 -2.892418 4.249374
v -0.331878 -2.205504 -3.616723
v -4.687475 -3.749610 1.142574
v -4.825938 2.319704 4.090764
v -4.830741 2.392108 -4.136631
v -4.277530 -1.903130 -3.166012
v -1.663500 0.457627 0.051007
v -4.273750 -1.960277 3.328709
v -4.108251 2.438284 -2.254261
v -5.406094 1.215160 0.010334
v -4.105628 2.398712 2.241693
vt 3.113700 4.098000
vt 3.470600 4.858800
vt 4.352900 4.137300
vt 1.882300 4.098000
vt 0.643100 4.137300
vt 1.525500 4.858800
vt 4.003900 4.702000
vt 0.992200 4.702000
vt 3.156900 3.372600
vt 2.776500 3.886300
vt 1.996100 3.227400
vt 0.839200 3.372600
vt 1.219600 3.886300
vt 2.498000 -1.180400
vt 0.207800 -1.188200
vt 2.498000 0.988200
vt 1.874500 0.925500
vt 0.000000 0.992200
vt 2.474500 0.462700
vt 4.788200 -1.188200
vt 4.729400 -1.180400
vt 2.498000 -1.180400
vt 4.352900 -3.137300
vt 5.000000 0.992200
vt 0.266700 -1.180400
vt 0.643100 -3.137300
vt 1.325500 -1.180400
vt 0.976500 0.992200
vt 4.011800 -1.188200
vt 3.121600 0.925500
vt 4.231400 1.000000
vt 0.976500 0.992200
vt 4.011800 -1.188200
vt 0.031400 1.000000
vt 4.482300 -3.215700
vt 1.325500 -1.180400
vt 4.482300 -3.215700
vt 1.051000 -3.215700
vt 3.976500 -3.858800
vt 3.164700 -3.702000
vt 3.164700 -3.702000
vt 3.976500 -3.858800
vt 1.968600 -3.137300
vt 1.968600 -3.137300
vt 3.945100 -3.215700
vt 4.964700 1.000000
vt 4.231400 1.000000
vt 2.498000 -3.035300
vt 2.498000 -2.372600
vt 1.882300 -3.098000
vt 3.113700 -3.098000
vt 0.000000 -0.662800
vt 2.498000 -4.000000
vt 5.000000 -0.662800
vt 4.996100 -0.654900
vt 2.831400 -4.000000
vt 3.572600 1.000000
vt 2.498000 1.000000
vt 4.227400 -0.654900
vt 0.764700 -0.654900
vt 0.000000 -0.662800
vt 5.000000 -0.654900
vt 0.000000 -3.560800
vt 2.498000 -4.000000
vt 2.498000 -2.219600
vt 0.674500 -0.235300
vt 2.498000 1.000000
vt 4.321600 -0.235300
vt 5.000000 -3.560800
vt 1.568600 0.972500
vt 1.568600 0.000000
vt 3.000000 0.000000
vt 3.000000 0.972500
vt 0.000000 0.972500
vt 0.000000 0.000000
vt 7.898000 10.000000
vt 7.858800 9.686300
vt 7.898000 10.000000
vt 4.431400 8.470600
vt 4.772600 9.156900
vt 7.858800 9.686300
vt 2.509800 6.745100
vt 3.960800 8.200000
vt 3.960800 8.200000
vt 4.772600 9.156900
vt 4.431400 8.470600
vt 7.952900 9.721600
vt 7.952900 9.721600
vt 0.415700 0.803900
vt 0.392200 0.780400
vt 0.384300 0.745100
vt 0.415700 0.803900
vt 0.384300 0.745100
vn 0.7510 -0.6603 -0.0060
vn 0.9324 0.2741 0.2355
vn 0.5983 -0.4626 0.6542
vn 0.7794 -0.6264 0.0118
vn 0.5976 -0.4653 -0.6529
vn 0.9333 0.2744 -0.2316
vn 0.8828 -0.2810 0.3764
vn 0.8819 -0.2958 -0.3670
vn 0.3333 0.7100 0.6202
vn 0.2728 0.9620 0.0078
vn 0.3447 0.7007 -0.6246
vn -0.0010 1.0000 0.0060
vn 0.1483 0.5188 -0.8419
vn 0.0639 0.9979 0.0045
vn -0.3768 -0.8941 -0.2421
vn 0.1068 -0.5719 -0.8133
vn 0.0797 -0.9968 -0.0091
vn 0.1359 0.5308 0.8365
vn 0.2376 -0.5470 0.8027
vn 0.3045 -0.9525 -0.0024
vn 0.1009 -0.5646 0.8191
vn 0.2422 -0.5576 -0.7939
vn -0.3657 -0.9013 0.2322
vn 0.0844 0.6084 0.7891
vn 0.0976 0.5944 -0.7982
vn 0.4965 -0.8619 0.1029
vn -0.1263 -0.6225 -0.7723
vn 0.9990 0.0440 0.0027
vn -0.1239 -0.6164 0.7776
vn -0.0658 0.7379 -0.6717
vn -0.9734 0.2291 0.0002
vn -0.0692 0.7450 0.6635
vn 0.5210 -0.6503 -0.5528
vn 0.6290 -0.7773 -0.0029
vn 0.6194 -0.7850 -0.0046
vn 0.6042 -0.7932 -0.0761
vn 0.6063 -0.7952 -0.0070
vn 0.6055 -0.7934 0.0616
vn 0.5266 -0.6442 0.5546
vn 0.3575 -0.9338 -0.0084
vn 0.3580 -0.9337 -0.0084
vn 0.4645 -0.8855 -0.0081
vn 0.2462 -0.9692 -0.0087
vn 0.3736 0.9033 -0.2110
vn 0.8394 -0.0455 -0.5416
vn 0.3573 0.9077 0.2201
vn 0.2119 -0.8263 0.5218
vn 0.1202 -0.5457 0.8293
vn 0.8443 -0.0393 0.5344
vn 0.0208 -0.5332 -0.8457
vn 0.1654 -0.8436 -0.5109
vn 0.3394 -0.9405 -0.0136
usemtl material_472
s 1
f 22/1/1 25/2/2 28/3/3
f 21/4/4 29/5/5 26/6/6
f 30/7/7 28/3/3 25/2/2
f 31/8/8 26/6/6 29/5/5
f 32/9/9 25/10/2 33/11/10
f 34/12/11 33/11/10 26/13/6
f 26/13/6 33/11/10 25/10/2
f 35/14/12 36/15/13 37/16/14
f 38/17/15 39/18/16 40/19/17
f 35/14/12 37/16/14 41/20/18
f 42/21/19 43/22/20 28/23/3
f 42/21/19 44/24/21 40/19/17
f 45/25/22 40/19/17 39/18/16
f 45/25/22 29/26/5 43/22/20
f 45/27/22 39/28/16 36/29/13
f 46/30/23 40/19/17 44/24/21
f 47/31/24 44/32/21 41/33/18
f 48/34/25 37/16/14 36/15/13
f 36/29/13 34/35/11 45/27/22
f 41/33/18 42/36/19 32/37/9
f 36/15/13 35/14/12 34/38/11
f 34/35/11 26/39/6 31/40/8
f 32/37/9 30/41/7 25/42/2
f 43/22/20 42/21/19 40/19/17
f 43/22/20 40/19/17 45/25/22
f 30/41/7 32/37/9 28/43/3
f 31/40/8 29/44/5 34/35/11
f 29/44/5 45/27/22 34/35/11
f 28/43/3 32/37/9 42/36/19
f 41/20/18 32/45/9 35/14/12
f 47/46/24 41/20/18 37/16/14
f 42/36/19 41/33/18 44/32/21
f 48/47/25 36/29/13 39/28/16
f 34/38/11 35/14/12 33/48/10
f 32/45/9 33/48/10 35/14/12
f 20/49/26 43/22/20 29/26/5
f 29/26/5 21/50/4 20/49/26
f 43/22/20 20/49/26 22/51/1
f 22/51/1 28/23/3 43/22/20
f 49/52/27 50/53/28 51/54/29
f 52/55/30 50/56/28 49/52/27
f 52/55/30 49/52/27 53/57/31
f 51/54/29 53/58/31 49/52/27
f 54/59/32 52/60/30 53/58/31
f 51/61/29 54/62/32 53/57/31
f 51/61/29 50/56/28 54/62/32
f 54/59/32 50/53/28 52/60/30
usemtl material_474
f 7/63/33 8/64/34 9/65/35
f 10/66/36 9/65/35 11/67/37
f 12/68/38 11/67/37 9/65/35
f 13/69/39 9/65/35 8/64/34
usemtl material_461
f 1/70/40 2/71/41 3/72/42
f 3/72/42 4/73/42 1/70/40
f 5/74/43 6/75/43 2/71/41
f 2/71/41 1/70/40 5/74/43
usemtl material_31
f 14/76/44 15/77/45 16/78/46
f 17/79/47 18/80/48 19/81/49
f 20/82/26 21/83/4 22/84/1
f 19/81/49 16/78/46 15/77/45
f 16/78/46 19/81/49 18/80/48
f 14/76/44 23/85/50 15/77/45
f 24/86/51 15/77/45 23/85/50
f 25/87/2 22/84/1 21/83/4
f 21/83/4 26/88/6 25/87/2
f 23/89/50 27/90/52 24/91/51
f 18/92/48 17/93/47 27/90/52
