# Blender v2.79 (sub 0) OBJ File: ''
# www.blender.org
mtllib ForearmRight.mtl
v -0.901246 -4.323925 -0.740933
v -0.663082 -4.395323 0.876807
v -0.871181 -3.539683 -0.677620
v 0.581908 -4.302320 -0.715705
v 0.540391 -3.510476 -0.775798
v 0.739876 -4.367208 0.735209
v 0.795489 -3.576570 0.673597
v -0.574450 -3.605506 0.862704
v -0.992103 -3.862649 -0.869578
v -0.725348 -3.942618 0.942410
v -1.036140 0.028554 -0.281787
v 0.669122 -3.838432 -0.841336
v 0.379626 0.082941 -0.985302
v 0.846064 -3.911136 0.783823
v 1.091862 0.025146 0.496167
v -0.323905 -0.029245 1.199678
v 0.054214 0.663797 0.107803
vt 0.000000 0.545100
vt 3.784300 0.545100
vt 0.937300 -3.364700
vt 5.000000 0.545100
vt 1.341200 0.545100
vt 4.152900 -3.364700
vt 5.000000 0.545100
vt 1.662800 0.545100
vt 4.509800 -3.364700
vt 0.000000 0.545100
vt 3.654900 0.545100
vt 0.258800 -3.364700
vt 2.203900 -4.000000
vt 0.258800 -3.364700
vt 4.152900 -3.364700
vt 4.509800 -3.364700
vt 2.721600 -4.000000
vt 0.937300 -3.364700
vt 1.447100 1.000000
vt 0.247100 1.000000
vt 1.172500 0.215700
vt 4.713700 1.000000
vt 4.733300 0.215700
vt 3.513700 1.000000
vt 3.698000 0.215700
vt 0.215700 0.215700
vn -0.7639 -0.0198 -0.6450
vn -0.6201 -0.0543 0.7826
vn -0.9951 0.0990 -0.0068
vn 0.6711 -0.0493 -0.7397
vn 0.6406 0.0587 -0.7656
vn 0.7637 -0.0805 0.6405
vn 0.8465 0.4374 0.3034
vn -0.2873 0.4283 0.8567
vn 0.2898 0.7782 0.5571
vn -0.7727 0.0428 -0.6334
vn -0.6201 0.0652 0.7818
vn -0.7793 0.0989 -0.6187
vn 0.6894 -0.0445 -0.7230
vn 0.6058 0.0060 -0.7956
vn 0.7418 -0.0155 0.6705
vn 0.8336 0.0127 0.5522
vn -0.5643 0.0925 0.8204
usemtl material_472
s 1
f 9/1/1 10/2/2 11/3/3
f 12/4/4 9/5/1 13/6/5
f 14/7/6 12/8/4 15/9/7
f 10/10/2 14/11/6 16/12/8
f 13/6/5 17/13/9 11/14/3
f 16/12/8 15/15/7 17/13/9
f 16/16/8 17/17/9 11/3/3
f 13/18/5 17/17/9 15/9/7
f 13/18/5 15/9/7 12/8/4
f 11/14/3 13/6/5 9/5/1
f 16/16/8 11/3/3 10/2/2
f 15/15/7 16/12/8 14/11/6
usemtl material_31
f 1/19/10 2/20/11 3/21/12
f 4/22/13 1/19/10 5/23/14
f 6/24/15 4/22/13 7/25/16
f 2/20/11 6/24/15 8/26/17
f 3/21/12 5/23/14 1/19/10
f 5/23/14 7/25/16 4/22/13
f 7/25/16 8/26/17 6/24/15
f 8/26/17 3/21/12 2/20/11
