# Blender v2.79 (sub 0) OBJ File: ''
# www.blender.org
mtllib Head.mtl
v 2.174475 0.088128 1.624846
v 2.099625 0.096843 1.623760
v 1.807554 -2.465256 1.673353
v 1.882420 -2.473966 1.674430
v 1.880644 -2.447374 -1.347054
v 1.805798 -2.438680 -1.347349
v 2.097864 0.123416 -1.396924
v 2.172714 0.114716 -1.396646
v -0.251312 -0.488485 1.062191
v 0.305283 -0.455280 1.679713
v 0.735970 1.343175 0.558544
v 1.235130 -0.432163 1.986099
v 2.055408 -0.150731 1.949274
v 1.195936 0.052304 1.650676
v 3.405102 0.772395 0.120960
v 2.923176 1.219462 0.789470
v 3.270363 -0.416308 1.048728
v 3.449944 -0.445446 0.130000
v 2.034611 -0.449202 1.358310
v 2.952595 1.209284 -0.665192
v -0.252434 -0.471631 -0.854225
v 0.735352 1.352383 -0.489064
v 0.303455 -0.427581 -1.466330
v 2.090670 0.042508 1.348791
v 2.746780 -0.420586 -1.076234
v 3.270397 -0.404240 -0.792329
v 3.165676 -1.390145 -0.206662
v 2.695415 -1.567125 -0.767689
v 3.165546 -1.395149 0.502395
v 3.137062 -1.617437 0.151817
v 2.689682 -0.375363 1.343692
v 2.696476 -1.583243 1.063926
v 0.902386 -0.578203 1.661372
v 2.089222 0.064252 -1.121542
v 2.053276 -0.118485 -1.714941
v 1.194141 0.079464 -1.436094
v 2.033163 -0.427465 -1.112035
v 1.232956 -0.399263 -1.751600
v 0.900581 -0.551027 -1.425394
v 0.581202 0.242175 1.638651
v 0.608339 0.295026 -1.602036
v 0.889900 -0.506782 1.793940
v 0.884802 -0.504246 -1.600267
v 2.507526 -2.108704 0.157874
v 0.579813 -2.241831 -0.501272
v 0.654692 -2.964977 0.159243
v 0.580036 -2.264436 0.768854
v 1.887976 -2.221214 0.153781
v 1.783939 -1.617391 -0.982693
v 0.014839 -1.837208 -0.827295
v -0.700581 -1.128178 -0.254960
v 0.691780 -1.795627 -0.989027
v -0.380646 -1.966853 0.134654
v -0.700159 -1.134540 0.468413
v 0.015955 -1.854095 1.092479
v 1.785255 -1.637195 1.267416
v 0.693100 -1.815449 1.263830
v 0.101051 -2.146528 0.140574
v 1.515282 -0.289447 -1.516546
v 1.487286 -0.332527 1.695868
v 2.686626 -0.402528 1.322219
v 2.116480 0.565830 2.076606
v 2.920109 1.192298 0.768001
v 2.651541 0.891557 1.911456
v 2.608809 2.075500 0.907935
v 1.479652 0.897991 1.961604
v 1.545216 1.999049 1.369269
v 0.886852 -0.533957 1.772471
v 1.000217 1.862682 -0.639116
v 1.000952 1.851639 0.616214
v 1.543659 2.022414 -1.284391
v 2.608978 2.086241 -0.826955
v 2.647968 0.911454 -1.763096
v 2.949558 1.182094 -0.686665
v 1.477409 0.931755 -1.876543
v 2.114147 0.601028 -1.925352
v 0.605291 0.267853 -1.623502
v 2.020866 -2.459594 -1.350507
v 0.619022 -2.308585 0.153261
v 0.618134 -2.295244 -1.363340
v 2.021767 -2.472953 0.166103
v 0.619904 -2.321937 1.669863
v 2.022635 -2.486281 1.682703
vt 0.325500 0.341200
vt 0.490200 0.380400
vt 0.647100 0.341200
vt 0.490200 0.658800
vt 0.219600 0.615700
vt 0.490200 0.803900
vt 0.325500 0.207800
vt 0.396100 0.000000
vt 0.074500 0.227400
vt 0.203900 0.356900
vt 0.247100 0.196100
vt 0.062700 0.368600
vt 0.490200 0.102000
vt 0.580400 0.000000
vt 0.651000 0.203900
vt 0.721600 0.835300
vt 0.756900 0.615700
vt 0.729400 0.058800
vt 0.902000 0.227400
vt 0.913700 0.368600
vt 0.756900 0.368600
vt 0.219600 0.368600
vt 0.258800 0.835300
vt 0.490200 0.223500
vt 0.651000 0.341200
vt 0.082400 0.513700
vt 0.894100 0.509800
vt 0.247100 0.058800
vt 0.192200 0.815700
vt 0.796100 0.800000
vt 0.874500 0.878400
vt 0.874500 0.000000
vt 0.000000 0.000000
vt 0.000000 0.878400
vt 0.000000 0.878400
vt 0.000000 0.000000
vt 0.874500 0.000000
vt 0.874500 0.878400
vt 0.396100 0.376500
vt 0.407800 0.843100
vt 0.580400 0.580400
vt 0.713700 0.862700
vt 0.651000 0.772500
vt 0.874500 0.705900
vt 0.627400 0.321600
vt 0.835300 0.298000
vt 0.345100 0.152900
vt 0.796100 0.094100
vt 0.796100 0.094100
vt 0.835300 0.298000
vt 0.870600 0.705900
vt 0.651000 0.772500
vt 0.694100 0.015700
vt 0.482300 0.003900
vt 0.709800 0.878400
vt 0.627400 0.321600
vt 0.580400 0.580400
vt 0.482300 0.011800
vt 0.400000 0.870600
vt 0.396100 0.388200
vt 0.694100 0.015700
vt 0.345100 0.152900
vt 3.772600 0.541200
vt 4.596100 -0.133300
vt 3.141200 -0.415700
vt 5.000000 -1.274500
vt 4.949000 -2.239200
vt 4.560800 -1.156900
vt 2.513700 -3.772600
vt 3.427400 -3.117700
vt 3.725500 -3.772600
vt 2.494100 -4.000000
vt 4.149000 -2.258800
vt 1.478400 -3.156900
vt 1.211800 0.541200
vt 1.737200 -0.415700
vt 0.388200 -0.133300
vt 4.149000 -2.258800
vt 0.886300 -3.133300
vt 1.262800 -3.772600
vt 2.019600 -3.780400
vt 1.270600 -3.231400
vt 2.968600 -3.780400
vt 2.494100 -3.776500
vt 4.125500 -3.051000
vt 3.721600 -3.231400
vt 4.560800 -0.886300
vt 0.847100 -2.258800
vt 0.047100 -2.239200
vt 0.435300 -1.156900
vt 0.847100 -2.258800
vt 0.000000 -1.274500
vt 0.435300 -0.886300
vt 4.556900 -0.376500
vt 0.223500 -0.407800
vt 4.741200 -0.858800
vt 0.200000 -0.858800
vt 2.494100 -3.074500
vt 0.009800 0.972500
vt 0.975400 0.000000
vt 0.009800 0.000000
vt 0.975400 0.972500
vt 0.972900 0.972500
vt 0.016600 0.000000
vt 0.972900 0.000000
vt 0.016600 0.972500
vn -0.1376 -0.8390 -0.5264
vn -0.3122 -0.9499 0.0104
vn -0.1551 -0.8375 0.5239
vn 0.2584 -0.9660 -0.0023
vn 0.1784 -0.6334 -0.7530
vn 0.3671 -0.9302 -0.0047
vn -0.5024 -0.5787 -0.6424
vn -0.9615 0.0302 -0.2732
vn -0.5658 0.0045 -0.8245
vn 0.0070 -0.6160 -0.7877
vn -0.0387 -0.2777 -0.9599
vn -0.6898 -0.7240 -0.0007
vn -0.9629 0.0372 0.2673
vn -0.5152 -0.5625 0.6466
vn 0.4460 -0.5749 0.6859
vn 0.1790 -0.6036 0.7769
vn -0.8466 0.2931 0.4442
vn -0.5197 0.0575 0.8524
vn -0.0434 -0.2210 0.9743
vn -0.0070 -0.5934 0.8048
vn 0.4565 -0.5982 -0.6586
vn -0.3518 -0.9360 -0.0079
vn 0.2146 -0.3323 -0.9184
vn 0.1808 -0.2870 0.9407
vn -0.8535 0.2806 -0.4392
vn 0.4698 -0.1946 -0.8610
vn 0.3801 -0.0834 0.9212
vn -0.0121 0.0207 0.9997
vn -0.0119 0.0207 0.9997
vn 0.0016 -0.0195 -0.9998
vn 0.0014 -0.0195 -0.9998
vn 0.6264 -0.3646 0.6890
vn 0.1311 -0.0387 0.9906
vn 0.9603 0.2251 0.1645
vn 0.5636 0.2535 0.7861
vn 0.5324 0.7891 0.3062
vn -0.2485 0.2649 0.9317
vn -0.2275 0.7967 0.5599
vn -0.0723 -0.1011 0.9922
vn -0.6649 0.7278 -0.1678
vn -0.6604 0.7343 0.1569
vn -0.2308 0.8060 -0.5450
vn 0.5356 0.7963 -0.2810
vn 0.6103 0.1148 -0.7837
vn -0.8765 0.4561 0.1539
vn -0.6854 0.2883 0.6687
vn 0.9557 0.2308 -0.1822
vn -0.1870 0.2412 -0.9523
vn 0.2349 -0.2013 -0.9509
vn -0.4412 0.1309 -0.8878
vn -0.8872 0.4422 -0.1319
vn -0.2434 -0.3383 0.9090
vn 0.6285 0.1161 0.7691
vn -0.2812 0.6681 0.6888
vn 0.9318 0.3623 0.0212
vn 0.7971 0.4476 0.4052
vn 0.7819 -0.0369 0.6223
vn 0.9952 -0.0978 -0.0009
vn 0.7089 -0.6552 0.2609
vn 0.8319 0.4039 -0.3804
vn 0.7848 0.5750 0.2311
vn 0.7916 -0.0658 -0.6075
vn 0.8352 -0.4595 -0.3022
vn 0.8547 -0.4207 0.3040
vn 0.7875 -0.6155 -0.0315
vn -0.4574 -0.5358 0.7097
vn 0.8019 0.5555 -0.2196
vn 0.6308 0.1206 -0.7665
vn -0.2822 0.6555 -0.7004
vn 0.7002 -0.6607 -0.2705
vn -0.2421 -0.3403 -0.9086
vn -0.4342 -0.5621 -0.7039
vn -0.8395 0.2651 -0.4743
vn -0.1163 -0.9932 -0.0087
vn -0.1163 -0.9932 -0.0086
usemtl material_484
s 1
f 45/1/1 46/2/2 47/3/3
f 48/4/4 49/5/5 44/6/6
f 50/7/7 51/8/8 23/9/9
f 52/10/10 50/11/7 43/12/11
f 53/13/12 54/14/13 51/8/8
f 54/14/13 53/13/12 55/15/14
f 32/16/15 56/17/16 44/6/6
f 9/18/17 54/14/13 10/19/18
f 10/19/18 55/15/14 42/20/19
f 57/21/20 56/17/16 42/20/19
f 51/8/8 50/7/7 53/13/12
f 52/22/10 45/1/1 50/7/7
f 46/2/2 45/1/1 48/4/4
f 28/23/21 44/6/6 49/5/5
f 55/15/14 58/24/22 47/25/3
f 47/25/3 48/4/4 57/21/20
f 49/5/5 48/4/4 52/22/10
f 52/22/10 43/12/11 49/5/5
f 59/26/23 49/5/5 43/12/11
f 60/27/24 42/20/19 56/17/16
f 48/4/4 44/6/6 56/17/16
f 57/21/20 55/15/14 47/25/3
f 23/9/9 43/12/11 50/7/7
f 57/21/20 42/20/19 55/15/14
f 21/28/25 23/9/9 51/8/8
f 55/15/14 10/19/18 54/14/13
f 58/24/22 53/13/12 50/7/7
f 58/24/22 55/15/14 53/13/12
f 45/1/1 47/25/3 58/24/22
f 50/7/7 45/1/1 58/24/22
f 45/1/1 52/22/10 48/4/4
f 56/17/16 57/21/20 48/4/4
f 54/14/13 9/18/17 21/28/25
f 21/28/25 51/8/8 54/14/13
f 28/23/21 49/5/5 59/26/23
f 59/26/23 25/29/26 28/23/21
f 46/2/2 48/4/4 47/25/3
f 31/30/27 60/27/24 56/17/16
f 56/17/16 32/16/15 31/30/27
usemtl material_471
f 1/31/28 2/32/28 3/33/29
f 3/33/29 4/34/29 1/31/28
f 5/35/30 6/36/30 7/37/31
f 7/37/31 8/38/31 5/35/30
usemtl material_473
f 60/39/24 61/40/32 62/41/33
f 61/40/32 63/42/34 64/43/35
f 64/43/35 65/44/36 62/41/33
f 66/45/37 62/41/33 67/46/38
f 68/47/39 60/39/24 66/45/37
f 69/48/40 70/49/41 71/50/42
f 72/51/43 71/50/42 65/44/36
f 72/51/43 73/52/44 71/50/42
f 70/49/41 11/53/45 40/54/46
f 63/42/34 74/55/47 65/44/36
f 75/56/48 71/50/42 76/57/49
f 75/56/48 77/58/50 71/50/42
f 25/59/26 59/60/23 73/52/44
f 66/45/37 67/46/38 40/54/46
f 70/49/41 40/54/46 67/46/38
f 69/48/40 71/50/42 77/58/50
f 69/48/40 22/61/51 70/49/41
f 69/48/40 77/58/50 22/61/51
f 75/56/48 43/62/11 77/58/50
f 72/51/43 74/55/47 73/52/44
f 76/57/49 59/60/23 75/56/48
f 11/53/45 70/49/41 22/61/51
f 64/43/35 62/41/33 61/40/32
f 65/44/36 64/43/35 63/42/34
f 62/41/33 66/45/37 60/39/24
f 66/45/37 40/54/46 68/47/39
f 67/46/38 62/41/33 65/44/36
f 25/59/26 73/52/44 74/55/47
f 76/57/49 73/52/44 59/60/23
f 43/62/11 75/56/48 59/60/23
f 72/51/43 65/44/36 74/55/47
f 76/57/49 71/50/42 73/52/44
f 67/46/38 65/44/36 71/50/42
f 67/46/38 71/50/42 70/49/41
usemtl material_479
f 9/63/17 10/64/18 11/65/45
f 12/66/52 13/67/53 14/68/54
f 15/69/55 16/70/56 17/71/57
f 15/69/55 17/71/57 18/72/58
f 13/67/53 12/66/52 19/73/59
f 20/74/60 16/70/56 15/69/55
f 21/75/25 22/76/51 23/77/9
f 13/67/53 19/73/59 24/78/61
f 25/79/26 20/74/60 26/80/62
f 26/80/62 15/69/55 18/72/58
f 27/81/63 28/82/21 26/80/62
f 27/81/63 26/80/62 18/72/58
f 29/83/64 30/84/65 18/72/58
f 31/85/27 32/86/15 17/71/57
f 17/71/57 29/83/64 18/72/58
f 12/66/52 14/68/54 33/87/66
f 33/87/66 19/73/59 12/66/52
f 34/88/67 35/89/68 36/90/69
f 35/89/68 37/91/70 38/92/71
f 35/89/68 34/88/67 37/91/70
f 39/93/72 38/92/71 37/91/70
f 38/92/71 39/93/72 36/90/69
f 31/85/27 17/71/57 16/70/56
f 15/69/55 26/80/62 20/74/60
f 25/79/26 26/80/62 28/82/21
f 29/83/64 17/71/57 32/86/15
f 27/81/63 18/72/58 30/84/65
f 24/78/61 14/68/54 13/67/53
f 38/92/71 36/90/69 35/89/68
f 11/65/45 10/64/18 40/94/46
f 22/76/51 41/95/73 23/77/9
f 42/96/19 40/94/46 10/64/18
f 43/97/11 23/77/9 41/95/73
f 22/76/51 21/75/25 9/63/17
f 9/63/17 11/65/45 22/76/51
f 27/81/63 30/84/65 44/98/6
f 44/98/6 28/82/21 27/81/63
f 32/86/15 44/98/6 30/84/65
f 30/84/65 29/83/64 32/86/15
usemtl material_481
f 78/99/74 79/100/74 80/101/74
f 79/100/74 78/99/74 81/102/74
f 81/103/74 82/104/74 79/105/74
f 82/104/74 81/103/74 83/106/75
