# Blender v2.79 (sub 0) OBJ File: ''
# www.blender.org
mtllib ShinRight.mtl
v 0.632021 -3.760118 -1.039177
v -1.467467 -3.767223 -0.538735
v 0.408446 0.005771 -1.186282
v 1.476981 -3.577701 0.535686
v 1.458277 0.029234 0.345505
v -0.614432 -3.710327 1.134025
v -0.285792 -0.188986 0.957581
v -1.257880 0.056535 -0.238776
v -0.153407 0.688207 -0.090229
vt 2.164700 -0.082400
vt 4.611800 -0.035300
vt 2.549000 -3.423500
vt 0.000000 -0.219600
vt 0.141200 -3.423500
vt 5.000000 -0.058800
vt 2.231400 -0.219600
vt 4.537300 -3.192200
vt 2.368600 -0.058800
vt 4.125500 -3.423500
vt 2.023500 -3.423500
vt 2.529400 -4.000000
vt 2.564700 -4.000000
vt 2.043100 -3.192200
vn 0.3970 -0.0358 -0.9171
vn -0.9105 0.0037 -0.4134
vn 0.2281 0.4431 -0.8669
vn 0.9211 0.0090 0.3891
vn 0.8267 0.4918 0.2733
vn -0.4199 0.0371 0.9068
vn -0.2275 0.3876 0.8933
vn -0.8601 0.4902 -0.1407
vn -0.1069 0.9939 0.0277
usemtl material_472
s 1
f 1/1/1 2/2/2 3/3/3
f 4/4/4 1/1/1 5/5/5
f 6/6/6 4/7/4 7/8/7
f 2/2/2 6/9/6 8/10/8
f 5/11/5 7/8/7 4/7/4
f 7/8/7 5/11/5 9/12/9
f 3/3/3 8/10/8 9/13/9
f 3/3/3 9/13/9 5/5/5
f 7/14/7 9/13/9 8/10/8
f 7/14/7 8/10/8 6/9/6
f 8/10/8 3/3/3 2/2/2
f 3/3/3 5/5/5 1/1/1
