# Blender v2.79 (sub 0) OBJ File: ''
# www.blender.org
mtllib ThighRight.mtl
v 0.626623 -4.524494 -1.101489
v -1.282746 -4.522938 -0.025796
v 0.777684 -0.040474 -1.443262
v 0.425926 -5.089940 0.253613
v -1.906817 -0.064815 -0.802770
v -0.637278 0.395497 0.146962
v 1.656785 -4.481122 0.662479
v 2.223521 0.045498 0.605293
v -0.489051 -4.475661 1.101327
v -0.661286 -0.033909 1.531342
vt 1.980400 -3.623500
vt 0.000000 -3.623500
vt 3.058800 -4.000000
vt 0.541200 0.454900
vt 3.184300 0.454900
vt 2.545100 1.000000
vt 2.498000 -3.623500
vt 0.803900 0.478400
vt 2.776500 0.454900
vt 0.000000 -3.623500
vt 4.274500 0.454900
vt 2.380400 0.478400
vt 5.000000 -3.568600
vt 4.200000 0.454900
vt 2.796100 0.454900
vt 5.000000 -3.623500
vt 2.509800 -3.568600
vt 3.172500 -4.000000
vt 2.552900 -3.623500
vt 2.317700 1.000000
vn 0.8248 0.5025 0.2590
vn 0.2888 0.4769 -0.8302
vn -0.1619 0.9858 0.0449
vn 0.2091 -0.5082 -0.8354
vn -0.8334 -0.5267 -0.1673
vn 0.0850 -0.9920 0.0931
vn -0.8224 0.3953 -0.4091
vn 0.7901 -0.4963 0.3598
vn -0.3518 -0.4775 0.8051
vn -0.3343 0.4582 0.8235
usemtl material_472
s 1
f 8/1/1 3/2/2 6/3/3
f 1/4/4 2/5/5 3/2/2
f 2/5/5 1/4/4 4/6/6
f 3/2/2 5/7/7 6/3/3
f 5/7/7 3/2/2 2/5/5
f 7/8/8 1/9/4 8/10/1
f 9/11/9 7/12/8 10/13/10
f 2/14/5 9/15/9 5/16/7
f 8/1/1 6/3/3 10/13/10
f 5/16/7 10/17/10 6/18/3
f 8/1/1 10/13/10 7/12/8
f 10/17/10 5/16/7 9/15/9
f 3/19/2 8/10/1 1/9/4
f 7/12/8 9/11/9 4/6/6
f 7/8/8 4/20/6 1/9/4
f 2/14/5 4/20/6 9/15/9
