# Blender v2.79 (sub 0) OBJ File: ''
# www.blender.org
mtllib Body.mtl
v 5.399854 11.742114 -1.252641
v 8.290834 12.703407 -2.427171
v 7.390690 13.694633 -2.125429
v 6.735972 12.712310 -6.613488
v 7.621550 11.741938 -6.896390
v 5.371421 9.623223 -6.121600
v 5.873718 14.061315 -5.222853
v 3.715583 12.580218 -3.143495
v 5.821613 14.564910 -3.974273
v 8.402373 11.302406 -5.994812
v 8.447643 15.434366 -6.537169
v 8.373762 16.107693 -4.878066
v 12.207994 17.509916 -6.231525
v 9.455183 15.516169 -3.590020
v 10.675068 14.183805 -3.987695
v 9.642159 14.118917 -6.950655
v 10.748949 13.510483 -5.646800
v 9.137738 11.393377 -3.750556
v 9.197549 10.854803 -5.076663
v 9.098266 11.814270 -2.697838
v 7.188973 8.716081 -4.070622
v 7.093070 9.879886 -1.758978
v 5.920889 13.605443 -6.353102
v 3.710437 11.529874 -5.444738
v 6.664240 14.097550 -2.981405
v 6.785267 14.701299 0.686198
v 4.457084 12.763940 -0.518405
v 5.901710 15.367700 -0.125633
v 5.173393 15.247209 4.981561
v 4.301275 15.903199 4.197343
v 3.222149 12.821235 4.632433
v 2.307147 14.022409 0.389625
v 3.678966 16.530519 2.269560
v 3.878235 16.556528 0.937310
v 6.176563 14.656024 4.471794
v 6.012763 18.707981 1.662250
v 5.752812 18.670334 3.434948
v 9.296166 21.092321 3.088284
v 8.609022 16.994646 1.999928
v 7.409897 17.891520 0.914029
v 6.922273 17.790445 4.524176
v 8.349073 16.957001 3.772625
v 7.405182 14.084303 2.535467
v 7.198175 14.053973 3.952657
v 7.577822 14.103531 1.414417
v 5.498682 11.476312 3.716448
v 6.029021 11.500161 1.187756
v 3.498581 16.506969 3.475551
v 1.727664 14.015274 2.845562
v 4.964884 15.918103 0.366487
v 2.080063 5.928548 -2.181721
v 1.241715 8.980160 -6.514468
v 1.527027 9.084139 -1.971435
v 1.785541 5.923687 -6.596189
v 2.162531 4.656679 -4.365164
v -1.252628 6.495202 -2.413647
v -0.940121 5.173323 -4.147795
v -1.411302 5.094446 -4.124061
v 1.009133 5.546411 -2.432258
v -2.177986 2.667434 0.669366
v 0.180456 6.479049 -2.140491
v 1.871729 5.210952 -1.563903
v 1.120180 6.731742 -0.202169
v 0.237574 7.063798 -1.036786
v 1.928849 5.795704 -0.460196
v 1.909751 9.187120 -4.116649
v 3.361980 7.572062 -4.578686
v 1.960474 10.149637 -2.158514
v 4.810274 6.917346 -3.063911
v 3.384301 9.526813 -0.632094
v 4.798634 7.852830 -1.116862
v 3.715583 12.580218 -3.143495
v 5.371421 9.623223 -6.121600
v 3.710437 11.529874 -5.444738
v 5.399854 11.742114 -1.252641
v 6.664240 14.097550 -2.981405
v 7.188973 8.716081 -4.070622
v 9.137738 11.393377 -3.750556
v 7.093070 9.879886 -1.758978
v 8.402373 11.302406 -5.994812
v 6.735972 12.712310 -6.613488
v 5.873718 14.061315 -5.222853
v 8.290834 12.703407 -2.427171
v -2.174149 2.659796 0.640180
v 0.002086 7.150804 2.473299
v -0.714492 7.677486 1.550927
v 1.075014 6.559622 2.141672
v -0.351684 7.634004 0.355168
v 0.730960 7.065555 0.054184
v 1.437822 6.516140 0.945910
v 1.587355 10.238420 3.810928
v 0.371109 11.219797 2.220291
v 1.015229 11.113691 0.137327
v 3.448075 9.139062 3.237104
v 2.832337 10.046617 -0.416467
v 4.035411 9.049808 1.109427
v 2.307147 14.022409 0.389625
v 3.222149 12.821235 4.632433
v 1.727664 14.015274 2.845562
v 4.457084 12.763940 -0.518405
v 4.964884 15.918103 0.366487
v 5.498682 11.476312 3.716448
v 6.029021 11.500161 1.187756
v 7.405182 14.084303 2.535467
v 6.176563 14.656024 4.471794
v 4.301275 15.903199 4.197343
v 3.678966 16.530519 2.269560
v 6.785267 14.701299 0.686198
v -3.301005 3.563854 -2.692569
v -2.933254 3.626657 -2.191929
v -3.476222 2.810184 -2.356488
v 2.656498 -2.061813 0.000000
v 2.764772 -1.328775 1.409369
v 1.690160 -1.484433 2.123122
v 1.496839 -2.851277 0.000001
v -1.023787 -1.632517 2.612589
v -2.538069 -2.728932 0.000001
v -1.022373 -3.031654 0.000001
v 2.098552 -1.314241 2.108686
v 2.593795 -1.274166 1.889097
v 2.722570 -0.591987 2.856815
v 2.764769 -1.328775 1.409369
v 2.999747 -0.708085 2.270560
v 2.066239 -0.977709 2.815802
v 1.690161 -1.484432 2.123122
v 1.690162 -1.484433 -2.123120
v -1.023787 -1.632518 -2.612587
v 2.593794 -1.274165 -1.889097
v 2.098551 -1.314240 -2.108685
v 2.722569 -0.591987 -2.856814
v 2.999745 -0.708085 -2.270560
v 2.764770 -1.328773 -1.409368
v 2.066238 -0.977709 -2.815802
v 1.690162 -1.484433 -2.123120
v 2.764771 -1.328774 -1.409368
v -3.539535 -0.007669 -0.000000
v -2.538069 -2.728932 0.000001
v -2.539286 -1.527406 2.098963
v 3.794594 -0.000252 0.000000
v 3.056104 1.851910 1.050752
v 3.057418 0.553527 2.037373
v -2.541610 0.772050 2.936240
v -2.543236 2.378642 1.620056
v 3.059060 -1.070129 1.004573
v 1.142746 2.649372 1.509687
v -1.023787 -1.632517 2.612589
v -1.028193 2.723205 1.712855
v -1.028722 3.245589 -0.000001
v -2.543802 2.939801 -0.000000
v -1.026319 0.869663 3.381111
v 1.690160 -1.484433 2.123122
v 2.764772 -1.328775 1.409369
v 1.144580 0.837375 2.976725
v 3.059792 -1.794494 0.000000
v 1.328422 3.130404 -0.000001
v 3.055743 2.208849 -0.000001
v -2.539286 -1.527406 -2.098960
v 3.056104 1.851910 -1.050753
v 3.057418 0.553527 -2.037374
v -2.543233 2.378639 -1.620056
v -2.541610 0.772050 -2.936239
v 3.059059 -1.070128 -1.004572
v 1.142747 2.649372 -1.509688
v 1.144580 0.837373 -2.976724
v -1.028194 2.723203 -1.712855
v -1.026317 0.869662 -3.381110
v -1.023787 -1.632518 -2.612587
v 2.764771 -1.328774 -1.409368
v 1.690162 -1.484433 -2.123120
v 3.059792 -1.794494 0.000000
v 2.656498 -2.061813 0.000000
v 2.764771 -1.328774 -1.409368
v 2.764772 -1.328775 1.409369
vt 0.000000 0.000000
vt 0.000000 0.000000
vt 0.000000 0.000000
vt 0.000000 0.000000
vt 0.000000 0.000000
vt 0.000000 0.000000
vt 0.000000 0.000000
vt 0.000000 0.000000
vt 0.000000 0.000000
vt 0.000000 0.000000
vt 0.000000 0.000000
vt 0.000000 0.000000
vt 0.000000 0.000000
vt 0.000000 0.000000
vt 0.000000 0.000000
vt 0.000000 0.000000
vt 0.000000 0.000000
vt 0.000000 0.000000
vt 0.000000 0.000000
vt 0.000000 0.000000
vt 0.000000 0.000000
vt 0.000000 0.000000
vt 0.000000 0.000000
vt 0.000000 0.000000
vt 0.000000 0.000000
vt 0.000000 0.000000
vt 0.000000 0.000000
vt 0.000000 0.000000
vt 0.000000 0.000000
vt 0.000000 0.000000
vt 0.000000 0.000000
vt 0.000000 0.000000
vt 0.000000 0.000000
vt 0.000000 0.000000
vt 0.000000 0.000000
vt 0.000000 0.000000
vt 0.000000 0.000000
vt 0.000000 0.000000
vt 0.000000 0.000000
vt 0.000000 0.000000
vt 0.000000 0.000000
vt 0.000000 0.000000
vt 0.000000 0.000000
vt 0.000000 0.000000
vt 0.000000 0.000000
vt 0.000000 0.000000
vt 0.000000 0.000000
vt 0.000000 0.000000
vt 0.000000 0.000000
vt 0.000000 0.000000
vt 0.000000 0.000000
vt 0.000000 0.000000
vt 0.000000 0.000000
vt 0.000000 0.000000
vt 0.000000 0.000000
vt 0.000000 0.000000
vt 0.000000 0.000000
vt 0.000000 0.000000
vt 0.000000 0.000000
vt 0.000000 0.000000
vt 0.000000 0.000000
vt 0.000000 0.000000
vt 0.000000 0.000000
vt 0.000000 0.000000
vt 0.000000 0.000000
vt 0.000000 0.000000
vt 0.000000 0.000000
vt 0.000000 0.000000
vt 0.000000 0.000000
vt 0.000000 0.000000
vt 0.000000 0.000000
vt 0.000000 0.000000
vt 0.000000 0.000000
vt 0.000000 0.000000
vt 0.000000 0.000000
vt 0.000000 0.000000
vt 0.000000 0.000000
vt 0.000000 0.000000
vt 0.000000 0.000000
vt 0.000000 0.000000
vt 0.000000 0.000000
vt 0.000000 0.000000
vt 0.000000 0.000000
vt 0.000000 0.000000
vt 0.000000 0.000000
vt 0.000000 0.000000
vt 0.000000 0.000000
vt 0.000000 0.000000
vt 0.000000 0.000000
vt 0.000000 0.000000
vt 0.000000 0.000000
vt 0.000000 0.000000
vt 0.000000 0.000000
vt 0.000000 0.000000
vt 0.000000 0.000000
vt 0.000000 0.000000
vt 0.000000 0.000000
vt 0.000000 0.000000
vt 0.000000 0.000000
vt 0.000000 0.000000
vt 0.000000 0.000000
vt 0.000000 0.000000
vt 0.000000 0.000000
vt 0.000000 0.000000
vt 0.000000 0.000000
vt 0.000000 0.000000
vt 0.000000 0.000000
vt 0.000000 0.000000
vt 0.000000 0.000000
vt 0.000000 0.000000
vt 0.000000 0.000000
vt 0.000000 0.000000
vt 0.000000 0.000000
vt 0.000000 0.000000
vt 0.000000 0.000000
vt 0.000000 0.000000
vt 0.000000 0.000000
vt 0.000000 0.000000
vt 0.000000 0.000000
vt 0.000000 0.000000
vt 0.000000 0.000000
vt 0.000000 0.000000
vt 0.000000 0.000000
vt 0.000000 0.000000
vt 0.000000 0.000000
vt 0.000000 0.000000
vt 0.000000 0.000000
vt 0.000000 0.000000
vt 0.000000 0.000000
vt 0.000000 0.000000
vt 0.000000 0.000000
vt 0.000000 0.000000
vt 0.000000 0.000000
vt 0.000000 0.000000
vt 0.000000 0.000000
vt 0.000000 0.000000
vt 0.000000 0.000000
vt 0.000000 0.000000
vt 0.000000 0.000000
vt 0.000000 0.000000
vt 0.000000 0.000000
vt 0.000000 0.000000
vt 0.000000 0.000000
vt 0.000000 0.000000
vt 0.000000 0.000000
vt 0.000000 0.000000
vt 0.000000 0.000000
vt 0.000000 0.000000
vt 0.000000 0.000000
vt 0.000000 0.000000
vt 0.000000 0.000000
vt 0.000000 0.000000
vt 0.000000 0.000000
vt 0.000000 0.000000
vt 0.000000 0.000000
vt 0.000000 0.000000
vt 0.000000 0.000000
vt 0.000000 0.000000
vt 0.000000 0.000000
vt 0.000000 0.000000
vt 0.000000 0.000000
vt 0.000000 0.000000
vn 0.0169 0.3936 0.9191
vn 0.4278 0.1156 0.8965
vn 0.0532 0.4741 0.8788
vn -0.2418 0.0640 -0.9682
vn 0.1273 -0.2999 -0.9454
vn 0.0262 -0.3678 -0.9295
vn -0.6353 0.7065 -0.3118
vn -0.6250 0.7515 0.2110
vn -0.5592 0.8110 0.1718
vn 0.4788 -0.5527 -0.6821
vn -0.3611 0.5569 -0.7479
vn -0.4049 0.9070 0.1158
vn 0.6780 0.6919 -0.2481
vn 0.1707 0.5886 0.7902
vn 0.8012 -0.1027 0.5895
vn 0.2645 -0.1293 -0.9557
vn 0.8437 -0.4580 -0.2800
vn 0.8171 -0.5221 0.2445
vn 0.7289 -0.6339 -0.2586
vn 0.7080 -0.2610 0.6562
vn 0.6738 -0.7169 -0.1787
vn 0.6278 -0.3028 0.7170
vn -0.5232 0.4203 -0.7413
vn -0.6172 0.3486 -0.7053
vn -0.3130 0.7290 0.6088
vn 0.6105 -0.1401 -0.7795
vn 0.2040 0.0344 -0.9783
vn 0.2042 0.1440 -0.9683
vn -0.0644 0.0630 0.9959
vn -0.4647 0.3553 0.8110
vn -0.1693 -0.0057 0.9855
vn -0.6160 0.5114 -0.5991
vn -0.7474 0.6570 -0.0986
vn -0.5776 0.5982 -0.5554
vn 0.3527 -0.1939 0.9154
vn -0.4402 0.7329 -0.5187
vn -0.5704 0.7146 0.4050
vn 0.5419 0.8350 0.0948
vn 0.9223 -0.1687 -0.3476
vn 0.3012 0.2990 -0.9055
vn 0.0439 0.2532 0.9664
vn 0.7899 -0.1901 0.5830
vn 0.8915 -0.4353 0.1251
vn 0.7086 -0.3807 0.5941
vn 0.8541 -0.3513 -0.3836
vn 0.6599 -0.4875 0.5717
vn 0.8005 -0.4409 -0.4060
vn -0.7136 0.5544 0.4282
vn -0.7953 0.4676 0.3858
vn -0.2240 0.4094 -0.8844
vn -0.1960 -0.6054 -0.7714
vn -0.6297 -0.6747 0.3850
vn -0.8200 0.1072 -0.5622
vn 0.4699 -0.8760 -0.1087
vn -0.1240 0.2793 0.9521
vn -0.7818 0.5466 0.2998
vn 0.5023 -0.4303 0.7500
vn -0.7747 0.1529 -0.6135
vn -0.1390 -0.5615 -0.8157
vn -0.7634 0.5891 0.2649
vn 0.5105 -0.8476 -0.1447
vn -0.1155 0.3074 0.9445
vn 0.5295 -0.4216 0.7361
vn -0.6971 0.6845 0.2133
vn -0.0742 -0.4495 -0.8902
vn -0.6978 0.2816 -0.6586
vn -0.0659 0.3826 0.9215
vn -0.3803 0.6712 0.6363
vn 0.6047 -0.7804 -0.1594
vn 0.7461 -0.5818 0.3238
vn 0.5795 -0.3430 0.7392
vn 0.3927 -0.6604 -0.6400
vn -0.3647 0.0128 -0.9310
vn -0.7151 0.6365 -0.2889
vn 0.3554 0.0698 0.9321
vn -0.4925 -0.8620 -0.1196
vn -0.4092 -0.1750 0.8955
vn -0.9476 0.2451 0.2049
vn 0.4190 -0.6310 0.6529
vn -0.6634 0.2080 -0.7187
vn 0.1552 -0.2431 -0.9575
vn 0.6964 -0.6635 -0.2733
vn -0.3778 -0.1192 0.9182
vn -0.9227 0.3259 0.2058
vn -0.6307 0.2866 -0.7211
vn 0.4490 -0.5907 0.6704
vn 0.1783 -0.1902 -0.9654
vn 0.7228 -0.6315 -0.2806
vn -0.6364 0.4066 -0.6554
vn -0.2860 -0.0396 0.9574
vn -0.8591 0.4317 0.2749
vn 0.1694 -0.0658 -0.9833
vn -0.2193 0.2961 -0.9296
vn 0.5517 -0.5410 0.6348
vn 0.7721 -0.5401 -0.3349
vn 0.8306 -0.5305 0.1692
vn 0.2183 -0.2693 0.9380
vn -0.6127 0.3167 0.7241
vn -0.7965 0.5752 -0.1863
vn 0.6059 -0.2609 -0.7515
vn 0.5249 -0.8511 0.0000
vn 0.3871 -0.8298 0.4019
vn 0.2756 -0.8293 0.4860
vn 0.3141 -0.9494 0.0000
vn 0.0313 -0.8686 0.4944
vn -0.1958 -0.9806 0.0000
vn -0.0603 -0.9982 0.0000
vn 0.3371 -0.8494 0.4060
vn 0.3785 -0.8694 0.3178
vn 0.2967 -0.7986 0.5235
vn 0.4736 -0.8316 0.2899
vn 0.6594 -0.6836 0.3128
vn 0.3626 -0.8350 0.4139
vn 0.3650 -0.8421 0.3970
vn 0.2756 -0.8293 -0.4860
vn 0.0313 -0.8686 -0.4944
vn 0.3785 -0.8694 -0.3178
vn 0.3371 -0.8494 -0.4060
vn 0.2967 -0.7986 -0.5235
vn 0.6594 -0.6836 -0.3128
vn 0.4736 -0.8316 -0.2899
vn 0.3626 -0.8350 -0.4139
vn 0.3650 -0.8421 -0.3970
vn 0.3871 -0.8298 -0.4019
vn -0.9995 -0.0292 0.0000
vn -0.8134 -0.5817 0.0000
vn -0.6293 -0.5092 0.5871
vn 0.9976 -0.0689 0.0000
vn 0.7107 0.5694 0.4130
vn 0.7013 0.0748 0.7089
vn -0.6263 0.1407 0.7667
vn -0.6256 0.6348 0.4533
vn 0.8691 -0.3445 0.3548
vn 0.2512 0.7964 0.5502
vn -0.1139 -0.4317 0.8948
vn -0.0642 0.8312 0.5522
vn -0.0734 0.9973 0.0000
vn -0.6208 0.7840 0.0000
vn -0.0578 0.2049 0.9771
vn 0.4111 -0.2279 0.8826
vn 0.7219 -0.3204 0.6134
vn 0.3079 0.1934 0.9315
vn 0.9150 -0.4035 0.0000
vn 0.2741 0.9617 0.0000
vn 0.7215 0.6923 0.0000
vn -0.6293 -0.5092 -0.5871
vn 0.7108 0.5694 -0.4130
vn 0.7013 0.0748 -0.7089
vn -0.6256 0.6348 -0.4533
vn -0.6263 0.1407 -0.7667
vn 0.8691 -0.3445 -0.3548
vn 0.2512 0.7964 -0.5502
vn 0.3079 0.1934 -0.9315
vn -0.0642 0.8312 -0.5522
vn -0.0578 0.2049 -0.9771
vn -0.1139 -0.4317 -0.8948
vn 0.7219 -0.3204 -0.6134
vn 0.4111 -0.2279 -0.8826
vn 0.5525 -0.8335 0.0000
vn 0.5145 -0.7762 -0.3642
vn 0.5145 -0.7762 0.3642
usemtl 255_255_255
f 1/1/1 2/2/2 3/3/3
f 4/4/4 5/5/5 6/6/6
f 7/7/7 8/8/8 9/9/9
f 10/10/10 6/6/6 5/5/5
f 11/11/11 12/12/12 13/13/13
f 14/14/14 15/15/15 13/13/13
f 16/16/16 11/11/11 13/13/13
f 15/15/15 17/17/17 13/13/13
f 12/12/12 14/14/14 13/13/13
f 17/17/17 16/16/16 13/13/13
f 7/7/7 12/12/12 11/11/11
f 4/4/4 11/11/11 16/16/16
f 14/14/14 12/12/12 9/9/9
f 17/17/17 18/18/18 19/19/19
f 10/10/10 16/16/16 17/17/17
f 15/15/15 18/18/18 17/17/17
f 20/20/20 18/18/18 15/15/15
f 19/19/19 18/18/18 21/21/21
f 20/20/20 22/22/22 18/18/18
f 15/15/15 2/2/2 20/20/20
f 19/19/19 21/21/21 10/10/10
f 19/19/19 10/10/10 17/17/17
f 5/5/5 16/16/16 10/10/10
f 5/5/5 4/4/4 16/16/16
f 23/23/23 11/11/11 4/4/4
f 23/23/23 4/4/4 24/24/24
f 23/23/23 24/24/24 7/7/7
f 23/23/23 7/7/7 11/11/11
f 9/9/9 12/12/12 7/7/7
f 3/3/3 25/25/25 1/1/1
f 9/9/9 8/8/8 25/25/25
f 20/20/20 2/2/2 22/22/22
f 3/3/3 14/14/14 25/25/25
f 25/25/25 14/14/14 9/9/9
f 14/14/14 3/3/3 15/15/15
f 3/3/3 2/2/2 15/15/15
f 26/26/26 27/27/27 28/28/28
f 29/29/29 30/30/30 31/31/31
f 32/32/32 33/33/33 34/34/34
f 31/31/31 35/35/35 29/29/29
f 36/36/36 37/37/37 38/38/38
f 39/39/39 40/40/40 38/38/38
f 37/37/37 41/41/41 38/38/38
f 42/42/42 39/39/39 38/38/38
f 40/40/40 36/36/36 38/38/38
f 41/41/41 42/42/42 38/38/38
f 36/36/36 33/33/33 37/37/37
f 37/37/37 30/30/30 41/41/41
f 36/36/36 40/40/40 34/34/34
f 43/43/43 42/42/42 44/44/44
f 41/41/41 35/35/35 42/42/42
f 43/43/43 39/39/39 42/42/42
f 43/43/43 45/45/45 39/39/39
f 43/43/43 44/44/44 46/46/46
f 47/47/47 45/45/45 43/43/43
f 26/26/26 39/39/39 45/45/45
f 46/46/46 44/44/44 35/35/35
f 35/35/35 44/44/44 42/42/42
f 41/41/41 29/29/29 35/35/35
f 30/30/30 29/29/29 41/41/41
f 37/37/37 48/48/48 30/30/30
f 30/30/30 48/48/48 49/49/49
f 49/49/49 48/48/48 33/33/33
f 33/33/33 48/48/48 37/37/37
f 36/36/36 34/34/34 33/33/33
f 50/50/50 28/28/28 27/27/27
f 32/32/32 34/34/34 50/50/50
f 26/26/26 45/45/45 47/47/47
f 40/40/40 28/28/28 50/50/50
f 40/40/40 50/50/50 34/34/34
f 28/28/28 40/40/40 39/39/39
f 26/26/26 28/28/28 39/39/39
f 112/101/101 113/102/102 114/103/103
f 115/104/104 114/103/103 116/105/105
f 117/106/106 118/107/107 116/105/105
f 119/108/108 120/109/109 121/110/110
f 122/111/111 123/112/112 120/109/109
f 119/108/108 124/113/113 125/114/114
f 125/114/114 122/111/111 119/108/108
f 112/101/101 115/104/104 126/115/115
f 115/104/104 118/107/107 127/116/116
f 118/107/107 117/106/106 127/116/116
f 128/117/117 129/118/118 130/119/119
f 131/120/120 132/121/121 128/117/117
f 133/122/122 129/118/118 134/123/123
f 132/121/121 129/118/118 128/117/117
f 115/104/104 112/101/101 114/103/103
f 118/107/107 115/104/104 116/105/105
f 120/109/109 119/108/108 122/111/111
f 135/124/124 112/101/101 126/115/115
f 126/115/115 115/104/104 127/116/116
f 134/123/123 129/118/118 132/121/121
usemtl 255_141_0
f 59/51/51 60/52/52 61/53/53
f 59/51/51 62/54/54 60/52/52
f 63/55/55 64/56/56 60/52/52
f 61/53/53 60/52/52 64/56/56
f 65/57/57 60/52/52 62/54/54
f 63/55/55 60/52/52 65/57/57
f 66/58/58 67/59/59 61/53/53
f 68/60/60 66/58/58 64/56/56
f 62/54/54 59/51/51 69/61/61
f 63/55/55 70/62/62 68/60/60
f 63/55/55 65/57/57 70/62/62
f 65/57/57 62/54/54 71/63/63
f 68/60/60 70/62/62 72/64/64
f 73/65/65 67/59/59 74/66/66
f 70/62/62 71/63/63 75/67/67
f 76/68/68 72/64/64 75/67/67
f 66/58/58 68/60/60 74/66/66
f 69/61/61 67/59/59 77/69/69
f 78/70/70 79/71/71 77/69/69
f 71/63/63 69/61/61 79/71/71
f 77/69/69 73/65/65 80/72/72
f 74/66/66 81/73/73 73/65/65
f 74/66/66 72/64/64 82/74/74
f 79/71/71 83/75/75 75/67/67
f 59/51/51 61/53/53 67/59/59
f 61/53/53 64/56/56 66/58/58
f 67/59/59 69/61/61 59/51/51
f 71/63/63 70/62/62 65/57/57
f 69/61/61 71/63/63 62/54/54
f 75/67/67 72/64/64 70/62/62
f 66/58/58 74/66/66 67/59/59
f 79/71/71 75/67/67 71/63/63
f 72/64/64 74/66/66 68/60/60
f 73/65/65 77/69/69 67/59/59
f 77/69/69 79/71/71 69/61/61
f 64/56/56 63/55/55 68/60/60
f 84/76/76 85/77/77 86/78/78
f 87/79/79 85/77/77 84/76/76
f 88/80/80 89/81/81 84/76/76
f 84/76/76 86/78/78 88/80/80
f 84/76/76 90/82/82 87/79/79
f 84/76/76 89/81/81 90/82/82
f 91/83/83 92/84/84 86/78/78
f 92/84/84 93/85/85 88/80/80
f 85/77/77 87/79/79 94/86/86
f 95/87/87 89/81/81 93/85/85
f 90/82/82 89/81/81 95/87/87
f 87/79/79 90/82/82 96/88/88
f 95/87/87 93/85/85 97/89/89
f 91/83/83 98/90/90 99/91/91
f 96/88/88 95/87/87 100/92/92
f 97/89/89 101/93/93 100/92/92
f 93/85/85 92/84/84 99/91/91
f 91/83/83 94/86/86 102/94/94
f 103/95/95 104/96/96 102/94/94
f 94/86/86 96/88/88 103/95/95
f 98/90/90 102/94/94 105/97/97
f 106/98/98 99/91/91 98/90/90
f 97/89/89 99/91/91 107/99/99
f 108/100/100 103/95/95 100/92/92
f 86/78/78 85/77/77 91/83/83
f 88/80/80 86/78/78 92/84/84
f 94/86/86 91/83/83 85/77/77
f 95/87/87 96/88/88 90/82/82
f 96/88/88 94/86/86 87/79/79
f 97/89/89 100/92/92 95/87/87
f 99/91/91 92/84/84 91/83/83
f 100/92/92 103/95/95 96/88/88
f 99/91/91 97/89/89 93/85/85
f 102/94/94 98/90/90 91/83/83
f 103/95/95 102/94/94 94/86/86
f 89/81/81 88/80/80 93/85/85
f 136/125/125 137/126/126 138/127/127
f 139/128/128 140/129/129 141/130/130
f 142/131/131 143/132/132 136/125/125
f 141/130/130 144/133/133 139/128/128
f 136/125/125 138/127/127 142/131/131
f 140/129/129 145/134/134 141/130/130
f 137/126/126 146/135/135 138/127/127
f 147/136/136 148/137/137 149/138/138
f 150/139/139 142/131/131 138/127/127
f 151/140/140 152/141/141 153/142/142
f 139/128/128 144/133/133 154/143/143
f 145/134/134 155/144/144 147/136/136
f 151/140/140 153/142/142 146/135/135
f 156/145/145 155/144/144 145/134/134
f 142/131/131 150/139/139 147/136/136
f 150/139/139 153/142/142 147/136/136
f 139/128/128 156/145/145 140/129/129
f 143/132/132 149/138/138 136/125/125
f 154/143/143 144/133/133 152/141/141
f 152/141/141 141/130/130 153/142/142
f 152/141/141 144/133/133 141/130/130
f 137/126/126 136/125/125 157/146/146
f 158/147/147 139/128/128 159/148/148
f 160/149/149 161/150/150 136/125/125
f 162/151/151 159/148/148 139/128/128
f 157/146/146 136/125/125 161/150/150
f 163/152/152 159/148/148 164/153/153
f 165/154/154 160/149/149 149/138/138
f 166/155/155 167/156/156 157/146/146
f 168/157/157 169/158/158 164/153/153
f 162/151/151 139/128/128 154/143/143
f 155/144/144 165/154/154 148/137/137
f 164/153/153 167/156/156 166/155/155
f 156/145/145 158/147/147 163/152/152
f 161/150/150 160/149/149 165/154/154
f 164/153/153 165/154/154 163/152/152
f 156/145/145 139/128/128 158/147/147
f 149/138/138 160/149/149 136/125/125
f 170/159/159 171/160/159 172/161/160
f 159/148/148 168/157/157 164/153/153
f 162/151/151 168/157/157 159/148/148
f 153/142/142 141/130/130 145/134/134
f 143/132/132 147/136/136 149/138/138
f 146/135/135 150/139/139 138/127/127
f 148/137/137 147/136/136 155/144/144
f 150/139/139 146/135/135 153/142/142
f 140/129/129 156/145/145 145/134/134
f 143/132/132 142/131/131 147/136/136
f 145/134/134 147/136/136 153/142/142
f 171/160/159 170/159/159 173/162/161
f 158/147/147 159/148/148 163/152/152
f 148/137/137 165/154/154 149/138/138
f 161/150/150 166/155/155 157/146/146
f 163/152/152 165/154/154 155/144/144
f 169/158/158 167/156/156 164/153/153
f 155/144/144 156/145/145 163/152/152
f 166/155/155 161/150/150 165/154/154
f 166/155/155 165/154/154 164/153/153
f 162/151/151 154/143/143 168/157/157
f 167/156/156 137/126/126 157/146/146
