# Blender v2.79 (sub 0) OBJ File: ''
# www.blender.org
mtllib FlyTails.mtl
v 0.003661 -0.001958 0.014734
v -0.558699 4.154043 -3.247265
v -1.241767 4.614921 -2.266114
v 0.707585 4.177450 -3.165879
v -0.674314 5.101389 -1.263764
v 0.583618 5.138506 -1.218330
v 1.275038 4.663920 -2.163527
v -2.160468 6.221026 -5.087487
v -2.801212 7.026796 -3.280057
v -1.710999 8.271145 -1.885520
v -0.105358 7.310385 -5.962792
v 0.127090 8.939180 -2.393197
v 0.865506 9.028166 -5.035383
v -2.256236 10.000303 -3.234136
v -3.891284 13.164419 -3.742657
v -0.942998 11.859634 -3.857045
v -3.332282 12.594126 -2.626360
v -3.770929 8.676516 -7.032114
v -3.577811 8.488302 -4.771066
v -6.203308 9.761599 -5.845429
v -5.661529 9.191647 -4.755686
v -3.770929 8.676516 -7.032114
v -0.942998 11.859634 -3.857045
v -3.520342 11.435974 -2.411679
v -2.256236 10.000303 -3.234136
v -4.486103 9.344381 -2.997222
v -3.738476 10.092606 -2.162665
v -2.032417 10.257084 -7.581165
v -6.011965 10.994686 -6.087494
v -0.734810 11.776186 -5.939487
v -5.020978 13.041431 -5.443670
v -6.511456 11.120955 -1.181044
v -7.506980 10.130592 -2.294398
v -10.431496 12.785736 -0.580057
v -6.977205 13.632492 -2.988071
v -6.224355 12.853365 -1.488859
v -8.257617 10.878498 -3.779469
v -7.972730 12.642130 -4.101425
v -5.020978 13.041431 -5.443670
v -5.817112 12.250441 -6.334008
v -4.392707 13.675972 -4.743984
v -2.032417 10.257084 -7.581165
v -0.734810 11.776186 -5.939487
v -6.011965 10.994686 -6.087494
v -5.661529 9.191647 -4.755686
v -5.162877 8.667067 -3.752688
v -3.577811 8.488302 -4.771066
v -4.486103 9.344381 -2.997222
v -3.520342 11.435974 -2.411679
v -3.891284 13.164419 -3.742657
v -0.558699 4.154039 3.247266
v 0.003660 -0.001958 -0.014736
v -1.241765 4.614921 2.266116
v 0.707587 4.177448 3.165879
v 0.583620 5.138508 1.218331
v -0.674315 5.101389 1.263765
v 1.275038 4.663918 2.163527
v -0.428117 7.920783 4.883795
v 1.400431 6.238028 5.635156
v -0.091637 8.891851 2.994849
v 2.693442 5.749765 4.466596
v 1.596923 8.339930 1.768398
v 2.565583 6.687575 2.883049
v 2.348313 11.644501 5.185697
v 2.627149 10.426189 3.345964
v 4.406234 10.016296 2.060344
v 3.916781 11.293518 2.174252
v 4.492814 8.422848 7.334080
v 3.185327 10.644356 7.088490
v 7.079820 10.844227 5.540201
v 7.550866 9.591545 5.418496
v 4.492814 8.422848 7.334080
v 2.627149 10.426189 3.345964
v 4.343860 12.003078 3.032679
v 5.787696 12.391039 4.880691
v 2.348313 11.644501 5.185697
v 4.839240 12.826117 4.028393
v 4.955035 7.138356 5.295740
v 7.105676 8.823675 4.508606
v 5.643493 8.509085 2.678637
v 4.361568 8.311132 3.289169
v 8.504798 12.523581 3.196178
v 7.243045 13.107477 2.065473
v 10.645507 12.709551 -0.535357
v 6.597693 12.058186 0.776698
v 7.254140 10.336742 0.611850
v 9.165128 10.829020 3.052350
v 8.515895 9.752850 1.742552
v 5.643493 8.509085 2.678637
v 6.652305 8.041698 3.581989
v 4.845275 8.870619 1.958172
v 4.955035 7.138356 5.295740
v 4.361568 8.311132 3.289169
v 7.105676 8.823675 4.508606
v 7.079820 10.844227 5.540201
v 6.646266 11.997194 5.652215
v 3.185327 10.644356 7.088490
v 5.787696 12.391039 4.880691
v 4.343860 12.003078 3.032679
v 4.406234 10.016296 2.060344
vt 0.000000 0.000000
vt 0.000000 0.000000
vt 0.000000 0.000000
vt 0.000000 0.000000
vt 0.000000 0.000000
vt 0.000000 0.000000
vt 0.000000 0.000000
vt 0.000000 0.000000
vt 0.000000 0.000000
vt 0.000000 0.000000
vt 0.000000 0.000000
vt 0.000000 0.000000
vt 0.000000 0.000000
vt 0.000000 0.000000
vt 0.000000 0.000000
vt 0.000000 0.000000
vt 0.000000 0.000000
vt 0.000000 0.000000
vt 0.000000 0.000000
vt 0.000000 0.000000
vt 0.000000 0.000000
vt 0.000000 0.000000
vt 0.000000 0.000000
vt 0.000000 0.000000
vt 0.000000 0.000000
vt 0.000000 0.000000
vt 0.000000 0.000000
vt 0.000000 0.000000
vt 0.000000 0.000000
vt 0.000000 0.000000
vt 0.000000 0.000000
vt 0.000000 0.000000
vt 0.000000 0.000000
vt 0.000000 0.000000
vt 0.000000 0.000000
vt 0.000000 0.000000
vt 0.000000 0.000000
vt 0.000000 0.000000
vt 0.000000 0.000000
vt 0.000000 0.000000
vt 0.000000 0.000000
vt 0.000000 0.000000
vt 0.000000 0.000000
vt 0.000000 0.000000
vt 0.000000 0.000000
vt 0.000000 0.000000
vt 0.000000 0.000000
vt 0.000000 0.000000
vt 0.000000 0.000000
vt 0.000000 0.000000
vt 0.000000 0.000000
vt 0.000000 0.000000
vt 0.000000 0.000000
vt 0.000000 0.000000
vt 0.000000 0.000000
vt 0.000000 0.000000
vt 0.000000 0.000000
vt 0.000000 0.000000
vt 0.000000 0.000000
vt 0.000000 0.000000
vt 0.000000 0.000000
vt 0.000000 0.000000
vt 0.000000 0.000000
vt 0.000000 0.000000
vt 0.000000 0.000000
vt 0.000000 0.000000
vt 0.000000 0.000000
vt 0.000000 0.000000
vt 0.000000 0.000000
vt 0.000000 0.000000
vt 0.000000 0.000000
vt 0.000000 0.000000
vt 0.000000 0.000000
vt 0.000000 0.000000
vt 0.000000 0.000000
vt 0.000000 0.000000
vt 0.000000 0.000000
vt 0.000000 0.000000
vt 0.000000 0.000000
vt 0.000000 0.000000
vt 0.000000 0.000000
vt 0.000000 0.000000
vt 0.000000 0.000000
vt 0.000000 0.000000
vt 0.000000 0.000000
vt 0.000000 0.000000
vt 0.000000 0.000000
vt 0.000000 0.000000
vt 0.000000 0.000000
vt 0.000000 0.000000
vt 0.000000 0.000000
vt 0.000000 0.000000
vt 0.000000 0.000000
vt 0.000000 0.000000
vt 0.000000 0.000000
vt 0.000000 0.000000
vt 0.000000 0.000000
vt 0.000000 0.000000
vt 0.000000 0.000000
vt 0.000000 0.000000
vn -0.3636 -0.6910 -0.6248
vn -0.0018 -0.9008 0.4343
vn -0.9061 -0.3921 0.1591
vn 0.5807 -0.5035 -0.6398
vn 0.4908 0.2207 0.8429
vn -0.4716 0.0624 0.8796
vn 0.9935 -0.0647 0.0935
vn -0.9025 -0.2721 0.3340
vn -0.4913 -0.7014 -0.5164
vn -0.4039 0.2790 0.8712
vn 0.4528 -0.3654 -0.8133
vn 0.5586 0.4555 0.6932
vn 0.9321 0.2050 -0.2985
vn -0.1140 0.1145 0.9869
vn -0.3020 -0.5353 -0.7888
vn -0.6911 -0.6787 0.2484
vn 0.6153 0.6680 0.4186
vn 0.4957 -0.0599 0.8664
vn 0.2628 0.0863 -0.9610
vn 0.1174 0.6809 -0.7229
vn 0.6454 0.6114 -0.4579
vn -0.3426 0.0510 -0.9381
vn -0.3197 -0.9461 -0.0514
vn 0.2904 -0.7951 0.5324
vn 0.4048 0.9144 0.0038
vn -0.0018 -0.9008 -0.4343
vn -0.5410 -0.4175 0.7300
vn -0.9990 -0.0085 0.0440
vn 0.4639 -0.6829 0.5643
vn -0.5765 0.3114 -0.7554
vn 0.3738 0.1727 -0.9113
vn 0.9221 -0.3179 -0.2206
vn -0.2157 -0.5530 0.8047
vn -0.8499 0.1721 0.4981
vn -0.7260 0.5851 -0.3614
vn 0.5220 -0.8443 0.1210
vn 0.1934 0.3300 -0.9239
vn 0.6957 -0.3404 -0.6326
vn -0.6613 0.7241 0.1956
vn 0.1558 -0.2956 0.9425
vn -0.3239 0.4040 0.8555
vn -0.4556 0.4662 -0.7584
vn -0.6363 0.5953 -0.4906
vn 0.5082 -0.8335 0.2169
vn 0.0902 -0.5808 -0.8091
vn -0.0947 -0.8714 -0.4813
vn 0.6386 -0.5774 0.5087
vn 0.3393 0.2983 0.8921
vn -0.1394 0.8499 0.5081
vn -0.5867 -0.4633 -0.6642
vn 0.5073 0.5753 0.6416
vn 0.3350 0.8964 0.2902
vn 0.4302 0.5873 0.6856
vn -0.5077 -0.8413 -0.1855
vn -0.6468 -0.4956 -0.5796
vn -0.5511 -0.5882 -0.5918
vn 0.0841 -0.7785 0.6220
vn 0.5185 -0.4063 0.7523
vn 0.3515 -0.4292 0.8320
vn -0.5910 -0.0647 -0.8041
vn -0.4065 -0.8408 0.3575
vn 0.1156 -0.3290 0.9372
vn -0.8169 0.2317 0.5281
vn 0.2617 0.5860 0.7669
vn -0.1234 0.9923 -0.0092
vn -0.7944 -0.4434 -0.4152
vn -0.6471 0.4763 -0.5954
vn -0.1273 0.7924 -0.5966
vn -0.3751 0.4245 -0.8241
vn 0.1383 0.9642 -0.2262
vn -0.1303 0.3362 -0.9327
vn 0.3701 0.8868 -0.2768
vn -0.1975 -0.9560 0.2168
vn -0.0374 -0.9925 0.1160
vn 0.4394 0.0943 0.8933
vn -0.5579 -0.1409 -0.8179
vn -0.7388 0.2567 -0.6231
vn -0.6405 0.3738 -0.6708
vn 0.7356 -0.3094 0.6026
vn 0.6254 0.1629 0.7631
vn 0.5905 -0.3672 0.7186
vn -0.4061 0.9120 0.0571
vn 0.0332 0.9044 0.4253
vn -0.2627 0.9624 0.0699
vn 0.6833 -0.6880 0.2443
vn -0.1003 0.9884 -0.1142
vn 0.5595 0.6824 0.4704
vn 0.7085 0.3278 -0.6250
vn -0.1006 -0.4652 -0.8795
vn -0.4352 0.4271 -0.7926
vn 0.8986 -0.2029 0.3891
vn 0.5621 -0.7751 -0.2887
vn 0.0814 -0.8484 -0.5231
vn 0.4432 -0.8786 -0.1777
vn -0.4074 -0.5885 -0.6983
vn 0.3725 -0.9207 -0.1164
vn -0.4685 -0.7407 -0.4816
vn 0.3624 0.5834 0.7268
vn 0.1473 0.5178 0.8427
vn -0.5131 0.7693 -0.3806
usemtl 255_141_0
s 1
f 2/1/1 1/2/2 3/3/3
f 2/1/1 4/4/4 1/2/2
f 6/5/5 5/6/6 1/2/2
f 3/3/3 1/2/2 5/6/6
f 7/7/7 1/2/2 4/4/4
f 6/5/5 1/2/2 7/7/7
f 9/8/8 8/9/9 3/3/3
f 10/10/10 9/8/8 5/6/6
f 4/4/4 2/1/1 11/11/11
f 6/5/5 12/12/12 10/10/10
f 6/5/5 7/7/7 12/12/12
f 7/7/7 4/4/4 13/13/13
f 10/10/10 12/12/12 14/14/14
f 18/15/15 8/9/9 19/16/16
f 12/12/12 13/13/13 23/17/17
f 24/18/18 14/14/14 23/17/17
f 9/8/8 10/10/10 19/16/16
f 11/11/11 8/9/9 28/19/19
f 31/20/20 30/21/21 28/19/19
f 13/13/13 11/11/11 30/21/21
f 28/19/19 18/15/15 44/22/22
f 19/16/16 45/23/23 18/15/15
f 19/16/16 14/14/14 48/24/24
f 30/21/21 50/25/25 23/17/17
f 2/1/1 3/3/3 8/9/9
f 3/3/3 5/6/6 9/8/8
f 8/9/9 11/11/11 2/1/1
f 13/13/13 12/12/12 7/7/7
f 11/11/11 13/13/13 4/4/4
f 23/17/17 14/14/14 12/12/12
f 9/8/8 19/16/16 8/9/9
f 30/21/21 23/17/17 13/13/13
f 14/14/14 19/16/16 10/10/10
f 18/15/15 28/19/19 8/9/9
f 28/19/19 30/21/21 11/11/11
f 5/6/6 6/5/5 10/10/10
f 52/26/26 51/27/27 53/28/28
f 54/29/29 51/27/27 52/26/26
f 56/30/30 55/31/31 52/26/26
f 52/26/26 53/28/28 56/30/30
f 52/26/26 57/32/32 54/29/29
f 52/26/26 55/31/31 57/32/32
f 59/33/33 58/34/34 53/28/28
f 58/34/34 60/35/35 56/30/30
f 51/27/27 54/29/29 61/36/36
f 62/37/37 55/31/31 60/35/35
f 57/32/32 55/31/31 62/37/37
f 54/29/29 57/32/32 63/38/38
f 62/37/37 60/35/35 64/39/39
f 59/33/33 68/40/40 69/41/41
f 63/38/38 62/37/37 73/42/42
f 64/39/39 74/43/43 73/42/42
f 60/35/35 58/34/34 69/41/41
f 59/33/33 61/36/36 78/44/44
f 81/45/45 80/46/46 78/44/44
f 61/36/36 63/38/38 81/45/45
f 68/40/40 78/44/44 94/47/47
f 95/48/48 69/41/41 68/40/40
f 64/39/39 69/41/41 98/49/49
f 100/50/50 81/45/45 73/42/42
f 53/28/28 51/27/27 59/33/33
f 56/30/30 53/28/28 58/34/34
f 61/36/36 59/33/33 51/27/27
f 62/37/37 63/38/38 57/32/32
f 63/38/38 61/36/36 54/29/29
f 64/39/39 73/42/42 62/37/37
f 69/41/41 58/34/34 59/33/33
f 73/42/42 81/45/45 63/38/38
f 69/41/41 64/39/39 60/35/35
f 78/44/44 68/40/40 59/33/33
f 81/45/45 78/44/44 61/36/36
f 55/31/31 56/30/30 60/35/35
usemtl 255_255_255
f 16/51/51 15/52/52 17/53/53
f 21/54/54 20/55/55 22/56/56
f 26/57/57 25/58/58 27/59/59
f 29/60/60 22/56/56 20/55/55
f 33/61/61 32/62/62 34/63/63
f 36/64/64 35/65/65 34/63/63
f 37/66/66 33/61/61 34/63/63
f 35/65/65 38/67/67 34/63/63
f 32/62/62 36/64/64 34/63/63
f 38/67/67 37/66/66 34/63/63
f 26/57/57 32/62/62 33/61/61
f 21/54/54 33/61/61 37/66/66
f 36/64/64 32/62/62 27/59/59
f 38/67/67 39/68/68 40/69/69
f 29/60/60 37/66/66 38/67/67
f 35/65/65 39/68/68 38/67/67
f 41/70/70 39/68/68 35/65/65
f 40/69/69 39/68/68 42/71/71
f 41/70/70 43/72/72 39/68/68
f 35/65/65 15/52/52 41/70/70
f 40/69/69 42/71/71 29/60/60
f 40/69/69 29/60/60 38/67/67
f 20/55/55 37/66/66 29/60/60
f 20/55/55 21/54/54 37/66/66
f 46/73/73 33/61/61 21/54/54
f 46/73/73 21/54/54 47/74/74
f 46/73/73 47/74/74 26/57/57
f 46/73/73 26/57/57 33/61/61
f 27/59/59 32/62/62 26/57/57
f 17/53/53 49/75/75 16/51/51
f 27/59/59 25/58/58 49/75/75
f 41/70/70 15/52/52 43/72/72
f 17/53/53 36/64/64 49/75/75
f 49/75/75 36/64/64 27/59/59
f 36/64/64 17/53/53 35/65/65
f 17/53/53 15/52/52 35/65/65
f 66/76/76 65/77/77 67/78/78
f 71/79/79 70/80/80 72/81/81
f 76/82/82 75/83/83 77/84/84
f 72/81/81 79/85/85 71/79/79
f 83/86/86 82/87/87 84/88/88
f 86/89/89 85/90/90 84/88/88
f 82/87/87 87/91/91 84/88/88
f 88/92/92 86/89/89 84/88/88
f 85/90/90 83/86/86 84/88/88
f 87/91/91 88/92/92 84/88/88
f 83/86/86 75/83/83 82/87/87
f 82/87/87 70/80/80 87/91/91
f 83/86/86 85/90/90 77/84/84
f 89/93/93 88/92/92 90/94/94
f 87/91/91 79/85/85 88/92/92
f 89/93/93 86/89/89 88/92/92
f 89/93/93 91/95/95 86/89/89
f 89/93/93 90/94/94 92/96/96
f 93/97/97 91/95/95 89/93/93
f 66/76/76 86/89/89 91/95/95
f 92/96/96 90/94/94 79/85/85
f 79/85/85 90/94/94 88/92/92
f 87/91/91 71/79/79 79/85/85
f 70/80/80 71/79/79 87/91/91
f 82/87/87 96/98/98 70/80/80
f 70/80/80 96/98/98 97/99/99
f 97/99/99 96/98/98 75/83/83
f 75/83/83 96/98/98 82/87/87
f 83/86/86 77/84/84 75/83/83
f 99/100/100 67/78/78 65/77/77
f 76/82/82 77/84/84 99/100/100
f 66/76/76 91/95/95 93/97/97
f 85/90/90 67/78/78 99/100/100
f 85/90/90 99/100/100 77/84/84
f 67/78/78 85/90/90 86/89/89
f 66/76/76 67/78/78 86/89/89
