# Blender v2.79 (sub 0) OBJ File: ''
# www.blender.org
mtllib Forearm.mtl
v -1.389900 -3.295709 0.006285
v -0.001702 -3.294017 -1.352903
v 0.006305 -3.305976 1.354298
v 0.007292 -1.799400 1.365924
v 1.378641 -1.805372 -0.011646
v -1.396087 -1.807814 0.005471
v 1.384611 -3.296403 -0.008638
v 0.003569 -1.813768 -1.360943
v 0.000279 -3.057178 -1.355828
v -1.392186 -3.095705 0.005424
v 0.000881 -3.052856 1.356766
v 1.382322 -3.054592 -0.008825
v 1.382322 -3.054592 -0.008825
v -0.379204 0.000558 -0.006471
v 0.016293 -0.001138 -0.403821
v -0.377544 -1.807726 -0.005229
v 0.413654 0.001283 -0.008332
v 0.017951 -1.809418 -0.402582
v 0.018151 0.002979 0.389025
v 0.415312 -1.807001 -0.007089
v 0.019809 -1.805308 0.390264
v 0.015252 0.183141 0.205325
v 0.220591 0.181960 0.004960
v -0.208857 0.182228 -0.009843
v 0.003939 0.181847 -0.213215
vt 0.000000 0.000000
vt 0.000000 0.000000
vt 0.000000 0.000000
vt 0.000000 0.000000
vt 0.000000 0.000000
vt 0.000000 0.000000
vt 0.000000 0.000000
vt 0.000000 0.000000
vt 0.000000 0.000000
vt 0.000000 0.000000
vt 0.000000 0.000000
vt 0.000000 0.000000
vt 0.000000 0.000000
vt 0.000000 0.000000
vt 0.000000 0.000000
vt 0.000000 0.000000
vt 0.000000 0.000000
vt 0.000000 0.000000
vt 0.000000 0.000000
vt 0.000000 0.000000
vt 0.000000 0.000000
vt 0.000000 0.000000
vt 0.000000 0.000000
vt 0.000000 0.000000
vn -0.0031 -1.0000 -0.0044
vn -0.0003 -1.0000 -0.0044
vn -0.0009 1.0000 -0.0052
vn -0.0009 1.0000 -0.0053
vn 0.0026 -1.0000 -0.0044
vn -1.0000 -0.0027 0.0043
vn 0.0012 -0.0077 -1.0000
vn -1.0000 -0.0075 0.0017
vn 0.0029 -0.0041 -1.0000
vn 1.0000 -0.0017 -0.0030
vn 0.0003 -0.0070 1.0000
vn 1.0000 0.0057 -0.0038
vn 0.0115 -0.0074 0.9999
vn -0.9466 0.3225 0.0011
vn 0.0027 0.3396 -0.9406
vn -1.0000 -0.0009 0.0003
vn 0.9382 0.3461 -0.0071
vn -0.0024 -0.0007 -1.0000
vn 0.0040 0.3352 0.9421
vn 1.0000 0.0009 -0.0044
vn 0.0023 0.0007 1.0000
vn 0.0037 0.8597 0.5108
vn 0.5036 0.8636 0.0244
vn -0.5358 0.8442 -0.0156
vn -0.0180 0.8601 -0.5099
vn -0.0045 -0.0115 -0.9999
vn -0.9999 -0.0114 0.0075
vn 0.0148 -0.0087 0.9999
vn 1.0000 0.0095 -0.0025
usemtl 255_255_255
s 1
f 1/1/1 2/2/2 3/3/2
f 4/4/3 5/5/4 6/6/4
f 2/2/2 7/7/5 3/3/2
f 5/5/4 8/8/4 6/6/4
f 6/6/6 9/9/7 10/10/8
f 8/8/9 5/5/10 9/9/7
f 5/5/10 11/11/11 12/12/12
f 4/4/13 6/6/6 11/11/11
f 9/9/7 5/5/10 12/12/12
f 11/11/11 6/6/6 10/10/8
f 4/4/13 11/11/11 5/5/10
f 8/8/9 9/9/7 6/6/6
usemtl 255_141_0
f 14/13/14 15/14/15 16/15/16
f 15/14/15 17/16/17 18/17/18
f 17/16/17 19/18/19 20/19/20
f 19/18/19 14/13/14 21/20/21
f 22/21/22 23/22/23 24/23/24
f 15/14/15 18/17/18 16/15/16
f 17/16/17 20/19/20 18/17/18
f 19/18/19 21/20/21 20/19/20
f 14/13/14 16/15/16 21/20/21
f 23/22/23 25/24/25 24/23/24
f 24/23/24 25/24/25 14/13/14
f 25/24/25 23/22/23 15/14/15
f 23/22/23 22/21/22 17/16/17
f 22/21/22 24/23/24 19/18/19
f 15/14/15 14/13/14 25/24/25
f 17/16/17 15/14/15 23/22/23
f 19/18/19 17/16/17 22/21/22
f 14/13/14 19/18/19 24/23/24
usemtl 112_112_143
f 10/10/8 2/2/26 1/1/27
f 9/9/7 12/12/12 2/2/26
f 12/12/12 3/3/28 7/7/29
f 11/11/11 10/10/8 3/3/28
f 12/12/12 7/7/29 2/2/26
f 10/10/8 1/1/27 3/3/28
f 11/11/11 3/3/28 12/12/12
f 9/9/7 2/2/26 10/10/8
