# Blender v2.79 (sub 0) OBJ File: ''
# www.blender.org
mtllib BigRockB.mtl
v -27.830000 0.000004 -26.730000
v -27.830000 -0.000002 12.099990
v -24.200010 19.580004 -17.709986
v -25.520000 17.930000 2.310004
v 8.470010 0.000004 -26.730000
v 8.470010 -0.000002 12.099990
v 7.040004 30.690002 -15.179996
v 8.800008 26.840000 3.410006
v -5.500000 21.229998 9.349998
v -2.750000 -0.000003 18.149990
v -2.750000 -0.109993 -39.820004
v -0.550000 26.400005 -25.739996
v 13.309989 30.360003 -6.049995
v 17.380001 0.000001 -3.080000
v -36.629993 0.000002 -11.660001
v -30.909979 18.150002 -8.909996
v -15.495678 47.630005 -14.519993
v -18.150000 45.649990 3.190011
v 10.142009 51.810017 -13.309992
v 10.120011 49.170010 3.190012
v 2.749999 46.310013 7.810002
v 2.309999 49.170006 -20.459982
v 15.179989 51.590012 -3.629992
v -20.459990 47.520000 -3.629992
v -13.090000 80.960045 -8.799987
v -15.510001 88.550064 11.440014
v 13.310011 69.079979 -8.799989
v 11.770012 73.590019 14.080013
v -0.770001 79.860031 22.660004
v -0.110001 70.839989 -17.159977
v 18.589989 69.189987 0.660011
v -18.479990 86.240021 1.650014
v -13.860011 106.370033 -1.539983
v -11.550000 104.390038 14.850018
v 16.830000 95.700005 -4.949985
v 15.950011 93.500008 15.950016
v 1.759999 95.260071 23.540026
v 1.759999 100.210075 -8.249985
v 20.019989 93.390007 2.640010
v -17.049990 106.370049 7.150015
v 9.432490 133.457504 14.465022
v -2.200002 132.110107 20.900021
v 2.310009 132.110107 6.490021
v 6.160009 131.230118 20.900021
v 2.969997 147.730011 18.260025
v -5.939992 133.430008 14.960023
vt -0.752941 -0.996078
vt -0.098039 -0.996078
vt -0.478431 -0.270588
vt -1.215686 -0.996078
vt -1.262745 -0.419608
vt -2.400000 -0.509804
vt -0.835294 0.254902
vt -0.003922 -0.172549
vt -0.094118 0.396078
vt -0.439216 0.333333
vt -0.713726 0.992157
vt 1.584314 -0.874510
vt 1.098039 -0.952941
vt 0.949020 -0.301961
vt 1.780392 -0.356863
vt 2.000000 0.439216
vt 0.145098 0.000000
vt 0.000000 -1.000000
vt -2.101961 0.235294
vt -1.749020 1.396078
vt -2.184314 1.333333
vt -2.576471 0.286274
vt -3.619608 0.290196
vt -3.439216 -0.466667
vt -5.109804 0.333333
vt -4.823529 -0.282353
vt -5.521569 -0.164706
vt -4.592157 -0.996078
vt -5.129412 -0.996078
vt -1.545098 1.819608
vt -1.913725 1.874510
vt -1.121569 1.576471
vt -1.184314 1.160784
vt -0.211765 0.874510
vt -0.258824 1.529412
vt -0.658823 1.529412
vt 0.043137 0.870588
vt -0.031373 1.592157
vt 0.278431 0.403922
vt 0.427451 -0.164706
vt 0.815686 -0.996078
vt 0.588235 1.568627
vt 1.137255 2.000000
vt 1.098039 1.529412
vt 0.098039 0.756863
vt 1.066667 0.572549
vt -0.972549 2.549020
vt 1.537255 1.568627
vt -1.215686 2.576471
vt -2.952941 -0.505882
vt -3.039216 -0.996078
vt -3.650980 -0.996078
vt -5.666667 0.403922
vt -2.152941 -0.996078
vt -0.780392 2.607843
vt -3.054902 1.192157
vt -2.086275 1.874510
vt -1.317647 2.607843
vt 3.094118 -1.000000
vt 3.294118 -0.862745
vt 3.043137 -0.003922
vt 2.854902 -0.945098
vt 2.749020 -0.866667
vn 0.6501 0.2268 0.7252
vn 0.9852 0.1369 0.1027
vn 0.6936 0.0911 0.7146
vn 0.0667 0.3786 0.9231
vn -0.0857 0.2579 0.9623
vn -0.6824 0.2899 0.6710
vn 0.1772 -0.1534 0.9721
vn 0.9955 0.0668 -0.0672
vn 0.9871 -0.1597 0.0118
vn 0.7322 -0.2098 0.6480
vn 0.6469 -0.2658 0.7147
vn 0.7676 0.0141 -0.6408
vn 0.2460 0.1317 -0.9603
vn 0.0483 0.1827 -0.9820
vn 0.7333 0.0211 -0.6796
vn 0.6985 0.2400 -0.6741
vn -0.6427 0.1930 -0.7414
vn -0.6431 0.2097 -0.7364
vn -0.6485 0.0347 0.7604
vn -0.8325 -0.0069 0.5539
vn -0.9910 0.0894 -0.0995
vn -0.9836 0.1774 -0.0331
vn -0.6310 0.3737 -0.6798
vn 0.2271 0.3381 -0.9133
vn 0.7996 0.1123 -0.5899
vn 0.1253 0.4530 -0.8826
vn 0.8130 0.2145 -0.5413
vn -0.7138 0.0390 0.6992
vn -0.9714 0.1912 0.1409
vn -0.0074 -0.0276 0.9996
vn -0.1403 -0.2461 0.9590
vn 0.9861 -0.1643 0.0234
vn 0.9949 0.0889 -0.0478
vn 0.7762 -0.0314 0.6296
vn -0.8806 0.4735 -0.0178
vn 0.0607 0.9803 0.1881
vn 0.0424 0.5781 -0.8148
vn -0.6533 0.3527 -0.6699
vn 0.0247 0.3505 -0.9362
vn 0.4926 0.1625 0.8549
vn 0.9178 0.3899 -0.0752
vn -0.4592 0.1905 0.8676
vn -0.9437 0.3244 -0.0648
vn -0.9320 0.3471 -0.1037
vn -0.6071 0.4226 -0.6729
vn -0.5519 0.4533 0.7000
usemtl object_00C907DC_material_67
s 1
f 6/1/1 14/2/2 8/3/3
f 6/1/1 8/3/3 10/4/4
f 10/4/4 8/3/3 9/5/5
f 10/4/4 9/5/5 4/6/6
f 4/6/6 9/5/5 21/7/7
f 13/8/8 23/9/9 20/10/10
f 20/10/10 23/9/9 28/11/11
f 19/12/12 22/13/13 30/14/14
f 19/12/12 30/14/14 27/15/15
f 27/15/15 30/14/14 35/16/16
f 25/17/17 30/14/14 17/18/18
f 17/18/18 30/14/14 22/13/13
f 18/19/19 26/20/20 32/21/21
f 18/19/19 32/21/21 24/22/22
f 24/22/22 32/21/21 17/23/18
f 24/22/22 17/23/18 3/24/23
f 3/24/23 17/23/18 22/25/13
f 3/24/23 22/25/13 12/26/24
f 12/26/24 22/25/13 7/27/25
f 12/26/24 7/27/25 11/28/26
f 11/28/26 7/27/25 5/29/27
f 26/20/20 34/30/28 32/21/21
f 32/21/21 34/30/28 40/31/29
f 37/32/30 29/33/31 28/11/11
f 28/11/11 29/33/31 21/7/7
f 28/11/11 21/7/7 20/10/10
f 20/10/10 21/7/7 8/3/3
f 20/10/10 8/3/3 13/8/8
f 13/8/8 8/3/3 14/2/2
f 31/34/32 39/35/33 36/36/34
f 27/37/15 35/38/16 31/34/32
f 27/37/15 31/34/32 19/39/12
f 19/39/12 31/34/32 23/9/9
f 19/39/12 23/9/9 7/40/25
f 7/40/25 23/9/9 13/8/8
f 7/40/25 13/8/8 5/41/27
f 5/41/27 13/8/8 14/2/2
f 46/42/35 45/43/36 43/44/37
f 46/42/35 43/44/37 33/45/38
f 33/45/38 43/44/37 38/46/39
f 44/47/40 37/32/30 36/36/34
f 36/36/34 37/32/30 28/11/11
f 36/36/34 28/11/11 31/34/32
f 31/34/32 28/11/11 23/9/9
f 45/43/36 41/48/41 43/44/37
f 43/44/37 41/48/41 35/16/16
f 43/44/37 35/16/16 38/46/39
f 38/46/39 35/16/16 30/14/14
f 38/46/39 30/14/14 33/45/38
f 33/45/38 30/14/14 25/17/17
f 44/47/40 42/49/42 37/32/30
f 37/32/30 42/49/42 34/30/28
f 37/32/30 34/30/28 29/33/31
f 29/33/31 34/30/28 26/20/20
f 29/33/31 26/20/20 21/7/7
f 21/7/7 26/20/20 18/19/19
f 21/7/7 18/19/19 4/6/6
f 4/6/6 18/19/19 24/22/22
f 4/6/6 24/22/22 16/50/43
f 16/50/43 24/22/22 3/24/23
f 16/50/43 3/24/23 15/51/44
f 15/51/44 3/24/23 1/52/45
f 12/26/24 11/28/26 3/24/23
f 3/24/23 11/28/26 1/52/45
f 22/25/13 19/53/12 7/27/25
f 16/50/43 15/51/44 4/6/6
f 4/6/6 15/51/44 2/54/46
f 4/6/6 2/54/46 10/4/4
f 31/34/32 35/38/16 39/35/33
f 39/35/33 35/38/16 41/55/41
f 39/35/33 41/55/41 36/36/34
f 36/36/34 41/55/41 44/47/40
f 25/56/17 17/23/18 32/21/21
f 25/56/17 32/21/21 33/57/38
f 33/57/38 32/21/21 40/31/29
f 33/57/38 40/31/29 46/58/35
f 46/58/35 40/31/29 34/30/28
f 46/58/35 34/30/28 42/49/42
f 21/7/7 9/5/5 8/3/3
f 44/59/40 41/60/41 45/61/36
f 44/59/40 45/61/36 42/62/42
f 42/62/42 45/61/36 46/63/35
