# Blender v2.79 (sub 0) OBJ File: ''
# www.blender.org
mtllib Bungalow.mtl
v 63.880272 95.922554 -62.145294
v 64.247215 95.909348 57.847679
v 59.185276 95.927322 -57.646233
v 59.524670 95.915115 53.347225
v -61.687160 96.062897 -62.165390
v -56.964645 96.057152 -57.664902
v -61.320282 96.049698 57.827492
v -56.625275 96.044861 53.328556
v 64.330345 85.785782 57.797234
v 63.963524 85.799088 -62.195736
v -61.603943 85.939445 -62.215923
v -61.237099 85.926117 57.777050
v -52.764267 89.977951 -53.697289
v -54.248043 89.979111 -48.924404
v -51.998787 -3.158186 -54.161926
v -53.482559 -3.156982 -49.389099
v -50.527691 89.974625 -45.421455
v -49.762222 -3.161545 -45.886154
v 55.034992 89.857552 -53.750240
v 49.797691 89.863495 -54.922077
v 55.800369 -3.278586 -54.214817
v 50.563099 -3.272559 -55.386776
v 56.647381 89.855209 -49.006313
v 57.412865 -3.280883 -49.471073
v -47.559910 89.972305 -54.967342
v -46.794491 -3.163832 -55.431980
v -43.839622 89.967751 -51.464367
v -43.074184 -3.168319 -51.928974
v 53.022751 89.858902 -45.434441
v 53.788208 -3.277191 -45.899078
v 46.172993 89.867126 -51.350052
v 46.938473 -3.268935 -51.814720
v -43.447571 89.956863 46.986416
v -50.383049 89.965240 40.996754
v -42.682198 -3.179306 46.521809
v -49.617599 -3.170959 40.532207
v 53.179241 89.849411 41.022881
v 46.528126 89.856186 47.091545
v 53.944714 -3.286605 40.558212
v 47.293610 -3.279900 46.626816
v 56.879185 89.844925 44.540756
v 57.644680 -3.291183 44.076031
v -52.420353 89.966537 49.416485
v -47.117668 89.960449 50.603119
v -51.654942 -3.169510 48.951756
v -46.352234 -3.175660 50.138512
v 50.228146 89.851715 50.609303
v 55.403713 89.846039 49.333912
v 50.993599 -3.284378 50.144573
v 56.169189 -3.290032 48.869122
v -54.052994 89.968903 44.613518
v -53.287605 -3.167320 44.148849
v -38.158234 96.026062 35.632610
v -38.132553 96.025223 44.032074
v -38.233082 105.137268 35.678020
v -38.207340 105.136398 44.077488
v -46.922279 96.035004 44.030682
v -46.997082 105.146164 44.076092
v -46.947960 96.035934 35.631214
v -47.022835 105.147034 35.676628
v 49.739109 95.927933 35.646671
v 49.764820 95.927048 44.046139
v 49.664261 105.039078 35.692142
v 49.689865 105.038055 44.091732
v 40.975040 95.936798 44.044743
v 40.900185 105.047974 44.090218
v 40.949368 95.937668 35.645275
v 40.874443 105.048859 35.690750
v 49.482212 95.937157 -48.348331
v 49.507961 95.936295 -39.948833
v 49.407402 105.048340 -48.302891
v 49.433067 105.047386 -39.903419
v 40.718212 95.946068 -39.950287
v 40.643311 105.057228 -39.904846
v 40.692532 95.946991 -48.349815
v 40.617634 105.058121 -48.304283
v -38.415016 96.035423 -48.362488
v -38.389351 96.034538 -39.963020
v -38.489937 105.146538 -48.317013
v -38.464230 105.145660 -39.917515
v -47.179043 96.044273 -39.964321
v -47.253994 105.155403 -39.918911
v -47.204754 96.045204 -48.363819
v -47.279602 105.156410 -48.318470
v -49.382698 166.901306 46.183754
v 51.071346 166.789062 46.199875
v -50.551449 156.779160 47.332920
v 52.413918 156.664078 47.349533
v -49.676117 166.911957 -49.810642
v -50.852310 156.789948 -51.061184
v 52.113098 156.675003 -51.044758
v 9.797910 234.328796 7.732205
v 9.741727 234.330811 -10.666676
v 17.045143 220.822113 14.465730
v 16.947271 220.825668 -17.532587
v 26.811028 207.312225 23.599356
v 26.656956 207.317825 -26.797718
v 34.058308 193.805634 30.332727
v 33.862621 193.812653 -33.663445
v 43.824192 180.295776 39.466507
v 43.572193 180.304810 -42.928734
v 50.777897 166.799728 -49.794552
v 0.032012 247.838562 -1.401483
v -9.512068 234.352325 -10.669707
v -16.537359 220.863098 -17.537861
v -26.081423 207.376801 -26.806145
v -33.106792 193.887573 -33.674175
v -42.650734 180.401337 -42.942612
v -9.455808 234.350281 7.729053
v -16.439548 220.859558 14.460364
v -25.927322 207.371307 23.590837
v -32.911121 193.880463 30.321968
v -42.398823 180.392181 39.452686
v 41.624870 166.972748 37.199696
v -39.994061 167.063934 37.186661
v 41.643227 166.972107 43.199333
v -39.975674 167.063202 43.186298
v 41.319839 175.080139 -40.755260
v 41.558311 175.071503 37.240135
v 41.386383 166.981369 -40.795670
v -40.060570 175.162720 37.226982
v -40.299053 175.171432 -40.768383
v -40.232517 167.072540 -40.808796
v -46.272396 167.070953 37.185631
v -46.510883 167.079590 -40.809765
v 47.664795 166.974365 -40.794670
v 47.903252 166.965698 37.200726
v 41.368103 166.982071 -46.795338
v -40.250889 167.073181 -46.808399
v -56.881477 85.933624 -57.715408
v 59.268509 85.803894 -57.696739
v -56.542152 85.921371 53.278049
v 59.607819 85.791580 53.296780
v -46.020302 105.154800 -47.118248
v -39.741901 105.147812 -47.117340
v -46.529240 167.080215 -46.809372
v -45.745083 105.144897 42.876301
v -45.763458 105.145554 36.876785
v -46.254040 167.070251 43.185268
v -39.485012 105.138565 36.877693
v -39.466717 105.137878 42.877453
v 42.133846 105.047318 36.890789
v 48.412216 105.040344 36.891880
v 48.430557 105.039688 42.891457
v 47.921593 166.965057 43.200363
v 42.152164 105.046631 42.890484
v 48.155380 105.049652 -47.103218
v 48.173721 105.048920 -41.103519
v 47.646423 166.975021 -46.794338
v 41.877041 105.056664 -47.104218
v 41.895325 105.055946 -41.104519
v -39.723560 105.147163 -41.117672
v -46.001957 105.154198 -41.118671
v 0.248385 221.517517 -1.532807
vt 0.247100 0.015700
vt 15.749000 0.956900
vt 0.247100 0.956900
vt 15.749000 0.015700
vt 0.247100 0.015700
vt 15.749000 0.956900
vt 0.247100 0.956900
vt 15.749000 0.015700
vt 0.247100 0.015700
vt 15.749000 0.956900
vt 0.247100 0.956900
vt 15.749000 0.015700
vt 15.749000 0.956900
vt 0.247100 0.015700
vt 15.749000 0.015700
vt 0.247100 0.956900
vt 15.749000 0.015700
vt 0.247100 0.015700
vt 15.749000 0.015700
vt 0.247100 0.015700
vt 15.749000 0.015700
vt 0.247100 0.015700
vt 15.749000 0.015700
vt 0.247100 0.015700
vt 1.329400 2.000000
vt 2.380400 2.498000
vt 1.615700 2.498000
vt 2.666700 2.000000
vt 0.949000 1.498000
vt 3.047100 1.498000
vt 0.666700 1.000000
vt 3.329400 1.000000
vt 0.282400 0.502000
vt 3.713700 0.502000
vt 0.000000 0.003900
vt 4.000000 0.003900
vt 2.000000 3.000000
vt 1.615700 2.498000
vt 2.662800 2.000000
vt 1.333300 2.000000
vt 0.949000 1.498000
vt 3.333300 1.000000
vt 0.662800 1.000000
vt 0.282400 0.502000
vt 0.000000 0.003900
vt 2.666700 2.000000
vt 1.615700 2.498000
vt 2.380400 2.498000
vt 1.329400 2.000000
vt 3.047100 1.498000
vt 0.949000 1.498000
vt 3.329400 1.000000
vt 0.666700 1.000000
vt 3.713700 0.502000
vt 0.282400 0.502000
vt 4.000000 0.003900
vt 0.000000 0.003900
vt 2.380400 2.498000
vt 1.333300 2.000000
vt 2.662800 2.000000
vt 3.047100 1.498000
vt 0.662800 1.000000
vt 3.333300 1.000000
vt 3.713700 0.502000
vt 4.000000 0.003900
vt 0.952900 0.956900
vt 0.011800 0.015700
vt 0.952900 0.015700
vt 0.011800 0.956900
vt 0.952900 0.956900
vt 0.011800 0.015700
vt 0.952900 0.015700
vt 0.011800 0.956900
vt 0.952900 0.956900
vt 0.011800 0.015700
vt 0.952900 0.015700
vt 0.011800 0.956900
vt 0.952900 0.956900
vt 0.011800 0.015700
vt 0.952900 0.015700
vt 0.011800 0.956900
vt 0.952900 0.349000
vt 0.011800 0.200000
vt 0.952900 0.200000
vt 0.011800 0.349000
vt 0.952900 0.956900
vt 0.011800 0.015700
vt 0.952900 0.015700
vt 0.011800 0.956900
vt 0.952900 0.956900
vt 0.011800 0.015700
vt 0.952900 0.015700
vt 0.011800 0.956900
vt 0.952900 0.956900
vt 0.011800 0.015700
vt 0.952900 0.015700
vt 0.011800 0.956900
vt 0.952900 0.956900
vt 0.011800 0.015700
vt 0.952900 0.015700
vt 0.011800 0.956900
vt 0.952900 0.349000
vt 0.011800 0.200000
vt 0.952900 0.200000
vt 0.011800 0.349000
vt 0.952900 0.956900
vt 0.011800 0.015700
vt 0.952900 0.015700
vt 0.011800 0.956900
vt 0.952900 0.956900
vt 0.011800 0.015700
vt 0.952900 0.015700
vt 0.011800 0.956900
vt 0.952900 0.956900
vt 0.011800 0.015700
vt 0.952900 0.015700
vt 0.011800 0.956900
vt 0.952900 0.956900
vt 0.011800 0.015700
vt 0.952900 0.015700
vt 0.011800 0.956900
vt 0.952900 0.349000
vt 0.011800 0.200000
vt 0.952900 0.200000
vt 0.011800 0.349000
vt 0.952900 0.956900
vt 0.011800 0.015700
vt 0.952900 0.015700
vt 0.011800 0.956900
vt 0.952900 0.956900
vt 0.011800 0.015700
vt 0.952900 0.015700
vt 0.011800 0.956900
vt 0.952900 0.956900
vt 0.011800 0.015700
vt 0.952900 0.015700
vt 0.011800 0.956900
vt 0.952900 0.956900
vt 0.011800 0.015700
vt 0.952900 0.015700
vt 0.011800 0.956900
vt 0.952900 0.349000
vt 0.011800 0.200000
vt 0.952900 0.200000
vt 0.011800 0.349000
vt 0.039200 0.090200
vt 0.439200 0.490200
vt 0.439200 0.090200
vt 0.039200 0.490200
vt 0.039200 0.094100
vt 0.439200 0.490200
vt 0.439200 0.094100
vt 0.039200 0.490200
vt 0.039200 0.094100
vt 0.447100 0.490200
vt 0.447100 0.094100
vt 0.039200 0.490200
vt 0.039200 0.094100
vt 0.454900 0.490200
vt 0.447100 0.094100
vt 0.039200 0.490200
vt 0.039200 0.490200
vt 0.447100 0.090200
vt 0.039200 0.090200
vt 0.447100 0.490200
vt 0.047100 0.490200
vt 0.447100 0.094100
vt 0.047100 0.094100
vt 0.447100 0.490200
vt 0.031400 0.094100
vt 0.447100 0.490200
vt 0.447100 0.094100
vt 0.031400 0.490200
vt 0.447100 0.490200
vt 0.039200 0.086300
vt 0.039200 0.490200
vt 0.447100 0.086300
vt 0.031400 0.090200
vt 0.454900 0.494100
vt 0.454900 0.090200
vt 0.031400 0.494100
vt 0.454900 0.494100
vt 0.031400 0.090200
vt 0.031400 0.494100
vt 0.454900 0.090200
vt 0.031400 0.090200
vt 0.454900 0.494100
vt 0.454900 0.090200
vt 0.031400 0.494100
vt 0.031400 0.090200
vt 0.454900 0.494100
vt 0.454900 0.090200
vt 0.031400 0.494100
vt 0.031400 0.494100
vt 0.454900 0.102000
vt 0.031400 0.102000
vt 0.454900 0.494100
vt 0.031400 0.494100
vt 0.454900 0.102000
vt 0.031400 0.102000
vt 0.454900 0.494100
vt 0.031400 0.494100
vt 0.454900 0.102000
vt 0.031400 0.102000
vt 0.454900 0.494100
vt 0.031400 0.494100
vt 0.454900 0.102000
vt 0.031400 0.102000
vt 0.454900 0.494100
vt 0.031400 0.494100
vt 0.454900 0.102000
vt 0.031400 0.102000
vt 0.454900 0.494100
vt 0.031400 0.494100
vt 0.454900 0.102000
vt 0.031400 0.102000
vt 0.454900 0.494100
vt 0.031400 0.494100
vt 0.454900 0.102000
vt 0.031400 0.102000
vt 0.454900 0.494100
vt 0.031400 0.494100
vt 0.454900 0.102000
vt 0.031400 0.102000
vt 0.454900 0.494100
vt 0.031400 0.494100
vt 0.454900 0.102000
vt 0.031400 0.102000
vt 0.454900 0.494100
vt 0.031400 0.494100
vt 0.454900 0.102000
vt 0.031400 0.102000
vt 0.454900 0.494100
vt 0.031400 0.494100
vt 0.454900 0.102000
vt 0.031400 0.102000
vt 0.454900 0.494100
vt 0.031400 0.494100
vt 0.454900 0.102000
vt 0.031400 0.102000
vt 0.454900 0.494100
vt 0.031400 0.494100
vt 0.454900 0.102000
vt 0.031400 0.102000
vt 0.454900 0.494100
vt 0.031400 0.494100
vt 0.454900 0.102000
vt 0.031400 0.102000
vt 0.454900 0.494100
vt 0.031400 0.494100
vt 0.454900 0.102000
vt 0.031400 0.102000
vt 0.454900 0.494100
vt 0.031400 0.494100
vt 0.454900 0.102000
vt 0.031400 0.102000
vt 0.454900 0.494100
vt 0.011800 4.921600
vt 0.952900 0.078400
vt 0.011800 0.078400
vt 0.952900 4.921600
vt 0.011800 4.921600
vt 0.952900 0.078400
vt 0.011800 0.078400
vt 0.952900 4.921600
vt 0.011800 4.921600
vt 0.952900 0.078400
vt 0.011800 0.078400
vt 0.952900 4.921600
vt 0.011800 4.921600
vt 0.952900 0.078400
vt 0.011800 0.078400
vt 0.952900 4.921600
vt 0.011800 4.921600
vt 0.952900 0.078400
vt 0.011800 0.078400
vt 0.952900 4.921600
vt 0.011800 4.921600
vt 0.952900 0.078400
vt 0.011800 0.078400
vt 0.952900 4.921600
vt 0.011800 4.921600
vt 0.952900 0.078400
vt 0.011800 0.078400
vt 0.952900 4.921600
vt 0.011800 4.921600
vt 0.952900 0.078400
vt 0.011800 0.078400
vt 0.952900 4.921600
vt 0.011800 4.921600
vt 0.952900 0.078400
vt 0.011800 0.078400
vt 0.952900 4.921600
vt 0.011800 4.921600
vt 0.952900 0.078400
vt 0.011800 0.078400
vt 0.952900 4.921600
vt 0.011800 4.921600
vt 0.952900 0.078400
vt 0.011800 0.078400
vt 0.952900 4.921600
vt 0.011800 4.921600
vt 0.952900 0.078400
vt 0.011800 0.078400
vt 0.952900 4.921600
vt 0.011800 4.921600
vt 0.952900 0.078400
vt 0.011800 0.078400
vt 0.952900 4.921600
vt 0.011800 4.921600
vt 0.952900 0.078400
vt 0.011800 0.078400
vt 0.952900 4.921600
vt 0.011800 4.921600
vt 0.952900 0.078400
vt 0.011800 0.078400
vt 0.952900 4.921600
vt 0.011800 4.921600
vt 0.952900 0.078400
vt 0.011800 0.078400
vt 0.952900 4.921600
vt 0.011800 4.921600
vt 0.952900 0.078400
vt 0.011800 0.078400
vt 0.952900 4.921600
vt 0.011800 4.921600
vt 0.952900 0.078400
vt 0.011800 0.078400
vt 0.952900 4.921600
vt 0.011800 4.921600
vt 0.952900 0.078400
vt 0.011800 0.078400
vt 0.952900 4.921600
vt 0.011800 4.921600
vt 0.952900 0.078400
vt 0.011800 0.078400
vt 0.952900 4.921600
vt 0.152900 0.015700
vt 9.843100 0.956900
vt 0.152900 0.956900
vt 9.843100 0.015700
vt 0.152900 0.015700
vt 9.843100 0.956900
vt 0.152900 0.956900
vt 9.843100 0.015700
vt 0.152900 0.015700
vt 9.843100 0.956900
vt 0.152900 0.956900
vt 9.843100 0.015700
vt 0.152900 0.015700
vt 9.843100 0.956900
vt 0.152900 0.956900
vt 9.843100 0.015700
vt 0.019600 0.003900
vt 5.929400 0.984300
vt 0.019600 0.984300
vt 5.929400 0.003900
vt 0.019600 0.003900
vt 5.929400 0.003900
vt 3.019600 0.984300
vt 5.929400 0.003900
vt 0.019600 0.003900
vt 0.019600 0.003900
vt 5.929400 0.003900
vt 0.019600 0.003900
vt 5.929400 0.003900
vn 0.0011 1.0000 0.0001
vn 0.0019 1.0000 0.0010
vn 1.0000 0.0082 -0.0031
vn 1.0000 0.0085 -0.0042
vn -1.0000 -0.0082 0.0031
vn -1.0000 -0.0074 0.0022
vn 0.0002 0.0050 -1.0000
vn -0.0010 -0.0058 1.0000
vn -0.0004 -0.0038 1.0000
vn -0.0002 -0.0050 1.0000
vn 0.8381 0.5455 -0.0025
vn 0.8589 0.5122 -0.0026
vn 0.8588 0.5123 -0.0026
vn 0.8380 0.5456 -0.0025
vn 0.8817 0.4718 -0.0026
vn 0.8112 0.5848 -0.0024
vn 0.0007 0.4926 -0.8703
vn 0.0007 0.4930 -0.8701
vn 0.0008 0.5660 -0.8244
vn 0.0007 0.5278 -0.8493
vn 0.0007 0.5275 -0.8496
vn 0.0007 0.4929 -0.8701
vn 0.0007 0.4535 -0.8913
vn 0.0006 0.4535 -0.8913
vn -0.8438 0.5366 0.0026
vn -0.8647 0.5023 0.0027
vn -0.8649 0.5019 0.0027
vn -0.8441 0.5363 0.0026
vn -0.8441 0.5362 0.0026
vn -0.8875 0.4608 0.0028
vn -0.8171 0.5765 0.0026
vn 0.0004 0.4863 0.8738
vn 0.0004 0.4858 0.8741
vn 0.0005 0.5603 0.8283
vn 0.0004 0.5213 0.8534
vn 0.0004 0.5218 0.8531
vn 0.0004 0.4463 0.8949
vn 1.0000 0.0069 -0.0026
vn -0.0015 -0.0045 1.0000
vn -0.0023 -0.0060 1.0000
vn -0.9999 -0.0104 0.0041
vn 0.0016 1.0000 -0.0012
vn 1.0000 0.0069 -0.0025
vn -1.0000 -0.0082 0.0030
vn -0.7042 -0.7100 0.0021
vn 0.5793 -0.5693 -0.5834
vn -0.5796 -0.5803 -0.5721
vn 0.7070 -0.7072 -0.0019
vn -0.6859 -0.2494 0.6836
vn -0.7049 -0.0023 -0.7093
vn -0.7060 -0.0087 0.7081
vn 0.7113 0.0023 0.7029
vn 0.7071 0.0093 -0.7071
vn 0.5747 -0.5786 0.5788
vn -0.0009 -0.7103 0.7039
vn -0.0007 -0.7081 -0.7061
vn -0.0007 -0.7025 -0.7117
vn -0.0006 -0.7068 0.7074
vn 0.7114 -0.7027 -0.0023
vn -0.7049 -0.7093 0.0021
vn -0.0011 -1.0000 -0.0001
vn -0.0023 -1.0000 -0.0004
vn 0.0001 0.0050 -1.0000
vn -0.0018 -0.0042 1.0000
vn -0.0024 -0.0060 1.0000
vn 1.0000 0.0082 -0.0030
vn 1.0000 0.0063 -0.0017
vn -0.0021 -0.0036 1.0000
vn -0.0024 -0.0061 1.0000
vn 1.0000 0.0066 -0.0023
vn -0.6825 -0.0020 -0.7309
vn -0.9669 -0.0092 0.2550
vn -0.6871 -0.0020 -0.7265
vn -0.9673 -0.0092 0.2534
vn -0.6855 -0.0093 0.7280
vn 0.6689 0.0092 -0.7433
vn -0.2784 0.0025 -0.9605
vn 0.6672 0.0092 -0.7448
vn -0.2723 0.0026 -0.9622
vn 0.9736 0.0069 0.2282
vn 0.9725 0.0068 0.2327
vn 0.2574 0.0069 -0.9663
vn 0.2528 0.0069 -0.9675
vn 0.6855 0.0093 -0.7280
vn 0.7019 0.0022 0.7123
vn -0.7019 -0.0022 -0.7123
vn 0.6704 0.0018 0.7420
vn -0.6536 -0.0091 0.7568
vn 0.6536 0.0091 -0.7568
vn -0.6740 -0.0019 -0.7387
vn 0.9672 0.0092 -0.2540
vn 0.6890 0.0093 -0.7247
vn 0.9676 0.0092 -0.2524
vn -0.6672 -0.0092 0.7448
vn 0.2723 -0.0026 0.9622
vn -0.6689 -0.0092 0.7433
vn 0.2784 -0.0025 0.9605
vn -0.2541 -0.0069 0.9672
vn 0.6843 0.0020 0.7292
vn -0.2587 -0.0069 0.9659
vn 0.6890 0.0020 0.7248
vn -0.6890 -0.0093 0.7247
vn -0.9736 -0.0069 -0.2282
vn -0.7019 -0.0022 -0.7122
vn -0.9725 -0.0068 -0.2327
vn -0.0000 0.1128 0.9936
vn -0.9934 0.1151 0.0030
vn -0.9934 0.1150 0.0030
vn 0.9914 0.1311 -0.0030
vn 0.0003 0.1226 -0.9925
vn -0.4384 -0.7873 0.4336
vn -0.4408 -0.7865 -0.4325
vn 0.0034 -1.0000 -0.0026
vn 0.4388 -0.7861 0.4353
vn 0.4405 -0.7834 -0.4385
usemtl material_142
s 1
f 3/1/1 2/2/1 1/3/1
f 3/1/1 4/4/1 2/2/1
f 6/5/1 1/6/1 5/7/1
f 6/5/1 3/8/1 1/6/1
f 8/9/1 5/10/1 7/11/2
f 8/9/1 6/12/1 5/10/1
f 7/13/2 4/14/1 8/15/1
f 7/13/2 2/16/1 4/14/1
f 10/17/3 2/16/3 9/18/4
f 10/17/3 1/6/3 2/16/3
f 12/19/5 5/7/5 11/20/5
f 12/19/5 7/13/6 5/7/5
f 11/21/7 1/3/7 10/22/7
f 11/21/7 5/10/7 1/3/7
f 7/11/8 9/23/9 2/2/10
f 7/11/8 12/24/10 9/23/9
usemtl material_140
f 94/25/11 93/26/12 92/27/13
f 94/25/11 95/28/14 93/26/12
f 96/29/13 95/28/14 94/25/11
f 96/29/13 97/30/12 95/28/14
f 98/31/11 97/30/12 96/29/13
f 98/31/11 99/32/14 97/30/12
f 100/33/13 99/32/14 98/31/11
f 100/33/13 101/34/12 99/32/14
f 86/35/15 101/34/12 100/33/13
f 86/35/15 102/36/15 101/34/12
f 93/26/12 103/37/16 92/27/13
f 93/26/17 104/38/18 103/37/19
f 95/39/20 104/38/18 93/26/17
f 95/39/20 105/40/21 104/38/18
f 97/30/17 105/40/21 95/39/20
f 97/30/17 106/41/22 105/40/21
f 99/42/20 106/41/22 97/30/17
f 99/42/20 107/43/21 106/41/22
f 101/34/17 107/43/21 99/42/20
f 101/34/17 108/44/22 107/43/21
f 102/36/23 108/44/22 101/34/17
f 102/36/23 89/45/24 108/44/22
f 105/46/25 109/47/26 104/48/27
f 105/46/25 110/49/28 109/47/26
f 106/50/27 110/49/28 105/46/25
f 106/50/27 111/51/26 110/49/28
f 107/52/25 111/51/26 106/50/27
f 107/52/25 112/53/29 111/51/26
f 108/54/27 112/53/29 107/52/25
f 108/54/27 113/55/26 112/53/29
f 89/56/30 113/55/26 108/54/27
f 89/56/30 85/57/30 113/55/26
f 109/47/26 103/37/31 104/48/27
f 109/47/32 92/58/33 103/37/34
f 110/59/35 92/58/33 109/47/32
f 110/59/35 94/60/36 92/58/33
f 111/51/32 94/60/36 110/59/35
f 111/51/32 96/61/33 94/60/36
f 112/62/35 96/61/33 111/51/32
f 112/62/35 98/63/36 96/61/33
f 113/55/32 98/63/36 112/62/35
f 113/55/32 100/64/33 98/63/36
f 85/57/37 100/64/33 113/55/32
f 85/57/37 86/65/37 100/64/33
usemtl material_139
f 55/66/3 54/67/3 53/68/3
f 55/66/3 56/69/38 54/67/3
f 56/70/39 57/71/40 54/72/10
f 56/70/39 58/73/10 57/71/40
f 58/74/5 59/75/5 57/76/41
f 58/74/5 60/77/5 59/75/5
f 60/78/7 53/79/7 59/80/7
f 60/78/7 55/81/7 53/79/7
f 60/82/1 56/83/42 55/84/1
f 60/82/1 58/85/1 56/83/42
f 63/86/3 62/87/3 61/88/3
f 63/86/3 64/89/43 62/87/3
f 64/90/39 65/91/40 62/92/10
f 64/90/39 66/93/10 65/91/40
f 66/94/5 67/95/5 65/96/41
f 66/94/5 68/97/5 67/95/5
f 68/98/7 61/99/7 67/100/7
f 68/98/7 63/101/7 61/99/7
f 68/102/1 64/103/42 63/104/1
f 68/102/1 66/105/1 64/103/42
f 71/106/3 70/107/3 69/108/3
f 71/106/3 72/109/38 70/107/3
f 72/110/39 73/111/40 70/112/10
f 72/110/39 74/113/10 73/111/40
f 74/114/5 75/115/5 73/116/41
f 74/114/5 76/117/5 75/115/5
f 76/118/7 69/119/7 75/120/7
f 76/118/7 71/121/7 69/119/7
f 76/122/1 72/123/42 71/124/1
f 76/122/1 74/125/1 72/123/42
f 79/126/3 78/127/3 77/128/3
f 79/126/3 80/129/38 78/127/3
f 80/130/39 81/131/40 78/132/10
f 80/130/39 82/133/10 81/131/40
f 82/134/5 83/135/5 81/136/41
f 82/134/5 84/137/44 83/135/5
f 84/138/7 77/139/7 83/140/7
f 84/138/7 79/141/7 77/139/7
f 84/142/1 80/143/42 79/144/1
f 84/142/1 82/145/1 80/143/42
usemtl material_143
f 116/146/45 115/147/46 114/148/47
f 116/146/45 117/149/48 115/147/46
f 120/150/49 119/151/50 118/152/51
f 120/150/49 114/153/47 119/151/50
f 115/154/46 122/155/52 121/156/53
f 115/154/46 123/157/54 122/155/52
f 114/158/47 121/159/53 119/160/50
f 114/158/47 115/161/46 121/159/53
f 125/162/55 115/163/46 124/164/56
f 125/162/55 123/165/54 115/163/46
f 127/166/57 120/167/49 126/168/58
f 127/166/57 114/169/47 120/167/49
f 123/170/54 118/171/51 122/172/52
f 123/170/54 120/173/49 118/171/51
f 120/174/49 129/175/59 128/176/60
f 120/174/49 123/177/54 129/175/59
f 11/178/61 131/179/61 130/180/61
f 11/178/61 10/181/61 131/179/61
f 132/182/61 9/183/62 12/184/61
f 132/182/61 133/185/61 9/183/62
f 12/186/61 130/187/61 132/188/61
f 12/186/61 11/189/61 130/187/61
f 10/190/61 133/191/61 131/192/61
f 10/190/61 9/193/62 133/191/61
f 136/194/7 135/195/7 134/196/7
f 136/194/7 129/197/7 135/195/7
f 139/198/5 138/199/5 137/200/41
f 139/198/5 124/201/5 138/199/5
f 124/202/56 140/203/7 138/204/63
f 124/202/56 115/205/46 140/203/7
f 117/206/64 137/207/65 141/208/10
f 117/206/64 139/209/10 137/207/65
f 115/210/46 141/211/66 140/212/66
f 115/210/46 117/213/48 141/211/66
f 114/214/47 143/215/7 142/216/7
f 114/214/47 127/217/57 143/215/7
f 127/218/3 144/219/3 143/220/3
f 127/218/3 145/221/67 144/219/3
f 116/222/45 142/223/5 146/224/41
f 116/222/45 114/225/47 142/223/5
f 145/226/68 146/227/69 144/228/10
f 145/226/68 116/229/10 146/227/69
f 149/230/3 148/231/3 147/232/3
f 149/230/3 126/233/70 148/231/3
f 128/234/7 147/235/7 150/236/7
f 128/234/7 149/237/7 147/235/7
f 126/238/58 151/239/40 148/240/10
f 126/238/58 120/241/49 151/239/40
f 120/242/49 150/243/44 151/244/41
f 120/242/49 128/245/60 150/243/44
f 123/246/54 153/247/40 152/248/10
f 123/246/54 125/249/55 153/247/40
f 125/250/5 134/251/5 153/252/41
f 125/250/5 136/253/5 134/251/5
f 129/254/59 152/255/3 135/256/3
f 129/254/59 123/257/54 152/255/3
usemtl material_144
f 15/258/71 14/259/72 13/260/73
f 15/258/71 16/261/74 14/259/72
f 16/262/74 17/263/75 14/264/72
f 16/262/74 18/265/75 17/263/75
f 21/266/76 20/267/77 19/268/78
f 21/266/76 22/269/79 20/267/77
f 24/270/80 19/271/78 23/272/81
f 24/270/80 21/273/76 19/271/78
f 26/274/82 13/275/73 25/276/83
f 26/274/82 15/277/71 13/275/73
f 28/278/84 25/279/83 27/280/84
f 28/278/84 26/281/82 25/279/83
f 30/282/85 23/283/81 29/284/85
f 30/282/85 24/285/80 23/283/81
f 22/286/79 31/287/86 20/288/77
f 22/286/79 32/289/86 31/287/86
f 27/290/87 18/291/87 28/292/87
f 27/290/87 17/293/87 18/291/87
f 32/294/88 29/295/88 31/296/88
f 32/294/88 30/297/88 29/295/88
f 35/298/89 34/299/89 33/300/89
f 35/298/89 36/301/89 34/299/89
f 39/302/90 38/303/90 37/304/90
f 39/302/90 40/305/90 38/303/90
f 42/306/91 37/307/92 41/308/93
f 42/306/91 39/309/92 37/307/92
f 45/310/94 44/311/95 43/312/96
f 45/310/94 46/313/97 44/311/95
f 49/314/98 48/315/99 47/316/100
f 49/314/98 50/317/101 48/315/99
f 40/318/102 47/319/100 38/320/102
f 40/318/102 49/321/98 47/319/100
f 46/322/97 33/323/85 44/324/95
f 46/322/97 35/325/85 33/323/85
f 36/326/86 51/327/103 34/328/104
f 36/326/86 52/329/105 51/327/103
f 52/330/105 43/331/96 51/332/103
f 52/330/105 45/333/94 43/331/96
f 50/334/101 41/335/93 48/336/99
f 50/334/101 42/337/91 41/335/93
usemtl material_138
s off
f 87/338/106 86/339/106 85/340/106
f 87/338/106 88/341/106 86/339/106
s 1
f 90/342/107 85/343/108 89/344/107
f 90/342/107 87/345/108 85/343/108
f 88/346/109 102/347/109 86/348/109
f 88/346/109 91/349/109 102/347/109
f 91/350/110 89/351/110 102/352/110
f 91/350/110 90/353/110 89/351/110
usemtl material_141
s off
f 6/354/1 4/355/1 3/356/1
f 6/354/1 8/357/1 4/355/1
s 1
f 102/358/111 86/359/112 154/360/113
f 89/361/114 154/360/113 85/362/115
f 154/360/113 86/363/112 85/364/115
f 89/365/114 102/366/111 154/360/113
