# Blender v2.79 (sub 0) OBJ File: ''
# www.blender.org
mtllib Chair.mtl
v 11.797418 4.128687 5.051635
v 11.737679 4.149724 -5.003531
v 11.822150 3.195681 5.287832
v 11.759662 3.217681 -5.224423
v 10.762466 4.902188 -5.008851
v 10.822261 4.881138 5.046314
v -4.223860 5.060002 5.058454
v -4.283587 5.081038 -4.996738
v -4.298823 4.357806 5.292835
v -4.361264 4.379832 -5.219422
v -3.910331 4.896519 -4.995570
v -3.850585 4.875475 5.059650
v -11.151613 12.924096 -5.055040
v -11.091880 12.903069 5.000152
v -11.208852 11.934131 4.494060
v -11.586820 11.450397 4.498355
v -11.261809 11.952782 -4.418535
v -11.639824 11.469070 -4.414188
v -11.233295 11.469238 -4.414572
v -11.180285 11.450564 4.497998
v -12.215978 4.682496 -4.380713
v -12.162870 4.663799 4.554712
v -12.622533 4.682329 -4.380356
v -12.569427 4.663641 4.555069
v -12.262797 5.039812 -4.377757
v -12.209703 5.021102 4.551813
v -11.746840 3.106233 4.716865
v 10.601260 3.114871 4.696623
v -11.900303 3.416595 4.507617
v 10.644897 3.425312 4.487164
v -11.748939 3.106958 4.364673
v 10.599160 3.115601 4.344432
v 10.545869 3.134392 -4.629639
v -11.802264 3.125752 -4.609398
v 10.591987 3.443961 -4.425378
v -11.953307 3.435263 -4.405006
v 10.548041 3.133603 -4.255371
v -11.800025 3.124966 -4.235077
v -11.555609 12.478334 -4.479698
v -11.098326 12.478161 -4.312542
v -12.686253 4.669066 -4.414439
v -12.228954 4.668884 -4.247311
v -11.649834 -0.017109 -4.376846
v -11.334184 0.362637 -4.212726
v -3.291793 -0.013877 -4.384373
v -3.540885 0.365649 -4.219766
v -1.000870 4.671580 -4.424987
v -1.354112 4.671071 -4.257164
v -1.356380 4.671879 -4.632722
v -3.543079 0.366424 -4.595295
v -11.336437 0.363430 -4.588256
v -12.231196 4.669678 -4.622894
v -11.100545 12.478921 -4.688098
v 10.787845 4.403611 4.686975
v 11.007209 4.404550 4.288436
v 10.265729 0.797170 4.717120
v 10.513101 0.991327 4.316930
v 10.143344 -0.026778 4.229137
v 10.428941 0.426988 3.930459
v 10.093606 -0.009263 -4.136346
v 10.382602 0.443306 -3.860140
v 10.212470 0.831602 -4.611875
v 10.464134 1.024239 -4.287914
v 10.732369 4.422635 -4.641891
v 10.956018 4.422046 -4.316281
v 10.512543 4.421848 -4.315891
v 10.020566 1.024072 -4.287523
v 9.939100 0.443145 -3.859723
v 9.985426 0.426821 3.930850
v 10.069566 0.991174 4.317348
v 10.563726 4.404364 4.288800
v -11.047210 12.460144 4.284817
v -11.502692 12.459668 4.432846
v -12.177807 4.650894 4.350075
v -12.633275 4.650398 4.498105
v -11.283076 0.344632 4.384713
v -11.596862 -0.035778 4.535697
v -3.489785 0.347639 4.377619
v -3.238810 -0.032549 4.528171
v -1.302991 4.653073 4.340248
v -0.947926 4.652892 4.487528
v -11.045119 12.459417 4.639371
v -12.175710 4.650146 4.704684
v -11.280998 0.343913 4.739268
v -3.487686 0.346913 4.732175
v -1.300940 4.652335 4.694802
v 10.413295 4.286988 -5.232007
v 10.475762 4.264954 5.280224
v -4.209383 4.259303 5.293571
v -4.271871 4.281316 -5.218687
v -11.651682 12.547482 -5.280028
v -11.589213 12.525473 5.232231
vt 0.606100 0.799700
vt 0.660800 0.680700
vt 0.226100 0.727000
vt 0.859000 0.626400
vt 0.970200 0.631900
vt 0.786400 0.882200
vt 0.493600 0.722400
vt 0.512500 0.855900
vt 0.090600 0.786400
vt 0.207100 0.904400
vt 0.432000 0.938500
vt 0.932400 0.748300
vt 0.416100 0.973300
vt 0.652000 0.752100
vt 0.671400 0.640200
vt 0.238100 0.897900
vt 0.699400 0.922900
vt 0.685100 0.808800
vt 0.952600 0.696700
vt 0.980000 0.580400
vt 0.997100 0.662800
vt 0.003100 0.972500
vt 0.997100 0.972500
vt 0.003100 0.662800
vt 0.003100 0.972500
vt 0.997100 0.509800
vt 0.003100 0.509800
vt 0.997100 0.972500
vt 0.997100 0.662800
vt 0.003100 0.972500
vt 0.997100 0.972500
vt 0.003100 0.662800
vt 0.003900 2.972500
vt 0.997000 0.007800
vt 0.003900 0.007800
vt 0.997000 2.976500
vt 0.003900 1.980400
vt 0.997000 0.011800
vt 0.003900 0.007800
vt 0.997000 1.980400
vt 0.210400 0.763300
vt 0.166100 0.250800
vt 0.210400 0.763300
vt 0.166100 0.250800
vt 0.476900 0.003300
vt 0.476900 0.003300
vt 0.157200 0.278400
vt 0.476900 0.003300
vt 0.476900 0.003300
vt 0.155900 0.282900
vt 0.246300 0.822000
vt 0.246300 0.822000
vt 0.507000 0.998700
vt 0.784200 0.759300
vt 0.784200 0.759300
vt 0.495900 0.999500
vt 0.211400 0.783000
vt 0.211400 0.783000
vt 0.539900 0.993400
vt 0.244000 0.845000
vt 0.244000 0.845000
vt 0.533200 0.994900
vt 0.801300 0.716000
vt 0.801300 0.716000
vt 0.148700 0.396500
vt 0.681800 0.442900
vt 0.148200 0.479000
vt 0.673000 0.403400
vt 0.286500 0.076400
vt 0.737000 0.292300
vt 0.715200 0.115600
vt 0.880900 0.294000
vt 0.845400 0.341100
vt 0.951400 0.380800
vt 0.382300 0.466900
vt 0.276700 0.363800
vt 0.098900 0.360100
vt 0.030500 0.492300
vt 0.033400 0.540200
vt 0.815000 0.289800
vt 0.981000 0.491900
vt 0.840300 0.446000
vt 0.964900 0.432100
vt 0.644700 0.039300
vt 0.877100 0.321600
vt 0.314800 0.092500
vt 0.768400 0.332600
vt 0.171100 0.390800
vt 0.666200 0.473000
vt 0.159700 0.554000
vt 0.627500 0.544700
vt 0.009200 0.512900
vt 0.018000 0.451200
vt 0.097500 0.308300
vt 0.211400 0.291400
vt 0.304700 0.403100
vt 0.331200 0.458500
vt 0.054900 0.508600
vt 0.114700 0.484400
vt 0.058300 0.544800
vt 0.117100 0.401700
vt 0.107700 0.409900
vt 0.261300 0.080600
vt 0.239500 0.412400
vt 0.686900 0.120000
vt 0.319500 0.489200
vt 0.816700 0.344700
vt 0.645100 0.443200
vt 0.634800 0.396700
vt 0.710600 0.263800
vt 0.882500 0.266300
vt 0.962900 0.370500
vn 0.1886 0.2307 -0.9546
vn 0.1939 0.2510 0.9484
vn 0.0007 0.3545 0.9350
vn 0.0007 0.3546 0.9350
vn -0.8631 0.5050 0.0062
vn -0.0010 0.3415 -0.9399
vn 0.1890 0.2383 -0.9526
vn 0.1845 0.2458 0.9516
vn 0.3023 0.2579 -0.9176
vn 0.2563 0.2218 -0.9408
vn -0.6031 0.7977 0.0053
vn -0.6031 0.7976 0.0053
vn 0.2594 0.2342 0.9369
vn 0.2986 0.2733 0.9144
vn 0.9997 0.0250 -0.0059
vn 0.6109 0.7917 -0.0020
vn 0.9941 -0.1082 -0.0061
vn -0.0004 1.0000 0.0021
vn 0.7523 0.6588 -0.0031
vn -0.7879 0.6157 0.0060
vn -0.7879 0.6158 0.0060
vn 0.0004 -1.0000 -0.0021
vn -0.7049 0.7093 0.0057
vn -0.7048 0.7093 0.0057
vn 0.0005 0.5592 0.8290
vn 0.0005 0.5593 0.8290
vn -0.0010 0.4187 -0.9081
vn -0.0010 0.5508 -0.8346
vn -0.0010 0.5507 -0.8347
vn 0.0006 0.4804 0.8771
vn 0.0006 0.4806 0.8770
vn -0.3427 0.0575 0.9377
vn -0.3427 0.0574 0.9377
vn -0.3425 -0.0682 0.9370
vn -0.3891 -0.0735 0.9183
vn 0.0010 -0.3974 0.9176
vn 0.0010 -0.3974 0.9177
vn 0.3553 -0.1658 0.9199
vn 0.4202 -0.2057 0.8838
vn 0.4888 -0.2463 -0.8369
vn 0.4131 -0.2175 -0.8843
vn -0.0006 -0.4853 -0.8743
vn -0.0006 -0.4853 -0.8744
vn -0.4614 -0.1091 -0.8804
vn -0.4145 -0.0934 -0.9052
vn -0.4160 0.0526 -0.9079
vn -0.4159 0.0526 -0.9079
vn 0.8696 -0.1219 0.4784
vn 0.8640 -0.3454 0.3665
vn 0.8828 -0.3478 0.3157
vn 0.8445 -0.5355 -0.0061
vn 0.8692 -0.3307 -0.3676
vn 0.8225 -0.4075 -0.3967
vn 0.8178 -0.1231 -0.5621
vn 0.8179 -0.1231 -0.5620
vn -0.8238 0.1146 -0.5552
vn -0.8237 0.1146 -0.5554
vn -0.8850 -0.1280 -0.4476
vn -0.9354 -0.1150 -0.3343
vn -0.9454 -0.3259 0.0049
vn -0.9263 -0.0804 0.3681
vn -0.9135 -0.1282 0.3860
vn -0.8640 0.1292 0.4866
vn -0.3089 0.0368 -0.9504
vn -0.3082 -0.0717 -0.9486
vn -0.3472 -0.0843 -0.9340
vn -0.0007 -0.3684 -0.9297
vn -0.0007 -0.3686 -0.9296
vn 0.3104 -0.1658 -0.9360
vn 0.3760 -0.1917 -0.9066
vn -0.4104 0.0670 0.9094
vn -0.4105 0.0670 0.9094
vn -0.4101 -0.0834 0.9082
vn -0.4619 -0.0889 0.8825
vn 0.0010 -0.4731 0.8810
vn 0.0010 -0.4730 0.8811
vn 0.4221 -0.1987 0.8845
vn 0.4915 -0.2424 0.8365
usemtl material_488
s off
f 2/1/1 4/2/1 87/3/1
f 88/4/2 3/5/2 6/6/2
f 89/7/3 88/4/3 6/6/3
f 89/7/4 6/6/4 12/8/4
f 90/9/5 89/7/5 12/8/5
f 90/9/5 12/8/5 11/10/5
f 87/3/6 90/9/6 11/10/6
f 87/3/6 11/10/6 5/11/6
f 2/1/7 87/3/7 5/11/7
f 1/12/8 6/6/8 3/5/8
f 13/13/9 8/14/9 10/15/9
f 13/13/10 10/15/10 91/16/10
f 14/17/11 13/13/11 91/16/11
f 14/17/12 91/16/12 92/18/12
f 7/19/13 14/17/13 92/18/13
f 7/19/14 92/18/14 9/20/14
usemtl material_487
f 3/21/15 2/22/15 1/23/15
f 3/21/15 4/24/15 2/22/15
f 5/25/16 1/26/16 2/27/16
f 5/25/16 6/28/16 1/26/16
f 9/29/17 8/30/17 7/31/17
f 9/29/17 10/32/17 8/30/17
f 11/33/18 6/34/18 5/35/18
f 11/33/18 12/36/18 6/34/18
f 13/37/19 7/38/19 8/39/19
f 13/37/19 14/40/19 7/38/19
usemtl material_489
f 17/41/20 16/42/20 15/43/20
f 18/44/21 16/42/21 17/41/21
f 19/45/22 16/42/22 18/44/22
f 19/45/22 20/46/22 16/42/22
f 23/47/22 21/48/22 22/49/22
f 23/47/22 22/49/22 24/50/22
f 25/51/23 23/47/23 24/50/23
f 25/51/24 24/50/24 26/52/24
f 29/53/25 27/54/25 28/55/25
f 29/53/26 28/55/26 30/56/26
f 31/57/27 29/53/27 30/56/27
f 31/57/27 30/56/27 32/58/27
f 35/59/28 33/60/28 34/61/28
f 35/59/29 34/61/29 36/62/29
f 37/63/30 35/59/30 36/62/30
f 37/63/31 36/62/31 38/64/31
f 41/65/32 40/66/32 39/67/32
f 41/65/33 42/68/33 40/66/33
f 43/69/34 42/68/34 41/65/34
f 43/69/35 44/70/35 42/68/35
f 45/71/36 44/70/36 43/69/36
f 45/71/37 46/72/37 44/70/37
f 47/73/38 46/72/38 45/71/38
f 47/73/39 48/74/39 46/72/39
f 45/71/40 49/75/40 47/73/40
f 45/71/41 50/76/41 49/75/41
f 43/69/42 50/76/42 45/71/42
f 43/69/43 51/77/43 50/76/43
f 41/65/44 51/77/44 43/69/44
f 41/65/45 52/78/45 51/77/45
f 39/67/46 52/78/46 41/65/46
f 39/67/47 53/79/47 52/78/47
f 56/80/48 55/81/48 54/82/48
f 56/80/48 57/83/48 55/81/48
f 58/84/49 57/83/49 56/80/49
f 58/84/50 59/85/50 57/83/50
f 60/86/51 59/85/51 58/84/51
f 60/86/51 61/87/51 59/85/51
f 62/88/52 61/87/52 60/86/52
f 62/88/53 63/89/53 61/87/53
f 64/90/54 63/89/54 62/88/54
f 64/90/55 65/91/55 63/89/55
f 62/88/56 66/92/56 64/90/56
f 62/88/57 67/93/57 66/92/57
f 60/86/58 67/93/58 62/88/58
f 60/86/59 68/94/59 67/93/59
f 58/84/60 68/94/60 60/86/60
f 58/84/60 69/95/60 68/94/60
f 56/80/61 69/95/61 58/84/61
f 56/80/62 70/96/62 69/95/62
f 54/82/63 70/96/63 56/80/63
f 54/82/63 71/97/63 70/96/63
f 74/98/64 73/99/64 72/100/64
f 74/98/64 75/101/64 73/99/64
f 76/102/65 75/101/65 74/98/65
f 76/102/66 77/103/66 75/101/66
f 78/104/67 77/103/67 76/102/67
f 78/104/68 79/105/68 77/103/68
f 80/106/69 79/105/69 78/104/69
f 80/106/70 81/107/70 79/105/70
f 75/101/71 82/108/71 73/99/71
f 75/101/72 83/109/72 82/108/72
f 77/103/73 83/109/73 75/101/73
f 77/103/74 84/110/74 83/109/74
f 79/105/75 84/110/75 77/103/75
f 79/105/76 85/111/76 84/110/76
f 81/107/77 85/111/77 79/105/77
f 81/107/78 86/112/78 85/111/78
