# Blender v2.79 (sub 0) OBJ File: ''
# www.blender.org
mtllib Dock.mtl
v -26.710297 0.000005 -28.702801
v 26.862692 0.031862 29.066536
v 26.764370 -0.000160 -28.607334
v -26.611933 0.032036 28.971016
v -22.789604 6.728037 -28.749445
v -22.606533 0.030330 28.973980
v -22.694508 0.001690 -28.746721
v -22.701630 6.756676 28.971239
v 22.874422 6.727893 -28.557772
v 22.758953 0.001548 -28.555048
v 22.846901 0.030166 28.944645
v 22.962387 6.756541 28.941938
vt 0.490200 0.996080
vt 0.000000 0.000000
vt 0.490200 0.000000
vt 0.000000 0.996080
vt 0.560780 0.121570
vt 0.882350 0.494120
vt 0.560780 0.494120
vt 0.882350 0.121570
vt 0.882350 0.121570
vt 0.882350 0.494120
vt 0.560780 0.494120
vt 0.560780 0.121570
vn 0.0000 1.0000 -0.0005
vn 0.9999 0.0141 -0.0015
vn -0.9998 0.0172 0.0015
usemtl material_55
s 1
f 1/1/1 2/2/1 3/3/1
f 1/1/1 4/4/1 2/2/1
f 5/5/2 6/6/2 7/7/2
f 5/5/2 8/8/2 6/6/2
f 9/9/3 10/10/3 11/11/3
f 12/12/3 9/9/3 11/11/3
