# Blender v2.79 (sub 0) OBJ File: ''
# www.blender.org
mtllib Dock.mtl
v -26.710297 0.000008 -28.702799
v 26.862692 0.031859 29.066538
v 26.764370 -0.000157 -28.607332
v -26.611933 0.032033 28.971018
v -26.583536 6.728021 22.789612
v 26.915501 0.030330 22.606531
v -26.580811 0.001675 22.694511
v 26.912758 6.756675 22.701632
v 22.874422 6.727895 -28.557770
v 22.758953 0.001551 -28.555046
v 22.846901 0.030163 28.944647
v 22.962387 6.756538 28.941940
vt 0.490200 0.996080
vt 0.000000 0.000000
vt 0.490200 0.000000
vt 0.000000 0.996080
vt 0.560780 0.121570
vt 0.882350 0.494120
vt 0.560780 0.494120
vt 0.882350 0.121570
vt 0.882350 0.121570
vt 0.882350 0.494120
vt 0.560780 0.494120
vt 0.560780 0.121570
vn 0.0000 1.0000 -0.0005
vn -0.0016 0.0141 -0.9999
vn -0.9998 0.0172 0.0015
usemtl material_55
s 1
f 1/1/1 2/2/1 3/3/1
f 1/1/1 4/4/1 2/2/1
f 5/5/2 6/6/2 7/7/2
f 5/5/2 8/8/2 6/6/2
f 9/9/3 10/10/3 11/11/3
f 12/12/3 9/9/3 11/11/3
