# Blender v2.79 (sub 0) OBJ File: ''
# www.blender.org
mtllib Dock.mtl
v 23.572508 -5.909420 -19.354183
v 21.507566 -2.472992 22.413502
v 21.427053 -2.499192 -21.998163
v 23.643450 -5.886320 19.778498
v 24.106926 -2.497199 -18.601631
v 24.175152 -2.475004 19.025948
v -20.028681 -2.499074 -22.067820
v -22.090261 -5.886178 19.701651
v -22.161180 -5.909260 -19.431028
v -19.948208 -2.472868 22.343847
v -22.696260 -2.497044 -18.680265
v -22.628082 -2.474852 18.947298
v 26.805374 -2.489165 -4.963933
v -26.670273 0.013042 -4.918096
v 26.804396 0.012879 -4.828265
v -26.669268 -2.488999 -5.053765
v -26.650490 -2.482880 5.307463
v 26.822670 0.018827 5.260303
v -26.651970 0.018997 5.170473
v 26.824152 -2.483053 5.397278
v 18.766233 -41.054127 -25.417124
v 18.747124 -2.501210 -25.427231
v 24.126072 -41.050125 -18.591541
v 24.113705 -41.054153 -25.408131
v 24.094585 -2.501215 -25.418251
v 18.859158 -41.023876 25.843662
v 18.840019 -2.470969 25.833591
v 24.194252 -41.027939 19.036102
v 24.206619 -41.023911 25.852674
v 24.187496 -2.470982 25.842569
v -17.361141 -2.501100 -25.487875
v -22.677134 -41.049976 -18.670177
v -17.342012 -41.054016 -25.477785
v -22.708599 -2.501073 -25.496853
v -22.689487 -41.054012 -25.486765
v -22.608915 -41.027782 18.957485
v -17.268229 -2.470849 25.772995
v -17.249102 -41.023766 25.783085
v -22.628044 -2.474866 18.947412
v -22.615683 -2.470836 25.764000
v -22.596560 -41.023750 25.774090
v 26.765352 -2.502201 -27.049694
v -26.710297 0.000006 -27.003841
v 26.764370 -0.000159 -26.914024
v -26.709290 -2.502027 -27.139526
v -26.690529 -2.495914 -16.778316
v 26.782650 0.005803 -16.825474
v -26.692007 0.005968 -16.915289
v 26.784126 -2.496078 -16.688469
v 26.785370 -2.495680 -16.006832
v -26.690277 0.006534 -15.960979
v 26.784382 0.006354 -15.871161
v -26.689289 -2.495525 -16.096647
v -26.670498 -2.489401 -5.735435
v 26.802675 0.012321 -5.782595
v -26.671991 0.012476 -5.872426
v 26.804157 -2.489561 -5.645602
v 26.825401 -2.482651 6.078930
v -26.650249 0.019551 6.124784
v 26.824400 0.019400 6.214616
v -26.649256 -2.482484 5.989114
v -26.630478 -2.476360 16.350309
v 26.842703 0.025348 16.303167
v -26.631964 0.025517 16.213335
v 26.844175 -2.476546 16.440159
v 26.845400 -2.476150 17.121811
v -26.630219 0.026090 17.167633
v 26.844406 0.025895 17.257481
v -26.629242 -2.475969 17.031963
v -26.610453 -2.469856 27.393190
v 26.862692 0.031861 27.346048
v -26.611933 0.032034 27.256184
v 26.864166 -2.470032 27.483023
v -23.727615 4.209761 23.497988
v -0.552387 5.360690 23.991278
v -0.278536 4.223592 23.455477
v -23.456165 5.347186 24.032793
v -0.825663 4.223294 24.525951
v -23.184099 4.210093 24.566483
v 0.539448 4.224089 23.453995
v 23.714680 5.375018 23.947294
v 23.988544 4.237929 23.411482
v 0.810917 5.361503 23.988810
v 23.441420 4.237604 24.481979
v 1.082964 4.224419 24.522491
v -23.728544 7.735252 23.499723
v -0.553314 8.886189 23.993019
v -0.279446 7.749102 23.457214
v -23.457075 8.872671 24.034529
v -0.826572 7.748786 24.527695
v -23.185028 7.735563 24.568233
v 0.538538 7.749573 23.455751
v 23.713747 8.900521 23.949043
v 23.987619 7.763428 23.413231
v 0.809990 8.887004 23.990547
v 23.440510 7.763093 24.483725
v 1.082069 7.749905 24.524240
v -24.136740 9.782060 22.699362
v -24.134176 0.001675 22.694510
v -25.501986 0.000873 25.370703
v -25.504551 9.781263 25.375557
v -22.775345 0.002489 25.365753
v -22.777925 9.782891 25.370607
v -1.234888 0.015200 25.326727
v 0.130360 9.796386 22.655375
v 0.132921 0.015997 22.650534
v -1.237467 9.795596 25.331568
v 1.489174 9.797198 25.326645
v 1.491737 0.016812 25.321791
v 24.094414 5.347047 -23.375292
v 23.559732 4.209626 -23.648565
v 23.602232 4.223463 -0.199486
v 24.135910 5.360543 -0.471517
v 24.670740 4.223140 -0.743002
v 24.630209 4.209939 -23.101439
v 24.138372 5.361358 0.891770
v 23.603703 4.223948 0.618496
v 23.646187 4.237769 24.067614
v 24.179886 5.374868 23.795532
v 24.714706 4.237446 23.524065
v 24.674206 4.224264 1.165607
v 24.092646 8.872525 -23.376219
v 23.557993 7.735122 -23.649492
v 23.600479 7.748950 -0.200393
v 24.134167 8.886043 -0.472474
v 24.668961 7.748628 -0.743926
v 24.628469 7.735442 -23.102364
v 24.136639 8.886857 0.890830
v 23.601936 7.749435 0.617590
v 23.644455 7.763269 24.066671
v 24.178137 8.900363 23.794590
v 24.712965 7.762943 23.523140
v 24.672428 7.749756 1.164700
v 25.513342 9.809753 23.114943
v 25.518158 0.029369 23.117502
v 22.846901 0.030165 24.476336
v 22.842060 9.810580 24.473791
v 25.518269 9.811360 25.841585
v 25.523113 0.030983 25.844145
v 22.758953 0.001548 -24.057812
v 25.425339 9.781116 -25.419203
v 25.430214 0.000734 -25.416643
v 22.754093 9.781932 -24.060371
v 25.435171 0.002340 -22.690001
v 25.430323 9.782736 -22.692562
v 25.469343 9.795440 -1.152104
v 25.474201 0.015049 -1.149561
v 22.802931 0.015859 0.209272
v 22.798080 9.796264 0.206728
v 25.474291 9.797051 1.574520
v 25.479147 0.016655 1.577081
vt 0.560780 0.000000
vt 0.498040 0.996080
vt 0.498040 0.000000
vt 0.560780 0.992160
vt 0.560780 0.000000
vt 0.498040 0.996080
vt 0.498040 0.000000
vt 0.560780 0.992160
vt 0.992160 0.996080
vt 0.498040 0.000000
vt 0.992160 0.000000
vt 0.498040 0.996080
vt 0.074510 -0.003920
vt 0.000000 0.996080
vt 0.000000 0.000000
vt 0.074510 0.996080
vt 0.074510 -0.003920
vt 0.000000 0.996080
vt 0.000000 0.000000
vt 0.074510 0.996080
vt 0.490200 0.996080
vt 0.000000 0.000000
vt 0.490200 0.000000
vt 0.000000 0.996080
vt 0.560780 0.000000
vt 0.498040 0.996080
vt 0.498040 0.000000
vt 0.560780 0.992160
vt 0.560780 0.000000
vt 0.498040 0.996080
vt 0.498040 0.000000
vt 0.560780 0.992160
vt 0.992160 0.996080
vt 0.498040 0.000000
vt 0.992160 0.000000
vt 0.498040 0.996080
vt 0.074510 -0.003920
vt 0.000000 0.996080
vt 0.000000 0.000000
vt 0.074510 0.996080
vt 0.074510 -0.003920
vt 0.000000 0.996080
vt 0.000000 0.000000
vt 0.074510 0.996080
vt 0.490200 0.996080
vt 0.000000 0.000000
vt 0.490200 0.000000
vt 0.000000 0.996080
vt 0.368630 0.490200
vt 0.239220 0.007840
vt 0.368630 0.011760
vt 0.239220 0.494120
vt 0.239220 0.494120
vt 0.117650 0.007840
vt 0.239220 0.007840
vt 0.117650 0.494120
vt 0.847060 0.490200
vt 0.733330 0.011760
vt 0.847060 0.007840
vt 0.733330 0.490200
vt 0.733330 0.011760
vt 0.627450 0.494120
vt 0.733330 0.490200
vt 0.627450 0.007840
vt 0.847060 0.490200
vt 0.733330 0.011760
vt 0.847060 0.007840
vt 0.733330 0.490200
vt 0.733330 0.011760
vt 0.627450 0.494120
vt 0.733330 0.490200
vt 0.627450 0.007840
vt 0.368630 0.490200
vt 0.239220 0.007840
vt 0.368630 0.011760
vt 0.239220 0.494120
vt 0.239220 0.494120
vt 0.117650 0.007840
vt 0.239220 0.007840
vt 0.117650 0.494120
vt 0.882350 0.121570
vt 0.882350 0.494120
vt 0.560780 0.494120
vt 0.560780 0.121570
vt 0.882350 0.494120
vt 0.560780 0.494120
vt 0.560780 0.121570
vt 0.882350 0.121570
vt 0.090200 0.121570
vt 0.388240 0.121570
vt 0.231370 0.278430
vt 0.560780 0.121570
vt 0.882350 0.494120
vt 0.560780 0.494120
vt 0.882350 0.121570
vt 0.560780 0.494120
vt 0.882350 0.121570
vt 0.882350 0.494120
vt 0.560780 0.121570
vt 0.560780 0.121570
vt 0.882350 0.494120
vt 0.560780 0.494120
vt 0.882350 0.121570
vt 0.231370 0.278430
vt 0.090200 0.121570
vt 0.388240 0.121570
vt 0.384310 0.494120
vt 0.090200 0.494120
vt 0.090200 0.121570
vt 0.117650 0.007840
vt 0.239220 0.007840
vt 0.239220 0.494120
vt 0.117650 0.494120
vt 0.239220 0.007840
vt 0.368630 0.011760
vt 0.368630 0.490200
vt 0.239220 0.494120
vt 0.627450 0.494120
vt 0.733330 0.490200
vt 0.733330 0.011760
vt 0.627450 0.007840
vt 0.733330 0.011760
vt 0.847060 0.007840
vt 0.847060 0.490200
vt 0.733330 0.490200
vt 0.627450 0.494120
vt 0.733330 0.490200
vt 0.733330 0.011760
vt 0.627450 0.007840
vt 0.733330 0.011760
vt 0.847060 0.007840
vt 0.847060 0.490200
vt 0.733330 0.490200
vt 0.117650 0.007840
vt 0.239220 0.007840
vt 0.239220 0.494120
vt 0.117650 0.494120
vt 0.239220 0.007840
vt 0.368630 0.011760
vt 0.368630 0.490200
vt 0.239220 0.494120
vt 0.882350 0.121570
vt 0.882350 0.494120
vt 0.560780 0.494120
vt 0.560780 0.121570
vt 0.384310 0.494120
vt 0.090200 0.494120
vt 0.090200 0.121570
vt 0.388240 0.121570
vt 0.090200 0.121570
vt 0.388240 0.121570
vt 0.231370 0.278430
vt 0.882350 0.494120
vt 0.560780 0.121570
vt 0.882350 0.121570
vt 0.560780 0.494120
vt 0.560780 0.494120
vt 0.882350 0.121570
vt 0.882350 0.494120
vt 0.560780 0.121570
vt 0.090200 0.121570
vt 0.384310 0.494120
vt 0.090200 0.494120
vt 0.388240 0.121570
vt 0.231370 0.278430
vt 0.090200 0.121570
vt 0.388240 0.121570
vt 0.560780 0.121570
vt 0.882350 0.121570
vt 0.882350 0.494120
vt 0.560780 0.494120
vt 0.882350 0.121570
vt 0.882350 0.494120
vt 0.560780 0.494120
vt 0.560780 0.121570
vt 0.560780 0.121570
vt 0.882350 0.121570
vt 0.882350 0.494120
vt 0.560780 0.494120
vt 0.090200 0.121570
vt 0.388240 0.121570
vt 0.231370 0.278430
vt 0.090200 0.121570
vt 0.384310 0.494120
vt 0.090200 0.494120
vt 0.388240 0.121570
vt 0.984310 0.490200
vt 0.478430 0.384310
vt 0.984310 0.384310
vt 0.478430 0.490200
vt 0.478430 0.384310
vt 0.984310 0.490200
vt 0.478430 0.490200
vt 0.984310 0.384310
vt 0.478430 0.384310
vt 0.000000 0.486270
vt 0.478430 0.490200
vt 0.000000 0.384310
vt 0.478430 0.384310
vt 0.000000 0.486270
vt 0.478430 0.490200
vt 0.000000 0.384310
vt 0.478430 0.196080
vt 0.000000 0.117650
vt 0.478430 0.117650
vt 0.000000 0.196080
vt 0.478430 0.196080
vt 0.000000 0.117650
vt 0.478430 0.117650
vt 0.000000 0.196080
vt 0.984310 0.384310
vt 0.478430 0.490200
vt 0.984310 0.490200
vt 0.478430 0.384310
vt 0.478430 0.384310
vt 0.984310 0.490200
vt 0.478430 0.490200
vt 0.984310 0.384310
vt 0.478430 0.384310
vt 0.000000 0.486270
vt 0.478430 0.490200
vt 0.000000 0.384310
vt 0.478430 0.384310
vt 0.000000 0.486270
vt 0.478430 0.490200
vt 0.000000 0.384310
vt 0.133330 0.988240
vt 0.376470 0.000000
vt 0.376470 0.988240
vt 0.133330 0.000000
vt 0.376470 0.000000
vt 0.133330 0.000000
vt 0.133330 0.988240
vt 0.376470 0.988240
vt 0.376470 0.000000
vt 0.133330 0.988240
vt 0.133330 0.000000
vt 0.376470 0.988240
vt 0.376470 0.000000
vt 0.133330 0.988240
vt 0.133330 0.000000
vt 0.376470 0.988240
vt 0.376470 0.000000
vt 0.133330 0.988240
vt 0.133330 0.000000
vt 0.376470 0.988240
vt 0.376470 0.000000
vt 0.133330 0.988240
vt 0.133330 0.000000
vt 0.376470 0.988240
vt 0.078430 0.003920
vt 0.000000 0.996080
vt 0.000000 0.000000
vt 0.078430 0.992160
vt 0.078430 0.003920
vt 0.000000 0.996080
vt 0.000000 0.000000
vt 0.078430 0.992160
vt 0.490200 0.996080
vt 0.000000 0.000000
vt 0.490200 0.000000
vt 0.000000 0.996080
vt 0.498040 0.000000
vt 0.992160 0.498040
vt 0.498040 0.498040
vt 0.992160 0.000000
vt 0.498040 0.000000
vt 0.992160 0.498040
vt 0.498040 0.498040
vt 0.992160 0.000000
vt 0.498040 0.000000
vt 0.992160 0.498040
vt 0.498040 0.498040
vt 0.992160 0.000000
vt 0.498040 0.498040
vt 0.992160 0.000000
vt 0.992160 0.498040
vt 0.498040 0.000000
vt 0.498040 0.000000
vt 0.992160 0.498040
vt 0.498040 0.498040
vt 0.992160 0.000000
vt 0.498040 0.000000
vt 0.992160 0.498040
vt 0.498040 0.498040
vt 0.992160 0.000000
vt 0.992160 0.498040
vt 0.498040 0.000000
vt 0.992160 0.000000
vt 0.498040 0.498040
vt 0.992160 0.498040
vt 0.498040 0.000000
vt 0.992160 0.000000
vt 0.498040 0.498040
vt 0.992160 0.498040
vt 0.498040 0.000000
vt 0.992160 0.000000
vt 0.498040 0.498040
vt 0.992160 0.000000
vt 0.498040 0.498040
vt 0.498040 0.000000
vt 0.992160 0.498040
vt 0.992160 0.498040
vt 0.498040 0.000000
vt 0.992160 0.000000
vt 0.498040 0.498040
vt 0.992160 0.498040
vt 0.498040 0.000000
vt 0.992160 0.000000
vt 0.498040 0.498040
vn 0.6945 0.0392 -0.7184
vn -0.5806 0.5908 -0.5603
vn 0.5800 0.5914 -0.5602
vn -0.6944 0.0387 -0.7185
vn -0.6944 0.0389 0.7185
vn 0.5802 0.5915 0.5598
vn -0.5803 0.5916 0.5597
vn 0.6948 0.0397 0.7181
vn -0.0019 0.4259 -0.9048
vn -0.0011 0.9602 -0.2792
vn -0.0010 0.9612 -0.2757
vn 0.0014 0.4251 0.9051
vn 0.0014 0.4252 0.9051
vn 0.0006 0.5515 -0.8342
vn 0.0008 0.0005 -1.0000
vn -0.8527 -0.0005 0.5224
vn -0.7085 0.5560 0.4346
vn 0.8530 -0.0000 0.5219
vn 0.7083 0.5568 0.4338
vn -0.2799 0.9600 -0.0000
vn -0.9051 0.4251 0.0014
vn -0.2766 0.9610 -0.0001
vn 0.9048 0.4259 -0.0019
vn -0.9051 0.4252 0.0014
vn 0.4335 0.5564 -0.7089
vn 0.5221 0.0000 -0.8529
vn -1.0000 -0.0005 -0.0011
vn -0.8344 0.5511 -0.0009
vn 0.4341 0.5568 0.7082
vn 0.5230 0.0005 0.8523
vn 0.5221 0.0000 -0.8528
vn 0.4341 0.5568 0.7081
vn -0.3366 -0.9416 0.0012
vn -0.5748 -0.8183 0.0015
vn -0.5752 -0.8180 0.0015
vn -0.3347 -0.9423 0.0012
vn 0.5844 -0.7656 0.2688
vn 0.5839 -0.7652 -0.2711
vn 0.9860 0.1668 -0.0019
vn 0.3371 -0.9414 -0.0000
vn 0.3356 -0.9420 -0.0000
vn 0.9861 0.1661 -0.0019
vn -0.6579 0.6885 0.3052
vn -0.6258 0.7799 0.0007
vn -0.8988 -0.0005 -0.4383
vn -0.8991 -0.0005 -0.4378
vn 0.3279 0.0004 0.9447
vn 0.7071 0.0002 -0.7071
vn 0.7070 0.0002 -0.7072
vn -0.8995 -0.0003 0.4369
vn -0.8994 -0.0003 0.4370
vn 0.3256 -0.0001 -0.9455
vn 0.7073 0.0005 0.7069
vn 0.7070 0.0005 0.7072
vn 0.8995 0.0003 -0.4369
vn -0.3252 0.0001 0.9456
vn 0.8994 0.0003 -0.4370
vn -0.7073 -0.0005 -0.7069
vn -0.7070 -0.0005 -0.7072
vn -0.3272 -0.0004 -0.9449
vn 0.8988 0.0005 0.4383
vn 0.8991 0.0005 0.4377
vn -0.3279 -0.0004 -0.9447
vn -0.7071 -0.0002 0.7071
vn -0.7070 -0.0002 0.7072
usemtl material_55
s 1
f 42/1/1 43/2/2 44/3/3
f 42/1/1 45/4/4 43/2/2
f 46/5/5 47/6/6 48/7/7
f 46/5/5 49/8/8 47/6/6
f 43/9/2 47/10/6 44/11/3
f 43/9/2 48/12/7 47/10/6
f 50/13/1 51/14/2 52/15/3
f 50/13/1 53/16/4 51/14/2
f 54/17/5 55/18/6 56/19/7
f 54/17/5 57/20/8 55/18/6
f 51/21/2 55/22/6 52/23/3
f 51/21/2 56/24/7 55/22/6
f 58/25/1 59/26/2 60/27/3
f 58/25/1 61/28/4 59/26/2
f 62/29/5 63/30/6 64/31/7
f 62/29/5 65/32/8 63/30/6
f 59/33/2 63/34/6 60/35/3
f 59/33/2 64/36/7 63/34/6
f 66/37/1 67/38/2 68/39/3
f 66/37/1 69/40/4 67/38/2
f 70/41/5 71/42/6 72/43/7
f 70/41/5 73/44/8 71/42/6
f 67/45/2 71/46/6 68/47/3
f 67/45/2 72/48/7 71/46/6
f 74/49/9 75/50/10 76/51/9
f 74/49/9 77/52/11 75/50/10
f 78/53/12 77/54/11 79/55/12
f 78/53/12 75/56/10 77/54/11
f 80/57/9 81/58/10 82/59/9
f 80/57/9 83/60/11 81/58/10
f 84/61/12 83/62/11 85/63/12
f 84/61/12 81/64/10 83/62/11
f 86/65/9 87/66/10 88/67/9
f 86/65/9 89/68/11 87/66/10
f 90/69/12 89/70/11 91/71/13
f 90/69/12 87/72/10 89/70/11
f 92/73/9 93/74/10 94/75/9
f 92/73/9 95/76/11 93/74/10
f 96/77/12 95/78/11 97/79/12
f 96/77/12 93/80/10 95/78/11
f 98/81/14 99/82/15 100/83/16
f 101/84/17 98/81/14 100/83/16
f 100/85/16 102/86/18 103/87/19
f 101/88/17 100/85/16 103/87/19
f 101/89/17 103/90/19 98/91/14
f 98/92/14 102/93/18 99/94/15
f 98/92/14 103/95/19 102/93/18
f 104/96/16 105/97/14 106/98/15
f 104/96/16 107/99/17 105/97/14
f 108/100/19 104/101/16 109/102/18
f 108/100/19 107/103/17 104/101/16
f 105/104/14 107/105/17 108/106/19
f 109/107/18 106/108/15 105/109/14
f 108/106/19 109/107/18 105/109/14
f 110/110/20 111/111/21 112/112/21
f 113/113/22 110/110/20 112/112/21
f 113/114/22 114/115/23 115/116/23
f 110/117/20 113/114/22 115/116/23
f 116/118/20 117/119/21 118/120/21
f 119/121/22 116/118/20 118/120/21
f 119/122/22 120/123/23 121/124/23
f 116/125/20 119/122/22 121/124/23
f 122/126/20 123/127/21 124/128/21
f 125/129/22 122/126/20 124/128/21
f 125/130/22 126/131/23 127/132/23
f 122/133/20 125/130/22 127/132/23
f 128/134/20 129/135/24 130/136/21
f 131/137/22 128/134/20 130/136/21
f 131/138/22 132/139/23 133/140/23
f 128/141/20 131/138/22 133/140/23
f 134/142/25 135/143/26 136/144/27
f 137/145/28 134/142/25 136/144/27
f 134/146/25 138/147/29 139/148/30
f 135/149/26 134/146/25 139/148/30
f 134/150/25 137/151/28 138/152/29
f 136/153/27 138/154/29 137/155/28
f 136/153/27 139/156/30 138/154/29
f 140/157/27 141/158/25 142/159/31
f 140/157/27 143/160/28 141/158/25
f 144/161/30 141/162/25 145/163/32
f 144/161/30 142/164/31 141/162/25
f 145/165/32 141/166/25 143/167/28
f 145/168/32 143/169/28 140/170/27
f 144/171/30 145/168/32 140/170/27
f 146/172/25 147/173/31 148/174/27
f 149/175/28 146/172/25 148/174/27
f 146/176/25 150/177/32 151/178/30
f 147/179/31 146/176/25 151/178/30
f 146/180/25 149/181/28 150/182/32
f 148/183/27 150/184/32 149/185/28
f 148/183/27 151/186/30 150/184/32
f 45/187/4 48/188/7 43/189/2
f 45/187/4 46/190/5 48/188/7
f 49/191/8 44/192/3 47/193/6
f 49/191/8 42/194/1 44/192/3
f 53/195/4 56/196/7 51/197/2
f 53/195/4 54/198/5 56/196/7
f 57/199/8 52/200/3 55/201/6
f 57/199/8 50/202/1 52/200/3
f 16/203/4 19/204/7 14/205/2
f 16/203/4 17/206/5 19/204/7
f 20/207/8 15/208/3 18/209/6
f 20/207/8 13/210/1 15/208/3
f 61/211/4 64/212/7 59/213/2
f 61/211/4 62/214/5 64/212/7
f 65/215/8 60/216/3 63/217/6
f 65/215/8 58/218/1 60/216/3
f 69/219/4 72/220/7 67/221/2
f 69/219/4 70/222/5 72/220/7
f 73/223/8 68/224/3 71/225/6
f 73/223/8 66/226/1 68/224/3
usemtl material_54
f 1/227/33 2/228/34 3/229/35
f 1/227/33 4/230/36 2/228/34
f 3/231/35 5/232/37 6/233/38
f 3/231/35 6/233/38 2/234/34
f 4/235/36 5/236/37 6/237/38
f 4/235/36 1/238/33 5/236/37
f 7/239/39 8/240/40 9/241/41
f 7/239/39 10/242/42 8/240/40
f 11/243/43 10/244/42 7/245/39
f 11/243/43 12/246/44 10/244/42
f 12/247/44 9/248/41 8/249/40
f 12/247/44 11/250/43 9/248/41
f 13/251/1 14/252/2 15/253/3
f 13/251/1 16/254/4 14/252/2
f 17/255/5 18/256/6 19/257/7
f 17/255/5 20/258/8 18/256/6
f 14/259/2 18/260/6 15/261/3
f 14/259/2 19/262/7 18/260/6
f 21/263/45 5/264/37 22/265/46
f 21/263/45 23/266/47 5/264/37
f 24/267/48 22/268/46 25/269/49
f 24/267/48 21/270/45 22/268/46
f 23/271/47 25/272/49 5/273/37
f 23/271/47 24/274/48 25/272/49
f 6/275/38 26/276/50 27/277/51
f 6/275/38 28/278/52 26/276/50
f 29/279/53 6/280/38 30/281/54
f 29/279/53 28/282/52 6/280/38
f 26/283/50 30/284/54 27/285/51
f 26/283/50 29/286/53 30/284/54
f 31/287/55 32/288/56 33/289/57
f 31/287/55 11/290/43 32/288/56
f 34/291/58 33/292/57 35/293/59
f 34/291/58 31/294/55 33/292/57
f 11/295/43 35/296/59 32/297/56
f 11/295/43 34/298/58 35/296/59
f 36/299/60 37/300/61 38/301/62
f 36/299/60 39/302/63 37/300/61
f 40/303/64 36/304/60 41/305/65
f 40/303/64 39/306/63 36/304/60
f 37/307/61 41/308/65 38/309/62
f 37/307/61 40/310/64 41/308/65
