# Blender v2.79 (sub 0) OBJ File: ''
# www.blender.org
mtllib Dock.mtl
v 23.572508 -5.909422 -19.354183
v 21.507566 -2.472989 22.413502
v 21.427053 -2.499196 -21.998163
v 23.643450 -5.886318 19.778498
v 24.106926 -2.497201 -18.601631
v 24.175152 -2.475002 19.025948
v -20.028681 -2.499076 -22.067820
v -22.090261 -5.886177 19.701651
v -22.161180 -5.909262 -19.431028
v -19.948208 -2.472866 22.343847
v -22.696260 -2.497046 -18.680265
v -22.628082 -2.474851 18.947298
v 26.805374 -2.489166 -4.963934
v -26.670273 0.013041 -4.918097
v 26.804396 0.012879 -4.828266
v -26.669268 -2.488999 -5.053766
v -26.650490 -2.482879 5.307462
v 26.822670 0.018828 5.260303
v -26.651970 0.018998 5.170472
v 26.824152 -2.483053 5.397278
v 18.766233 -41.054131 -25.417114
v 18.747124 -2.501212 -25.427231
v 24.126072 -41.050129 -18.591532
v 24.113705 -41.054157 -25.408121
v 24.094585 -2.501217 -25.418251
v 18.859158 -41.023872 25.843672
v 18.840019 -2.470967 25.833591
v 24.194252 -41.027939 19.036112
v 24.206619 -41.023911 25.852684
v 24.187496 -2.470980 25.842569
v -17.361141 -2.501103 -25.487875
v -22.677134 -41.049976 -18.670168
v -17.342012 -41.054020 -25.477776
v -22.708599 -2.501076 -25.496853
v -22.689487 -41.054016 -25.486755
v -22.608915 -41.027782 18.957495
v -17.268229 -2.470847 25.772995
v -17.249102 -41.023762 25.783094
v -22.628044 -2.474864 18.947412
v -22.615683 -2.470833 25.764000
v -22.596560 -41.023750 25.774099
v 26.765352 -2.502203 -27.049694
v -26.710297 0.000004 -27.003843
v 26.764370 -0.000161 -26.914026
v -26.709290 -2.502028 -27.139526
v -26.690529 -2.495916 -16.778316
v 26.782650 0.005801 -16.825476
v -26.692007 0.005966 -16.915291
v 26.784126 -2.496080 -16.688469
v 26.785370 -2.495682 -16.006832
v -26.690277 0.006533 -15.960979
v 26.784382 0.006353 -15.871161
v -26.689289 -2.495526 -16.096647
v -26.670498 -2.489402 -5.735435
v 26.802675 0.012320 -5.782596
v -26.671991 0.012476 -5.872427
v 26.804157 -2.489562 -5.645602
v 26.825401 -2.482650 6.078930
v -26.650249 0.019552 6.124784
v 26.824400 0.019400 6.214615
v -26.649256 -2.482483 5.989114
v -26.630478 -2.476359 16.350309
v 26.842703 0.025350 16.303165
v -26.631964 0.025519 16.213333
v 26.844175 -2.476543 16.440159
v 26.845400 -2.476148 17.121811
v -26.630219 0.026091 17.167631
v 26.844406 0.025897 17.257479
v -26.629242 -2.475967 17.031963
v -26.610453 -2.469853 27.393190
v 26.862692 0.031862 27.346046
v -26.611933 0.032037 27.256182
v 26.864166 -2.470029 27.483023
v -23.497980 4.209774 -23.727615
v -23.991274 5.360699 -0.552389
v -23.455473 4.223600 -0.278537
v -24.032787 5.347200 -23.456165
v -24.525948 4.223303 -0.825664
v -24.566479 4.210106 -23.184099
v -23.453991 4.224097 0.539446
v -23.947292 5.375021 23.714678
v -23.411480 4.237932 23.988546
v -23.988806 5.361511 0.810915
v -24.481977 4.237607 23.441420
v -24.522488 4.224426 1.082962
v -23.499720 7.735266 -23.728544
v -23.993013 8.886198 -0.553315
v -23.457211 7.749110 -0.279445
v -24.034525 8.872685 -23.457075
v -24.527691 7.748795 -0.826572
v -24.568230 7.735578 -23.185028
v -23.455748 7.749583 0.538538
v -23.949041 8.900525 23.713749
v -23.413229 7.763431 23.987619
v -23.990543 8.887012 0.809990
v -24.483723 7.763097 23.440508
v -24.524237 7.749914 1.082070
v -25.282747 0.029536 23.032175
v -22.611383 9.810718 24.397388
v -22.606533 0.030332 24.399967
v -25.287613 9.809925 23.029596
v -25.282646 9.811527 25.756222
v -25.277794 0.031149 25.758783
v -22.699358 9.782074 -24.136740
v -22.694508 0.001688 -24.134178
v -25.370703 0.000887 -25.501987
v -25.375553 9.781278 -25.504551
v -25.365749 0.002503 -22.775347
v -25.370600 9.782905 -22.777925
v -25.326727 0.015209 -1.234889
v -22.655371 9.796394 0.130359
v -22.650534 0.016006 0.132922
v -25.331564 9.795605 -1.237468
v -25.326641 9.797207 1.489174
v -25.321791 0.016820 1.491737
v 24.094414 5.347044 -23.375294
v 23.559732 4.209622 -23.648567
v 23.602232 4.223463 -0.199488
v 24.135910 5.360543 -0.471519
v 24.670740 4.223140 -0.743004
v 24.630209 4.209937 -23.101440
v 24.138372 5.361358 0.891768
v 23.603703 4.223948 0.618494
v 23.646187 4.237772 24.067612
v 24.179886 5.374870 23.795530
v 24.714706 4.237450 23.524063
v 24.674206 4.224264 1.165605
v 24.092646 8.872523 -23.376223
v 23.557993 7.735120 -23.649496
v 23.600479 7.748950 -0.200396
v 24.134167 8.886043 -0.472477
v 24.668961 7.748628 -0.743929
v 24.628469 7.735440 -23.102367
v 24.136639 8.886857 0.890827
v 23.601936 7.749435 0.617587
v 23.644455 7.763270 24.066668
v 24.178137 8.900365 23.794586
v 24.712965 7.762945 23.523136
v 24.672428 7.749756 1.164697
v 25.513342 9.809756 23.114939
v 25.518158 0.029372 23.117500
v 22.846901 0.030168 24.476334
v 22.842060 9.810582 24.473787
v 25.518269 9.811362 25.841581
v 25.523113 0.030985 25.844143
v 22.758953 0.001546 -24.057814
v 25.425339 9.781113 -25.419207
v 25.430214 0.000731 -25.416645
v 22.754093 9.781930 -24.060375
v 25.435171 0.002338 -22.690002
v 25.430323 9.782733 -22.692566
v 25.469343 9.795440 -1.152108
v 25.474201 0.015049 -1.149562
v 22.802931 0.015859 0.209271
v 22.798080 9.796264 0.206724
v 25.474291 9.797051 1.574516
v 25.479147 0.016655 1.577080
vt 0.560780 0.000000
vt 0.498040 0.996080
vt 0.498040 0.000000
vt 0.560780 0.992160
vt 0.560780 0.000000
vt 0.498040 0.996080
vt 0.498040 0.000000
vt 0.560780 0.992160
vt 0.992160 0.996080
vt 0.498040 0.000000
vt 0.992160 0.000000
vt 0.498040 0.996080
vt 0.074510 -0.003920
vt 0.000000 0.996080
vt 0.000000 0.000000
vt 0.074510 0.996080
vt 0.074510 -0.003920
vt 0.000000 0.996080
vt 0.000000 0.000000
vt 0.074510 0.996080
vt 0.490200 0.996080
vt 0.000000 0.000000
vt 0.490200 0.000000
vt 0.000000 0.996080
vt 0.560780 0.000000
vt 0.498040 0.996080
vt 0.498040 0.000000
vt 0.560780 0.992160
vt 0.560780 0.000000
vt 0.498040 0.996080
vt 0.498040 0.000000
vt 0.560780 0.992160
vt 0.992160 0.996080
vt 0.498040 0.000000
vt 0.992160 0.000000
vt 0.498040 0.996080
vt 0.074510 -0.003920
vt 0.000000 0.996080
vt 0.000000 0.000000
vt 0.074510 0.996080
vt 0.074510 -0.003920
vt 0.000000 0.996080
vt 0.000000 0.000000
vt 0.074510 0.996080
vt 0.490200 0.996080
vt 0.000000 0.000000
vt 0.490200 0.000000
vt 0.000000 0.996080
vt 0.368630 0.490200
vt 0.239220 0.007840
vt 0.368630 0.011760
vt 0.239220 0.494120
vt 0.239220 0.494120
vt 0.117650 0.007840
vt 0.239220 0.007840
vt 0.117650 0.494120
vt 0.847060 0.490200
vt 0.733330 0.011760
vt 0.847060 0.007840
vt 0.733330 0.490200
vt 0.733330 0.011760
vt 0.627450 0.494120
vt 0.733330 0.490200
vt 0.627450 0.007840
vt 0.847060 0.490200
vt 0.733330 0.011760
vt 0.847060 0.007840
vt 0.733330 0.490200
vt 0.733330 0.011760
vt 0.627450 0.494120
vt 0.733330 0.490200
vt 0.627450 0.007840
vt 0.368630 0.490200
vt 0.239220 0.007840
vt 0.368630 0.011760
vt 0.239220 0.494120
vt 0.239220 0.494120
vt 0.117650 0.007840
vt 0.239220 0.007840
vt 0.117650 0.494120
vt 0.560780 0.494120
vt 0.882350 0.121570
vt 0.882350 0.494120
vt 0.560780 0.121570
vt 0.090200 0.121570
vt 0.384310 0.494120
vt 0.090200 0.494120
vt 0.388240 0.121570
vt 0.231370 0.278430
vt 0.090200 0.121570
vt 0.388240 0.121570
vt 0.882350 0.494120
vt 0.560780 0.494120
vt 0.560780 0.121570
vt 0.882350 0.121570
vt 0.882350 0.121570
vt 0.882350 0.494120
vt 0.560780 0.494120
vt 0.560780 0.121570
vt 0.882350 0.494120
vt 0.560780 0.494120
vt 0.560780 0.121570
vt 0.882350 0.121570
vt 0.090200 0.121570
vt 0.388240 0.121570
vt 0.231370 0.278430
vt 0.560780 0.121570
vt 0.882350 0.494120
vt 0.560780 0.494120
vt 0.882350 0.121570
vt 0.560780 0.494120
vt 0.882350 0.121570
vt 0.882350 0.494120
vt 0.560780 0.121570
vt 0.560780 0.121570
vt 0.882350 0.494120
vt 0.560780 0.494120
vt 0.882350 0.121570
vt 0.231370 0.278430
vt 0.090200 0.121570
vt 0.388240 0.121570
vt 0.384310 0.494120
vt 0.090200 0.494120
vt 0.090200 0.121570
vt 0.117650 0.007840
vt 0.239220 0.007840
vt 0.239220 0.494120
vt 0.117650 0.494120
vt 0.239220 0.007840
vt 0.368630 0.011760
vt 0.368630 0.490200
vt 0.239220 0.494120
vt 0.627450 0.494120
vt 0.733330 0.490200
vt 0.733330 0.011760
vt 0.627450 0.007840
vt 0.733330 0.011760
vt 0.847060 0.007840
vt 0.847060 0.490200
vt 0.733330 0.490200
vt 0.627450 0.494120
vt 0.733330 0.490200
vt 0.733330 0.011760
vt 0.627450 0.007840
vt 0.733330 0.011760
vt 0.847060 0.007840
vt 0.847060 0.490200
vt 0.733330 0.490200
vt 0.117650 0.007840
vt 0.239220 0.007840
vt 0.239220 0.494120
vt 0.117650 0.494120
vt 0.239220 0.007840
vt 0.368630 0.011760
vt 0.368630 0.490200
vt 0.239220 0.494120
vt 0.882350 0.121570
vt 0.882350 0.494120
vt 0.560780 0.494120
vt 0.560780 0.121570
vt 0.384310 0.494120
vt 0.090200 0.494120
vt 0.090200 0.121570
vt 0.388240 0.121570
vt 0.090200 0.121570
vt 0.388240 0.121570
vt 0.231370 0.278430
vt 0.882350 0.494120
vt 0.560780 0.121570
vt 0.882350 0.121570
vt 0.560780 0.494120
vt 0.560780 0.494120
vt 0.882350 0.121570
vt 0.882350 0.494120
vt 0.560780 0.121570
vt 0.090200 0.121570
vt 0.384310 0.494120
vt 0.090200 0.494120
vt 0.388240 0.121570
vt 0.231370 0.278430
vt 0.090200 0.121570
vt 0.388240 0.121570
vt 0.560780 0.121570
vt 0.882350 0.121570
vt 0.882350 0.494120
vt 0.560780 0.494120
vt 0.882350 0.121570
vt 0.882350 0.494120
vt 0.560780 0.494120
vt 0.560780 0.121570
vt 0.560780 0.121570
vt 0.882350 0.121570
vt 0.882350 0.494120
vt 0.560780 0.494120
vt 0.090200 0.121570
vt 0.388240 0.121570
vt 0.231370 0.278430
vt 0.090200 0.121570
vt 0.384310 0.494120
vt 0.090200 0.494120
vt 0.388240 0.121570
vt 0.984310 0.490200
vt 0.478430 0.384310
vt 0.984310 0.384310
vt 0.478430 0.490200
vt 0.478430 0.384310
vt 0.984310 0.490200
vt 0.478430 0.490200
vt 0.984310 0.384310
vt 0.478430 0.384310
vt 0.000000 0.486270
vt 0.478430 0.490200
vt 0.000000 0.384310
vt 0.478430 0.384310
vt 0.000000 0.486270
vt 0.478430 0.490200
vt 0.000000 0.384310
vt 0.478430 0.196080
vt 0.000000 0.117650
vt 0.478430 0.117650
vt 0.000000 0.196080
vt 0.478430 0.196080
vt 0.000000 0.117650
vt 0.478430 0.117650
vt 0.000000 0.196080
vt 0.984310 0.384310
vt 0.478430 0.490200
vt 0.984310 0.490200
vt 0.478430 0.384310
vt 0.478430 0.384310
vt 0.984310 0.490200
vt 0.478430 0.490200
vt 0.984310 0.384310
vt 0.478430 0.384310
vt 0.000000 0.486270
vt 0.478430 0.490200
vt 0.000000 0.384310
vt 0.478430 0.384310
vt 0.000000 0.486270
vt 0.478430 0.490200
vt 0.000000 0.384310
vt 0.133330 0.988240
vt 0.376470 0.000000
vt 0.376470 0.988240
vt 0.133330 0.000000
vt 0.376470 0.000000
vt 0.133330 0.000000
vt 0.133330 0.988240
vt 0.376470 0.988240
vt 0.376470 0.000000
vt 0.133330 0.988240
vt 0.133330 0.000000
vt 0.376470 0.988240
vt 0.376470 0.000000
vt 0.133330 0.988240
vt 0.133330 0.000000
vt 0.376470 0.988240
vt 0.376470 0.000000
vt 0.133330 0.988240
vt 0.133330 0.000000
vt 0.376470 0.988240
vt 0.376470 0.000000
vt 0.133330 0.988240
vt 0.133330 0.000000
vt 0.376470 0.988240
vt 0.078430 0.003920
vt 0.000000 0.996080
vt 0.000000 0.000000
vt 0.078430 0.992160
vt 0.078430 0.003920
vt 0.000000 0.996080
vt 0.000000 0.000000
vt 0.078430 0.992160
vt 0.490200 0.996080
vt 0.000000 0.000000
vt 0.490200 0.000000
vt 0.000000 0.996080
vt 0.498040 0.000000
vt 0.992160 0.498040
vt 0.498040 0.498040
vt 0.992160 0.000000
vt 0.498040 0.000000
vt 0.992160 0.498040
vt 0.498040 0.498040
vt 0.992160 0.000000
vt 0.498040 0.000000
vt 0.992160 0.498040
vt 0.498040 0.498040
vt 0.992160 0.000000
vt 0.498040 0.498040
vt 0.992160 0.000000
vt 0.992160 0.498040
vt 0.498040 0.000000
vt 0.498040 0.000000
vt 0.992160 0.498040
vt 0.498040 0.498040
vt 0.992160 0.000000
vt 0.498040 0.000000
vt 0.992160 0.498040
vt 0.498040 0.498040
vt 0.992160 0.000000
vt 0.992160 0.498040
vt 0.498040 0.000000
vt 0.992160 0.000000
vt 0.498040 0.498040
vt 0.992160 0.498040
vt 0.498040 0.000000
vt 0.992160 0.000000
vt 0.498040 0.498040
vt 0.992160 0.498040
vt 0.498040 0.000000
vt 0.992160 0.000000
vt 0.498040 0.498040
vt 0.992160 0.000000
vt 0.498040 0.498040
vt 0.498040 0.000000
vt 0.992160 0.498040
vt 0.992160 0.498040
vt 0.498040 0.000000
vt 0.992160 0.000000
vt 0.498040 0.498040
vt 0.992160 0.498040
vt 0.498040 0.000000
vt 0.992160 0.000000
vt 0.498040 0.498040
vn 0.6945 0.0392 -0.7184
vn -0.5806 0.5908 -0.5603
vn 0.5800 0.5914 -0.5602
vn -0.6944 0.0387 -0.7185
vn -0.6944 0.0389 0.7185
vn 0.5802 0.5915 0.5598
vn -0.5803 0.5916 0.5597
vn 0.6948 0.0397 0.7181
vn 0.9048 0.4259 -0.0019
vn 0.2792 0.9602 -0.0011
vn 0.2757 0.9612 -0.0010
vn -0.9051 0.4251 0.0014
vn -0.5224 -0.0005 -0.8527
vn 0.8342 0.5515 0.0006
vn 1.0000 0.0005 0.0008
vn -0.4346 0.5560 -0.7085
vn -0.4338 0.5568 0.7083
vn -0.5219 -0.0000 0.8530
vn -0.2799 0.9600 -0.0000
vn -0.2766 0.9610 -0.0001
vn -0.9051 0.4252 0.0014
vn 0.4335 0.5564 -0.7089
vn 0.5221 0.0000 -0.8529
vn -1.0000 -0.0005 -0.0011
vn -0.8344 0.5511 -0.0009
vn 0.4341 0.5568 0.7082
vn 0.5230 0.0005 0.8523
vn 0.5221 0.0000 -0.8528
vn 0.4341 0.5568 0.7081
vn -0.3366 -0.9416 0.0012
vn -0.5748 -0.8183 0.0015
vn -0.5752 -0.8180 0.0015
vn -0.3347 -0.9423 0.0012
vn 0.5844 -0.7656 0.2688
vn 0.5839 -0.7652 -0.2711
vn 0.9860 0.1668 -0.0019
vn 0.3371 -0.9414 -0.0000
vn 0.3356 -0.9420 -0.0000
vn 0.9861 0.1661 -0.0019
vn -0.6579 0.6885 0.3052
vn -0.6258 0.7799 0.0007
vn -0.8988 -0.0005 -0.4383
vn -0.8991 -0.0005 -0.4378
vn 0.3279 0.0004 0.9447
vn 0.7071 0.0002 -0.7071
vn 0.7070 0.0002 -0.7072
vn -0.8995 -0.0003 0.4369
vn -0.8994 -0.0003 0.4370
vn 0.3256 -0.0001 -0.9455
vn 0.7073 0.0005 0.7069
vn 0.7070 0.0005 0.7072
vn 0.8995 0.0003 -0.4369
vn -0.3252 0.0001 0.9456
vn 0.8994 0.0003 -0.4370
vn -0.7073 -0.0005 -0.7069
vn -0.7070 -0.0005 -0.7072
vn -0.3272 -0.0004 -0.9449
vn 0.8988 0.0005 0.4383
vn 0.8991 0.0005 0.4377
vn -0.3279 -0.0004 -0.9447
vn -0.7071 -0.0002 0.7071
vn -0.7070 -0.0002 0.7072
usemtl material_55
s 1
f 42/1/1 43/2/2 44/3/3
f 42/1/1 45/4/4 43/2/2
f 46/5/5 47/6/6 48/7/7
f 46/5/5 49/8/8 47/6/6
f 43/9/2 47/10/6 44/11/3
f 43/9/2 48/12/7 47/10/6
f 50/13/1 51/14/2 52/15/3
f 50/13/1 53/16/4 51/14/2
f 54/17/5 55/18/6 56/19/7
f 54/17/5 57/20/8 55/18/6
f 51/21/2 55/22/6 52/23/3
f 51/21/2 56/24/7 55/22/6
f 58/25/1 59/26/2 60/27/3
f 58/25/1 61/28/4 59/26/2
f 62/29/5 63/30/6 64/31/7
f 62/29/5 65/32/8 63/30/6
f 59/33/2 63/34/6 60/35/3
f 59/33/2 64/36/7 63/34/6
f 66/37/1 67/38/2 68/39/3
f 66/37/1 69/40/4 67/38/2
f 70/41/5 71/42/6 72/43/7
f 70/41/5 73/44/8 71/42/6
f 67/45/2 71/46/6 68/47/3
f 67/45/2 72/48/7 71/46/6
f 74/49/9 75/50/10 76/51/9
f 74/49/9 77/52/11 75/50/10
f 78/53/12 77/54/11 79/55/12
f 78/53/12 75/56/10 77/54/11
f 80/57/9 81/58/10 82/59/9
f 80/57/9 83/60/11 81/58/10
f 84/61/12 83/62/11 85/63/12
f 84/61/12 81/64/10 83/62/11
f 86/65/9 87/66/10 88/67/9
f 86/65/9 89/68/11 87/66/10
f 90/69/12 89/70/11 91/71/12
f 90/69/12 87/72/10 89/70/11
f 92/73/9 93/74/10 94/75/9
f 92/73/9 95/76/11 93/74/10
f 96/77/12 95/78/11 97/79/12
f 96/77/12 93/80/10 95/78/11
f 98/81/13 99/82/14 100/83/15
f 98/81/13 101/84/16 99/82/14
f 102/85/17 98/86/13 103/87/18
f 102/85/17 101/88/16 98/86/13
f 99/89/14 101/90/16 102/91/17
f 103/92/18 100/93/15 99/94/14
f 102/95/17 103/92/18 99/94/14
f 104/96/14 105/97/15 106/98/13
f 107/99/16 104/96/14 106/98/13
f 106/100/13 108/101/18 109/102/17
f 107/103/16 106/100/13 109/102/17
f 107/104/16 109/105/17 104/106/14
f 104/107/14 108/108/18 105/109/15
f 104/107/14 109/110/17 108/108/18
f 110/111/13 111/112/14 112/113/15
f 110/111/13 113/114/16 111/112/14
f 114/115/17 110/116/13 115/117/18
f 114/115/17 113/118/16 110/116/13
f 111/119/14 113/120/16 114/121/17
f 115/122/18 112/123/15 111/124/14
f 114/121/17 115/122/18 111/124/14
f 116/125/19 117/126/12 118/127/12
f 119/128/20 116/125/19 118/127/12
f 119/129/20 120/130/9 121/131/9
f 116/132/19 119/129/20 121/131/9
f 122/133/19 123/134/12 124/135/12
f 125/136/20 122/133/19 124/135/12
f 125/137/20 126/138/9 127/139/9
f 122/140/19 125/137/20 127/139/9
f 128/141/19 129/142/12 130/143/12
f 131/144/20 128/141/19 130/143/12
f 131/145/20 132/146/9 133/147/9
f 128/148/19 131/145/20 133/147/9
f 134/149/19 135/150/21 136/151/12
f 137/152/20 134/149/19 136/151/12
f 137/153/20 138/154/9 139/155/9
f 134/156/19 137/153/20 139/155/9
f 140/157/22 141/158/23 142/159/24
f 143/160/25 140/157/22 142/159/24
f 140/161/22 144/162/26 145/163/27
f 141/164/23 140/161/22 145/163/27
f 140/165/22 143/166/25 144/167/26
f 142/168/24 144/169/26 143/170/25
f 142/168/24 145/171/27 144/169/26
f 146/172/24 147/173/22 148/174/28
f 146/172/24 149/175/25 147/173/22
f 150/176/27 147/177/22 151/178/29
f 150/176/27 148/179/28 147/177/22
f 151/180/29 147/181/22 149/182/25
f 151/183/29 149/184/25 146/185/24
f 150/186/27 151/183/29 146/185/24
f 152/187/22 153/188/28 154/189/24
f 155/190/25 152/187/22 154/189/24
f 152/191/22 156/192/29 157/193/27
f 153/194/28 152/191/22 157/193/27
f 152/195/22 155/196/25 156/197/29
f 154/198/24 156/199/29 155/200/25
f 154/198/24 157/201/27 156/199/29
f 45/202/4 48/203/7 43/204/2
f 45/202/4 46/205/5 48/203/7
f 49/206/8 44/207/3 47/208/6
f 49/206/8 42/209/1 44/207/3
f 53/210/4 56/211/7 51/212/2
f 53/210/4 54/213/5 56/211/7
f 57/214/8 52/215/3 55/216/6
f 57/214/8 50/217/1 52/215/3
f 16/218/4 19/219/7 14/220/2
f 16/218/4 17/221/5 19/219/7
f 20/222/8 15/223/3 18/224/6
f 20/222/8 13/225/1 15/223/3
f 61/226/4 64/227/7 59/228/2
f 61/226/4 62/229/5 64/227/7
f 65/230/8 60/231/3 63/232/6
f 65/230/8 58/233/1 60/231/3
f 69/234/4 72/235/7 67/236/2
f 69/234/4 70/237/5 72/235/7
f 73/238/8 68/239/3 71/240/6
f 73/238/8 66/241/1 68/239/3
usemtl material_54
f 1/242/30 2/243/31 3/244/32
f 1/242/30 4/245/33 2/243/31
f 3/246/32 5/247/34 6/248/35
f 3/246/32 6/248/35 2/249/31
f 4/250/33 5/251/34 6/252/35
f 4/250/33 1/253/30 5/251/34
f 7/254/36 8/255/37 9/256/38
f 7/254/36 10/257/39 8/255/37
f 11/258/40 10/259/39 7/260/36
f 11/258/40 12/261/41 10/259/39
f 12/262/41 9/263/38 8/264/37
f 12/262/41 11/265/40 9/263/38
f 13/266/1 14/267/2 15/268/3
f 13/266/1 16/269/4 14/267/2
f 17/270/5 18/271/6 19/272/7
f 17/270/5 20/273/8 18/271/6
f 14/274/2 18/275/6 15/276/3
f 14/274/2 19/277/7 18/275/6
f 21/278/42 5/279/34 22/280/43
f 21/278/42 23/281/44 5/279/34
f 24/282/45 22/283/43 25/284/46
f 24/282/45 21/285/42 22/283/43
f 23/286/44 25/287/46 5/288/34
f 23/286/44 24/289/45 25/287/46
f 6/290/35 26/291/47 27/292/48
f 6/290/35 28/293/49 26/291/47
f 29/294/50 6/295/35 30/296/51
f 29/294/50 28/297/49 6/295/35
f 26/298/47 30/299/51 27/300/48
f 26/298/47 29/301/50 30/299/51
f 31/302/52 32/303/53 33/304/54
f 31/302/52 11/305/40 32/303/53
f 34/306/55 33/307/54 35/308/56
f 34/306/55 31/309/52 33/307/54
f 11/310/40 35/311/56 32/312/53
f 11/310/40 34/313/55 35/311/56
f 36/314/57 37/315/58 38/316/59
f 36/314/57 39/317/60 37/315/58
f 40/318/61 36/319/57 41/320/62
f 40/318/61 39/321/60 36/319/57
f 37/322/58 41/323/62 38/324/59
f 37/322/58 40/325/61 41/323/62
