# Blender v2.79 (sub 0) OBJ File: ''
# www.blender.org
mtllib PalmtreeHorizontal.mtl
v 0.500000 5.796718 22.338600
v 0.700000 4.723855 20.110180
v 0.000000 5.796718 22.338600
v 0.125000 4.723855 20.110180
v 0.300000 5.272960 22.438540
v 0.450000 4.201204 20.592541
v 0.250000 5.461957 23.255690
v 1.300000 3.993976 16.781851
v 0.900000 3.079191 16.600571
v 0.000000 6.379206 9.625795
v 0.450000 5.155776 9.626160
v 0.500000 3.993976 16.781851
v 0.900000 6.379206 9.625795
v -0.600000 6.523864 -0.002006
v 0.000000 8.051142 -0.002830
v -1.200000 8.051142 -0.002830
v 1.691290 2.856243 22.456039
v 1.394581 4.671138 22.652380
v 1.182528 4.471361 23.199671
v 0.372167 5.514913 23.300591
v 0.604741 5.734022 22.700340
v -0.942117 2.748337 22.751650
v -0.416189 4.432420 23.306351
v -0.831050 4.590411 22.873529
v -0.218373 5.746776 22.665409
v 0.236636 5.573497 23.140110
v 1.632040 7.570037 26.607372
v 3.242732 7.526831 28.112381
v 2.451192 7.766715 26.068562
v 0.004609 5.581934 22.958450
v 0.474897 6.927779 24.613691
v 0.461633 5.681384 22.686001
v 1.294049 7.124454 24.074892
v 4.157801 4.318628 24.902620
v 5.919083 3.098917 24.744400
v 4.580419 4.629398 24.051260
v 0.323751 5.525150 23.174101
v 2.465595 5.176421 24.469021
v 0.511131 5.667895 22.783051
v 2.934701 5.521375 23.524010
v 3.510759 8.433071 24.243073
v 5.604839 9.016884 24.030361
v 3.510759 8.707389 23.491571
v 0.270572 5.558245 23.023350
v 1.493341 7.224150 23.801783
v 0.270572 5.722834 22.572451
v 1.493341 7.498468 23.050282
v 2.721475 6.510928 18.896791
v 2.987562 5.987789 16.830301
v 1.814324 6.655221 18.501492
v 0.493314 5.702532 22.688169
v 1.825012 6.512898 20.807722
v 0.076451 5.766361 22.513309
v 0.818074 6.673064 20.368952
v 4.200870 7.639071 21.771852
v 5.743344 7.597424 20.194012
v 3.700869 7.936029 20.958332
v 0.538888 5.621352 22.910561
v 2.252359 6.694369 22.564312
v 0.298888 5.754701 22.545240
v 1.752359 6.991328 21.750792
v 0.700000 8.214923 19.203592
v 0.199999 8.398307 17.067183
v -0.300000 8.214923 19.203592
v 0.440000 5.750447 22.556900
v 0.700000 7.222844 21.039341
v -0.040000 5.750447 22.556900
v -0.300000 7.222844 21.039341
v -1.072367 9.643706 20.926521
v -2.552420 10.626487 19.620832
v -1.938392 9.472257 21.396212
v 0.309163 5.724383 22.568211
v -0.063658 7.835696 22.126442
v -0.079735 5.642087 22.793659
v -0.929683 7.664246 22.596132
v -2.075562 8.478601 26.596333
v -2.698882 8.411700 28.785763
v -1.209536 8.307152 27.066021
v -0.179735 5.707570 22.614269
v -1.052914 7.577728 24.381891
v 0.309163 5.590986 22.933649
v -0.186889 7.406278 24.851582
v -3.611584 6.080884 20.074892
v -5.342666 5.098358 19.266911
v -4.111584 5.783925 20.888420
v 0.301112 5.754701 22.545240
v -1.724859 6.350293 21.253181
v -0.038888 5.552771 23.098431
v -2.279859 6.020668 22.156193
v -3.964300 7.245035 22.851322
v -6.534062 6.528600 23.122072
v -3.964300 6.902138 23.790691
v 0.035925 5.742192 22.579519
v -1.827595 6.760605 22.674492
v 0.035925 5.577601 23.030411
v -1.827595 6.417707 23.613861
v -4.311583 4.451505 24.538601
v -5.542665 2.882551 25.337139
v -3.811583 4.154544 25.352119
v -0.238888 5.698440 22.699369
v -2.452359 5.432965 23.766211
v 0.101112 5.496508 23.252569
v -1.952359 5.136006 24.579729
v -0.300000 5.323773 27.123940
v 0.200000 3.787255 28.766420
v 0.700000 5.323773 27.123940
v -0.140000 5.569345 23.053030
v -0.300000 5.790979 24.961960
v 0.540000 5.569345 23.053030
v 0.700000 5.790979 24.961960
vt 0.466667 0.968628
vt 0.890196 -0.968628
vt 0.074510 -0.968628
vt 0.890196 0.968628
vt 0.952941 -0.968628
vt 0.074510 0.968628
vt 0.011765 -0.968628
vt 0.466667 0.968628
vt 0.890196 -0.968628
vt 0.074510 -0.968628
vt 0.890196 0.968628
vt 0.952941 -0.968628
vt 0.074510 0.968628
vt 0.011765 -0.968628
vt 0.011765 -0.968628
vt 0.466667 0.968628
vt 0.952941 -0.968628
vt 0.223529 -0.968628
vt 0.011765 0.968628
vt 0.768628 -0.968628
vt 0.952941 0.968628
vt 0.952941 -0.968628
vt 0.011765 -0.968628
vt 0.952941 0.968628
vt 0.011765 0.968628
vt 0.074510 -0.968628
vt 0.466667 0.968628
vt 0.890196 -0.968628
vt 0.223529 -0.968628
vt 0.011765 0.968628
vt 0.768628 -0.968628
vt 0.952941 0.968628
vt 0.011765 -0.968628
vt 0.074510 0.968628
vt 0.952941 -0.968628
vt 0.890196 0.968628
vt 0.074510 -0.968628
vt 0.466667 0.968628
vt 0.890196 -0.968628
vt 0.223529 -0.968628
vt 0.011765 0.968628
vt 0.768628 -0.968628
vt 0.952941 0.968628
vt 0.952941 -0.968628
vt 0.011765 -0.968628
vt 0.890196 0.968628
vt 0.074510 0.968628
vt 0.074510 -0.968628
vt 0.466667 0.968628
vt 0.890196 -0.968628
vt 0.223529 -0.968628
vt 0.011765 0.968628
vt 0.768628 -0.968628
vt 0.952941 0.968628
vt 0.011765 -0.968628
vt 0.074510 0.968628
vt 0.952941 -0.968628
vt 0.890196 0.968628
vt 0.074510 -0.968628
vt 0.466667 0.968628
vt 0.890196 -0.968628
vt 0.223529 -0.968628
vt 0.011765 0.968628
vt 0.768628 -0.968628
vt 0.952941 0.968628
vt 0.952941 -0.968628
vt 0.011765 -0.968628
vt 0.890196 0.968628
vt 0.074510 0.968628
vt 0.074510 -0.968628
vt 0.466667 0.968628
vt 0.890196 -0.968628
vt 0.223529 -0.968628
vt 0.011765 0.968628
vt 0.768628 -0.968628
vt 0.952941 0.968628
vt 0.952941 -0.968628
vt 0.011765 -0.968628
vt 0.890196 0.968628
vt 0.074510 0.968628
vt 0.074510 -0.968628
vt 0.466667 0.968628
vt 0.890196 -0.968628
vt 0.223529 -0.968628
vt 0.011765 0.968628
vt 0.768628 -0.968628
vt 0.952941 0.968628
vt 0.952941 -0.968628
vt 0.011765 -0.968628
vt 0.890196 0.968628
vt 0.074510 0.968628
vt 0.074510 -0.968628
vt 0.466667 0.968628
vt 0.890196 -0.968628
vt 0.223529 -0.968628
vt 0.011765 0.968628
vt 0.768628 -0.968628
vt 0.952941 0.968628
vt 0.952941 -0.968628
vt 0.011765 -0.968628
vt 0.890196 0.968628
vt 0.074510 0.968628
vt 0.074510 -0.968628
vt 0.466667 0.968628
vt 0.890196 -0.968628
vt 0.223529 -0.968628
vt 0.011765 0.968628
vt 0.768628 -0.968628
vt 0.952941 0.968628
vt 0.011765 -0.968628
vt 0.074510 0.968628
vt 0.952941 -0.968628
vt 0.890196 0.968628
vt 0.074510 -0.968628
vt 0.466667 0.968628
vt 0.890196 -0.968628
vt 0.223529 -0.968628
vt 0.011765 0.968628
vt 0.768628 -0.968628
vt 0.952941 0.968628
vt 0.952941 -0.968628
vt 0.011765 -0.968628
vt 0.890196 0.968628
vt 0.074510 0.968628
vt 0.074510 -0.968628
vt 0.466667 0.968628
vt 0.890196 -0.968628
vt 0.223529 -0.968628
vt 0.011765 0.968628
vt 0.768628 -0.968628
vt 0.952941 0.968628
vt 0.011765 -0.968628
vt 0.074510 0.968628
vt 0.952941 -0.968628
vt 0.890196 0.968628
vt 0.074510 -0.968628
vt 0.466667 0.968628
vt 0.890196 -0.968628
vt 0.223529 -0.968628
vt 0.011765 0.968628
vt 0.768628 -0.968628
vt 0.952941 0.968628
vt 0.952941 -0.968628
vt 0.011765 -0.968628
vt 0.890196 0.968628
vt 0.074510 0.968628
vt 0.011765 -0.043137
vt 0.011765 -0.984314
vt 0.952941 -0.043137
vt 0.952941 -0.984314
vt 0.011765 -0.043137
vt 0.011765 -0.984314
vt 0.952941 -0.043137
vt 0.952941 -0.984314
vt 0.011765 -0.984314
vt 0.952941 -0.984314
vt 0.952941 -0.043137
vt 0.011765 -0.043137
vt 0.011765 -0.984314
vt 0.952941 -0.984314
vt 0.011765 -0.043137
vt 0.011765 -0.984314
vt 0.952941 -0.043137
vt 0.952941 -0.984314
vt 0.952941 -0.968628
vt 0.952941 0.968628
vt 0.011765 -0.968628
vt 0.011765 0.968628
vt 0.011765 -0.968628
vt 0.952941 -0.968628
vt 0.011765 0.968628
vt 0.952941 0.968628
vt 0.952941 0.968628
vt 0.011765 0.968628
vt 0.952941 -0.968628
vt 0.011765 -0.968628
vt 0.011765 0.968628
vt 0.011765 -0.968628
vt 0.952941 0.968628
vt 0.952941 -0.968628
vt 0.952941 0.968628
vt 0.011765 0.968628
vt 0.952941 -0.968628
vt 0.011765 -0.968628
vt 0.011765 -0.968628
vt 0.952941 -0.968628
vt 0.011765 0.968628
vt 0.952941 0.968628
vt 0.952941 -0.968628
vt 0.952941 0.968628
vt 0.011765 -0.968628
vt 0.011765 0.968628
vt 0.952941 -0.968628
vt 0.952941 0.968628
vt 0.011765 -0.968628
vt 0.011765 0.968628
vt 0.011765 0.968628
vt 0.011765 -0.968628
vt 0.952941 0.968628
vt 0.952941 -0.968628
vn 0.9134 0.1068 0.3929
vn 0.8323 0.3321 0.4437
vn 0.7199 0.5139 0.4665
vn -0.7223 -0.0022 0.6915
vn -0.6583 0.2327 0.7159
vn -0.5693 0.4280 0.7019
vn -0.2282 0.9736 0.0084
vn -0.1270 0.9782 0.1640
vn -0.4510 0.7509 -0.4824
vn -0.4014 0.8653 -0.3001
vn -0.4606 0.7468 -0.4797
vn -0.4047 0.8638 -0.3000
vn 0.4070 0.7742 0.4846
vn 0.5206 0.6857 0.5087
vn 0.4078 0.7737 0.4848
vn -0.0424 0.9449 0.3246
vn 0.1395 0.9059 0.3999
vn -0.0423 0.9449 0.3245
vn 0.1419 0.9051 0.4008
vn -0.3953 0.8628 0.3150
vn -0.2214 0.9160 0.3344
vn -0.8317 0.5215 0.1903
vn -0.6962 0.6743 0.2461
vn 0.1844 0.9807 -0.0652
vn 0.2417 0.9476 -0.2087
vn 0.1825 0.9813 -0.0606
vn -0.0197 0.9232 0.3839
vn 0.0607 0.9744 0.2164
vn -0.0198 0.9232 0.3838
vn 0.0576 0.9731 0.2231
vn -0.0160 0.9360 0.3515
vn 0.2337 0.9508 0.2034
vn -0.0193 0.9353 0.3533
vn -0.3732 0.7652 0.5245
vn -0.3012 0.8205 0.4858
vn -0.3740 0.7671 0.5212
vn -0.3021 0.8206 0.4852
vn 0.0000 0.9533 0.3021
vn 0.0000 0.9963 0.0855
vn 0.0000 0.7177 0.6963
vn 0.0000 0.8096 0.5869
vn 0.1989 0.7436 0.6383
vn 0.1107 0.8503 0.5145
vn 0.4431 0.2579 0.8585
vn 0.3511 0.4641 0.8132
vn 0.4370 0.2588 0.8614
vn 0.3489 0.4657 0.8132
vn 0.2413 0.9660 -0.0922
vn 0.1548 0.9851 0.0742
vn 0.4971 0.7072 -0.5027
vn 0.3847 0.8350 -0.3934
vn 0.4850 0.7073 -0.5142
vn 0.3814 0.8339 -0.3988
vn -0.3693 0.9228 0.1098
vn -0.4974 0.8674 0.0109
vn -0.3696 0.9227 0.1096
vn 0.0409 0.9302 0.3647
vn -0.1111 0.9536 0.2798
vn -0.1115 0.9536 0.2795
vn 0.0222 0.9391 0.3428
vn -0.2202 0.9163 0.3345
vn 0.4689 0.8297 0.3029
vn 0.3497 0.8800 0.3212
vn -0.3706 0.7756 0.5109
vn -0.4974 0.6705 0.5505
vn -0.3703 0.7759 0.5108
vn 0.0409 0.9464 0.3203
vn -0.1115 0.9095 0.4005
vn -0.1111 0.9096 0.4003
vn 0.0000 0.8953 0.4455
vn 0.0000 0.7302 0.6832
vn 0.0000 0.9933 -0.1153
vn 0.0000 0.9986 0.0531
vn 0.9378 0.3291 -0.1107
vn 0.8327 0.5463 -0.0905
vn -0.9742 0.1354 -0.1803
vn -0.8862 0.3998 -0.2340
vn 0.0654 -0.9239 0.3769
vn 0.0522 -0.9181 0.3929
vn -0.0115 -0.9744 0.2246
vn 0.9089 0.4030 0.1066
vn 0.0404 -0.9990 -0.0188
vn -0.7893 0.5722 0.2227
vn -0.0023 -0.9725 -0.2327
vn -0.8926 0.4502 0.0217
vn 0.8109 0.5785 0.0876
vn -0.0713 -0.9895 -0.1254
vn 0.7655 0.6421 0.0399
vn -0.7911 0.5784 0.1990
usemtl object_00C9FA4C_material_60
s 1
f 17/1/1 18/2/2 19/3/2
f 20/4/3 19/5/2 21/6/3
f 21/6/3 19/5/2 18/7/2
f 22/8/4 23/9/5 24/10/5
f 25/11/6 24/12/5 26/13/6
f 26/13/6 24/12/5 23/14/5
f 27/15/7 28/16/8 29/17/7
f 30/18/9 31/19/10 32/20/11
f 32/20/11 31/19/10 33/21/12
f 33/22/12 31/23/10 29/24/7
f 29/24/7 31/23/10 27/25/7
f 34/26/13 35/27/14 36/28/15
f 37/29/16 38/30/17 39/31/18
f 39/31/18 38/30/17 40/32/19
f 38/33/17 34/34/13 40/35/19
f 40/35/19 34/34/13 36/36/15
f 41/37/20 42/38/21 43/39/20
f 44/40/22 45/41/23 46/42/22
f 46/42/22 45/41/23 47/43/23
f 47/44/23 45/45/23 43/46/20
f 43/46/20 45/45/23 41/47/20
f 48/48/24 49/49/25 50/50/26
f 51/51/27 52/52/28 53/53/29
f 53/53/29 52/52/28 54/54/30
f 52/55/28 48/56/24 54/57/30
f 54/57/30 48/56/24 50/58/26
f 55/59/31 56/60/32 57/61/33
f 58/62/34 59/63/35 60/64/36
f 60/64/36 59/63/35 61/65/37
f 61/66/37 59/67/35 57/68/33
f 57/68/33 59/67/35 55/69/31
f 62/70/38 63/71/39 64/72/38
f 65/73/40 66/74/41 67/75/40
f 67/75/40 66/74/41 68/76/41
f 68/77/41 66/78/41 64/79/38
f 64/79/38 66/78/41 62/80/38
f 69/81/42 70/82/43 71/83/42
f 72/84/44 73/85/45 74/86/46
f 74/86/46 73/85/45 75/87/47
f 75/88/47 73/89/45 71/90/42
f 71/90/42 73/89/45 69/91/42
f 76/92/48 77/93/49 78/94/48
f 79/95/50 80/96/51 81/97/52
f 81/97/52 80/96/51 82/98/53
f 82/99/53 80/100/51 78/101/48
f 78/101/48 80/100/51 76/102/48
f 83/103/54 84/104/55 85/105/56
f 86/106/57 87/107/58 88/108/57
f 88/108/57 87/107/58 89/109/59
f 87/110/58 83/111/54 89/112/59
f 89/112/59 83/111/54 85/113/56
f 90/114/60 91/115/61 92/116/60
f 93/117/62 94/118/63 95/119/62
f 95/119/62 94/118/63 96/120/63
f 96/121/63 94/122/63 92/123/60
f 92/123/60 94/122/63 90/124/60
f 97/125/64 98/126/65 99/127/66
f 100/128/67 101/129/68 102/130/67
f 102/130/67 101/129/68 103/131/69
f 101/132/68 97/133/64 103/134/69
f 103/134/69 97/133/64 99/135/66
f 104/136/70 105/137/71 106/138/70
f 107/139/72 108/140/73 109/141/72
f 109/141/72 108/140/73 110/142/73
f 110/143/73 108/144/73 106/145/70
f 106/145/70 108/144/73 104/146/70
usemtl object_00C9FA4C_material_59
f 1/147/74 2/148/75 3/149/76
f 3/149/76 2/148/75 4/150/77
f 3/151/76 4/152/77 5/153/78
f 5/153/78 4/152/77 6/154/79
f 5/155/78 1/156/74 7/157/80
f 7/158/80 3/159/76 5/160/78
f 5/161/78 6/162/79 1/163/74
f 1/163/74 6/162/79 2/164/75
f 8/165/81 2/166/75 9/167/82
f 9/167/82 2/166/75 6/168/79
f 10/169/83 11/170/84 12/171/85
f 12/171/85 11/170/84 9/172/82
f 12/173/85 8/174/81 10/175/83
f 10/175/83 8/174/81 13/176/86
f 11/177/84 14/178/87 13/179/86
f 13/179/86 14/178/87 15/180/88
f 10/181/83 13/182/86 16/183/89
f 16/183/89 13/182/86 15/184/88
f 16/185/89 14/186/87 10/187/83
f 10/187/83 14/186/87 11/188/84
f 9/189/82 6/190/79 12/191/85
f 12/191/85 6/190/79 4/192/77
f 12/193/85 4/194/77 8/195/81
f 8/195/81 4/194/77 2/196/75
f 9/197/82 11/198/84 8/199/81
f 8/199/81 11/198/84 13/200/86
