# Blender v2.79 (sub 0) OBJ File: ''
# www.blender.org
mtllib RockPlatform.mtl
v -4.757280 0.550001 -11.760078
v -13.820180 6.709996 10.260707
v -8.849833 22.189323 -12.968447
v -12.799391 21.351482 9.962428
v 11.000000 6.600000 -10.192329
v 4.596242 5.279996 16.498999
v 11.233749 21.537663 -11.813722
v 10.065444 22.189320 13.258305
v -19.771402 21.351484 0.000003
v 16.933401 21.537661 0.000004
v -19.625099 6.709998 1.430001
v 15.808101 6.159998 -1.869999
v -4.069999 6.709996 15.799356
v 2.309999 6.600001 -13.356563
v 0.000000 22.189323 -15.801497
v 0.000000 22.189320 16.549503
v 13.750000 17.985003 -14.629997
v 16.280001 17.764997 7.040004
v 0.000000 17.985004 -19.689997
v -11.110001 17.985003 -16.059998
v -24.090000 17.985001 0.000003
v -15.730000 17.984999 12.320003
v 0.000000 17.984997 20.570005
v 12.320000 17.984999 16.390003
v 20.790001 17.985001 0.000003
v 4.664001 -4.069999 -4.913701
v -0.571999 -10.010006 6.916801
v 6.079921 0.549999 5.393957
v -11.870541 0.330000 -5.573325
v -18.865000 17.985003 -9.459998
v -15.398515 22.189323 -7.699725
v 13.262920 22.189322 5.647403
v -1.089000 -5.059998 0.231549
v 3.222122 -2.310004 11.047905
v -2.540999 -2.695004 12.238084
v -9.726089 -1.485003 6.498754
vt -2.121569 -0.949020
vt -1.066667 0.000000
vt -2.090196 0.000000
vt -3.643137 -0.949020
vt -3.635294 -0.188235
vt -4.792157 -0.949020
vt -4.803922 -0.188235
vt -5.619608 0.000000
vt -6.439216 -0.949020
vt -5.596078 -0.949020
vt -6.486275 0.000000
vt -7.403922 -0.949020
vt -7.435294 0.000000
vt -8.549020 -0.949020
vt -8.564706 -0.145098
vt -9.749020 -0.949020
vt -9.749020 -0.145098
vt 0.243137 -0.949020
vt 0.247059 -0.145098
vt -0.282353 0.000000
vt -0.309804 -1.000000
vt -1.105882 -0.949020
vt -0.658823 0.090196
vt -0.843137 1.000000
vt -0.996078 0.192157
vt -0.619608 -0.447059
vt -0.945098 -0.474510
vt -3.407843 1.000000
vt -3.890196 1.000000
vt -3.823529 0.152941
vt -3.454902 -0.572549
vt -3.462745 0.184314
vt -3.078431 0.184314
vt -2.952941 1.000000
vt -2.572549 1.000000
vt 0.537255 -0.572549
vt 0.172549 0.152941
vt -0.254902 -0.243137
vt -2.745098 -0.243137
vt -2.235294 -0.258824
vt -1.858824 0.192157
vt -1.482353 -0.388235
vt -1.466667 0.192157
vt -1.450980 1.000000
vt -0.788235 -0.996078
vt 0.317647 -0.643137
vt -0.435294 1.000000
vt -0.117647 0.980392
vt 0.101961 1.000000
vt -1.913725 1.000000
vt -2.231373 1.000000
vt 0.098039 -0.631373
vt 0.415686 -0.909804
vt 0.580392 -0.368627
vt 0.835294 -0.600000
vt 0.898039 -0.137255
vt 0.192157 -0.086275
vt 2.000000 -0.019608
vt 1.686275 -0.752941
vt 1.074510 -1.000000
vt 1.796078 0.325490
vt 0.592157 -0.823529
vt 1.623529 0.796078
vt 0.235294 -0.498039
vt 1.074510 0.996078
vt 0.000000 -0.019608
vt 0.376471 0.592157
vn -0.0763 0.2275 0.9708
vn 0.3462 0.8720 0.3460
vn -0.0545 0.8830 0.4661
vn -0.6554 0.2693 0.7056
vn -0.3146 0.8896 0.3310
vn -0.9758 0.2168 0.0275
vn -0.4503 0.8899 0.0721
vn -0.3443 0.8979 -0.2743
vn -0.4938 0.1324 -0.8594
vn -0.7513 0.0907 -0.6537
vn -0.2116 0.8948 -0.3930
vn -0.0003 0.1051 -0.9944
vn 0.0199 0.8861 -0.4629
vn 0.6513 0.1757 -0.7382
vn 0.3310 0.8829 -0.3331
vn 0.9826 0.1737 0.0660
vn 0.4884 0.8726 -0.0020
vn 0.3839 0.9065 0.1757
vn 0.8705 0.0765 0.4861
vn 0.7068 0.1393 0.6935
vn 0.3871 -0.5016 0.7736
vn -0.3229 -0.3707 0.8708
vn 0.6031 -0.5273 0.5986
vn -0.2139 -0.4895 0.8453
vn 0.8358 -0.5484 0.0261
vn 0.3631 -0.8884 -0.2808
vn 0.5590 -0.5005 -0.6610
vn 0.1708 -0.4487 -0.8772
vn 0.7620 -0.6007 0.2416
vn -0.1818 -0.6293 -0.7556
vn -0.6039 -0.6937 -0.3924
vn -0.8668 -0.4978 0.0264
vn -0.6211 -0.7193 0.3110
vn -0.6290 -0.3980 0.6678
vn 0.0909 -0.9923 0.0834
vn -0.0025 -0.9608 -0.2770
usemtl object_00C4299C_material_86
s 1
f 23/1/1 8/2/2 16/3/3
f 23/1/1 16/3/3 22/4/4
f 22/4/4 16/3/3 4/5/5
f 22/4/4 4/5/5 21/6/6
f 21/6/6 4/5/5 9/7/7
f 21/6/6 9/7/7 31/8/8
f 20/9/9 30/10/10 3/11/11
f 20/9/9 3/11/11 19/12/12
f 19/12/12 3/11/11 15/13/13
f 19/12/12 15/13/13 17/14/14
f 17/14/14 15/13/13 7/15/15
f 17/14/14 7/15/15 25/16/16
f 25/16/16 7/15/15 10/17/17
f 25/18/16 10/19/17 32/20/18
f 25/18/16 32/20/18 18/21/19
f 18/21/19 32/20/18 8/2/2
f 18/21/19 8/2/2 24/22/20
f 24/22/20 8/2/2 23/1/1
f 21/6/6 31/8/8 30/10/10
f 30/10/10 31/8/8 3/11/11
usemtl object_00C4299C_material_67
f 6/23/21 23/24/1 13/25/22
f 6/23/21 13/25/22 34/26/23
f 34/26/23 13/25/22 35/27/24
f 17/28/14 25/29/16 12/30/25
f 12/30/25 26/31/26 5/32/27
f 12/30/25 5/32/27 17/28/14
f 17/28/14 5/32/27 14/33/28
f 17/28/14 14/33/28 19/34/12
f 19/34/12 14/33/28 20/35/9
f 26/36/26 12/37/25 28/38/29
f 5/32/27 26/31/26 14/33/28
f 14/33/28 26/31/26 1/39/30
f 14/33/28 1/39/30 20/35/9
f 20/35/9 1/39/30 29/40/31
f 20/35/9 29/40/31 11/41/32
f 11/41/32 29/40/31 36/42/33
f 11/41/32 36/42/33 2/43/34
f 2/43/34 36/42/33 13/25/22
f 2/43/34 13/25/22 22/44/4
f 22/44/4 13/25/22 23/24/1
f 28/38/29 27/45/35 33/46/36
f 33/46/36 27/45/35 36/42/33
f 24/47/20 23/24/1 6/23/21
f 24/47/20 6/23/21 28/38/29
f 28/38/29 6/23/21 34/26/23
f 28/38/29 34/26/23 27/45/35
f 27/45/35 34/26/23 35/27/24
f 27/45/35 35/27/24 36/42/33
f 36/42/33 35/27/24 13/25/22
f 24/47/20 28/38/29 18/48/19
f 18/48/19 28/38/29 12/37/25
f 18/48/19 12/37/25 25/49/16
f 2/43/34 22/44/4 11/41/32
f 11/41/32 22/44/4 21/50/6
f 11/41/32 21/50/6 30/51/10
f 11/41/32 30/51/10 20/35/9
f 29/52/31 1/53/30 33/54/36
f 33/54/36 1/53/30 26/55/26
f 33/54/36 26/55/26 28/56/29
f 36/57/33 29/52/31 33/54/36
usemtl object_00C4299C_material_85
f 10/58/17 7/59/15 15/60/13
f 10/58/17 15/60/13 32/61/18
f 32/61/18 15/60/13 3/62/11
f 32/61/18 3/62/11 8/63/2
f 8/63/2 3/62/11 31/64/8
f 8/63/2 31/64/8 16/65/3
f 16/65/3 31/64/8 9/66/7
f 16/65/3 9/66/7 4/67/5
