# Blender v2.79 (sub 0) OBJ File: ''
# www.blender.org
mtllib SmallDock.mtl
v -30.783216 18.037733 -22.521914
v -30.816515 16.376722 -11.881754
v -31.497299 19.915239 -22.518251
v -31.530569 18.254192 -11.878114
v -32.211262 18.037760 -22.522039
v -32.244492 16.376726 -11.881882
v -30.851910 18.038855 -0.584016
v -31.566013 19.916346 -0.580417
v -32.279976 18.038866 -0.584143
v -32.353088 18.040060 22.769133
v -32.318420 16.377945 11.726078
v -31.639137 19.917501 22.772858
v -31.604477 18.255409 11.729847
v -30.925013 18.040068 22.769218
v -30.890383 16.377941 11.726164
v -30.856316 18.038923 0.831297
v -31.570473 19.916407 0.834981
v -32.284393 18.038927 0.831212
v 30.766222 18.039988 22.773901
v 30.800859 16.377865 11.730933
v 31.480110 19.917459 22.777714
v 31.514772 18.255367 11.734659
v 32.194267 18.040010 22.774029
v 32.228855 16.377861 11.731018
v 32.262932 18.038919 0.836045
v 31.548859 19.916342 0.839771
v 30.834890 18.038900 0.836045
v 32.302807 16.376669 -11.876921
v 32.267361 18.038813 -0.579203
v 31.588732 18.254166 -11.873302
v 31.553288 19.916273 -0.575563
v 30.874781 16.376696 -11.877028
v 30.839363 18.038809 -0.579332
v 30.908060 18.037695 -22.517208
v 31.621960 19.915159 -22.513481
v 32.336067 18.037691 -22.517057
v -35.795238 3.583844 27.694000
v 35.606640 3.583736 27.699409
v -35.794971 -2.048587 27.682886
v 35.606903 -2.048640 27.688337
v 35.779503 3.580936 -27.499123
v -35.622391 3.581028 -27.504574
v 35.779728 -2.051477 -27.510237
v -35.622169 -2.051380 -27.515686
v -33.275200 3.582331 -1.815778
v -29.568249 3.582421 0.095152
v -33.418137 22.357008 -1.991045
v -29.283463 22.357126 0.132265
v -33.287151 3.582511 2.005613
v -33.431438 22.357187 2.254999
v -33.202065 3.581134 -25.169054
v -29.495138 3.581178 -23.258039
v -33.344978 22.355803 -25.344297
v -29.210373 22.355886 -23.220924
v -33.214035 3.581300 -21.347599
v -33.358322 22.355997 -21.098211
v -33.348297 3.583541 21.537369
v -29.641390 3.583602 23.448404
v -33.491241 22.358198 21.362188
v -29.356575 22.358282 23.485518
v -33.360283 3.583677 25.358887
v -33.504539 22.358397 25.608189
v 33.340927 22.358095 21.367254
v 33.327625 22.358339 25.613363
v 29.192934 22.358225 23.489990
v 33.186306 3.583640 25.363955
v 29.479378 3.583541 23.452917
v 33.198265 3.583449 21.542521
v 33.414032 22.356943 -1.985977
v 29.266115 22.357038 0.136715
v 33.271408 3.582253 -1.810753
v 29.552538 3.582375 0.099728
v 33.400738 22.357122 2.260109
v 33.259438 3.582443 2.010701
v 33.487171 22.355753 -25.339231
v 33.473881 22.355932 -21.093164
v 29.339251 22.355856 -23.216539
v 33.332561 3.581285 -21.342531
v 29.625662 3.581164 -23.253569
v 33.344551 3.581073 -25.164007
vt 0.152940 0.909800
vt 4.843140 0.031370
vt 0.152940 0.031370
vt 4.843140 0.909800
vt 0.152940 0.031370
vt 4.843140 0.031370
vt 0.152940 0.909800
vt 4.843140 0.031370
vt 0.152940 0.031370
vt 4.843140 0.909800
vt 0.152940 0.031370
vt 4.843140 0.031370
vt 4.843140 0.909800
vt 0.152940 0.031370
vt 4.843140 0.031370
vt 0.152940 0.909800
vt 4.843140 0.031370
vt 0.152940 0.031370
vt 0.152940 0.909800
vt 4.843140 0.031370
vt 0.152940 0.031370
vt 4.843140 0.909800
vt 0.152940 0.031370
vt 4.843140 0.031370
vt 4.843140 0.909800
vt 0.152940 0.031370
vt 4.843140 0.031370
vt 0.152940 0.909800
vt 4.843140 0.031370
vt 0.152940 0.031370
vt 0.152940 0.909800
vt 4.843140 0.031370
vt 0.152940 0.031370
vt 4.843140 0.909800
vt 0.152940 0.031370
vt 4.843140 0.031370
vt 0.152940 0.909800
vt 4.843140 0.031370
vt 0.152940 0.031370
vt 4.843140 0.909800
vt 0.152940 0.031370
vt 4.843140 0.031370
vt 4.843140 0.909800
vt 0.152940 0.031370
vt 4.843140 0.031370
vt 0.152940 0.909800
vt 4.843140 0.031370
vt 0.152940 0.031370
vt 0.494120 0.992160
vt 0.239220 0.003920
vt 0.239220 0.992160
vt 0.494120 0.003920
vt 0.494120 0.992160
vt 0.239220 0.003920
vt 0.239220 0.992160
vt 0.494120 0.003920
vt 0.000000 0.996080
vt 4.000000 0.000000
vt 4.000000 0.996080
vt 0.000000 0.000000
vt 4.000000 0.996080
vt 0.000000 0.000000
vt 0.000000 0.996080
vt 4.000000 0.000000
vt 0.043140 0.090200
vt 3.952940 0.250980
vt 0.043140 0.250980
vt 3.952940 0.090200
vt 0.043140 0.090200
vt 3.952940 0.250980
vt 0.043140 0.250980
vt 3.952940 0.090200
vt 0.003920 0.980390
vt 0.474510 0.007840
vt 0.003920 0.007840
vt 0.474510 0.980390
vt 0.003920 0.980390
vt 0.490200 0.007840
vt 0.003920 0.007840
vt 0.490200 0.980390
vt 0.474510 0.007840
vt 0.003920 0.980390
vt 0.474510 0.980390
vt 0.003920 0.007840
vt 0.003920 0.039220
vt 0.247060 0.450980
vt 0.486270 0.039220
vt 0.474510 0.007840
vt 0.003920 0.007840
vt 0.003920 0.980390
vt 0.474510 0.980390
vt 0.490200 0.007840
vt 0.003920 0.007840
vt 0.003920 0.980390
vt 0.490200 0.980390
vt 0.003920 0.980390
vt 0.474510 0.980390
vt 0.474510 0.007840
vt 0.003920 0.007840
vt 0.247060 0.450980
vt 0.486270 0.039220
vt 0.003920 0.039220
vt 0.003920 0.980390
vt 0.474510 0.007840
vt 0.003920 0.007840
vt 0.474510 0.980390
vt 0.003920 0.980390
vt 0.490200 0.007840
vt 0.003920 0.007840
vt 0.490200 0.980390
vt 0.474510 0.007840
vt 0.003920 0.980390
vt 0.474510 0.980390
vt 0.003920 0.007840
vt 0.003920 0.039220
vt 0.247060 0.450980
vt 0.486270 0.039220
vt 0.247060 0.450980
vt 0.486270 0.039220
vt 0.003920 0.039220
vt 0.003920 0.980390
vt 0.474510 0.007840
vt 0.003920 0.007840
vt 0.474510 0.980390
vt 0.474510 0.007840
vt 0.003920 0.980390
vt 0.474510 0.980390
vt 0.003920 0.007840
vt 0.474510 0.007840
vt 0.003920 0.980390
vt 0.474510 0.980390
vt 0.003920 0.007840
vt 0.474510 0.007840
vt 0.003920 0.980390
vt 0.474510 0.980390
vt 0.003920 0.007840
vt 0.003920 0.980390
vt 0.474510 0.007840
vt 0.003920 0.007840
vt 0.474510 0.980390
vt 0.003920 0.039220
vt 0.247060 0.450980
vt 0.486270 0.039220
vt 0.003920 0.980390
vt 0.474510 0.980390
vt 0.474510 0.007840
vt 0.003920 0.007840
vt 0.247060 0.450980
vt 0.486270 0.039220
vt 0.003920 0.039220
vt 0.003920 0.980390
vt 0.474510 0.007840
vt 0.003920 0.007840
vt 0.474510 0.980390
vt 0.474510 0.007840
vt 0.003920 0.980390
vt 0.474510 0.980390
vt 0.003920 0.007840
vt 0.474510 0.007840
vt 0.003920 0.980390
vt 0.474510 0.980390
vt 0.003920 0.007840
vn 0.9331 0.3548 0.0583
vn -0.9334 0.3549 0.0525
vn -0.9335 0.3548 0.0525
vn 0.9335 0.3551 -0.0493
vn 0.9335 0.3552 -0.0493
vn -0.9332 0.3550 -0.0552
vn -0.9332 0.3550 -0.0564
vn 0.9334 0.3552 -0.0505
vn 0.9334 0.3551 -0.0505
vn 0.9332 0.3549 0.0570
vn 0.9332 0.3548 0.0570
vn -0.9335 0.3549 0.0512
vn -0.9332 0.3549 -0.0564
vn 0.9335 0.3551 -0.0505
vn -0.0001 -0.0020 1.0000
vn 0.0001 0.0020 -1.0000
vn 0.0000 1.0000 -0.0001
vn -0.0000 -1.0000 0.0001
vn -1.0000 -0.0000 -0.0031
vn 1.0000 0.0000 0.0031
vn 0.4582 -0.0048 -0.8888
vn 0.4568 -0.0052 -0.8895
vn -1.0000 -0.0076 -0.0031
vn 0.4555 -0.0083 0.8902
vn 0.4569 -0.0087 0.8895
vn -0.0000 1.0000 -0.0000
vn -0.4582 -0.0084 0.8888
vn -0.4568 -0.0087 0.8895
vn 1.0000 -0.0076 0.0031
vn -0.4556 -0.0048 -0.8902
vn -0.4569 -0.0052 -0.8895
usemtl material_170
s off
f 3/1/1 2/2/1 1/3/1
f 3/1/1 4/4/1 2/2/1
f 5/5/2 4/4/2 3/1/2
f 5/5/3 6/6/3 4/4/3
f 4/7/4 7/8/4 2/9/4
f 4/7/5 8/10/5 7/8/5
f 6/11/6 8/10/6 4/7/6
f 6/11/6 9/12/6 8/10/6
f 12/13/7 11/14/7 10/15/7
f 12/13/7 13/16/7 11/14/7
f 14/17/8 13/16/8 12/13/8
f 14/17/9 15/18/9 13/16/9
f 17/19/10 15/20/10 16/21/10
f 17/19/11 13/22/11 15/20/11
f 18/23/12 13/22/12 17/19/12
f 18/23/12 11/24/12 13/22/12
f 21/25/13 20/26/13 19/27/13
f 21/25/13 22/28/13 20/26/13
f 23/29/8 22/28/8 21/25/8
f 23/29/14 24/30/14 22/28/14
f 26/31/11 24/32/11 25/33/11
f 26/31/11 22/34/11 24/32/11
f 27/35/12 22/34/12 26/31/12
f 27/35/12 20/36/12 22/34/12
f 30/37/4 29/38/4 28/39/4
f 30/37/4 31/40/4 29/38/4
f 32/41/6 31/40/6 30/37/6
f 32/41/6 33/42/6 31/40/6
f 30/43/2 34/44/2 32/45/2
f 30/43/3 35/46/3 34/44/3
f 28/47/1 35/46/1 30/43/1
f 28/47/1 36/48/1 35/46/1
usemtl material_115
f 39/49/15 38/50/15 37/51/15
f 39/49/15 40/52/15 38/50/15
f 43/53/16 42/54/16 41/55/16
f 43/53/16 44/56/16 42/54/16
f 41/57/17 37/58/17 38/59/17
f 41/57/17 42/60/17 37/58/17
f 40/61/18 44/62/18 43/63/18
f 40/61/18 39/64/18 44/62/18
f 44/65/19 37/66/19 42/67/19
f 44/65/19 39/68/19 37/66/19
f 40/69/20 41/70/20 38/71/20
f 40/69/20 43/72/20 41/70/20
usemtl material_171
f 47/73/21 46/74/21 45/75/21
f 47/73/22 48/76/22 46/74/22
f 50/77/23 45/78/23 49/79/23
f 50/77/23 47/80/23 45/78/23
f 49/81/24 48/82/24 50/83/24
f 49/81/25 46/84/25 48/82/25
f 47/85/26 50/86/26 48/87/26
f 52/88/21 51/89/21 53/90/21
f 54/91/22 52/88/22 53/90/22
f 51/92/23 55/93/23 56/94/23
f 53/95/23 51/92/23 56/94/23
f 54/96/24 56/97/24 55/98/24
f 52/99/25 54/96/25 55/98/25
f 56/100/26 54/101/26 53/102/26
f 59/103/21 58/104/21 57/105/21
f 59/103/22 60/106/22 58/104/22
f 62/107/23 57/108/23 61/109/23
f 62/107/23 59/110/23 57/108/23
f 61/111/24 60/112/24 62/113/24
f 61/111/25 58/114/25 60/112/25
f 59/115/26 62/116/26 60/117/26
f 64/118/17 63/119/17 65/120/17
f 64/121/27 67/122/27 66/123/27
f 64/121/28 65/124/28 67/122/28
f 66/125/29 63/126/29 64/127/29
f 66/125/29 68/128/29 63/126/29
f 71/129/30 70/130/30 69/131/30
f 71/129/31 72/132/31 70/130/31
f 74/133/29 69/134/29 73/135/29
f 74/133/29 71/136/29 69/134/29
f 73/137/27 72/138/27 74/139/27
f 73/137/28 70/140/28 72/138/28
f 70/141/26 73/142/26 69/143/26
f 65/144/30 63/145/30 68/146/30
f 67/147/31 65/144/31 68/146/31
f 76/148/26 75/149/26 77/150/26
f 76/151/27 79/152/27 78/153/27
f 76/151/28 77/154/28 79/152/28
f 78/155/29 75/156/29 76/157/29
f 78/155/29 80/158/29 75/156/29
f 80/159/30 77/160/30 75/161/30
f 80/159/31 79/162/31 77/160/31
