# Blender v2.78 (sub 0) OBJ File: ''
# www.blender.org
mtllib Umbrella2.mtl
v -0.281667 45.656437 -0.281639
v -0.281667 45.656437 0.281695
v 0.281667 45.656437 0.000028
v -0.477401 -0.000003 -0.477401
v -0.477401 -0.000003 0.477401
v -0.477401 44.070107 -0.477374
v -0.477401 44.070107 0.477429
v 0.477401 44.070107 0.000028
v 0.477401 -0.000003 -0.000000
v 13.280067 40.819298 0.000027
v 9.390412 40.819298 -9.419446
v 0.000000 44.376171 0.000028
v 0.000000 40.819313 -13.321121
v -9.390412 40.819298 -9.419442
v -13.280067 40.819298 0.000027
v -9.390412 40.819298 9.419498
v 0.000000 40.819283 13.321175
v 9.390412 40.819298 9.419498
v 0.000000 33.530441 22.223043
v -15.714054 33.530441 15.714076
v -2.017940 31.218859 21.765434
v -14.125581 31.218864 16.802530
v 22.223038 33.530457 0.000020
v 15.714054 33.530472 -15.714032
v -22.223021 33.530457 0.000020
v -15.714054 33.530472 -15.714032
v -21.994532 31.218872 -1.996899
v -16.979380 31.218882 -13.978418
v 0.000000 33.530472 -22.223000
v 2.017940 31.218887 -21.765390
v 14.125579 31.218882 -16.802504
v 15.714054 33.530441 15.714076
v 21.994532 31.218872 1.996941
v 16.979380 31.218864 13.978458
v 2.017940 31.218859 21.765434
v 14.125579 31.218864 16.802530
v -14.125581 31.218882 -16.802486
v -2.017941 31.218887 -21.765390
v 16.979380 31.218882 -13.978427
v 21.994532 31.218872 -1.996899
v -16.979380 31.218864 13.978458
v -21.994532 31.218872 1.996939
vt 0.9873 0.0098
vt 0.9857 0.9828
vt 0.6576 0.0141
vt -0.0055 0.9842
vt -0.0007 0.0174
vt 0.3337 0.9845
vt 0.3341 0.0121
vt 0.6525 0.9824
vt 1.0098 0.9762
vt 0.2901 0.9754
vt 0.0000 0.9646
vt 0.0123 0.9902
vt 0.9852 0.0098
vt 0.9835 0.9758
vt 1.0000 0.0000
vt 0.9886 0.9927
vt 0.0073 0.9852
vt 0.9951 0.0078
vt 0.9924 0.9852
vt 0.0115 0.9807
vt 0.0000 0.0000
vt 0.0098 0.0143
vt 0.0000 0.0071
vt 0.0025 0.0054
vt 0.8169 -0.1513
vt 1.0000 0.0037
vt 1.0000 0.0037
vt 0.9931 0.9932
vt 0.0045 0.9938
vt 0.0045 0.9938
vt 0.9931 0.9932
vt 0.4814 1.5912
vt 0.0045 0.9938
vt 0.9931 0.9932
vt 0.0045 0.9938
vt 0.9931 0.9932
vt 0.0025 0.0054
vt 0.8169 -0.1513
vt 0.0025 0.0054
vt 0.1788 -0.1512
vt 0.1788 -0.1512
vt 1.0000 0.0037
vt 0.1788 -0.1512
vt 0.8169 -0.1513
vt 0.0025 0.0054
vt 0.1788 -0.1512
vt 1.0000 0.0037
vt 0.8169 -0.1513
vt -0.0003 0.9894
vt 0.9909 0.9912
vt 0.4629 1.6902
vt -0.0003 0.9894
vt 0.9909 0.9912
vt 0.7833 -0.1370
vt 0.0071 0.0134
vt 0.1993 -0.1401
vt 0.0071 0.0134
vt 0.7833 -0.1370
vt 0.9967 0.0146
vt 0.9967 0.0146
vt 0.1993 -0.1401
vt 0.0068 0.0049
vt 0.9950 0.0049
vt 0.5088 0.9461
vt -0.0003 0.9894
vt 0.9909 0.9912
vt 0.9916 0.9921
vt 0.0034 0.9938
vt 0.9876 0.0031
vt 0.2621 0.5586
vt 1.0000 1.0000
vt 0.0025 0.9929
vt 0.0031 0.0063
vt 0.7113 0.5559
vt 0.0071 0.0134
vt 0.9967 0.0146
vt 0.1993 -0.1401
vt 0.7833 -0.1370
vn -1.0000 0.0000 0.0000
vn -0.9983 0.0589 0.0000
vn 0.4471 0.0260 0.8941
vn 0.4472 -0.0000 0.8944
vn 0.4471 0.0266 0.8941
vn 0.4472 0.0000 -0.8944
vn 0.4471 0.0266 -0.8941
vn 0.0000 1.0000 0.0000
vn 0.4465 0.0551 -0.8931
vn 0.4471 0.0260 -0.8941
vn -0.9925 0.1225 0.0000
vn 0.4465 0.0551 0.8931
vn -0.5716 0.5807 0.5797
vn -0.3781 0.1510 0.9134
vn -0.0001 0.5691 0.8222
vn -0.8055 0.5927 0.0001
vn -0.4947 0.8690 0.0002
vn -0.3502 0.8689 -0.3499
vn 0.3503 0.8687 -0.3500
vn 0.0002 0.8686 -0.4956
vn -0.3503 0.8687 0.3500
vn -0.0002 0.8686 0.4956
vn 0.3502 0.8689 0.3499
vn 0.4947 0.8690 -0.0002
vn -0.5717 0.5805 -0.5798
vn 0.3781 0.1510 -0.9134
vn 0.5716 0.5807 -0.5797
vn 0.3736 0.1724 -0.9114
vn -0.9022 0.2149 -0.3740
vn 0.8055 0.5927 -0.0001
vn 0.9022 0.2149 0.3740
vn 0.8965 0.2356 0.3752
vn 0.5717 0.5805 0.5798
vn -0.3736 0.1724 0.9114
vn 0.0001 0.5691 -0.8222
vn -0.8965 0.2356 -0.3752
vn 0.9022 0.2149 -0.3740
vn 0.8965 0.2355 -0.3752
vn -0.9022 0.2149 0.3740
vn -0.8965 0.2356 0.3752
vn -0.3781 0.1510 -0.9134
vn -0.3736 0.1724 -0.9114
vn 0.3781 0.1510 0.9134
vn 0.3736 0.1724 0.9114
usemtl material_C84C8C
s 1
f 5/1/1 7/2/2 4/3/1
f 7/4/3 5/5/4 8/6/5
f 9/7/6 4/3/6 8/6/7
f 7/2/2 6/8/2 4/3/1
f 8/6/5 5/5/4 9/7/4
f 1/9/8 2/10/8 3/11/8
f 3/12/9 6/13/10 1/14/9
f 7/15/2 2/16/11 1/17/11
f 8/18/5 3/19/12 2/20/12
f 6/8/10 8/6/7 4/3/6
f 8/18/5 2/20/12 7/21/3
f 6/13/10 3/12/9 8/22/7
f 1/17/11 6/23/2 7/15/2
usemtl white
f 20/24/13 21/25/14 19/26/15
f 25/27/16 15/28/17 14/29/18
f 11/30/19 13/31/20 12/32/8
f 14/29/18 15/28/17 12/32/8
f 16/33/21 17/34/22 12/32/8
f 18/35/23 10/36/24 12/32/8
f 25/27/16 14/29/18 26/37/25
f 30/38/26 24/39/27 31/40/28
f 28/41/29 25/27/16 26/37/25
f 19/26/15 16/33/21 20/24/13
f 23/42/30 34/43/31 33/44/32
f 18/35/23 32/45/33 23/42/30
f 19/26/15 17/34/22 16/33/21
f 18/35/23 23/42/30 10/36/24
f 20/24/13 22/46/34 21/25/14
f 30/38/26 29/47/35 24/39/27
f 28/41/29 27/48/36 25/27/16
f 23/42/30 32/45/33 34/43/31
f 29/47/35 13/31/20 11/30/19
f 24/39/27 29/47/35 11/30/19
usemtl blue
f 10/49/24 11/50/19 12/51/8
f 15/52/17 16/53/21 12/51/8
f 39/54/37 23/55/30 40/56/38
f 25/57/16 41/58/39 20/59/13
f 20/59/13 15/52/17 25/57/16
f 11/50/19 10/49/24 24/60/27
f 24/60/27 10/49/24 23/55/30
f 39/54/37 24/60/27 23/55/30
f 25/57/16 42/61/40 41/58/39
f 16/53/21 15/52/17 20/59/13
usemtl red
f 13/62/20 14/63/18 12/64/8
f 17/65/22 18/66/23 12/51/8
f 14/67/18 13/68/20 26/69/25
f 38/70/41 26/71/25 29/72/35
f 29/73/35 26/69/25 13/68/20
f 38/70/41 37/74/42 26/71/25
f 17/65/22 19/75/15 32/76/33
f 35/77/43 36/78/44 32/76/33
f 32/76/33 18/66/23 17/65/22
f 35/77/43 32/76/33 19/75/15
