# Blender v2.79 (sub 0) OBJ File: ''
# www.blender.org
mtllib Foot.mtl
v 0.023600 1.692900 -0.892400
v -0.872700 1.692900 0.003800
v 0.023600 1.243500 0.003800
v 0.919700 1.692900 0.003800
v 0.023600 1.692900 0.900000
v 0.023600 0.832200 0.900000
v -0.872700 0.832200 0.003800
v 0.033600 0.460900 1.189400
v 2.195100 0.222800 0.871600
v 0.995200 0.775300 0.003800
v 2.813600 0.512500 0.003800
v 2.266700 -0.914400 -0.960000
v -0.006300 -0.914400 -1.288800
v 2.195100 0.222800 -0.863800
v 0.033600 0.460900 -1.181700
v -1.109200 0.612600 0.003800
v -1.154500 -0.914400 0.003800
v 2.977200 -0.914400 0.003800
v 2.266700 -0.914400 0.967600
v 0.919700 0.832200 0.003800
v 0.023600 0.832200 -0.892400
v -0.006300 -0.914400 1.296500
vt 0.871300 0.290000
vt 0.888600 0.290000
vt 0.871300 0.276200
vt 0.853900 0.290000
vt 0.871300 0.290000
vt 0.854100 0.220000
vt 0.854100 0.230000
vt 0.854100 0.250000
vt 0.884100 0.250000
vt 0.750000 0.250000
vt 0.193000 0.317000
vt 0.577000 0.500000
vt 0.081800 0.500000
vt 0.172000 1.000000
vt 0.759700 1.000000
vt 0.189300 0.813800
vt 0.750000 0.774900
vt 0.989000 0.750000
vt 1.000000 1.000000
vt 0.000000 0.000000
vt 0.039600 0.233600
vt 0.189300 0.186200
vt 0.172000 0.000000
vt 0.983200 0.500000
vt 0.808600 0.500000
vt 0.808600 0.689000
vt 0.983200 0.689000
vt 0.193000 0.683000
vt 0.750000 0.750000
vt 0.759700 0.000000
vt 0.750000 0.225100
vt 1.000000 0.000000
vt 0.989000 0.250000
vt 0.983200 0.311000
vt 0.808600 0.311000
vt 0.854100 0.270000
vt 0.854100 0.280000
vt 0.000000 1.000000
vt 0.039600 0.766400
vt 0.722100 0.000000
vt 0.722100 0.000000
vt 0.172000 0.000000
vt 0.894100 0.250000
vt 0.854100 0.210000
vt 0.854100 0.290000
vn -0.0000 0.8939 0.4483
vn 0.4482 0.8939 0.0000
vn -0.0000 1.0000 0.0000
vn -0.4483 0.8939 0.0000
vn -0.0000 0.8939 -0.4483
vn 0.0031 0.3885 0.9214
vn 0.0001 -0.0000 1.0000
vn -1.0000 -0.0000 0.0000
vn -0.8736 0.4867 0.0000
vn -0.2042 0.4049 0.8913
vn 0.4243 0.4917 0.7604
vn 0.3111 0.9504 0.0000
vn 0.7573 0.6531 -0.0000
vn 0.5131 0.1044 -0.8520
vn -0.3389 0.0862 -0.9369
vn 0.4243 0.4918 -0.7604
vn -0.2041 0.4048 -0.8913
vn -0.9310 0.3651 -0.0000
vn -0.9982 0.0606 -0.0000
vn 0.9929 0.1193 -0.0000
vn 0.5131 0.1042 0.8519
vn 1.0000 0.0000 0.0000
vn 0.8492 0.5280 -0.0000
vn 0.0031 0.3884 -0.9215
vn 0.0001 0.0000 -1.0000
vn -0.3390 0.0862 0.9368
vn -0.0000 -1.0000 -0.0000
usemtl Shoe_She_pngs_She_000_Shoe_png
s 1
f 1/1/1 2/2/2 3/3/3
f 1/1/1 3/3/3 4/4/4
f 5/5/5 4/4/4 3/3/3
f 5/5/5 3/3/3 2/2/2
f 6/6/6 5/7/7 2/8/8
f 6/6/6 2/8/8 7/9/9
f 8/10/10 9/11/11 10/12/12
f 9/11/11 11/13/13 10/12/12
f 12/14/14 13/15/15 14/16/16
f 13/15/15 15/17/17 14/16/16
f 16/18/18 15/17/17 17/19/19
f 15/17/17 13/15/15 17/19/19
f 18/20/20 11/21/13 9/22/11
f 18/20/20 9/22/11 19/23/21
f 4/24/22 20/25/23 21/26/24
f 4/24/22 21/26/24 1/27/25
f 11/13/13 14/28/16 10/12/12
f 14/28/16 15/29/17 10/12/12
f 22/30/26 8/31/10 17/32/19
f 8/31/10 16/33/18 17/32/19
f 20/25/23 4/24/22 5/34/7
f 20/25/23 5/34/7 6/35/6
f 19/23/21 9/22/11 22/30/26
f 9/22/11 8/31/10 22/30/26
f 1/36/25 21/37/24 7/9/9
f 1/36/25 7/9/9 2/8/8
f 18/38/20 12/14/14 14/16/16
f 18/38/20 14/16/16 11/39/13
f 18/20/27 19/23/27 22/40/27
f 18/20/27 22/40/27 17/32/27
f 13/41/27 12/42/27 18/20/27
f 13/41/27 18/20/27 17/32/27
f 16/43/18 8/44/10 6/6/6
f 16/43/18 6/6/6 7/9/9
f 16/43/18 7/9/9 21/37/24
f 16/43/18 21/37/24 15/45/17
f 20/25/23 6/35/6 8/10/10
f 20/25/23 8/10/10 10/12/12
f 15/29/17 21/26/24 20/25/23
f 15/29/17 20/25/23 10/12/12
