# 3ds Max Wavefront OBJ Exporter v0.97b - (c)2007 guruware
# File Created: 02.01.2016 04:07:06

mtllib Foot.mtl

#
# object Foot
#

v 1.6929 -0.0236 -0.8924
v 1.6929 0.8727 0.0038
v 1.2435 -0.0236 0.0038
v 1.6929 -0.9197 0.0038
v 1.6929 -0.0236 0.9
v 0.8322 -0.0236 0.9
v 0.8322 0.8727 0.0038
v 0.4609 -0.0336 1.1894
v 0.2228 -2.1951 0.8716
v 0.7753 -0.9952 0.0038
v 0.5125 -2.8136 0.0038
v -0.9144 -2.2667 -0.96
v -0.9144 0.0063 -1.2888
v 0.2228 -2.1951 -0.8638
v 0.4609 -0.0336 -1.1817
v 0.6126 1.1092 0.0038
v -0.9144 1.1545 0.0038
v -0.9144 -2.9772 0.0038
v -0.9144 -2.2667 0.9676
v 0.8322 -0.9197 0.0038
v 0.8322 -0.0236 -0.8924
v -0.9144 0.0063 1.2965
# 22 vertices

vn 0.695 -0.0 -0.719
vn 0.695 0.719 -0.0
vn 1.0 -0.0 -0.0
vn 0.695 -0.719 -0.0
vn 0.695 -0.0 0.719
vn 0.3884 -0.0031 0.9215
vn 0.4869 0.8734 -0.0
vn 0.4048 0.2041 0.8913
vn 0.4917 -0.4243 0.7604
vn 0.9504 -0.3111 -0.0
vn 0.653 -0.7573 -0.0
vn -0.5901 -0.4165 -0.6916
vn -0.5821 0.2766 -0.7646
vn 0.4917 -0.4243 -0.7604
vn 0.4048 0.2041 -0.8913
vn 0.3652 0.9309 -0.0
vn -0.5646 0.8254 -0.0
vn -0.5504 -0.8349 -0.0
vn -0.5901 -0.4165 0.6916
vn 0.5286 -0.8489 -0.0
vn 0.3884 -0.0031 -0.9215
vn -0.5821 0.2766 0.7646
# 22 vertex normals

vt 0.8713 0.2900 0.0000
vt 0.8886 0.2900 0.0000
vt 0.8713 0.2762 0.0000
vt 0.8539 0.2900 0.0000
vt 0.8541 0.2200 0.0000
vt 0.8541 0.2300 0.0000
vt 0.8541 0.2500 0.0000
vt 0.8841 0.2500 0.0000
vt 0.7500 0.2500 0.0000
vt 0.1930 0.3170 0.0000
vt 0.5770 0.5000 0.0000
vt 0.0818 0.5000 0.0000
vt 0.1720 1.0000 0.0000
vt 0.7597 1.0000 0.0000
vt 0.1893 0.8138 0.0000
vt 0.7500 0.7749 0.0000
vt 0.9890 0.7500 0.0000
vt 1.0000 1.0000 0.0000
vt 0.0000 0.0000 0.0000
vt 0.0396 0.2336 0.0000
vt 0.1893 0.1862 0.0000
vt 0.1720 0.0000 0.0000
vt 0.9832 0.5000 0.0000
vt 0.8086 0.5000 0.0000
vt 0.8086 0.6890 0.0000
vt 0.9832 0.6890 0.0000
vt 0.1930 0.6830 0.0000
vt 0.7500 0.7500 0.0000
vt 0.7597 0.0000 0.0000
vt 0.7500 0.2251 0.0000
vt 1.0000 0.0000 0.0000
vt 0.9890 0.2500 0.0000
vt 0.9832 0.3110 0.0000
vt 0.8086 0.3110 0.0000
vt 0.8541 0.2700 0.0000
vt 0.8541 0.2800 0.0000
vt 0.0000 1.0000 0.0000
vt 0.0396 0.7664 0.0000
vt 0.7221 0.0000 0.0000
vt 0.8941 0.2500 0.0000
vt 0.8541 0.2100 0.0000
vt 0.8541 0.2900 0.0000
# 42 texture coords

g Foot
usemtl Shoe_She_pngs_She_000_Shoe_png
f 1/1/1 2/2/2 3/3/3 
f 1/1/1 3/3/3 4/4/4 
f 5/1/5 4/4/4 3/3/3 
f 5/1/5 3/3/3 2/2/2 
f 6/5/6 5/6/5 2/7/2 
f 6/5/6 2/7/2 7/8/7 
f 8/9/8 9/10/9 10/11/10 
f 9/10/9 11/12/11 10/11/10 
f 12/13/12 13/14/13 14/15/14 
f 13/14/13 15/16/15 14/15/14 
f 16/17/16 15/16/15 17/18/17 
f 15/16/15 13/14/13 17/18/17 
f 18/19/18 11/20/11 9/21/9 
f 18/19/18 9/21/9 19/22/19 
f 4/23/4 20/24/20 21/25/21 
f 4/23/4 21/25/21 1/26/1 
f 11/12/11 14/27/14 10/11/10 
f 14/27/14 15/28/15 10/11/10 
f 22/29/22 8/30/8 17/31/17 
f 8/30/8 16/32/16 17/31/17 
f 20/24/20 4/23/4 5/33/5 
f 20/24/20 5/33/5 6/34/6 
f 19/22/19 9/21/9 22/29/22 
f 9/21/9 8/30/8 22/29/22 
f 1/35/1 21/36/21 7/8/7 
f 1/35/1 7/8/7 2/7/2 
f 18/37/18 12/13/12 14/15/14 
f 18/37/18 14/15/14 11/38/11 
f 18/19/18 19/22/19 22/39/22 
f 18/19/18 22/39/22 17/31/17 
f 13/39/13 12/22/12 18/19/18 
f 13/39/13 18/19/18 17/31/17 
f 16/40/16 8/41/8 6/5/6 
f 16/40/16 6/5/6 7/8/7 
f 16/40/16 7/8/7 21/36/21 
f 16/40/16 21/36/21 15/42/15 
f 20/24/20 6/34/6 8/9/8 
f 20/24/20 8/9/8 10/11/10 
f 15/28/15 21/25/21 20/24/20 
f 15/28/15 20/24/20 10/11/10 
# 40 faces

