# Blender v2.79 (sub 0) OBJ File: ''
# www.blender.org
mtllib Humerus.mtl
v 0.250300 -0.276100 -0.023600
v 0.148700 -0.010600 -0.023600
v 0.250300 -0.010600 -0.289000
v 0.250300 -0.010600 0.242000
v 0.250300 0.254900 -0.023600
v 1.473400 -0.010600 -0.289000
v 1.473400 -0.276100 -0.023600
v 0.861800 -0.276100 -0.023600
v 0.861800 -0.010600 -0.289000
v 1.473400 0.254900 -0.023600
v 0.861800 0.254900 -0.023600
v 1.473400 -0.010600 0.242000
v 0.861800 -0.010600 0.242000
v 1.246100 -0.001900 -0.769200
v 0.318200 -0.001900 -0.694500
v 1.246100 0.744900 -0.022500
v 0.318200 0.670200 -0.022500
v 0.318200 -0.674000 -0.022500
v 1.246100 -0.748700 -0.022500
v 0.318200 -0.001900 0.649800
v 1.246100 -0.001900 0.724300
v -0.001900 -0.001900 -0.022500
v 0.920700 -0.001900 -0.022500
vt 0.812500 0.812500
vt 0.812500 0.687500
vt 0.687500 0.687500
vt 0.812500 0.687500
vt 0.687500 0.687500
vt 0.812500 0.812500
vt 0.687500 0.687500
vt 0.812500 0.687500
vt 0.812500 0.812500
vt 0.812500 0.687500
vt 0.687500 0.687500
vt 0.687500 0.812500
vt 0.812500 0.812500
vt 0.812500 0.687500
vt 0.687500 0.687500
vt 0.687500 0.812500
vt 0.812500 0.812500
vt 0.812500 0.687500
vt 0.687500 0.687500
vt 0.687500 0.812500
vt 0.812500 0.812500
vt 0.812500 0.687500
vt 0.687500 0.812500
vt 0.812500 0.812500
vt 0.812500 0.687500
vt 0.687500 0.687500
vt 0.687500 0.812500
vt 0.812500 0.812500
vt 0.812500 0.687500
vt 0.687500 0.687500
vt 0.687500 0.812500
vt 0.812500 0.812500
vt 0.812500 0.687500
vt 0.687500 0.687500
vt 0.687500 0.812500
vt 0.875000 0.036100
vt 0.875000 0.347300
vt 0.750000 0.036100
vt 0.750000 0.347300
vt 0.750000 0.347300
vt 0.750000 0.036100
vt 0.875000 0.347300
vt 0.875000 0.036100
vt 0.750000 0.347300
vt 0.750000 0.036100
vt 0.875000 0.347300
vt 0.875000 0.036100
vt 0.750000 0.347300
vt 0.750000 0.036100
vt 0.875000 0.347300
vt 0.875000 0.036100
vt 0.750000 0.375000
vt 0.750000 0.011500
vn -0.4717 -0.8818 -0.0002
vn -1.0000 0.0000 -0.0001
vn -0.4716 0.0000 -0.8818
vn -0.4717 -0.0000 0.8818
vn -0.4717 0.8818 -0.0002
vn 0.0000 0.0000 -1.0000
vn 0.0000 -1.0000 -0.0002
vn 0.0000 1.0000 -0.0002
vn 0.0000 -0.0000 1.0000
vn -0.0802 0.0000 -0.9968
vn -0.4811 0.0000 -0.8767
vn -0.0802 0.9968 -0.0000
vn -0.4811 0.8767 -0.0001
vn -0.4811 -0.8766 -0.0001
vn -0.0802 -0.9968 -0.0001
vn -0.4811 0.0000 0.8767
vn -0.0801 0.0000 0.9968
vn 0.9168 -0.3995 0.0000
vn 0.9168 0.0000 -0.3995
vn 1.0000 -0.0000 0.0000
vn 0.9167 -0.0000 0.3995
vn 0.9168 0.3995 0.0000
usemtl Skin_Belly_png_Be_000_Belly_png_001
s 1
f 1/1/1 2/2/2 3/3/3
f 1/1/1 4/4/4 2/5/2
f 5/6/5 2/2/2 4/7/4
f 5/6/5 3/8/3 2/5/2
f 6/9/6 7/10/7 8/11/7
f 9/12/6 6/9/6 8/11/7
f 9/13/6 8/14/7 1/15/1
f 1/15/1 3/16/3 9/13/6
f 10/17/8 6/18/6 9/19/6
f 11/20/8 10/17/8 9/19/6
f 11/21/8 9/22/6 3/3/3
f 5/23/5 11/21/8 3/3/3
f 12/24/9 10/25/8 11/26/8
f 13/27/9 12/24/9 11/26/8
f 13/28/9 11/29/8 5/30/5
f 4/31/4 13/28/9 5/30/5
f 4/32/4 1/33/1 8/11/7
f 13/27/9 4/32/4 8/11/7
f 13/28/9 8/14/7 7/34/7
f 12/35/9 13/28/9 7/34/7
usemtl Hand_Hand_png_Han_001_Clothes_png
f 14/36/10 15/37/11 16/38/12
f 15/37/11 17/39/13 16/38/12
f 18/40/14 19/41/15 20/42/16
f 19/41/15 21/43/17 20/42/16
f 15/44/11 14/45/10 18/46/14
f 14/45/10 19/47/15 18/46/14
f 20/48/16 21/49/17 17/50/13
f 17/50/13 21/49/17 16/51/12
f 15/44/11 18/46/14 22/52/2
f 15/37/11 22/52/2 17/39/13
f 20/48/16 17/50/13 22/52/2
f 20/42/16 22/52/2 18/40/14
f 16/51/18 21/49/19 23/53/20
f 16/38/18 23/53/20 14/36/21
f 19/47/22 14/45/21 23/53/20
f 19/41/22 23/53/20 21/43/19
