# 3ds Max Wavefront OBJ Exporter v0.97b - (c)2007 guruware
# File Created: 02.01.2016 03:03:36

mtllib Leg.mtl

#
# object All
#

v -5.0345 -0.0471 -1.0482
v -5.0345 1.7453 0.7442
v -5.9333 -0.0471 0.7442
v -5.0345 -1.8395 0.7442
v -5.0345 -0.0471 2.5366
v -6.7559 -0.0471 2.5366
v -6.7559 1.7453 0.7442
v -7.4985 -0.0672 3.1152
v -7.9747 -4.3901 2.4796
v -6.8696 -1.9905 0.7442
v -7.3953 -5.6273 0.7442
v -10.2491 -4.5334 -1.1836
v -10.2491 0.0126 -1.8411
v -7.9747 -4.3901 -0.9912
v -7.4985 -0.0672 -1.6268
v -7.195 2.2185 0.7442
v -10.2491 2.309 0.7442
v -10.2491 -5.9544 0.7442
v -10.2491 -4.5334 2.6717
v -6.7559 -1.8395 0.7442
v -6.7559 -0.0471 -1.0482
v -10.2491 0.0126 3.3295
v -1.9328 -0.0471 1.2752
v -1.9328 -0.578 0.7442
v -1.7295 -0.0471 0.7442
v -1.9328 0.4839 0.7442
v -1.9328 -0.0471 0.2132
v -5.6018 0.4839 0.7442
v -5.6018 -0.0471 0.2132
v -6.8247 -0.0471 0.2132
v -6.8247 0.4839 0.7442
v -4.3786 0.4839 0.7442
v -4.3786 -0.0471 0.2132
v -3.1557 0.4839 0.7442
v -3.1557 -0.0471 0.2132
v -3.1557 -0.0471 1.2752
v -4.3786 -0.0471 1.2752
v -5.6018 -0.0471 1.2752
v -6.8247 -0.0471 1.2752
v -3.1557 -0.578 0.7442
v -4.3786 -0.578 0.7442
v -5.6018 -0.578 0.7442
v -6.8247 -0.5783 0.7442
# 43 vertices

vn 0.695 -0.0 -0.719
vn 0.695 0.719 -0.0
vn 1.0 -0.0 -0.0
vn 0.695 -0.719 -0.0
vn 0.695 -0.0 0.719
vn 0.3884 -0.0031 0.9215
vn 0.4869 0.8734 -0.0
vn 0.4048 0.2041 0.8913
vn 0.4917 -0.4243 0.7604
vn 0.9504 -0.3111 -0.0
vn 0.653 -0.7573 -0.0
vn -0.5901 -0.4165 -0.6916
vn -0.5821 0.2766 -0.7646
vn 0.4917 -0.4243 -0.7604
vn 0.4048 0.2041 -0.8913
vn 0.3652 0.9309 -0.0
vn -0.5646 0.8254 -0.0
vn -0.5504 -0.8349 -0.0
vn -0.5901 -0.4165 0.6916
vn 0.5286 -0.8489 -0.0
vn 0.3884 -0.0031 -0.9215
vn -0.5821 0.2766 0.7646
vn 0.4717 -0.0 0.8818
vn 0.4717 -0.8818 -0.0
vn 0.4717 0.8818 -0.0
vn 0.4717 -0.0 -0.8818
vn 0.0 1.0 -0.0
vn 0.0 -0.0 -1.0
vn 0.0 -0.0 1.0
vn 0.0 -1.0 -0.0
# 30 vertex normals

vt 0.8713 0.2900 0.0000
vt 0.8886 0.2900 0.0000
vt 0.8713 0.2762 0.0000
vt 0.8539 0.2900 0.0000
vt 0.8541 0.2200 0.0000
vt 0.8541 0.2300 0.0000
vt 0.8541 0.2500 0.0000
vt 0.8841 0.2500 0.0000
vt 0.7500 0.2500 0.0000
vt 0.1930 0.3170 0.0000
vt 0.5770 0.5000 0.0000
vt 0.0818 0.5000 0.0000
vt 0.1720 1.0000 0.0000
vt 0.7597 1.0000 0.0000
vt 0.1893 0.8138 0.0000
vt 0.7500 0.7749 0.0000
vt 0.9890 0.7500 0.0000
vt 1.0000 1.0000 0.0000
vt 0.0000 0.0000 0.0000
vt 0.0396 0.2336 0.0000
vt 0.1893 0.1862 0.0000
vt 0.1720 0.0000 0.0000
vt 0.9832 0.5000 0.0000
vt 0.8086 0.5000 0.0000
vt 0.8086 0.6890 0.0000
vt 0.9832 0.6890 0.0000
vt 0.1930 0.6830 0.0000
vt 0.7500 0.7500 0.0000
vt 0.7597 0.0000 0.0000
vt 0.7500 0.2251 0.0000
vt 1.0000 0.0000 0.0000
vt 0.9890 0.2500 0.0000
vt 0.9832 0.3110 0.0000
vt 0.8086 0.3110 0.0000
vt 0.8541 0.2700 0.0000
vt 0.8541 0.2800 0.0000
vt 0.0000 1.0000 0.0000
vt 0.0396 0.7664 0.0000
vt 0.7221 0.0000 0.0000
vt 0.8941 0.2500 0.0000
vt 0.8541 0.2100 0.0000
vt 0.8541 0.2900 0.0000
vt 0.8750 0.3750 0.0000
vt 0.8750 0.1250 0.0000
vt 0.6250 0.1250 0.0000
vt 0.6250 0.3750 0.0000
# 46 texture coords

g All
usemtl Shoe_She_pngs_She_000_Shoe_png
f 1/1/1 2/2/2 3/3/3 
f 1/1/1 3/3/3 4/4/4 
f 5/1/5 4/4/4 3/3/3 
f 5/1/5 3/3/3 2/2/2 
f 6/5/6 5/6/5 2/7/2 
f 6/5/6 2/7/2 7/8/7 
f 8/9/8 9/10/9 10/11/10 
f 9/10/9 11/12/11 10/11/10 
f 12/13/12 13/14/13 14/15/14 
f 13/14/13 15/16/15 14/15/14 
f 16/17/16 15/16/15 17/18/17 
f 15/16/15 13/14/13 17/18/17 
f 18/19/18 11/20/11 9/21/9 
f 18/19/18 9/21/9 19/22/19 
f 4/23/4 20/24/20 21/25/21 
f 4/23/4 21/25/21 1/26/1 
f 11/12/11 14/27/14 10/11/10 
f 14/27/14 15/28/15 10/11/10 
f 22/29/22 8/30/8 17/31/17 
f 8/30/8 16/32/16 17/31/17 
f 20/24/20 4/23/4 5/33/5 
f 20/24/20 5/33/5 6/34/6 
f 19/22/19 9/21/9 22/29/22 
f 9/21/9 8/30/8 22/29/22 
f 1/35/1 21/36/21 7/8/7 
f 1/35/1 7/8/7 2/7/2 
f 18/37/18 12/13/12 14/15/14 
f 18/37/18 14/15/14 11/38/11 
f 18/19/18 19/22/19 22/39/22 
f 18/19/18 22/39/22 17/31/17 
f 13/39/13 12/22/12 18/19/18 
f 13/39/13 18/19/18 17/31/17 
f 16/40/16 8/41/8 6/5/6 
f 16/40/16 6/5/6 7/8/7 
f 16/40/16 7/8/7 21/36/21 
f 16/40/16 21/36/21 15/42/15 
f 20/24/20 6/34/6 8/9/8 
f 20/24/20 8/9/8 10/11/10 
f 15/28/15 21/25/21 20/24/20 
f 15/28/15 20/24/20 10/11/10 
usemtl Skin_Belly_png_Be_000_Belly_png_001
f 23/43/23 24/44/24 25/45/3 
f 23/43/23 25/44/3 26/45/25 
f 27/43/26 26/44/25 25/45/3 
f 27/43/26 25/44/3 24/45/24 
f 28/43/27 29/44/28 30/45/28 
f 31/46/27 28/43/27 30/45/28 
f 32/43/27 33/44/28 29/45/28 
f 28/46/27 32/43/27 29/45/28 
f 34/43/27 35/44/28 33/45/28 
f 32/46/27 34/43/27 33/45/28 
f 26/43/25 27/44/26 35/45/28 
f 34/46/27 26/43/25 35/45/28 
f 34/43/27 36/44/29 23/45/23 
f 26/46/25 34/43/27 23/45/23 
f 32/43/27 37/44/29 36/45/29 
f 34/46/27 32/43/27 36/45/29 
f 28/43/27 38/44/29 37/45/29 
f 32/46/27 28/43/27 37/45/29 
f 31/43/27 39/44/29 38/45/29 
f 28/46/27 31/43/27 38/45/29 
f 36/43/29 40/44/30 24/45/24 
f 23/46/23 36/43/29 24/45/24 
f 37/43/29 41/44/30 40/45/30 
f 36/46/29 37/43/29 40/45/30 
f 38/43/29 42/44/30 41/45/30 
f 37/46/29 38/43/29 41/45/30 
f 39/43/29 43/44/30 42/45/30 
f 38/46/29 39/43/29 42/45/30 
f 24/46/24 35/44/28 27/45/26 
f 24/46/24 40/43/30 35/44/28 
f 41/43/30 33/44/28 35/45/28 
f 40/46/30 41/43/30 35/45/28 
f 42/43/30 29/44/28 33/45/28 
f 41/46/30 42/43/30 33/45/28 
f 43/43/30 30/44/28 29/45/28 
f 42/46/30 43/43/30 29/45/28 
# 76 faces

